<?xml version="1.0" standalone="no"?>
<!DOCTYPE svg PUBLIC "-//W3C//DTD SVG 1.1//EN" "http://www.w3.org/Graphics/SVG/1.1/DTD/svg11.dtd" >
<svg xmlns="http://www.w3.org/2000/svg" xmlns:xlink="http://www.w3.org/1999/xlink" version="1.1">
<metadata>
Created by FontForge 20170731 at Wed Jan 28 20:48:34 2015
 By Aleksey,,,
Copyright (c) 2008 by Village Type &#38; Design LLC. All rights reserved.
</metadata>
<defs>
<font id="GalaxiePolarisCondensed-Bold" horiz-adv-x="575" >
  <font-face 
    font-family="Galaxie Polaris Condensed Bold"
    font-weight="800"
    font-stretch="normal"
    units-per-em="2048"
    panose-1="2 0 0 0 0 0 0 0 0 0"
    ascent="1638"
    descent="-410"
    x-height="1085"
    cap-height="1597"
    bbox="-266 -518 2793 2150"
    underline-thickness="61"
    underline-position="-264"
    unicode-range="U+0020-E597"
  />
<missing-glyph horiz-adv-x="1980" 
d="M190 0v1597h1598v-1597h-1598zM989 707l-571 -572h1143zM418 1462l571 -571l572 571h-1143zM897 799l-563 563v-1126zM1081 799l564 -563v1126z" />
    <glyph glyph-name="interrobang" unicode="&#x21;&#x3f;" horiz-adv-x="1003" 
d="M666 741q-38 -22 -142 -61l-10 -291h-41l-35 985q-61 -15 -85.5 -75.5t-24.5 -186.5l-267 35q0 127 21 213.5t71 147.5t135 89.5t212 28.5q232 0 334 -94.5t102 -323.5q0 -86 -14 -153.5t-36 -113t-59.5 -84.5t-72.5 -63t-88 -53zM623 285v-285h-289v285h289zM653 1192
q0 87 -25 130t-81 54l-15 -415q65 39 93 88t28 143z" />
    <glyph glyph-name="interrobangdown" unicode="&#xa1;&#xbf;" horiz-adv-x="1003" 
d="M338 342q44 23 133 53l8 219h47l29 -794q63 13 90 71t27 177l264 -35q0 -121 -20.5 -204.5t-70 -144t-134.5 -88.5t-211 -28q-230 0 -334.5 91t-104.5 292q0 51 8 94.5t19 75.5t33.5 61.5t41.5 48.5t52.5 41.5t57 35.5t65.5 34zM381 801v284h289v-284h-289zM346 -33
q0 -129 107 -149l10 327q-62 -37 -89.5 -76.5t-27.5 -101.5z" />
    <glyph glyph-name=".notdef" horiz-adv-x="1980" 
d="M190 0v1597h1598v-1597h-1598zM989 707l-571 -572h1143zM418 1462l571 -571l572 571h-1143zM897 799l-563 563v-1126zM1081 799l564 -563v1126z" />
    <glyph glyph-name=".null" horiz-adv-x="0" 
 />
    <glyph glyph-name="nonmarkingreturn" horiz-adv-x="682" 
 />
    <glyph glyph-name="space" unicode=" " horiz-adv-x="342" 
 />
    <glyph glyph-name="exclam" unicode="!" horiz-adv-x="477" 
d="M381 283v-283h-285v283h285zM82 1597h313l-53 -1126h-209z" />
    <glyph glyph-name="quotedbl" unicode="&#x22;" horiz-adv-x="866" 
d="M84 1597h319l-45 -512h-231zM465 1597h317l-43 -512h-231z" />
    <glyph glyph-name="numbersign" unicode="#" horiz-adv-x="1064" 
d="M129 958v246h158l63 361h221l-61 -361h184l62 361h223l-61 -361h102v-246h-143l-58 -352h119v-246h-164l-59 -360h-223l61 360h-184l-62 -360h-221l59 360h-100v246h141l60 352h-117zM469 958l-59 -352h186l59 352h-186z" />
    <glyph glyph-name="dollar" unicode="$" horiz-adv-x="915" 
d="M442 446q83 0 121.5 29.5t38.5 89.5q0 61 -37 87t-137 44q-62 9 -103.5 18.5t-89 32t-75.5 54.5t-47 86.5t-19 128.5q0 176 97 255.5t284 82.5l62 211h239l-69 -226q77 -13 155 -53l-63 -233q-111 69 -275 69q-76 0 -113.5 -29t-37.5 -79q0 -52 31 -77t118 -42
q37 -6 57.5 -10t55 -12.5t54 -16.5t48 -22t44.5 -30.5t35 -40.5t29 -52.5t16.5 -66.5t6.5 -83q0 -183 -99 -265.5t-298 -84.5l-63 -211h-240l74 231q-118 26 -187 68l72 236q160 -89 315 -89z" />
    <glyph glyph-name="percent" unicode="%" horiz-adv-x="1738" 
d="M408 1382q-65 0 -89 -47.5t-24 -185.5q0 -137 23.5 -184t89.5 -47q67 0 90.5 46.5t23.5 184.5t-23.5 185.5t-90.5 47.5zM408 713q-184 0 -257 98.5t-73 337.5q0 240 73 339t257 99q185 0 258 -98.5t73 -339.5q0 -239 -73 -337.5t-258 -98.5zM362 0l801 1565h213
l-801 -1565h-213zM1331 182q65 0 89 48t24 186q0 137 -23.5 184t-89.5 47q-67 0 -90.5 -46.5t-23.5 -184.5t23.5 -186t90.5 -48zM1331 852q184 0 257 -98.5t73 -337.5q0 -240 -73 -339.5t-257 -99.5q-185 0 -258.5 99.5t-73.5 339.5q0 239 73 337.5t259 98.5z" />
    <glyph glyph-name="ampersand" unicode="&#x26;" horiz-adv-x="1114" 
d="M1034 762q0 -220 -63 -400q44 -32 84 -55v-330q-100 62 -215 160q-147 -160 -367 -160q-206 0 -311 122.5t-105 336.5q0 237 166 414q-51 95 -82.5 201t-31.5 192q0 190 84 283.5t278 93.5q183 0 258.5 -84.5t75.5 -245.5q0 -72 -18.5 -133t-60 -118t-84.5 -100.5
t-116 -107.5q106 -148 254 -296q21 115 21 225q0 102 -21 176l228 27q26 -80 26 -201zM498 213q101 0 172 80q-156 156 -310 358q-43 -79 -43 -188q0 -132 46.5 -191t134.5 -59zM367 1235q0 -105 51 -217q79 65 119.5 118t40.5 113q0 63 -22 97t-79 34q-110 0 -110 -145z
" />
    <glyph glyph-name="quotesingle" unicode="'" horiz-adv-x="485" 
d="M84 1597h319l-45 -512h-231z" />
    <glyph glyph-name="parenleft" unicode="(" horiz-adv-x="626" 
d="M360 717q0 -277 52.5 -510t162.5 -473h-268q-98 167 -161.5 431t-63.5 552t63.5 552t161.5 431h268q-110 -240 -162.5 -473t-52.5 -510z" />
    <glyph glyph-name="parenright" unicode=")" horiz-adv-x="626" 
d="M266 717q0 277 -52.5 510t-162.5 473h268q98 -168 162 -431.5t64 -551.5t-64 -551.5t-162 -431.5h-268q110 240 162.5 473t52.5 510z" />
    <glyph glyph-name="asterisk" unicode="*" horiz-adv-x="724" 
d="M272 1597h181l-19 -192l182 78l56 -172l-178 -39l116 -133l-147 -107l-101 170l-100 -170l-147 107l114 133l-176 39l56 172l180 -78z" />
    <glyph glyph-name="plus" unicode="+" horiz-adv-x="1474" 
d="M600 246v416h-416v274h416v416h274v-416h416v-274h-416v-416h-274z" />
    <glyph glyph-name="comma" unicode="," horiz-adv-x="477" 
d="M94 283h297l-129 -541h-205z" />
    <glyph glyph-name="hyphen" unicode="-" horiz-adv-x="823" 
d="M709 559h-594v254h594v-254z" />
    <glyph glyph-name="period" unicode="." horiz-adv-x="477" 
d="M381 283v-283h-285v283h285z" />
    <glyph glyph-name="slash" unicode="/" horiz-adv-x="804" 
d="M776 1782l-469 -1966h-278l469 1966h278z" />
    <glyph glyph-name="zero" unicode="0" horiz-adv-x="1064" 
d="M365 782q0 -152 5 -248t14.5 -161.5t30.5 -96.5t47.5 -43t69.5 -12q36 0 59.5 7t44 29.5t31.5 59t19 101.5t11 151t3 213t-3 213t-11 151t-19 101.5t-31.5 59t-44 29.5t-59.5 7q-43 0 -69.5 -12t-47.5 -43t-30.5 -96.5t-14.5 -161.5t-5 -248zM977 782q0 -171 -8.5 -293
t-30.5 -214t-54 -148t-84.5 -90.5t-115 -47t-152.5 -12.5t-152.5 12.5t-115 47t-84 90.5t-53.5 148t-30.5 213.5t-8.5 293.5t8.5 293.5t30.5 213.5t53.5 148t84 90.5t115 47t152.5 12.5t152.5 -12.5t115 -47t84.5 -90.5t54 -148t30.5 -214t8.5 -293z" />
    <glyph glyph-name="one" unicode="1" horiz-adv-x="1064" 
d="M987 0h-862v246h295v942q-109 -131 -316 -191v277q122 38 218 123.5t151 189.5h219v-1341h295v-246z" />
    <glyph glyph-name="two" unicode="2" horiz-adv-x="1064" 
d="M535 1348q-82 0 -114 -60.5t-32 -214.5l-274 35q0 72 4.5 125t15.5 105.5t30.5 89t51 68.5t76.5 51t106.5 29.5t141.5 10.5q122 0 200.5 -24t124.5 -78.5t64 -132.5t18 -197q0 -59 -6.5 -106t-16 -84.5t-32.5 -73t-45 -62t-64.5 -61.5t-79.5 -62t-102 -71
q-52 -35 -87.5 -64t-60.5 -59t-38.5 -55t-21 -61t-9.5 -68t-2 -84h584v-244h-873q0 110 1 177.5t7.5 140.5t15.5 114.5t29 91.5t43.5 80t64 70t85.5 73t113 78q133 86 178 148t45 164q0 117 -29 164t-112 47z" />
    <glyph glyph-name="three" unicode="3" horiz-adv-x="1064" 
d="M526 217q95 0 133.5 56.5t38.5 179.5q0 70 -12.5 116.5t-37 70t-52.5 32t-68 8.5h-131v244h131q43 0 69 14.5t43 60.5t17 129q0 127 -28.5 173.5t-114.5 46.5t-114.5 -56.5t-28.5 -206.5l-269 35q1 97 13 167.5t40 129.5t74.5 95t118 55.5t170.5 19.5q222 0 317 -95
t95 -333q0 -155 -38.5 -233.5t-119.5 -114.5q100 -26 150.5 -115t50.5 -272q0 -106 -22.5 -185t-74 -139.5t-142 -91.5t-218.5 -31q-106 0 -182.5 22.5t-123 61t-74 101.5t-37 131.5t-9.5 163.5l266 37q0 -151 35.5 -214t134.5 -63z" />
    <glyph glyph-name="four" unicode="4" horiz-adv-x="1064" 
d="M993 346h-139v-346h-262v346h-522v219l460 1022h324v-995h139v-246zM592 592l14 655l-291 -663z" />
    <glyph glyph-name="five" unicode="5" horiz-adv-x="1064" 
d="M528 217q91 0 130.5 71.5t39.5 229.5q0 122 -18.5 191.5t-51 94.5t-87.5 25q-61 0 -109.5 -37t-73.5 -92l-231 35l37 830h758v-248h-519l-16 -373q49 61 107.5 90t140.5 29q66 0 116.5 -16t93 -54.5t70.5 -100.5t43 -155.5t15 -218.5q0 -197 -49.5 -316.5t-147.5 -172
t-256 -52.5q-121 0 -203 26.5t-131.5 84.5t-70.5 141t-21 205l275 37q2 -143 33.5 -198.5t125.5 -55.5z" />
    <glyph glyph-name="six" unicode="6" horiz-adv-x="1064" 
d="M535 1352q-31 0 -54 -8.5t-40.5 -23t-28.5 -44.5t-18.5 -63t-11 -90t-4.5 -113.5t-1 -143.5q49 93 118.5 134.5t172.5 41.5q168 0 232.5 -120.5t64.5 -405.5q0 -140 -21 -237t-70.5 -166.5t-133.5 -102.5t-208 -33q-93 0 -160 17.5t-116 60t-78.5 101t-47 154t-24 204.5
t-6.5 266q0 127 4 218.5t16 181t33 149.5t54.5 112.5t81.5 82.5t113.5 46.5t150.5 16.5q116 0 193.5 -25t122 -79t63 -126t20.5 -177l-274 -35q-1 59 -6.5 95t-21 63t-43 38t-72.5 11zM559 805q-64 0 -100.5 -36.5t-79.5 -123.5q0 -165 15 -258t47.5 -133.5t90.5 -40.5
q92 0 124 65.5t32 229.5q0 162 -30 229.5t-99 67.5z" />
    <glyph glyph-name="seven" unicode="7" horiz-adv-x="1064" 
d="M541 0h-295l338 1028l102 291l-225 -2h-363v248h873v-168z" />
    <glyph glyph-name="eight" unicode="8" horiz-adv-x="1064" 
d="M532 1341q-86 0 -120.5 -46.5t-34.5 -166.5q0 -114 39 -163.5t116 -49.5t116.5 49.5t39.5 163.5q0 120 -35 166.5t-121 46.5zM532 690q-46 0 -77.5 -9.5t-57.5 -34.5t-38.5 -73t-12.5 -120q0 -122 43 -177t143 -55t143.5 55.5t43.5 176.5q0 72 -13 120t-39 73t-57.5 34.5
t-77.5 9.5zM532 -23q-129 0 -218.5 29.5t-140 88.5t-72 135.5t-21.5 181.5q0 318 190 399q-74 28 -119 120t-45 226q0 234 96.5 332t329.5 98t329.5 -98t96.5 -332q0 -134 -44.5 -226t-118.5 -120q190 -81 190 -399q0 -105 -21.5 -181.5t-72.5 -135.5t-140.5 -88.5
t-218.5 -29.5z" />
    <glyph glyph-name="nine" unicode="9" horiz-adv-x="1064" 
d="M528 213q37 0 62.5 8.5t44 33t28.5 55t16 90t7.5 121t1.5 163.5q-48 -87 -117.5 -124.5t-173.5 -37.5q-160 0 -228.5 123.5t-68.5 403.5q0 140 20.5 237t69.5 166.5t132.5 102t207.5 32.5q94 0 161.5 -17.5t116.5 -60t79 -101t47.5 -154t24 -204.5t6.5 -266
q0 -126 -4.5 -218t-16 -181.5t-32.5 -149.5t-55 -112.5t-82 -82.5t-113 -46.5t-150 -16.5q-117 0 -194.5 25t-122 79t-62.5 126t-20 178l272 35q3 -117 31 -162t112 -45zM506 760q64 0 104.5 36t75.5 109q0 244 -35.5 345.5t-120.5 101.5q-92 0 -122.5 -65t-30.5 -230
q0 -159 31.5 -228t97.5 -69z" />
    <glyph glyph-name="colon" unicode=":" horiz-adv-x="477" 
d="M381 283v-283h-285v283h285zM381 973v-281h-285v281h285z" />
    <glyph glyph-name="semicolon" unicode=";" horiz-adv-x="477" 
d="M381 973v-281h-285v281h285zM94 283h297l-129 -541h-205z" />
    <glyph glyph-name="less" unicode="&#x3c;" horiz-adv-x="1474" 
d="M768 899l-262 -100l262 -101l522 -217v-299l-1106 500v233l1106 500v-299z" />
    <glyph glyph-name="equal" unicode="=" horiz-adv-x="1474" 
d="M1290 426h-1106v274h1106v-274zM1290 897h-1106v274h1106v-274z" />
    <glyph glyph-name="greater" unicode="&#x3e;" horiz-adv-x="1474" 
d="M969 799l-262 100l-523 217v299l1106 -500v-233l-1106 -500v299l523 217z" />
    <glyph glyph-name="question" unicode="?" horiz-adv-x="1003" 
d="M569 471h-190q-60 112 -60 219q0 99 42.5 159t154.5 118q75 43 106 89.5t31 135.5q0 104 -36 146t-117 42q-97 0 -134.5 -58t-37.5 -210l-267 35q0 127 21 213.5t71 147.5t134.5 89.5t210.5 28.5q234 0 336 -94.5t102 -323.5q0 -57 -8 -104.5t-20 -82.5t-34 -67t-41 -52
t-52 -43t-55.5 -36t-61.5 -34q-9 -5 -13 -7q-63 -35 -84.5 -69t-23.5 -90q0 -70 26 -152zM616 283v-283h-284v283h284z" />
    <glyph glyph-name="at" unicode="@" horiz-adv-x="2007" 
d="M1147 451v311q-66 108 -174 108q-85 0 -122.5 -65.5t-37.5 -198.5q0 -132 37.5 -198t122.5 -66q108 0 174 109zM1358 127h-172l-12 109q-102 -134 -263 -134q-196 0 -282 123.5t-86 380.5t85.5 379.5t282.5 122.5q92 0 159 -38.5t106 -92.5l10 108h237l-8 -241v-490
q61 1 104 21t70 54.5t42 91.5t20.5 121.5t5.5 156.5q0 84 -6.5 150.5t-24.5 131.5t-48 113t-77 89t-111.5 67t-153.5 40.5t-200 14.5q-189 0 -317.5 -44.5t-210 -142.5t-117 -247t-35.5 -367t36.5 -366.5t120 -247.5t217.5 -143t333 -44q221 0 384.5 38.5t336.5 115.5
l96 -215q-346 -174 -817 -174q-510 0 -742.5 257t-232.5 779q0 519 229.5 777.5t718.5 258.5q883 0 883 -841q0 -342 -129 -507t-432 -165z" />
    <glyph glyph-name="A" unicode="A" horiz-adv-x="1044" 
d="M313 1612h418l279 -1612h-281l-45 291h-326l-43 -291h-280zM522 1364l-129 -844h256z" />
    <glyph glyph-name="B" unicode="B" horiz-adv-x="1122" 
d="M662 0h-551v1597h538q66 0 117.5 -10.5t98.5 -38.5t78 -74.5t49 -122t18 -177.5q0 -265 -152 -336q197 -50 197 -385q0 -249 -98 -351t-295 -102zM389 248h213q86 0 129 44.5t43 168.5q0 131 -44 182t-120 51h-221v-446zM588 1350h-199v-410h199q141 0 141 211
q0 115 -34 157t-107 42z" />
    <glyph glyph-name="C" unicode="C" horiz-adv-x="1107" 
d="M365 799q0 -312 43 -446t165 -134q112 0 151.5 59t41.5 224l274 -35q-2 -133 -23 -221t-72.5 -150.5t-140.5 -90.5t-224 -28q-104 0 -181.5 25.5t-138 83.5t-98 153t-57 233.5t-19.5 326.5q0 234 29 392.5t92 253.5t152.5 135t220.5 40q135 0 224 -27.5t140.5 -90
t72.5 -150t23 -219.5l-274 -37q-2 165 -41.5 223.5t-151.5 58.5q-122 0 -165 -133.5t-43 -445.5z" />
    <glyph glyph-name="D" unicode="D" horiz-adv-x="1165" 
d="M514 0h-403v1597h403q110 0 191.5 -16t146 -54.5t106.5 -97.5t70 -149.5t39.5 -207t11.5 -273.5t-11.5 -273.5t-39.5 -207.5t-70 -150t-106.5 -97.5t-146 -54.5t-191.5 -16zM389 248h133q48 0 84.5 7t65.5 23.5t49 37.5t34.5 57.5t23.5 74.5t14 96t6.5 115.5t1.5 139.5
t-1.5 139.5t-6.5 115.5t-14 96t-23.5 74.5t-34.5 57.5t-49 37.5t-65.5 23.5t-84.5 7h-133v-1102z" />
    <glyph glyph-name="E" unicode="E" horiz-adv-x="964" 
d="M111 1597h757v-247h-481v-410h401v-246h-401v-446h510v-248h-786v1597z" />
    <glyph glyph-name="F" unicode="F" horiz-adv-x="913" 
d="M387 694v-694h-276v1597h749v-247h-473v-410h406v-246h-406z" />
    <glyph glyph-name="G" unicode="G" horiz-adv-x="1146" 
d="M86 799q0 181 15.5 311t50.5 230.5t95 160t146.5 89.5t206.5 30q113 0 192.5 -19t131.5 -54.5t81.5 -97t42 -135.5t13.5 -181l-275 -37q-1 164 -42 223t-150 59q-135 0 -182 -130t-47 -449q0 -69 0.5 -115.5t2.5 -101t5.5 -89.5t10 -74t15.5 -63.5t22 -49.5t30 -39
t39 -26t49 -17t61 -5q113 0 193 39v389h-181v230h447v-781q-97 -62 -203 -90.5t-262 -28.5q-102 0 -178.5 19.5t-133.5 63.5t-94.5 107t-60 158t-32 208.5t-9.5 265.5z" />
    <glyph glyph-name="H" unicode="H" horiz-adv-x="1140" 
d="M754 1597h276v-1597h-276v694h-367v-694h-276v1597h276v-657h367v657z" />
    <glyph glyph-name="I" unicode="I" horiz-adv-x="520" 
d="M399 1597v-1597h-278v1597h278z" />
    <glyph glyph-name="J" unicode="J" horiz-adv-x="942" 
d="M555 1597h274v-1179q0 -239 -98.5 -340t-312.5 -101q-119 0 -197.5 28t-120 85.5t-57.5 128.5t-16 174l268 33q0 -109 27.5 -159.5t101.5 -49.5q76 1 103.5 46t27.5 153v1181z" />
    <glyph glyph-name="K" unicode="K" horiz-adv-x="1097" 
d="M387 1597l-6 -753l328 753h329l-354 -696l383 -901h-332l-237 657l-117 -217l6 -440h-276v1597h276z" />
    <glyph glyph-name="L" unicode="L" horiz-adv-x="860" 
d="M387 1597v-1349h432v-248h-708v1597h276z" />
    <glyph glyph-name="M" unicode="M" horiz-adv-x="1435" 
d="M834 0h-234l-229 1020l14 -1020h-274v1597h387l219 -1087l219 1087h387v-1597h-272l14 1020z" />
    <glyph glyph-name="N" unicode="N" horiz-adv-x="1157" 
d="M418 1597l235 -657l138 -399l-5 387v669h258v-1597h-307l-235 657l-135 400l4 -387l2 -670h-262v1597h307z" />
    <glyph glyph-name="O" unicode="O" horiz-adv-x="1134" 
d="M567 1620q84 0 150.5 -15.5t117 -46t87 -81t61.5 -113.5t39.5 -151t20.5 -187t6 -227q0 -150 -8.5 -261t-29.5 -207t-56 -159.5t-88.5 -108.5t-127.5 -65.5t-172 -20.5t-172 20.5t-127.5 65.5t-88.5 108.5t-55.5 159.5t-29 207t-8.5 261t8.5 261t29 206.5t55.5 159
t88.5 109t127.5 65.5t172 20zM567 219q123 0 163 122t40 458t-40 457.5t-163 121.5t-162.5 -121t-39.5 -458t39.5 -458.5t162.5 -121.5z" />
    <glyph glyph-name="P" unicode="P" horiz-adv-x="1040" 
d="M391 819h148q87 0 125 58.5t38 207.5q0 147 -38 206t-125 59h-148v-531zM391 571v-571h-276v1597h438q75 0 135.5 -13t117 -48t94.5 -91.5t60.5 -147.5t22.5 -212q0 -122 -22 -213.5t-59.5 -148t-93 -91.5t-115 -48t-134.5 -13h-168z" />
    <glyph glyph-name="Q" unicode="Q" horiz-adv-x="1134" 
d="M567 1620q84 0 150.5 -15.5t117 -46t87 -81t61.5 -113.5t39.5 -151t20.5 -187t6 -227q0 -131 -6.5 -232t-22 -190t-41.5 -152.5t-65 -113t-92.5 -79t-123.5 -42.5l265 -180l-129 -248l-560 495q-102 90 -145 266.5t-43 475.5q0 150 8.5 261t29 206.5t55.5 159t88.5 109
t127.5 65.5t172 20zM567 219q123 0 163 122t40 458t-40 457.5t-163 121.5t-162.5 -121t-39.5 -458t39.5 -458.5t162.5 -121.5z" />
    <glyph glyph-name="R" unicode="R" horiz-adv-x="1077" 
d="M389 606v-606h-278v1597h450q64 0 113.5 -7t101 -25.5t88.5 -54t67 -88.5t45 -133.5t15 -184.5q0 -138 -27.5 -235.5t-69.5 -148t-103 -81.5l235 -639h-315l-185 606h-137zM389 856h135q38 0 64 5t51 20.5t39.5 42.5t23.5 72t9 108t-9 107.5t-23.5 71t-39.5 42t-51 20.5
t-64 5h-135v-494z" />
    <glyph glyph-name="S" unicode="S" horiz-adv-x="1042" 
d="M508 217q105 0 153 50t48 167q0 63 -12.5 103.5t-45.5 69t-75 46t-117 37.5q-67 18 -114 36t-100 54t-85.5 83t-54 123t-21.5 175q0 242 104.5 353.5t352.5 111.5q80 0 142.5 -12.5t106.5 -33t75 -55.5t49.5 -72t29.5 -92t14.5 -105.5t4.5 -120.5l-269 -35
q0 60 -2.5 98.5t-12 76.5t-27 58.5t-47.5 33.5t-73 13q-85 0 -127.5 -50t-42.5 -161q0 -63 9.5 -101t38 -64t66 -40t108.5 -30q79 -17 135 -37t108.5 -55.5t84 -85.5t51 -126t20.5 -177q0 -260 -116.5 -371t-364.5 -111q-92 0 -161.5 13.5t-119 42.5t-81.5 68t-50.5 97.5
t-26 123t-8.5 151.5l267 35q1 -64 5 -106t15.5 -79t32 -57t53 -31.5t80.5 -11.5z" />
    <glyph glyph-name="T" unicode="T" horiz-adv-x="931" 
d="M604 1350v-1350h-276v1350h-287v247h850v-247h-287z" />
    <glyph glyph-name="U" unicode="U" horiz-adv-x="1101" 
d="M551 217q105 0 137.5 46t32.5 163v1171h276v-1183q0 -78 -7.5 -136.5t-26.5 -110t-51.5 -86.5t-81.5 -60.5t-118.5 -37.5t-160.5 -12q-109 0 -187.5 18t-129 51.5t-80 89.5t-41 123t-11.5 161v1183h279v-1171q0 -117 32.5 -163t137.5 -46z" />
    <glyph glyph-name="V" unicode="V" horiz-adv-x="1044" 
d="M731 -14h-418l-278 1611h280l207 -1364l207 1364h281z" />
    <glyph glyph-name="W" unicode="W" horiz-adv-x="1480" 
d="M895 -14l-154 1210l-155 -1210h-375l-156 1611h258l103 -1224l168 1224h313l168 -1224l102 1224h260l-157 -1611h-375z" />
    <glyph glyph-name="X" unicode="X" horiz-adv-x="1142" 
d="M784 0l-213 631l-211 -631h-323l297 825l-268 772h311l194 -604l195 604h311l-268 -772l297 -825h-322z" />
    <glyph glyph-name="Y" unicode="Y" horiz-adv-x="1056" 
d="M528 842l232 755h284l-380 -1046l4 -551h-277l2 551l-381 1046h285z" />
    <glyph glyph-name="Z" unicode="Z" horiz-adv-x="1030" 
d="M59 0v201l498 989l86 164l-272 -2h-281v245h862v-200l-497 -989l-86 -164l274 2h318v-246h-902z" />
    <glyph glyph-name="bracketleft" unicode="[" horiz-adv-x="626" 
d="M575 1452h-139v-1470h139v-248h-415v1966h415v-248z" />
    <glyph glyph-name="backslash" unicode="\" horiz-adv-x="804" 
d="M498 -184l-469 1966h278l469 -1966h-278z" />
    <glyph glyph-name="bracketright" unicode="]" horiz-adv-x="634" 
d="M61 -18h138v1470h-138v248h414v-1966h-414v248z" />
    <glyph glyph-name="asciicircum" unicode="^" horiz-adv-x="1165" 
d="M461 1626h244l419 -807h-288l-160 322l-92 192l-95 -192l-159 -322h-289z" />
    <glyph glyph-name="underscore" unicode="_" horiz-adv-x="722" 
d="M659 -410h-596v199h596v-199z" />
    <glyph glyph-name="grave" unicode="`" horiz-adv-x="1269" 
d="M381 1638h303l94 -426h-272z" />
    <glyph glyph-name="a" unicode="a" horiz-adv-x="974" 
d="M489 903q-65 0 -92.5 -36t-27.5 -124l-275 33q0 83 17 140.5t60.5 103t123 67t199.5 21.5q149 0 232 -34.5t117 -107.5t34 -204v-479l6 -283h-242l-12 109q-54 -71 -122 -101.5t-171 -30.5q-279 0 -279 332q0 86 23.5 146.5t76 102.5t127.5 67t185 41l137 20v98
q0 59 -26.5 89t-90.5 30zM328 332q0 -137 114 -137q99 0 164 88v231l-114 -18q-84 -11 -124 -47.5t-40 -116.5z" />
    <glyph glyph-name="b" unicode="b" horiz-adv-x="1038" 
d="M616 1108q181 0 269 -137t88 -428t-88 -428.5t-269 -137.5q-90 0 -153.5 32.5t-114.5 99.5l-12 -109h-242l6 283v1355h271v-641q46 56 101.5 83.5t143.5 27.5zM371 766v-447q81 -104 172 -104q90 0 121.5 72.5t31.5 255.5t-31.5 255t-121.5 72q-91 0 -172 -104z" />
    <glyph glyph-name="c" unicode="c" horiz-adv-x="933" 
d="M334 543q0 -188 35.5 -260t122.5 -72q76 0 101 35.5t25 111.5l261 -34q0 -84 -15.5 -142.5t-56.5 -107.5t-119.5 -73t-195.5 -24q-231 0 -328.5 129t-97.5 437t97.5 436.5t328.5 128.5q117 0 195.5 -24t119.5 -72.5t56.5 -107t15.5 -142.5l-261 -35q0 76 -25 111.5
t-101 35.5q-87 0 -122.5 -71.5t-35.5 -259.5z" />
    <glyph glyph-name="d" unicode="d" horiz-adv-x="1038" 
d="M422 1108q88 0 145 -27.5t101 -83.5v641h268v-1355l8 -283h-242l-12 109q-51 -67 -114.5 -99.5t-153.5 -32.5q-181 0 -268.5 137.5t-87.5 428.5t87.5 428t268.5 137zM668 319v447q-78 104 -172 104q-89 0 -121.5 -73t-32.5 -254t32.5 -254.5t121.5 -73.5q94 0 172 104z
" />
    <glyph glyph-name="e" unicode="e" horiz-adv-x="970" 
d="M348 446q0 -134 29.5 -193.5t114.5 -59.5q71 0 102 35t31 108l272 -35q0 -60 -9 -105.5t-34.5 -88.5t-69 -70t-115.5 -43.5t-171 -16.5q-104 0 -179.5 24t-124 68t-77 116t-40 157t-11.5 201q0 146 19.5 246t67 174.5t131.5 109.5t208 35q100 0 173 -24t120.5 -68
t75.5 -116t39 -157t11 -202v-95h-563zM489 893q-78 0 -108.5 -57t-32.5 -193h277q-2 135 -30 192.5t-106 57.5z" />
    <glyph glyph-name="f" unicode="f" horiz-adv-x="694" 
d="M49 860v225h121v279q0 144 83.5 220.5t248.5 76.5q107 0 172 -25l-15 -223q-48 19 -104 19q-61 0 -89 -24t-28 -83v-240h197v-225h-197v-860h-268v860h-121z" />
    <glyph glyph-name="g" unicode="g" horiz-adv-x="1040" 
d="M424 29q-179 0 -266.5 131.5t-87.5 408.5q0 276 87.5 407.5t266.5 131.5q91 0 154 -32t114 -99l13 108h241l-6 -282v-860q0 -195 -105 -285t-319 -90q-122 0 -203 19t-130.5 62t-70 105t-20.5 154l264 35q-2 -81 31 -120.5t121 -39.5t125 42.5t37 131.5v182
q-43 -55 -100 -82.5t-146 -27.5zM670 371v395q-78 104 -172 104q-88 0 -120 -68t-32 -233t32 -233t120 -68q93 0 172 103z" />
    <glyph glyph-name="h" unicode="h" horiz-adv-x="1028" 
d="M369 1638v-641q111 111 295 111q272 0 272 -291v-817h-268v754q0 116 -113 116q-116 0 -186 -102v-768h-271v1638h271z" />
    <glyph glyph-name="i" unicode="i" horiz-adv-x="473" 
d="M102 0v1085h269v-1085h-269zM379 1569v-281h-285v281h285z" />
    <glyph glyph-name="j" unicode="j" horiz-adv-x="473" 
d="M371 1085v-1226q0 -297 -314 -297q-106 0 -172 24l15 226q39 -17 104 -17q49 0 73.5 21.5t24.5 77.5v1191h269zM379 1569v-281h-285v281h285z" />
    <glyph glyph-name="k" unicode="k" horiz-adv-x="1003" 
d="M360 655l261 430h321l-311 -423l344 -662h-316l-200 428l-99 -137l9 -291h-271v1638h271z" />
    <glyph glyph-name="l" unicode="l" horiz-adv-x="475" 
d="M102 0v1638h271v-1638h-271z" />
    <glyph glyph-name="m" unicode="m" horiz-adv-x="1509" 
d="M336 1085l12 -112q114 135 299 135q99 0 152.5 -39.5t68.5 -89.5q52 61 130 95t171 34q248 0 248 -268v-840h-270v774q0 96 -96 96q-92 0 -158 -92v-778h-268v774q0 96 -99 96q-92 0 -155 -92v-778h-271v803l-6 282h242z" />
    <glyph glyph-name="n" unicode="n" horiz-adv-x="1030" 
d="M334 1085l12 -108q62 65 137.5 98t182.5 33q272 0 272 -291v-817h-268v754q0 116 -113 116q-116 0 -186 -102v-768h-271v803l-6 282h240z" />
    <glyph glyph-name="o" unicode="o" horiz-adv-x="991" 
d="M496 1108q155 0 246.5 -50.5t137.5 -174.5t46 -340q0 -214 -46 -338.5t-137.5 -176t-246.5 -51.5q-93 0 -160.5 17.5t-120.5 57t-85 105t-48 160.5t-16 226q0 129 16 224t48 160.5t84.5 105.5t120.5 57.5t161 17.5zM496 872q-58 0 -92 -27t-52 -100t-18 -202t18 -202
t52 -100.5t92 -27.5t91.5 27.5t51.5 100t18 202.5q0 129 -18 201.5t-51.5 100t-91.5 27.5z" />
    <glyph glyph-name="p" unicode="p" horiz-adv-x="1038" 
d="M616 -23q-88 0 -143.5 27.5t-101.5 83.5v-498h-271v1213l-6 282h242l12 -108q51 67 114.5 99t153.5 32q181 0 269 -137t88 -428t-88 -428.5t-269 -137.5zM371 766v-447q81 -104 172 -104q90 0 121.5 72.5t31.5 255.5t-31.5 255t-121.5 72q-91 0 -172 -104z" />
    <glyph glyph-name="q" unicode="q" horiz-adv-x="1036" 
d="M420 -23q-181 0 -267.5 137t-86.5 429t86.5 428.5t267.5 136.5q92 0 155.5 -32.5t112.5 -98.5l12 108h242l-6 -282v-1213h-270v498q-44 -56 -100.5 -83.5t-145.5 -27.5zM666 319v447q-78 104 -172 104q-89 0 -121.5 -73t-32.5 -254t32.5 -254.5t121.5 -73.5q94 0 172 104
z" />
    <glyph glyph-name="r" unicode="r" horiz-adv-x="698" 
d="M573 848q-117 0 -202 -98v-750h-271v803l-6 282h240l14 -118q39 69 97 105t124 36q55 0 88 -21l-14 -247q-21 8 -70 8z" />
    <glyph glyph-name="s" unicode="s" horiz-adv-x="931" 
d="M453 184q78 0 109.5 34.5t31.5 103.5q0 37 -9.5 60t-34 36.5t-48 20t-70.5 14.5q-64 8 -108 17t-88 24.5t-72 38t-50 56t-32 80t-10 107.5q0 332 395 332q120 0 195 -17.5t115.5 -60t54.5 -97.5t14 -145l-266 -34q0 76 -23 111.5t-84 35.5q-60 0 -84 -31.5t-24 -95.5
q0 -61 29 -83.5t108 -37.5q78 -9 128 -19.5t101.5 -33t80.5 -55.5t47 -87.5t18 -129.5q0 -186 -110 -268.5t-318 -82.5q-86 0 -149 8.5t-106.5 27.5t-70.5 44t-42 65t-20.5 82t-5.5 103l267 33q0 -80 26 -118t105 -38z" />
    <glyph glyph-name="t" unicode="t" horiz-adv-x="735" 
d="M47 860v225h127v287l268 4v-291h224v-225h-224v-551q0 -57 25.5 -79.5t73.5 -22.5q52 0 104 18l14 -223q-69 -25 -174 -25q-311 0 -311 297v586h-127z" />
    <glyph glyph-name="u" unicode="u" horiz-adv-x="1030" 
d="M696 0l-12 109q-62 -66 -137 -99t-182 -33q-273 0 -273 293v815h268v-753q0 -117 111 -117q115 0 188 102v768h271v-802l6 -283h-240z" />
    <glyph glyph-name="v" unicode="v" horiz-adv-x="929" 
d="M897 1085l-238 -1091h-389l-237 1091h282l148 -858l149 858h285z" />
    <glyph glyph-name="w" unicode="w" horiz-adv-x="1320" 
d="M530 1085h261l137 -731l78 731h260l-156 -1091h-311l-140 751l-139 -751h-311l-154 1091h258l78 -731z" />
    <glyph glyph-name="x" unicode="x" horiz-adv-x="993" 
d="M633 0l-135 418l-138 -418h-313l223 557l-200 528h299l129 -411l127 411h299l-201 -528l223 -557h-313z" />
    <glyph glyph-name="y" unicode="y" horiz-adv-x="985" 
d="M492 305l174 780h286l-315 -1054l-150 -441h-303l160 406l-311 1089h284z" />
    <glyph glyph-name="z" unicode="z" horiz-adv-x="849" 
d="M47 0v184l414 668l-385 -4v237h700v-184l-414 -668l441 5v-238h-756z" />
    <glyph glyph-name="braceleft" unicode="{" horiz-adv-x="694" 
d="M666 -18v-248h-78q-81 0 -145 15t-106 43.5t-70.5 62.5t-43 79t-20.5 86t-6 89v354q0 73 -31.5 103t-95.5 30h-45v244h45q64 0 95.5 30t31.5 103v352q0 48 6 89t20.5 86t43 79t70.5 62.5t106 43.5t145 15h78v-248h-60q-139 0 -139 -133v-369q0 -79 -33 -142t-98 -91
q65 -28 98 -91t33 -141v-370q0 -133 139 -133h60z" />
    <glyph glyph-name="bar" unicode="|" horiz-adv-x="636" 
d="M457 1700v-1966h-277v1966h277z" />
    <glyph glyph-name="braceright" unicode="}" horiz-adv-x="694" 
d="M88 1452h-61v248h77q97 0 169.5 -22.5t114.5 -58t67.5 -87t34 -100t8.5 -107.5v-354q0 -73 31.5 -103t93.5 -30h45v-244h-45q-62 0 -93.5 -30t-31.5 -103v-352q0 -59 -8.5 -107.5t-34 -100t-67.5 -87t-114.5 -58t-169.5 -22.5h-77v248h61q137 0 137 133v368
q0 79 33.5 142.5t99.5 91.5q-66 28 -99.5 90.5t-33.5 140.5v371q0 133 -137 133z" />
    <glyph glyph-name="asciitilde" unicode="~" horiz-adv-x="1046" 
d="M883 815l116 -149q-6 -13 -25.5 -35.5t-52.5 -50t-85.5 -47t-110.5 -19.5q-63 0 -121 17.5t-94.5 39t-84.5 39t-95 17.5q-38 0 -74 -16.5t-52 -30t-22 -21.5l-116 148q6 14 25.5 36.5t52.5 49.5t85.5 46t110.5 19q63 0 121 -17t94.5 -38t84.5 -38t95 -17q38 0 74 16
t52 29.5t22 21.5z" />
    <glyph glyph-name="nbspace" unicode="&#xa0;" horiz-adv-x="342" 
 />
    <glyph glyph-name="exclamdown" unicode="&#xa1;" horiz-adv-x="559" 
d="M422 1085v-282h-285v282h285zM432 -410h-305l49 1026h209z" />
    <glyph glyph-name="cent" unicode="&#xa2;" horiz-adv-x="933" 
d="M334 782q0 -189 36 -262.5t122 -73.5q76 0 101 35.5t25 112.5l261 -35q0 -82 -15 -140t-53.5 -106.5t-112 -74t-182.5 -27.5l-63 -211h-240l76 244q-119 49 -171 177.5t-52 360.5q0 303 94 435.5t313 136.5l64 211h237l-74 -240q101 -36 140 -115t39 -204l-261 -35
q0 77 -25 112t-101 35q-86 0 -122 -73.5t-36 -262.5z" />
    <glyph glyph-name="sterling" unicode="&#xa3;" horiz-adv-x="1122" 
d="M643 1587q105 0 179 -18.5t118.5 -50t69.5 -86.5t33.5 -115t9.5 -148l-271 -34q0 52 -2.5 83.5t-10 61.5t-22.5 45.5t-40.5 25t-63.5 9.5q-37 0 -62 -9.5t-40 -25t-22.5 -45.5t-10 -61.5t-2.5 -83.5v-205h348v-228h-348v-454h545v-248h-969v248h154v454h-154v228h154v239
q0 62 4 108.5t14.5 92t29.5 77.5t49.5 60t73 44.5t101.5 26t135 9.5z" />
    <glyph glyph-name="currency" unicode="&#xa4;" horiz-adv-x="1628" 
d="M815 428q161 0 251.5 88.5t90.5 265.5t-90.5 266t-251.5 89q-162 0 -252 -89t-90 -266t89.5 -265.5t252.5 -88.5zM72 231l209 207q-93 145 -93 344t93 344l-209 207l180 180l213 -213q150 89 350 89q197 0 350 -89l211 213l180 -180l-208 -207q92 -143 92 -344t-92 -344
l208 -207l-180 -180l-213 213q-148 -88 -348 -88q-202 0 -350 88l-213 -213z" />
    <glyph glyph-name="yen" unicode="&#xa5;" horiz-adv-x="1118" 
d="M559 821l227 744h287l-293 -801h226v-176h-291l-21 -58v-57h312v-176h-312l4 -297h-278l2 297h-309v176h311l2 57l-23 58h-290v176h227l-295 801h287z" />
    <glyph glyph-name="brokenbar" unicode="&#xa6;" horiz-adv-x="667" 
d="M477 627v-893h-287v893h287zM477 1700v-893h-287v893h287z" />
    <glyph glyph-name="section" unicode="&#xa7;" horiz-adv-x="1056" 
d="M563 1620q86 0 150.5 -12t108 -38t71 -58.5t42.5 -83.5t20 -102t6 -124l-269 -35q0 61 -4 97.5t-17.5 68.5t-40 46t-69.5 14q-135 0 -135 -187q0 -89 38 -134t134 -60q73 -10 124.5 -24t101.5 -40.5t80 -65.5t48.5 -99.5t18.5 -141.5q0 -156 -47 -238.5t-146 -119.5
q71 -26 105.5 -110t34.5 -183q0 -216 -104.5 -319t-317.5 -103q-75 0 -133 9.5t-100 26.5t-71.5 45.5t-48 60t-29 77.5t-14.5 91.5t-4 107.5l269 34q0 -121 24.5 -173t106.5 -52q135 0 135 187q0 89 -38 134t-132 60q-92 13 -154 33t-115.5 60t-79.5 109t-26 169
q0 156 47 238.5t146 119.5q-71 26 -104.5 109.5t-33.5 183.5q0 217 104 319.5t318 102.5zM692 606q0 97 -39 135.5t-121 38.5q-91 0 -129 -45.5t-38 -152.5q0 -97 39 -135.5t120 -38.5q92 0 130 45.5t38 152.5z" />
    <glyph glyph-name="dieresis" unicode="&#xa8;" horiz-adv-x="1269" 
d="M561 1569v-281h-285v281h285zM993 1569v-281h-284v281h284z" />
    <glyph glyph-name="copyright" unicode="&#xa9;" horiz-adv-x="1884" 
d="M115 799q0 168 65.5 321.5t176 264t264 176t321.5 65.5t321.5 -65.5t264 -176t176 -264t65.5 -321.5t-65.5 -321.5t-176 -264.5t-264 -176.5t-321.5 -65.5t-321.5 65.5t-264 176.5t-176 264.5t-65.5 321.5zM711 799q0 278 231 284q97 3 141.5 -35t65.5 -118l285 37
q-11 67 -30.5 121.5t-56.5 105t-90 84.5t-133 54t-182 20q-245 0 -380.5 -143t-135.5 -410t135.5 -410t380.5 -143q102 0 182 20t133 54t90 84.5t56.5 105t30.5 121.5l-285 37q-21 -80 -65.5 -118.5t-141.5 -35.5q-231 6 -231 285z" />
    <glyph glyph-name="ordfeminine" unicode="&#xaa;" horiz-adv-x="804" 
d="M399 1440q-41 0 -58 -25t-17 -88l-248 31q0 68 13 113.5t47.5 82.5t99.5 54.5t163 17.5q130 0 199 -28.5t96 -89.5t27 -175v-309l10 -225h-215l-6 69q-71 -98 -225 -98q-108 0 -170 67t-62 191q0 127 79 187.5t241 78.5l104 13v69q0 28 -21 46t-57 18zM295 1053
q0 -39 22 -63.5t60 -24.5q28 0 58 10.5t42 25.5v162l-84 -14q-98 -16 -98 -96z" />
    <glyph glyph-name="guillemotleft" unicode="&#xab;" horiz-adv-x="1097" 
d="M532 483v-225l-426 303v168l426 303v-225l-188 -162zM975 483v-225l-426 303v168l426 303v-225l-189 -162z" />
    <glyph glyph-name="logicalnot" unicode="&#xac;" horiz-adv-x="1474" 
d="M1016 426v471h-832v274h1106v-745h-274z" />
    <glyph glyph-name="uni00AD" unicode="&#xad;" horiz-adv-x="823" 
d="M709 559h-594v254h594v-254z" />
    <glyph glyph-name="registered" unicode="&#xae;" horiz-adv-x="1884" 
d="M115 799q0 168 65.5 321.5t176 264t264 176t321.5 65.5t321.5 -65.5t264 -176t176 -264t65.5 -321.5t-65.5 -321.5t-176 -264.5t-264 -176.5t-321.5 -65.5t-321.5 65.5t-264 176.5t-176 264.5t-65.5 321.5zM780 274v388h144l190 -388h297l-227 420q178 70 178 299
q0 330 -361 330h-464v-1049h243zM1010 901h-230v182h230q20 0 35.5 -3t32 -11t25.5 -27.5t9 -48.5q0 -30 -9 -49.5t-25.5 -28t-32 -11.5t-35.5 -3z" />
    <glyph glyph-name="macron" unicode="&#xaf;" horiz-adv-x="1269" 
d="M395 1313v252h479v-252h-479z" />
    <glyph glyph-name="degree" unicode="&#xb0;" horiz-adv-x="993" 
d="M498 1036q87 0 136.5 45.5t49.5 135.5q0 91 -49 135.5t-137 44.5q-89 0 -139 -44.5t-50 -135.5q0 -90 50 -135.5t139 -45.5zM498 840q-178 0 -288 96t-110 281t109.5 280.5t288.5 95.5q177 0 286 -95.5t109 -280.5t-109 -281t-286 -96z" />
    <glyph glyph-name="plusminus" unicode="&#xb1;" horiz-adv-x="1474" 
d="M600 655v211h-416v275h416v211h274v-211h416v-275h-416v-211h-274zM1290 242h-1106v274h1106v-274z" />
    <glyph glyph-name="twosuperior" unicode="&#xb2;" 
d="M291 1411q-22 0 -31.5 -26.5t-9.5 -102.5l-191 25q1 61 5 98.5t17.5 74t39.5 55.5t69 30.5t107 11.5q128 0 175.5 -50t47.5 -177q0 -46 -6 -78t-15 -55.5t-34.5 -49t-49.5 -44.5t-75 -56q-60 -43 -76 -71.5t-16 -77.5h278v-170h-477q0 63 0.5 96.5t3.5 75.5t7 62.5
t14.5 49t22.5 44t33.5 38t45.5 41t60 43.5q55 37 74.5 64t19.5 73q0 43 -7.5 59.5t-31.5 16.5z" />
    <glyph glyph-name="threesuperior" unicode="&#xb3;" 
d="M287 901q32 0 42.5 22t10.5 72q0 51 -14 68.5t-50 17.5h-57v168h57q24 0 31.5 15t7.5 63q0 52 -7 68t-32 16q-27 0 -33.5 -22.5t-6.5 -96.5l-185 23q1 72 11 119t35.5 80.5t69.5 48t112 14.5q120 0 172.5 -50.5t52.5 -178.5q0 -81 -16.5 -119t-53.5 -58q49 -13 72.5 -57
t23.5 -137q0 -118 -55 -180t-194 -62q-76 0 -124.5 17.5t-72.5 55.5t-32.5 83t-8.5 115l184 24q0 -75 13 -102t47 -27z" />
    <glyph glyph-name="acute" unicode="&#xb4;" horiz-adv-x="1269" 
d="M586 1638h303l-125 -426h-272z" />
    <glyph glyph-name="mu" unicode="&#xb5;" horiz-adv-x="1030" 
d="M696 0l-12 109q-41 -64 -115 -98t-151 -34q-10 0 -29.5 1.5t-28.5 1.5v-390h-268v1495h268v-753q0 -117 111 -117q115 0 188 102v768h271v-802l6 -283h-240z" />
    <glyph glyph-name="paragraph" unicode="&#xb6;" horiz-adv-x="1062" 
d="M57 1085q0 121 22.5 212t60.5 147.5t94.5 91.5t117 48t135.5 13h461v-1597h-276v1350h-74v-1350h-74v571h-43q-75 0 -135 13t-115.5 48t-92.5 91.5t-59 148t-22 213.5zM340 1085q0 -149 37.5 -207.5t124.5 -58.5h22v531h-22q-87 0 -124.5 -58.5t-37.5 -206.5z" />
    <glyph glyph-name="periodcentered" unicode="&#xb7;" horiz-adv-x="591" 
d="M446 836v-295h-299v295h299z" />
    <glyph glyph-name="cedilla" unicode="&#xb8;" horiz-adv-x="1269" 
d="M532 25h150l-27 -99q228 -45 217 -194q-7 -85 -79 -127.5t-179 -42.5q-132 0 -233 43l43 125q51 -27 108 -33q121 -11 121 61q0 73 -180 92z" />
    <glyph glyph-name="onesuperior" unicode="&#xb9;" 
d="M528 748h-458v170h135v389q-50 -53 -148 -74v192q60 17 112 60.5t75 91.5h149v-659h135v-170z" />
    <glyph glyph-name="ordmasculine" unicode="&#xba;" horiz-adv-x="847" 
d="M66 1198q0 232 82.5 330t275.5 98t275.5 -98t82.5 -330t-82.5 -330t-275.5 -98t-275.5 98t-82.5 330zM315 1198q0 -124 22 -173.5t87 -49.5t86.5 49.5t21.5 173.5t-21.5 173.5t-86.5 49.5t-87 -49.5t-22 -173.5z" />
    <glyph glyph-name="guillemotright" unicode="&#xbb;" horiz-adv-x="1097" 
d="M565 258v225l191 162l-191 162v225l426 -303v-168zM123 258v225l188 162l-188 162v225l426 -303v-168z" />
    <glyph glyph-name="onequarter" unicode="&#xbc;" horiz-adv-x="1550" 
d="M528 748h-458v170h135v389q-50 -53 -148 -74v192q60 17 112 60.5t75 91.5h149v-659h135v-170zM268 0l801 1565h213l-801 -1565h-213zM1513 172h-57v-172h-182v172h-262v139l231 518h213v-487h57v-170zM1274 342l10 260l-104 -264z" />
    <glyph glyph-name="onehalf" unicode="&#xbd;" horiz-adv-x="1550" 
d="M528 748h-458v170h135v389q-50 -53 -148 -74v192q60 17 112 60.5t75 91.5h149v-659h135v-170zM268 0l801 1565h213l-801 -1565h-213zM1266 664q-22 0 -31.5 -26.5t-9.5 -102.5l-191 24q1 61 5 98.5t17.5 74t39.5 55.5t69 30.5t107 11.5q128 0 175.5 -50t47.5 -177
q0 -46 -6 -78t-15 -55.5t-34.5 -49t-49.5 -44.5t-75 -56q-60 -43 -76 -71.5t-16 -77.5h278v-170h-477q0 64 0.5 97t3.5 75.5t7 62.5t14 49t22 44.5t33.5 38t45.5 41t60 43.5q55 37 75 64.5t20 72.5q0 43 -7.5 59.5t-31.5 16.5z" />
    <glyph glyph-name="threequarters" unicode="&#xbe;" horiz-adv-x="1550" 
d="M287 901q32 0 42.5 22t10.5 72q0 51 -14 68.5t-50 17.5h-57v168h57q24 0 31.5 15t7.5 63q0 52 -7 68t-32 16q-27 0 -33.5 -22.5t-6.5 -96.5l-185 23q1 72 11 119t35.5 80.5t69.5 48t112 14.5q120 0 172.5 -50.5t52.5 -178.5q0 -81 -16.5 -119t-53.5 -58q49 -13 72.5 -57
t23.5 -137q0 -118 -55 -180t-194 -62q-76 0 -124.5 17.5t-72.5 55.5t-32.5 83t-8.5 115l184 24q0 -75 13 -102t47 -27zM268 0l801 1565h213l-801 -1565h-213zM1513 172h-57v-172h-182v172h-262v139l231 518h213v-487h57v-170zM1274 342l10 260l-104 -264z" />
    <glyph glyph-name="questiondown" unicode="&#xbf;" horiz-adv-x="1003" 
d="M434 614h195q51 -112 51 -198q0 -92 -43 -147.5t-158 -114.5q-72 -41 -102.5 -81t-30.5 -106q0 -153 154 -153q95 0 133.5 56.5t38.5 197.5l264 -35q0 -121 -20.5 -204.5t-70 -144t-134.5 -88.5t-211 -28q-230 0 -334.5 91t-104.5 292q0 86 18.5 147t65.5 106t79.5 65.5
t108.5 59.5q6 3 9 5q65 35 88 66t25 81q0 53 -21 133zM381 801v284h289v-284h-289z" />
    <glyph glyph-name="Agrave" unicode="&#xc0;" horiz-adv-x="1044" 
d="M313 1612h418l279 -1612h-281l-45 291h-326l-43 -291h-280zM522 1364l-129 -844h256zM268 2109h303l95 -426h-273z" />
    <glyph glyph-name="Aacute" unicode="&#xc1;" horiz-adv-x="1044" 
d="M313 1612h418l279 -1612h-281l-45 291h-326l-43 -291h-280zM522 1364l-129 -844h256zM473 2109h303l-125 -426h-272z" />
    <glyph glyph-name="Acircumflex" unicode="&#xc2;" horiz-adv-x="1044" 
d="M313 1612h418l279 -1612h-281l-45 291h-326l-43 -291h-280zM522 1364l-129 -844h256zM401 1683h-221l191 426h303l190 -426h-221l-121 232z" />
    <glyph glyph-name="Atilde" unicode="&#xc3;" horiz-adv-x="1044" 
d="M313 1612h418l279 -1612h-281l-45 291h-326l-43 -291h-280zM522 1364l-129 -844h256zM721 2052l192 -22q-21 -337 -229 -334q-44 0 -83 15.5t-67 37.5t-52 44t-48.5 37.5t-46.5 16.5q-58 2 -65 -99v-5l-193 22q21 337 229 334q43 0 82 -15.5t67 -37.5t52 -44.5t48 -38
t46 -15.5q13 0 23.5 3.5t17 11.5t11.5 15.5t7.5 20t4 19.5t3 19.5t1.5 14.5z" />
    <glyph glyph-name="Adieresis" unicode="&#xc4;" horiz-adv-x="1044" 
d="M313 1612h418l279 -1612h-281l-45 291h-326l-43 -291h-280zM522 1364l-129 -844h256zM449 2044v-293h-295v293h295zM891 2044v-293h-295v293h295z" />
    <glyph glyph-name="Aring" unicode="&#xc5;" horiz-adv-x="1044" 
d="M313 1612h418l279 -1612h-281l-45 291h-326l-43 -291h-280zM522 1364l-129 -844h256zM281 1896q0 108 64 175t177 67t177.5 -67t64.5 -175t-64.5 -174.5t-177.5 -66.5t-177 66.5t-64 174.5zM614 1896q0 46 -24 70.5t-68 24.5t-68 -24.5t-24 -70.5t24 -70t68 -24t68 24
t24 70z" />
    <glyph glyph-name="AE" unicode="&#xc6;" horiz-adv-x="1495" 
d="M473 1597h926v-247h-504l35 -410h389v-246h-369l37 -446h440v-248h-694l-18 291h-334l-74 -291h-280zM645 1341l-207 -821h260z" />
    <glyph glyph-name="Ccedilla" unicode="&#xc7;" horiz-adv-x="1107" 
d="M365 799q0 -312 43 -446t165 -134q112 0 151.5 59t41.5 224l274 -35q-2 -126 -20.5 -210.5t-64 -147t-122.5 -93t-194 -36.5l-14 -54q228 -45 217 -194q-7 -85 -79 -127.5t-179 -42.5q-133 0 -234 43l43 125q52 -27 109 -33q121 -11 121 61q0 73 -181 92l45 134
q-140 18 -226.5 101.5t-130.5 257.5t-44 456q0 234 29 392.5t92 253.5t152.5 135t220.5 40q135 0 224 -27.5t140.5 -90t72.5 -150t23 -219.5l-274 -37q-2 165 -41.5 223.5t-151.5 58.5q-122 0 -165 -133.5t-43 -445.5z" />
    <glyph glyph-name="Egrave" unicode="&#xc8;" horiz-adv-x="964" 
d="M111 1597h757v-247h-481v-410h401v-246h-401v-446h510v-248h-786v1597zM250 2109h303l94 -426h-272z" />
    <glyph glyph-name="Eacute" unicode="&#xc9;" horiz-adv-x="964" 
d="M111 1597h757v-247h-481v-410h401v-246h-401v-446h510v-248h-786v1597zM455 2109h303l-125 -426h-273z" />
    <glyph glyph-name="Ecircumflex" unicode="&#xca;" horiz-adv-x="964" 
d="M111 1597h757v-247h-481v-410h401v-246h-401v-446h510v-248h-786v1597zM369 1683h-222l191 426h303l190 -426h-221l-121 232z" />
    <glyph glyph-name="Edieresis" unicode="&#xcb;" horiz-adv-x="964" 
d="M111 1597h757v-247h-481v-410h401v-246h-401v-446h510v-248h-786v1597zM426 2044v-293h-295v293h295zM868 2044v-293h-295v293h295z" />
    <glyph glyph-name="Igrave" unicode="&#xcc;" horiz-adv-x="520" 
d="M399 1597v-1597h-278v1597h278zM-4 2109h303l94 -426h-272z" />
    <glyph glyph-name="Iacute" unicode="&#xcd;" horiz-adv-x="520" 
d="M399 1597v-1597h-278v1597h278zM221 2109h303l-125 -426h-272z" />
    <glyph glyph-name="Icircumflex" unicode="&#xce;" horiz-adv-x="520" 
d="M399 1597v-1597h-278v1597h278zM139 1683h-221l191 426h303l190 -426h-221l-121 232z" />
    <glyph glyph-name="Idieresis" unicode="&#xcf;" horiz-adv-x="520" 
d="M399 1597v-1597h-278v1597h278zM207 2044v-293h-295v293h295zM608 2044v-293h-295v293h295z" />
    <glyph glyph-name="Eth" unicode="&#xd0;" horiz-adv-x="1251" 
d="M600 0h-403v694h-134v246h134v657h403q110 0 191.5 -16t146.5 -54t107 -97.5t70 -150t40 -207t12 -273.5t-12 -273.5t-40 -207t-70 -150t-107 -98t-146.5 -54.5t-191.5 -16zM475 248h133q63 0 107.5 12t76 42.5t50 69.5t28.5 107t13.5 139t3.5 181t-3.5 181t-13.5 139
t-28.5 107t-50 69.5t-76 42.5t-107.5 12h-133v-410h225v-246h-225v-446z" />
    <glyph glyph-name="Ntilde" unicode="&#xd1;" horiz-adv-x="1157" 
d="M418 1597l235 -657l138 -399l-5 387v669h258v-1597h-307l-235 657l-135 400l4 -387l2 -670h-262v1597h307zM776 2052l193 -22q-10 -156 -65 -245.5t-165 -88.5q-44 0 -83 15.5t-67 37.5t-52 44t-48.5 37.5t-46.5 16.5q-58 2 -65 -99v-5l-193 22q10 156 65 245.5t165 88.5
q43 0 82 -15.5t67 -37.5t52 -44.5t48 -38t46 -15.5q15 0 26.5 6t18 13t11 22t6 22t3.5 23.5t2 17.5z" />
    <glyph glyph-name="Ograve" unicode="&#xd2;" horiz-adv-x="1134" 
d="M567 1620q84 0 150.5 -15.5t117 -46t87 -81t61.5 -113.5t39.5 -151t20.5 -187t6 -227q0 -150 -8.5 -261t-29.5 -207t-56 -159.5t-88.5 -108.5t-127.5 -65.5t-172 -20.5t-172 20.5t-127.5 65.5t-88.5 108.5t-55.5 159.5t-29 207t-8.5 261t8.5 261t29 206.5t55.5 159
t88.5 109t127.5 65.5t172 20zM567 219q123 0 163 122t40 458t-40 457.5t-163 121.5t-162.5 -121t-39.5 -458t39.5 -458.5t162.5 -121.5zM313 2109h303l95 -426h-273z" />
    <glyph glyph-name="Oacute" unicode="&#xd3;" horiz-adv-x="1134" 
d="M567 1620q84 0 150.5 -15.5t117 -46t87 -81t61.5 -113.5t39.5 -151t20.5 -187t6 -227q0 -150 -8.5 -261t-29.5 -207t-56 -159.5t-88.5 -108.5t-127.5 -65.5t-172 -20.5t-172 20.5t-127.5 65.5t-88.5 108.5t-55.5 159.5t-29 207t-8.5 261t8.5 261t29 206.5t55.5 159
t88.5 109t127.5 65.5t172 20zM567 219q123 0 163 122t40 458t-40 457.5t-163 121.5t-162.5 -121t-39.5 -458t39.5 -458.5t162.5 -121.5zM518 2109h303l-125 -426h-272z" />
    <glyph glyph-name="Ocircumflex" unicode="&#xd4;" horiz-adv-x="1134" 
d="M567 1620q84 0 150.5 -15.5t117 -46t87 -81t61.5 -113.5t39.5 -151t20.5 -187t6 -227q0 -150 -8.5 -261t-29.5 -207t-56 -159.5t-88.5 -108.5t-127.5 -65.5t-172 -20.5t-172 20.5t-127.5 65.5t-88.5 108.5t-55.5 159.5t-29 207t-8.5 261t8.5 261t29 206.5t55.5 159
t88.5 109t127.5 65.5t172 20zM567 219q123 0 163 122t40 458t-40 457.5t-163 121.5t-162.5 -121t-39.5 -458t39.5 -458.5t162.5 -121.5zM446 1683h-221l191 426h303l190 -426h-221l-121 232z" />
    <glyph glyph-name="Otilde" unicode="&#xd5;" horiz-adv-x="1134" 
d="M567 1620q84 0 150.5 -15.5t117 -46t87 -81t61.5 -113.5t39.5 -151t20.5 -187t6 -227q0 -150 -8.5 -261t-29.5 -207t-56 -159.5t-88.5 -108.5t-127.5 -65.5t-172 -20.5t-172 20.5t-127.5 65.5t-88.5 108.5t-55.5 159.5t-29 207t-8.5 261t8.5 261t29 206.5t55.5 159
t88.5 109t127.5 65.5t172 20zM567 219q123 0 163 122t40 458t-40 457.5t-163 121.5t-162.5 -121t-39.5 -458t39.5 -458.5t162.5 -121.5zM766 2052l192 -22q-21 -337 -229 -334q-44 0 -83 15.5t-67 37.5t-52 44t-48.5 37.5t-46.5 16.5q-58 2 -65 -99v-5l-193 22
q21 337 229 334q43 0 82 -15.5t67 -37.5t52 -44.5t48 -38t46 -15.5q13 0 23.5 3.5t17 11.5t11.5 15.5t7.5 20t4 19.5t3 19.5t1.5 14.5z" />
    <glyph glyph-name="Odieresis" unicode="&#xd6;" horiz-adv-x="1134" 
d="M567 1620q84 0 150.5 -15.5t117 -46t87 -81t61.5 -113.5t39.5 -151t20.5 -187t6 -227q0 -150 -8.5 -261t-29.5 -207t-56 -159.5t-88.5 -108.5t-127.5 -65.5t-172 -20.5t-172 20.5t-127.5 65.5t-88.5 108.5t-55.5 159.5t-29 207t-8.5 261t8.5 261t29 206.5t55.5 159
t88.5 109t127.5 65.5t172 20zM567 219q123 0 163 122t40 458t-40 457.5t-163 121.5t-162.5 -121t-39.5 -458t39.5 -458.5t162.5 -121.5zM494 2044v-293h-295v293h295zM936 2044v-293h-295v293h295z" />
    <glyph glyph-name="multiply" unicode="&#xd7;" horiz-adv-x="1474" 
d="M195 451l348 348l-348 348l194 194l348 -348l348 348l195 -194l-348 -348l348 -348l-195 -195l-348 348l-348 -348z" />
    <glyph glyph-name="Oslash" unicode="&#xd8;" horiz-adv-x="1136" 
d="M86 799q0 150 8.5 261t29 206.5t55.5 159t88.5 109t127.5 65.5t172 20q194 0 301 -88l33 65h115l-74 -149q60 -94 84.5 -250.5t24.5 -398.5q0 -181 -12.5 -307.5t-44.5 -229t-87 -162.5t-138.5 -91.5t-201.5 -31.5q-198 0 -303 86l-31 -63h-112l72 147q-59 96 -83 253.5
t-24 398.5zM365 799q0 -182 8 -283l358 735q-22 67 -61 97t-103 30q-123 0 -162.5 -121t-39.5 -458zM770 799q0 177 -8 278l-361 -731q23 -68 62.5 -97.5t103.5 -29.5q123 0 163 122t40 458z" />
    <glyph glyph-name="Ugrave" unicode="&#xd9;" horiz-adv-x="1101" 
d="M551 217q105 0 137.5 46t32.5 163v1171h276v-1183q0 -78 -7.5 -136.5t-26.5 -110t-51.5 -86.5t-81.5 -60.5t-118.5 -37.5t-160.5 -12q-109 0 -187.5 18t-129 51.5t-80 89.5t-41 123t-11.5 161v1183h279v-1171q0 -117 32.5 -163t137.5 -46zM295 2109h303l94 -426h-272z
" />
    <glyph glyph-name="Uacute" unicode="&#xda;" horiz-adv-x="1101" 
d="M551 217q105 0 137.5 46t32.5 163v1171h276v-1183q0 -78 -7.5 -136.5t-26.5 -110t-51.5 -86.5t-81.5 -60.5t-118.5 -37.5t-160.5 -12q-109 0 -187.5 18t-129 51.5t-80 89.5t-41 123t-11.5 161v1183h279v-1171q0 -117 32.5 -163t137.5 -46zM500 2109h303l-125 -426h-272z
" />
    <glyph glyph-name="Ucircumflex" unicode="&#xdb;" horiz-adv-x="1101" 
d="M551 217q105 0 137.5 46t32.5 163v1171h276v-1183q0 -78 -7.5 -136.5t-26.5 -110t-51.5 -86.5t-81.5 -60.5t-118.5 -37.5t-160.5 -12q-109 0 -187.5 18t-129 51.5t-80 89.5t-41 123t-11.5 161v1183h279v-1171q0 -117 32.5 -163t137.5 -46zM428 1683h-221l190 426h303
l191 -426h-221l-121 232z" />
    <glyph glyph-name="Udieresis" unicode="&#xdc;" horiz-adv-x="1101" 
d="M551 217q105 0 137.5 46t32.5 163v1171h276v-1183q0 -78 -7.5 -136.5t-26.5 -110t-51.5 -86.5t-81.5 -60.5t-118.5 -37.5t-160.5 -12q-109 0 -187.5 18t-129 51.5t-80 89.5t-41 123t-11.5 161v1183h279v-1171q0 -117 32.5 -163t137.5 -46zM475 2044v-293h-295v293h295z
M918 2044v-293h-295v293h295z" />
    <glyph glyph-name="Yacute" unicode="&#xdd;" horiz-adv-x="1056" 
d="M528 842l232 755h284l-380 -1046l4 -551h-277l2 551l-381 1046h285zM479 2109h303l-125 -426h-272z" />
    <glyph glyph-name="Thorn" unicode="&#xde;" horiz-adv-x="1040" 
d="M393 1597v-286h160q75 0 135.5 -13t117 -48t94.5 -91.5t60.5 -147.5t22.5 -212q0 -122 -22 -213.5t-59 -148t-92.5 -91.5t-115.5 -48t-135 -13h-166v-285h-278v1597h278zM393 532h146q87 0 125 59t38 208q0 147 -38 205.5t-125 58.5h-146v-531z" />
    <glyph glyph-name="germandbls" unicode="&#xdf;" horiz-adv-x="1280" 
d="M752 831q0 -66 32.5 -96.5t122.5 -52.5q120 -27 187.5 -67.5t100 -109t32.5 -179.5q0 -349 -412 -349q-202 0 -283 75.5t-71 256.5l237 31q-3 -82 20 -120t95 -38q68 0 95.5 32.5t27.5 100.5q0 70 -35.5 103t-118.5 53q-158 36 -231.5 108.5t-73.5 219.5q0 65 13.5 112
t43 81t60 55t80.5 47q51 24 78.5 42t47 51t19.5 79q0 80 -56 122t-163 42q-229 0 -229 -187v-1243h-271v1253q0 206 114 307t374 101q475 0 475 -367q0 -113 -44 -179.5t-130 -117.5q-50 -30 -74 -47.5t-43.5 -48.5t-19.5 -70z" />
    <glyph glyph-name="agrave" unicode="&#xe0;" horiz-adv-x="974" 
d="M489 903q-65 0 -92.5 -36t-27.5 -124l-275 33q0 83 17 140.5t60.5 103t123 67t199.5 21.5q149 0 232 -34.5t117 -107.5t34 -204v-479l6 -283h-242l-12 109q-54 -71 -122 -101.5t-171 -30.5q-279 0 -279 332q0 86 23.5 146.5t76 102.5t127.5 67t185 41l137 20v98
q0 59 -26.5 89t-90.5 30zM328 332q0 -137 114 -137q99 0 164 88v231l-114 -18q-84 -11 -124 -47.5t-40 -116.5zM217 1638h303l94 -426h-272z" />
    <glyph glyph-name="aacute" unicode="&#xe1;" horiz-adv-x="974" 
d="M489 903q-65 0 -92.5 -36t-27.5 -124l-275 33q0 83 17 140.5t60.5 103t123 67t199.5 21.5q149 0 232 -34.5t117 -107.5t34 -204v-479l6 -283h-242l-12 109q-54 -71 -122 -101.5t-171 -30.5q-279 0 -279 332q0 86 23.5 146.5t76 102.5t127.5 67t185 41l137 20v98
q0 59 -26.5 89t-90.5 30zM328 332q0 -137 114 -137q99 0 164 88v231l-114 -18q-84 -11 -124 -47.5t-40 -116.5zM422 1638h303l-125 -426h-272z" />
    <glyph glyph-name="acircumflex" unicode="&#xe2;" horiz-adv-x="974" 
d="M489 903q-65 0 -92.5 -36t-27.5 -124l-275 33q0 83 17 140.5t60.5 103t123 67t199.5 21.5q149 0 232 -34.5t117 -107.5t34 -204v-479l6 -283h-242l-12 109q-54 -71 -122 -101.5t-171 -30.5q-279 0 -279 332q0 86 23.5 146.5t76 102.5t127.5 67t185 41l137 20v98
q0 59 -26.5 89t-90.5 30zM328 332q0 -137 114 -137q99 0 164 88v231l-114 -18q-84 -11 -124 -47.5t-40 -116.5zM350 1212h-221l190 426h304l190 -426h-221l-121 232z" />
    <glyph glyph-name="atilde" unicode="&#xe3;" horiz-adv-x="974" 
d="M489 903q-65 0 -92.5 -36t-27.5 -124l-275 33q0 83 17 140.5t60.5 103t123 67t199.5 21.5q149 0 232 -34.5t117 -107.5t34 -204v-479l6 -283h-242l-12 109q-54 -71 -122 -101.5t-171 -30.5q-279 0 -279 332q0 86 23.5 146.5t76 102.5t127.5 67t185 41l137 20v98
q0 59 -26.5 89t-90.5 30zM328 332q0 -137 114 -137q99 0 164 88v231l-114 -18q-84 -11 -124 -47.5t-40 -116.5zM670 1581l192 -22q-21 -337 -229 -334q-44 0 -83 15.5t-67 37.5t-52 44t-48.5 37.5t-46.5 16.5q-21 1 -35 -10t-20.5 -33t-8 -31.5t-2.5 -29.5l-192 22
q21 337 229 334q43 0 82 -15.5t67 -38t52 -44.5t48 -37.5t46 -15.5q13 0 23.5 3.5t17 11.5t11.5 15.5t7.5 20t4 19.5t3 19.5t1.5 14.5z" />
    <glyph glyph-name="adieresis" unicode="&#xe4;" horiz-adv-x="974" 
d="M489 903q-65 0 -92.5 -36t-27.5 -124l-275 33q0 83 17 140.5t60.5 103t123 67t199.5 21.5q149 0 232 -34.5t117 -107.5t34 -204v-479l6 -283h-242l-12 109q-54 -71 -122 -101.5t-171 -30.5q-279 0 -279 332q0 86 23.5 146.5t76 102.5t127.5 67t185 41l137 20v98
q0 59 -26.5 89t-90.5 30zM328 332q0 -137 114 -137q99 0 164 88v231l-114 -18q-84 -11 -124 -47.5t-40 -116.5zM397 1569v-281h-284v281h284zM829 1569v-281h-284v281h284z" />
    <glyph glyph-name="aring" unicode="&#xe5;" horiz-adv-x="974" 
d="M489 903q-65 0 -92.5 -36t-27.5 -124l-275 33q0 83 17 140.5t60.5 103t123 67t199.5 21.5q149 0 232 -34.5t117 -107.5t34 -204v-479l6 -283h-242l-12 109q-54 -71 -122 -101.5t-171 -30.5q-279 0 -279 332q0 86 23.5 146.5t76 102.5t127.5 67t185 41l137 20v98
q0 59 -26.5 89t-90.5 30zM328 332q0 -137 114 -137q99 0 164 88v231l-114 -18q-84 -11 -124 -47.5t-40 -116.5zM229 1425q0 108 64.5 175t177.5 67t177.5 -67t64.5 -175t-64.5 -174.5t-177.5 -66.5t-177.5 66.5t-64.5 174.5zM563 1425q0 46 -24 70.5t-68 24.5t-68 -24.5
t-24 -70.5t24 -70t68 -24t68 24t24 70z" />
    <glyph glyph-name="ae" unicode="&#xe6;" horiz-adv-x="1507" 
d="M1446 461h-563q0 -141 29.5 -204.5t113.5 -63.5q71 0 102 35t31 108l275 -35q0 -60 -9 -105.5t-35 -88.5t-69.5 -70t-116 -43.5t-170.5 -16.5q-231 0 -329 119q-139 -119 -326 -119q-166 0 -244 88.5t-78 237.5q0 171 100 248.5t318 77.5h131v155q0 59 -26.5 89t-90.5 30
q-65 0 -92.5 -36t-27.5 -124l-275 33q0 83 17 140.5t60.5 103t123 67t199.5 21.5q195 0 272 -96q93 96 262 96q100 0 173 -24t120 -68t75 -116t39 -157t11 -202v-80zM328 326q0 -131 114 -131q111 0 176 100q-16 96 -18 166h-106q-85 0 -125.5 -30.5t-40.5 -104.5zM1024 893
q-80 0 -110.5 -60t-30.5 -204h276q0 144 -27 204t-108 60z" />
    <glyph glyph-name="ccedilla" unicode="&#xe7;" horiz-adv-x="933" 
d="M334 543q0 -188 35.5 -260t122.5 -72q76 0 101 35.5t25 111.5l261 -34q0 -78 -14 -134.5t-49.5 -104t-103 -74t-167.5 -31.5l-15 -54q229 -45 218 -194q-7 -85 -79.5 -127.5t-179.5 -42.5q-132 0 -233 43l43 125q52 -27 109 -33q120 -11 120 61q0 73 -180 92l45 134
q-176 25 -251.5 154.5t-75.5 404.5q0 308 97.5 436.5t328.5 128.5q117 0 195.5 -24t119.5 -72.5t56.5 -107t15.5 -142.5l-261 -35q0 76 -25 111.5t-101 35.5q-87 0 -122.5 -71.5t-35.5 -259.5z" />
    <glyph glyph-name="egrave" unicode="&#xe8;" horiz-adv-x="970" 
d="M348 446q0 -134 29.5 -193.5t114.5 -59.5q71 0 102 35t31 108l272 -35q0 -60 -9 -105.5t-34.5 -88.5t-69 -70t-115.5 -43.5t-171 -16.5q-104 0 -179.5 24t-124 68t-77 116t-40 157t-11.5 201q0 146 19.5 246t67 174.5t131.5 109.5t208 35q100 0 173 -24t120.5 -68
t75.5 -116t39 -157t11 -202v-95h-563zM489 893q-78 0 -108.5 -57t-32.5 -193h277q-2 135 -30 192.5t-106 57.5zM231 1638h304l94 -426h-273z" />
    <glyph glyph-name="eacute" unicode="&#xe9;" horiz-adv-x="970" 
d="M348 446q0 -134 29.5 -193.5t114.5 -59.5q71 0 102 35t31 108l272 -35q0 -60 -9 -105.5t-34.5 -88.5t-69 -70t-115.5 -43.5t-171 -16.5q-104 0 -179.5 24t-124 68t-77 116t-40 157t-11.5 201q0 146 19.5 246t67 174.5t131.5 109.5t208 35q100 0 173 -24t120.5 -68
t75.5 -116t39 -157t11 -202v-95h-563zM489 893q-78 0 -108.5 -57t-32.5 -193h277q-2 135 -30 192.5t-106 57.5zM436 1638h303l-125 -426h-272z" />
    <glyph glyph-name="ecircumflex" unicode="&#xea;" horiz-adv-x="970" 
d="M348 446q0 -134 29.5 -193.5t114.5 -59.5q71 0 102 35t31 108l272 -35q0 -60 -9 -105.5t-34.5 -88.5t-69 -70t-115.5 -43.5t-171 -16.5q-104 0 -179.5 24t-124 68t-77 116t-40 157t-11.5 201q0 146 19.5 246t67 174.5t131.5 109.5t208 35q100 0 173 -24t120.5 -68
t75.5 -116t39 -157t11 -202v-95h-563zM489 893q-78 0 -108.5 -57t-32.5 -193h277q-2 135 -30 192.5t-106 57.5zM365 1212h-222l191 426h303l190 -426h-221l-121 232z" />
    <glyph glyph-name="edieresis" unicode="&#xeb;" horiz-adv-x="970" 
d="M348 446q0 -134 29.5 -193.5t114.5 -59.5q71 0 102 35t31 108l272 -35q0 -60 -9 -105.5t-34.5 -88.5t-69 -70t-115.5 -43.5t-171 -16.5q-104 0 -179.5 24t-124 68t-77 116t-40 157t-11.5 201q0 146 19.5 246t67 174.5t131.5 109.5t208 35q100 0 173 -24t120.5 -68
t75.5 -116t39 -157t11 -202v-95h-563zM489 893q-78 0 -108.5 -57t-32.5 -193h277q-2 135 -30 192.5t-106 57.5zM412 1569v-281h-285v281h285zM844 1569v-281h-285v281h285z" />
    <glyph glyph-name="igrave" unicode="&#xec;" horiz-adv-x="473" 
d="M102 0v1085h269v-1085h-269zM-27 1638h303l95 -426h-273z" />
    <glyph glyph-name="iacute" unicode="&#xed;" horiz-adv-x="473" 
d="M102 0v1085h269v-1085h-269zM195 1638h303l-125 -426h-273z" />
    <glyph glyph-name="icircumflex" unicode="&#xee;" horiz-adv-x="473" 
d="M102 0v1085h269v-1085h-269zM115 1212h-221l190 426h303l191 -426h-222l-120 232z" />
    <glyph glyph-name="idieresis" unicode="&#xef;" horiz-adv-x="473" 
d="M102 0v1085h269v-1085h-269zM182 1569v-281h-284v281h284zM573 1569v-281h-284v281h284z" />
    <glyph glyph-name="eth" unicode="&#xf0;" horiz-adv-x="989" 
d="M150 1184v180l231 82q-108 106 -275 192h343q79 -52 147 -114l274 98v-180l-157 -58q211 -297 211 -837v-4q0 -163 -24.5 -271.5t-78 -174t-131.5 -93t-194 -27.5q-93 0 -160.5 17.5t-120.5 57t-85 105t-48 160.5t-16 226q0 158 26.5 269.5t78 175t118 92t155.5 28.5
q121 0 191 -76q-53 162 -135 277zM496 213q57 0 90.5 27.5t51 100.5t17.5 202t-17.5 201.5t-51 100t-90.5 27.5q-58 0 -92 -27t-52 -100t-18 -202t18 -202t52 -100.5t92 -27.5z" />
    <glyph glyph-name="ntilde" unicode="&#xf1;" horiz-adv-x="1030" 
d="M334 1085l12 -108q62 65 137.5 98t182.5 33q272 0 272 -291v-817h-268v754q0 116 -113 116q-116 0 -186 -102v-768h-271v803l-6 282h240zM715 1581l192 -22q-21 -337 -229 -334q-44 0 -83 15.5t-67 37.5t-52 44t-48.5 37.5t-46.5 16.5q-21 1 -35 -10t-20.5 -33t-8 -31.5
t-2.5 -29.5l-192 22q21 337 229 334q43 0 82 -15.5t67 -38t52 -44.5t48 -37.5t46 -15.5q13 0 23.5 3.5t17 11.5t11.5 15.5t7.5 20t4 19.5t3 19.5t1.5 14.5z" />
    <glyph glyph-name="ograve" unicode="&#xf2;" horiz-adv-x="991" 
d="M496 1108q155 0 246.5 -50.5t137.5 -174.5t46 -340q0 -214 -46 -338.5t-137.5 -176t-246.5 -51.5q-93 0 -160.5 17.5t-120.5 57t-85 105t-48 160.5t-16 226q0 129 16 224t48 160.5t84.5 105.5t120.5 57.5t161 17.5zM496 872q-58 0 -92 -27t-52 -100t-18 -202t18 -202
t52 -100.5t92 -27.5t91.5 27.5t51.5 100t18 202.5q0 129 -18 201.5t-51.5 100t-91.5 27.5zM240 1638h303l94 -426h-272z" />
    <glyph glyph-name="oacute" unicode="&#xf3;" horiz-adv-x="991" 
d="M496 1108q155 0 246.5 -50.5t137.5 -174.5t46 -340q0 -214 -46 -338.5t-137.5 -176t-246.5 -51.5q-93 0 -160.5 17.5t-120.5 57t-85 105t-48 160.5t-16 226q0 129 16 224t48 160.5t84.5 105.5t120.5 57.5t161 17.5zM496 872q-58 0 -92 -27t-52 -100t-18 -202t18 -202
t52 -100.5t92 -27.5t91.5 27.5t51.5 100t18 202.5q0 129 -18 201.5t-51.5 100t-91.5 27.5zM444 1638h304l-125 -426h-273z" />
    <glyph glyph-name="ocircumflex" unicode="&#xf4;" horiz-adv-x="991" 
d="M496 1108q155 0 246.5 -50.5t137.5 -174.5t46 -340q0 -214 -46 -338.5t-137.5 -176t-246.5 -51.5q-93 0 -160.5 17.5t-120.5 57t-85 105t-48 160.5t-16 226q0 129 16 224t48 160.5t84.5 105.5t120.5 57.5t161 17.5zM496 872q-58 0 -92 -27t-52 -100t-18 -202t18 -202
t52 -100.5t92 -27.5t91.5 27.5t51.5 100t18 202.5q0 129 -18 201.5t-51.5 100t-91.5 27.5zM373 1212h-221l190 426h303l191 -426h-222l-120 232z" />
    <glyph glyph-name="otilde" unicode="&#xf5;" horiz-adv-x="991" 
d="M496 1108q155 0 246.5 -50.5t137.5 -174.5t46 -340q0 -214 -46 -338.5t-137.5 -176t-246.5 -51.5q-93 0 -160.5 17.5t-120.5 57t-85 105t-48 160.5t-16 226q0 129 16 224t48 160.5t84.5 105.5t120.5 57.5t161 17.5zM496 872q-58 0 -92 -27t-52 -100t-18 -202t18 -202
t52 -100.5t92 -27.5t91.5 27.5t51.5 100t18 202.5q0 129 -18 201.5t-51.5 100t-91.5 27.5zM692 1581l193 -22q-10 -156 -65 -245.5t-165 -88.5q-44 0 -83 15.5t-67 37.5t-52 44t-48.5 37.5t-46.5 16.5q-58 2 -65 -99v-5l-193 22q10 156 65 245.5t165 88.5q43 0 82 -15.5
t67 -38t52 -44.5t48 -37.5t46 -15.5q15 0 26.5 6t18 13t11 22t6 22t3.5 23.5t2 17.5z" />
    <glyph glyph-name="odieresis" unicode="&#xf6;" horiz-adv-x="991" 
d="M496 1108q155 0 246.5 -50.5t137.5 -174.5t46 -340q0 -214 -46 -338.5t-137.5 -176t-246.5 -51.5q-93 0 -160.5 17.5t-120.5 57t-85 105t-48 160.5t-16 226q0 129 16 224t48 160.5t84.5 105.5t120.5 57.5t161 17.5zM496 872q-58 0 -92 -27t-52 -100t-18 -202t18 -202
t52 -100.5t92 -27.5t91.5 27.5t51.5 100t18 202.5q0 129 -18 201.5t-51.5 100t-91.5 27.5zM420 1569v-281h-285v281h285zM852 1569v-281h-285v281h285z" />
    <glyph glyph-name="divide" unicode="&#xf7;" horiz-adv-x="1474" 
d="M1290 662h-1106v274h1106v-274zM891 1352v-308h-307v308h307zM891 553v-307h-307v307h307z" />
    <glyph glyph-name="oslash" unicode="&#xf8;" horiz-adv-x="989" 
d="M901 1085l-72 -110q95 -133 95 -432q0 -163 -24.5 -271.5t-78 -174t-131.5 -93t-194 -27.5q-171 0 -271 66l-26 -43h-111l70 109q-92 129 -92 434q0 129 16 224t48 160.5t84.5 105.5t120.5 57.5t161 17.5q169 0 266 -66l29 43h110zM496 213q57 0 90.5 27.5t51 100.5
t17.5 202q0 67 -8 149l-270 -418q35 -61 119 -61zM334 543q0 -95 8 -150l270 418q-37 61 -116 61q-58 0 -92 -27t-52 -100t-18 -202z" />
    <glyph glyph-name="ugrave" unicode="&#xf9;" horiz-adv-x="1030" 
d="M696 0l-12 109q-62 -66 -137 -99t-182 -33q-273 0 -273 293v815h268v-753q0 -117 111 -117q115 0 188 102v768h271v-802l6 -283h-240zM260 1638h303l94 -426h-272z" />
    <glyph glyph-name="uacute" unicode="&#xfa;" horiz-adv-x="1030" 
d="M696 0l-12 109q-62 -66 -137 -99t-182 -33q-273 0 -273 293v815h268v-753q0 -117 111 -117q115 0 188 102v768h271v-802l6 -283h-240zM465 1638h303l-125 -426h-272z" />
    <glyph glyph-name="ucircumflex" unicode="&#xfb;" horiz-adv-x="1030" 
d="M696 0l-12 109q-62 -66 -137 -99t-182 -33q-273 0 -273 293v815h268v-753q0 -117 111 -117q115 0 188 102v768h271v-802l6 -283h-240zM393 1212h-221l190 426h304l190 -426h-221l-121 232z" />
    <glyph glyph-name="udieresis" unicode="&#xfc;" horiz-adv-x="1030" 
d="M696 0l-12 109q-62 -66 -137 -99t-182 -33q-273 0 -273 293v815h268v-753q0 -117 111 -117q115 0 188 102v768h271v-802l6 -283h-240zM440 1569v-281h-284v281h284zM872 1569v-281h-284v281h284z" />
    <glyph glyph-name="yacute" unicode="&#xfd;" horiz-adv-x="985" 
d="M492 305l174 780h286l-315 -1054l-150 -441h-303l160 406l-311 1089h284zM442 1638h303l-124 -426h-273z" />
    <glyph glyph-name="thorn" unicode="&#xfe;" horiz-adv-x="1038" 
d="M973 543q0 -291 -88 -428.5t-269 -137.5q-88 0 -143.5 27.5t-101.5 83.5v-498h-271v2048h271v-641q46 56 101.5 83.5t143.5 27.5q181 0 269 -137t88 -428zM371 766v-447q81 -104 172 -104q90 0 121.5 72.5t31.5 255.5t-31.5 255t-121.5 72q-91 0 -172 -104z" />
    <glyph glyph-name="ydieresis" unicode="&#xff;" horiz-adv-x="985" 
d="M492 305l174 780h286l-315 -1054l-150 -441h-303l160 406l-311 1089h284zM418 1569v-281h-285v281h285zM850 1569v-281h-285v281h285z" />
    <glyph glyph-name="Amacron" unicode="&#x100;" horiz-adv-x="1044" 
d="M313 1612h418l279 -1612h-281l-45 291h-326l-43 -291h-280zM522 1364l-129 -844h256zM283 1784v252h479v-252h-479z" />
    <glyph glyph-name="amacron" unicode="&#x101;" horiz-adv-x="974" 
d="M489 903q-65 0 -92.5 -36t-27.5 -124l-275 33q0 83 17 140.5t60.5 103t123 67t199.5 21.5q149 0 232 -34.5t117 -107.5t34 -204v-479l6 -283h-242l-12 109q-54 -71 -122 -101.5t-171 -30.5q-279 0 -279 332q0 86 23.5 146.5t76 102.5t127.5 67t185 41l137 20v98
q0 59 -26.5 89t-90.5 30zM328 332q0 -137 114 -137q99 0 164 88v231l-114 -18q-84 -11 -124 -47.5t-40 -116.5zM231 1313v252h480v-252h-480z" />
    <glyph glyph-name="Abreve" unicode="&#x102;" horiz-adv-x="1044" 
d="M313 1612h418l279 -1612h-281l-45 291h-326l-43 -291h-280zM522 1364l-129 -844h256zM522 1667q-79 0 -136.5 20t-94 55.5t-58 92t-29.5 122t-7 152.5h202q-2 -105 25.5 -155.5t97.5 -50.5t97.5 50.5t25.5 155.5h203q2 -109 -12 -186.5t-49.5 -137t-101 -89t-163.5 -29.5
z" />
    <glyph glyph-name="abreve" unicode="&#x103;" horiz-adv-x="974" 
d="M489 903q-65 0 -92.5 -36t-27.5 -124l-275 33q0 83 17 140.5t60.5 103t123 67t199.5 21.5q149 0 232 -34.5t117 -107.5t34 -204v-479l6 -283h-242l-12 109q-54 -71 -122 -101.5t-171 -30.5q-279 0 -279 332q0 86 23.5 146.5t76 102.5t127.5 67t185 41l137 20v98
q0 59 -26.5 89t-90.5 30zM328 332q0 -137 114 -137q99 0 164 88v231l-114 -18q-84 -11 -124 -47.5t-40 -116.5zM471 1196q-98 0 -163.5 29.5t-101 89t-49.5 137t-12 186.5h203q-2 -105 25.5 -155.5t97.5 -50.5t97.5 50.5t25.5 155.5h203q2 -109 -12 -186.5t-49.5 -137
t-101 -89t-163.5 -29.5z" />
    <glyph glyph-name="Aogonek" unicode="&#x104;" horiz-adv-x="1044" 
d="M313 1612h418l279 -1612q-92 -13 -149 -63.5t-52 -112.5q3 -38 28 -57.5t72 -12.5q49 6 90 37l54 -178q-76 -51 -197 -51q-212 0 -244 184q-31 156 113 272l-41 273h-326l-43 -291h-280zM522 1364l-129 -844h256z" />
    <glyph glyph-name="aogonek" unicode="&#x105;" horiz-adv-x="974" 
d="M489 903q-65 0 -92.5 -36t-27.5 -124l-275 33q0 83 17 140.5t60.5 103t123 67t199.5 21.5q149 0 232 -34.5t117 -107.5t34 -204v-479l6 -283q-92 -13 -149 -63.5t-52 -112.5q3 -38 28 -57.5t72 -12.5q49 6 90 37l54 -178q-76 -51 -197 -51q-212 0 -244 184
q-36 175 150 299l-6 64q-54 -71 -122 -101.5t-171 -30.5q-279 0 -279 332q0 86 23.5 146.5t76 102.5t127.5 67t185 41l137 20v98q0 59 -26.5 89t-90.5 30zM328 332q0 -137 114 -137q99 0 164 88v231l-114 -18q-84 -11 -124 -47.5t-40 -116.5z" />
    <glyph glyph-name="Cacute" unicode="&#x106;" horiz-adv-x="1107" 
d="M365 799q0 -312 43 -446t165 -134q112 0 151.5 59t41.5 224l274 -35q-2 -133 -23 -221t-72.5 -150.5t-140.5 -90.5t-224 -28q-104 0 -181.5 25.5t-138 83.5t-98 153t-57 233.5t-19.5 326.5q0 234 29 392.5t92 253.5t152.5 135t220.5 40q135 0 224 -27.5t140.5 -90
t72.5 -150t23 -219.5l-274 -37q-2 165 -41.5 223.5t-151.5 58.5q-122 0 -165 -133.5t-43 -445.5zM524 2109h303l-125 -426h-272z" />
    <glyph glyph-name="cacute" unicode="&#x107;" horiz-adv-x="933" 
d="M334 543q0 -188 35.5 -260t122.5 -72q76 0 101 35.5t25 111.5l261 -34q0 -84 -15.5 -142.5t-56.5 -107.5t-119.5 -73t-195.5 -24q-231 0 -328.5 129t-97.5 437t97.5 436.5t328.5 128.5q117 0 195.5 -24t119.5 -72.5t56.5 -107t15.5 -142.5l-261 -35q0 76 -25 111.5
t-101 35.5q-87 0 -122.5 -71.5t-35.5 -259.5zM432 1638h303l-125 -426h-272z" />
    <glyph glyph-name="Ccircumflex" unicode="&#x108;" horiz-adv-x="1107" 
d="M365 799q0 -312 43 -446t165 -134q112 0 151.5 59t41.5 224l274 -35q-2 -133 -23 -221t-72.5 -150.5t-140.5 -90.5t-224 -28q-104 0 -181.5 25.5t-138 83.5t-98 153t-57 233.5t-19.5 326.5q0 234 29 392.5t92 253.5t152.5 135t220.5 40q135 0 224 -27.5t140.5 -90
t72.5 -150t23 -219.5l-274 -37q-2 165 -41.5 223.5t-151.5 58.5q-122 0 -165 -133.5t-43 -445.5zM453 1683h-222l191 426h303l190 -426h-221l-121 232z" />
    <glyph glyph-name="ccircumflex" unicode="&#x109;" horiz-adv-x="933" 
d="M334 543q0 -188 35.5 -260t122.5 -72q76 0 101 35.5t25 111.5l261 -34q0 -84 -15.5 -142.5t-56.5 -107.5t-119.5 -73t-195.5 -24q-231 0 -328.5 129t-97.5 437t97.5 436.5t328.5 128.5q117 0 195.5 -24t119.5 -72.5t56.5 -107t15.5 -142.5l-261 -35q0 76 -25 111.5
t-101 35.5q-87 0 -122.5 -71.5t-35.5 -259.5zM360 1212h-221l191 426h303l190 -426h-221l-121 232z" />
    <glyph glyph-name="Cdotaccent" unicode="&#x10a;" horiz-adv-x="1107" 
d="M365 799q0 -312 43 -446t165 -134q112 0 151.5 59t41.5 224l274 -35q-2 -133 -23 -221t-72.5 -150.5t-140.5 -90.5t-224 -28q-104 0 -181.5 25.5t-138 83.5t-98 153t-57 233.5t-19.5 326.5q0 234 29 392.5t92 253.5t152.5 135t220.5 40q135 0 224 -27.5t140.5 -90
t72.5 -150t23 -219.5l-274 -37q-2 165 -41.5 223.5t-151.5 58.5q-122 0 -165 -133.5t-43 -445.5zM721 2044v-293h-295v293h295z" />
    <glyph glyph-name="cdotaccent" unicode="&#x10b;" horiz-adv-x="933" 
d="M334 543q0 -188 35.5 -260t122.5 -72q76 0 101 35.5t25 111.5l261 -34q0 -84 -15.5 -142.5t-56.5 -107.5t-119.5 -73t-195.5 -24q-231 0 -328.5 129t-97.5 437t97.5 436.5t328.5 128.5q117 0 195.5 -24t119.5 -72.5t56.5 -107t15.5 -142.5l-261 -35q0 76 -25 111.5
t-101 35.5q-87 0 -122.5 -71.5t-35.5 -259.5zM629 1573v-293h-295v293h295z" />
    <glyph glyph-name="Ccaron" unicode="&#x10c;" horiz-adv-x="1107" 
d="M365 799q0 -312 43 -446t165 -134q112 0 151.5 59t41.5 224l274 -35q-2 -133 -23 -221t-72.5 -150.5t-140.5 -90.5t-224 -28q-104 0 -181.5 25.5t-138 83.5t-98 153t-57 233.5t-19.5 326.5q0 234 29 392.5t92 253.5t152.5 135t220.5 40q135 0 224 -27.5t140.5 -90
t72.5 -150t23 -219.5l-274 -37q-2 165 -41.5 223.5t-151.5 58.5q-122 0 -165 -133.5t-43 -445.5zM698 2109h222l-193 -426h-307l-193 426h222l124 -229z" />
    <glyph glyph-name="ccaron" unicode="&#x10d;" horiz-adv-x="933" 
d="M334 543q0 -188 35.5 -260t122.5 -72q76 0 101 35.5t25 111.5l261 -34q0 -84 -15.5 -142.5t-56.5 -107.5t-119.5 -73t-195.5 -24q-231 0 -328.5 129t-97.5 437t97.5 436.5t328.5 128.5q117 0 195.5 -24t119.5 -72.5t56.5 -107t15.5 -142.5l-261 -35q0 76 -25 111.5
t-101 35.5q-87 0 -122.5 -71.5t-35.5 -259.5zM606 1638h221l-192 -426h-307l-193 426h221l125 -229z" />
    <glyph glyph-name="Dcaron" unicode="&#x10e;" horiz-adv-x="1165" 
d="M514 0h-403v1597h403q110 0 191.5 -16t146 -54.5t106.5 -97.5t70 -149.5t39.5 -207t11.5 -273.5t-11.5 -273.5t-39.5 -207.5t-70 -150t-106.5 -97.5t-146 -54.5t-191.5 -16zM389 248h133q48 0 84.5 7t65.5 23.5t49 37.5t34.5 57.5t23.5 74.5t14 96t6.5 115.5t1.5 139.5
t-1.5 139.5t-6.5 115.5t-14 96t-23.5 74.5t-34.5 57.5t-49 37.5t-65.5 23.5t-84.5 7h-133v-1102zM627 2109h221l-193 -426h-307l-192 426h221l125 -229z" />
    <glyph glyph-name="dcaron" unicode="&#x10f;" horiz-adv-x="1120" 
d="M422 1108q88 0 145 -27.5t101 -83.5v641h268v-1355l8 -283h-242l-12 109q-51 -67 -114.5 -99.5t-153.5 -32.5q-181 0 -268.5 137.5t-87.5 428.5t87.5 428t268.5 137zM668 319v447q-78 104 -172 104q-89 0 -121.5 -73t-32.5 -254t32.5 -254.5t121.5 -73.5q94 0 172 104z
M1018 1638h246l-70 -426h-176v426z" />
    <glyph glyph-name="Dcroat" unicode="&#x110;" horiz-adv-x="1165" 
d="M514 0h-403v1597h403q110 0 191.5 -16t146 -54.5t106.5 -97.5t70 -149.5t39.5 -207t11.5 -273.5t-11.5 -273.5t-39.5 -207.5t-70 -150t-106.5 -97.5t-146 -54.5t-191.5 -16zM389 248h133q48 0 84.5 7t65.5 23.5t49 37.5t34.5 57.5t23.5 74.5t14 96t6.5 115.5t1.5 139.5
t-1.5 139.5t-6.5 115.5t-14 96t-23.5 74.5t-34.5 57.5t-49 37.5t-65.5 23.5t-84.5 7h-133v-1102zM262 1784v252h479v-252h-479z" />
    <glyph glyph-name="dcroat" unicode="&#x111;" horiz-adv-x="1079" 
d="M479 1257v226h189v155h268v-155h108v-226h-108v-974l8 -283h-242l-12 109q-51 -67 -114.5 -99.5t-153.5 -32.5q-181 0 -268.5 137.5t-87.5 428.5t87.5 428t268.5 137q88 0 145 -27.5t101 -83.5v260h-189zM668 319v447q-78 104 -172 104q-89 0 -121.5 -73t-32.5 -254
t32.5 -254.5t121.5 -73.5q94 0 172 104z" />
    <glyph glyph-name="Emacron" unicode="&#x112;" horiz-adv-x="964" 
d="M111 1597h757v-247h-481v-410h401v-246h-401v-446h510v-248h-786v1597zM254 1784v252h479v-252h-479z" />
    <glyph glyph-name="emacron" unicode="&#x113;" horiz-adv-x="970" 
d="M348 446q0 -134 29.5 -193.5t114.5 -59.5q71 0 102 35t31 108l272 -35q0 -60 -9 -105.5t-34.5 -88.5t-69 -70t-115.5 -43.5t-171 -16.5q-104 0 -179.5 24t-124 68t-77 116t-40 157t-11.5 201q0 146 19.5 246t67 174.5t131.5 109.5t208 35q100 0 173 -24t120.5 -68
t75.5 -116t39 -157t11 -202v-95h-563zM489 893q-78 0 -108.5 -57t-32.5 -193h277q-2 135 -30 192.5t-106 57.5zM244 1313v252h479v-252h-479z" />
    <glyph glyph-name="Ebreve" unicode="&#x114;" horiz-adv-x="964" 
d="M111 1597h757v-247h-481v-410h401v-246h-401v-446h510v-248h-786v1597zM494 1667q-98 0 -163.5 29.5t-101 89t-49.5 137t-12 186.5h203q-2 -105 25.5 -155.5t97.5 -50.5t97 50t25 156h203q1 -87 -7 -152.5t-29.5 -122t-58 -92t-94 -55.5t-136.5 -20z" />
    <glyph glyph-name="ebreve" unicode="&#x115;" horiz-adv-x="970" 
d="M348 446q0 -134 29.5 -193.5t114.5 -59.5q71 0 102 35t31 108l272 -35q0 -60 -9 -105.5t-34.5 -88.5t-69 -70t-115.5 -43.5t-171 -16.5q-104 0 -179.5 24t-124 68t-77 116t-40 157t-11.5 201q0 146 19.5 246t67 174.5t131.5 109.5t208 35q100 0 173 -24t120.5 -68
t75.5 -116t39 -157t11 -202v-95h-563zM489 893q-78 0 -108.5 -57t-32.5 -193h277q-2 135 -30 192.5t-106 57.5zM483 1196q-79 0 -136.5 20t-94 55.5t-58 92t-29.5 122t-7 152.5h202q-2 -105 25.5 -155.5t97.5 -50.5t97.5 50.5t25.5 155.5h203q2 -109 -12 -186.5t-49.5 -137
t-101 -89t-163.5 -29.5z" />
    <glyph glyph-name="Edotaccent" unicode="&#x116;" horiz-adv-x="964" 
d="M111 1597h757v-247h-481v-410h401v-246h-401v-446h510v-248h-786v1597zM651 2044v-293h-295v293h295z" />
    <glyph glyph-name="edotaccent" unicode="&#x117;" horiz-adv-x="970" 
d="M348 446q0 -134 29.5 -193.5t114.5 -59.5q71 0 102 35t31 108l272 -35q0 -60 -9 -105.5t-34.5 -88.5t-69 -70t-115.5 -43.5t-171 -16.5q-104 0 -179.5 24t-124 68t-77 116t-40 157t-11.5 201q0 146 19.5 246t67 174.5t131.5 109.5t208 35q100 0 173 -24t120.5 -68
t75.5 -116t39 -157t11 -202v-95h-563zM489 893q-78 0 -108.5 -57t-32.5 -193h277q-2 135 -30 192.5t-106 57.5zM631 1573v-293h-295v293h295z" />
    <glyph glyph-name="Eogonek" unicode="&#x118;" horiz-adv-x="964" 
d="M111 1597h757v-247h-481v-410h401v-246h-401v-446h510v-248q-92 -13 -149 -63.5t-52 -112.5q3 -38 28.5 -57.5t72.5 -12.5q49 6 90 37l53 -178q-76 -51 -197 -51q-211 0 -243 184q-28 143 90 254h-479v1597z" />
    <glyph glyph-name="eogonek" unicode="&#x119;" horiz-adv-x="970" 
d="M348 446q0 -134 29.5 -193.5t114.5 -59.5q71 0 102 35t31 108l272 -35q0 -62 -10 -108t-35 -88.5t-73 -71t-120 -41.5q-71 -22 -114 -69t-39 -99q3 -38 28 -57.5t72 -12.5q49 6 90 37l54 -178q-76 -51 -197 -51q-212 0 -244 184q-28 133 76 240q-94 14 -157.5 56.5
t-98.5 116t-49 164.5t-14 220q0 146 19.5 246t67 174.5t131.5 109.5t208 35q100 0 173 -24t120.5 -68t75.5 -116t39 -157t11 -202v-95h-563zM489 893q-78 0 -108.5 -57t-32.5 -193h277q-2 135 -30 192.5t-106 57.5z" />
    <glyph glyph-name="Ecaron" unicode="&#x11a;" horiz-adv-x="964" 
d="M111 1597h757v-247h-481v-410h401v-246h-401v-446h510v-248h-786v1597zM629 2109h221l-193 -426h-307l-192 426h221l125 -229z" />
    <glyph glyph-name="ecaron" unicode="&#x11b;" horiz-adv-x="970" 
d="M348 446q0 -134 29.5 -193.5t114.5 -59.5q71 0 102 35t31 108l272 -35q0 -60 -9 -105.5t-34.5 -88.5t-69 -70t-115.5 -43.5t-171 -16.5q-104 0 -179.5 24t-124 68t-77 116t-40 157t-11.5 201q0 146 19.5 246t67 174.5t131.5 109.5t208 35q100 0 173 -24t120.5 -68
t75.5 -116t39 -157t11 -202v-95h-563zM489 893q-78 0 -108.5 -57t-32.5 -193h277q-2 135 -30 192.5t-106 57.5zM608 1638h221l-192 -426h-307l-193 426h221l125 -229z" />
    <glyph glyph-name="Gcircumflex" unicode="&#x11c;" horiz-adv-x="1146" 
d="M86 799q0 181 15.5 311t50.5 230.5t95 160t146.5 89.5t206.5 30q113 0 192.5 -19t131.5 -54.5t81.5 -97t42 -135.5t13.5 -181l-275 -37q-1 164 -42 223t-150 59q-135 0 -182 -130t-47 -449q0 -69 0.5 -115.5t2.5 -101t5.5 -89.5t10 -74t15.5 -63.5t22 -49.5t30 -39
t39 -26t49 -17t61 -5q113 0 193 39v389h-181v230h447v-781q-97 -62 -203 -90.5t-262 -28.5q-102 0 -178.5 19.5t-133.5 63.5t-94.5 107t-60 158t-32 208.5t-9.5 265.5zM473 1683h-221l190 426h303l191 -426h-221l-121 232z" />
    <glyph glyph-name="gcircumflex" unicode="&#x11d;" horiz-adv-x="1040" 
d="M424 29q-179 0 -266.5 131.5t-87.5 408.5q0 276 87.5 407.5t266.5 131.5q91 0 154 -32t114 -99l13 108h241l-6 -282v-860q0 -195 -105 -285t-319 -90q-122 0 -203 19t-130.5 62t-70 105t-20.5 154l264 35q-2 -81 31 -120.5t121 -39.5t125 42.5t37 131.5v182
q-43 -55 -100 -82.5t-146 -27.5zM670 371v395q-78 104 -172 104q-88 0 -120 -68t-32 -233t32 -233t120 -68q93 0 172 103zM373 1212h-221l190 426h303l191 -426h-222l-120 232z" />
    <glyph glyph-name="Gbreve" unicode="&#x11e;" horiz-adv-x="1146" 
d="M86 799q0 181 15.5 311t50.5 230.5t95 160t146.5 89.5t206.5 30q113 0 192.5 -19t131.5 -54.5t81.5 -97t42 -135.5t13.5 -181l-275 -37q-1 164 -42 223t-150 59q-135 0 -182 -130t-47 -449q0 -69 0.5 -115.5t2.5 -101t5.5 -89.5t10 -74t15.5 -63.5t22 -49.5t30 -39
t39 -26t49 -17t61 -5q113 0 193 39v389h-181v230h447v-781q-97 -62 -203 -90.5t-262 -28.5q-102 0 -178.5 19.5t-133.5 63.5t-94.5 107t-60 158t-32 208.5t-9.5 265.5zM594 1667q-98 0 -163.5 29.5t-101 89t-49.5 137t-12 186.5h203q-2 -105 25.5 -155.5t97.5 -50.5
t97.5 50.5t25.5 155.5h203q2 -109 -12 -186.5t-49.5 -137t-101 -89t-163.5 -29.5z" />
    <glyph glyph-name="gbreve" unicode="&#x11f;" horiz-adv-x="1040" 
d="M424 29q-179 0 -266.5 131.5t-87.5 408.5q0 276 87.5 407.5t266.5 131.5q91 0 154 -32t114 -99l13 108h241l-6 -282v-860q0 -195 -105 -285t-319 -90q-122 0 -203 19t-130.5 62t-70 105t-20.5 154l264 35q-2 -81 31 -120.5t121 -39.5t125 42.5t37 131.5v182
q-43 -55 -100 -82.5t-146 -27.5zM670 371v395q-78 104 -172 104q-88 0 -120 -68t-32 -233t32 -233t120 -68q93 0 172 103zM494 1196q-98 0 -163.5 29.5t-101 89t-49.5 137t-12 186.5h203q-2 -105 25.5 -155.5t97.5 -50.5t97 50t25 156h203q1 -87 -7 -152.5t-29.5 -122
t-58 -92t-94 -55.5t-136.5 -20z" />
    <glyph glyph-name="Gdotaccent" unicode="&#x120;" horiz-adv-x="1146" 
d="M86 799q0 181 15.5 311t50.5 230.5t95 160t146.5 89.5t206.5 30q113 0 192.5 -19t131.5 -54.5t81.5 -97t42 -135.5t13.5 -181l-275 -37q-1 164 -42 223t-150 59q-135 0 -182 -130t-47 -449q0 -69 0.5 -115.5t2.5 -101t5.5 -89.5t10 -74t15.5 -63.5t22 -49.5t30 -39
t39 -26t49 -17t61 -5q113 0 193 39v389h-181v230h447v-781q-97 -62 -203 -90.5t-262 -28.5q-102 0 -178.5 19.5t-133.5 63.5t-94.5 107t-60 158t-32 208.5t-9.5 265.5zM741 2044v-293h-295v293h295z" />
    <glyph glyph-name="gdotaccent" unicode="&#x121;" horiz-adv-x="1040" 
d="M424 29q-179 0 -266.5 131.5t-87.5 408.5q0 276 87.5 407.5t266.5 131.5q91 0 154 -32t114 -99l13 108h241l-6 -282v-860q0 -195 -105 -285t-319 -90q-122 0 -203 19t-130.5 62t-70 105t-20.5 154l264 35q-2 -81 31 -120.5t121 -39.5t125 42.5t37 131.5v182
q-43 -55 -100 -82.5t-146 -27.5zM670 371v395q-78 104 -172 104q-88 0 -120 -68t-32 -233t32 -233t120 -68q93 0 172 103zM641 1573v-293h-295v293h295z" />
    <glyph glyph-name="Gcommaaccent" unicode="&#x122;" horiz-adv-x="1146" 
d="M86 799q0 181 15.5 311t50.5 230.5t95 160t146.5 89.5t206.5 30q113 0 192.5 -19t131.5 -54.5t81.5 -97t42 -135.5t13.5 -181l-275 -37q-1 164 -42 223t-150 59q-135 0 -182 -130t-47 -449q0 -69 0.5 -115.5t2.5 -101t5.5 -89.5t10 -74t15.5 -63.5t22 -49.5t30 -39
t39 -26t49 -17t61 -5q113 0 193 39v389h-181v230h447v-781q-97 -62 -203 -90.5t-262 -28.5q-102 0 -178.5 19.5t-133.5 63.5t-94.5 107t-60 158t-32 208.5t-9.5 265.5zM471 -127h274l-65 -283h-229z" />
    <glyph glyph-name="gcommaaccent" unicode="&#x123;" horiz-adv-x="1040" 
d="M424 29q-179 0 -266.5 131.5t-87.5 408.5q0 276 87.5 407.5t266.5 131.5q91 0 154 -32t114 -99l13 108h241l-6 -282v-860q0 -195 -105 -285t-319 -90q-122 0 -203 19t-130.5 62t-70 105t-20.5 154l264 35q-2 -81 31 -120.5t121 -39.5t125 42.5t37 131.5v182
q-43 -55 -100 -82.5t-146 -27.5zM670 371v395q-78 104 -172 104q-88 0 -120 -68t-32 -233t32 -233t120 -68q93 0 172 103zM623 1212h-275l68 426h227z" />
    <glyph glyph-name="Hcircumflex" unicode="&#x124;" horiz-adv-x="1140" 
d="M754 1597h276v-1597h-276v694h-367v-694h-276v1597h276v-657h367v657zM449 1683h-222l191 426h303l190 -426h-221l-121 232z" />
    <glyph glyph-name="hcircumflex" unicode="&#x125;" horiz-adv-x="1028" 
d="M369 1638v-641q111 111 295 111q272 0 272 -291v-817h-268v754q0 116 -113 116q-116 0 -186 -102v-768h-271v1638h271zM113 1724h-222l191 426h303l190 -426h-221l-121 232z" />
    <glyph glyph-name="Hbar" unicode="&#x126;" horiz-adv-x="1140" 
d="M754 1597h276v-1597h-276v694h-367v-694h-276v1597h276v-657h367v657zM330 1784v252h479v-252h-479z" />
    <glyph glyph-name="hbar" unicode="&#x127;" horiz-adv-x="1069" 
d="M31 1257v226h108v155h271v-155h186v-226h-186v-260q111 111 295 111q272 0 272 -291v-817h-268v754q0 116 -113 116q-116 0 -186 -102v-768h-271v1257h-108z" />
    <glyph glyph-name="Itilde" unicode="&#x128;" horiz-adv-x="520" 
d="M399 1597v-1597h-278v1597h278zM459 2052l192 -22q-21 -337 -229 -334q-44 0 -83 15.5t-67 37.5t-52 44t-48.5 37.5t-46.5 16.5q-21 1 -35 -10t-20.5 -33t-8 -31.5t-2.5 -29.5l-192 22q21 337 229 334q43 0 82 -15.5t67 -37.5t52 -44.5t48 -38t46 -15.5q13 0 23.5 3.5
t17 11.5t11.5 15.5t7.5 20t4 19.5t3 19.5t1.5 14.5z" />
    <glyph glyph-name="itilde" unicode="&#x129;" horiz-adv-x="473" 
d="M102 0v1085h269v-1085h-269zM434 1581l193 -22q-10 -156 -65 -245.5t-165 -88.5q-44 0 -83 15.5t-67 37.5t-52 44t-48.5 37.5t-46.5 16.5q-58 2 -65 -99v-5l-193 22q10 156 65 245.5t165 88.5q43 0 82 -15.5t67 -38t52 -44.5t48 -37.5t46 -15.5q15 0 26.5 6t18 13t11 22
t6 22t3.5 23.5t2 17.5z" />
    <glyph glyph-name="Imacron" unicode="&#x12a;" horiz-adv-x="520" 
d="M399 1597v-1597h-278v1597h278zM20 1784v252h480v-252h-480z" />
    <glyph glyph-name="imacron" unicode="&#x12b;" horiz-adv-x="473" 
d="M102 0v1085h269v-1085h-269zM-4 1313v252h479v-252h-479z" />
    <glyph glyph-name="Ibreve" unicode="&#x12c;" horiz-adv-x="520" 
d="M399 1597v-1597h-278v1597h278zM260 1667q-98 0 -163.5 29.5t-101 89t-49.5 137t-12 186.5h203q-2 -105 25.5 -155.5t97.5 -50.5t97.5 50.5t25.5 155.5h203q2 -109 -12 -186.5t-49.5 -137t-101 -89t-163.5 -29.5z" />
    <glyph glyph-name="ibreve" unicode="&#x12d;" horiz-adv-x="473" 
d="M102 0v1085h269v-1085h-269zM236 1196q-98 0 -163.5 29.5t-101 89t-49.5 137t-12 186.5h203q-2 -105 25.5 -155.5t97.5 -50.5t97 50t25 156h203q1 -87 -7 -152.5t-29.5 -122t-58 -92t-94 -55.5t-136.5 -20z" />
    <glyph glyph-name="Iogonek" unicode="&#x12e;" horiz-adv-x="520" 
d="M399 1597v-1597q-89 -13 -137 -62.5t-43 -113.5q3 -38 28 -57.5t72 -12.5q50 6 91 37l53 -178q-76 -51 -197 -51q-211 0 -243 184q-32 157 98 270v1581h278z" />
    <glyph glyph-name="iogonek" unicode="&#x12f;" horiz-adv-x="473" 
d="M-6 -254q-32 166 108 279v1060h269v-1085q-89 -13 -137.5 -62.5t-43.5 -113.5q3 -38 28.5 -57.5t72.5 -12.5q49 6 90 37l53 -178q-76 -51 -196 -51q-212 0 -244 184zM379 1569v-281h-285v281h285z" />
    <glyph glyph-name="Idotaccent" unicode="&#x130;" horiz-adv-x="520" 
d="M399 1597v-1597h-278v1597h278zM408 2044v-293h-295v293h295z" />
    <glyph glyph-name="dotlessi" unicode="&#x131;" horiz-adv-x="473" 
d="M102 0v1085h269v-1085h-269z" />
    <glyph glyph-name="IJ" unicode="&#x132;" horiz-adv-x="1105" 
d="M399 1597v-1597h-278v1597h278zM993 1597v-1310q0 -310 -325 -310q-115 0 -179 27l15 246q48 -21 108 -21q51 0 77 23.5t26 81.5v1263h278z" />
    <glyph glyph-name="ij" unicode="&#x133;" horiz-adv-x="905" 
d="M102 0v1085h269v-1085h-269zM379 1569v-281h-285v281h285zM803 1085v-1226q0 -297 -314 -297q-106 0 -172 24l15 226q39 -17 104 -17q49 0 74 22t25 77v1191h268zM811 1569v-281h-285v281h285z" />
    <glyph glyph-name="Jcircumflex" unicode="&#x134;" horiz-adv-x="942" 
d="M555 1597h274v-1179q0 -239 -98.5 -340t-312.5 -101q-119 0 -197.5 28t-120 85.5t-57.5 128.5t-16 174l268 33q0 -109 27.5 -159.5t101.5 -49.5q76 1 103.5 46t27.5 153v1181zM571 1683h-221l191 426h303l190 -426h-221l-121 232z" />
    <glyph glyph-name="jcircumflex" unicode="&#x135;" horiz-adv-x="473" 
d="M371 1085v-1226q0 -297 -314 -297q-106 0 -172 24l15 226q39 -17 104 -17q49 0 73.5 21.5t24.5 77.5v1191h269zM115 1212h-221l190 426h303l191 -426h-222l-120 232z" />
    <glyph glyph-name="Kcommaaccent" unicode="&#x136;" horiz-adv-x="1097" 
d="M387 1597l-6 -753l328 753h329l-354 -696l383 -901h-332l-237 657l-117 -217l6 -440h-276v1597h276zM410 -127h274l-66 -283h-229z" />
    <glyph glyph-name="kcommaaccent" unicode="&#x137;" horiz-adv-x="1003" 
d="M360 655l261 430h321l-311 -423l344 -662h-316l-200 428l-99 -137l9 -291h-271v1638h271zM369 -127h274l-65 -283h-230z" />
    <glyph glyph-name="kgreenlandic" unicode="&#x138;" horiz-adv-x="1003" 
d="M360 655l261 430h321l-311 -423l344 -662h-316l-200 428l-99 -137l9 -291h-271v1085h271z" />
    <glyph glyph-name="Lacute" unicode="&#x139;" horiz-adv-x="860" 
d="M387 1597v-1349h432v-248h-708v1597h276zM211 2109h303l-125 -426h-272z" />
    <glyph glyph-name="lacute" unicode="&#x13a;" horiz-adv-x="475" 
d="M102 0v1638h271v-1638h-271zM188 2150h304l-125 -426h-273z" />
    <glyph glyph-name="Lcommaaccent" unicode="&#x13b;" horiz-adv-x="860" 
d="M387 1597v-1349h432v-248h-708v1597h276zM326 -127h274l-65 -283h-230z" />
    <glyph glyph-name="lcommaaccent" unicode="&#x13c;" horiz-adv-x="475" 
d="M102 0v1638h271v-1638h-271zM100 -127h275l-66 -283h-229z" />
    <glyph glyph-name="Lcaron" unicode="&#x13d;" horiz-adv-x="860" 
d="M387 1597v-1349h432v-248h-708v1597h276zM524 1638h246l-70 -426h-176v426z" />
    <glyph glyph-name="lcaron" unicode="&#x13e;" horiz-adv-x="557" 
d="M102 0v1638h271v-1638h-271zM455 1638h245l-69 -426h-176v426z" />
    <glyph glyph-name="Ldot" unicode="&#x13f;" horiz-adv-x="860" 
d="M387 1597v-1349h432v-248h-708v1597h276zM807 965v-295h-299v295h299z" />
    <glyph glyph-name="ldot" unicode="&#x140;" horiz-adv-x="823" 
d="M102 0v1638h271v-1638h-271zM778 836v-295h-299v295h299z" />
    <glyph glyph-name="Lslash" unicode="&#x141;" horiz-adv-x="860" 
d="M621 817l-234 -117v-452h432v-248h-708v561l-101 -49v254l101 49v782h276v-643l234 117v-254z" />
    <glyph glyph-name="lslash" unicode="&#x142;" horiz-adv-x="645" 
d="M590 897l-150 -92v-805h-270v639l-129 -80v211l129 80v788h270v-620l150 92v-213z" />
    <glyph glyph-name="Nacute" unicode="&#x143;" horiz-adv-x="1157" 
d="M418 1597l235 -657l138 -399l-5 387v669h258v-1597h-307l-235 657l-135 400l4 -387l2 -670h-262v1597h307zM528 2109h303l-124 -426h-273z" />
    <glyph glyph-name="nacute" unicode="&#x144;" horiz-adv-x="1030" 
d="M334 1085l12 -108q62 65 137.5 98t182.5 33q272 0 272 -291v-817h-268v754q0 116 -113 116q-116 0 -186 -102v-768h-271v803l-6 282h240zM467 1638h303l-125 -426h-272z" />
    <glyph glyph-name="Ncommaaccent" unicode="&#x145;" horiz-adv-x="1157" 
d="M418 1597l235 -657l138 -399l-5 387v669h258v-1597h-307l-235 657l-135 400l4 -387l2 -670h-262v1597h307zM424 -127h274l-65 -283h-230z" />
    <glyph glyph-name="ncommaaccent" unicode="&#x146;" horiz-adv-x="1030" 
d="M334 1085l12 -108q62 65 137.5 98t182.5 33q272 0 272 -291v-817h-268v754q0 116 -113 116q-116 0 -186 -102v-768h-271v803l-6 282h240zM377 -127h274l-65 -283h-230z" />
    <glyph glyph-name="Ncaron" unicode="&#x147;" horiz-adv-x="1157" 
d="M418 1597l235 -657l138 -399l-5 387v669h258v-1597h-307l-235 657l-135 400l4 -387l2 -670h-262v1597h307zM702 2109h222l-193 -426h-307l-193 426h222l125 -229z" />
    <glyph glyph-name="ncaron" unicode="&#x148;" horiz-adv-x="1030" 
d="M334 1085l12 -108q62 65 137.5 98t182.5 33q272 0 272 -291v-817h-268v754q0 116 -113 116q-116 0 -186 -102v-768h-271v803l-6 282h240zM641 1638h221l-192 -426h-308l-192 426h221l125 -229z" />
    <glyph glyph-name="Eng" unicode="&#x14a;" horiz-adv-x="1157" 
d="M408 1597l243 -647l137 -399l-4 383v663h260v-1738q0 -297 -313 -297q-106 0 -172 24l14 226q39 -17 105 -17q49 0 73.5 21.5t24.5 77.5v38l-272 715l-135 400l4 -383l2 -664h-264v1597h297z" />
    <glyph glyph-name="eng" unicode="&#x14b;" horiz-adv-x="1030" 
d="M334 1085l12 -108q62 65 137.5 98t182.5 33q272 0 272 -291v-958q0 -297 -313 -297q-106 0 -172 24l14 226q39 -17 104 -17q49 0 74 22t25 77v860q0 116 -113 116q-116 0 -186 -102v-768h-271v803l-6 282h240z" />
    <glyph glyph-name="Omacron" unicode="&#x14c;" horiz-adv-x="1134" 
d="M567 1620q84 0 150.5 -15.5t117 -46t87 -81t61.5 -113.5t39.5 -151t20.5 -187t6 -227q0 -150 -8.5 -261t-29.5 -207t-56 -159.5t-88.5 -108.5t-127.5 -65.5t-172 -20.5t-172 20.5t-127.5 65.5t-88.5 108.5t-55.5 159.5t-29 207t-8.5 261t8.5 261t29 206.5t55.5 159
t88.5 109t127.5 65.5t172 20zM567 219q123 0 163 122t40 458t-40 457.5t-163 121.5t-162.5 -121t-39.5 -458t39.5 -458.5t162.5 -121.5zM328 1784v252h479v-252h-479z" />
    <glyph glyph-name="omacron" unicode="&#x14d;" horiz-adv-x="991" 
d="M496 1108q155 0 246.5 -50.5t137.5 -174.5t46 -340q0 -214 -46 -338.5t-137.5 -176t-246.5 -51.5q-93 0 -160.5 17.5t-120.5 57t-85 105t-48 160.5t-16 226q0 129 16 224t48 160.5t84.5 105.5t120.5 57.5t161 17.5zM496 872q-58 0 -92 -27t-52 -100t-18 -202t18 -202
t52 -100.5t92 -27.5t91.5 27.5t51.5 100t18 202.5q0 129 -18 201.5t-51.5 100t-91.5 27.5zM254 1313v252h479v-252h-479z" />
    <glyph glyph-name="Obreve" unicode="&#x14e;" horiz-adv-x="1134" 
d="M567 1620q84 0 150.5 -15.5t117 -46t87 -81t61.5 -113.5t39.5 -151t20.5 -187t6 -227q0 -150 -8.5 -261t-29.5 -207t-56 -159.5t-88.5 -108.5t-127.5 -65.5t-172 -20.5t-172 20.5t-127.5 65.5t-88.5 108.5t-55.5 159.5t-29 207t-8.5 261t8.5 261t29 206.5t55.5 159
t88.5 109t127.5 65.5t172 20zM567 219q123 0 163 122t40 458t-40 457.5t-163 121.5t-162.5 -121t-39.5 -458t39.5 -458.5t162.5 -121.5zM567 1667q-79 0 -136.5 20t-94 55.5t-58 92t-29.5 122t-7 152.5h202q-2 -105 25.5 -155.5t97.5 -50.5t97.5 50.5t25.5 155.5h203
q2 -109 -12 -186.5t-49.5 -137t-101 -89t-163.5 -29.5z" />
    <glyph glyph-name="obreve" unicode="&#x14f;" horiz-adv-x="991" 
d="M496 1108q155 0 246.5 -50.5t137.5 -174.5t46 -340q0 -214 -46 -338.5t-137.5 -176t-246.5 -51.5q-93 0 -160.5 17.5t-120.5 57t-85 105t-48 160.5t-16 226q0 129 16 224t48 160.5t84.5 105.5t120.5 57.5t161 17.5zM496 872q-58 0 -92 -27t-52 -100t-18 -202t18 -202
t52 -100.5t92 -27.5t91.5 27.5t51.5 100t18 202.5q0 129 -18 201.5t-51.5 100t-91.5 27.5zM494 1196q-80 0 -137.5 20t-94 55.5t-57.5 92.5t-29 121.5t-8 152.5h203q0 -107 26 -156.5t97 -49.5t96.5 49.5t25.5 156.5h203q0 -88 -8 -152.5t-29.5 -121.5t-57.5 -92.5
t-93.5 -55.5t-136.5 -20z" />
    <glyph glyph-name="Ohungarumlaut" unicode="&#x150;" horiz-adv-x="1134" 
d="M567 1620q84 0 150.5 -15.5t117 -46t87 -81t61.5 -113.5t39.5 -151t20.5 -187t6 -227q0 -150 -8.5 -261t-29.5 -207t-56 -159.5t-88.5 -108.5t-127.5 -65.5t-172 -20.5t-172 20.5t-127.5 65.5t-88.5 108.5t-55.5 159.5t-29 207t-8.5 261t8.5 261t29 206.5t55.5 159
t88.5 109t127.5 65.5t172 20zM567 219q123 0 163 122t40 458t-40 457.5t-163 121.5t-162.5 -121t-39.5 -458t39.5 -458.5t162.5 -121.5zM356 2109h310l-144 -426h-276zM725 2109h309l-143 -426h-275z" />
    <glyph glyph-name="ohungarumlaut" unicode="&#x151;" horiz-adv-x="991" 
d="M496 1108q155 0 246.5 -50.5t137.5 -174.5t46 -340q0 -214 -46 -338.5t-137.5 -176t-246.5 -51.5q-93 0 -160.5 17.5t-120.5 57t-85 105t-48 160.5t-16 226q0 129 16 224t48 160.5t84.5 105.5t120.5 57.5t161 17.5zM496 872q-58 0 -92 -27t-52 -100t-18 -202t18 -202
t52 -100.5t92 -27.5t91.5 27.5t51.5 100t18 202.5q0 129 -18 201.5t-51.5 100t-91.5 27.5zM283 1638h309l-143 -426h-277zM651 1638h310l-144 -426h-274z" />
    <glyph glyph-name="OE" unicode="&#x152;" horiz-adv-x="1533" 
d="M1466 0h-815q-110 0 -191.5 16t-146.5 54.5t-107 98t-70 150t-40 207t-12 273.5t12 273.5t40 207t70 150t107 97.5t146.5 54t191.5 16h787v-247h-453v-410h373v-246h-373v-446h481v-248zM641 248h68v1102h-68q-47 0 -83.5 -6.5t-65 -23.5t-48.5 -38t-34.5 -57.5
t-23 -74.5t-13.5 -96t-6.5 -115.5t-1.5 -139.5t1.5 -139.5t6.5 -115.5t13.5 -96t23 -74.5t34.5 -57.5t48.5 -38t65 -23.5t83.5 -6.5z" />
    <glyph glyph-name="oe" unicode="&#x153;" horiz-adv-x="1560" 
d="M1501 461h-563q0 -56 3 -95t12.5 -74t25 -55.5t41 -32t61.5 -11.5q70 0 100.5 34.5t30.5 108.5l275 -35q0 -60 -9 -105.5t-34.5 -88.5t-69.5 -70t-116 -43.5t-171 -16.5q-208 0 -301 134q-92 -134 -290 -134q-93 0 -160.5 17.5t-120.5 57t-85 105t-48 160.5t-16 226
q0 129 16 224t48 160.5t84.5 105.5t120.5 57.5t161 17.5q200 0 292 -137q90 137 293 137q100 0 173 -24t120.5 -68t76 -115.5t39.5 -157t11 -202.5v-80zM496 213q57 0 90.5 27.5t51 100.5t17.5 202t-17.5 201.5t-51 100t-90.5 27.5q-58 0 -92 -27t-52 -100t-18 -202t18 -202
t52 -100.5t92 -27.5zM1079 893q-80 0 -110.5 -60t-30.5 -204h274q0 144 -27 204t-106 60z" />
    <glyph glyph-name="Racute" unicode="&#x154;" horiz-adv-x="1077" 
d="M389 606v-606h-278v1597h450q64 0 113.5 -7t101 -25.5t88.5 -54t67 -88.5t45 -133.5t15 -184.5q0 -138 -27.5 -235.5t-69.5 -148t-103 -81.5l235 -639h-315l-185 606h-137zM389 856h135q38 0 64 5t51 20.5t39.5 42.5t23.5 72t9 108t-9 107.5t-23.5 71t-39.5 42t-51 20.5
t-64 5h-135v-494zM463 2109h303l-125 -426h-272z" />
    <glyph glyph-name="racute" unicode="&#x155;" horiz-adv-x="698" 
d="M573 848q-117 0 -202 -98v-750h-271v803l-6 282h240l14 -118q39 69 97 105t124 36q55 0 88 -21l-14 -247q-21 8 -70 8zM326 1638h303l-125 -426h-273z" />
    <glyph glyph-name="Rcommaaccent" unicode="&#x156;" horiz-adv-x="1077" 
d="M389 606v-606h-278v1597h450q64 0 113.5 -7t101 -25.5t88.5 -54t67 -88.5t45 -133.5t15 -184.5q0 -138 -27.5 -235.5t-69.5 -148t-103 -81.5l235 -639h-315l-185 606h-137zM389 856h135q38 0 64 5t51 20.5t39.5 42.5t23.5 72t9 108t-9 107.5t-23.5 71t-39.5 42t-51 20.5
t-64 5h-135v-494zM406 -127h274l-66 -283h-229z" />
    <glyph glyph-name="rcommaaccent" unicode="&#x157;" horiz-adv-x="698" 
d="M573 848q-117 0 -202 -98v-750h-271v803l-6 282h240l14 -118q39 69 97 105t124 36q55 0 88 -21l-14 -247q-21 8 -70 8zM98 -127h275l-66 -283h-229z" />
    <glyph glyph-name="Rcaron" unicode="&#x158;" horiz-adv-x="1077" 
d="M389 606v-606h-278v1597h450q64 0 113.5 -7t101 -25.5t88.5 -54t67 -88.5t45 -133.5t15 -184.5q0 -138 -27.5 -235.5t-69.5 -148t-103 -81.5l235 -639h-315l-185 606h-137zM389 856h135q38 0 64 5t51 20.5t39.5 42.5t23.5 72t9 108t-9 107.5t-23.5 71t-39.5 42t-51 20.5
t-64 5h-135v-494zM637 2109h221l-192 -426h-308l-192 426h221l125 -229z" />
    <glyph glyph-name="rcaron" unicode="&#x159;" horiz-adv-x="698" 
d="M573 848q-117 0 -202 -98v-750h-271v803l-6 282h240l14 -118q39 69 97 105t124 36q55 0 88 -21l-14 -247q-21 8 -70 8zM500 1638h221l-193 -426h-307l-192 426h221l125 -229z" />
    <glyph glyph-name="Sacute" unicode="&#x15a;" horiz-adv-x="1042" 
d="M508 217q105 0 153 50t48 167q0 63 -12.5 103.5t-45.5 69t-75 46t-117 37.5q-67 18 -114 36t-100 54t-85.5 83t-54 123t-21.5 175q0 242 104.5 353.5t352.5 111.5q80 0 142.5 -12.5t106.5 -33t75 -55.5t49.5 -72t29.5 -92t14.5 -105.5t4.5 -120.5l-269 -35
q0 60 -2.5 98.5t-12 76.5t-27 58.5t-47.5 33.5t-73 13q-85 0 -127.5 -50t-42.5 -161q0 -63 9.5 -101t38 -64t66 -40t108.5 -30q79 -17 135 -37t108.5 -55.5t84 -85.5t51 -126t20.5 -177q0 -260 -116.5 -371t-364.5 -111q-92 0 -161.5 13.5t-119 42.5t-81.5 68t-50.5 97.5
t-26 123t-8.5 151.5l267 35q1 -64 5 -106t15.5 -79t32 -57t53 -31.5t80.5 -11.5zM483 2109h303l-124 -426h-273z" />
    <glyph glyph-name="sacute" unicode="&#x15b;" horiz-adv-x="931" 
d="M453 184q78 0 109.5 34.5t31.5 103.5q0 37 -9.5 60t-34 36.5t-48 20t-70.5 14.5q-64 8 -108 17t-88 24.5t-72 38t-50 56t-32 80t-10 107.5q0 332 395 332q120 0 195 -17.5t115.5 -60t54.5 -97.5t14 -145l-266 -34q0 76 -23 111.5t-84 35.5q-60 0 -84 -31.5t-24 -95.5
q0 -61 29 -83.5t108 -37.5q78 -9 128 -19.5t101.5 -33t80.5 -55.5t47 -87.5t18 -129.5q0 -186 -110 -268.5t-318 -82.5q-86 0 -149 8.5t-106.5 27.5t-70.5 44t-42 65t-20.5 82t-5.5 103l267 33q0 -80 26 -118t105 -38zM397 1638h303l-125 -426h-272z" />
    <glyph glyph-name="Scircumflex" unicode="&#x15c;" horiz-adv-x="1042" 
d="M508 217q105 0 153 50t48 167q0 63 -12.5 103.5t-45.5 69t-75 46t-117 37.5q-67 18 -114 36t-100 54t-85.5 83t-54 123t-21.5 175q0 242 104.5 353.5t352.5 111.5q80 0 142.5 -12.5t106.5 -33t75 -55.5t49.5 -72t29.5 -92t14.5 -105.5t4.5 -120.5l-269 -35
q0 60 -2.5 98.5t-12 76.5t-27 58.5t-47.5 33.5t-73 13q-85 0 -127.5 -50t-42.5 -161q0 -63 9.5 -101t38 -64t66 -40t108.5 -30q79 -17 135 -37t108.5 -55.5t84 -85.5t51 -126t20.5 -177q0 -260 -116.5 -371t-364.5 -111q-92 0 -161.5 13.5t-119 42.5t-81.5 68t-50.5 97.5
t-26 123t-8.5 151.5l267 35q1 -64 5 -106t15.5 -79t32 -57t53 -31.5t80.5 -11.5zM412 1683h-222l191 426h303l190 -426h-221l-121 232z" />
    <glyph glyph-name="scircumflex" unicode="&#x15d;" horiz-adv-x="931" 
d="M453 184q78 0 109.5 34.5t31.5 103.5q0 37 -9.5 60t-34 36.5t-48 20t-70.5 14.5q-64 8 -108 17t-88 24.5t-72 38t-50 56t-32 80t-10 107.5q0 332 395 332q120 0 195 -17.5t115.5 -60t54.5 -97.5t14 -145l-266 -34q0 76 -23 111.5t-84 35.5q-60 0 -84 -31.5t-24 -95.5
q0 -61 29 -83.5t108 -37.5q78 -9 128 -19.5t101.5 -33t80.5 -55.5t47 -87.5t18 -129.5q0 -186 -110 -268.5t-318 -82.5q-86 0 -149 8.5t-106.5 27.5t-70.5 44t-42 65t-20.5 82t-5.5 103l267 33q0 -80 26 -118t105 -38zM326 1212h-222l191 426h303l190 -426h-221l-121 232z
" />
    <glyph glyph-name="Scedilla" unicode="&#x15e;" horiz-adv-x="1042" 
d="M508 217q105 0 153 50t48 167q0 63 -12.5 103.5t-45.5 69t-75 46t-117 37.5q-67 18 -114 36t-100 54t-85.5 83t-54 123t-21.5 175q0 242 104.5 353.5t352.5 111.5q80 0 142.5 -12.5t106.5 -33t75 -55.5t49.5 -72t29.5 -92t14.5 -105.5t4.5 -120.5l-269 -35
q0 60 -2.5 98.5t-12 76.5t-27 58.5t-47.5 33.5t-73 13q-85 0 -127.5 -50t-42.5 -161q0 -63 9.5 -101t38 -64t66 -40t108.5 -30q79 -17 135 -37t108.5 -55.5t84 -85.5t51 -126t20.5 -177q0 -244 -103 -356t-319 -124l-12 -47q228 -45 217 -194q-7 -85 -79 -127.5t-179 -42.5
q-133 0 -234 43l43 125q52 -27 109 -33q121 -11 121 61q0 73 -180 92l43 125q-86 8 -148 33.5t-102 64t-63 99.5t-32 130t-10 165l267 35q1 -64 5 -106t15.5 -79t32 -57t53 -31.5t80.5 -11.5z" />
    <glyph glyph-name="scedilla" unicode="&#x15f;" horiz-adv-x="931" 
d="M453 184q78 0 109.5 34.5t31.5 103.5q0 37 -9.5 60t-34 36.5t-48 20t-70.5 14.5q-64 8 -108 17t-88 24.5t-72 38t-50 56t-32 80t-10 107.5q0 332 395 332q120 0 195 -17.5t115.5 -60t54.5 -97.5t14 -145l-266 -34q0 76 -23 111.5t-84 35.5q-60 0 -84 -31.5t-24 -95.5
q0 -61 29 -83.5t108 -37.5q78 -9 128 -19.5t101.5 -33t80.5 -55.5t47 -87.5t18 -129.5q0 -172 -94.5 -254.5t-272.5 -93.5l-14 -54q228 -45 217 -194q-7 -85 -79 -127.5t-179 -42.5q-133 0 -234 43l43 125q52 -27 109 -33q121 -11 121 61q0 73 -181 92l43 132
q-96 7 -156.5 28.5t-92 65t-42 95.5t-10.5 136l267 33q0 -80 26 -118t105 -38z" />
    <glyph glyph-name="Scaron" unicode="&#x160;" horiz-adv-x="1042" 
d="M508 217q105 0 153 50t48 167q0 63 -12.5 103.5t-45.5 69t-75 46t-117 37.5q-67 18 -114 36t-100 54t-85.5 83t-54 123t-21.5 175q0 242 104.5 353.5t352.5 111.5q80 0 142.5 -12.5t106.5 -33t75 -55.5t49.5 -72t29.5 -92t14.5 -105.5t4.5 -120.5l-269 -35
q0 60 -2.5 98.5t-12 76.5t-27 58.5t-47.5 33.5t-73 13q-85 0 -127.5 -50t-42.5 -161q0 -63 9.5 -101t38 -64t66 -40t108.5 -30q79 -17 135 -37t108.5 -55.5t84 -85.5t51 -126t20.5 -177q0 -260 -116.5 -371t-364.5 -111q-92 0 -161.5 13.5t-119 42.5t-81.5 68t-50.5 97.5
t-26 123t-8.5 151.5l267 35q1 -64 5 -106t15.5 -79t32 -57t53 -31.5t80.5 -11.5zM657 2109h222l-193 -426h-307l-193 426h222l124 -229z" />
    <glyph glyph-name="scaron" unicode="&#x161;" horiz-adv-x="931" 
d="M453 184q78 0 109.5 34.5t31.5 103.5q0 37 -9.5 60t-34 36.5t-48 20t-70.5 14.5q-64 8 -108 17t-88 24.5t-72 38t-50 56t-32 80t-10 107.5q0 332 395 332q120 0 195 -17.5t115.5 -60t54.5 -97.5t14 -145l-266 -34q0 76 -23 111.5t-84 35.5q-60 0 -84 -31.5t-24 -95.5
q0 -61 29 -83.5t108 -37.5q78 -9 128 -19.5t101.5 -33t80.5 -55.5t47 -87.5t18 -129.5q0 -186 -110 -268.5t-318 -82.5q-86 0 -149 8.5t-106.5 27.5t-70.5 44t-42 65t-20.5 82t-5.5 103l267 33q0 -80 26 -118t105 -38zM571 1638h222l-193 -426h-307l-193 426h222l124 -229z
" />
    <glyph glyph-name="Tcommaaccent" unicode="&#x162;" horiz-adv-x="931" 
d="M604 1350v-1350h-276v1350h-287v247h850v-247h-287zM328 -127h274l-65 -283h-230z" />
    <glyph glyph-name="tcommaaccent" unicode="&#x163;" horiz-adv-x="735" 
d="M47 860v225h127v287l268 4v-291h224v-225h-224v-551q0 -57 25.5 -79.5t73.5 -22.5q52 0 104 18l14 -223q-69 -25 -174 -25q-311 0 -311 297v586h-127zM272 -127h275l-66 -283h-229z" />
    <glyph glyph-name="Tcaron" unicode="&#x164;" horiz-adv-x="931" 
d="M604 1350v-1350h-276v1350h-287v247h850v-247h-287zM590 2109h221l-193 -426h-307l-192 426h221l125 -229z" />
    <glyph glyph-name="tcaron" unicode="&#x165;" horiz-adv-x="776" 
d="M47 860v225h127v287l268 4v-291h224v-225h-224v-551q0 -57 25.5 -79.5t73.5 -22.5q52 0 104 18l14 -223q-69 -25 -174 -25q-311 0 -311 297v586h-127zM524 1638h246l-70 -426h-176v426z" />
    <glyph glyph-name="Tbar" unicode="&#x166;" horiz-adv-x="931" 
d="M604 1350v-1350h-276v1350h-287v247h850v-247h-287zM225 1784v252h480v-252h-480z" />
    <glyph glyph-name="tbar" unicode="&#x167;" horiz-adv-x="735" 
d="M47 440v226h127v194h-127v225h127v287l268 4v-291h224v-225h-224v-194h150v-226h-150v-131q0 -57 25.5 -79.5t73.5 -22.5q52 0 104 18l14 -223q-69 -25 -174 -25q-311 0 -311 297v166h-127z" />
    <glyph glyph-name="Utilde" unicode="&#x168;" horiz-adv-x="1101" 
d="M551 217q105 0 137.5 46t32.5 163v1171h276v-1183q0 -78 -7.5 -136.5t-26.5 -110t-51.5 -86.5t-81.5 -60.5t-118.5 -37.5t-160.5 -12q-109 0 -187.5 18t-129 51.5t-80 89.5t-41 123t-11.5 161v1183h279v-1171q0 -117 32.5 -163t137.5 -46zM748 2052l192 -22
q-21 -337 -229 -334q-44 0 -83 15.5t-67 37.5t-52 44t-48.5 37.5t-46.5 16.5q-21 1 -35 -10t-20.5 -33t-8 -31.5t-2.5 -29.5l-192 22q21 337 229 334q43 0 82 -15.5t67 -37.5t52 -44.5t48 -38t46 -15.5q13 0 23.5 3.5t17 11.5t11.5 15.5t7.5 20t4 19.5t3 19.5t1.5 14.5z" />
    <glyph glyph-name="utilde" unicode="&#x169;" horiz-adv-x="1030" 
d="M696 0l-12 109q-62 -66 -137 -99t-182 -33q-273 0 -273 293v815h268v-753q0 -117 111 -117q115 0 188 102v768h271v-802l6 -283h-240zM713 1581l192 -22q-21 -337 -229 -334q-44 0 -83 15.5t-67 37.5t-52 44t-48.5 37.5t-46.5 16.5q-21 1 -35 -10t-20.5 -33t-8 -31.5
t-2.5 -29.5l-192 22q21 337 229 334q43 0 82 -15.5t67 -38t52 -44.5t48 -37.5t46 -15.5q13 0 23.5 3.5t17 11.5t11.5 15.5t7.5 20t4 19.5t3 19.5t1.5 14.5z" />
    <glyph glyph-name="Umacron" unicode="&#x16a;" horiz-adv-x="1101" 
d="M551 217q105 0 137.5 46t32.5 163v1171h276v-1183q0 -78 -7.5 -136.5t-26.5 -110t-51.5 -86.5t-81.5 -60.5t-118.5 -37.5t-160.5 -12q-109 0 -187.5 18t-129 51.5t-80 89.5t-41 123t-11.5 161v1183h279v-1171q0 -117 32.5 -163t137.5 -46zM309 1784v252h479v-252h-479z
" />
    <glyph glyph-name="umacron" unicode="&#x16b;" horiz-adv-x="1030" 
d="M696 0l-12 109q-62 -66 -137 -99t-182 -33q-273 0 -273 293v815h268v-753q0 -117 111 -117q115 0 188 102v768h271v-802l6 -283h-240zM274 1313v252h480v-252h-480z" />
    <glyph glyph-name="Ubreve" unicode="&#x16c;" horiz-adv-x="1101" 
d="M551 217q105 0 137.5 46t32.5 163v1171h276v-1183q0 -78 -7.5 -136.5t-26.5 -110t-51.5 -86.5t-81.5 -60.5t-118.5 -37.5t-160.5 -12q-109 0 -187.5 18t-129 51.5t-80 89.5t-41 123t-11.5 161v1183h279v-1171q0 -117 32.5 -163t137.5 -46zM549 1667q-98 0 -163.5 29.5
t-101 89t-49.5 137t-12 186.5h203q-2 -105 25.5 -155.5t97.5 -50.5t97.5 50.5t25.5 155.5h202q1 -87 -7 -152.5t-29.5 -122t-58 -92t-94 -55.5t-136.5 -20z" />
    <glyph glyph-name="ubreve" unicode="&#x16d;" horiz-adv-x="1030" 
d="M696 0l-12 109q-62 -66 -137 -99t-182 -33q-273 0 -273 293v815h268v-753q0 -117 111 -117q115 0 188 102v768h271v-802l6 -283h-240zM514 1196q-98 0 -163.5 29.5t-101 89t-49.5 137t-12 186.5h203q-2 -105 25.5 -155.5t97.5 -50.5t97.5 50.5t25.5 155.5h203
q2 -109 -12 -186.5t-49.5 -137t-101 -89t-163.5 -29.5z" />
    <glyph glyph-name="Uring" unicode="&#x16e;" horiz-adv-x="1101" 
d="M551 217q105 0 137.5 46t32.5 163v1171h276v-1183q0 -78 -7.5 -136.5t-26.5 -110t-51.5 -86.5t-81.5 -60.5t-118.5 -37.5t-160.5 -12q-109 0 -187.5 18t-129 51.5t-80 89.5t-41 123t-11.5 161v1183h279v-1171q0 -117 32.5 -163t137.5 -46zM307 1896q0 108 64.5 175
t177.5 67t177.5 -67t64.5 -175t-64.5 -174.5t-177.5 -66.5t-177.5 66.5t-64.5 174.5zM641 1896q0 46 -24 70.5t-68 24.5t-68 -24.5t-24 -70.5t24 -70t68 -24t68 24t24 70z" />
    <glyph glyph-name="uring" unicode="&#x16f;" horiz-adv-x="1030" 
d="M696 0l-12 109q-62 -66 -137 -99t-182 -33q-273 0 -273 293v815h268v-753q0 -117 111 -117q115 0 188 102v768h271v-802l6 -283h-240zM272 1425q0 108 64.5 175t177.5 67t177.5 -67t64.5 -175t-64.5 -174.5t-177.5 -66.5t-177.5 66.5t-64.5 174.5zM606 1425
q0 46 -24 70.5t-68 24.5t-68 -24.5t-24 -70.5t24 -70t68 -24t68 24t24 70z" />
    <glyph glyph-name="Uhungarumlaut" unicode="&#x170;" horiz-adv-x="1101" 
d="M551 217q105 0 137.5 46t32.5 163v1171h276v-1183q0 -78 -7.5 -136.5t-26.5 -110t-51.5 -86.5t-81.5 -60.5t-118.5 -37.5t-160.5 -12q-109 0 -187.5 18t-129 51.5t-80 89.5t-41 123t-11.5 161v1183h279v-1171q0 -117 32.5 -163t137.5 -46zM338 2109h309l-143 -426h-277z
M707 2109h309l-144 -426h-274z" />
    <glyph glyph-name="uhungarumlaut" unicode="&#x171;" horiz-adv-x="1030" 
d="M696 0l-12 109q-62 -66 -137 -99t-182 -33q-273 0 -273 293v815h268v-753q0 -117 111 -117q115 0 188 102v768h271v-802l6 -283h-240zM303 1638h309l-143 -426h-276zM672 1638h309l-143 -426h-275z" />
    <glyph glyph-name="Uogonek" unicode="&#x172;" horiz-adv-x="1101" 
d="M551 217q105 0 137.5 46t32.5 163v1171h276v-1183q0 -192 -56.5 -293t-207.5 -133q-70 -22 -110 -66.5t-35 -97.5q3 -38 28 -57.5t72 -12.5q49 6 90 37l53 -178q-76 -51 -196 -51q-212 0 -244 184q-25 124 66 229q-106 9 -176 40t-109 88.5t-54.5 130.5t-15.5 180v1183
h279v-1171q0 -117 32.5 -163t137.5 -46z" />
    <glyph glyph-name="uogonek" unicode="&#x173;" horiz-adv-x="1030" 
d="M930 283l6 -283q-92 -13 -149 -63.5t-52 -112.5q3 -38 28.5 -57.5t72.5 -12.5q49 6 90 37l53 -178q-76 -51 -197 -51q-211 0 -243 184q-19 93 23.5 169.5t127.5 131.5l-6 62q-62 -66 -137 -99t-182 -33q-273 0 -273 293v815h268v-753q0 -117 111 -117q115 0 188 102v768
h271v-802z" />
    <glyph glyph-name="Wcircumflex" unicode="&#x174;" horiz-adv-x="1480" 
d="M895 -14l-154 1210l-155 -1210h-375l-156 1611h258l103 -1224l168 1224h313l168 -1224l102 1224h260l-157 -1611h-375zM621 1683h-222l191 426h303l190 -426h-221l-121 232z" />
    <glyph glyph-name="wcircumflex" unicode="&#x175;" horiz-adv-x="1320" 
d="M530 1085h261l137 -731l78 731h260l-156 -1091h-311l-140 751l-139 -751h-311l-154 1091h258l78 -731zM539 1212h-222l191 426h303l190 -426h-221l-121 232z" />
    <glyph glyph-name="Ycircumflex" unicode="&#x176;" horiz-adv-x="1056" 
d="M528 842l232 755h284l-380 -1046l4 -551h-277l2 551l-381 1046h285zM408 1683h-222l191 426h303l190 -426h-221l-121 232z" />
    <glyph glyph-name="ycircumflex" unicode="&#x177;" horiz-adv-x="985" 
d="M492 305l174 780h286l-315 -1054l-150 -441h-303l160 406l-311 1089h284zM371 1212h-221l190 426h303l191 -426h-222l-120 232z" />
    <glyph glyph-name="Ydieresis" unicode="&#x178;" horiz-adv-x="1056" 
d="M528 842l232 755h284l-380 -1046l4 -551h-277l2 551l-381 1046h285zM455 2044v-293h-295v293h295zM897 2044v-293h-295v293h295z" />
    <glyph glyph-name="Zacute" unicode="&#x179;" horiz-adv-x="1030" 
d="M59 0v201l498 989l86 164l-272 -2h-281v245h862v-200l-497 -989l-86 -164l274 2h318v-246h-902zM461 2109h303l-125 -426h-272z" />
    <glyph glyph-name="zacute" unicode="&#x17a;" horiz-adv-x="849" 
d="M47 0v184l414 668l-385 -4v237h700v-184l-414 -668l441 5v-238h-756zM375 1638h303l-125 -426h-272z" />
    <glyph glyph-name="Zdotaccent" unicode="&#x17b;" horiz-adv-x="1030" 
d="M59 0v201l498 989l86 164l-272 -2h-281v245h862v-200l-497 -989l-86 -164l274 2h318v-246h-902zM657 2044v-293h-295v293h295z" />
    <glyph glyph-name="zdotaccent" unicode="&#x17c;" horiz-adv-x="849" 
d="M47 0v184l414 668l-385 -4v237h700v-184l-414 -668l441 5v-238h-756zM571 1573v-293h-295v293h295z" />
    <glyph glyph-name="Zcaron" unicode="&#x17d;" horiz-adv-x="1030" 
d="M59 0v201l498 989l86 164l-272 -2h-281v245h862v-200l-497 -989l-86 -164l274 2h318v-246h-902zM635 2109h221l-192 -426h-308l-192 426h221l125 -229z" />
    <glyph glyph-name="zcaron" unicode="&#x17e;" horiz-adv-x="849" 
d="M47 0v184l414 668l-385 -4v237h700v-184l-414 -668l441 5v-238h-756zM549 1638h221l-192 -426h-308l-192 426h221l125 -229z" />
    <glyph glyph-name="florin" unicode="&#x192;" horiz-adv-x="763" 
d="M47 702v228h166v360q0 144 84 220.5t250 76.5q106 0 172 -24l-14 -224q-55 19 -105 19q-61 0 -89 -24t-28 -83v-321h197v-228h-197v-837q0 -144 -83 -220.5t-248 -76.5q-109 0 -175 24l15 224q55 -19 104 -19q62 0 89.5 23.5t27.5 83.5v798h-166z" />
    <glyph glyph-name="Scommaaccent" unicode="&#x218;" horiz-adv-x="1042" 
d="M508 217q105 0 153 50t48 167q0 63 -12.5 103.5t-45.5 69t-75 46t-117 37.5q-67 18 -114 36t-100 54t-85.5 83t-54 123t-21.5 175q0 242 104.5 353.5t352.5 111.5q80 0 142.5 -12.5t106.5 -33t75 -55.5t49.5 -72t29.5 -92t14.5 -105.5t4.5 -120.5l-269 -35
q0 60 -2.5 98.5t-12 76.5t-27 58.5t-47.5 33.5t-73 13q-85 0 -127.5 -50t-42.5 -161q0 -63 9.5 -101t38 -64t66 -40t108.5 -30q79 -17 135 -37t108.5 -55.5t84 -85.5t51 -126t20.5 -177q0 -260 -116.5 -371t-364.5 -111q-92 0 -161.5 13.5t-119 42.5t-81.5 68t-50.5 97.5
t-26 123t-8.5 151.5l267 35q1 -64 5 -106t15.5 -79t32 -57t53 -31.5t80.5 -11.5zM373 -127h274l-65 -283h-230z" />
    <glyph glyph-name="scommaaccent" unicode="&#x219;" horiz-adv-x="931" 
d="M453 184q78 0 109.5 34.5t31.5 103.5q0 37 -9.5 60t-34 36.5t-48 20t-70.5 14.5q-64 8 -108 17t-88 24.5t-72 38t-50 56t-32 80t-10 107.5q0 332 395 332q120 0 195 -17.5t115.5 -60t54.5 -97.5t14 -145l-266 -34q0 76 -23 111.5t-84 35.5q-60 0 -84 -31.5t-24 -95.5
q0 -61 29 -83.5t108 -37.5q78 -9 128 -19.5t101.5 -33t80.5 -55.5t47 -87.5t18 -129.5q0 -186 -110 -268.5t-318 -82.5q-86 0 -149 8.5t-106.5 27.5t-70.5 44t-42 65t-20.5 82t-5.5 103l267 33q0 -80 26 -118t105 -38zM322 -127h274l-66 -283h-229z" />
    <glyph glyph-name="dotlessj" unicode="&#x237;" horiz-adv-x="473" 
d="M371 1085v-1226q0 -297 -314 -297q-106 0 -172 24l15 226q39 -17 104 -17q49 0 73.5 21.5t24.5 77.5v1191h269z" />
    <glyph glyph-name="circumflex" unicode="&#x2c6;" horiz-adv-x="1269" 
d="M514 1212h-221l190 426h303l191 -426h-221l-121 232z" />
    <glyph glyph-name="caron" unicode="&#x2c7;" horiz-adv-x="1269" 
d="M760 1638h221l-193 -426h-307l-192 426h221l125 -229z" />
    <glyph glyph-name="breve" unicode="&#x2d8;" horiz-adv-x="1269" 
d="M635 1196q-98 0 -163.5 29.5t-101 89t-49.5 137t-12 186.5h203q-2 -105 25.5 -155.5t97.5 -50.5t97.5 50.5t25.5 155.5h203q2 -109 -12 -186.5t-49.5 -137t-101 -89t-163.5 -29.5z" />
    <glyph glyph-name="dotaccent" unicode="&#x2d9;" horiz-adv-x="1269" 
d="M776 1569v-281h-284v281h284z" />
    <glyph glyph-name="ring" unicode="&#x2da;" horiz-adv-x="1269" 
d="M393 1425q0 108 64.5 175t177.5 67t177.5 -67t64.5 -175t-64.5 -174.5t-177.5 -66.5t-177.5 66.5t-64.5 174.5zM727 1425q0 46 -24 70.5t-68 24.5t-68 -24.5t-24 -70.5t24 -70t68 -24t68 24t24 70z" />
    <glyph glyph-name="ogonek" unicode="&#x2db;" horiz-adv-x="1269" 
d="M979 125l78 -125q-92 -13 -149 -63.5t-52 -112.5q3 -38 28 -57.5t72 -12.5q50 6 91 37l53 -178q-76 -51 -197 -51q-212 0 -244 184q-14 70 8.5 133.5t72 110t110 80.5t129.5 55z" />
    <glyph glyph-name="tilde" unicode="&#x2dc;" horiz-adv-x="1269" 
d="M834 1581l192 -22q-21 -337 -229 -334q-44 0 -83 15.5t-67 37.5t-52 44t-48.5 37.5t-46.5 16.5q-21 1 -35 -10t-20.5 -33t-8 -31.5t-2.5 -29.5l-192 22q21 337 229 334q43 0 82 -15.5t67 -38t52 -44.5t48 -37.5t46 -15.5q13 0 23.5 3.5t17 11.5t11.5 15.5t7.5 20t4 19.5
t3 19.5t1.5 14.5z" />
    <glyph glyph-name="hungarumlaut" unicode="&#x2dd;" horiz-adv-x="1269" 
d="M424 1638h309l-143 -426h-277zM793 1638h309l-144 -426h-274z" />
    <glyph glyph-name="pi" unicode="&#x3c0;" horiz-adv-x="1257" 
d="M702 274v586h-213v-592l-34 -268h-242l6 283v577h-166v225h1121v-225h-203v-551q0 -56 25 -78t73 -22q59 0 105 16l14 -223q-69 -25 -170 -25q-316 0 -316 297z" />
    <glyph glyph-name="uni0E3F" unicode="&#xe3f;" horiz-adv-x="911" 
d="M756 1565l-72 -238q123 -65 123 -283q0 -180 -100 -231q137 -30 137 -266q0 -187 -77 -264.5t-230 -77.5h-91l-59 -205h-240l60 205h-101v1155h351l59 205h240zM365 440h114q46 0 70 26t24 91q0 125 -88 125h-120v-242zM463 1124h-98v-215h98q35 0 54.5 24t19.5 85
t-18.5 83.5t-55.5 22.5z" />
    <glyph glyph-name="enspace" unicode="&#x2002;" horiz-adv-x="1024" 
 />
    <glyph glyph-name="emspace" unicode="&#x2003;" horiz-adv-x="2048" 
 />
    <glyph glyph-name="threeperemspace" unicode="&#x2004;" horiz-adv-x="681" 
 />
    <glyph glyph-name="fourperemspace" unicode="&#x2005;" horiz-adv-x="512" 
 />
    <glyph glyph-name="sixperemspace" unicode="&#x2006;" horiz-adv-x="342" 
 />
    <glyph glyph-name="figurespace" unicode="&#x2007;" horiz-adv-x="1433" 
 />
    <glyph glyph-name="punctuationspace" unicode="&#x2008;" horiz-adv-x="544" 
 />
    <glyph glyph-name="thinspace" unicode="&#x2009;" horiz-adv-x="409" 
 />
    <glyph glyph-name="hairspace" unicode="&#x200a;" horiz-adv-x="204" 
 />
    <glyph glyph-name="zerowidthspace" unicode="&#x200b;" horiz-adv-x="0" 
 />
    <glyph glyph-name="figuredash" unicode="&#x2012;" horiz-adv-x="1474" 
d="M1360 559h-1245v254h1245v-254z" />
    <glyph glyph-name="endash" unicode="&#x2013;" horiz-adv-x="1064" 
d="M950 559h-835v254h835v-254z" />
    <glyph glyph-name="emdash" unicode="&#x2014;" horiz-adv-x="2088" 
d="M1974 559h-1859v254h1859v-254z" />
    <glyph glyph-name="uni2015" unicode="&#x2015;" horiz-adv-x="2908" 
d="M2793 559h-2678v254h2678v-254z" />
    <glyph glyph-name="doublebar" unicode="&#x2016;" horiz-adv-x="1075" 
d="M477 1700v-1966h-287v1966h287zM883 1700v-1966h-285v1966h285z" />
    <glyph glyph-name="quoteleft" unicode="&#x2018;" horiz-adv-x="432" 
d="M309 1085h-305l123 512h221z" />
    <glyph glyph-name="quoteright" unicode="&#x2019;" horiz-adv-x="432" 
d="M123 1597h305l-123 -512h-221z" />
    <glyph glyph-name="quotesinglbase" unicode="&#x201a;" horiz-adv-x="432" 
d="M94 176h305l-123 -512h-221z" />
    <glyph glyph-name="reversequoteleft" unicode="&#x201b;" horiz-adv-x="432" 
d="M4 1597h305l39 -512h-221z" />
    <glyph glyph-name="quotedblleft" unicode="&#x201c;" horiz-adv-x="788" 
d="M309 1085h-305l123 512h221zM678 1085h-305l121 512h223z" />
    <glyph glyph-name="quotedblright" unicode="&#x201d;" horiz-adv-x="798" 
d="M489 1597h306l-121 -512h-223zM123 1597h305l-123 -512h-221z" />
    <glyph glyph-name="quotedblbase" unicode="&#x201e;" horiz-adv-x="798" 
d="M463 176h303l-121 -512h-221zM94 176h305l-123 -512h-221z" />
    <glyph glyph-name="reversequotedblleft" unicode="&#x201f;" horiz-adv-x="798" 
d="M4 1597h305l39 -512h-223zM371 1597h305l39 -512h-221z" />
    <glyph glyph-name="dagger" unicode="&#x2020;" horiz-adv-x="698" 
d="M258 1597h182l-20 -233l239 20v-180l-239 21l39 -426h-219l39 426l-238 -21v180l238 -20z" />
    <glyph glyph-name="daggerdbl" unicode="&#x2021;" horiz-adv-x="698" 
d="M258 1597h182l-20 -233l239 20v-180l-241 21l10 -95l-10 -96l241 21v-181l-239 21l39 -426h-219l39 426l-238 -21v181l238 -21l-9 96l9 95l-238 -21v180l238 -20z" />
    <glyph glyph-name="bullet" unicode="&#x2022;" horiz-adv-x="911" 
d="M776 1008v-643h-641v643h641z" />
    <glyph glyph-name="ellipsis" unicode="&#x2026;" horiz-adv-x="2088" 
d="M514 285v-285h-289v285h289zM1188 285v-285h-287v285h287zM1864 285v-285h-289v285h289z" />
    <glyph glyph-name="perthousand" unicode="&#x2030;" horiz-adv-x="2476" 
d="M408 1382q-65 0 -89 -47.5t-24 -185.5q0 -137 23.5 -184t89.5 -47q67 0 90.5 46.5t23.5 184.5t-23.5 185.5t-90.5 47.5zM408 713q-184 0 -257 98.5t-73 337.5q0 240 73 339t257 99q185 0 258 -98.5t73 -339.5q0 -239 -73 -337.5t-258 -98.5zM362 0l801 1565h213
l-801 -1565h-213zM1331 182q65 0 89 48t24 186q0 137 -23.5 184t-89.5 47q-67 0 -90.5 -46.5t-23.5 -184.5t23.5 -186t90.5 -48zM1331 852q184 0 257 -98.5t73 -337.5q0 -240 -73 -339.5t-257 -99.5q-185 0 -258.5 99.5t-73.5 339.5q0 239 73 337.5t259 98.5zM2068 182
q65 0 89 48t24 186q0 137 -23.5 184t-89.5 47q-67 0 -90.5 -46.5t-23.5 -184.5t23.5 -186t90.5 -48zM2068 852q184 0 257 -98.5t73 -337.5q0 -240 -73 -339.5t-257 -99.5q-185 0 -258 99t-73 340q0 239 73 337.5t258 98.5z" />
    <glyph glyph-name="minute" unicode="&#x2032;" horiz-adv-x="514" 
d="M96 1565h322l-99 -699h-223v699z" />
    <glyph glyph-name="second" unicode="&#x2033;" horiz-adv-x="913" 
d="M96 1565h322l-99 -699h-223v699zM496 1565h321l-98 -699h-223v699z" />
    <glyph glyph-name="tripleprime" unicode="&#x2034;" horiz-adv-x="1247" 
d="M84 1597h319l-45 -512h-231zM465 1597h317l-43 -512h-231zM846 1597h317l-43 -512h-231z" />
    <glyph glyph-name="guilsinglleft" unicode="&#x2039;" horiz-adv-x="655" 
d="M532 483v-225l-426 303v168l426 303v-225l-188 -162z" />
    <glyph glyph-name="guilsinglright" unicode="&#x203a;" horiz-adv-x="655" 
d="M123 258v225l188 162l-188 162v225l426 -303v-168z" />
    <glyph glyph-name="fraction" unicode="&#x2044;" horiz-adv-x="481" 
d="M-266 0l801 1565h213l-801 -1565h-213z" />
    <glyph glyph-name="uni2070" unicode="&#x2070;" 
d="M240 1155q0 -86 1.5 -133t7.5 -75.5t15 -36t25 -7.5t24 8t14 36t7.5 75t1.5 133q0 87 -1.5 134.5t-7.5 75.5t-14 36t-24 8t-25 -7.5t-15 -36t-7.5 -76t-1.5 -134.5zM526 1155q0 -177 -22.5 -266t-70.5 -121.5t-144 -32.5q-73 0 -116 16t-72.5 63t-40.5 127.5t-11 213.5
q0 134 11 214.5t40.5 128t72.5 63.5t116 16q96 0 144 -32.5t70.5 -122t22.5 -267.5z" />
    <glyph glyph-name="uni2074" unicode="&#x2074;" 
d="M539 920h-58v-172h-182v172h-262v139l231 518h213v-487h58v-170zM299 1090l10 260l-104 -265z" />
    <glyph glyph-name="uni2075" unicode="&#x2075;" 
d="M289 901q29 0 41 27.5t12 93.5q0 79 -12 105t-43 26q-24 0 -44.5 -17t-29.5 -44l-158 24l21 449h424v-172h-258l-6 -136q26 31 53.5 44.5t68.5 13.5q87 0 130.5 -65.5t43.5 -227.5q0 -160 -58.5 -223.5t-190.5 -63.5q-133 0 -185.5 56.5t-52.5 199.5l191 25
q1 -72 11.5 -93.5t41.5 -21.5z" />
    <glyph glyph-name="uni2076" unicode="&#x2076;" 
d="M287 1415q-29 0 -36 -32.5t-7 -151.5q42 78 131 78q88 0 118.5 -63.5t30.5 -219.5q0 -153 -52.5 -222t-184.5 -69q-62 0 -103.5 15.5t-68 44t-40.5 82t-19 116.5t-5 162q0 92 4.5 152t19 116t41.5 87t72 49t111 18q122 0 168 -49.5t49 -167.5l-190 -25q-2 51 -8 65.5
t-31 14.5zM297 1145q-4 0 -8 -0.5t-7 -1.5t-6 -3t-5 -3.5t-5 -5.5t-4 -5.5t-4 -7.5l-4 -8t-5 -9.5t-5 -10.5q0 -107 9.5 -150t33.5 -43q17 0 26 6t13.5 24.5t5 35.5t0.5 57q0 69 -7 97t-28 28z" />
    <glyph glyph-name="uni2077" unicode="&#x2077;" 
d="M322 748h-203l168 499l53 148l-115 -2h-184v172h498v-113z" />
    <glyph glyph-name="uni2078" unicode="&#x2078;" 
d="M289 1407q-27 0 -38 -17.5t-11 -62.5q0 -84 49 -84q47 0 47 84q0 45 -11 62.5t-36 17.5zM289 1090q-36 0 -52 -19t-16 -76q0 -48 15 -70t53 -22q37 0 51 22t14 70q0 57 -15.5 76t-49.5 19zM289 735q-74 0 -124.5 16t-78 48t-38.5 72t-11 96q0 164 88 207q-34 15 -53 62.5
t-19 113.5q0 124 53 175.5t183 51.5q128 0 180.5 -51.5t52.5 -175.5q0 -66 -18.5 -113.5t-52.5 -62.5q88 -42 88 -207q0 -115 -54 -173.5t-196 -58.5z" />
    <glyph glyph-name="uni2079" unicode="&#x2079;" 
d="M291 897q28 0 34.5 29t6.5 145q-22 -38 -52.5 -52.5t-78.5 -14.5q-82 0 -116 65.5t-34 216.5q0 153 52.5 222t185.5 69q52 0 89 -9.5t63 -32.5t42 -53t25.5 -81t12.5 -106.5t3 -137.5q0 -92 -4.5 -152t-19 -116t-41.5 -87t-72 -49t-111 -18q-122 0 -168 49.5t-49 167.5
l191 25q1 -27 2 -39.5t5.5 -23.5t12 -14t21.5 -3zM279 1167q20 0 31.5 11t21.5 34q0 109 -9.5 156t-33.5 47q-17 0 -26 -6t-13.5 -24.5t-5 -35.5t-0.5 -57q0 -125 35 -125z" />
    <glyph glyph-name="uni207A" unicode="&#x207a;" horiz-adv-x="790" 
d="M307 864v201h-201v176h201v201h176v-201h201v-176h-201v-201h-176z" />
    <glyph glyph-name="uni207B" unicode="&#x207b;" horiz-adv-x="790" 
d="M684 1065h-578v176h578v-176z" />
    <glyph glyph-name="uni207C" unicode="&#x207c;" horiz-adv-x="790" 
d="M684 936h-578v176h578v-176zM684 1194h-578v174h578v-174z" />
    <glyph glyph-name="uni207D" unicode="&#x207d;" horiz-adv-x="368" 
d="M236 1153q0 -273 110 -514h-186q-51 89 -84 226t-33 288q0 150 33.5 287.5t83.5 224.5h186q-110 -241 -110 -512z" />
    <glyph glyph-name="uni207E" unicode="&#x207e;" horiz-adv-x="368" 
d="M133 1153q0 278 -110 512h186q50 -87 83.5 -224.5t33.5 -287.5q0 -151 -33 -288t-84 -226h-186q110 234 110 514z" />
    <glyph glyph-name="uni2080" unicode="&#x2080;" 
d="M240 408q0 -86 1.5 -133t7.5 -75.5t15 -36t25 -7.5t24 8t14 36t7.5 75t1.5 133q0 87 -1.5 134.5t-7.5 75.5t-14 36t-24 8t-25 -7.5t-15 -36t-7.5 -76t-1.5 -134.5zM526 408q0 -177 -22.5 -266t-70.5 -121.5t-144 -32.5q-73 0 -116 16t-72.5 63t-40.5 127.5t-11 213.5
q0 134 11 214.5t40.5 127.5t72.5 63t116 16q57 0 94.5 -10.5t67 -36t45 -74.5t23 -120.5t7.5 -179.5z" />
    <glyph glyph-name="uni2081" unicode="&#x2081;" 
d="M528 0h-458v170h135v389q-50 -53 -148 -74v193q60 17 112 60.5t75 90.5h149v-659h135v-170z" />
    <glyph glyph-name="uni2082" unicode="&#x2082;" 
d="M291 664q-22 0 -31.5 -26.5t-9.5 -102.5l-191 24q1 61 5 98.5t17.5 74t39.5 55.5t69 30.5t107 11.5q128 0 175.5 -50t47.5 -177q0 -46 -6 -78t-15 -55.5t-34.5 -49t-49.5 -44.5t-75 -56q-60 -43 -76 -71.5t-16 -77.5h278v-170h-477q0 63 0.5 96.5t3.5 75.5t7 63
t14.5 49.5t22.5 44t33 38t45.5 41t60.5 43.5q55 37 74.5 64t19.5 73q0 43 -7.5 59.5t-31.5 16.5z" />
    <glyph glyph-name="uni2083" unicode="&#x2083;" 
d="M287 154q32 0 42.5 22t10.5 72q0 51 -14 68.5t-50 17.5h-57v168h57q24 0 31.5 15t7.5 63q0 52 -7 68t-32 16q-27 0 -33.5 -22.5t-6.5 -96.5l-185 22q1 72 11 119t35.5 80.5t69.5 48t112 14.5q120 0 172.5 -50.5t52.5 -178.5q0 -81 -16.5 -118.5t-53.5 -57.5
q49 -12 72.5 -56.5t23.5 -138.5q0 -118 -55 -179.5t-194 -61.5q-61 0 -104 12.5t-69 33t-40.5 56.5t-19.5 74t-5 94l184 25q0 -75 13 -102t47 -27z" />
    <glyph glyph-name="uni2084" unicode="&#x2084;" 
d="M539 172h-58v-172h-182v172h-262v139l231 518h213v-487h58v-170zM299 342l10 260l-104 -264z" />
    <glyph glyph-name="uni2085" unicode="&#x2085;" 
d="M289 154q29 0 41 27t12 93q0 79 -12 105.5t-43 26.5q-23 0 -44 -17t-30 -45l-158 25l21 448h424v-172h-258l-6 -135q26 30 53 43.5t69 13.5q87 0 130.5 -65.5t43.5 -227.5q0 -160 -58.5 -223t-190.5 -63q-133 0 -185.5 56.5t-52.5 199.5l191 24q1 -72 11.5 -93t41.5 -21z
" />
    <glyph glyph-name="uni2086" unicode="&#x2086;" 
d="M287 668q-29 0 -36 -33t-7 -152q42 78 131 78q88 0 118.5 -63t30.5 -219q0 -153 -52.5 -222t-184.5 -69q-62 0 -103.5 15.5t-68 44t-40.5 82t-19 116.5t-5 162q0 76 3 128.5t12 104t26 83.5t44.5 57.5t67.5 36.5t95 11q122 0 168 -49.5t49 -167.5l-190 -24q-2 51 -8 65.5
t-31 14.5zM297 397q-4 0 -8 -0.5t-7 -1.5t-6 -3t-5 -3.5t-5 -5.5t-4 -5.5t-4 -7.5l-4 -8t-5 -9.5t-5 -10.5q0 -107 9.5 -149.5t33.5 -42.5q11 0 19 2.5t13 10.5t7.5 15t4 24.5t1.5 30v39.5q0 69 -7 97t-28 28z" />
    <glyph glyph-name="uni2087" unicode="&#x2087;" 
d="M322 0h-203l168 500l53 147l-115 -2h-184v172h498v-112z" />
    <glyph glyph-name="uni2088" unicode="&#x2088;" 
d="M289 659q-27 0 -38 -17t-11 -62q0 -84 49 -84q47 0 47 84q0 45 -11 62t-36 17zM289 342q-36 0 -52 -18.5t-16 -75.5q0 -48 15 -70t53 -22q37 0 51 22t14 70q0 57 -15.5 75.5t-49.5 18.5zM289 -12q-74 0 -124.5 15.5t-78 47.5t-38.5 72t-11 96q0 164 88 207
q-34 15 -53 62.5t-19 113.5q0 124 53 175.5t183 51.5q128 0 180.5 -51.5t52.5 -175.5q0 -66 -18.5 -113.5t-52.5 -62.5q88 -42 88 -207q0 -115 -54 -173t-196 -58z" />
    <glyph glyph-name="uni2089" unicode="&#x2089;" 
d="M291 150q28 0 34.5 29t6.5 145q-22 -38 -52.5 -53t-78.5 -15q-82 0 -116 66t-34 217q0 153 52.5 221.5t185.5 68.5q52 0 89 -9.5t63 -32t42 -53t25.5 -81t12.5 -106t3 -137.5q0 -92 -4.5 -152t-19 -116t-41.5 -87t-72 -49t-111 -18q-122 0 -168 49.5t-49 167.5l191 24
q1 -36 3.5 -50t10.5 -21.5t27 -7.5zM279 420q20 0 31.5 11t21.5 34q0 109 -9.5 156t-33.5 47q-17 0 -26 -6t-13.5 -24.5t-5 -35.5t-0.5 -57q0 -125 35 -125z" />
    <glyph glyph-name="uni208A" unicode="&#x208a;" horiz-adv-x="790" 
d="M307 117v200h-201v177h201v200h176v-200h201v-177h-201v-200h-176z" />
    <glyph glyph-name="uni208B" unicode="&#x208b;" horiz-adv-x="790" 
d="M684 317h-578v177h578v-177z" />
    <glyph glyph-name="uni208C" unicode="&#x208c;" horiz-adv-x="790" 
d="M684 188h-578v177h578v-177zM684 446h-578v175h578v-175z" />
    <glyph glyph-name="uni208D" unicode="&#x208d;" horiz-adv-x="368" 
d="M236 406q0 -274 110 -515h-186q-50 89 -83.5 226.5t-33.5 288.5q0 150 33.5 287.5t83.5 224.5h186q-110 -241 -110 -512z" />
    <glyph glyph-name="uni208E" unicode="&#x208e;" horiz-adv-x="368" 
d="M133 406q0 278 -110 512h186q50 -87 83.5 -224.5t33.5 -287.5q0 -151 -33.5 -288.5t-83.5 -226.5h-186q110 234 110 515z" />
    <glyph glyph-name="uni20A1" unicode="&#x20a1;" horiz-adv-x="1044" 
d="M934 1659l-49 -164q50 -49 71 -127.5t21 -196.5l-197 -24l-276 -928q12 -2 39 -2q90 0 123 45.5t36 165.5l275 -35q0 -112 -18 -186t-64.5 -128t-129.5 -78t-210 -24q-66 0 -121 9l-22 -80h-80l28 96q-13 4 -55 25l-37 -121h-78l50 166q-86 82 -120 248t-34 462
q0 156 8.5 269t29 206.5t54.5 153.5t87 100.5t123.5 58t166.5 17.5q68 0 133 -10l25 82h80l-29 -96q23 -7 55 -23l37 119h78zM360 782q0 -151 7 -284l249 839q-37 11 -73 11q-40 0 -69 -11.5t-49.5 -41.5t-33 -70t-19.5 -108.5t-9.5 -144.5t-2.5 -190zM702 1145
q-3 86 -24 133l-283 -950q16 -50 41 -72z" />
    <glyph glyph-name="uni20A2" unicode="&#x20a2;" horiz-adv-x="1044" 
d="M889 705q-111 0 -197 -99v-407q60 18 83.5 69.5t25.5 159.5l176 -35q0 -112 -18 -186t-64.5 -128t-129.5 -78t-210 -24q-96 0 -166.5 17.5t-123.5 58t-87 100.5t-54.5 153.5t-29 206.5t-8.5 269t8.5 269t29 206.5t54.5 153.5t87 100.5t123.5 58t166.5 17.5q127 0 210 -24
t129.5 -78t64.5 -128t18 -186l-275 -34q-3 120 -36 165.5t-123 45.5q-40 0 -69 -11.5t-49.5 -41.5t-33 -70t-19.5 -108.5t-9.5 -144.5t-2.5 -190q0 -303 28.5 -428.5t119.5 -154.5v460l-6 283h155l15 -119q39 69 95 105.5t120 36.5q55 0 88 -21l-14 -248q-24 9 -72 9z" />
    <glyph glyph-name="franc" unicode="&#x20a3;" horiz-adv-x="923" 
d="M483 1016h285v-176h-285v-115h285v-176h-285v-549h-276v549h-125v176h125v115h-125v176h125v549h667v-248h-391v-301z" />
    <glyph glyph-name="lira" unicode="&#x20a4;" horiz-adv-x="1134" 
d="M793 512h-287v-264h551v-248h-975v248h154v264h-154v176h154v115h-154v178h154v188q0 62 4 108.5t14.5 92t29.5 77.5t49.5 60t73 44.5t101.5 26t135 9.5q105 0 179 -18.5t118.5 -50t69.5 -86.5t33.5 -115t9.5 -148l-271 -34q0 52 -2.5 83.5t-10 61.5t-22.5 45.5t-40.5 25
t-63.5 9.5q-37 0 -62 -9.5t-40 -25t-22.5 -45.5t-10 -61.5t-2.5 -83.5v-154h287v-178h-287v-115h287v-176z" />
    <glyph glyph-name="uni20A6" unicode="&#x20a6;" horiz-adv-x="1310" 
d="M522 1565l187 -549h157v549h248v-549h125v-176h-125v-115h125v-176h-125v-549h-313l-189 549h-155v-549h-250v549h-125v176h125v115h-125v176h125v549h315zM809 702v23h59l-2 115h-100zM512 840h-59l2 -115h98l-41 135v-20zM449 1067v-51h14zM872 498l-2 51h-14z" />
    <glyph glyph-name="peseta" unicode="&#x20a7;" horiz-adv-x="2469" 
d="M1991 184q78 0 109.5 34.5t31.5 103.5t-37 95.5t-125 41.5q-79 10 -129 20.5t-98.5 32t-74.5 54t-42 85t-16 125.5q0 332 395 332q120 0 195 -17.5t115.5 -60t54.5 -97.5t14 -145l-266 -34q0 76 -23 111.5t-86 35.5q-59 0 -82.5 -31.5t-23.5 -95.5q0 -62 30 -87.5
t107 -39.5q56 -7 93.5 -13t80.5 -17.5t70.5 -26t54.5 -38t42 -54t24.5 -73.5t9.5 -97q0 -186 -110 -268.5t-318 -82.5q-222 0 -299 68q-95 -68 -258 -68q-176 0 -257 76.5t-81 222.5v584h-125q-18 -96 -57.5 -161t-96.5 -99t-119 -47.5t-141 -13.5h-160v-539h-278v1565h438
q74 0 132.5 -11.5t114.5 -43t94 -84t62 -139t27 -202.5h109v287l268 4v-291h196v-225h-196v-549q0 -56 31 -80t92 -24q89 0 137 51v53l240 29q0 -80 26 -118t105 -38zM393 786h146q87 0 125 59t38 208q0 146 -38 205t-125 59h-146v-531z" />
    <glyph glyph-name="uni20A8" unicode="&#x20a8;" horiz-adv-x="1904" 
d="M393 567v-567h-278v1565h438q75 0 136 -13t117 -47.5t94 -89.5t60.5 -143.5t22.5 -204.5q0 -349 -195 -451q147 -432 482 -432q77 0 131.5 6.5t86.5 17t50 29t23.5 38t5.5 47.5q0 69 -37 95.5t-125 41.5q-66 8 -109.5 16.5t-88.5 23.5t-72 36.5t-49.5 54.5t-32 79
t-9.5 107q0 332 396 332q120 0 195 -17.5t115.5 -60t54.5 -97.5t14 -145l-267 -34q0 76 -22.5 111.5t-85.5 35.5q-59 0 -83 -31.5t-24 -95.5q0 -62 30 -87.5t108 -39.5q56 -7 93.5 -13t80 -17.5t70 -26t54.5 -38t42.5 -54t24.5 -73.5t9 -97q0 -192 -134 -271.5t-451 -79.5
q-132 0 -237.5 28.5t-180 77t-133.5 125.5t-98 161.5t-74 197.5h-148zM393 815h146q86 0 124.5 57.5t38.5 194.5q0 136 -38.5 193t-124.5 57h-146v-502z" />
    <glyph glyph-name="uni20A9" unicode="&#x20a9;" horiz-adv-x="1576" 
d="M940 -14l-72 563h-161l-70 -563h-350l-58 563h-147v176h129l-12 115h-117v176h98l-57 549h262l41 -549h141l76 549h291l74 -549h141l43 549h262l-57 -549h98v-176h-117l-12 -115h129v-176h-147l-58 -563h-350zM788 1206l-61 -481h121zM1114 549v176h14l9 115h-105
l68 -488zM463 549h-2l16 -197l66 488h-103l9 -115h14v-176z" />
    <glyph glyph-name="uni20AA" unicode="&#x20aa;" horiz-adv-x="1286" 
d="M115 1565h321q393 0 393 -375v-856h-141v848q0 75 -35.5 110t-109.5 35h-178v-1327h-250v1565zM778 0h-323v1231h143v-993h178q74 0 110 35.5t36 109.5v1182h249v-1190q0 -375 -393 -375z" />
    <glyph glyph-name="Euro" unicode="&#x20ac;" horiz-adv-x="1120" 
d="M772 715l-49 -178h-264q9 -179 47 -249.5t131 -70.5q90 0 123.5 45.5t36.5 165.5l274 -35q0 -112 -18 -186t-64.5 -128t-129.5 -78t-210 -24q-240 0 -341.5 124t-121.5 436h-133v178h127v135h-127v178h133q20 311 121.5 435t341.5 124q127 0 210 -24t129.5 -78t64.5 -128
t18 -186l-274 -34q-3 120 -36.5 165.5t-123.5 45.5q-92 0 -130.5 -71t-47.5 -249h403l-49 -178h-358v-135h317z" />
    <glyph glyph-name="uni20AE" unicode="&#x20ae;" horiz-adv-x="866" 
d="M135 471l160 88v119l-160 -88v176l160 88v463h-232v248h742v-248h-234v-309l174 96v-178l-174 -97v-118l174 96v-176l-174 -96v-535h-276v383l-160 -88v176z" />
    <glyph glyph-name="uni20B1" unicode="&#x20b1;" horiz-adv-x="1275" 
d="M1196 805h-141q-17 -68 -47 -119.5t-67.5 -84t-85.5 -53t-97 -28.5t-107 -8h-162v-512h-276v805h-131v176h131v115h-131v176h131v293h438q73 0 133 -14t115 -45.5t95 -90.5t61 -143h141v-176h-117q2 -18 2 -58q0 -39 -2 -57h117v-176zM489 772h148q63 0 99.5 31t51.5 104
v74h9q2 16 2 57q0 40 -2 58h-9v71q-15 72 -51.5 104t-99.5 32h-148v-531z" />
    <glyph glyph-name="afii61289" unicode="&#x2113;" horiz-adv-x="886" 
d="M559 -29q-191 0 -281 75t-110 218v88q-17 -10 -42.5 -26.5t-43.5 -28t-23 -14.5v229l101 76v477q0 149 26.5 254.5t76 164t110.5 84t139 25.5q283 0 283 -331q0 -382 -359 -732v-180q0 -73 30 -100.5t101 -32.5q81 -7 166 39l23 -252q-92 -33 -197 -33zM436 1157v-285
q58 71 101 179t43 215q0 94 -62 94q-82 0 -82 -203z" />
    <glyph glyph-name="published" unicode="&#x2117;" horiz-adv-x="1884" 
d="M113 799q0 168 65.5 321.5t176.5 264t264.5 176t322.5 65.5q168 0 321.5 -65.5t264 -176t176 -264t65.5 -321.5q0 -169 -65.5 -322.5t-176 -264t-264 -176t-321.5 -65.5q-169 0 -322.5 65.5t-264.5 176t-176.5 264t-65.5 322.5zM823 598h213q75 0 138.5 21t114 63.5
t79.5 113.5t29 165t-29 165.5t-79.5 113.5t-114 62.5t-138.5 20.5h-458v-1049h245v324zM1028 838h-205v245h205q119 0 119 -122q0 -66 -33 -94.5t-86 -28.5z" />
    <glyph glyph-name="servicemark" unicode="&#x2120;" horiz-adv-x="1265" 
d="M977 1044h-139l-86 256l-23 68l2 -76v-248h-151v553h208l95 -282l24 -80l25 80l94 282h209v-553h-152v248l2 76l-22 -68zM283 1034q-119 0 -177.5 46.5t-64.5 148.5l145 12q3 -78 97 -74q88 3 88 50q0 24 -18.5 33t-73.5 14q-40 4 -67.5 8t-59.5 15t-51 28t-31.5 45
t-12.5 67q0 92 61 136.5t163 44.5q117 0 171 -45t60 -138l-145 -10q-6 65 -86 62q-72 -4 -72 -43q0 -22 14 -30.5t64 -12.5q41 -4 65 -7t55 -10t48 -18.5t34 -29t24 -44.5t7 -63q0 -91 -68 -138t-169 -47z" />
    <glyph glyph-name="trademark" unicode="&#x2122;" horiz-adv-x="1251" 
d="M963 1044h-140l-86 256l-22 68l2 -76v-248h-152v553h209l94 -282l25 -80l25 80l94 282h209v-553h-152v248l2 76l-22 -68zM340 1456v-412h-147v412h-162v141h471v-141h-162z" />
    <glyph glyph-name="ohm" unicode="&#x2126;" horiz-adv-x="1474" 
d="M737 1341q-183 0 -285 -111.5t-102 -305.5q0 -113 26.5 -219.5t73 -193.5t100.5 -156t118 -128v-227h-609v252h162l170 -4q-133 143 -220 328t-87 382q0 284 175 459.5t478 175.5t478.5 -175.5t175.5 -459.5q0 -197 -87 -381.5t-221 -328.5l170 4h162v-252h-608v227
q64 59 117.5 128t100 156t73 193.5t26.5 219.5q0 194 -102 305.5t-285 111.5z" />
    <glyph glyph-name="estimated" unicode="&#x212e;" horiz-adv-x="1699" 
d="M1649 696h-1287q7 -119 36 -213t85 -171t150 -119t221 -43q231 -1 370 97t171 283h223q-21 -144 -84.5 -252t-164 -174.5t-230 -99.5t-289.5 -33q-175 0 -323 57.5t-253 162t-164 257.5t-59 338q0 246 101.5 432.5t282.5 286t415 99.5t415 -99.5t282.5 -286t101.5 -432.5
v-90zM852 1427q-102 0 -183.5 -28.5t-135.5 -77.5t-91.5 -120t-55.5 -149.5t-24 -172.5h975q-5 93 -23.5 172t-55.5 149.5t-91 120t-134.5 78t-180.5 28.5z" />
    <glyph glyph-name="uni2153" unicode="&#x2153;" horiz-adv-x="1550" 
d="M528 748h-458v170h135v389q-50 -53 -148 -74v192q60 17 112 60.5t75 91.5h149v-659h135v-170zM268 0l801 1565h213l-801 -1565h-213zM1262 154q32 0 42.5 22t10.5 72q0 51 -14 68.5t-50 17.5h-57v168h57q24 0 31.5 15t7.5 63q0 52 -7 68t-32 16q-27 0 -34 -22.5t-7 -96.5
l-184 22q1 73 11 119.5t35 80t69 48t112 14.5q120 0 173 -51t53 -178q0 -81 -16.5 -118.5t-53.5 -57.5q49 -12 72.5 -56.5t23.5 -138.5q0 -118 -55.5 -179.5t-194.5 -61.5q-61 0 -104 12.5t-69 33t-40.5 56.5t-19 74t-4.5 94l184 25q0 -75 13 -102t47 -27z" />
    <glyph glyph-name="uni2154" unicode="&#x2154;" horiz-adv-x="1550" 
d="M291 1411q-22 0 -31.5 -26.5t-9.5 -102.5l-191 25q1 61 5 98.5t17.5 74t39.5 55.5t69 30.5t107 11.5q128 0 175.5 -50t47.5 -177q0 -46 -6 -78t-15 -55.5t-34.5 -49t-49.5 -44.5t-75 -56q-60 -43 -76 -71.5t-16 -77.5h278v-170h-477q0 63 0.5 96.5t3.5 75.5t7 62.5
t14.5 49t22.5 44t33.5 38t45.5 41t60 43.5q55 37 74.5 64t19.5 73q0 43 -7.5 59.5t-31.5 16.5zM268 0l801 1565h213l-801 -1565h-213zM1262 154q32 0 42.5 22t10.5 72q0 51 -14 68.5t-50 17.5h-57v168h57q24 0 31.5 15t7.5 63q0 52 -7 68t-32 16q-27 0 -34 -22.5t-7 -96.5
l-184 22q1 73 11 119.5t35 80t69 48t112 14.5q120 0 173 -51t53 -178q0 -81 -16.5 -118.5t-53.5 -57.5q49 -12 72.5 -56.5t23.5 -138.5q0 -118 -55.5 -179.5t-194.5 -61.5q-61 0 -104 12.5t-69 33t-40.5 56.5t-19 74t-4.5 94l184 25q0 -75 13 -102t47 -27z" />
    <glyph glyph-name="uni2155" unicode="&#x2155;" horiz-adv-x="1550" 
d="M528 748h-458v170h135v389q-50 -53 -148 -74v192q60 17 112 60.5t75 91.5h149v-659h135v-170zM268 0l801 1565h213l-801 -1565h-213zM1264 154q29 0 41 27t12 93q0 79 -12 105.5t-43 26.5q-23 0 -44 -17t-30 -45l-158 25l21 448h424v-172h-258l-7 -135q48 57 123 57
q87 0 130.5 -65.5t43.5 -227.5q0 -160 -59 -223t-191 -63q-133 0 -185 56.5t-52 199.5l190 24q1 -72 11.5 -93t42.5 -21z" />
    <glyph glyph-name="uni2156" unicode="&#x2156;" horiz-adv-x="1550" 
d="M291 1411q-22 0 -31.5 -26.5t-9.5 -102.5l-191 25q1 61 5 98.5t17.5 74t39.5 55.5t69 30.5t107 11.5q128 0 175.5 -50t47.5 -177q0 -46 -6 -78t-15 -55.5t-34.5 -49t-49.5 -44.5t-75 -56q-60 -43 -76 -71.5t-16 -77.5h278v-170h-477q0 63 0.5 96.5t3.5 75.5t7 62.5
t14.5 49t22.5 44t33.5 38t45.5 41t60 43.5q55 37 74.5 64t19.5 73q0 43 -7.5 59.5t-31.5 16.5zM268 0l801 1565h213l-801 -1565h-213zM1264 154q29 0 41 27t12 93q0 79 -12 105.5t-43 26.5q-23 0 -44 -17t-30 -45l-158 25l21 448h424v-172h-258l-7 -135q48 57 123 57
q87 0 130.5 -65.5t43.5 -227.5q0 -160 -59 -223t-191 -63q-133 0 -185 56.5t-52 199.5l190 24q1 -72 11.5 -93t42.5 -21z" />
    <glyph glyph-name="uni2157" unicode="&#x2157;" horiz-adv-x="1550" 
d="M287 901q32 0 42.5 22t10.5 72q0 51 -14 68.5t-50 17.5h-57v168h57q24 0 31.5 15t7.5 63q0 52 -7 68t-32 16q-27 0 -33.5 -22.5t-6.5 -96.5l-185 23q1 72 11 119t35.5 80.5t69.5 48t112 14.5q120 0 172.5 -50.5t52.5 -178.5q0 -81 -16.5 -119t-53.5 -58q49 -13 72.5 -57
t23.5 -137q0 -118 -55 -180t-194 -62q-76 0 -124.5 17.5t-72.5 55.5t-32.5 83t-8.5 115l184 24q0 -75 13 -102t47 -27zM268 0l801 1565h213l-801 -1565h-213zM1264 154q29 0 41 27t12 93q0 79 -12 105.5t-43 26.5q-23 0 -44 -17t-30 -45l-158 25l21 448h424v-172h-258
l-7 -135q48 57 123 57q87 0 130.5 -65.5t43.5 -227.5q0 -160 -59 -223t-191 -63q-133 0 -185 56.5t-52 199.5l190 24q1 -72 11.5 -93t42.5 -21z" />
    <glyph glyph-name="uni2158" unicode="&#x2158;" horiz-adv-x="1550" 
d="M539 920h-58v-172h-182v172h-262v139l231 518h213v-487h58v-170zM299 1090l10 260l-104 -265zM268 0l801 1565h213l-801 -1565h-213zM1264 154q29 0 41 27t12 93q0 79 -12 105.5t-43 26.5q-23 0 -44 -17t-30 -45l-158 25l21 448h424v-172h-258l-7 -135q48 57 123 57
q87 0 130.5 -65.5t43.5 -227.5q0 -160 -59 -223t-191 -63q-133 0 -185 56.5t-52 199.5l190 24q1 -72 11.5 -93t42.5 -21z" />
    <glyph glyph-name="uni2159" unicode="&#x2159;" horiz-adv-x="1550" 
d="M528 748h-458v170h135v389q-50 -53 -148 -74v192q60 17 112 60.5t75 91.5h149v-659h135v-170zM268 0l801 1565h213l-801 -1565h-213zM1262 668q-29 0 -36 -33t-7 -152q42 78 131 78q88 0 118.5 -63t30.5 -219q0 -153 -52.5 -222t-184.5 -69q-62 0 -103.5 15.5t-68 44
t-40.5 82t-19 116.5t-5 162q0 76 3 128.5t12 104t26 83.5t44.5 57.5t67.5 36.5t95 11q122 0 168 -49.5t49 -167.5l-191 -24q-2 51 -7.5 65.5t-30.5 14.5zM1272 397q-4 0 -8 -0.5t-7 -1.5t-6 -3t-5 -3.5t-5 -5.5t-4 -5.5t-4 -7.5l-4 -8t-5 -9.5t-5 -10.5q0 -107 9.5 -149.5
t33.5 -42.5q11 0 19 2.5t13 10.5t7.5 15t4 24.5t1.5 30v39.5q0 69 -7 97t-28 28z" />
    <glyph glyph-name="uni215A" unicode="&#x215a;" horiz-adv-x="1550" 
d="M289 901q29 0 41 27.5t12 93.5q0 79 -12 105t-43 26q-24 0 -44.5 -17t-29.5 -44l-158 24l21 449h424v-172h-258l-6 -136q26 31 53.5 44.5t68.5 13.5q87 0 130.5 -65.5t43.5 -227.5q0 -160 -58.5 -223.5t-190.5 -63.5q-133 0 -185.5 56.5t-52.5 199.5l191 25
q1 -72 11.5 -93.5t41.5 -21.5zM268 0l801 1565h213l-801 -1565h-213zM1262 668q-29 0 -36 -33t-7 -152q42 78 131 78q88 0 118.5 -63t30.5 -219q0 -153 -52.5 -222t-184.5 -69q-62 0 -103.5 15.5t-68 44t-40.5 82t-19 116.5t-5 162q0 76 3 128.5t12 104t26 83.5t44.5 57.5
t67.5 36.5t95 11q122 0 168 -49.5t49 -167.5l-191 -24q-2 51 -7.5 65.5t-30.5 14.5zM1272 397q-4 0 -8 -0.5t-7 -1.5t-6 -3t-5 -3.5t-5 -5.5t-4 -5.5t-4 -7.5l-4 -8t-5 -9.5t-5 -10.5q0 -107 9.5 -149.5t33.5 -42.5q11 0 19 2.5t13 10.5t7.5 15t4 24.5t1.5 30v39.5
q0 69 -7 97t-28 28z" />
    <glyph glyph-name="uni215B" unicode="&#x215b;" horiz-adv-x="1550" 
d="M528 748h-458v170h135v389q-50 -53 -148 -74v192q60 17 112 60.5t75 91.5h149v-659h135v-170zM268 0l801 1565h213l-801 -1565h-213zM1264 659q-27 0 -38.5 -17t-11.5 -62q0 -84 50 -84q47 0 47 84q0 45 -11 62t-36 17zM1264 342q-36 0 -52 -18.5t-16 -75.5q0 -48 15 -70
t53 -22q37 0 51 22t14 70q0 57 -15.5 75.5t-49.5 18.5zM1264 -12q-74 0 -124.5 15.5t-78 47.5t-38.5 72t-11 96q0 164 88 207q-34 15 -53 62.5t-19 113.5q0 124 53 175.5t183 51.5q128 0 180.5 -51.5t52.5 -175.5q0 -66 -19 -113.5t-53 -62.5q88 -42 88 -207
q0 -115 -53.5 -173t-195.5 -58z" />
    <glyph glyph-name="uni215C" unicode="&#x215c;" horiz-adv-x="1550" 
d="M287 901q32 0 42.5 22t10.5 72q0 51 -14 68.5t-50 17.5h-57v168h57q24 0 31.5 15t7.5 63q0 52 -7 68t-32 16q-27 0 -33.5 -22.5t-6.5 -96.5l-185 23q1 72 11 119t35.5 80.5t69.5 48t112 14.5q120 0 172.5 -50.5t52.5 -178.5q0 -81 -16.5 -119t-53.5 -58q49 -13 72.5 -57
t23.5 -137q0 -118 -55 -180t-194 -62q-76 0 -124.5 17.5t-72.5 55.5t-32.5 83t-8.5 115l184 24q0 -75 13 -102t47 -27zM268 0l801 1565h213l-801 -1565h-213zM1264 659q-27 0 -38.5 -17t-11.5 -62q0 -84 50 -84q47 0 47 84q0 45 -11 62t-36 17zM1264 342q-36 0 -52 -18.5
t-16 -75.5q0 -48 15 -70t53 -22q37 0 51 22t14 70q0 57 -15.5 75.5t-49.5 18.5zM1264 -12q-74 0 -124.5 15.5t-78 47.5t-38.5 72t-11 96q0 164 88 207q-34 15 -53 62.5t-19 113.5q0 124 53 175.5t183 51.5q128 0 180.5 -51.5t52.5 -175.5q0 -66 -19 -113.5t-53 -62.5
q88 -42 88 -207q0 -115 -53.5 -173t-195.5 -58z" />
    <glyph glyph-name="uni215D" unicode="&#x215d;" horiz-adv-x="1550" 
d="M289 901q29 0 41 27.5t12 93.5q0 79 -12 105t-43 26q-24 0 -44.5 -17t-29.5 -44l-158 24l21 449h424v-172h-258l-6 -136q26 31 53.5 44.5t68.5 13.5q87 0 130.5 -65.5t43.5 -227.5q0 -160 -58.5 -223.5t-190.5 -63.5q-133 0 -185.5 56.5t-52.5 199.5l191 25
q1 -72 11.5 -93.5t41.5 -21.5zM268 0l801 1565h213l-801 -1565h-213zM1264 659q-27 0 -38.5 -17t-11.5 -62q0 -84 50 -84q47 0 47 84q0 45 -11 62t-36 17zM1264 342q-36 0 -52 -18.5t-16 -75.5q0 -48 15 -70t53 -22q37 0 51 22t14 70q0 57 -15.5 75.5t-49.5 18.5zM1264 -12
q-74 0 -124.5 15.5t-78 47.5t-38.5 72t-11 96q0 164 88 207q-34 15 -53 62.5t-19 113.5q0 124 53 175.5t183 51.5q128 0 180.5 -51.5t52.5 -175.5q0 -66 -19 -113.5t-53 -62.5q88 -42 88 -207q0 -115 -53.5 -173t-195.5 -58z" />
    <glyph glyph-name="uni215E" unicode="&#x215e;" horiz-adv-x="1468" 
d="M322 748h-203l168 499l53 148l-115 -2h-184v172h498v-113zM186 0l801 1565h213l-801 -1565h-213zM1182 659q-27 0 -38 -17t-11 -62q0 -84 49 -84q47 0 47 84q0 45 -11 62t-36 17zM1182 342q-36 0 -52 -18.5t-16 -75.5q0 -48 15 -70t53 -22q37 0 51 22t14 70
q0 57 -15.5 75.5t-49.5 18.5zM1182 -12q-74 0 -124.5 15.5t-78 47.5t-38.5 72t-11 96q0 164 88 207q-34 15 -53 62.5t-19 113.5q0 124 53 175.5t183 51.5q128 0 180.5 -51.5t52.5 -175.5q0 -66 -19 -113.5t-53 -62.5q89 -42 89 -207q0 -115 -54 -173t-196 -58z" />
    <glyph glyph-name="uni215F" unicode="&#x215f;" horiz-adv-x="1015" 
d="M528 748h-458v170h135v389q-50 -53 -148 -74v192q60 17 112 60.5t75 91.5h149v-659h135v-170zM268 0l801 1565h213l-801 -1565h-213z" />
    <glyph glyph-name="arrowleft" unicode="&#x2190;" horiz-adv-x="1802" 
d="M973 453v-310l-899 568v176l899 567v-309l-256 -148l-129 -73l332 6h780v-262h-780l-332 6l129 -74z" />
    <glyph glyph-name="arrowup" unicode="&#x2191;" horiz-adv-x="1802" 
d="M555 729h-309l567 897h176l567 -897h-309l-147 254l-74 131l6 -332v-782h-262v782l6 332l-74 -131z" />
    <glyph glyph-name="arrowright" unicode="&#x2192;" horiz-adv-x="1802" 
d="M829 143v310l256 147l129 74l-331 -6h-781v262h781l331 -6l-129 73l-256 148v309l900 -567v-176z" />
    <glyph glyph-name="arrowdown" unicode="&#x2193;" horiz-adv-x="1802" 
d="M1247 870h309l-567 -899h-176l-567 899h309l147 -256l74 -131l-6 332v782h262v-782l-6 -332l74 131z" />
    <glyph glyph-name="uni2196" unicode="&#x2196;" horiz-adv-x="1802" 
d="M512 684l-219 -219l-234 1036l125 125l1037 -233l-220 -217l-282 75l-146 39l238 -229l553 -553l-186 -186l-551 552l-230 240l39 -145z" />
    <glyph glyph-name="uni2197" unicode="&#x2197;" horiz-adv-x="1802" 
d="M1509 465l-219 219l76 285l39 145l-229 -240l-551 -552l-187 186l553 553l238 229l-146 -39l-282 -75l-219 217l1036 233l125 -125z" />
    <glyph glyph-name="uni2198" unicode="&#x2198;" horiz-adv-x="1802" 
d="M1290 928l219 219l234 -1038l-125 -123l-1036 233l219 217l282 -76l146 -38l-238 229l-553 553l187 186l551 -553l229 -239l-39 145z" />
    <glyph glyph-name="uni2199" unicode="&#x2199;" horiz-adv-x="1802" 
d="M293 1147l219 -219l-76 -285l-39 -145l230 239l551 553l186 -186l-553 -553l-238 -229l146 38l282 76l220 -217l-1037 -233l-125 123z" />
    <glyph glyph-name="partialdiff" unicode="&#x2202;" horiz-adv-x="1492" 
d="M170 1466q229 150 508 150q335 0 516.5 -218t181.5 -614q0 -411 -156 -612t-489 -201q-175 0 -309.5 60t-213.5 183.5t-79 295.5q0 268 141 403.5t410 135.5q54 0 111.5 -11t116 -33.5t108.5 -64.5t78 -98v43q5 124 -27 219t-92 150.5t-134.5 83.5t-160.5 30
q-213 0 -391 -121zM709 801q-134 -2 -213.5 -72.5t-79.5 -218.5q0 -144 89.5 -215.5t225.5 -73.5q265 -6 328 230q2 8 2 20q7 159 -94.5 245.5t-257.5 84.5z" />
    <glyph glyph-name="increment" unicode="&#x2206;" horiz-adv-x="1802" 
d="M127 0v127l698 1458h152l698 -1458v-127h-1548zM983 979l-82 180l-82 -180l-346 -729l170 4h516l170 -2z" />
    <glyph glyph-name="product" unicode="&#x220f;" horiz-adv-x="1648" 
d="M1077 1311h-506v-1311h-288v1311h-205v254h1491v-254h-205v-1311h-287v1311z" />
    <glyph glyph-name="summation" unicode="&#x2211;" horiz-adv-x="1425" 
d="M156 1325v240h1132v-254h-379l-301 2l496 -422v-180l-518 -459l303 2h436v-254h-1204v227l670 574z" />
    <glyph glyph-name="minus" unicode="&#x2212;" horiz-adv-x="1474" 
d="M1290 662h-1106v274h1106v-274z" />
    <glyph glyph-name="radical" unicode="&#x221a;" horiz-adv-x="1744" 
d="M791 504l600 1061h315l-907 -1571h-305l-193 805l-227 -49v266l432 98l131 -598l47 -217z" />
    <glyph glyph-name="infinity" unicode="&#x221e;" horiz-adv-x="1679" 
d="M719 799q-32 42 -57.5 68t-71 51t-96.5 28q-69 2 -113.5 -35t-44.5 -112t44 -111.5t114 -36.5q39 2 73 15.5t62.5 37t47 44t42.5 51.5zM840 635q-75 -86 -157.5 -135t-186.5 -49q-169 0 -268 89.5t-99 258.5t99 258.5t268 89.5q104 0 186.5 -49t157.5 -135
q155 184 344 184q169 0 267.5 -89.5t98.5 -258.5t-98.5 -258.5t-267.5 -89.5q-189 0 -344 184zM961 799q24 -31 42.5 -51.5t47 -44t62.5 -37t73 -15.5q69 -2 113 35t44 113q0 75 -43.5 111t-113.5 36q-51 -3 -96.5 -28t-71 -51t-57.5 -68z" />
    <glyph glyph-name="integral" unicode="&#x222b;" horiz-adv-x="585" 
d="M432 1221v-1254q0 -405 -428 -405q-112 0 -197 32l23 252q84 -46 166 -39q80 5 119 43t39 134v1255q0 406 430 406q113 0 194 -35l-22 -252q-28 18 -74 31.5t-90 9.5q-80 -5 -120 -43t-40 -135z" />
    <glyph glyph-name="approxequal" unicode="&#x2248;" horiz-adv-x="1474" 
d="M1006 795q-72 0 -134.5 12.5t-109 30t-90.5 35t-98 30t-113 12.5q-54 0 -108.5 -25.5t-82.5 -51.5l-28 -25l-117 201q5 7 15 18t43.5 39.5t70.5 50.5t96 40t121 18q87 0 164.5 -19t125 -41.5t116 -41.5t139.5 -19q54 0 108.5 25.5t82.5 51.5l28 25l117 -200
q-5 -7 -15 -18t-43.5 -39.5t-70.5 -50.5t-96 -40t-121 -18zM471 813q87 0 164.5 -19t125 -41.5t116 -41.5t139.5 -19q54 0 108.5 26t82.5 52l28 25l117 -201q-5 -7 -15 -18t-43.5 -39.5t-70.5 -50.5t-96 -40t-121 -18q-87 0 -164.5 19t-125 41.5t-116 41.5t-139.5 19
q-34 0 -69 -10.5t-60.5 -25.5t-46.5 -30.5t-32 -26.5l-11 -10l-117 201q5 7 15 18t43.5 39.5t70.5 50.5t96 40t121 18z" />
    <glyph glyph-name="notequal" unicode="&#x2260;" horiz-adv-x="1474" 
d="M1290 426h-669l-80 -127h-234l80 127h-203v274h375l123 197h-498v274h670l80 127h233l-80 -127h203v-274h-375l-122 -197h497v-274z" />
    <glyph glyph-name="equivalence" unicode="&#x2261;" horiz-adv-x="1474" 
d="M1290 246h-1106v274h1106v-274zM1290 1077h-1106v275h1106v-275zM1290 662h-1106v274h1106v-274z" />
    <glyph glyph-name="lessequal" unicode="&#x2264;" horiz-adv-x="1474" 
d="M1290 178l-1106 348v195l1106 -340v-203zM184 813v252l1106 340v-299l-481 -109l-256 -55l256 -41l481 -92v-299z" />
    <glyph glyph-name="greaterequal" unicode="&#x2265;" horiz-adv-x="1474" 
d="M1290 526l-1106 -348v203l1106 340v-195zM1290 1065v-252l-1106 -303v299l482 92l256 41l-256 55l-482 109v299z" />
    <glyph glyph-name="squaremultiply" unicode="&#x22a0;" horiz-adv-x="2039" 
d="M221 0v1597h1598v-1597h-1598zM1542 1329h-1044v-1061h1044v1061zM537 502l297 297l-297 297l186 186l297 -297l297 297l186 -186l-297 -297l297 -297l-186 -187l-297 297l-297 -297z" />
    <glyph glyph-name="house" unicode="&#x2302;" horiz-adv-x="1781" 
d="M1618 0h-1454v922l727 696l727 -696v-922z" />
    <glyph glyph-name="blacksquare" unicode="&#x25a0;" horiz-adv-x="2039" 
d="M1819 1597v-1597h-1598v1597h1598z" />
    <glyph glyph-name="whitesquare" unicode="&#x25a1;" horiz-adv-x="2039" 
d="M221 0v1597h1598v-1597h-1598zM1542 1329h-1044v-1061h1044v1061z" />
    <glyph glyph-name="blacksmallsquare" unicode="&#x25aa;" horiz-adv-x="1527" 
d="M1307 1085v-1085h-1086v1085h1086z" />
    <glyph glyph-name="whitesmallsquare" unicode="&#x25ab;" horiz-adv-x="1527" 
d="M221 0v1085h1086v-1085h-1086zM1030 817h-532v-549h532v549z" />
    <glyph glyph-name="triagup" unicode="&#x25b2;" horiz-adv-x="1679" 
d="M1638 0h-1597l799 1384z" />
    <glyph glyph-name="triagrt" unicode="&#x25ba;" horiz-adv-x="1679" 
d="M90 0v1597l1385 -798z" />
    <glyph glyph-name="triagdn" unicode="&#x25bc;" horiz-adv-x="1679" 
d="M41 1597h1597l-798 -1384z" />
    <glyph glyph-name="triaglf" unicode="&#x25c4;" horiz-adv-x="1679" 
d="M1475 1597v-1597l-1385 799z" />
    <glyph glyph-name="lozenge" unicode="&#x25ca;" horiz-adv-x="1884" 
d="M942 -20l-754 819l754 819l754 -819zM547 799l395 -439l395 439l-395 438z" />
    <glyph glyph-name="whitecircle" unicode="&#x25cb;" horiz-adv-x="2031" 
d="M1024 264q144 0 265.5 71.5t192 194.5t70.5 269t-70.5 269t-192 194t-265.5 71t-265.5 -71t-192 -194t-70.5 -269t70.5 -269t192 -194.5t265.5 -71.5zM1024 -29q-168 0 -321.5 65.5t-264 176.5t-176 264.5t-65.5 321.5t65.5 321.5t176 264t264 176t321.5 65.5
t321.5 -65.5t264 -176t176 -264t65.5 -321.5t-65.5 -321.5t-176 -264.5t-264 -176.5t-321.5 -65.5z" />
    <glyph glyph-name="whitecircle" unicode="&#x25ef;" horiz-adv-x="2031" 
d="M1024 264q144 0 265.5 71.5t192 194.5t70.5 269t-70.5 269t-192 194t-265.5 71t-265.5 -71t-192 -194t-70.5 -269t70.5 -269t192 -194.5t265.5 -71.5zM1024 -29q-168 0 -321.5 65.5t-264 176.5t-176 264.5t-65.5 321.5t65.5 321.5t176 264t264 176t321.5 65.5
t321.5 -65.5t264 -176t176 -264t65.5 -321.5t-65.5 -321.5t-176 -264.5t-264 -176.5t-321.5 -65.5z" />
    <glyph glyph-name="bullseye" unicode="&#x25ce;" horiz-adv-x="2007" 
d="M184 799q0 167 65 318.5t174.5 261t261.5 174.5t319 65t318.5 -65t261 -174.5t174.5 -261t65 -318.5t-65 -318.5t-174.5 -261t-261 -174.5t-318.5 -65t-319 65t-261.5 174.5t-174.5 261t-65 318.5zM696 799q0 127 90 217t218 90t217.5 -90t89.5 -217t-89.5 -217
t-217.5 -90t-218 90t-90 217zM342 694q0 -152 74.5 -280t202.5 -202.5t280 -74.5t280.5 74t203.5 202.5t75 280.5q0 114 -44 217.5t-119 178.5t-178.5 119t-217.5 44q-152 0 -280.5 -75t-202.5 -203.5t-74 -280.5z" />
    <glyph glyph-name="blackcircle" unicode="&#x25cf;" horiz-adv-x="2048" 
d="M197 799q0 168 65.5 321.5t176 264t264 176t321.5 65.5t321.5 -65.5t264 -176t176 -264t65.5 -321.5t-65.5 -321.5t-176 -264.5t-264 -176.5t-321.5 -65.5t-321.5 65.5t-264 176.5t-176 264.5t-65.5 321.5z" />
    <glyph glyph-name="uni25E2" unicode="&#x25e2;" horiz-adv-x="1679" 
d="M74 414l1130 1130l414 -1544z" />
    <glyph glyph-name="uni25E3" unicode="&#x25e3;" horiz-adv-x="1679" 
d="M475 1544l1131 -1130l-1545 -414z" />
    <glyph glyph-name="uni25E4" unicode="&#x25e4;" horiz-adv-x="1679" 
d="M1606 1184l-1131 -1131l-414 1544z" />
    <glyph glyph-name="uni25E5" unicode="&#x25e5;" horiz-adv-x="1679" 
d="M1204 53l-1130 1131l1544 413z" />
    <glyph glyph-name="uni2605" unicode="&#x2605;" horiz-adv-x="1843" 
d="M922 369l-533 -389l203 628l-533 387h660l203 627l202 -627h660l-533 -387l203 -628z" />
    <glyph glyph-name="ballotboxwithx" unicode="&#x2612;" horiz-adv-x="1536" 
d="M1311 1085v-1085h-1086v1085h1086zM573 543l-206 -207l194 -195l207 207l207 -207l194 195l-206 207l206 207l-194 194l-207 -207l-207 207l-194 -194z" />
    <glyph glyph-name="uni263C" unicode="&#x263c;" horiz-adv-x="2007" 
d="M1823 799l-346 -62l317 -149l-350 30l270 -229l-332 121l201 -289l-289 201l119 -332l-227 266l31 -348l-152 318l-61 -346l-62 346l-151 -318l30 348l-227 -266l119 332l-289 -201l201 289l-332 -121l270 229l-350 -30l317 149l-346 62l346 61l-317 150l350 -31
l-270 229l332 -121l-201 289l289 -200l-119 331l227 -266l-30 348l151 -317l62 346l61 -346l152 317l-31 -348l227 266l-119 -331l289 200l-201 -289l332 121l-270 -229l350 31l-317 -150z" />
    <glyph glyph-name="uni263E" unicode="&#x263e;" horiz-adv-x="2007" 
d="M1298 1491q-135 0 -258 -54.5t-211.5 -147.5t-141 -221t-52.5 -269t52.5 -269.5t141 -221t211.5 -147.5t258 -55q99 0 197 31q-218 -157 -491 -157q-167 0 -319 65t-261.5 174.5t-174.5 261t-65 318.5t65 318.5t174.5 261t261.5 174.5t319 65q267 0 491 -158
q-109 31 -197 31z" />
    <glyph glyph-name="spade" unicode="&#x2660;" horiz-adv-x="1884" 
d="M944 1618q66 -99 199 -238t278 -233q60 -39 104 -73t90.5 -79t75.5 -90t47.5 -102t18.5 -119q0 -150 -104.5 -253t-255.5 -103q-73 0 -139 27t-116.5 74t-89 104t-65.5 124l-6 -2q17 -209 54.5 -356t113.5 -299h-414q76 152 113.5 299t54.5 356l-6 2q-27 -67 -65.5 -124
t-89 -104t-116.5 -74t-139 -27q-151 0 -255.5 103t-104.5 253q0 62 18.5 119t47.5 102t75.5 90t90.5 79t104 73q145 94 278 233t199 238h4z" />
    <glyph glyph-name="club" unicode="&#x2663;" horiz-adv-x="1884" 
d="M735 0q76 152 113.5 299t54.5 356l-6 2q-27 -67 -65.5 -124t-89 -104t-116.5 -74t-139 -27q-151 0 -255.5 103t-104.5 253q0 161 99 265t257 104q84 0 172 -47l4 4q-77 116 -77 239q0 154 103 261.5t257 107.5t257.5 -107.5t103.5 -261.5q0 -121 -78 -239l4 -4
q88 47 172 47q158 0 257 -104t99 -265q0 -150 -104.5 -253t-255.5 -103q-73 0 -139 27t-116.5 74t-89 104t-65.5 124l-6 -2q17 -209 54.5 -356t113.5 -299h-414z" />
    <glyph glyph-name="heart" unicode="&#x2665;" horiz-adv-x="1884" 
d="M944 -20h-4q-59 89 -193.5 260t-283.5 340q-64 73 -114 136.5t-105 148.5t-86 170t-31 161q0 185 106.5 303.5t284.5 118.5q92 0 163.5 -25.5t120.5 -73t80.5 -100.5t55.5 -123h8q24 70 55.5 123t80.5 100.5t120.5 73t163.5 25.5q178 0 284.5 -118.5t106.5 -303.5
q0 -76 -31 -161t-86 -170t-105 -148.5t-114 -136.5q-149 -169 -283.5 -340t-193.5 -260z" />
    <glyph glyph-name="diamond" unicode="&#x2666;" horiz-adv-x="1884" 
d="M1694 799q-218 -170 -415.5 -386t-334.5 -433h-4q-137 217 -334.5 433t-415.5 386q218 170 415.5 386t334.5 433h4q137 -217 334.5 -433t415.5 -386z" />
    <glyph glyph-name="musicflatsign" unicode="&#x266d;" horiz-adv-x="1048" 
d="M137 -131v1812h172v-702q38 57 119.5 95t161.5 38q198 0 289.5 -101t91.5 -300q0 -137 -70.5 -271.5t-188.5 -242.5t-266 -192.5t-309 -135.5zM309 690v-540q57 24 115.5 58.5t122.5 87t112.5 112.5t80.5 138.5t32 160.5q0 213 -203 213q-92 0 -166 -71t-94 -159z" />
    <glyph glyph-name="musicsharpsign" unicode="&#x266f;" horiz-adv-x="995" 
d="M774 1802v-368l160 129v-263l-160 -129v-301l160 127v-262l-160 -127v-608h-172v469l-209 -168v-506h-172v369l-160 -129v262l160 129v301l-160 -127v262l160 127v608h172v-471l209 168v508h172zM393 864v-301l209 168v301z" />
    <glyph glyph-name="uni267B" unicode="&#x267b;" horiz-adv-x="2007" 
d="M1788 545l2 -4l-197 -342q-41 -60 -60 -77q-44 -38 -120 -38h-117v-100l-231 278l231 277v-101h297q54 0 102.5 27t70.5 53zM401 250h-4l-196 344q-23 42 -31.5 65.5t-5.5 63t29 82.5l57 100l-86 49l356 64l121 -340l-84 49q-143 -246 -147 -256q-17 -29 -24.5 -62.5
t-5.5 -60.5t6.5 -50t9.5 -36zM848 1595v2h395q37 -1 56.5 -3t46 -11t47 -29t39.5 -53l57 -100l88 49l-125 -340l-354 64l84 49l-148 256q-27 47 -73.5 76t-79.5 35zM430 1225l137 243q21 37 70 64q63 34 131.5 30.5t126.5 -33t80 -69.5l-238 -411zM934 84h-277q-43 0 -90 27
q-45 26 -76 70.5t-42.5 91.5t-9 91.5t19.5 73.5h475v-354zM1671 1079l141 -239q21 -38 21 -90q1 -99 -78 -178.5t-151 -79.5l-238 411z" />
    <glyph glyph-name="uni267C" unicode="&#x267c;" horiz-adv-x="2007" 
d="M1823 797q0 -167 -64.5 -318.5t-173.5 -260.5t-260.5 -173.5t-318.5 -64.5q-168 0 -320 64.5t-262 173.5t-175 260.5t-65 318.5q0 168 65 320t175 261.5t262 174.5t320 65q167 0 318.5 -65t260.5 -174.5t173.5 -261.5t64.5 -320zM662 1321l-107 -188l238 -138l184 320
q-17 30 -62 52.5t-98 25.5t-102 -23q-37 -21 -53 -49zM870 1421v-2q4 0 11 -1.5t26.5 -7.5t37 -14.5t38 -26.5t33.5 -40l114 -199l-65 -38l274 -50l97 265l-68 -39l-45 78q-28 49 -59.5 62t-85.5 13h-308zM723 248h215v274h-369q-13 -22 -15 -57t7.5 -71.5t33.5 -71
t58 -54.5q36 -20 70 -20zM530 377h2q-4 10 -9.5 27.5t-5 63t21.5 81.5l114 199l66 -39l-94 264l-277 -49l68 -39l-45 -78q-20 -34 -22.5 -65t4 -48.5t24.5 -50.5zM1626 834l-108 186l-238 -137l184 -320q57 0 118 61.5t60 139.5q0 42 -16 70zM1610 602l-2 2q-2 -3 -6.5 -8.5
t-19.5 -20t-31.5 -25t-42.5 -19.5t-52 -9h-229v78l-180 -215l180 -215v78h90q30 0 52.5 6t38.5 20t25.5 26.5t22.5 35.5z" />
    <glyph glyph-name="uni267D" unicode="&#x267d;" horiz-adv-x="2007" 
d="M1823 797q0 -167 -64.5 -318.5t-173.5 -260.5t-260.5 -173.5t-318.5 -64.5q-168 0 -320 64.5t-262 173.5t-175 260.5t-65 318.5q0 168 65 320t175 261.5t262 174.5t320 65q167 0 318.5 -65t260.5 -174.5t173.5 -261.5t64.5 -320zM1782 797q0 159 -61.5 303.5t-165 249
t-247.5 166t-302 61.5q-159 0 -303.5 -61.5t-249 -166t-166.5 -249t-62 -303.5q0 -212 104.5 -390.5t284 -282.5t392.5 -104q158 0 302 61.5t247.5 165.5t165 248t61.5 302zM555 1133l107 188q16 28 53 49q49 26 102 23t98 -25.5t62 -52.5l-184 -320zM870 1419v2h308
q54 0 85.5 -13t59.5 -62l45 -78l68 39l-97 -265l-274 50l65 38l-114 199q-21 36 -57.5 58.5t-62.5 26.5zM938 248h-215q-34 0 -70 20q-34 20 -58 54.5t-33.5 71t-7.5 71.5t15 57h369v-274zM532 377h-2l-153 266q-18 33 -24.5 50.5t-4 48.5t22.5 65l45 78l-68 39l277 49
l94 -264l-66 39l-114 -199q-21 -36 -22.5 -79t7.5 -68zM1518 1020l108 -186q16 -28 16 -70q1 -78 -60 -139.5t-118 -61.5l-184 320zM1608 604l2 -2l-154 -266q-13 -23 -22.5 -35.5t-25.5 -26.5t-38.5 -20t-52.5 -6h-90v-78l-180 215l180 215v-78h229q26 0 51.5 8.5t43 20.5
t31 24t20.5 21z" />
    <glyph glyph-name="anglebracketleft" unicode="&#x3008;" horiz-adv-x="626" 
d="M575 1700l-217 -983l217 -983h-268l-225 983l225 983h268z" />
    <glyph glyph-name="anglebracketright" unicode="&#x3009;" horiz-adv-x="626" 
d="M270 717l-219 983h268l226 -983l-226 -983h-268z" />
    <glyph glyph-name="aogonek.school" unicode="&#xe150;" horiz-adv-x="1038" 
d="M936 803v-520l8 -283q-92 -13 -149 -63.5t-52 -112.5q3 -38 28.5 -57.5t72.5 -12.5q49 6 90 37l53 -178q-76 -51 -196 -51q-212 0 -244 184q-36 176 149 299l-6 64q-51 -67 -115 -99.5t-155 -32.5q-180 0 -267 137.5t-87 428.5t87 428t267 137q91 0 155 -32t115 -99
l12 108h242zM668 319v447q-78 104 -174 104q-89 0 -120.5 -72.5t-31.5 -254.5t32 -255t120 -73q96 0 174 104z" />
    <glyph glyph-name="a.school" unicode="&#xe151;" horiz-adv-x="1038" 
d="M668 319v447q-78 104 -174 104q-89 0 -120.5 -72.5t-31.5 -254.5t32 -255t120 -73q96 0 174 104zM936 803v-520l8 -283h-242l-12 109q-51 -67 -115 -99.5t-155 -32.5q-180 0 -267 137.5t-87 428.5t87 428t267 137q91 0 155 -32t115 -99l12 108h242z" />
    <glyph glyph-name="agrave.school" unicode="&#xe152;" horiz-adv-x="1038" 
d="M668 319v447q-78 104 -174 104q-89 0 -120.5 -72.5t-31.5 -254.5t32 -255t120 -73q96 0 174 104zM936 803v-520l8 -283h-242l-12 109q-51 -67 -115 -99.5t-155 -32.5q-180 0 -267 137.5t-87 428.5t87 428t267 137q91 0 155 -32t115 -99l12 108h242zM238 1638h303l94 -426
h-273z" />
    <glyph glyph-name="aacute.school" unicode="&#xe153;" horiz-adv-x="1038" 
d="M668 319v447q-78 104 -174 104q-89 0 -120.5 -72.5t-31.5 -254.5t32 -255t120 -73q96 0 174 104zM936 803v-520l8 -283h-242l-12 109q-51 -67 -115 -99.5t-155 -32.5q-180 0 -267 137.5t-87 428.5t87 428t267 137q91 0 155 -32t115 -99l12 108h242zM442 1638h303
l-124 -426h-273z" />
    <glyph glyph-name="acircumflex.school" unicode="&#xe154;" horiz-adv-x="1038" 
d="M668 319v447q-78 104 -174 104q-89 0 -120.5 -72.5t-31.5 -254.5t32 -255t120 -73q96 0 174 104zM936 803v-520l8 -283h-242l-12 109q-51 -67 -115 -99.5t-155 -32.5q-180 0 -267 137.5t-87 428.5t87 428t267 137q91 0 155 -32t115 -99l12 108h242zM371 1212h-221
l190 426h303l191 -426h-222l-120 232z" />
    <glyph glyph-name="adieresis.school" unicode="&#xe155;" horiz-adv-x="1038" 
d="M668 319v447q-78 104 -174 104q-89 0 -120.5 -72.5t-31.5 -254.5t32 -255t120 -73q96 0 174 104zM936 803v-520l8 -283h-242l-12 109q-51 -67 -115 -99.5t-155 -32.5q-180 0 -267 137.5t-87 428.5t87 428t267 137q91 0 155 -32t115 -99l12 108h242zM418 1569v-281h-285
v281h285zM850 1569v-281h-285v281h285z" />
    <glyph glyph-name="atilde.school" unicode="&#xe156;" horiz-adv-x="1038" 
d="M668 319v447q-78 104 -174 104q-89 0 -120.5 -72.5t-31.5 -254.5t32 -255t120 -73q96 0 174 104zM936 803v-520l8 -283h-242l-12 109q-51 -67 -115 -99.5t-155 -32.5q-180 0 -267 137.5t-87 428.5t87 428t267 137q91 0 155 -32t115 -99l12 108h242zM690 1581l193 -22
q-10 -156 -65 -245.5t-165 -88.5q-44 0 -83 15.5t-67 37.5t-52 44t-48.5 37.5t-46.5 16.5q-58 2 -65 -99v-5l-193 22q10 156 65 245.5t165 88.5q43 0 82 -15.5t67 -38t52 -44.5t48 -37.5t46 -15.5q15 0 26.5 6t18 13t11 22t6 22t3.5 23.5t2 17.5z" />
    <glyph glyph-name="aring.school" unicode="&#xe157;" horiz-adv-x="1038" 
d="M668 319v447q-78 104 -174 104q-89 0 -120.5 -72.5t-31.5 -254.5t32 -255t120 -73q96 0 174 104zM936 803v-520l8 -283h-242l-12 109q-51 -67 -115 -99.5t-155 -32.5q-180 0 -267 137.5t-87 428.5t87 428t267 137q91 0 155 -32t115 -99l12 108h242zM250 1425
q0 108 64.5 175t177.5 67t177 -67t64 -175t-64 -174.5t-177 -66.5t-177.5 66.5t-64.5 174.5zM584 1425q0 46 -24 70.5t-68 24.5t-68.5 -24.5t-24.5 -70.5q0 -45 24.5 -69.5t68.5 -24.5t68 24t24 70z" />
    <glyph glyph-name="amacron.school" unicode="&#xe159;" horiz-adv-x="1038" 
d="M668 319v447q-78 104 -174 104q-89 0 -120.5 -72.5t-31.5 -254.5t32 -255t120 -73q96 0 174 104zM936 803v-520l8 -283h-242l-12 109q-51 -67 -115 -99.5t-155 -32.5q-180 0 -267 137.5t-87 428.5t87 428t267 137q91 0 155 -32t115 -99l12 108h242zM252 1313v252h479
v-252h-479z" />
    <glyph glyph-name="abreve.school" unicode="&#xe15a;" horiz-adv-x="1038" 
d="M668 319v447q-78 104 -174 104q-89 0 -120.5 -72.5t-31.5 -254.5t32 -255t120 -73q96 0 174 104zM936 803v-520l8 -283h-242l-12 109q-51 -67 -115 -99.5t-155 -32.5q-180 0 -267 137.5t-87 428.5t87 428t267 137q91 0 155 -32t115 -99l12 108h242zM492 1196
q-98 0 -163.5 29.5t-101 89t-49.5 137t-12 186.5h203q-2 -105 25.5 -155.5t97.5 -50.5t97 50t25 156h203q1 -87 -7 -152.5t-29.5 -122t-58 -92t-94 -55.5t-136.5 -20z" />
    <glyph glyph-name="cordinal" unicode="&#xe181;" horiz-adv-x="825" 
d="M66 1198q0 234 83.5 331t274.5 97q101 0 167.5 -18t104.5 -57.5t53 -92.5t15 -131l-258 -33q0 62 -17 94.5t-65 32.5q-60 0 -84.5 -46.5t-24.5 -176.5t24.5 -176.5t84.5 -46.5q48 0 65 32.5t17 94.5l258 -33q0 -78 -15 -131t-53 -92.5t-104.5 -57.5t-167.5 -18
q-191 0 -274.5 97t-83.5 331z" />
    <glyph glyph-name="ordfeminine.school" unicode="&#xe182;" horiz-adv-x="804" 
d="M477 1030v336q-42 55 -88 55q-42 0 -60 -53t-18 -170t18 -170t60 -53q46 0 88 55zM721 1372v-348l6 -225h-211l-8 67q-34 -46 -79.5 -71t-115.5 -25q-116 0 -183 103t-67 325t67 325t183 103q70 0 115.5 -25t79.5 -71l8 67h211z" />
    <glyph glyph-name="fi" unicode="&#xe38c;" horiz-adv-x="1167" 
d="M49 860v225h121v279q0 144 83.5 220.5t248.5 76.5q107 0 172 -25l-15 -223q-48 19 -104 19q-61 0 -89 -24t-28 -83v-240h197v-225h-197v-860h-268v860h-121zM797 0v1085h268v-1085h-268zM1073 1569v-281h-285v281h285z" />
    <glyph glyph-name="fi" unicode="&#xfb01;" horiz-adv-x="1167" 
d="M49 860v225h121v279q0 144 83.5 220.5t248.5 76.5q107 0 172 -25l-15 -223q-48 19 -104 19q-61 0 -89 -24t-28 -83v-240h197v-225h-197v-860h-268v860h-121zM797 0v1085h268v-1085h-268zM1073 1569v-281h-285v281h285z" />
    <glyph glyph-name="fl" unicode="&#xe38d;" horiz-adv-x="1169" 
d="M49 860v225h121v279q0 144 83.5 220.5t248.5 76.5q107 0 172 -25l-15 -223q-48 19 -104 19q-61 0 -89 -24t-28 -83v-240h197v-225h-197v-860h-268v860h-121zM797 0v1638h270v-1638h-270z" />
    <glyph glyph-name="fl" unicode="&#xfb02;" horiz-adv-x="1169" 
d="M49 860v225h121v279q0 144 83.5 220.5t248.5 76.5q107 0 172 -25l-15 -223q-48 19 -104 19q-61 0 -89 -24t-28 -83v-240h197v-225h-197v-860h-268v860h-121zM797 0v1638h270v-1638h-270z" />
    <glyph glyph-name="invertedbreve" unicode="&#xe411;" horiz-adv-x="1269" 
d="M635 1655q98 0 163.5 -29.5t101 -89.5t49.5 -137.5t12 -186.5h-203q2 105 -25.5 156t-97.5 51t-97.5 -51t-25.5 -156h-203q-2 109 12 186.5t49.5 137.5t101 89.5t163.5 29.5z" />
    <glyph glyph-name="doublegrave" unicode="&#xe412;" horiz-adv-x="1269" 
d="M537 1638h309l110 -426h-276zM168 1638h309l109 -426h-275z" />
    <glyph glyph-name="caronSlovak" unicode="&#xe413;" horiz-adv-x="1269" 
d="M592 1638h246l-70 -426h-176v426z" />
    <glyph glyph-name="commaaccent" unicode="&#xe414;" horiz-adv-x="1269" 
d="M500 -127h274l-65 -283h-230z" />
    <glyph glyph-name="commaaccent" unicode="&#xf6c3;" horiz-adv-x="1269" 
d="M500 -127h274l-65 -283h-230z" />
    <glyph glyph-name="dotbelow" unicode="&#xe415;" horiz-adv-x="1269" 
d="M782 -150v-260h-295v260h295z" />
    <glyph glyph-name="altcedilla" unicode="&#xe416;" horiz-adv-x="1269" 
d="M473 -150l33 95q138 -9 222.5 -39t116 -73t27.5 -101q-7 -85 -79 -127.5t-179 -42.5q-132 0 -233 43l43 125q51 -27 108 -33q121 -11 121 61q0 73 -180 92z" />
    <glyph glyph-name="exclamdown.cap" unicode="&#xe441;" horiz-adv-x="477" 
d="M96 1315v282h285v-282h-285zM395 0h-313l53 1126h209z" />
    <glyph glyph-name="questiondown.cap" unicode="&#xe444;" horiz-adv-x="1003" 
d="M428 1126h190q60 -112 60 -219q0 -98 -42.5 -158t-154.5 -118q-75 -43 -106 -89.5t-31 -135.5q0 -104 36.5 -146.5t117.5 -42.5q97 0 134.5 58t37.5 210l266 -34q0 -127 -20.5 -213.5t-70.5 -148t-134.5 -90t-210.5 -28.5q-234 0 -336.5 94.5t-102.5 323.5q0 57 8 104.5
t20 82.5t34 67t41 52t52 43t55.5 36t61.5 34q9 5 13 7q63 35 85 70t24 90q0 65 -27 151zM381 1315v282h285v-282h-285z" />
    <glyph glyph-name="guilsinglleft.cap" unicode="&#xe451;" horiz-adv-x="655" 
d="M532 637v-225l-426 303v168l426 303v-225l-188 -162z" />
    <glyph glyph-name="guilsinglright.cap" unicode="&#xe452;" horiz-adv-x="655" 
d="M123 412v225l188 162l-188 162v225l426 -303v-168z" />
    <glyph glyph-name="guillemotleft.cap" unicode="&#xe453;" horiz-adv-x="1097" 
d="M532 637v-225l-426 303v168l426 303v-225l-188 -162zM975 637v-225l-426 303v168l426 303v-225l-189 -162z" />
    <glyph glyph-name="guillemotright.cap" unicode="&#xe454;" horiz-adv-x="1097" 
d="M565 412v225l191 162l-191 162v225l426 -303v-168zM123 412v225l188 162l-188 162v225l426 -303v-168z" />
    <glyph glyph-name="slash.cap" unicode="&#xe461;" horiz-adv-x="798" 
d="M743 1638l-401 -1679h-287l402 1679h286z" />
    <glyph glyph-name="backslash.cap" unicode="&#xe462;" horiz-adv-x="798" 
d="M457 -41l-402 1679h287l401 -1679h-286z" />
    <glyph glyph-name="bar.cap" unicode="&#xe463;" horiz-adv-x="636" 
d="M457 1638v-1679h-277v1679h277z" />
    <glyph glyph-name="doublebar.cap" unicode="&#xe464;" horiz-adv-x="1075" 
d="M477 1638v-1679h-287v1679h287zM883 1638v-1679h-285v1679h285z" />
    <glyph glyph-name="brokenbar.cap" unicode="&#xe465;" horiz-adv-x="667" 
d="M477 709v-750h-287v750h287zM477 1638v-749h-287v749h287z" />
    <glyph glyph-name="bullet.cap" unicode="&#xe466;" horiz-adv-x="911" 
d="M776 1120v-643h-641v643h641z" />
    <glyph glyph-name="onethirdemdash" unicode="&#xe471;" horiz-adv-x="722" 
d="M608 559h-493v254h493v-254z" />
    <glyph glyph-name="threequarteremdash" unicode="&#xe472;" horiz-adv-x="1576" 
d="M1462 559h-1347v254h1347v-254z" />
    <glyph glyph-name="periodcentered.cap" unicode="&#xe481;" horiz-adv-x="591" 
d="M446 946v-295h-299v295h299z" />
    <glyph glyph-name="hyphen.cap" unicode="&#xe482;" horiz-adv-x="823" 
d="M709 670h-594v254h594v-254z" />
    <glyph glyph-name="onethirdemdash.cap" unicode="&#xe483;" horiz-adv-x="722" 
d="M608 670h-493v254h493v-254z" />
    <glyph glyph-name="endash.cap" unicode="&#xe484;" horiz-adv-x="1064" 
d="M950 670h-835v254h835v-254z" />
    <glyph glyph-name="threequarteremdash.cap" unicode="&#xe485;" horiz-adv-x="1576" 
d="M1462 670h-1347v254h1347v-254z" />
    <glyph glyph-name="emdash.cap" unicode="&#xe486;" horiz-adv-x="2088" 
d="M1974 670h-1859v254h1859v-254z" />
    <glyph glyph-name="figuredash.cap" unicode="&#xe487;" horiz-adv-x="1474" 
d="M1360 670h-1245v254h1245v-254z" />
    <glyph glyph-name="uni2015.cap" unicode="&#xe488;" horiz-adv-x="2908" 
d="M2793 670h-2678v254h2678v-254z" />
    <glyph glyph-name="parenleft.cap" unicode="&#xe491;" horiz-adv-x="626" 
d="M360 799q0 -277 52.5 -510t162.5 -473h-268q-98 167 -161.5 431t-63.5 552t63.5 552t161.5 431h268q-110 -240 -162.5 -473t-52.5 -510z" />
    <glyph glyph-name="parenright.cap" unicode="&#xe492;" horiz-adv-x="626" 
d="M266 799q0 277 -52.5 510t-162.5 473h268q98 -168 162 -431.5t64 -551.5t-64 -551.5t-162 -431.5h-268q110 240 162.5 473t52.5 510z" />
    <glyph glyph-name="bracketleft.cap" unicode="&#xe493;" horiz-adv-x="626" 
d="M575 1534h-139v-1471h139v-247h-415v1966h415v-248z" />
    <glyph glyph-name="bracketright.cap" unicode="&#xe494;" horiz-adv-x="628" 
d="M53 63h140v1471h-140v248h416v-1966h-416v247z" />
    <glyph glyph-name="braceleft.cap" unicode="&#xe495;" horiz-adv-x="694" 
d="M666 63v-247h-78q-81 0 -145 15t-106 43t-70.5 62.5t-43 79t-20.5 85.5t-6 89v355q0 73 -32.5 103t-94.5 30h-45v244h45q62 0 94.5 30t32.5 103v352q0 48 6 89t20.5 86t43 79t70.5 62.5t106 43.5t145 15h78v-248h-60q-139 0 -139 -133v-369q0 -80 -32.5 -142.5
t-98.5 -90.5q66 -28 98.5 -91t32.5 -141v-370q0 -134 139 -134h60z" />
    <glyph glyph-name="braceright.cap" unicode="&#xe496;" horiz-adv-x="694" 
d="M88 1534h-61v248h77q97 0 169.5 -22.5t114.5 -58t67.5 -87t34 -100t8.5 -107.5v-354q0 -73 31.5 -103t93.5 -30h45v-244h-45q-62 0 -93.5 -30t-31.5 -103v-353q0 -59 -8.5 -107.5t-34 -99.5t-67.5 -86.5t-114.5 -58t-169.5 -22.5h-77v247h61q137 0 137 134v368
q0 79 33.5 142.5t99.5 91.5q-66 28 -99.5 90.5t-33.5 140.5v371q0 133 -137 133z" />
    <glyph glyph-name="anglebracketleft.cap" unicode="&#xe497;" horiz-adv-x="626" 
d="M575 1782l-217 -983l217 -983h-268l-225 983l225 983h268z" />
    <glyph glyph-name="anglebracketright.cap" unicode="&#xe498;" horiz-adv-x="626" 
d="M270 799l-219 983h268l226 -983l-226 -983h-268z" />
    <glyph glyph-name="lowline" unicode="&#xe511;" horiz-adv-x="722" 
d="M659 0h-596v199h596v-199z" />
    <glyph glyph-name="underscoremonospace" unicode="&#xe512;" horiz-adv-x="1519" 
d="M1458 -410h-1397v199h1397v-199z" />
    <glyph glyph-name="underscoremonospace" unicode="&#xff3f;" horiz-adv-x="1519" 
d="M1458 -410h-1397v199h1397v-199z" />
    <glyph glyph-name="at.cap" unicode="&#xe513;" horiz-adv-x="2007" 
d="M1147 645v311q-66 109 -174 109q-85 0 -122.5 -65.5t-37.5 -198.5q0 -132 37.5 -198t122.5 -66q108 0 174 108zM1358 322h-172l-12 108q-101 -133 -263 -133q-196 0 -282 123.5t-86 380.5t85.5 379.5t282.5 122.5q92 0 159 -39t106 -93l10 109h237l-8 -242v-489
q61 1 104 21t70 54t42 91.5t20.5 121.5t5.5 156q0 84 -6.5 150.5t-24.5 131.5t-48 113t-77 89t-111.5 67t-153.5 40.5t-200 14.5q-189 0 -317.5 -44t-210 -142.5t-117 -247t-35.5 -366.5t36.5 -366.5t120 -247.5t217.5 -143t333 -44q221 0 384.5 38.5t336.5 115.5l96 -215
q-348 -175 -817 -175q-510 0 -742.5 257.5t-232.5 779.5q0 519 229.5 777.5t718.5 258.5q883 0 883 -842q0 -169 -29.5 -291t-95 -208.5t-173.5 -129t-263 -42.5z" />
    <glyph glyph-name="registered.superior" unicode="&#xe514;" horiz-adv-x="757" 
d="M63 1311q0 130 92.5 222.5t223.5 92.5t223 -92t92 -223t-92.5 -223.5t-222.5 -92.5q-131 0 -223.5 92.5t-92.5 223.5zM313 1112v133h60l73 -133h109l-86 145q68 24 68 121q0 133 -142 133h-174v-399h92zM401 1333h-88v90h88q39 0 39 -45t-39 -45z" />
    <glyph glyph-name="numbersign.LP" unicode="&#xe533;" horiz-adv-x="1064" 
d="M129 958v246h158l63 361h221l-61 -361h184l62 361h223l-61 -361h102v-246h-143l-58 -352h119v-246h-164l-59 -360h-223l61 360h-184l-62 -360h-221l59 360h-100v246h141l60 352h-117zM469 958l-59 -352h186l59 352h-186z" />
    <glyph glyph-name="zero.LP" unicode="&#xe534;" horiz-adv-x="1173" 
d="M586 221q50 0 84 9.5t59.5 36.5t39.5 63.5t22.5 103t11 141t2.5 191.5q0 93 -1 156.5t-5 126t-10.5 101.5t-18.5 75.5t-27.5 56t-38.5 35t-51.5 21t-66.5 5.5q-50 0 -84 -9.5t-59.5 -36.5t-39.5 -63t-22.5 -102.5t-11 -141t-2.5 -191.5q0 -108 1.5 -177t6.5 -137
t15 -106.5t25.5 -73t39.5 -50.5t55.5 -25t75.5 -9zM586 1587q102 0 175 -15.5t129.5 -54.5t92 -97.5t58 -151.5t31.5 -208.5t9 -277.5t-9 -277.5t-31.5 -208.5t-58 -151.5t-92 -97.5t-129.5 -54.5t-175 -15.5t-175.5 15.5t-130 54.5t-91.5 97.5t-57.5 151.5t-31 208.5
t-8.5 277.5t8.5 277.5t31 208.5t57.5 151.5t91.5 97.5t130 54.5t175.5 15.5z" />
    <glyph glyph-name="one.LP" unicode="&#xe536;" horiz-adv-x="804" 
d="M606 1587l2 -1587h-272l-4 1208q-84 -82 -230 -141v274q87 43 154 101t131 145h219z" />
    <glyph glyph-name="two.LP" unicode="&#xe537;" horiz-adv-x="1064" 
d="M535 1348q-92 0 -128 -58.5t-36 -210.5l-273 35q1 100 11 169.5t38 130.5t77 97t127.5 56t189.5 20q122 0 203 -24t130.5 -78t70 -133t20.5 -197q0 -58 -7.5 -106t-18 -85.5t-36.5 -75t-47.5 -63t-68 -63t-81 -63t-102.5 -72.5q-80 -54 -124.5 -92t-71 -83t-34 -89.5
t-7.5 -118.5h618v-244h-907q0 105 2 176.5t10 140.5t18 112.5t32.5 91t46.5 78t67 70.5t87 71.5t114 78.5q93 60 140.5 103t72 94.5t24.5 120.5q0 117 -32 164t-125 47z" />
    <glyph glyph-name="three.LP" unicode="&#xe538;" horiz-adv-x="1038" 
d="M512 217q108 0 154.5 57.5t46.5 178.5q0 70 -15 116.5t-44 70t-61.5 32t-78.5 8.5h-129v244h129q75 0 113.5 42t38.5 162q0 125 -34.5 172.5t-129.5 47.5q-96 0 -131 -57.5t-35 -205.5l-266 35q1 98 11.5 167.5t39 129.5t77 95.5t125 55t183.5 19.5q237 0 334.5 -94.5
t97.5 -333.5q0 -154 -41.5 -233t-124.5 -115q102 -27 158.5 -116.5t56.5 -270.5q0 -107 -23 -185.5t-76.5 -139t-149.5 -91.5t-234 -31q-83 0 -149 11.5t-113.5 32t-81.5 53.5t-55.5 70.5t-34 89.5t-17 104t-4.5 119l266 37q0 -149 43 -213t154 -64z" />
    <glyph glyph-name="four.LP" unicode="&#xe539;" horiz-adv-x="1079" 
d="M1028 346h-168v-346h-260v346h-549v203l504 1038h305v-995h168v-246zM600 592l14 655l-317 -663z" />
    <glyph glyph-name="five.LP" unicode="&#xe53a;" horiz-adv-x="1046" 
d="M518 217q95 0 141 73t46 228q0 92 -11.5 154t-34.5 95.5t-52.5 47.5t-71.5 14q-65 0 -121 -38t-80 -91l-232 35l37 830h787v-248h-547l-17 -373q94 117 265 117q87 0 149 -26t108.5 -87t69.5 -167.5t23 -262.5q0 -294 -110 -417.5t-357 -123.5q-245 0 -340.5 102.5
t-95.5 360.5l274 35q3 -152 39.5 -205t130.5 -53z" />
    <glyph glyph-name="six.LP" unicode="&#xe53b;" horiz-adv-x="1097" 
d="M584 1352q-123 0 -170 -110.5t-47 -389.5q60 105 148 147.5t204 42.5q171 0 246 -125t75 -401q0 -275 -108.5 -407t-364.5 -132q-99 0 -172 17.5t-126.5 59.5t-87.5 101.5t-54.5 153.5t-28.5 205t-8 266q0 123 6 218t21 181.5t40.5 149t64 113.5t92 81.5t124.5 47
t162 16.5q229 0 324 -89.5t98 -297.5l-274 -37q-1 109 -39 149t-125 40zM592 805q-79 0 -130.5 -45t-92.5 -135q0 -162 21.5 -253t62 -125t110.5 -34q109 0 156 68.5t47 226.5q0 162 -40 229.5t-134 67.5z" />
    <glyph glyph-name="seven.LP" unicode="&#xe53c;" horiz-adv-x="964" 
d="M500 0h-293l319 1030l103 289l-226 -2h-344v248h854v-168z" />
    <glyph glyph-name="eight.LP" unicode="&#xe53d;" horiz-adv-x="1030" 
d="M514 1341q-86 0 -121 -46.5t-35 -166.5q0 -114 39.5 -163.5t116.5 -49.5t117.5 49.5t40.5 163.5q0 120 -36 166.5t-122 46.5zM514 690q-46 0 -77.5 -9.5t-57.5 -34.5t-38.5 -73t-12.5 -120q0 -122 43 -177t143 -55t143 55t43 177q0 72 -12.5 120t-38.5 73t-57.5 34.5
t-77.5 9.5zM514 -23q-129 0 -218 29.5t-140 88t-73 135.5t-22 182q0 317 191 399q-73 29 -118.5 121t-45.5 225q0 233 97 331.5t329 98.5q233 0 329.5 -98t96.5 -332q0 -134 -45 -226t-119 -120q191 -82 191 -399q0 -105 -21.5 -181.5t-72.5 -135.5t-140.5 -88.5
t-218.5 -29.5z" />
    <glyph glyph-name="nine.LP" unicode="&#xe53e;" horiz-adv-x="1097" 
d="M506 213q133 0 180 108t47 392q-63 -107 -145 -149t-197 -42q-171 0 -252.5 127.5t-81.5 399.5q0 275 108.5 406.5t364.5 131.5q99 0 172 -17.5t126.5 -59.5t88 -102t55 -153.5t28.5 -204.5t8 -266q0 -123 -6.5 -218t-21.5 -181.5t-41.5 -149t-65.5 -113.5t-94 -81.5
t-126.5 -47t-163.5 -16.5q-232 0 -329 90t-99 298l273 36q3 -108 43.5 -148t128.5 -40zM508 760q80 0 129.5 44.5t93.5 135.5q0 162 -22 253t-63 125t-111 34q-109 0 -155 -68t-46 -227q0 -162 40 -229.5t134 -67.5z" />
    <glyph glyph-name="zero.inf" unicode="&#xe571;" 
d="M240 -2q0 -86 1.5 -133t7.5 -75.5t15 -36t25 -7.5t24 8t14 36t7.5 75t1.5 133q0 87 -1.5 134.5t-7.5 75.5t-14 36t-24 8t-25 -7.5t-15 -36t-7.5 -76t-1.5 -134.5zM526 -2q0 -177 -22.5 -266t-70.5 -121.5t-144 -32.5q-73 0 -116 16t-72.5 63t-40.5 127.5t-11 213.5
q0 134 11 214.5t40.5 128t72.5 63.5t116 16q96 0 144 -32.5t70.5 -122t22.5 -267.5z" />
    <glyph glyph-name="one.inf" unicode="&#xe572;" 
d="M528 -410h-458v170h135v390q-50 -53 -148 -74v192q60 17 112 60.5t75 91.5h149v-660h135v-170z" />
    <glyph glyph-name="two.inf" unicode="&#xe573;" 
d="M291 254q-22 0 -31.5 -26.5t-9.5 -102.5l-191 25q1 61 5 98.5t17.5 74t39.5 55.5t69 30.5t107 11.5q128 0 175.5 -50t47.5 -177q0 -46 -6 -78t-15 -55.5t-34.5 -49t-49.5 -44.5t-75 -56q-60 -43 -76 -72t-16 -78h278v-170h-477q0 63 0.5 96.5t3.5 75.5t7 63t14.5 49.5
t22.5 44t33 38t45.5 41t60.5 43.5q55 37 74.5 64t19.5 73q0 43 -7.5 59.5t-31.5 16.5z" />
    <glyph glyph-name="three.inf" unicode="&#xe574;" 
d="M287 -256q32 0 42.5 22t10.5 72q0 51 -14 68.5t-50 17.5h-57v168h57q24 0 31.5 15t7.5 63q0 52 -7 68t-32 16q-27 0 -33.5 -22.5t-6.5 -96.5l-185 23q1 72 11 119t35.5 80.5t69.5 48t112 14.5q120 0 172.5 -51t52.5 -179q0 -81 -16.5 -118.5t-53.5 -57.5q49 -13 72.5 -57
t23.5 -137q0 -118 -55 -180t-194 -62q-61 0 -104 12.5t-69 33t-40.5 56.5t-19.5 74t-5 94l184 25q0 -75 13 -102t47 -27z" />
    <glyph glyph-name="four.inf" unicode="&#xe575;" 
d="M539 -238h-58v-172h-182v172h-262v140l231 518h213v-488h58v-170zM299 -68l10 261l-104 -265z" />
    <glyph glyph-name="five.inf" unicode="&#xe576;" 
d="M289 -256q29 0 41 27.5t12 93.5q0 79 -12 105t-43 26q-23 0 -44 -17t-30 -45l-158 25l21 449h424v-172h-258l-6 -136q26 31 53.5 44.5t68.5 13.5q87 0 130.5 -65.5t43.5 -227.5q0 -160 -58.5 -223.5t-190.5 -63.5q-133 0 -185.5 56.5t-52.5 199.5l191 25
q1 -72 11.5 -93.5t41.5 -21.5z" />
    <glyph glyph-name="six.inf" unicode="&#xe577;" 
d="M287 258q-29 0 -36 -32.5t-7 -151.5q42 78 131 78q88 0 118.5 -63.5t30.5 -219.5q0 -153 -52.5 -222t-184.5 -69q-62 0 -103.5 15.5t-68 44t-40.5 82t-19 116.5t-5 162q0 92 4.5 152t19 116t41.5 87t72 49t111 18q122 0 168 -49.5t49 -167.5l-190 -25q-2 51 -8 65.5
t-31 14.5zM297 -12q-5 0 -9 -0.5t-7.5 -2.5t-6 -3t-5.5 -5t-5 -6t-5 -8t-4.5 -8.5t-5 -11t-5.5 -11.5q0 -107 9.5 -149.5t33.5 -42.5q17 0 26 6t13.5 24.5t5 35.5t0.5 57q0 69 -7 97t-28 28z" />
    <glyph glyph-name="seven.inf" unicode="&#xe578;" 
d="M322 -410h-203l168 500l53 148l-115 -2h-184v172h498v-113z" />
    <glyph glyph-name="eight.inf" unicode="&#xe579;" 
d="M289 250q-27 0 -38 -17.5t-11 -62.5q0 -84 49 -84q47 0 47 84q0 45 -11 62.5t-36 17.5zM289 -68q-36 0 -52 -18.5t-16 -75.5q0 -48 15 -70t53 -22q37 0 51 22t14 70q0 57 -15.5 75.5t-49.5 18.5zM289 -422q-74 0 -124.5 16t-78 48t-38.5 72t-11 96q0 163 88 206
q-34 15 -53 63t-19 114q0 124 53 175.5t183 51.5q128 0 180.5 -51.5t52.5 -175.5q0 -67 -18.5 -114.5t-52.5 -62.5q88 -42 88 -206q0 -115 -54 -173.5t-196 -58.5z" />
    <glyph glyph-name="nine.inf" unicode="&#xe57a;" 
d="M291 -260q28 0 34.5 29t6.5 145q-22 -38 -52.5 -53t-78.5 -15q-82 0 -116 66t-34 217q0 153 52.5 222t185.5 69q52 0 89 -9.5t63 -32.5t42 -53t25.5 -81t12.5 -106.5t3 -137.5q0 -92 -4.5 -152t-19 -116t-41.5 -87t-72 -49t-111 -18q-122 0 -168 49.5t-49 167.5l191 25
q1 -27 2 -39.5t5.5 -23.5t12 -14t21.5 -3zM279 10q20 0 31.5 11t21.5 34q0 109 -9.5 156t-33.5 47q-17 0 -26 -6t-13.5 -24.5t-5 -35.5t-0.5 -57q0 -125 35 -125z" />
    <glyph glyph-name="plus.inf" unicode="&#xe57b;" horiz-adv-x="790" 
d="M307 -293v201h-201v176h201v201h176v-201h201v-176h-201v-201h-176z" />
    <glyph glyph-name="minus.inf" unicode="&#xe57c;" horiz-adv-x="790" 
d="M684 -92h-578v176h578v-176z" />
    <glyph glyph-name="equal.inf" unicode="&#xe57d;" horiz-adv-x="790" 
d="M684 -221h-578v176h578v-176zM684 37h-578v174h578v-174z" />
    <glyph glyph-name="parenleft.inf" unicode="&#xe57e;" horiz-adv-x="368" 
d="M236 -4q0 -273 110 -514h-186q-51 89 -84 226t-33 288q0 150 33.5 287.5t83.5 224.5h186q-110 -241 -110 -512z" />
    <glyph glyph-name="parenright.inf" unicode="&#xe57f;" horiz-adv-x="368" 
d="M133 -4q0 278 -110 512h186q50 -87 83.5 -224.5t33.5 -287.5q0 -151 -33 -288t-84 -226h-186q110 234 110 514z" />
    <glyph glyph-name="plus.cap" unicode="&#xe591;" horiz-adv-x="1802" 
d="M764 0v662h-662v274h662v661h274v-661h662v-274h-662v-662h-274z" />
    <glyph glyph-name="minus.cap" unicode="&#xe592;" horiz-adv-x="1802" 
d="M102 662v274h1598v-274h-1598z" />
    <glyph glyph-name="multiply.cap" unicode="&#xe593;" horiz-adv-x="1802" 
d="M74 166l633 633l-633 633l194 194l633 -633l633 633l195 -194l-633 -633l633 -633l-195 -195l-633 633l-633 -633z" />
    <glyph glyph-name="divide.cap" unicode="&#xe594;" horiz-adv-x="1802" 
d="M1055 1597v-307h-307v307h307zM1055 307v-307h-307v307h307zM102 662v274h1598v-274h-1598z" />
    <glyph glyph-name="equal.cap" unicode="&#xe595;" horiz-adv-x="1802" 
d="M102 387v275h1598v-275h-1598zM102 936v274h1598v-274h-1598z" />
    <glyph glyph-name="less.cap" unicode="&#xe596;" horiz-adv-x="1802" 
d="M721 920l-287 -121l287 -121l979 -424v-283l-1598 703v250l1598 702v-283z" />
    <glyph glyph-name="greater.cap" unicode="&#xe597;" horiz-adv-x="1802" 
d="M1081 678l287 121l-287 121l-979 423v283l1598 -702v-250l-1598 -703v283z" />
    <glyph glyph-name="idotaccent" horiz-adv-x="473" 
d="M102 0v1085h269v-1085h-269zM379 1569v-281h-285v281h285z" />
    <glyph glyph-name="f_dotlessi" horiz-adv-x="1167" 
d="M49 860v225h121v279q0 144 83.5 220.5t248.5 76.5q107 0 172 -25l-15 -223q-48 19 -104 19q-61 0 -89 -24t-28 -83v-240h197v-225h-197v-860h-268v860h-121zM797 0v1085h268v-1085h-268z" />
    <glyph glyph-name="interrobangdown.cap" horiz-adv-x="1003" 
d="M479 1085h49l29 -862q62 15 87.5 75t25.5 187l266 -34q0 -127 -20.5 -213.5t-70.5 -148t-135 -90t-212 -28.5q-232 0 -334.5 95t-102.5 323q0 85 14 153t36 113.5t60 84.5t73 63t88 53q49 26 141 59zM375 1313v284h289v-284h-289zM344 406q0 -88 25 -131t80 -54l14 414
q-64 -37 -91.5 -86.5t-27.5 -142.5z" />
    <glyph glyph-name="period.T" horiz-adv-x="532" 
d="M408 283v-283h-285v283h285z" />
    <glyph glyph-name="comma.T" horiz-adv-x="532" 
d="M121 283h297l-129 -541h-205z" />
    <glyph glyph-name="colon.T" horiz-adv-x="532" 
d="M408 283v-283h-285v283h285zM408 973v-281h-285v281h285z" />
    <glyph glyph-name="semicolon.T" horiz-adv-x="532" 
d="M408 973v-281h-285v281h285zM121 283h297l-129 -541h-205z" />
    <glyph glyph-name="musicnaturalsign" horiz-adv-x="827" 
d="M309 1126l379 308v-1536h-170v571l-381 -305v1536h172v-574zM309 864v-301l209 168v301z" />
    <glyph glyph-name="circle" horiz-adv-x="1536" 
d="M197 543q0 155 76.5 286.5t208 208t286.5 76.5t286.5 -76.5t208 -208t76.5 -286.5q0 -116 -45.5 -222t-121.5 -182.5t-182 -122t-222 -45.5t-222 45.5t-182 122t-121.5 182.5t-45.5 222z" />
    </font>
</defs>
</svg>
