<?xml version="1.0" standalone="no"?>
<!DOCTYPE svg PUBLIC "-//W3C//DTD SVG 1.1//EN" "http://www.w3.org/Graphics/SVG/1.1/DTD/svg11.dtd" >
<svg xmlns="http://www.w3.org/2000/svg" xmlns:xlink="http://www.w3.org/1999/xlink" version="1.1">
<metadata>
Created by FontForge 20170731 at Wed Jan 28 20:48:55 2015
 By Aleksey,,,
Copyright (c) 2008 by Village Type &#38; Design LLC. All rights reserved.
</metadata>
<defs>
<font id="GalaxiePolarisCondensed-HeavyItalic" horiz-adv-x="741" >
  <font-face 
    font-family="Galaxie Polaris Condensed Heavy Italic"
    font-weight="950"
    font-style="italic"
    font-stretch="normal"
    units-per-em="2048"
    panose-1="0 0 0 0 0 0 0 0 0 0"
    ascent="1638"
    descent="-410"
    x-height="1085"
    cap-height="1597"
    bbox="-360 -508 2832 2150"
    underline-thickness="61"
    underline-position="-264"
    unicode-range="U+0020-E597"
  />
<missing-glyph horiz-adv-x="1968" 
d="M184 0v1597h1598v-1597h-1598zM983 707l-571 -572h1142zM412 1462l571 -571l571 571h-1142zM891 799l-563 563v-1126zM1075 799l563 -563v1126z" />
    <glyph glyph-name="interrobang" unicode="&#x21;&#x3f;" horiz-adv-x="1064" 
d="M524 508h-49l70 784q-37 -19 -58.5 -70t-33.5 -151l-336 115q20 116 55 195.5t96.5 137t154 84.5t222.5 27q220 0 325 -96.5t105 -286.5q0 -96 -19.5 -175t-50 -133t-78.5 -100t-94 -74.5t-108 -57.5q-60 -28 -180 -64zM643 362l-43 -362h-367l43 362h367zM602 1008
q92 54 92 206q0 70 -47 84z" />
    <glyph glyph-name="interrobangdown" unicode="&#xa1;&#xbf;" horiz-adv-x="1064" 
d="M504 578h57l-61 -672q66 37 86 198l334 -112q-19 -109 -54.5 -185.5t-96.5 -132t-154 -82t-222 -26.5q-222 0 -328 88.5t-106 263.5q0 94 27 170t77.5 131t107.5 93t134 73q51 23 176 55zM383 723l45 362h367l-45 -362h-367zM340 -37q0 -56 55 -67l37 225
q-92 -56 -92 -158z" />
    <glyph glyph-name=".notdef" horiz-adv-x="1968" 
d="M184 0v1597h1598v-1597h-1598zM983 707l-571 -572h1142zM412 1462l571 -571l571 571h-1142zM891 799l-563 563v-1126zM1075 799l563 -563v1126z" />
    <glyph glyph-name=".null" horiz-adv-x="0" 
 />
    <glyph glyph-name="nonmarkingreturn" horiz-adv-x="682" 
 />
    <glyph glyph-name="space" unicode=" " horiz-adv-x="329" 
 />
    <glyph glyph-name="exclam" unicode="!" horiz-adv-x="542" 
d="M416 362l-43 -362h-367l43 362h367zM184 1597h400l-191 -1089h-284z" />
    <glyph glyph-name="quotedbl" unicode="&#x22;" horiz-adv-x="1013" 
d="M178 1597h416l-113 -512h-313zM647 1597h414l-113 -512h-311z" />
    <glyph glyph-name="numbersign" unicode="#" horiz-adv-x="1064" 
d="M141 915l41 326h158l92 324h289l-94 -324h104l94 324h289l-94 -324h78l-41 -326h-133l-76 -266h100l-39 -325h-157l-93 -324h-288l94 324h-105l-94 -324h-289l95 324h-78l39 325h133l76 266h-101zM530 915l-77 -266h106l78 266h-107z" />
    <glyph glyph-name="dollar" unicode="$" horiz-adv-x="956" 
d="M440 516q64 0 96.5 18t32.5 62q0 31 -28.5 46.5t-98.5 21.5q-42 3 -73 7.5t-67.5 13t-62 20.5t-50.5 31.5t-40 45.5t-24.5 63t-9.5 83q0 120 35 205.5t99.5 132.5t140.5 68.5t173 23.5l84 207h311l-94 -226q60 -13 137 -51l-120 -309q-115 76 -275 76q-121 0 -121 -76
q0 -22 24 -35t62.5 -19t85.5 -12.5t93.5 -22.5t85 -42t62.5 -77t24 -122q0 -123 -34.5 -210.5t-99.5 -136.5t-146 -71t-187 -24l-84 -207h-314l101 236q-107 28 -164 67l131 309q160 -96 315 -96z" />
    <glyph glyph-name="percent" unicode="%" horiz-adv-x="1918" 
d="M473 971q18 0 31.5 4t29.5 19t26 40.5t17 72.5t7 112q0 54 -16.5 78t-51.5 24q-18 0 -31.5 -4t-29 -19t-25.5 -40.5t-17 -72.5t-7 -112q0 -54 16 -78t51 -24zM440 702q-170 0 -244.5 78.5t-74.5 241.5q0 154 28 264t84 176t133.5 96.5t182.5 30.5q170 0 244.5 -78
t74.5 -241q0 -302 -108 -435t-320 -133zM1470 594q-18 0 -31.5 -4t-29 -19t-25.5 -40.5t-17 -72.5t-7 -112q0 -54 16 -78t51 -24q18 0 31.5 4t29.5 19t26 40.5t17 72.5t7 112q0 54 -16.5 78t-51.5 24zM1503 862q170 0 245 -78t75 -241q0 -302 -108 -435t-320 -133
q-170 0 -245 78.5t-75 241.5q0 154 28 264t84 176t133.5 96.5t182.5 30.5zM342 0l991 1565h269l-992 -1565h-268z" />
    <glyph glyph-name="ampersand" unicode="&#x26;" horiz-adv-x="1153" 
d="M1106 815q0 -69 -26.5 -175.5t-65.5 -203.5q30 -23 55 -35l-53 -426q-135 93 -213 156q-173 -156 -395 -156q-102 0 -178.5 29.5t-122.5 82.5t-68.5 120.5t-22.5 148.5q0 147 53 265t160 219q-32 69 -49.5 157.5t-17.5 157.5q0 230 113.5 348.5t320.5 118.5
q191 0 269.5 -75t78.5 -226q0 -80 -20 -146.5t-64 -126.5t-97.5 -110.5t-135.5 -114.5q72 -110 145 -186q35 183 29 285zM479 287q57 0 115 37q-100 106 -203 247q-26 -73 -26 -147q0 -137 114 -137zM586 1307q-45 0 -66.5 -43t-21.5 -90q0 -63 20 -115q64 48 92.5 89.5
t28.5 90.5q0 68 -53 68z" />
    <glyph glyph-name="quotesingle" unicode="'" horiz-adv-x="546" 
d="M178 1597h416l-113 -512h-313z" />
    <glyph glyph-name="parenleft" unicode="(" horiz-adv-x="669" 
d="M768 1700q-352 -620 -352 -1294q0 -341 112 -672h-356q-57 122 -90 300.5t-33 385.5q0 362 107.5 714t257.5 566h354z" />
    <glyph glyph-name="parenright" unicode=")" horiz-adv-x="669" 
d="M-90 -266q352 620 352 1294q0 341 -112 672h356q57 -122 90 -300.5t33 -385.5q0 -362 -107.5 -714t-257.5 -566h-354z" />
    <glyph glyph-name="asterisk" unicode="*" horiz-adv-x="755" 
d="M377 1597h227l-39 -167l170 71l41 -217l-149 -31l82 -106l-203 -133l-70 151l-104 -151l-170 133l110 106l-145 31l98 217l148 -71z" />
    <glyph glyph-name="plus" unicode="+" horiz-adv-x="1474" 
d="M569 246v385h-385v336h385v385h336v-385h385v-336h-385v-385h-336z" />
    <glyph glyph-name="comma" unicode="," horiz-adv-x="542" 
d="M49 362h381l-221 -585h-275z" />
    <glyph glyph-name="hyphen" unicode="-" horiz-adv-x="843" 
d="M715 518h-623l41 336h623z" />
    <glyph glyph-name="period" unicode="." horiz-adv-x="542" 
d="M416 362l-43 -362h-367l43 362h367z" />
    <glyph glyph-name="slash" unicode="/" horiz-adv-x="872" 
d="M989 1782l-710 -1966h-365l709 1966h366z" />
    <glyph glyph-name="zero" unicode="0" horiz-adv-x="1064" 
d="M494 299q48 0 91.5 127t67 307.5t23.5 349.5q0 78 -10.5 119.5t-25.5 52.5t-42 11q-48 0 -91.5 -127.5t-67 -307.5t-23.5 -350q0 -78 10.5 -119t25.5 -52t42 -11zM635 1589q86 0 145.5 -12t109.5 -44.5t78.5 -89.5t44 -145.5t15.5 -214.5q0 -188 -13.5 -341t-38.5 -267.5
t-63.5 -200.5t-84.5 -143t-106 -92t-123.5 -49.5t-141.5 -14.5q-86 0 -146 12t-109.5 44.5t-78.5 89.5t-44.5 145.5t-15.5 214.5q0 262 26.5 456.5t74 318t120.5 199t157 105t194 29.5z" />
    <glyph glyph-name="one" unicode="1" horiz-adv-x="1064" 
d="M911 0h-880l39 324h260l92 745q-111 -101 -299 -139l45 368q118 31 228 115.5t163 175.5h287l-156 -1265h260z" />
    <glyph glyph-name="two" unicode="2" horiz-adv-x="1064" 
d="M612 1270q-27 0 -46 -18.5t-35.5 -73.5t-28.5 -154l-346 119q12 82 26 138.5t38 110.5t58.5 87.5t86 60t122.5 38t166 11.5q211 0 301 -73.5t90 -241.5q0 -90 -8.5 -158.5t-32.5 -127t-51.5 -101.5t-81.5 -91.5t-105.5 -86.5t-139.5 -97t-130.5 -102.5t-57.5 -81.5
t-23 -104h530l-39 -324h-913q15 122 23 184.5t23.5 144.5t28.5 120.5t38.5 94t52.5 84.5t73 73t97 78.5t127 82.5q69 43 106.5 72.5t65.5 67.5t37.5 81t9.5 109q0 42 -14 60t-48 18z" />
    <glyph glyph-name="three" unicode="3" horiz-adv-x="1064" 
d="M483 295q68 0 98.5 58t30.5 177q0 61 -24.5 86t-79.5 25h-111l39 322h111q33 0 53 17.5t32.5 66.5t12.5 133q0 54 -13 72t-48 18q-51 0 -70 -43t-37 -185l-338 117q27 156 78 246.5t150.5 137t261.5 46.5q201 0 292 -77.5t91 -272.5q0 -176 -51 -281t-134 -145
q77 -20 113.5 -79.5t36.5 -192.5q0 -566 -545 -566q-241 0 -328.5 102t-68.5 341l366 125q0 -2 -4 -28t-4.5 -34.5t-3 -34.5t-0.5 -38t4.5 -33.5t9.5 -32.5t17 -23.5t26 -18t37 -5.5z" />
    <glyph glyph-name="four" unicode="4" horiz-adv-x="1064" 
d="M969 330h-109l-39 -330h-348l39 330h-502l33 268l563 991h410l-115 -934h109zM553 655l80 496l-262 -504z" />
    <glyph glyph-name="five" unicode="5" horiz-adv-x="1064" 
d="M485 295q67 0 105.5 86.5t38.5 271.5q0 72 -20.5 98.5t-65.5 26.5q-44 0 -87.5 -33t-68.5 -86l-289 99l138 807h813l-39 -328h-496l-45 -260q55 57 112.5 82.5t135.5 25.5q138 0 208 -82t70 -280q0 -213 -36.5 -360t-110.5 -231.5t-173.5 -120.5t-238.5 -36
q-223 0 -323 94t-80 314l379 129q-1 -12 -4 -40.5t-5 -48.5t0 -46t10 -42.5t26 -28t46 -11.5z" />
    <glyph glyph-name="six" unicode="6" horiz-adv-x="1064" 
d="M602 1278q-55 0 -76.5 -64t-48.5 -288q56 81 119.5 114t153.5 33q128 0 181.5 -70.5t53.5 -230.5q0 -84 -5 -157t-20 -156.5t-39 -150.5t-65.5 -131t-97 -107t-136 -69t-178.5 -26q-111 0 -182.5 24.5t-117 84t-64.5 153t-19 238.5q0 295 38 510t112 347t177 194.5
t239 62.5q114 0 186 -14t123.5 -51.5t73.5 -102.5t24 -168l-372 -127q0 8 2 29.5t2.5 34.5t-1.5 32t-8.5 29.5t-20 18.5t-34.5 8zM561 760q-36 0 -56 -19.5t-53 -75.5q-4 -7 -6 -10q-18 -153 -18 -237q0 -70 13 -100.5t42 -30.5q127 0 127 377q0 96 -49 96z" />
    <glyph glyph-name="seven" unicode="7" horiz-adv-x="1064" 
d="M516 0h-391l440 956l135 283l-219 -2h-350l39 328h950l-26 -217z" />
    <glyph glyph-name="eight" unicode="8" horiz-adv-x="1064" 
d="M604 1264q-56 0 -85.5 -45.5t-29.5 -159.5q0 -109 76 -109q54 0 85.5 51.5t31.5 159.5q0 54 -19 78.5t-59 24.5zM530 655q-35 0 -59 -7.5t-47.5 -30.5t-35 -72t-11.5 -125q0 -61 24.5 -91t83.5 -30q82 0 118 55t36 178q0 70 -27 96.5t-82 26.5zM446 -25q-121 0 -206 24
t-134 70t-70.5 106.5t-21.5 141.5q0 208 64 331.5t160 166.5q-50 24 -76.5 92.5t-26.5 161.5q0 257 120 388.5t390 131.5q216 0 311 -79t95 -253q0 -160 -51.5 -283t-139.5 -159q127 -62 127 -291q0 -132 -25.5 -228.5t-85.5 -171t-167 -112t-263 -37.5z" />
    <glyph glyph-name="nine" unicode="9" horiz-adv-x="1064" 
d="M489 287q55 0 76.5 64t48.5 288q-56 -81 -119 -114t-153 -33q-129 0 -182.5 71t-53.5 230q0 84 5 157t20 156t39 150t65.5 131t97 107t136 69t178.5 26q147 0 229 -46.5t118 -153t36 -299.5q0 -296 -38 -511t-111.5 -347t-176.5 -194.5t-239 -62.5q-114 0 -186 14
t-124 51.5t-74 102.5t-24 168l373 127q0 -9 -2 -30t-3 -34t1.5 -31.5t8.5 -29t19.5 -18.5t34.5 -8zM530 805q20 0 34 4.5t29 22t22.5 29.5t29.5 48q19 161 19 238q0 70 -13.5 100.5t-42.5 30.5q-127 0 -127 -377q0 -96 49 -96z" />
    <glyph glyph-name="colon" unicode=":" horiz-adv-x="542" 
d="M416 362l-43 -362h-367l43 362h367zM496 1014l-43 -361h-367l43 361h367z" />
    <glyph glyph-name="semicolon" unicode=";" horiz-adv-x="542" 
d="M496 1014l-43 -361h-367l43 361h367zM49 362h381l-221 -585h-275z" />
    <glyph glyph-name="less" unicode="&#x3c;" horiz-adv-x="1474" 
d="M522 799l215 -56l553 -161v-357l-1106 379v389l1106 379v-356l-553 -162z" />
    <glyph glyph-name="equal" unicode="=" horiz-adv-x="1474" 
d="M1290 385h-1106v336h1106v-336zM1290 877h-1106v335h1106v-335z" />
    <glyph glyph-name="greater" unicode="&#x3e;" horiz-adv-x="1474" 
d="M737 743l215 56l-215 55l-553 162v356l1106 -379v-389l-1106 -379v357z" />
    <glyph glyph-name="question" unicode="?" horiz-adv-x="1064" 
d="M602 508h-252q-12 16 -25.5 66t-13.5 104q0 120 54 190.5t206 143.5q66 31 94.5 78t28.5 129q0 46 -20 66t-66 20q-70 0 -104 -49t-51 -185l-336 115q20 116 55 195.5t96.5 137t154 84.5t222.5 27q226 0 328 -75t102 -252q0 -77 -11 -141.5t-27 -110.5t-45 -86
t-54.5 -65.5t-67.5 -51.5t-72 -41t-78 -37q-6 -3 -9 -4q-72 -33 -95.5 -74.5t-23.5 -107.5q0 -38 10 -76zM643 362l-43 -362h-367l43 362h367z" />
    <glyph glyph-name="at" unicode="@" horiz-adv-x="2105" 
d="M1128 492l27 225q-26 78 -113 78q-62 0 -101.5 -61.5t-39.5 -188.5q0 -131 94 -131q81 0 133 78zM1358 123h-225l-3 94q-105 -119 -262 -119q-168 0 -248.5 86.5t-80.5 272.5q0 653 454 653q53 0 97 -13t71.5 -34.5t42.5 -38t25 -33.5l22 94h316l-41 -251l-49 -412
q225 13 225 530q0 100 -24.5 168t-84.5 117t-162 71.5t-255 22.5q-393 0 -577.5 -234t-184.5 -691q0 -284 143 -406.5t463 -122.5q224 0 407.5 43t378.5 127l95 -280q-392 -201 -920 -201q-471 0 -696.5 213t-225.5 614q0 289 74 519.5t217.5 393t363 249.5t500.5 87
q222 0 385 -50t260 -143.5t143 -217.5t46 -281q0 -135 -21 -252.5t-71.5 -225t-128 -183.5t-197 -121t-272.5 -45z" />
    <glyph glyph-name="A" unicode="A" horiz-adv-x="1081" 
d="M377 1610h555l45 -1610h-373v256h-231l-60 -256h-372zM614 1280l-172 -725h166z" />
    <glyph glyph-name="B" unicode="B" horiz-adv-x="1179" 
d="M618 0h-593l194 1597h582q58 0 105 -7.5t92 -29.5t75.5 -57.5t49 -95t18.5 -139.5q0 -341 -185 -426q152 -38 152 -264q0 -96 -16 -179t-52.5 -157.5t-92 -127.5t-139.5 -83.5t-190 -30.5zM432 328h148q72 0 111.5 43t39.5 159q0 123 -102 123h-156zM674 1270h-125
l-37 -291h125q123 0 123 195q0 55 -21.5 75.5t-64.5 20.5z" />
    <glyph glyph-name="C" unicode="C" horiz-adv-x="1179" 
d="M678 1303q-58 0 -105.5 -80.5t-74.5 -203.5t-41.5 -251t-14.5 -240q0 -118 26 -175.5t85 -57.5q87 0 126 52t62 210l344 -121q-43 -254 -166 -357.5t-395 -103.5q-112 0 -192 27t-139.5 89.5t-89 169.5t-29.5 261q0 107 6.5 205t24.5 211.5t47.5 208t80.5 185
t117.5 152.5t163 100t213.5 38q129 0 215.5 -22.5t143.5 -75.5t78 -140t12 -217l-375 -127q3 28 3.5 37t2.5 37.5t0.5 40.5t-4 36.5t-8.5 36.5t-15.5 29t-23.5 25t-33.5 14.5t-44.5 6.5z" />
    <glyph glyph-name="D" unicode="D" horiz-adv-x="1239" 
d="M494 0h-469l194 1597h469q272 0 391 -120t119 -406q0 -202 -22.5 -363.5t-74 -296t-132 -224t-200.5 -138.5t-275 -49zM432 328h103q72 0 126.5 47t85.5 119t50 172.5t25.5 191t6.5 191.5q0 113 -39.5 167t-138.5 54h-102z" />
    <glyph glyph-name="E" unicode="E" horiz-adv-x="1024" 
d="M219 1597h832l-39 -327h-465l-37 -291h377l-39 -326h-377l-41 -325h488l-39 -328h-854z" />
    <glyph glyph-name="F" unicode="F" horiz-adv-x="976" 
d="M471 653l-80 -653h-366l194 1597h819l-39 -327h-452l-37 -291h383l-39 -326h-383z" />
    <glyph glyph-name="G" unicode="G" horiz-adv-x="1239" 
d="M70 504q0 136 9.5 255.5t31.5 234.5t57 208.5t88 172.5t121 133t160 84t202 30q131 0 218.5 -22t145.5 -74t80 -139t13 -218l-375 -129q7 38 5 84t-10.5 86t-40.5 66.5t-85 26.5q-69 0 -121.5 -85.5t-80 -216.5t-41 -259t-13.5 -240q0 -103 35.5 -155t122.5 -52
q78 0 149 33l35 284h-160l37 299h512l-100 -788q-114 -76 -232 -112t-290 -36q-257 0 -365 127t-108 402z" />
    <glyph glyph-name="H" unicode="H" horiz-adv-x="1196" 
d="M836 1597h366l-194 -1597h-367l80 653h-250l-80 -653h-366l194 1597h367l-76 -618h250z" />
    <glyph glyph-name="I" unicode="I" horiz-adv-x="602" 
d="M598 1597l-195 -1597h-368l194 1597h369z" />
    <glyph glyph-name="J" unicode="J" horiz-adv-x="1011" 
d="M657 1597h367l-141 -1153q-31 -255 -158 -362t-365 -107q-121 0 -201 23t-123 72t-58.5 114t-10.5 160l367 127q-12 -94 4.5 -136t69.5 -42q51 0 75 33.5t33 115.5z" />
    <glyph glyph-name="K" unicode="K" horiz-adv-x="1198" 
d="M586 1597l-90 -665l329 665h443l-428 -692l258 -905h-449l-100 586l-117 -178l-41 -408h-366l194 1597h367z" />
    <glyph glyph-name="L" unicode="L" horiz-adv-x="921" 
d="M586 1597l-156 -1269h404l-39 -328h-770l194 1597h367z" />
    <glyph glyph-name="M" unicode="M" horiz-adv-x="1531" 
d="M829 0h-290l-70 813l-82 -813h-362l194 1597h510l41 -888l256 888h512l-195 -1597h-362l115 813z" />
    <glyph glyph-name="N" unicode="N" horiz-adv-x="1234" 
d="M616 1597l101 -462l80 -390l37 308l65 544h342l-194 -1597h-398l-102 463l-78 389l-37 -307l-61 -545h-346l194 1597h397z" />
    <glyph glyph-name="O" unicode="O" horiz-adv-x="1204" 
d="M555 295q62 0 110.5 77t76 198t41.5 251.5t14 255.5q0 226 -117 226q-62 0 -110.5 -77t-76 -198.5t-41.5 -252t-14 -255.5q0 -225 117 -225zM516 -25q-124 0 -212 36.5t-139 108.5t-74 168t-23 226q0 161 12.5 296.5t41 263.5t78.5 225.5t120.5 171.5t171.5 112.5
t227 38.5q124 0 212 -36.5t139 -108.5t74 -168t23 -226q0 -161 -12.5 -296.5t-41 -263.5t-78.5 -225.5t-120.5 -171.5t-171.5 -112.5t-227 -38.5z" />
    <glyph glyph-name="P" unicode="P" horiz-adv-x="1126" 
d="M500 846h114q146 0 146 299q0 67 -22 96t-70 29h-115zM459 516l-62 -516h-368l194 1597h504q70 0 127 -11t110.5 -39t90 -73t58.5 -117.5t22 -168.5q0 -115 -16.5 -210t-45 -163.5t-69.5 -121.5t-86.5 -86t-100 -54t-106.5 -29t-109 -8h-143z" />
    <glyph glyph-name="Q" unicode="Q" horiz-adv-x="1204" 
d="M719 -442l-520 524q-131 134 -131 432q0 161 12.5 296.5t41 263.5t78.5 225.5t120.5 171.5t171.5 112.5t227 38.5q124 0 212 -36.5t139 -108.5t74 -168t23 -226q0 -162 -12 -298t-42.5 -264.5t-78.5 -226t-122.5 -171.5t-172.5 -111l197 -133zM555 295q62 0 110.5 77
t76 198t41.5 251.5t14 255.5q0 226 -117 226q-62 0 -110.5 -77t-76 -198.5t-41.5 -252t-14 -255.5q0 -225 117 -225z" />
    <glyph glyph-name="R" unicode="R" horiz-adv-x="1165" 
d="M461 557l-68 -557h-368l194 1597h514q73 0 128.5 -7.5t112.5 -31.5t93.5 -64.5t60 -111.5t23.5 -168q0 -133 -22.5 -241t-62 -179t-79.5 -116t-88 -76l150 -602h-420l-84 557h-84zM502 887h94q38 0 64.5 7.5t55 31.5t43.5 78t15 137q0 79 -33.5 104t-97.5 25h-94z" />
    <glyph glyph-name="S" unicode="S" horiz-adv-x="1101" 
d="M498 295q164 0 164 186q0 73 -48 108.5t-165 67.5q-59 16 -101 31.5t-89 45.5t-76 69t-48.5 101.5t-19.5 142.5q0 298 137.5 440.5t429.5 142.5q246 0 336.5 -102.5t71.5 -347.5l-367 -125q13 106 9 145q-11 103 -101 103q-67 0 -105.5 -50.5t-38.5 -148.5
q0 -70 39.5 -98t145.5 -48q91 -18 151 -41t111.5 -65.5t75.5 -110.5t24 -166q0 -169 -40.5 -288.5t-119 -188.5t-182 -100t-241.5 -31q-116 0 -197.5 18.5t-131.5 55t-77 91t-32.5 126t1.5 160.5l365 125q-3 -28 -3.5 -36t-2 -35.5t-0.5 -38.5t3.5 -34.5t8 -34.5t15 -27
t23 -23t32.5 -13t43 -6z" />
    <glyph glyph-name="T" unicode="T" horiz-adv-x="1001" 
d="M758 1270l-156 -1270h-366l155 1270h-276l39 327h919l-39 -327h-276z" />
    <glyph glyph-name="U" unicode="U" horiz-adv-x="1155" 
d="M530 293q67 0 92.5 31t36.5 116l142 1157h366l-143 -1175q-15 -123 -45 -203.5t-90 -139.5t-156.5 -85.5t-240.5 -26.5q-143 0 -233.5 27.5t-136.5 83.5t-57 141.5t5 202.5l143 1175h369l-142 -1157q-11 -84 6.5 -115.5t83.5 -31.5z" />
    <glyph glyph-name="V" unicode="V" horiz-adv-x="1081" 
d="M733 -12h-555l-43 1609h373l-10 -1280l301 1280h372z" />
    <glyph glyph-name="W" unicode="W" horiz-adv-x="1617" 
d="M858 -12l2 1108l-268 -1108h-481l28 1609h367l-64 -1126l273 1126h413l-2 -1126l211 1126h367l-365 -1609h-481z" />
    <glyph glyph-name="X" unicode="X" horiz-adv-x="1187" 
d="M651 0l-69 567l-209 -567h-430l344 817l-131 780h413l70 -563l205 563h413l-323 -780l147 -817h-430z" />
    <glyph glyph-name="Y" unicode="Y" horiz-adv-x="1099" 
d="M578 895l266 702h377l-512 -1081l-56 -516h-368l65 516l-246 1081h377z" />
    <glyph glyph-name="Z" unicode="Z" horiz-adv-x="1081" 
d="M-27 0l31 264l588 895l80 113l-240 -2h-266l39 327h917l-32 -264l-584 -895l-82 -112l242 2h303l-39 -328h-957z" />
    <glyph glyph-name="bracketleft" unicode="[" horiz-adv-x="671" 
d="M698 1372h-114l-162 -1311h115l-39 -327h-482l240 1966h481z" />
    <glyph glyph-name="backslash" unicode="\" horiz-adv-x="872" 
d="M381 -184l-227 1966h366l228 -1966h-367z" />
    <glyph glyph-name="bracketright" unicode="]" horiz-adv-x="671" 
d="M-16 61h114l162 1311h-115l39 328h482l-240 -1966h-481z" />
    <glyph glyph-name="asciicircum" unicode="^" horiz-adv-x="1236" 
d="M573 1630h324l322 -811h-385l-103 291l-41 127l-78 -127l-172 -291h-385z" />
    <glyph glyph-name="underscore" unicode="_" horiz-adv-x="753" 
d="M555 -410h-621l29 256h623z" />
    <glyph glyph-name="grave" unicode="`" horiz-adv-x="1269" 
d="M455 1638h401l37 -426h-367z" />
    <glyph glyph-name="a" unicode="a" horiz-adv-x="1089" 
d="M600 362l45 361q-49 72 -115 72q-143 0 -143 -383q0 -69 19.5 -95t62.5 -26q70 0 131 71zM1008 774l-58 -463l-28 -311h-324l-2 94q-50 -59 -112.5 -89t-157.5 -30q-306 0 -306 398q0 157 24.5 283.5t66 210t99 139.5t121 80t134.5 24q95 0 150 -30t92 -89l24 94h324z
" />
    <glyph glyph-name="b" unicode="b" horiz-adv-x="1089" 
d="M731 1110q303 0 303 -397q0 -158 -24 -284t-65.5 -210t-98.5 -139.5t-120 -80t-134 -24.5q-94 0 -148.5 30t-93.5 89l-22 -94h-324l45 311l164 1327h358l-75 -620q40 44 92 68t143 24zM459 723l-45 -361q48 -71 112 -71q144 0 144 383q0 68 -19.5 94.5t-62.5 26.5
q-67 0 -129 -72z" />
    <glyph glyph-name="c" unicode="c" horiz-adv-x="974" 
d="M520 799q-145 0 -145 -389q0 -71 19.5 -97t64.5 -26q44 0 66 39t32 116l326 -112q-16 -89 -43.5 -150.5t-79 -110t-135.5 -71.5t-205 -23q-214 0 -307 88.5t-93 298.5q0 128 14 232.5t50.5 203t96 165.5t155.5 107t223 40q98 0 167.5 -16.5t119.5 -55.5t72 -107t18 -167
l-354 -121q0 1 1.5 18.5t1.5 22.5t0.5 22t-1 23.5t-3.5 20.5t-7.5 20.5t-12.5 14.5t-17.5 11t-23.5 3z" />
    <glyph glyph-name="d" unicode="d" horiz-adv-x="1089" 
d="M467 1110q90 0 135.5 -23.5t79.5 -68.5l76 620h356l-164 -1327l-28 -311h-324l-2 94q-50 -59 -112 -89t-156 -30q-308 0 -308 398q0 158 24.5 284t65.5 209.5t99 139.5t122 80t136 24zM600 362l45 361q-49 72 -113 72q-145 0 -145 -381q0 -70 19.5 -96.5t64.5 -26.5
q68 0 129 71z" />
    <glyph glyph-name="e" unicode="e" horiz-adv-x="1011" 
d="M936 438h-543q-6 -50 -6 -86q0 -47 15.5 -69.5t52.5 -22.5q81 0 94 98l344 -118q-15 -63 -43 -108.5t-80 -82.5t-137 -55.5t-203 -18.5q-116 0 -195.5 23.5t-126.5 73.5t-67.5 119.5t-20.5 168.5q0 80 6 152t22.5 149.5t42.5 141t68.5 122t97.5 98.5t133.5 63.5
t172.5 23.5q216 0 307 -95.5t91 -297.5q0 -76 -13 -178zM524 825q-46 0 -70 -40t-36 -136h162q6 53 6 86q0 49 -14.5 69.5t-47.5 20.5z" />
    <glyph glyph-name="f" unicode="f" horiz-adv-x="749" 
d="M51 788l37 297h123l27 228q20 170 130 260t300 90q117 0 196 -27l-53 -293q-49 17 -102 17q-59 0 -87 -23t-34 -75l-21 -177h187l-37 -297h-187l-147 -1198h-356l147 1198h-123z" />
    <glyph glyph-name="g" unicode="g" horiz-adv-x="1099" 
d="M342 33q-305 0 -305 383q0 183 35.5 320t97.5 217t138.5 118.5t166.5 38.5q95 0 149 -30t93 -89l24 94h324l-47 -311l-98 -803q-27 -219 -156.5 -312t-355.5 -93q-234 0 -329 63t-95 217l362 123q-5 -55 12.5 -87t75.5 -32q60 0 89.5 33.5t39.5 114.5l17 127
q-40 -44 -93 -68t-145 -24zM616 420l37 303q-49 72 -112 72q-31 0 -54 -15t-43 -51t-30.5 -103.5t-10.5 -164.5q0 -64 19 -88.5t63 -24.5q66 0 131 72z" />
    <glyph glyph-name="h" unicode="h" horiz-adv-x="1093" 
d="M569 1638l-75 -620q61 48 128.5 70t161.5 22q149 0 204 -80.5t36 -245.5l-96 -784h-357l86 707q6 49 -11 68.5t-52 19.5q-76 0 -137 -72l-88 -723h-359l201 1638h358z" />
    <glyph glyph-name="i" unicode="i" horiz-adv-x="544" 
d="M12 0l133 1085h357l-133 -1085h-357zM567 1597l-43 -362h-366l43 362h366z" />
    <glyph glyph-name="j" unicode="j" horiz-adv-x="544" 
d="M502 1085l-146 -1177q-45 -350 -411 -350q-117 0 -193 26l51 295q43 -16 105 -16q87 0 98 88l139 1134h357zM567 1597l-43 -362h-366l43 362h366z" />
    <glyph glyph-name="k" unicode="k" horiz-adv-x="1064" 
d="M446 735l205 350h420l-332 -411l228 -674h-416l-78 360l-86 -104l-20 -256h-357l201 1638h356z" />
    <glyph glyph-name="l" unicode="l" horiz-adv-x="552" 
d="M16 0l201 1638h356l-200 -1638h-357z" />
    <glyph glyph-name="m" unicode="m" horiz-adv-x="1572" 
d="M461 1085v-98q132 123 315 123q53 0 93 -12.5t61.5 -32.5t31.5 -36.5t15 -33.5q131 115 317 115q132 0 180.5 -75t32.5 -216l-100 -819h-356l90 737q6 58 -51 58q-60 0 -111 -54l-90 -741h-357l91 737q6 58 -54 58t-108 -54l-90 -741h-359l94 774l31 311h324z" />
    <glyph glyph-name="n" unicode="n" horiz-adv-x="1093" 
d="M459 1085v-94q75 65 147.5 92t177.5 27q149 0 204 -80.5t36 -245.5l-96 -784h-357l86 707q6 49 -11 68.5t-52 19.5q-76 0 -137 -72l-88 -723h-359l94 774l33 311h322z" />
    <glyph glyph-name="o" unicode="o" horiz-adv-x="1019" 
d="M463 289q33 0 59 19.5t41 54.5t25.5 72t14.5 83.5t5.5 77t1.5 63.5q0 76 -22 107t-64 31q-33 0 -59 -19.5t-41 -55t-25.5 -72.5t-14.5 -84t-5.5 -77.5t-1.5 -64.5q0 -75 21 -105t65 -30zM428 -25q-210 0 -309 95t-99 313q0 84 5.5 155.5t21 148t40.5 136.5t66.5 115.5
t97 92t134 58t174.5 21.5q210 0 309 -95.5t99 -314.5q0 -85 -5.5 -156.5t-21 -147.5t-40.5 -136t-66.5 -115t-97 -91t-134 -57.5t-174.5 -21.5z" />
    <glyph glyph-name="p" unicode="p" horiz-adv-x="1089" 
d="M592 -25q-90 0 -135.5 24t-77.5 69l-60 -478h-358l145 1184l31 311h324v-94q52 59 114 89t156 30q303 0 303 -397q0 -158 -24 -284t-65.5 -210t-98.5 -139.5t-120 -80t-134 -24.5zM459 723l-45 -361q48 -71 112 -71q144 0 144 383q0 68 -19.5 94.5t-62.5 26.5
q-67 0 -129 -72z" />
    <glyph glyph-name="q" unicode="q" horiz-adv-x="1089" 
d="M326 -25q-306 0 -306 398q0 157 24.5 283.5t66 210t99 139.5t121 80t134.5 24q95 0 150 -30t92 -89l24 94h324l-47 -311l-146 -1184h-356l59 478q-43 -45 -95 -69t-144 -24zM600 362l45 361q-49 72 -115 72q-143 0 -143 -383q0 -69 19.5 -95t62.5 -26q70 0 131 71z" />
    <glyph glyph-name="r" unicode="r" horiz-adv-x="751" 
d="M637 762q-101 0 -184 -62l-84 -700h-359l94 774l33 311h322v-106q92 131 219 131q55 0 90 -25l-59 -331q-21 8 -72 8z" />
    <glyph glyph-name="s" unicode="s" horiz-adv-x="1003" 
d="M440 248q49 0 75 28.5t26 79.5q0 34 -24 47.5t-77 18.5q-101 9 -165 23.5t-115.5 43.5t-74 77.5t-22.5 121.5q0 422 496 422q97 0 165 -11.5t119.5 -39.5t75 -78t21.5 -125l-365 -125q3 20 3 44t-13.5 43.5t-38.5 19.5q-69 0 -69 -101q0 -58 88 -65q77 -6 130 -14.5
t102.5 -26t78 -45t45.5 -70.5t17 -102q0 -439 -527 -439q-77 0 -133 5.5t-109.5 22.5t-85.5 46t-50 77.5t-15 115.5l364 125q-11 -47 9 -83t69 -36z" />
    <glyph glyph-name="t" unicode="t" horiz-adv-x="790" 
d="M47 788l37 297h127l35 287h356l-35 -287h217l-36 -297h-218l-51 -419q-11 -90 76 -90q55 0 109 16l-19 -293q-88 -27 -205 -27q-365 0 -323 351l57 462h-127z" />
    <glyph glyph-name="u" unicode="u" horiz-adv-x="1093" 
d="M604 0l-2 94q-75 -64 -148 -91.5t-178 -27.5q-149 0 -203.5 80.5t-33.5 245.5l96 784h357l-89 -706q-10 -88 62 -88q75 0 139 71l90 723h357l-97 -774l-28 -311h-322z" />
    <glyph glyph-name="v" unicode="v" horiz-adv-x="976" 
d="M1016 1085l-350 -1085h-519l-84 1085h377l2 -778l197 778h377z" />
    <glyph glyph-name="w" unicode="w" horiz-adv-x="1384" 
d="M580 1085h327l25 -602l119 602h342l-279 -1085h-407l-21 623l-172 -623h-408l-12 1085h342l-33 -602z" />
    <glyph glyph-name="x" unicode="x" horiz-adv-x="1056" 
d="M524 0l-32 377l-123 -377h-418l256 553l-101 532h396l30 -383l125 383h396l-232 -532l121 -553h-418z" />
    <glyph glyph-name="y" unicode="y" horiz-adv-x="1048" 
d="M489 387l218 698h378l-456 -1077l-199 -418h-403l217 396l-178 1099h378z" />
    <glyph glyph-name="z" unicode="z" horiz-adv-x="870" 
d="M-53 0l28 240l426 536l-329 -6l39 315h751l-31 -239l-428 -537l392 6l-37 -315h-811z" />
    <glyph glyph-name="braceleft" unicode="{" horiz-adv-x="731" 
d="M631 61l-39 -327h-84q-441 0 -391 411l39 310q11 102 -103 102h-49l39 322h49q116 0 127 102l39 307q50 412 490 412h83l-38 -328h-50q-118 0 -129 -102l-41 -324q-9 -80 -53 -140t-119 -89q67 -29 96.5 -89t20.5 -139l-41 -325q-6 -54 22.5 -78.5t82.5 -24.5h49z" />
    <glyph glyph-name="bar" unicode="|" horiz-adv-x="673" 
d="M645 1700l-239 -1966h-367l240 1966h366z" />
    <glyph glyph-name="braceright" unicode="}" horiz-adv-x="731" 
d="M160 1372h-51l38 328h86q77 0 139 -13t104 -35.5t73.5 -53.5t47 -68t25.5 -77.5t8 -82t-5 -82.5l-39 -309q-11 -102 100 -102h49l-39 -322h-49q-114 0 -125 -102l-39 -308q-50 -411 -489 -411h-84l37 327h51q116 0 127 103l41 323q9 79 53.5 140t118.5 90q-66 29 -96 89
t-21 138l41 326q11 102 -102 102z" />
    <glyph glyph-name="asciitilde" unicode="~" horiz-adv-x="1064" 
d="M741 784q52 0 94.5 24t53.5 40l125 -191q-6 -12 -22 -31t-46 -45t-66 -48t-86.5 -37t-101.5 -15q-62 0 -116.5 17t-87.5 37.5t-76 37.5t-84 17q-51 0 -93 -23t-57 -41l-125 191q6 12 22 31t46 45t66 48t86.5 37t101.5 15q62 0 117 -17t88.5 -37.5t76.5 -37.5t84 -17z" />
    <glyph glyph-name="nbspace" unicode="&#xa0;" horiz-adv-x="450" 
 />
    <glyph glyph-name="exclamdown" unicode="&#xa1;" horiz-adv-x="542" 
d="M506 1085l-45 -362h-367l45 362h367zM334 -410h-391l174 988h284z" />
    <glyph glyph-name="cent" unicode="&#xa2;" horiz-adv-x="974" 
d="M551 1047q-39 0 -68.5 -33t-44 -77.5t-23 -106t-10.5 -101.5t-2 -82q0 -72 20 -100.5t64 -28.5q48 0 67 27t26 86l325 -115q-15 -72 -40 -123t-70 -93t-116 -65t-171 -28l-86 -207h-313l102 248q-84 41 -123 127t-39 227q0 78 5 145.5t18.5 143t35.5 136.5t59.5 119.5
t87 100.5t120 71t157.5 38l86 209h312l-103 -242q144 -66 144 -268l-355 -121q1 28 2 53t-15.5 42.5t-51.5 17.5z" />
    <glyph glyph-name="sterling" unicode="&#xa3;" horiz-adv-x="1167" 
d="M780 1589q126 0 207 -21.5t124 -68t57 -108.5t8 -154l-369 -125q14 89 1.5 132.5t-65.5 43.5q-54 0 -75.5 -39.5t-32.5 -136.5l-19 -149h345l-37 -297h-344l-41 -340h526l-39 -326h-1030l39 326h147l41 340h-147l37 297h147l25 194q12 93 29.5 156t51.5 119t86.5 88.5
t133.5 50.5t194 18z" />
    <glyph glyph-name="currency" unicode="&#xa4;" horiz-adv-x="1679" 
d="M840 506q129 0 194.5 65t65.5 211t-65.5 211.5t-194.5 65.5t-194.5 -65.5t-65.5 -211.5t65.5 -211t194.5 -65zM59 256l213 213q-69 135 -69 313q0 179 69 314l-213 213l238 237l219 -219q141 66 324 66q182 0 323 -66l219 219l238 -237l-213 -213q70 -134 70 -314
q0 -179 -70 -313l213 -213l-238 -238l-219 220q-141 -66 -323 -66q-183 0 -324 66l-219 -220z" />
    <glyph glyph-name="yen" unicode="&#xa5;" horiz-adv-x="1187" 
d="M616 862l269 703h377l-367 -772h207l-29 -228h-287l-38 -82h315l-27 -227h-313l-27 -256h-368l32 256h-311l27 227h315l-18 82h-287l29 228h204l-176 772h377z" />
    <glyph glyph-name="brokenbar" unicode="&#xa6;" horiz-adv-x="718" 
d="M541 604l-107 -870h-379l107 870h379zM674 1700l-107 -871h-379l107 871h379z" />
    <glyph glyph-name="section" unicode="&#xa7;" horiz-adv-x="1126" 
d="M711 1622q87 0 147.5 -8.5t112 -30.5t81 -61.5t44.5 -101.5t12 -150l-367 -125q4 27 5.5 42t0.5 44.5t-7.5 46t-23.5 30t-44 13.5q-51 0 -80 -49t-29 -119q0 -58 31 -87t102 -40q186 -27 278.5 -98t92.5 -219q0 -321 -231 -408q90 -44 90 -225q0 -133 -38 -232
t-109.5 -159t-167 -89.5t-216.5 -29.5q-82 0 -143.5 9t-114.5 32.5t-85 62.5t-46.5 101.5t-7.5 146.5l367 125q-3 -22 -4 -35t-2 -37t3 -39.5t12 -32t23.5 -24.5t38.5 -8q50 0 79.5 48.5t29.5 117.5q0 58 -32 89t-103 40q-185 25 -278 96.5t-93 218.5q0 323 233 410
q-49 22 -71.5 84t-22.5 141q0 132 38.5 231t110 159.5t167.5 90t217 29.5zM537 461q80 0 116.5 41t36.5 125q0 50 -29 75t-92 25q-80 0 -116.5 -41t-36.5 -125q0 -50 29 -75t92 -25z" />
    <glyph glyph-name="dieresis" unicode="&#xa8;" horiz-adv-x="1269" 
d="M686 1597l-43 -362h-367l43 362h367zM1176 1597l-43 -362h-367l43 362h367z" />
    <glyph glyph-name="copyright" unicode="&#xa9;" horiz-adv-x="1884" 
d="M1130 938l377 129q-11 141 -126.5 224t-352.5 83q-102 0 -196 -28.5t-173 -85.5t-137.5 -136.5t-91.5 -188t-33 -233.5q0 -227 133.5 -353t356.5 -126q240 0 377.5 85.5t181.5 230.5l-350 120q-7 -38 -19 -58.5t-48 -34t-101 -13.5q-81 0 -118.5 41t-37.5 133
q0 317 215 317q24 0 40.5 -1.5t37.5 -7.5t34 -16.5t22 -31t9 -49.5zM856 -33q-156 0 -293.5 56.5t-234.5 153.5t-153 232t-56 287q0 185 78 358t206 298.5t300.5 201.5t353.5 76q156 0 293.5 -56.5t234.5 -153.5t153 -232t56 -287q0 -185 -78 -358t-206 -298.5
t-300.5 -201.5t-353.5 -76z" />
    <glyph glyph-name="ordfeminine" unicode="&#xaa;" horiz-adv-x="946" 
d="M934 1362l-39 -328l-25 -235h-276l-2 84q-73 -117 -234 -117q-115 0 -180 70t-65 237q0 127 21 226t55 160t81 100.5t94.5 55t100.5 15.5q90 0 137 -31t68 -86l22 84h277zM539 1382q-37 0 -62.5 -27.5t-36 -73t-14.5 -83t-4 -78.5q0 -64 19 -85t53 -21q55 0 96 41l35 286
q-30 41 -86 41z" />
    <glyph glyph-name="guillemotleft" unicode="&#xab;" horiz-adv-x="1105" 
d="M516 535l-37 -291l-389 293l27 217l461 293l-35 -289l-135 -113zM967 535l-37 -291l-389 293l26 217l461 293l-35 -289l-135 -113z" />
    <glyph glyph-name="logicalnot" unicode="&#xac;" horiz-adv-x="1474" 
d="M954 426v410h-770v335h1106v-745h-336z" />
    <glyph glyph-name="uni00AD" unicode="&#xad;" horiz-adv-x="843" 
d="M715 518h-623l41 336h623z" />
    <glyph glyph-name="registered" unicode="&#xae;" horiz-adv-x="1884" 
d="M905 643l133 -387h355l-168 430q173 80 200 307q43 348 -333 348h-498l-133 -1085h295l47 387h102zM1044 934h-206l16 119h207q31 0 49 -12.5t14 -47.5q-7 -59 -80 -59zM856 -33q-156 0 -293.5 56.5t-234.5 153.5t-153 232t-56 287q0 185 78 358t206 298.5t300.5 201.5
t353.5 76q156 0 293.5 -56.5t234.5 -153.5t153 -232t56 -287q0 -185 -78 -358t-206 -298.5t-300.5 -201.5t-353.5 -76z" />
    <glyph glyph-name="macron" unicode="&#xaf;" horiz-adv-x="1269" 
d="M449 1262l40 335h517l-41 -335h-516z" />
    <glyph glyph-name="degree" unicode="&#xb0;" horiz-adv-x="1007" 
d="M504 1098q59 0 92 29.5t33 89.5q0 120 -125 120t-125 -120q0 -59 33.5 -89t91.5 -30zM504 836q-180 0 -291 97.5t-111 283.5t111 283t291 97t290.5 -97t110.5 -283t-110.5 -283.5t-290.5 -97.5z" />
    <glyph glyph-name="plusminus" unicode="&#xb1;" horiz-adv-x="1474" 
d="M569 614v252h-385v336h385v252h336v-252h385v-336h-385v-252h-336zM1290 143h-1106v336h1106v-336z" />
    <glyph glyph-name="twosuperior" unicode="&#xb2;" 
d="M467 1395q-19 0 -32 -26.5t-21 -102.5l-246 84q15 84 43.5 130t96 71.5t186.5 25.5q133 0 196.5 -44.5t63.5 -139.5q0 -45 -4.5 -78t-17.5 -63t-30 -52.5t-50 -48.5t-69 -48.5t-94 -55.5q-71 -41 -93 -70.5t-27 -73.5h331l-22 -186h-602q11 91 17 130t20 93t29 75.5
t47 55.5t71.5 58t104.5 59q78 41 104.5 75t26.5 99q0 33 -29 33z" />
    <glyph glyph-name="threesuperior" unicode="&#xb3;" 
d="M399 887q66 0 66 119q0 30 -14 41.5t-50 11.5h-65l24 184h66q27 0 37 26t10 97q0 17 -6 23t-23 6q-24 0 -34 -22.5t-19 -96.5l-233 80q25 120 94 170.5t221 50.5q136 0 197 -47.5t61 -171.5q0 -154 -110 -201q51 -13 74.5 -47.5t23.5 -112.5q0 -52 -9 -93t-33.5 -79.5
t-63.5 -64t-101 -40.5t-145 -15q-67 0 -114.5 9t-87 32t-57.5 68.5t-14 113.5l260 90q-11 -73 -2 -98q10 -33 47 -33z" />
    <glyph glyph-name="acute" unicode="&#xb4;" horiz-adv-x="1269" 
d="M651 1638h402l-179 -426h-366z" />
    <glyph glyph-name="mu" unicode="&#xb5;" horiz-adv-x="1093" 
d="M-49 -410l184 1495h357l-89 -706q-10 -88 62 -88q75 0 139 71l90 723h357l-97 -774l-28 -311h-322l-2 94q-47 -63 -116.5 -91t-131.5 -28l-47 -385h-356z" />
    <glyph glyph-name="paragraph" unicode="&#xb6;" horiz-adv-x="1159" 
d="M598 0l156 1270h-74l-156 -1270h-73l63 516h-31q-58 0 -106 7.5t-94 25t-81 48.5t-61.5 75t-40.5 108t-14 144q0 115 16.5 210.5t45 164t70 121.5t87.5 86t101.5 54t108 29t110.5 8h536l-194 -1597h-369zM606 1270q-145 -4 -145 -299q0 -67 21 -96t71 -29z" />
    <glyph glyph-name="periodcentered" unicode="&#xb7;" horiz-adv-x="655" 
d="M541 874l-45 -372h-377l45 372h377z" />
    <glyph glyph-name="cedilla" unicode="&#xb8;" horiz-adv-x="1269" 
d="M424 25h192l-36 -93q229 -49 190 -202q-21 -86 -102 -129t-191 -43q-154 0 -258 47l70 155q47 -26 98 -34q97 -15 105 43q3 28 -38 49t-114 28z" />
    <glyph glyph-name="onesuperior" unicode="&#xb9;" 
d="M680 717h-580l23 186h164l47 377q-68 -50 -184 -68l24 213q74 14 145.5 59.5t104.5 92.5h199l-84 -674h163z" />
    <glyph glyph-name="ordmasculine" unicode="&#xba;" horiz-adv-x="901" 
d="M489 1008q29 0 50.5 10.5t41.5 37.5t31 83t11 139q0 65 -20.5 88t-63.5 23q-22 0 -40 -6t-36 -23.5t-30 -46.5t-19.5 -78.5t-7.5 -116.5q0 -65 20 -87.5t63 -22.5zM461 766q-185 0 -266.5 71t-81.5 238q0 300 110.5 427.5t343.5 127.5q185 0 266.5 -71t81.5 -238
q0 -300 -110.5 -427.5t-343.5 -127.5z" />
    <glyph glyph-name="guillemotright" unicode="&#xbb;" horiz-adv-x="1105" 
d="M520 244l37 291l133 110l-106 113l34 289l392 -293l-27 -217zM70 244l36 291l134 110l-107 113l35 289l391 -293l-27 -217z" />
    <glyph glyph-name="onequarter" unicode="&#xbc;" horiz-adv-x="1810" 
d="M680 725h-580l23 186h164l47 377q-66 -49 -184 -67l24 213q75 14 146 59t104 92h199l-84 -674h163zM340 0l991 1565h268l-991 -1565h-268zM1696 176h-72l-22 -176h-246l22 176h-311l18 156l336 528h287l-61 -498h71zM1401 362l45 248l-135 -252z" />
    <glyph glyph-name="onehalf" unicode="&#xbd;" horiz-adv-x="1912" 
d="M680 725h-580l23 186h164l47 377q-66 -49 -184 -67l24 213q75 14 146 59t104 92h199l-84 -674h163zM340 0l991 1565h268l-991 -1565h-268zM1550 678q-19 0 -32 -26.5t-21 -102.5l-246 84q15 84 43.5 130t96 71.5t186.5 25.5q133 0 196.5 -44.5t63.5 -139.5
q0 -89 -23.5 -143.5t-74.5 -96t-166 -106.5q-71 -41 -93.5 -70.5t-27.5 -73.5h332l-23 -186h-602q11 91 17 130t20 93t29 75.5t47 55.5t71.5 58t104.5 59q78 41 104.5 75t26.5 99q0 33 -29 33z" />
    <glyph glyph-name="threequarters" unicode="&#xbe;" horiz-adv-x="1810" 
d="M399 895q66 0 66 119q0 30 -14 41.5t-50 11.5h-65l24 184h66q27 0 37 26t10 97q0 17 -6 23t-23 6q-24 0 -34 -22.5t-19 -96.5l-233 80q25 120 94 170.5t221 50.5q136 0 197 -47.5t61 -171.5q0 -154 -110 -201q51 -13 74.5 -47t23.5 -112q0 -65 -16 -115t-53.5 -91.5
t-108.5 -64t-174 -22.5q-67 0 -114.5 9t-87 32t-57.5 68.5t-14 113.5l260 90q-11 -73 -2 -98q10 -33 47 -33zM340 0l991 1565h268l-991 -1565h-268zM1696 176h-72l-22 -176h-246l22 176h-311l18 156l336 528h287l-61 -498h71zM1401 362l45 248l-135 -252z" />
    <glyph glyph-name="questiondown" unicode="&#xbf;" horiz-adv-x="1064" 
d="M430 578h256q33 -73 33 -160q0 -103 -55.5 -169t-208.5 -140q-115 -56 -115 -146q0 -72 92 -72q70 0 104.5 46t49.5 167l334 -114q-38 -219 -156.5 -321.5t-370.5 -102.5q-227 0 -330.5 73t-103.5 236q0 65 11 120t26 95t44 76t52.5 58.5t66 48t70.5 39t78 36.5
q78 35 102.5 71t24.5 99q0 24 -4 60zM383 723l45 362h367l-45 -362h-367z" />
    <glyph glyph-name="Agrave" unicode="&#xc0;" horiz-adv-x="1081" 
d="M377 1610h555l45 -1610h-373v256h-231l-60 -256h-372zM614 1280l-172 -725h166zM408 2109h401l37 -426h-367z" />
    <glyph glyph-name="Aacute" unicode="&#xc1;" horiz-adv-x="1081" 
d="M377 1610h555l45 -1610h-373v256h-231l-60 -256h-372zM614 1280l-172 -725h166zM625 2109h401l-178 -426h-367z" />
    <glyph glyph-name="Acircumflex" unicode="&#xc2;" horiz-adv-x="1081" 
d="M377 1610h555l45 -1610h-373v256h-231l-60 -256h-372zM614 1280l-172 -725h166zM575 1683h-292l233 426h402l126 -426h-292l-66 172z" />
    <glyph glyph-name="Atilde" unicode="&#xc3;" horiz-adv-x="1081" 
d="M377 1610h555l45 -1610h-373v256h-231l-60 -256h-372zM614 1280l-172 -725h166zM901 2083l252 -31q-76 -401 -319 -401q-59 0 -107 24t-73.5 52.5t-54 52.5t-52.5 24q-28 0 -45 -23.5t-20 -46.5l-3 -24l-250 31q72 401 318 401q48 0 88.5 -16t67 -38t48.5 -44.5
t43.5 -38.5t41.5 -16q28 0 44 23.5t18 47.5z" />
    <glyph glyph-name="Adieresis" unicode="&#xc4;" horiz-adv-x="1081" 
d="M377 1610h555l45 -1610h-373v256h-231l-60 -256h-372zM614 1280l-172 -725h166zM651 2068l-45 -362h-366l45 362h366zM1141 2068l-45 -362h-367l45 362h367z" />
    <glyph glyph-name="Aring" unicode="&#xc5;" horiz-adv-x="1081" 
d="M377 1610h555l45 -1610h-373v256h-231l-60 -256h-372zM614 1280l-172 -725h166zM444 1896q14 110 88 178t189 68t172 -68t43 -178q-12 -109 -87 -177t-190 -68q-114 0 -170.5 67.5t-44.5 177.5zM748 1896q9 58 -50 58q-56 0 -65 -58q-6 -57 51 -57q58 0 64 57z" />
    <glyph glyph-name="AE" unicode="&#xc6;" horiz-adv-x="1515" 
d="M516 1597h1028l-39 -327h-477l-10 -291h362l-39 -326h-335l-15 -325h420l-39 -328h-758l17 256h-248l-80 -256h-373zM700 1260l-223 -705h174z" />
    <glyph glyph-name="Ccedilla" unicode="&#xc7;" horiz-adv-x="1179" 
d="M678 1303q-58 0 -105.5 -80.5t-74.5 -203.5t-41.5 -251t-14.5 -240q0 -118 26 -175.5t85 -57.5q87 0 126 52t62 210l344 -121q-40 -234 -146.5 -339t-330.5 -120l-18 -45q229 -49 190 -202q-21 -86 -102 -129t-191 -43q-154 0 -258 47l70 155q47 -26 98 -34
q97 -15 105 43q3 28 -38 49t-114 28l64 138q-170 24 -255 150t-85 388q0 107 6.5 205t24.5 211.5t47.5 208t80.5 185t117.5 152.5t163 100t213.5 38q129 0 215.5 -22.5t143.5 -75.5t78 -140t12 -217l-375 -127q3 28 3.5 37t2.5 37.5t0.5 40.5t-4 36.5t-8.5 36.5t-15.5 29
t-23.5 25t-33.5 14.5t-44.5 6.5z" />
    <glyph glyph-name="Egrave" unicode="&#xc8;" horiz-adv-x="1021" 
d="M219 1597h832l-39 -327h-465l-37 -291h377l-39 -326h-377l-41 -325h488l-39 -328h-854zM410 2109h401l37 -426h-367z" />
    <glyph glyph-name="Eacute" unicode="&#xc9;" horiz-adv-x="1021" 
d="M219 1597h832l-39 -327h-465l-37 -291h377l-39 -326h-377l-41 -325h488l-39 -328h-854zM606 2109h402l-179 -426h-366z" />
    <glyph glyph-name="Ecircumflex" unicode="&#xca;" horiz-adv-x="1021" 
d="M219 1597h832l-39 -327h-465l-37 -291h377l-39 -326h-377l-41 -325h488l-39 -328h-854zM567 1683h-293l234 426h401l127 -426h-293l-65 172z" />
    <glyph glyph-name="Edieresis" unicode="&#xcb;" horiz-adv-x="1024" 
d="M219 1597h832l-39 -327h-465l-37 -291h377l-39 -326h-377l-41 -325h488l-39 -328h-854zM643 2068l-45 -362h-367l45 362h367zM1133 2068l-46 -362h-366l45 362h367z" />
    <glyph glyph-name="Igrave" unicode="&#xcc;" horiz-adv-x="602" 
d="M598 1597l-195 -1597h-368l194 1597h369zM168 2109h401l37 -426h-366z" />
    <glyph glyph-name="Iacute" unicode="&#xcd;" horiz-adv-x="602" 
d="M598 1597l-195 -1597h-368l194 1597h369zM385 2109h401l-178 -426h-366z" />
    <glyph glyph-name="Icircumflex" unicode="&#xce;" horiz-adv-x="602" 
d="M598 1597l-195 -1597h-368l194 1597h369zM336 1683h-293l233 426h402l127 -426h-293l-66 172z" />
    <glyph glyph-name="Idieresis" unicode="&#xcf;" horiz-adv-x="602" 
d="M598 1597l-195 -1597h-368l194 1597h369zM412 2068l-45 -362h-367l45 362h367zM901 2068l-45 -362h-367l46 362h366z" />
    <glyph glyph-name="Eth" unicode="&#xd0;" horiz-adv-x="1320" 
d="M575 0h-469l80 653h-125l39 326h125l76 618h469q272 0 391 -120t119 -406q0 -202 -22.5 -363.5t-74.5 -296t-132.5 -224t-200.5 -138.5t-275 -49zM514 328h102q72 0 126.5 47t85.5 119t50.5 172.5t26 191t6.5 191.5q0 113 -39.5 167t-138.5 54h-102l-37 -291h190
l-39 -326h-192z" />
    <glyph glyph-name="Ntilde" unicode="&#xd1;" horiz-adv-x="1234" 
d="M616 1597l101 -462l80 -390l37 308l65 544h342l-194 -1597h-398l-102 463l-78 389l-37 -307l-61 -545h-346l194 1597h397zM977 2083l252 -31q-76 -401 -320 -401q-48 0 -88.5 16t-66 38.5t-47 44.5t-43 38t-41.5 16q-28 0 -45 -23.5t-20 -46.5l-3 -24l-250 31
q72 401 318 401q48 0 88.5 -16t66.5 -38t48 -44.5t43.5 -38.5t41.5 -16q28 0 44.5 23.5t18.5 47.5z" />
    <glyph glyph-name="Ograve" unicode="&#xd2;" horiz-adv-x="1204" 
d="M479 2109h402l37 -426h-367zM555 295q62 0 110.5 77t76 198t41.5 251.5t14 255.5q0 226 -117 226q-62 0 -110.5 -77t-76 -198.5t-41.5 -252t-14 -255.5q0 -225 117 -225zM516 -25q-124 0 -212 36.5t-139 108.5t-74 168t-23 226q0 161 12.5 296.5t41 263.5t78.5 225.5
t120.5 171.5t171.5 112.5t227 38.5q124 0 212 -36.5t139 -108.5t74 -168t23 -226q0 -161 -12.5 -296.5t-41 -263.5t-78.5 -225.5t-120.5 -171.5t-171.5 -112.5t-227 -38.5z" />
    <glyph glyph-name="Oacute" unicode="&#xd3;" horiz-adv-x="1204" 
d="M676 2109h401l-178 -426h-367zM555 295q62 0 110.5 77t76 198t41.5 251.5t14 255.5q0 226 -117 226q-62 0 -110.5 -77t-76 -198.5t-41.5 -252t-14 -255.5q0 -225 117 -225zM516 -25q-124 0 -212 36.5t-139 108.5t-74 168t-23 226q0 161 12.5 296.5t41 263.5t78.5 225.5
t120.5 171.5t171.5 112.5t227 38.5q124 0 212 -36.5t139 -108.5t74 -168t23 -226q0 -161 -12.5 -296.5t-41 -263.5t-78.5 -225.5t-120.5 -171.5t-171.5 -112.5t-227 -38.5z" />
    <glyph glyph-name="Ocircumflex" unicode="&#xd4;" horiz-adv-x="1204" 
d="M637 1683h-293l234 426h401l127 -426h-293l-65 172zM555 295q62 0 110.5 77t76 198t41.5 251.5t14 255.5q0 226 -117 226q-62 0 -110.5 -77t-76 -198.5t-41.5 -252t-14 -255.5q0 -225 117 -225zM516 -25q-124 0 -212 36.5t-139 108.5t-74 168t-23 226q0 161 12.5 296.5
t41 263.5t78.5 225.5t120.5 171.5t171.5 112.5t227 38.5q124 0 212 -36.5t139 -108.5t74 -168t23 -226q0 -161 -12.5 -296.5t-41 -263.5t-78.5 -225.5t-120.5 -171.5t-171.5 -112.5t-227 -38.5z" />
    <glyph glyph-name="Otilde" unicode="&#xd5;" horiz-adv-x="1204" 
d="M963 2083l251 -31q-76 -401 -319 -401q-59 0 -107 24t-73.5 52.5t-54 52.5t-52.5 24q-28 0 -45 -23.5t-19 -46.5l-3 -24l-250 31q72 401 317 401q48 0 88.5 -16t67 -38t48.5 -44.5t43.5 -38.5t41.5 -16q28 0 44.5 23.5t18.5 47.5zM555 295q62 0 110.5 77t76 198
t41.5 251.5t14 255.5q0 226 -117 226q-62 0 -110.5 -77t-76 -198.5t-41.5 -252t-14 -255.5q0 -225 117 -225zM516 -25q-124 0 -212 36.5t-139 108.5t-74 168t-23 226q0 161 12.5 296.5t41 263.5t78.5 225.5t120.5 171.5t171.5 112.5t227 38.5q124 0 212 -36.5t139 -108.5
t74 -168t23 -226q0 -161 -12.5 -296.5t-41 -263.5t-78.5 -225.5t-120.5 -171.5t-171.5 -112.5t-227 -38.5z" />
    <glyph glyph-name="Odieresis" unicode="&#xd6;" horiz-adv-x="1204" 
d="M713 2068l-45 -362h-367l45 362h367zM1202 2068l-45 -362h-366l45 362h366zM555 295q62 0 110.5 77t76 198t41.5 251.5t14 255.5q0 226 -117 226q-62 0 -110.5 -77t-76 -198.5t-41.5 -252t-14 -255.5q0 -225 117 -225zM516 -25q-124 0 -212 36.5t-139 108.5t-74 168
t-23 226q0 161 12.5 296.5t41 263.5t78.5 225.5t120.5 171.5t171.5 112.5t227 38.5q124 0 212 -36.5t139 -108.5t74 -168t23 -226q0 -161 -12.5 -296.5t-41 -263.5t-78.5 -225.5t-120.5 -171.5t-171.5 -112.5t-227 -38.5z" />
    <glyph glyph-name="multiply" unicode="&#xd7;" horiz-adv-x="1474" 
d="M195 494l305 305l-305 305l237 237l305 -305l305 305l238 -237l-305 -305l305 -305l-238 -238l-305 305l-305 -305z" />
    <glyph glyph-name="Oslash" unicode="&#xd8;" horiz-adv-x="1204" 
d="M516 -25q-196 0 -303 93l-43 -68h-133l102 158q-71 125 -71 356q0 161 12.5 296.5t41 263.5t78.5 225.5t120.5 171.5t171.5 112.5t227 38.5q194 0 303 -92l43 67h133l-102 -159q71 -125 71 -355q0 -161 -12.5 -296.5t-41 -263.5t-78.5 -225.5t-120.5 -171.5
t-171.5 -112.5t-227 -38.5zM555 295q56 0 101 61.5t73 164t44 216t22 234.5l-351 -545q19 -131 111 -131zM680 1303q-56 0 -101 -62t-73.5 -163.5t-44.5 -216t-21 -234.5l351 544q-22 132 -111 132z" />
    <glyph glyph-name="Ugrave" unicode="&#xd9;" horiz-adv-x="1148" 
d="M526 293q67 0 92.5 31t36.5 116l142 1157h366l-143 -1175q-12 -98 -33 -167.5t-59.5 -126.5t-97 -91t-143 -52t-200.5 -18q-143 0 -233.5 27.5t-136 83.5t-56.5 141.5t5 202.5l143 1175h369l-142 -1157q-11 -84 6.5 -115.5t83.5 -31.5zM440 2109h402l37 -426h-367z" />
    <glyph glyph-name="Uacute" unicode="&#xda;" horiz-adv-x="1148" 
d="M526 293q67 0 92.5 31t36.5 116l142 1157h366l-143 -1175q-12 -98 -33 -167.5t-59.5 -126.5t-97 -91t-143 -52t-200.5 -18q-143 0 -233.5 27.5t-136 83.5t-56.5 141.5t5 202.5l143 1175h369l-142 -1157q-11 -84 6.5 -115.5t83.5 -31.5zM657 2109h402l-178 -426h-367z" />
    <glyph glyph-name="Ucircumflex" unicode="&#xdb;" horiz-adv-x="1148" 
d="M526 293q67 0 92.5 31t36.5 116l142 1157h366l-143 -1175q-12 -98 -33 -167.5t-59.5 -126.5t-97 -91t-143 -52t-200.5 -18q-143 0 -233.5 27.5t-136 83.5t-56.5 141.5t5 202.5l143 1175h369l-142 -1157q-11 -84 6.5 -115.5t83.5 -31.5zM608 1683h-293l234 426h401
l127 -426h-293l-65 172z" />
    <glyph glyph-name="Udieresis" unicode="&#xdc;" horiz-adv-x="1155" 
d="M530 293q67 0 92.5 31t36.5 116l142 1157h366l-143 -1175q-15 -123 -45 -203.5t-90 -139.5t-156.5 -85.5t-240.5 -26.5q-143 0 -233.5 27.5t-136.5 83.5t-57 141.5t5 202.5l143 1175h369l-142 -1157q-11 -84 6.5 -115.5t83.5 -31.5zM688 2068l-45 -362h-367l46 362h366z
M1178 2068l-45 -362h-367l45 362h367z" />
    <glyph glyph-name="Yacute" unicode="&#xdd;" horiz-adv-x="1099" 
d="M578 895l266 702h377l-512 -1081l-56 -516h-368l65 516l-246 1081h377zM623 2109h401l-178 -426h-367z" />
    <glyph glyph-name="Thorn" unicode="&#xde;" horiz-adv-x="1126" 
d="M592 1597l-33 -260h137q70 0 127 -11t110 -39t89.5 -72.5t58 -116.5t21.5 -166q0 -134 -21.5 -241.5t-60.5 -180t-88.5 -123.5t-111.5 -79t-122 -40t-127 -12h-143l-31 -256h-368l194 1597h369zM469 586h115q143 0 143 301q0 65 -22 94t-70 29h-115z" />
    <glyph glyph-name="germandbls" unicode="&#xdf;" horiz-adv-x="1392" 
d="M1040 977q-1 -1 -20 -13.5t-23.5 -15.5t-21 -15t-21.5 -18.5t-16.5 -19.5t-16 -23t-8.5 -24t-4 -29q0 -74 111 -98q162 -38 225.5 -102t63.5 -181q0 -237 -129 -350t-367 -113q-64 0 -114 6t-100 24t-81 48t-46.5 81t-6.5 120l326 113q-3 -25 -5.5 -52t12 -48t46.5 -21
q76 0 76 106q0 68 -89 88q-150 33 -221 102t-71 189q0 76 14.5 132.5t45.5 98t68.5 70.5t94.5 58q40 21 56 30.5t39 28.5t31.5 40t8.5 50q0 121 -174 121q-93 0 -146.5 -35.5t-60.5 -103.5l-201 -1631h-356l203 1649q12 100 48 175t103 132.5t175 87t255 29.5
q484 0 484 -336q0 -126 -46.5 -207t-140.5 -143z" />
    <glyph glyph-name="agrave" unicode="&#xe0;" horiz-adv-x="1089" 
d="M600 362l45 361q-49 72 -115 72q-143 0 -143 -383q0 -69 19.5 -95t62.5 -26q70 0 131 71zM1008 774l-58 -463l-28 -311h-324l-2 94q-50 -59 -112.5 -89t-157.5 -30q-306 0 -306 398q0 157 24.5 283.5t66 210t99 139.5t121 80t134.5 24q95 0 150 -30t92 -89l24 94h324z
M350 1638h402l36 -426h-366z" />
    <glyph glyph-name="aacute" unicode="&#xe1;" horiz-adv-x="1089" 
d="M600 362l45 361q-49 72 -115 72q-143 0 -143 -383q0 -69 19.5 -95t62.5 -26q70 0 131 71zM1008 774l-58 -463l-28 -311h-324l-2 94q-50 -59 -112.5 -89t-157.5 -30q-306 0 -306 398q0 157 24.5 283.5t66 210t99 139.5t121 80t134.5 24q95 0 150 -30t92 -89l24 94h324z
M543 1638h401l-178 -426h-367z" />
    <glyph glyph-name="acircumflex" unicode="&#xe2;" horiz-adv-x="1089" 
d="M600 362l45 361q-49 72 -115 72q-143 0 -143 -383q0 -69 19.5 -95t62.5 -26q70 0 131 71zM1008 774l-58 -463l-28 -311h-324l-2 94q-50 -59 -112.5 -89t-157.5 -30q-306 0 -306 398q0 157 24.5 283.5t66 210t99 139.5t121 80t134.5 24q95 0 150 -30t92 -89l24 94h324z
M504 1212h-293l233 426h402l127 -426h-293l-66 172z" />
    <glyph glyph-name="atilde" unicode="&#xe3;" horiz-adv-x="1089" 
d="M600 362l45 361q-49 72 -115 72q-143 0 -143 -383q0 -69 19.5 -95t62.5 -26q70 0 131 71zM1008 774l-58 -463l-28 -311h-324l-2 94q-50 -59 -112.5 -89t-157.5 -30q-306 0 -306 398q0 157 24.5 283.5t66 210t99 139.5t121 80t134.5 24q95 0 150 -30t92 -89l24 94h324z
M829 1612l250 -31q-72 -401 -317 -401q-48 0 -88.5 16t-67 38t-48.5 44.5t-43.5 38.5t-41.5 16q-28 0 -44.5 -23.5t-18.5 -47.5l-2 -23l-250 31q72 401 317 401q59 0 107 -24t73.5 -52.5t54 -52.5t52.5 -24q28 0 45 23.5t19 46.5z" />
    <glyph glyph-name="adieresis" unicode="&#xe4;" horiz-adv-x="1089" 
d="M600 362l45 361q-49 72 -115 72q-143 0 -143 -383q0 -69 19.5 -95t62.5 -26q70 0 131 71zM1008 774l-58 -463l-28 -311h-324l-2 94q-50 -59 -112.5 -89t-157.5 -30q-306 0 -306 398q0 157 24.5 283.5t66 210t99 139.5t121 80t134.5 24q95 0 150 -30t92 -89l24 94h324z
M580 1597l-43 -362h-367l43 362h367zM1069 1597l-43 -362h-367l43 362h367z" />
    <glyph glyph-name="aring" unicode="&#xe5;" horiz-adv-x="1089" 
d="M612 1368q30 0 47 17.5t17 50.5q0 47 -51 47q-30 0 -47 -17.5t-17 -50.5q0 -47 51 -47zM600 362l45 361q-49 72 -115 72q-143 0 -143 -383q0 -69 19.5 -95t62.5 -26q70 0 131 71zM1008 774l-58 -463l-28 -311h-324l-2 94q-50 -59 -112.5 -89t-157.5 -30q-306 0 -306 398
q0 157 24.5 283.5t66 210t99 139.5t121 80t134.5 24q95 0 150 -30t92 -89l24 94h324zM588 1180q-104 0 -160.5 55.5t-56.5 148.5q0 124 76.5 205.5t201.5 81.5q103 0 160 -56t57 -149q0 -124 -76.5 -205t-201.5 -81z" />
    <glyph glyph-name="ae" unicode="&#xe6;" horiz-adv-x="1525" 
d="M1450 438h-543q-6 -49 -6 -86q0 -47 15.5 -69.5t52.5 -22.5q81 0 94 98l344 -118q-15 -63 -43 -108.5t-80 -82.5t-137 -55.5t-203 -18.5q-228 0 -323 99q-156 -99 -324 -99q-156 0 -229.5 75.5t-73.5 203.5q0 213 113 304t364 91h94l15 113q4 36 -6.5 58t-47.5 22
q-36 0 -56.5 -28.5t-29.5 -100.5l-344 118q15 69 44 117.5t82 86.5t138 56.5t205 18.5q183 0 256 -76q102 76 256 76q216 0 307 -95.5t91 -297.5q0 -76 -13 -178zM469 438q-49 0 -81 -27.5t-32 -78.5q0 -70 64 -70q62 0 115 53q-3 24 -3 50q0 11 5 73h-68zM1038 825
q-46 0 -70 -40t-36 -136h162q6 53 6 86q0 49 -14.5 69.5t-47.5 20.5z" />
    <glyph glyph-name="ccedilla" unicode="&#xe7;" horiz-adv-x="974" 
d="M520 799q-145 0 -145 -389q0 -71 19.5 -97t64.5 -26q44 0 66 39t32 116l326 -112q-15 -83 -40 -141.5t-70 -105.5t-116 -73t-172 -33l-18 -45q229 -49 190 -202q-21 -86 -101.5 -129t-190.5 -43q-155 0 -259 47l70 155q47 -26 98 -34q97 -15 105 43q3 28 -38 49t-114 28
l66 140q-143 22 -208 111t-65 265q0 128 14 232.5t50.5 203t96 165.5t155.5 107t223 40q98 0 167.5 -16.5t119.5 -55.5t72 -107t18 -167l-354 -121q0 1 1.5 18.5t1.5 22.5t0.5 22t-1 23.5t-3.5 20.5t-7.5 20.5t-12.5 14.5t-17.5 11t-23.5 3z" />
    <glyph glyph-name="egrave" unicode="&#xe8;" horiz-adv-x="1011" 
d="M330 1638h401l37 -426h-367zM936 438h-543q-6 -50 -6 -86q0 -47 15.5 -69.5t52.5 -22.5q81 0 94 98l344 -118q-15 -63 -43 -108.5t-80 -82.5t-137 -55.5t-203 -18.5q-116 0 -195.5 23.5t-126.5 73.5t-67.5 119.5t-20.5 168.5q0 80 6 152t22.5 149.5t42.5 141t68.5 122
t97.5 98.5t133.5 63.5t172.5 23.5q216 0 307 -95.5t91 -297.5q0 -76 -13 -178zM524 825q-46 0 -70 -40t-36 -136h162q6 53 6 86q0 49 -14.5 69.5t-47.5 20.5z" />
    <glyph glyph-name="eacute" unicode="&#xe9;" horiz-adv-x="1011" 
d="M526 1638h402l-178 -426h-367zM936 438h-543q-6 -50 -6 -86q0 -47 15.5 -69.5t52.5 -22.5q81 0 94 98l344 -118q-15 -63 -43 -108.5t-80 -82.5t-137 -55.5t-203 -18.5q-116 0 -195.5 23.5t-126.5 73.5t-67.5 119.5t-20.5 168.5q0 80 6 152t22.5 149.5t42.5 141t68.5 122
t97.5 98.5t133.5 63.5t172.5 23.5q216 0 307 -95.5t91 -297.5q0 -76 -13 -178zM524 825q-46 0 -70 -40t-36 -136h162q6 53 6 86q0 49 -14.5 69.5t-47.5 20.5z" />
    <glyph glyph-name="ecircumflex" unicode="&#xea;" horiz-adv-x="1011" 
d="M487 1212h-292l233 426h401l127 -426h-292l-66 172zM936 438h-543q-6 -50 -6 -86q0 -47 15.5 -69.5t52.5 -22.5q81 0 94 98l344 -118q-15 -63 -43 -108.5t-80 -82.5t-137 -55.5t-203 -18.5q-116 0 -195.5 23.5t-126.5 73.5t-67.5 119.5t-20.5 168.5q0 80 6 152
t22.5 149.5t42.5 141t68.5 122t97.5 98.5t133.5 63.5t172.5 23.5q216 0 307 -95.5t91 -297.5q0 -76 -13 -178zM524 825q-46 0 -70 -40t-36 -136h162q6 53 6 86q0 49 -14.5 69.5t-47.5 20.5z" />
    <glyph glyph-name="edieresis" unicode="&#xeb;" horiz-adv-x="1011" 
d="M561 1597l-43 -362h-366l43 362h366zM1051 1597l-43 -362h-367l43 362h367zM936 438h-543q-6 -50 -6 -86q0 -47 15.5 -69.5t52.5 -22.5q81 0 94 98l344 -118q-15 -63 -43 -108.5t-80 -82.5t-137 -55.5t-203 -18.5q-116 0 -195.5 23.5t-126.5 73.5t-67.5 119.5
t-20.5 168.5q0 80 6 152t22.5 149.5t42.5 141t68.5 122t97.5 98.5t133.5 63.5t172.5 23.5q216 0 307 -95.5t91 -297.5q0 -76 -13 -178zM524 825q-46 0 -70 -40t-36 -136h162q6 53 6 86q0 49 -14.5 69.5t-47.5 20.5z" />
    <glyph glyph-name="igrave" unicode="&#xec;" horiz-adv-x="544" 
d="M12 0l133 1085h357l-133 -1085h-357zM82 1638h401l37 -426h-366z" />
    <glyph glyph-name="iacute" unicode="&#xed;" horiz-adv-x="544" 
d="M12 0l133 1085h357l-133 -1085h-357zM297 1638h401l-178 -426h-366z" />
    <glyph glyph-name="icircumflex" unicode="&#xee;" horiz-adv-x="544" 
d="M12 0l133 1085h357l-133 -1085h-357zM248 1212h-293l233 426h402l127 -426h-293l-66 172z" />
    <glyph glyph-name="idieresis" unicode="&#xef;" horiz-adv-x="544" 
d="M12 0l133 1085h357l-133 -1085h-357zM324 1597l-43 -362h-365l41 362h367zM811 1597l-43 -362h-367l43 362h367z" />
    <glyph glyph-name="eth" unicode="&#xf0;" horiz-adv-x="1019" 
d="M209 1135l27 229l219 74q-100 112 -240 200h432q61 -49 107 -100l282 96l-26 -229l-138 -47q101 -212 101 -516q0 -253 -32.5 -422t-103 -267t-169 -138t-244.5 -40q-106 0 -179 19t-125 63t-76 119t-24 186q0 170 26.5 301.5t71 214.5t107.5 136.5t130 74.5t145 21
q94 0 145 -37q-24 100 -67 184zM463 289q38 0 67.5 32.5t46 87.5t25 121t8.5 140t-21 100.5t-65 26.5q-41 0 -71 -32.5t-46 -89.5t-23 -121t-7 -140q0 -74 20.5 -99.5t65.5 -25.5z" />
    <glyph glyph-name="ntilde" unicode="&#xf1;" horiz-adv-x="1093" 
d="M459 1085v-94q75 65 147.5 92t177.5 27q149 0 204 -80.5t36 -245.5l-96 -784h-357l86 707q6 49 -11 68.5t-52 19.5q-76 0 -137 -72l-88 -723h-359l94 774l33 311h322zM850 1612l250 -31q-72 -401 -318 -401q-48 0 -88.5 16t-66.5 38t-48 44.5t-43.5 38.5t-41.5 16
q-28 0 -44.5 -23.5t-19.5 -47.5l-2 -23l-250 31q72 401 318 401q48 0 88.5 -16t66 -38.5t47 -44.5t43 -38t41.5 -16q28 0 45 23.5t20 46.5z" />
    <glyph glyph-name="ograve" unicode="&#xf2;" horiz-adv-x="1019" 
d="M330 1638h401l37 -426h-367zM463 289q33 0 59 19.5t41 54.5t25.5 72t14.5 83.5t5.5 77t1.5 63.5q0 76 -22 107t-64 31q-33 0 -59 -19.5t-41 -55t-25.5 -72.5t-14.5 -84t-5.5 -77.5t-1.5 -64.5q0 -75 21 -105t65 -30zM428 -25q-210 0 -309 95t-99 313q0 84 5.5 155.5
t21 148t40.5 136.5t66.5 115.5t97 92t134 58t174.5 21.5q210 0 309 -95.5t99 -314.5q0 -85 -5.5 -156.5t-21 -147.5t-40.5 -136t-66.5 -115t-97 -91t-134 -57.5t-174.5 -21.5z" />
    <glyph glyph-name="oacute" unicode="&#xf3;" horiz-adv-x="1019" 
d="M526 1638h402l-178 -426h-367zM463 289q33 0 59 19.5t41 54.5t25.5 72t14.5 83.5t5.5 77t1.5 63.5q0 76 -22 107t-64 31q-33 0 -59 -19.5t-41 -55t-25.5 -72.5t-14.5 -84t-5.5 -77.5t-1.5 -64.5q0 -75 21 -105t65 -30zM428 -25q-210 0 -309 95t-99 313q0 84 5.5 155.5
t21 148t40.5 136.5t66.5 115.5t97 92t134 58t174.5 21.5q210 0 309 -95.5t99 -314.5q0 -85 -5.5 -156.5t-21 -147.5t-40.5 -136t-66.5 -115t-97 -91t-134 -57.5t-174.5 -21.5z" />
    <glyph glyph-name="ocircumflex" unicode="&#xf4;" horiz-adv-x="1019" 
d="M487 1212h-292l233 426h401l127 -426h-292l-66 172zM463 289q33 0 59 19.5t41 54.5t25.5 72t14.5 83.5t5.5 77t1.5 63.5q0 76 -22 107t-64 31q-33 0 -59 -19.5t-41 -55t-25.5 -72.5t-14.5 -84t-5.5 -77.5t-1.5 -64.5q0 -75 21 -105t65 -30zM428 -25q-210 0 -309 95
t-99 313q0 84 5.5 155.5t21 148t40.5 136.5t66.5 115.5t97 92t134 58t174.5 21.5q210 0 309 -95.5t99 -314.5q0 -85 -5.5 -156.5t-21 -147.5t-40.5 -136t-66.5 -115t-97 -91t-134 -57.5t-174.5 -21.5z" />
    <glyph glyph-name="otilde" unicode="&#xf5;" horiz-adv-x="1019" 
d="M813 1612l250 -31q-72 -401 -318 -401q-48 0 -88.5 16t-66.5 38t-48 44.5t-43.5 38.5t-41.5 16q-28 0 -44.5 -23.5t-18.5 -47.5l-3 -23l-250 31q72 401 318 401q48 0 88.5 -16t66 -38.5t47 -44.5t43 -38t41.5 -16q28 0 45 23.5t20 46.5zM463 289q33 0 59 19.5t41 54.5
t25.5 72t14.5 83.5t5.5 77t1.5 63.5q0 76 -22 107t-64 31q-33 0 -59 -19.5t-41 -55t-25.5 -72.5t-14.5 -84t-5.5 -77.5t-1.5 -64.5q0 -75 21 -105t65 -30zM428 -25q-210 0 -309 95t-99 313q0 84 5.5 155.5t21 148t40.5 136.5t66.5 115.5t97 92t134 58t174.5 21.5
q210 0 309 -95.5t99 -314.5q0 -85 -5.5 -156.5t-21 -147.5t-40.5 -136t-66.5 -115t-97 -91t-134 -57.5t-174.5 -21.5z" />
    <glyph glyph-name="odieresis" unicode="&#xf6;" horiz-adv-x="1019" 
d="M561 1597l-43 -362h-366l43 362h366zM1051 1597l-43 -362h-367l43 362h367zM463 289q33 0 59 19.5t41 54.5t25.5 72t14.5 83.5t5.5 77t1.5 63.5q0 76 -22 107t-64 31q-33 0 -59 -19.5t-41 -55t-25.5 -72.5t-14.5 -84t-5.5 -77.5t-1.5 -64.5q0 -75 21 -105t65 -30z
M428 -25q-210 0 -309 95t-99 313q0 84 5.5 155.5t21 148t40.5 136.5t66.5 115.5t97 92t134 58t174.5 21.5q210 0 309 -95.5t99 -314.5q0 -85 -5.5 -156.5t-21 -147.5t-40.5 -136t-66.5 -115t-97 -91t-134 -57.5t-174.5 -21.5z" />
    <glyph glyph-name="divide" unicode="&#xf7;" horiz-adv-x="1474" 
d="M1290 631h-1106v336h1106v-336zM924 559v-375h-373v375h373zM924 1413v-375h-373v375h373z" />
    <glyph glyph-name="oslash" unicode="&#xf8;" horiz-adv-x="1019" 
d="M428 -25q-181 0 -276 68l-35 -43h-125l92 113q-64 94 -64 270q0 84 5.5 155.5t21 148t40.5 136.5t66.5 115.5t97 92t134 58t174.5 21.5q183 0 277 -70l36 45h125l-94 -114q64 -98 64 -271q0 -85 -5.5 -156.5t-21 -147.5t-40.5 -136t-66.5 -115t-97 -91t-134 -57.5
t-174.5 -21.5zM524 797q-136 0 -147 -322l221 273q-19 49 -74 49zM463 289q134 0 145 319l-219 -272q16 -47 74 -47z" />
    <glyph glyph-name="ugrave" unicode="&#xf9;" horiz-adv-x="1093" 
d="M604 0l-2 94q-75 -64 -148 -91.5t-178 -27.5q-149 0 -203.5 80.5t-33.5 245.5l96 784h357l-89 -706q-10 -88 62 -88q75 0 139 71l90 723h357l-97 -774l-28 -311h-322zM354 1638h402l37 -426h-367z" />
    <glyph glyph-name="uacute" unicode="&#xfa;" horiz-adv-x="1093" 
d="M604 0l-2 94q-75 -64 -148 -91.5t-178 -27.5q-149 0 -203.5 80.5t-33.5 245.5l96 784h357l-89 -706q-10 -88 62 -88q75 0 139 71l90 723h357l-97 -774l-28 -311h-322zM571 1638h402l-178 -426h-367z" />
    <glyph glyph-name="ucircumflex" unicode="&#xfb;" horiz-adv-x="1093" 
d="M604 0l-2 94q-75 -64 -148 -91.5t-178 -27.5q-149 0 -203.5 80.5t-33.5 245.5l96 784h357l-89 -706q-10 -88 62 -88q75 0 139 71l90 723h357l-97 -774l-28 -311h-322zM520 1212h-293l234 426h401l127 -426h-293l-65 172z" />
    <glyph glyph-name="udieresis" unicode="&#xfc;" horiz-adv-x="1093" 
d="M604 0l-2 94q-75 -64 -148 -91.5t-178 -27.5q-149 0 -203.5 80.5t-33.5 245.5l96 784h357l-89 -706q-10 -88 62 -88q75 0 139 71l90 723h357l-97 -774l-28 -311h-322zM594 1597l-43 -362h-367l43 362h367zM1083 1597l-43 -362h-366l43 362h366z" />
    <glyph glyph-name="yacute" unicode="&#xfd;" horiz-adv-x="1048" 
d="M489 387l218 698h378l-456 -1077l-199 -418h-403l217 396l-178 1099h378zM551 1638h401l-178 -426h-366z" />
    <glyph glyph-name="thorn" unicode="&#xfe;" horiz-adv-x="1089" 
d="M78 543l135 1095h358l-75 -620q40 44 92 68t143 24q303 0 303 -397q0 -158 -24 -284t-65.5 -210t-98.5 -139.5t-120 -80t-134 -24.5q-90 0 -135.5 24t-77.5 69l-60 -478h-358zM414 362q48 -71 112 -71q144 0 144 383q0 68 -19.5 94.5t-62.5 26.5q-67 0 -129 -72z" />
    <glyph glyph-name="ydieresis" unicode="&#xff;" horiz-adv-x="1048" 
d="M489 387l218 698h378l-456 -1077l-199 -418h-403l217 396l-178 1099h378zM575 1597l-43 -362h-366l43 362h366zM1065 1597l-43 -362h-367l43 362h367z" />
    <glyph glyph-name="Amacron" unicode="&#x100;" horiz-adv-x="1081" 
d="M377 1610h555l45 -1610h-373v256h-231l-60 -256h-372zM614 1280l-172 -725h166zM412 1733l43 335h516l-43 -335h-516z" />
    <glyph glyph-name="amacron" unicode="&#x101;" horiz-adv-x="1089" 
d="M600 362l45 361q-49 72 -115 72q-143 0 -143 -383q0 -69 19.5 -95t62.5 -26q70 0 131 71zM1008 774l-58 -463l-28 -311h-324l-2 94q-50 -59 -112.5 -89t-157.5 -30q-306 0 -306 398q0 157 24.5 283.5t66 210t99 139.5t121 80t134.5 24q95 0 150 -30t92 -89l24 94h324z
M340 1262l41 335h516l-41 -335h-516z" />
    <glyph glyph-name="Abreve" unicode="&#x102;" horiz-adv-x="1081" 
d="M377 1610h555l45 -1610h-373v256h-231l-60 -256h-372zM614 1280l-172 -725h166zM659 1651q-138 0 -212 53.5t-89.5 155.5t4.5 249h267q-22 -147 69 -147t107 147h266q-13 -115 -39 -196t-73 -142t-121.5 -90.5t-178.5 -29.5z" />
    <glyph glyph-name="abreve" unicode="&#x103;" horiz-adv-x="1089" 
d="M588 1180q-138 0 -212 53.5t-89.5 155.5t4.5 249h266q-22 -147 70 -147q90 0 106 147h266q-13 -115 -38.5 -196t-72.5 -142t-121.5 -90.5t-178.5 -29.5zM600 362l45 361q-49 72 -115 72q-143 0 -143 -383q0 -69 19.5 -95t62.5 -26q70 0 131 71zM1008 774l-58 -463
l-28 -311h-324l-2 94q-50 -59 -112.5 -89t-157.5 -30q-306 0 -306 398q0 157 24.5 283.5t66 210t99 139.5t121 80t134.5 24q95 0 150 -30t92 -89l24 94h324z" />
    <glyph glyph-name="Aogonek" unicode="&#x104;" horiz-adv-x="1081" 
d="M377 1610h555l45 -1610q-95 -9 -161 -54t-66 -91q0 -50 51 -50q24 0 50.5 9t42 17.5t15.5 10.5l41 -233q-89 -51 -221 -51q-252 0 -252 219q0 132 127 237v242h-231l-60 -256h-372zM614 1280l-172 -725h172v725z" />
    <glyph glyph-name="aogonek" unicode="&#x105;" horiz-adv-x="1089" 
d="M1008 774l-58 -463l-28 -311q-97 -9 -164 -56t-64 -94q0 -57 82 -40q19 4 38.5 12t29.5 14l10 6l41 -233q-89 -51 -221 -51q-228 0 -250 186q-11 91 37 168.5t135 136.5v45q-50 -59 -112.5 -89t-157.5 -30q-306 0 -306 398q0 157 24.5 283.5t66 210t99 139.5t121 80
t134.5 24q95 0 150 -30t92 -89l24 94h324zM600 362l45 361q-49 72 -115 72q-143 0 -143 -383q0 -69 19.5 -95t62.5 -26q70 0 131 71z" />
    <glyph glyph-name="Cacute" unicode="&#x106;" horiz-adv-x="1179" 
d="M678 2109h401l-178 -426h-366zM678 1303q-58 0 -105.5 -80.5t-74.5 -203.5t-41.5 -251t-14.5 -240q0 -118 26 -175.5t85 -57.5q87 0 126 52t62 210l344 -121q-43 -254 -166 -357.5t-395 -103.5q-112 0 -192 27t-139.5 89.5t-89 169.5t-29.5 261q0 107 6.5 205t24.5 211.5
t47.5 208t80.5 185t117.5 152.5t163 100t213.5 38q129 0 215.5 -22.5t143.5 -75.5t78 -140t12 -217l-375 -127q3 28 3.5 37t2.5 37.5t0.5 40.5t-4 36.5t-8.5 36.5t-15.5 29t-23.5 25t-33.5 14.5t-44.5 6.5z" />
    <glyph glyph-name="cacute" unicode="&#x107;" horiz-adv-x="974" 
d="M508 1638h401l-178 -426h-366zM520 799q-145 0 -145 -389q0 -71 19.5 -97t64.5 -26q44 0 66 39t32 116l326 -112q-16 -89 -43.5 -150.5t-79 -110t-135.5 -71.5t-205 -23q-214 0 -307 88.5t-93 298.5q0 128 14 232.5t50.5 203t96 165.5t155.5 107t223 40q98 0 167.5 -16.5
t119.5 -55.5t72 -107t18 -167l-354 -121q0 1 1.5 18.5t1.5 22.5t0.5 22t-1 23.5t-3.5 20.5t-7.5 20.5t-12.5 14.5t-17.5 11t-23.5 3z" />
    <glyph glyph-name="Ccircumflex" unicode="&#x108;" horiz-adv-x="1179" 
d="M639 1683h-293l234 426h401l127 -426h-293l-65 172zM678 1303q-58 0 -105.5 -80.5t-74.5 -203.5t-41.5 -251t-14.5 -240q0 -118 26 -175.5t85 -57.5q87 0 126 52t62 210l344 -121q-43 -254 -166 -357.5t-395 -103.5q-112 0 -192 27t-139.5 89.5t-89 169.5t-29.5 261
q0 107 6.5 205t24.5 211.5t47.5 208t80.5 185t117.5 152.5t163 100t213.5 38q129 0 215.5 -22.5t143.5 -75.5t78 -140t12 -217l-375 -127q3 28 3.5 37t2.5 37.5t0.5 40.5t-4 36.5t-8.5 36.5t-15.5 29t-23.5 25t-33.5 14.5t-44.5 6.5z" />
    <glyph glyph-name="ccircumflex" unicode="&#x109;" horiz-adv-x="974" 
d="M469 1212h-293l234 426h401l127 -426h-293l-65 172zM520 799q-145 0 -145 -389q0 -71 19.5 -97t64.5 -26q44 0 66 39t32 116l326 -112q-16 -89 -43.5 -150.5t-79 -110t-135.5 -71.5t-205 -23q-214 0 -307 88.5t-93 298.5q0 128 14 232.5t50.5 203t96 165.5t155.5 107
t223 40q98 0 167.5 -16.5t119.5 -55.5t72 -107t18 -167l-354 -121q0 1 1.5 18.5t1.5 22.5t0.5 22t-1 23.5t-3.5 20.5t-7.5 20.5t-12.5 14.5t-17.5 11t-23.5 3z" />
    <glyph glyph-name="Cdotaccent" unicode="&#x10a;" horiz-adv-x="1179" 
d="M965 2068l-47 -372h-377l47 372h377zM678 1303q-58 0 -105.5 -80.5t-74.5 -203.5t-41.5 -251t-14.5 -240q0 -118 26 -175.5t85 -57.5q87 0 126 52t62 210l344 -121q-43 -254 -166 -357.5t-395 -103.5q-112 0 -192 27t-139.5 89.5t-89 169.5t-29.5 261q0 107 6.5 205
t24.5 211.5t47.5 208t80.5 185t117.5 152.5t163 100t213.5 38q129 0 215.5 -22.5t143.5 -75.5t78 -140t12 -217l-375 -127q3 28 3.5 37t2.5 37.5t0.5 40.5t-4 36.5t-8.5 36.5t-15.5 29t-23.5 25t-33.5 14.5t-44.5 6.5z" />
    <glyph glyph-name="cdotaccent" unicode="&#x10b;" horiz-adv-x="974" 
d="M793 1597l-45 -372h-377l45 372h377zM520 799q-145 0 -145 -389q0 -71 19.5 -97t64.5 -26q44 0 66 39t32 116l326 -112q-16 -89 -43.5 -150.5t-79 -110t-135.5 -71.5t-205 -23q-214 0 -307 88.5t-93 298.5q0 128 14 232.5t50.5 203t96 165.5t155.5 107t223 40
q98 0 167.5 -16.5t119.5 -55.5t72 -107t18 -167l-354 -121q0 1 1.5 18.5t1.5 22.5t0.5 22t-1 23.5t-3.5 20.5t-7.5 20.5t-12.5 14.5t-17.5 11t-23.5 3z" />
    <glyph glyph-name="Ccaron" unicode="&#x10c;" horiz-adv-x="1179" 
d="M868 2109h293l-233 -426h-402l-127 426h293l68 -172zM678 1303q-58 0 -105.5 -80.5t-74.5 -203.5t-41.5 -251t-14.5 -240q0 -118 26 -175.5t85 -57.5q87 0 126 52t62 210l344 -121q-43 -254 -166 -357.5t-395 -103.5q-112 0 -192 27t-139.5 89.5t-89 169.5t-29.5 261
q0 107 6.5 205t24.5 211.5t47.5 208t80.5 185t117.5 152.5t163 100t213.5 38q129 0 215.5 -22.5t143.5 -75.5t78 -140t12 -217l-375 -127q3 28 3.5 37t2.5 37.5t0.5 40.5t-4 36.5t-8.5 36.5t-15.5 29t-23.5 25t-33.5 14.5t-44.5 6.5z" />
    <glyph glyph-name="ccaron" unicode="&#x10d;" horiz-adv-x="974" 
d="M698 1638h293l-233 -426h-402l-127 426h293l66 -172zM520 799q-145 0 -145 -389q0 -71 19.5 -97t64.5 -26q44 0 66 39t32 116l326 -112q-16 -89 -43.5 -150.5t-79 -110t-135.5 -71.5t-205 -23q-214 0 -307 88.5t-93 298.5q0 128 14 232.5t50.5 203t96 165.5t155.5 107
t223 40q98 0 167.5 -16.5t119.5 -55.5t72 -107t18 -167l-354 -121q0 1 1.5 18.5t1.5 22.5t0.5 22t-1 23.5t-3.5 20.5t-7.5 20.5t-12.5 14.5t-17.5 11t-23.5 3z" />
    <glyph glyph-name="Dcaron" unicode="&#x10e;" horiz-adv-x="1239" 
d="M838 2109h292l-233 -426h-401l-127 426h293l67 -172zM494 0h-469l194 1597h469q272 0 391 -120t119 -406q0 -202 -22.5 -363.5t-74 -296t-132 -224t-200.5 -138.5t-275 -49zM432 328h103q72 0 126.5 47t85.5 119t50 172.5t25.5 191t6.5 191.5q0 113 -39.5 167t-138.5 54
h-102z" />
    <glyph glyph-name="dcaron" unicode="&#x10f;" horiz-adv-x="1089" 
d="M1186 1638h205l-131 -491h-146zM467 1110q90 0 135.5 -23.5t79.5 -68.5l76 620h356l-164 -1327l-28 -311h-324l-2 94q-50 -59 -112 -89t-156 -30q-308 0 -308 398q0 158 24.5 284t65.5 209.5t99 139.5t122 80t136 24zM600 362l45 361q-49 72 -113 72q-145 0 -145 -381
q0 -70 19.5 -96.5t64.5 -26.5q68 0 129 71z" />
    <glyph glyph-name="Dcroat" unicode="&#x110;" horiz-adv-x="1320" 
d="M575 0h-469l80 653h-125l39 326h125l76 618h469q272 0 391 -120t119 -406q0 -202 -22.5 -363.5t-74.5 -296t-132.5 -224t-200.5 -138.5t-275 -49zM514 328h102q72 0 126.5 47t85.5 119t50.5 172.5t26 191t6.5 191.5q0 113 -39.5 167t-138.5 54h-102l-37 -291h190
l-39 -326h-192z" />
    <glyph glyph-name="dcroat" unicode="&#x111;" horiz-adv-x="1089" 
d="M1217 1481l-25 -211h-123l-119 -959l-28 -311h-324l-2 94q-50 -59 -112 -89t-156 -30q-308 0 -308 398q0 158 24.5 284t65.5 209.5t99 139.5t122 80t136 24q90 0 135.5 -23.5t79.5 -68.5l31 252h-207l24 211h207l21 157h356l-20 -157h123zM600 362l45 361q-49 72 -113 72
q-145 0 -145 -381q0 -70 19.5 -96.5t64.5 -26.5q68 0 129 71z" />
    <glyph glyph-name="Emacron" unicode="&#x112;" horiz-adv-x="1021" 
d="M219 1597h832l-39 -327h-465l-37 -291h377l-39 -326h-377l-41 -325h488l-39 -328h-854zM403 1733l43 335h517l-43 -335h-517z" />
    <glyph glyph-name="emacron" unicode="&#x113;" horiz-adv-x="1011" 
d="M324 1262l41 335h516l-41 -335h-516zM936 438h-543q-6 -50 -6 -86q0 -47 15.5 -69.5t52.5 -22.5q81 0 94 98l344 -118q-15 -63 -43 -108.5t-80 -82.5t-137 -55.5t-203 -18.5q-116 0 -195.5 23.5t-126.5 73.5t-67.5 119.5t-20.5 168.5q0 80 6 152t22.5 149.5t42.5 141
t68.5 122t97.5 98.5t133.5 63.5t172.5 23.5q216 0 307 -95.5t91 -297.5q0 -76 -13 -178zM524 825q-46 0 -70 -40t-36 -136h162q6 53 6 86q0 49 -14.5 69.5t-47.5 20.5z" />
    <glyph glyph-name="Ebreve" unicode="&#x114;" horiz-adv-x="1021" 
d="M219 1597h832l-39 -327h-465l-37 -291h377l-39 -326h-377l-41 -325h488l-39 -328h-854zM651 1651q-138 0 -212 53.5t-89.5 155.5t4.5 249h267q-22 -147 69 -147t107 147h266q-13 -115 -39 -196t-73 -142t-121.5 -90.5t-178.5 -29.5z" />
    <glyph glyph-name="ebreve" unicode="&#x115;" horiz-adv-x="1011" 
d="M571 1180q-138 0 -212 53.5t-89.5 155.5t4.5 249h267q-22 -147 69 -147t107 147h266q-13 -115 -39 -196t-73 -142t-121.5 -90.5t-178.5 -29.5zM936 438h-543q-6 -50 -6 -86q0 -47 15.5 -69.5t52.5 -22.5q81 0 94 98l344 -118q-15 -63 -43 -108.5t-80 -82.5t-137 -55.5
t-203 -18.5q-116 0 -195.5 23.5t-126.5 73.5t-67.5 119.5t-20.5 168.5q0 80 6 152t22.5 149.5t42.5 141t68.5 122t97.5 98.5t133.5 63.5t172.5 23.5q216 0 307 -95.5t91 -297.5q0 -76 -13 -178zM524 825q-46 0 -70 -40t-36 -136h162q6 53 6 86q0 49 -14.5 69.5t-47.5 20.5z
" />
    <glyph glyph-name="Edotaccent" unicode="&#x116;" horiz-adv-x="1021" 
d="M219 1597h832l-39 -327h-465l-37 -291h377l-39 -326h-377l-41 -325h488l-39 -328h-854zM893 2068l-47 -372h-377l47 372h377z" />
    <glyph glyph-name="edotaccent" unicode="&#x117;" horiz-adv-x="1011" 
d="M811 1597l-45 -372h-377l45 372h377zM936 438h-543q-6 -50 -6 -86q0 -47 15.5 -69.5t52.5 -22.5q81 0 94 98l344 -118q-15 -63 -43 -108.5t-80 -82.5t-137 -55.5t-203 -18.5q-116 0 -195.5 23.5t-126.5 73.5t-67.5 119.5t-20.5 168.5q0 80 6 152t22.5 149.5t42.5 141
t68.5 122t97.5 98.5t133.5 63.5t172.5 23.5q216 0 307 -95.5t91 -297.5q0 -76 -13 -178zM524 825q-46 0 -70 -40t-36 -136h162q6 53 6 86q0 49 -14.5 69.5t-47.5 20.5z" />
    <glyph glyph-name="Eogonek" unicode="&#x118;" horiz-adv-x="1021" 
d="M219 1597h832l-39 -327h-465l-37 -291h377l-39 -326h-377l-41 -325h488l-39 -328q-97 -9 -164 -56t-64 -94q0 -57 82 -40q19 4 38.5 12t29.5 14l10 6l41 -233q-89 -51 -221 -51q-228 0 -250 186q-19 139 108 256h-464z" />
    <glyph glyph-name="eogonek" unicode="&#x119;" horiz-adv-x="1011" 
d="M936 438h-543q-6 -50 -6 -86q0 -47 15.5 -69.5t52.5 -22.5q81 0 94 98l344 -118q-23 -93 -80.5 -152.5t-171.5 -91.5q-159 -44 -168 -135q-2 -22 9.5 -39t43.5 -17q23 0 50 9t43 17.5t16 10.5l41 -233q-89 -51 -221 -51q-126 0 -196.5 55.5t-57.5 167.5q13 110 110 203
q-159 21 -225 112.5t-66 263.5q0 80 6 152t22.5 149.5t42.5 141t68.5 122t97.5 98.5t133.5 63.5t172.5 23.5q216 0 307 -95.5t91 -297.5q0 -76 -13 -178zM524 825q-46 0 -70 -40t-36 -136h162q6 53 6 86q0 49 -14.5 69.5t-47.5 20.5z" />
    <glyph glyph-name="Ecaron" unicode="&#x11a;" horiz-adv-x="1021" 
d="M219 1597h832l-39 -327h-465l-37 -291h377l-39 -326h-377l-41 -325h488l-39 -328h-854zM797 2109h293l-234 -426h-401l-127 426h293l67 -172z" />
    <glyph glyph-name="ecaron" unicode="&#x11b;" horiz-adv-x="1011" 
d="M936 438h-543q-14 -88 -1.5 -133t63.5 -45q81 0 94 98l356 -43q-8 -65 -22.5 -112t-47 -92.5t-83 -73.5t-131.5 -45t-191 -17q-185 0 -281 64t-117 190t1 314q18 146 52.5 247.5t95.5 175.5t155 109t227 35t217.5 -36t126 -108t50.5 -179t-9 -248zM524 825q-46 0 -70 -40
t-36 -136h162q12 98 0 137t-56 39zM717 1638h293l-234 -426h-401l-127 426h293l65 -172z" />
    <glyph glyph-name="Gcircumflex" unicode="&#x11c;" horiz-adv-x="1212" 
d="M659 1683h-292l233 426h401l127 -426h-292l-66 172zM70 504q0 136 9.5 255.5t31.5 234.5t57 208.5t88 172.5t121 133t160 84t202 30q131 0 218.5 -22t145.5 -74t80 -139t13 -218l-375 -129q7 38 5 84t-10.5 86t-40.5 66.5t-85 26.5q-69 0 -121.5 -85.5t-80 -216.5
t-41 -259t-13.5 -240q0 -103 35.5 -155t122.5 -52q78 0 149 33l35 284h-160l37 299h512l-100 -788q-114 -76 -232 -112t-290 -36q-257 0 -365 127t-108 402z" />
    <glyph glyph-name="gcircumflex" unicode="&#x11d;" horiz-adv-x="1099" 
d="M514 1212h-293l234 426h401l127 -426h-293l-65 172zM342 33q-305 0 -305 383q0 183 35.5 320t97.5 217t138.5 118.5t166.5 38.5q95 0 149 -30t93 -89l24 94h324l-47 -311l-98 -803q-27 -219 -156.5 -312t-355.5 -93q-234 0 -329 63t-95 217l362 123q-5 -55 12.5 -87
t75.5 -32q60 0 89.5 33.5t39.5 114.5l17 127q-40 -44 -93 -68t-145 -24zM616 420l37 303q-49 72 -112 72q-31 0 -54 -15t-43 -51t-30.5 -103.5t-10.5 -164.5q0 -64 19 -88.5t63 -24.5q66 0 131 72z" />
    <glyph glyph-name="Gbreve" unicode="&#x11e;" horiz-adv-x="1212" 
d="M743 1651q-138 0 -212 53.5t-89.5 155.5t4.5 249h267q-22 -147 69 -147t107 147h266q-13 -115 -39 -196t-73 -142t-121.5 -90.5t-178.5 -29.5zM70 504q0 136 9.5 255.5t31.5 234.5t57 208.5t88 172.5t121 133t160 84t202 30q131 0 218.5 -22t145.5 -74t80 -139t13 -218
l-375 -129q7 38 5 84t-10.5 86t-40.5 66.5t-85 26.5q-69 0 -121.5 -85.5t-80 -216.5t-41 -259t-13.5 -240q0 -103 35.5 -155t122.5 -52q78 0 149 33l35 284h-160l37 299h512l-100 -788q-114 -76 -232 -112t-290 -36q-257 0 -365 127t-108 402z" />
    <glyph glyph-name="gbreve" unicode="&#x11f;" horiz-adv-x="1099" 
d="M598 1180q-138 0 -212 53.5t-89.5 155.5t4.5 249h266q-22 -147 70 -147q90 0 106 147h267q-13 -115 -39 -196t-73 -142t-121.5 -90.5t-178.5 -29.5zM342 33q-305 0 -305 383q0 183 35.5 320t97.5 217t138.5 118.5t166.5 38.5q95 0 149 -30t93 -89l24 94h324l-47 -311
l-98 -803q-27 -219 -156.5 -312t-355.5 -93q-234 0 -329 63t-95 217l362 123q-5 -55 12.5 -87t75.5 -32q60 0 89.5 33.5t39.5 114.5l17 127q-40 -44 -93 -68t-145 -24zM616 420l37 303q-49 72 -112 72q-31 0 -54 -15t-43 -51t-30.5 -103.5t-10.5 -164.5q0 -64 19 -88.5
t63 -24.5q66 0 131 72z" />
    <glyph glyph-name="Gdotaccent" unicode="&#x120;" horiz-adv-x="1212" 
d="M985 2068l-47 -372h-377l47 372h377zM70 504q0 136 9.5 255.5t31.5 234.5t57 208.5t88 172.5t121 133t160 84t202 30q131 0 218.5 -22t145.5 -74t80 -139t13 -218l-375 -129q7 38 5 84t-10.5 86t-40.5 66.5t-85 26.5q-69 0 -121.5 -85.5t-80 -216.5t-41 -259t-13.5 -240
q0 -103 35.5 -155t122.5 -52q78 0 149 33l35 284h-160l37 299h512l-100 -788q-114 -76 -232 -112t-290 -36q-257 0 -365 127t-108 402z" />
    <glyph glyph-name="gdotaccent" unicode="&#x121;" horiz-adv-x="1099" 
d="M838 1597l-45 -372h-377l45 372h377zM342 33q-305 0 -305 383q0 183 35.5 320t97.5 217t138.5 118.5t166.5 38.5q95 0 149 -30t93 -89l24 94h324l-47 -311l-98 -803q-27 -219 -156.5 -312t-355.5 -93q-234 0 -329 63t-95 217l362 123q-5 -55 12.5 -87t75.5 -32
q60 0 89.5 33.5t39.5 114.5l17 127q-40 -44 -93 -68t-145 -24zM616 420l37 303q-49 72 -112 72q-31 0 -54 -15t-43 -51t-30.5 -103.5t-10.5 -164.5q0 -64 19 -88.5t63 -24.5q66 0 131 72z" />
    <glyph glyph-name="Gcommaaccent" unicode="&#x122;" horiz-adv-x="1212" 
d="M350 -82h379l-117 -328h-333zM70 504q0 136 9.5 255.5t31.5 234.5t57 208.5t88 172.5t121 133t160 84t202 30q131 0 218.5 -22t145.5 -74t80 -139t13 -218l-375 -129q7 38 5 84t-10.5 86t-40.5 66.5t-85 26.5q-69 0 -121.5 -85.5t-80 -216.5t-41 -259t-13.5 -240
q0 -103 35.5 -155t122.5 -52q78 0 149 33l35 284h-160l37 299h512l-100 -788q-114 -76 -232 -112t-290 -36q-257 0 -365 127t-108 402z" />
    <glyph glyph-name="gcommaaccent" unicode="&#x123;" horiz-adv-x="1099" 
d="M797 1212h-402l178 426h367zM342 33q-305 0 -305 383q0 183 35.5 320t97.5 217t138.5 118.5t166.5 38.5q95 0 149 -30t93 -89l24 94h324l-47 -311l-98 -803q-27 -219 -156.5 -312t-355.5 -93q-234 0 -329 63t-95 217l362 123q-5 -55 12.5 -87t75.5 -32q60 0 89.5 33.5
t39.5 114.5l17 127q-40 -44 -93 -68t-145 -24zM616 420l37 303q-49 72 -112 72q-31 0 -54 -15t-43 -51t-30.5 -103.5t-10.5 -164.5q0 -64 19 -88.5t63 -24.5q66 0 131 72z" />
    <glyph glyph-name="Hcircumflex" unicode="&#x124;" horiz-adv-x="1196" 
d="M836 1597h366l-194 -1597h-367l80 653h-250l-80 -653h-366l194 1597h367l-76 -618h250zM633 1683h-293l233 426h402l127 -426h-293l-66 172z" />
    <glyph glyph-name="hcircumflex" unicode="&#x125;" horiz-adv-x="1093" 
d="M569 1638l-75 -620q61 48 128.5 70t161.5 22q149 0 204 -80.5t36 -245.5l-96 -784h-357l86 707q6 49 -11 68.5t-52 19.5q-76 0 -137 -72l-88 -723h-359l201 1638h358zM313 1724h-293l232 426h401l129 -426h-293l-67 172z" />
    <glyph glyph-name="Hbar" unicode="&#x126;" horiz-adv-x="1196" 
d="M836 1597h366l-194 -1597h-367l80 653h-250l-80 -653h-366l194 1597h367l-25 -194h250zM510 979h250l24 213h-249z" />
    <glyph glyph-name="hbar" unicode="&#x127;" horiz-adv-x="1093" 
d="M569 1638l-20 -157h205l-25 -211h-205l-30 -252q61 48 128.5 70t161.5 22q149 0 204 -80.5t36 -245.5l-96 -784h-357l86 707q6 49 -11 68.5t-52 19.5q-76 0 -137 -72l-88 -723h-359l156 1270h-123l25 211h122l21 157h358z" />
    <glyph glyph-name="Itilde" unicode="&#x128;" horiz-adv-x="602" 
d="M598 1597l-195 -1597h-368l194 1597h369zM662 2083l251 -31q-76 -401 -319 -401q-59 0 -107 24t-73.5 52.5t-54 52.5t-52.5 24q-28 0 -44.5 -23.5t-19.5 -46.5l-3 -24l-250 31q72 401 317 401q48 0 88.5 -16t67 -38t48.5 -44.5t43.5 -38.5t41.5 -16q28 0 44.5 23.5
t19.5 47.5z" />
    <glyph glyph-name="itilde" unicode="&#x129;" horiz-adv-x="544" 
d="M12 0l133 1085h357l-133 -1085h-357zM573 1612l250 -31q-72 -401 -317 -401q-48 0 -88.5 16t-67 38t-48.5 44.5t-43.5 38.5t-41.5 16q-28 0 -44.5 -23.5t-18.5 -47.5l-2 -23l-248 31q69 401 315 401q59 0 107 -24t73.5 -52.5t54 -52.5t52.5 -24q28 0 45 23.5t19 46.5z
" />
    <glyph glyph-name="Imacron" unicode="&#x12a;" horiz-adv-x="602" 
d="M598 1597l-195 -1597h-368l194 1597h369zM172 1733l43 335h516l-43 -335h-516z" />
    <glyph glyph-name="imacron" unicode="&#x12b;" horiz-adv-x="544" 
d="M12 0l133 1085h357l-133 -1085h-357zM84 1262l41 335h516l-41 -335h-516z" />
    <glyph glyph-name="Ibreve" unicode="&#x12c;" horiz-adv-x="602" 
d="M598 1597l-195 -1597h-368l194 1597h369zM420 1651q-138 0 -212 53.5t-89.5 155.5t4.5 249h266q-22 -147 70 -147q90 0 106 147h266q-13 -115 -38.5 -196t-72.5 -142t-121.5 -90.5t-178.5 -29.5z" />
    <glyph glyph-name="ibreve" unicode="&#x12d;" horiz-adv-x="544" 
d="M12 0l133 1085h357l-133 -1085h-357zM332 1180q-138 0 -212 53.5t-89.5 155.5t4.5 249h266q-22 -147 70 -147q90 0 106 147h266q-13 -115 -38.5 -196t-72.5 -142t-121.5 -90.5t-178.5 -29.5z" />
    <glyph glyph-name="Iogonek" unicode="&#x12e;" horiz-adv-x="602" 
d="M598 1597l-195 -1597q-91 -8 -144.5 -52.5t-53.5 -92.5q0 -50 53 -50q23 0 50 9t43 17.5t16 10.5l41 -233q-89 -51 -222 -51q-116 0 -185 47t-69 143q0 124 99 234l198 1615h369z" />
    <glyph glyph-name="iogonek" unicode="&#x12f;" horiz-adv-x="544" 
d="M502 1085l-133 -1085q-90 -8 -146 -50t-63 -89q-2 -22 9.5 -39t43.5 -17q23 0 50 9t43 17.5t16 10.5l40 -233q-89 -51 -221 -51q-125 0 -195 55.5t-57 167.5q17 128 123 221l133 1083h357zM567 1593l-45 -360h-366l45 360h366z" />
    <glyph glyph-name="Idotaccent" unicode="&#x130;" horiz-adv-x="602" 
d="M598 1597l-195 -1597h-368l194 1597h369zM662 2068l-48 -372h-376l47 372h377z" />
    <glyph glyph-name="dotlessi" unicode="&#x131;" horiz-adv-x="544" 
d="M12 0l133 1085h357l-133 -1085h-357z" />
    <glyph glyph-name="IJ" unicode="&#x132;" horiz-adv-x="1318" 
d="M698 291q106 0 121 125l146 1179h366l-143 -1173q-15 -122 -53 -210t-97.5 -139.5t-133 -75.5t-167.5 -24q-72 0 -142 11t-103 26l61 322q67 -44 145 -41zM598 1597l-195 -1597h-368l194 1597h369z" />
    <glyph glyph-name="ij" unicode="&#x133;" horiz-adv-x="1032" 
d="M12 0l133 1085h357l-133 -1085h-357zM567 1597l-43 -362h-366l43 362h366zM989 1085l-145 -1177q-45 -350 -412 -350q-118 0 -194 26l51 295q43 -16 104 -16q90 0 101 88l139 1134h356zM1055 1597l-43 -362h-367l43 362h367z" />
    <glyph glyph-name="Jcircumflex" unicode="&#x134;" horiz-adv-x="1011" 
d="M657 1597h367l-141 -1153q-31 -255 -158 -362t-365 -107q-121 0 -201 23t-123 72t-58.5 114t-10.5 160l367 127q-12 -94 4.5 -136t69.5 -42q51 0 75 33.5t33 115.5zM762 1683h-293l233 426h402l127 -426h-293l-66 172z" />
    <glyph glyph-name="jcircumflex" unicode="&#x135;" horiz-adv-x="544" 
d="M502 1085l-146 -1177q-45 -350 -411 -350q-117 0 -193 26l51 295q43 -16 105 -16q87 0 98 88l139 1134h357zM248 1212h-293l233 426h402l127 -426h-293l-66 172z" />
    <glyph glyph-name="Kcommaaccent" unicode="&#x136;" horiz-adv-x="1198" 
d="M586 1597l-90 -665l329 665h443l-428 -692l258 -905h-449l-100 586l-117 -178l-41 -408h-366l194 1597h367zM330 -82h379l-117 -328h-334z" />
    <glyph glyph-name="kcommaaccent" unicode="&#x137;" horiz-adv-x="1064" 
d="M446 735l205 350h420l-332 -411l228 -674h-416l-78 360l-86 -104l-20 -256h-357l201 1638h356zM270 -82h379l-117 -328h-333z" />
    <glyph glyph-name="kgreenlandic" unicode="&#x138;" horiz-adv-x="1069" 
d="M446 735l205 350h420l-332 -411l228 -674h-416l-78 360l-86 -104l-20 -256h-357l133 1085h357z" />
    <glyph glyph-name="Lacute" unicode="&#x139;" horiz-adv-x="917" 
d="M586 1597l-156 -1269h404l-39 -328h-770l194 1597h367zM375 2109h401l-178 -426h-367z" />
    <glyph glyph-name="lacute" unicode="&#x13a;" horiz-adv-x="552" 
d="M16 0l201 1638h356l-200 -1638h-357zM365 2150h401l-176 -426h-367z" />
    <glyph glyph-name="Lcommaaccent" unicode="&#x13b;" horiz-adv-x="917" 
d="M586 1597l-156 -1269h404l-39 -328h-770l194 1597h367zM217 -82h379l-117 -328h-334z" />
    <glyph glyph-name="lcommaaccent" unicode="&#x13c;" horiz-adv-x="552" 
d="M16 0l201 1638h356l-200 -1638h-357zM-8 -82h379l-117 -328h-332z" />
    <glyph glyph-name="Lcaron" unicode="&#x13d;" horiz-adv-x="917" 
d="M586 1597l-156 -1269h404l-39 -328h-770l194 1597h367zM700 1638h205l-131 -491h-145z" />
    <glyph glyph-name="lcaron" unicode="&#x13e;" horiz-adv-x="552" 
d="M16 0l201 1638h356l-200 -1638h-357zM645 1638h205l-131 -491h-146z" />
    <glyph glyph-name="Ldot" unicode="&#x13f;" horiz-adv-x="989" 
d="M586 1597l-156 -1269h404l-39 -328h-770l194 1597h367zM993 1004l-47 -373h-377l47 373h377z" />
    <glyph glyph-name="ldot" unicode="&#x140;" horiz-adv-x="919" 
d="M16 0l201 1638h356l-200 -1638h-357zM934 985l-47 -373h-377l47 373h377z" />
    <glyph glyph-name="Lslash" unicode="&#x141;" horiz-adv-x="999" 
d="M821 811l-266 -125l-43 -358h403l-38 -328h-771l62 504l-115 -53l33 274l115 53l100 819h367l-78 -636l266 124z" />
    <glyph glyph-name="lslash" unicode="&#x142;" horiz-adv-x="708" 
d="M672 838l-148 -86l-92 -752h-356l65 532l-129 -73l33 274l129 74l102 831h357l-76 -610l148 84z" />
    <glyph glyph-name="Nacute" unicode="&#x143;" horiz-adv-x="1234" 
d="M616 1597l101 -462l80 -390l37 308l65 544h342l-194 -1597h-398l-102 463l-78 389l-37 -307l-61 -545h-346l194 1597h397zM690 2109h402l-179 -426h-366z" />
    <glyph glyph-name="nacute" unicode="&#x144;" horiz-adv-x="1093" 
d="M459 1085v-94q75 65 147.5 92t177.5 27q149 0 204 -80.5t36 -245.5l-96 -784h-357l86 707q6 49 -11 68.5t-52 19.5q-76 0 -137 -72l-88 -723h-359l94 774l33 311h322zM563 1638h402l-179 -426h-366z" />
    <glyph glyph-name="Ncommaaccent" unicode="&#x145;" horiz-adv-x="1234" 
d="M616 1597l101 -462l80 -390l37 308l65 544h342l-194 -1597h-398l-102 463l-78 389l-37 -307l-61 -545h-346l194 1597h397zM342 -82h379l-117 -328h-334z" />
    <glyph glyph-name="ncommaaccent" unicode="&#x146;" horiz-adv-x="1093" 
d="M459 1085v-94q75 65 147.5 92t177.5 27q149 0 204 -80.5t36 -245.5l-96 -784h-357l86 707q6 49 -11 68.5t-52 19.5q-76 0 -137 -72l-88 -723h-359l94 774l33 311h322zM272 -82h379l-116 -328h-334z" />
    <glyph glyph-name="Ncaron" unicode="&#x147;" horiz-adv-x="1234" 
d="M616 1597l101 -462l80 -390l37 308l65 544h342l-194 -1597h-398l-102 463l-78 389l-37 -307l-61 -545h-346l194 1597h397zM881 2109h293l-234 -426h-401l-127 426h293l67 -172z" />
    <glyph glyph-name="ncaron" unicode="&#x148;" horiz-adv-x="1093" 
d="M459 1085v-94q75 65 147.5 92t177.5 27q149 0 204 -80.5t36 -245.5l-96 -784h-357l86 707q6 49 -11 68.5t-52 19.5q-76 0 -137 -72l-88 -723h-359l94 774l33 311h322zM754 1638h293l-234 -426h-401l-127 426h293l65 -172z" />
    <glyph glyph-name="Eng" unicode="&#x14a;" horiz-adv-x="1234" 
d="M616 1597l101 -462l80 -390l37 308l65 544h342l-194 -1597h-3l-10 -92q-45 -350 -411 -350q-119 0 -195 26l51 295q43 -16 76 -16q52 0 77.5 19.5t31.5 66.5l-117 514l-78 389l-37 -307l-61 -545h-346l194 1597h397z" />
    <glyph glyph-name="eng" unicode="&#x14b;" horiz-adv-x="1093" 
d="M459 1085v-94q75 65 147.5 92t177.5 27q149 0 204 -80.5t36 -245.5l-96 -784h-2l-11 -92q-45 -350 -411 -350q-119 0 -195 26l51 295q43 -16 105 -16q89 0 100 88l56 459l36 297q6 49 -11 68.5t-52 19.5q-76 0 -137 -72l-88 -723h-359l94 774l33 311h322z" />
    <glyph glyph-name="Omacron" unicode="&#x14c;" horiz-adv-x="1204" 
d="M473 1733l43 335h516l-43 -335h-516zM555 295q62 0 110.5 77t76 198t41.5 251.5t14 255.5q0 226 -117 226q-62 0 -110.5 -77t-76 -198.5t-41.5 -252t-14 -255.5q0 -225 117 -225zM516 -25q-124 0 -212 36.5t-139 108.5t-74 168t-23 226q0 161 12.5 296.5t41 263.5
t78.5 225.5t120.5 171.5t171.5 112.5t227 38.5q124 0 212 -36.5t139 -108.5t74 -168t23 -226q0 -161 -12.5 -296.5t-41 -263.5t-78.5 -225.5t-120.5 -171.5t-171.5 -112.5t-227 -38.5z" />
    <glyph glyph-name="omacron" unicode="&#x14d;" horiz-adv-x="1019" 
d="M324 1262l41 335h516l-41 -335h-516zM463 289q33 0 59 19.5t41 54.5t25.5 72t14.5 83.5t5.5 77t1.5 63.5q0 76 -22 107t-64 31q-33 0 -59 -19.5t-41 -55t-25.5 -72.5t-14.5 -84t-5.5 -77.5t-1.5 -64.5q0 -75 21 -105t65 -30zM428 -25q-210 0 -309 95t-99 313
q0 84 5.5 155.5t21 148t40.5 136.5t66.5 115.5t97 92t134 58t174.5 21.5q210 0 309 -95.5t99 -314.5q0 -85 -5.5 -156.5t-21 -147.5t-40.5 -136t-66.5 -115t-97 -91t-134 -57.5t-174.5 -21.5z" />
    <glyph glyph-name="Obreve" unicode="&#x14e;" horiz-adv-x="1204" 
d="M721 1651q-138 0 -212 53.5t-89.5 155.5t4.5 249h266q-22 -147 70 -147q90 0 106 147h267q-13 -115 -39 -196t-73 -142t-121.5 -90.5t-178.5 -29.5zM555 295q62 0 110.5 77t76 198t41.5 251.5t14 255.5q0 226 -117 226q-62 0 -110.5 -77t-76 -198.5t-41.5 -252
t-14 -255.5q0 -225 117 -225zM516 -25q-124 0 -212 36.5t-139 108.5t-74 168t-23 226q0 161 12.5 296.5t41 263.5t78.5 225.5t120.5 171.5t171.5 112.5t227 38.5q124 0 212 -36.5t139 -108.5t74 -168t23 -226q0 -161 -12.5 -296.5t-41 -263.5t-78.5 -225.5t-120.5 -171.5
t-171.5 -112.5t-227 -38.5z" />
    <glyph glyph-name="obreve" unicode="&#x14f;" horiz-adv-x="1019" 
d="M571 1180q-138 0 -212 53.5t-89.5 155.5t4.5 249h267q-22 -147 69 -147t107 147h266q-13 -115 -39 -196t-73 -142t-121.5 -90.5t-178.5 -29.5zM463 289q33 0 59 19.5t41 54.5t25.5 72t14.5 83.5t5.5 77t1.5 63.5q0 76 -22 107t-64 31q-33 0 -59 -19.5t-41 -55
t-25.5 -72.5t-14.5 -84t-5.5 -77.5t-1.5 -64.5q0 -75 21 -105t65 -30zM428 -25q-210 0 -309 95t-99 313q0 84 5.5 155.5t21 148t40.5 136.5t66.5 115.5t97 92t134 58t174.5 21.5q210 0 309 -95.5t99 -314.5q0 -85 -5.5 -156.5t-21 -147.5t-40.5 -136t-66.5 -115t-97 -91
t-134 -57.5t-174.5 -21.5z" />
    <glyph glyph-name="Ohungarumlaut" unicode="&#x150;" horiz-adv-x="1204" 
d="M487 2109h402l-199 -426h-366zM930 2109h401l-198 -426h-367zM555 295q62 0 110.5 77t76 198t41.5 251.5t14 255.5q0 226 -117 226q-62 0 -110.5 -77t-76 -198.5t-41.5 -252t-14 -255.5q0 -225 117 -225zM516 -25q-124 0 -212 36.5t-139 108.5t-74 168t-23 226
q0 161 12.5 296.5t41 263.5t78.5 225.5t120.5 171.5t171.5 112.5t227 38.5q124 0 212 -36.5t139 -108.5t74 -168t23 -226q0 -161 -12.5 -296.5t-41 -263.5t-78.5 -225.5t-120.5 -171.5t-171.5 -112.5t-227 -38.5z" />
    <glyph glyph-name="ohungarumlaut" unicode="&#x151;" horiz-adv-x="1019" 
d="M338 1638h401l-198 -426h-367zM780 1638h402l-199 -426h-367zM463 289q33 0 59 19.5t41 54.5t25.5 72t14.5 83.5t5.5 77t1.5 63.5q0 76 -22 107t-64 31q-33 0 -59 -19.5t-41 -55t-25.5 -72.5t-14.5 -84t-5.5 -77.5t-1.5 -64.5q0 -75 21 -105t65 -30zM428 -25
q-210 0 -309 95t-99 313q0 84 5.5 155.5t21 148t40.5 136.5t66.5 115.5t97 92t134 58t174.5 21.5q210 0 309 -95.5t99 -314.5q0 -85 -5.5 -156.5t-21 -147.5t-40.5 -136t-66.5 -115t-97 -91t-134 -57.5t-174.5 -21.5z" />
    <glyph glyph-name="OE" unicode="&#x152;" horiz-adv-x="1579" 
d="M1436 0h-854q-138 0 -232.5 26t-158 86.5t-92.5 159t-29 244.5q0 202 22.5 364.5t74.5 298.5t132.5 227t199.5 141t273 50h836l-39 -327h-424l-37 -291h336l-39 -326h-336l-41 -325h447zM618 328h41l117 942h-43q-52 0 -95.5 -25t-73.5 -67t-53 -102t-36.5 -123.5
t-22 -139t-11.5 -141t-3 -135.5q0 -112 40 -160.5t140 -48.5z" />
    <glyph glyph-name="oe" unicode="&#x153;" horiz-adv-x="1579" 
d="M428 -25q-210 0 -309 95t-99 313q0 84 5.5 155.5t21 148t40.5 136.5t66.5 115.5t97 92t134 58t174.5 21.5q190 0 272 -113q116 113 299 113q216 0 307 -95.5t91 -297.5q0 -83 -12 -178l-13 -101h-542q-7 -58 -7 -86q0 -47 15.5 -69.5t52.5 -22.5q81 0 94 98l344 -118
q-15 -63 -43 -108.5t-80 -82.5t-137 -55.5t-203 -18.5q-190 0 -278 109q-109 -109 -291 -109zM1092 825q-46 0 -70.5 -40t-36.5 -136h162q6 52 6 86q0 49 -14 69.5t-47 20.5zM463 289q33 0 59 19.5t41 54.5t25.5 72t14.5 83.5t5.5 77t1.5 63.5q0 76 -22 107t-64 31
q-33 0 -59 -19.5t-41 -55t-25.5 -72.5t-14.5 -84t-5.5 -77.5t-1.5 -64.5q0 -75 21 -105t65 -30z" />
    <glyph glyph-name="Racute" unicode="&#x154;" horiz-adv-x="1165" 
d="M631 2109h401l-178 -426h-367zM461 557l-68 -557h-368l194 1597h514q73 0 128.5 -7.5t112.5 -31.5t93.5 -64.5t60 -111.5t23.5 -168q0 -133 -22.5 -241t-62 -179t-79.5 -116t-88 -76l150 -602h-420l-84 557h-84zM502 887h94q38 0 64.5 7.5t55 31.5t43.5 78t15 137
q0 79 -33.5 104t-97.5 25h-94z" />
    <glyph glyph-name="racute" unicode="&#x155;" horiz-adv-x="751" 
d="M637 762q-101 0 -184 -62l-84 -700h-359l94 774l33 311h322v-106q92 131 219 131q55 0 90 -25l-59 -331q-21 8 -72 8zM408 1638h401l-178 -426h-367z" />
    <glyph glyph-name="Rcommaaccent" unicode="&#x156;" horiz-adv-x="1165" 
d="M330 -82h379l-117 -328h-334zM461 557l-68 -557h-368l194 1597h514q73 0 128.5 -7.5t112.5 -31.5t93.5 -64.5t60 -111.5t23.5 -168q0 -133 -22.5 -241t-62 -179t-79.5 -116t-88 -76l150 -602h-420l-84 557h-84zM502 887h94q38 0 64.5 7.5t55 31.5t43.5 78t15 137
q0 79 -33.5 104t-97.5 25h-94z" />
    <glyph glyph-name="rcommaaccent" unicode="&#x157;" horiz-adv-x="751" 
d="M637 762q-101 0 -184 -62l-84 -700h-359l94 774l33 311h322v-106q92 131 219 131q55 0 90 -25l-59 -331q-21 8 -72 8zM-12 -82h379l-117 -328h-332z" />
    <glyph glyph-name="Rcaron" unicode="&#x158;" horiz-adv-x="1165" 
d="M821 2109h293l-233 -426h-402l-127 426h293l68 -172zM461 557l-68 -557h-368l194 1597h514q73 0 128.5 -7.5t112.5 -31.5t93.5 -64.5t60 -111.5t23.5 -168q0 -133 -22.5 -241t-62 -179t-79.5 -116t-88 -76l150 -602h-420l-84 557h-84zM502 887h94q38 0 64.5 7.5t55 31.5
t43.5 78t15 137q0 79 -33.5 104t-97.5 25h-94z" />
    <glyph glyph-name="rcaron" unicode="&#x159;" horiz-adv-x="751" 
d="M637 762q-101 0 -184 -62l-84 -700h-359l94 774l33 311h322v-106q92 131 219 131q55 0 90 -25l-59 -331q-21 8 -72 8zM600 1638h293l-234 -426h-401l-127 426h293l65 -172z" />
    <glyph glyph-name="Sacute" unicode="&#x15a;" horiz-adv-x="1101" 
d="M631 2109h401l-178 -426h-367zM498 295q164 0 164 186q0 73 -48 108.5t-165 67.5q-59 16 -101 31.5t-89 45.5t-76 69t-48.5 101.5t-19.5 142.5q0 298 137.5 440.5t429.5 142.5q246 0 336.5 -102.5t71.5 -347.5l-367 -125q13 106 9 145q-11 103 -101 103
q-67 0 -105.5 -50.5t-38.5 -148.5q0 -70 39.5 -98t145.5 -48q91 -18 151 -41t111.5 -65.5t75.5 -110.5t24 -166q0 -169 -40.5 -288.5t-119 -188.5t-182 -100t-241.5 -31q-116 0 -197.5 18.5t-131.5 55t-77 91t-32.5 126t1.5 160.5l365 125q-3 -28 -3.5 -36t-2 -35.5
t-0.5 -38.5t3.5 -34.5t8 -34.5t15 -27t23 -23t32.5 -13t43 -6z" />
    <glyph glyph-name="sacute" unicode="&#x15b;" horiz-adv-x="1001" 
d="M512 1638h401l-178 -426h-366zM440 248q49 0 75 28.5t26 79.5q0 34 -24 47.5t-77 18.5q-101 9 -165 23.5t-115.5 43.5t-74 77.5t-22.5 121.5q0 422 496 422q97 0 165 -11.5t119.5 -39.5t75 -78t21.5 -125l-365 -125q3 20 3 44t-13.5 43.5t-38.5 19.5q-69 0 -69 -101
q0 -58 88 -65q77 -6 130 -14.5t102.5 -26t78 -45t45.5 -70.5t17 -102q0 -439 -527 -439q-77 0 -133 5.5t-109.5 22.5t-85.5 46t-50 77.5t-15 115.5l364 125q-11 -47 9 -83t69 -36z" />
    <glyph glyph-name="Scircumflex" unicode="&#x15c;" horiz-adv-x="1101" 
d="M592 1683h-293l233 426h402l127 -426h-293l-66 172zM498 295q164 0 164 186q0 73 -48 108.5t-165 67.5q-59 16 -101 31.5t-89 45.5t-76 69t-48.5 101.5t-19.5 142.5q0 298 137.5 440.5t429.5 142.5q246 0 336.5 -102.5t71.5 -347.5l-367 -125q13 106 9 145
q-11 103 -101 103q-67 0 -105.5 -50.5t-38.5 -148.5q0 -70 39.5 -98t145.5 -48q91 -18 151 -41t111.5 -65.5t75.5 -110.5t24 -166q0 -169 -40.5 -288.5t-119 -188.5t-182 -100t-241.5 -31q-116 0 -197.5 18.5t-131.5 55t-77 91t-32.5 126t1.5 160.5l365 125q-3 -28 -3.5 -36
t-2 -35.5t-0.5 -38.5t3.5 -34.5t8 -34.5t15 -27t23 -23t32.5 -13t43 -6z" />
    <glyph glyph-name="scircumflex" unicode="&#x15d;" horiz-adv-x="1001" 
d="M473 1212h-293l234 426h401l127 -426h-293l-65 172zM440 248q49 0 75 28.5t26 79.5q0 34 -24 47.5t-77 18.5q-101 9 -165 23.5t-115.5 43.5t-74 77.5t-22.5 121.5q0 422 496 422q97 0 165 -11.5t119.5 -39.5t75 -78t21.5 -125l-365 -125q3 20 3 44t-13.5 43.5t-38.5 19.5
q-69 0 -69 -101q0 -58 88 -65q77 -6 130 -14.5t102.5 -26t78 -45t45.5 -70.5t17 -102q0 -439 -527 -439q-77 0 -133 5.5t-109.5 22.5t-85.5 46t-50 77.5t-15 115.5l364 125q-11 -47 9 -83t69 -36z" />
    <glyph glyph-name="Scedilla" unicode="&#x15e;" horiz-adv-x="1101" 
d="M498 295q164 0 164 186q0 73 -48 108.5t-165 67.5q-59 16 -101 31.5t-89 45.5t-76 69t-48.5 101.5t-19.5 142.5q0 298 137.5 440.5t429.5 142.5q246 0 336.5 -102.5t71.5 -347.5l-367 -125q13 106 9 145q-11 103 -101 103q-67 0 -105.5 -50.5t-38.5 -148.5
q0 -70 39.5 -98t145.5 -48q91 -18 151 -41t111.5 -65.5t75.5 -110.5t24 -166q0 -156 -35 -270t-103 -184t-158 -106t-210 -44l-14 -39q230 -49 191 -202q-21 -86 -102 -129t-191 -43q-154 0 -258 47l69 155q48 -26 99 -34q96 -14 104 43q3 28 -38 49t-114 28l60 127
q-85 9 -145.5 33t-97 61.5t-56 89.5t-23.5 117t2 144l365 125q-3 -28 -3.5 -36t-2 -35.5t-0.5 -38.5t3.5 -34.5t8 -34.5t15 -27t23 -23t32.5 -13t43 -6z" />
    <glyph glyph-name="scedilla" unicode="&#x15f;" horiz-adv-x="1001" 
d="M440 248q49 0 75 28.5t26 79.5q0 34 -24 47.5t-77 18.5q-101 9 -165 23.5t-115.5 43.5t-74 77.5t-22.5 121.5q0 422 496 422q97 0 165 -11.5t119.5 -39.5t75 -78t21.5 -125l-365 -125q3 20 3 44t-13.5 43.5t-38.5 19.5q-69 0 -69 -101q0 -58 88 -65q77 -6 130 -14.5
t102.5 -26t78 -45t45.5 -70.5t17 -102q0 -398 -433 -434l-18 -48q229 -49 190 -202q-21 -86 -101.5 -129t-190.5 -43q-155 0 -259 47l70 155q47 -26 98 -34q97 -15 105 43q3 28 -38 49t-114 28l62 134q-72 5 -123.5 19t-92 43t-59.5 79t-16 121l364 125q-11 -47 9 -83
t69 -36z" />
    <glyph glyph-name="Scaron" unicode="&#x160;" horiz-adv-x="1101" 
d="M821 2109h293l-233 -426h-402l-127 426h293l68 -172zM498 295q164 0 164 186q0 73 -48 108.5t-165 67.5q-59 16 -101 31.5t-89 45.5t-76 69t-48.5 101.5t-19.5 142.5q0 298 137.5 440.5t429.5 142.5q246 0 336.5 -102.5t71.5 -347.5l-367 -125q13 106 9 145
q-11 103 -101 103q-67 0 -105.5 -50.5t-38.5 -148.5q0 -70 39.5 -98t145.5 -48q91 -18 151 -41t111.5 -65.5t75.5 -110.5t24 -166q0 -169 -40.5 -288.5t-119 -188.5t-182 -100t-241.5 -31q-116 0 -197.5 18.5t-131.5 55t-77 91t-32.5 126t1.5 160.5l365 125q-3 -28 -3.5 -36
t-2 -35.5t-0.5 -38.5t3.5 -34.5t8 -34.5t15 -27t23 -23t32.5 -13t43 -6z" />
    <glyph glyph-name="scaron" unicode="&#x161;" horiz-adv-x="1001" 
d="M702 1638h293l-233 -426h-402l-127 426h293l66 -172zM440 248q49 0 75 28.5t26 79.5q0 34 -24 47.5t-77 18.5q-101 9 -165 23.5t-115.5 43.5t-74 77.5t-22.5 121.5q0 422 496 422q97 0 165 -11.5t119.5 -39.5t75 -78t21.5 -125l-365 -125q3 20 3 44t-13.5 43.5
t-38.5 19.5q-69 0 -69 -101q0 -58 88 -65q77 -6 130 -14.5t102.5 -26t78 -45t45.5 -70.5t17 -102q0 -439 -527 -439q-77 0 -133 5.5t-109.5 22.5t-85.5 46t-50 77.5t-15 115.5l364 125q-11 -47 9 -83t69 -36z" />
    <glyph glyph-name="Tcommaaccent" unicode="&#x162;" horiz-adv-x="1001" 
d="M758 1270l-156 -1270h-366l155 1270h-276l39 327h919l-39 -327h-276zM225 -82h379l-117 -328h-333z" />
    <glyph glyph-name="tcommaaccent" unicode="&#x163;" horiz-adv-x="790" 
d="M47 788l37 297h127l35 287h356l-35 -287h217l-36 -297h-218l-51 -419q-11 -90 76 -90q55 0 109 16l-19 -293q-88 -27 -205 -27q-365 0 -323 351l57 462h-127zM145 -82h379l-116 -328h-334z" />
    <glyph glyph-name="Tcaron" unicode="&#x164;" horiz-adv-x="1001" 
d="M758 1270l-156 -1270h-366l155 1270h-276l39 327h919l-39 -327h-276zM764 2109h293l-234 -426h-401l-127 426h293l67 -172z" />
    <glyph glyph-name="tcaron" unicode="&#x165;" horiz-adv-x="790" 
d="M47 788l37 297h127l35 287h356l-35 -287h217l-36 -297h-218l-51 -419q-11 -90 76 -90q55 0 109 16l-19 -293q-88 -27 -205 -27q-365 0 -323 351l57 462h-127zM707 1638h204l-131 -491h-145z" />
    <glyph glyph-name="Tbar" unicode="&#x166;" horiz-adv-x="1001" 
d="M170 692l31 254h149l41 324h-276l39 327h919l-39 -327h-276l-41 -324h149l-30 -254h-150l-84 -692h-366l83 692h-149z" />
    <glyph glyph-name="tbar" unicode="&#x167;" horiz-adv-x="790" 
d="M668 649l-25 -211h-156l-8 -69q-11 -90 76 -90q55 0 109 16l-19 -293q-88 -27 -205 -27q-365 0 -323 351l14 112h-127l25 211h127l18 139h-127l37 297h127l35 287h356l-35 -287h217l-36 -297h-218l-18 -139h156z" />
    <glyph glyph-name="Utilde" unicode="&#x168;" horiz-adv-x="1148" 
d="M526 293q67 0 92.5 31t36.5 116l142 1157h366l-143 -1175q-12 -98 -33 -167.5t-59.5 -126.5t-97 -91t-143 -52t-200.5 -18q-143 0 -233.5 27.5t-136 83.5t-56.5 141.5t5 202.5l143 1175h369l-142 -1157q-11 -84 6.5 -115.5t83.5 -31.5zM934 2083l252 -31
q-76 -401 -320 -401q-48 0 -88.5 16t-66 38.5t-47 44.5t-43 38t-41.5 16q-28 0 -45 -23.5t-20 -46.5l-3 -24l-250 31q72 401 318 401q48 0 88.5 -16t66.5 -38t48 -44.5t43.5 -38.5t41.5 -16q28 0 44.5 23.5t19.5 47.5z" />
    <glyph glyph-name="utilde" unicode="&#x169;" horiz-adv-x="1093" 
d="M604 0l-2 94q-75 -64 -148 -91.5t-178 -27.5q-149 0 -203.5 80.5t-33.5 245.5l96 784h357l-89 -706q-10 -88 62 -88q75 0 139 71l90 723h357l-97 -774l-28 -311h-322zM848 1612l250 -31q-72 -401 -318 -401q-48 0 -88.5 16t-66.5 38t-48 44.5t-43.5 38.5t-41.5 16
q-28 0 -44.5 -23.5t-19.5 -47.5l-2 -23l-250 31q72 401 318 401q48 0 88.5 -16t66 -38.5t47 -44.5t43 -38t41.5 -16q28 0 45 23.5t20 46.5z" />
    <glyph glyph-name="Umacron" unicode="&#x16a;" horiz-adv-x="1148" 
d="M526 293q67 0 92.5 31t36.5 116l142 1157h366l-143 -1175q-12 -98 -33 -167.5t-59.5 -126.5t-97 -91t-143 -52t-200.5 -18q-143 0 -233.5 27.5t-136 83.5t-56.5 141.5t5 202.5l143 1175h369l-142 -1157q-11 -84 6.5 -115.5t83.5 -31.5zM444 1733l43 335h517l-43 -335
h-517z" />
    <glyph glyph-name="umacron" unicode="&#x16b;" horiz-adv-x="1093" 
d="M604 0l-2 94q-75 -64 -148 -91.5t-178 -27.5q-149 0 -203.5 80.5t-33.5 245.5l96 784h357l-89 -706q-10 -88 62 -88q75 0 139 71l90 723h357l-97 -774l-28 -311h-322zM358 1262l41 335h516l-41 -335h-516z" />
    <glyph glyph-name="Ubreve" unicode="&#x16c;" horiz-adv-x="1148" 
d="M526 293q67 0 92.5 31t36.5 116l142 1157h366l-143 -1175q-12 -98 -33 -167.5t-59.5 -126.5t-97 -91t-143 -52t-200.5 -18q-143 0 -233.5 27.5t-136 83.5t-56.5 141.5t5 202.5l143 1175h369l-142 -1157q-11 -84 6.5 -115.5t83.5 -31.5zM692 1651q-138 0 -212 53.5
t-89.5 155.5t4.5 249h267q-22 -147 69 -147t107 147h266q-13 -115 -39 -196t-73 -142t-121.5 -90.5t-178.5 -29.5z" />
    <glyph glyph-name="ubreve" unicode="&#x16d;" horiz-adv-x="1093" 
d="M604 0l-2 94q-75 -64 -148 -91.5t-178 -27.5q-149 0 -203.5 80.5t-33.5 245.5l96 784h357l-89 -706q-10 -88 62 -88q75 0 139 71l90 723h357l-97 -774l-28 -311h-322zM606 1180q-138 0 -212 53.5t-89.5 155.5t4.5 249h266q-22 -147 70 -147q91 0 107 147h266
q-13 -115 -39 -196t-73 -142t-121.5 -90.5t-178.5 -29.5z" />
    <glyph glyph-name="Uring" unicode="&#x16e;" horiz-adv-x="1148" 
d="M526 293q67 0 92.5 31t36.5 116l142 1157h366l-143 -1175q-12 -98 -33 -167.5t-59.5 -126.5t-97 -91t-143 -52t-200.5 -18q-143 0 -233.5 27.5t-136 83.5t-56.5 141.5t5 202.5l143 1175h369l-142 -1157q-11 -84 6.5 -115.5t83.5 -31.5zM477 1896q14 110 88 178t189 68
t172 -68t43 -178q-12 -109 -87 -177t-190 -68q-114 0 -170.5 67.5t-44.5 177.5zM780 1896q9 58 -49 58q-56 0 -65 -58q-6 -57 51 -57t63 57z" />
    <glyph glyph-name="uring" unicode="&#x16f;" horiz-adv-x="1093" 
d="M604 0l-2 94q-75 -64 -148 -91.5t-178 -27.5q-149 0 -203.5 80.5t-33.5 245.5l96 784h357l-89 -706q-10 -88 62 -88q75 0 139 71l90 723h357l-97 -774l-28 -311h-322zM631 1368q63 0 63 68q0 47 -51 47q-63 0 -63 -68q0 -47 51 -47zM606 1180q-104 0 -160.5 55.5
t-56.5 148.5q0 124 77 205.5t202 81.5q103 0 160 -56t57 -149q0 -124 -77 -205t-202 -81z" />
    <glyph glyph-name="Uhungarumlaut" unicode="&#x170;" horiz-adv-x="1148" 
d="M526 293q67 0 92.5 31t36.5 116l142 1157h366l-143 -1175q-12 -98 -33 -167.5t-59.5 -126.5t-97 -91t-143 -52t-200.5 -18q-143 0 -233.5 27.5t-136 83.5t-56.5 141.5t5 202.5l143 1175h369l-142 -1157q-11 -84 6.5 -115.5t83.5 -31.5zM459 2109h401l-198 -426h-367z
M901 2109h402l-199 -426h-367z" />
    <glyph glyph-name="uhungarumlaut" unicode="&#x171;" horiz-adv-x="1093" 
d="M604 0l-2 94q-75 -64 -148 -91.5t-178 -27.5q-149 0 -203.5 80.5t-33.5 245.5l96 784h357l-89 -706q-10 -88 62 -88q75 0 139 71l90 723h357l-97 -774l-28 -311h-322zM373 1638h401l-199 -426h-366zM815 1638h402l-199 -426h-367z" />
    <glyph glyph-name="Uogonek" unicode="&#x172;" horiz-adv-x="1148" 
d="M526 293q67 0 92.5 31t36.5 116l142 1157h366l-143 -1175q-12 -95 -32 -163t-55.5 -124t-90.5 -91t-133 -54q-81 -22 -124.5 -51.5t-49.5 -77.5q-2 -22 9.5 -39t43.5 -17q23 0 49 8.5t39 16t20 12.5l41 -233q-89 -51 -221 -51q-126 0 -196.5 55.5t-57.5 167.5
q14 109 100 192q-199 22 -261.5 127.5t-34.5 321.5l143 1175h369l-142 -1157q-11 -84 6.5 -115.5t83.5 -31.5z" />
    <glyph glyph-name="uogonek" unicode="&#x173;" horiz-adv-x="1093" 
d="M954 311l-28 -311q-92 -9 -158 -51.5t-72 -87.5q-2 -22 10 -39t44 -17q23 0 50 9t42.5 17.5t15.5 10.5l41 -233q-89 -51 -221 -51q-126 0 -196.5 55.5t-57.5 167.5q19 152 178 256v57q-75 -64 -148 -91.5t-178 -27.5q-149 0 -203.5 80.5t-33.5 245.5l96 784h357l-89 -706
q-10 -88 62 -88q75 0 139 71l90 723h357z" />
    <glyph glyph-name="Wcircumflex" unicode="&#x174;" horiz-adv-x="1564" 
d="M831 -12l3 1108l-269 -1108h-481l29 1609h366l-63 -1126l272 1126h414l-2 -1126l211 1126h366l-364 -1609h-482zM817 1683h-293l234 426h401l127 -426h-293l-65 172z" />
    <glyph glyph-name="wcircumflex" unicode="&#x175;" horiz-adv-x="1384" 
d="M580 1085h327l25 -602l119 602h342l-279 -1085h-407l-21 623l-172 -623h-408l-12 1085h342l-33 -602zM670 1212h-293l233 426h402l127 -426h-293l-66 172z" />
    <glyph glyph-name="Ycircumflex" unicode="&#x176;" horiz-adv-x="1099" 
d="M578 895l266 702h377l-512 -1081l-56 -516h-368l65 516l-246 1081h377zM584 1683h-293l233 426h402l127 -426h-293l-66 172z" />
    <glyph glyph-name="ycircumflex" unicode="&#x177;" horiz-adv-x="1048" 
d="M489 387l218 698h378l-456 -1077l-199 -418h-403l217 396l-178 1099h378zM502 1212h-293l233 426h402l127 -426h-293l-66 172z" />
    <glyph glyph-name="Ydieresis" unicode="&#x178;" horiz-adv-x="1099" 
d="M578 895l266 702h377l-512 -1081l-56 -516h-368l65 516l-246 1081h377zM659 2068l-45 -362h-366l45 362h366zM1149 2068l-45 -362h-367l45 362h367z" />
    <glyph glyph-name="Zacute" unicode="&#x179;" horiz-adv-x="1081" 
d="M-27 0l31 264l588 895l80 113l-240 -2h-266l39 327h917l-32 -264l-584 -895l-82 -112l242 2h303l-39 -328h-957zM627 2109h401l-178 -426h-367z" />
    <glyph glyph-name="zacute" unicode="&#x17a;" horiz-adv-x="870" 
d="M-53 0l28 240l426 536l-329 -6l39 315h751l-31 -239l-428 -537l392 6l-37 -315h-811zM451 1638h401l-178 -426h-367z" />
    <glyph glyph-name="Zdotaccent" unicode="&#x17b;" horiz-adv-x="1081" 
d="M-27 0l31 264l588 895l80 113l-240 -2h-266l39 327h917l-32 -264l-584 -895l-82 -112l242 2h303l-39 -328h-957zM913 2068l-47 -372h-377l48 372h376z" />
    <glyph glyph-name="zdotaccent" unicode="&#x17c;" horiz-adv-x="870" 
d="M-53 0l28 240l426 536l-329 -6l39 315h751l-31 -239l-428 -537l392 6l-37 -315h-811zM735 1597l-45 -372h-377l45 372h377z" />
    <glyph glyph-name="Zcaron" unicode="&#x17d;" horiz-adv-x="1081" 
d="M-27 0l31 264l588 895l80 113l-240 -2h-266l39 327h917l-32 -264l-584 -895l-82 -112l242 2h303l-39 -328h-957zM817 2109h293l-233 -426h-402l-127 426h293l68 -172z" />
    <glyph glyph-name="zcaron" unicode="&#x17e;" horiz-adv-x="870" 
d="M-53 0l28 240l426 536l-329 -6l39 315h751l-31 -239l-428 -537l392 6l-37 -315h-811zM641 1638h293l-234 -426h-401l-127 426h293l65 -172z" />
    <glyph glyph-name="florin" unicode="&#x192;" horiz-adv-x="829" 
d="M39 666l37 297h164l34 276q20 170 130 260t301 90q122 0 194 -26l-51 -293q-50 16 -103 16q-58 0 -86 -22.5t-34 -75.5l-29 -225h186l-37 -297h-186l-92 -750q-20 -170 -129.5 -260t-300.5 -90q-122 0 -193 26l54 293q46 -16 100 -16q58 0 85.5 22.5t35.5 75.5l84 699
h-164z" />
    <glyph glyph-name="Scommaaccent" unicode="&#x218;" horiz-adv-x="1101" 
d="M266 -82h379l-117 -328h-333zM498 295q164 0 164 186q0 73 -48 108.5t-165 67.5q-59 16 -101 31.5t-89 45.5t-76 69t-48.5 101.5t-19.5 142.5q0 298 137.5 440.5t429.5 142.5q246 0 336.5 -102.5t71.5 -347.5l-367 -125q13 106 9 145q-11 103 -101 103
q-67 0 -105.5 -50.5t-38.5 -148.5q0 -70 39.5 -98t145.5 -48q91 -18 151 -41t111.5 -65.5t75.5 -110.5t24 -166q0 -169 -40.5 -288.5t-119 -188.5t-182 -100t-241.5 -31q-116 0 -197.5 18.5t-131.5 55t-77 91t-32.5 126t1.5 160.5l365 125q-3 -28 -3.5 -36t-2 -35.5
t-0.5 -38.5t3.5 -34.5t8 -34.5t15 -27t23 -23t32.5 -13t43 -6z" />
    <glyph glyph-name="scommaaccent" unicode="&#x219;" horiz-adv-x="1001" 
d="M217 -82h379l-117 -328h-334zM440 248q49 0 75 28.5t26 79.5q0 34 -24 47.5t-77 18.5q-101 9 -165 23.5t-115.5 43.5t-74 77.5t-22.5 121.5q0 422 496 422q97 0 165 -11.5t119.5 -39.5t75 -78t21.5 -125l-365 -125q3 20 3 44t-13.5 43.5t-38.5 19.5q-69 0 -69 -101
q0 -58 88 -65q77 -6 130 -14.5t102.5 -26t78 -45t45.5 -70.5t17 -102q0 -439 -527 -439q-77 0 -133 5.5t-109.5 22.5t-85.5 46t-50 77.5t-15 115.5l364 125q-11 -47 9 -83t69 -36z" />
    <glyph glyph-name="dotlessj" unicode="&#x237;" horiz-adv-x="544" 
d="M502 1085l-146 -1177q-45 -350 -411 -350q-117 0 -193 26l51 295q43 -16 105 -16q87 0 98 88l139 1134h357z" />
    <glyph glyph-name="circumflex" unicode="&#x2c6;" horiz-adv-x="1269" 
d="M612 1212h-293l234 426h401l127 -426h-293l-65 172z" />
    <glyph glyph-name="caron" unicode="&#x2c7;" horiz-adv-x="1269" 
d="M842 1638h293l-234 -426h-401l-127 426h293l65 -172z" />
    <glyph glyph-name="breve" unicode="&#x2d8;" horiz-adv-x="1269" 
d="M696 1180q-138 0 -212 53.5t-89.5 155.5t4.5 249h267q-22 -147 69 -147t107 147h266q-13 -115 -39 -196t-73 -142t-121.5 -90.5t-178.5 -29.5z" />
    <glyph glyph-name="dotaccent" unicode="&#x2d9;" horiz-adv-x="1269" 
d="M936 1597l-45 -372h-377l45 372h377z" />
    <glyph glyph-name="ring" unicode="&#x2da;" horiz-adv-x="1269" 
d="M481 1425q14 110 88 178t189 68t172 -68t43 -178q-14 -109 -88 -177t-189 -68t-172 67.5t-43 177.5zM784 1425q6 58 -51 58t-63 -58q-6 -57 51 -57t63 57z" />
    <glyph glyph-name="ogonek" unicode="&#x2db;" horiz-adv-x="1269" 
d="M897 143l78 -143q-92 -9 -158 -51.5t-72 -87.5q-2 -22 10 -39t44 -17q23 0 50 9t42.5 17.5t15.5 10.5l41 -233q-89 -51 -221 -51q-126 0 -196.5 55.5t-57.5 167.5q8 60 39 113t74.5 92t98.5 71.5t107 52.5t105 33z" />
    <glyph glyph-name="tilde" unicode="&#x2dc;" horiz-adv-x="1269" 
d="M938 1612l250 -31q-72 -401 -318 -401q-48 0 -88.5 16t-66.5 38t-48 44.5t-43.5 38.5t-41.5 16q-28 0 -44.5 -23.5t-19.5 -47.5l-2 -23l-250 31q72 401 318 401q48 0 88.5 -16t66 -38.5t47 -44.5t43 -38t41.5 -16q28 0 45 23.5t20 46.5z" />
    <glyph glyph-name="hungarumlaut" unicode="&#x2dd;" horiz-adv-x="1269" 
d="M463 1638h401l-198 -426h-367zM905 1638h402l-199 -426h-367z" />
    <glyph glyph-name="pi" unicode="&#x3c0;" horiz-adv-x="1351" 
d="M684 326l57 462h-161l-58 -464l-82 -324h-321l45 311l59 477h-166l37 297h1235l-37 -297h-194l-51 -419q-6 -48 13 -68t62 -20q66 0 109 16l-19 -295q-88 -27 -202 -27q-371 0 -326 351z" />
    <glyph glyph-name="uni0E3F" unicode="&#xe3f;" horiz-adv-x="1069" 
d="M553 205h-78l-82 -205h-323l82 205h-103l141 1155h377l76 205h326l-86 -234q153 -59 153 -233q0 -94 -37.5 -170t-99.5 -113q55 -18 82 -73.5t27 -131.5q0 -405 -455 -405zM449 535h81q27 0 44 2t36 9.5t28 24.5t9 43q0 36 -22.5 48t-71.5 12h-88zM592 1030h-84l-14 -115
h84q51 0 73.5 17t22.5 57q0 24 -18.5 32.5t-63.5 8.5z" />
    <glyph glyph-name="enspace" unicode="&#x2002;" horiz-adv-x="1024" 
 />
    <glyph glyph-name="emspace" unicode="&#x2003;" horiz-adv-x="2048" 
 />
    <glyph glyph-name="threeperemspace" unicode="&#x2004;" horiz-adv-x="681" 
 />
    <glyph glyph-name="fourperemspace" unicode="&#x2005;" horiz-adv-x="512" 
 />
    <glyph glyph-name="sixperemspace" unicode="&#x2006;" horiz-adv-x="342" 
 />
    <glyph glyph-name="figurespace" unicode="&#x2007;" horiz-adv-x="1433" 
 />
    <glyph glyph-name="punctuationspace" unicode="&#x2008;" horiz-adv-x="532" 
 />
    <glyph glyph-name="thinspace" unicode="&#x2009;" horiz-adv-x="409" 
 />
    <glyph glyph-name="hairspace" unicode="&#x200a;" horiz-adv-x="204" 
 />
    <glyph glyph-name="zerowidthspace" unicode="&#x200b;" horiz-adv-x="0" 
 />
    <glyph glyph-name="figuredash" unicode="&#x2012;" horiz-adv-x="1474" 
d="M1346 518h-1254l41 336h1253z" />
    <glyph glyph-name="endash" unicode="&#x2013;" horiz-adv-x="1064" 
d="M936 518h-844l41 336h844z" />
    <glyph glyph-name="emdash" unicode="&#x2014;" horiz-adv-x="2088" 
d="M1960 518h-1868l41 336h1868z" />
    <glyph glyph-name="uni2015" unicode="&#x2015;" horiz-adv-x="2908" 
d="M2779 518h-2687l41 336h2687z" />
    <glyph glyph-name="doublebar" unicode="&#x2016;" horiz-adv-x="1241" 
d="M674 1700l-240 -1966h-379l240 1966h379zM1196 1700l-240 -1966h-378l239 1966h379z" />
    <glyph glyph-name="quoteleft" unicode="&#x2018;" horiz-adv-x="491" 
d="M424 1085h-391l192 512h301z" />
    <glyph glyph-name="quoteright" unicode="&#x2019;" horiz-adv-x="491" 
d="M231 1597h392l-193 -512h-301z" />
    <glyph glyph-name="quotesinglbase" unicode="&#x201a;" horiz-adv-x="491" 
d="M16 176h392l-195 -512h-299z" />
    <glyph glyph-name="reversequoteleft" unicode="&#x201b;" horiz-adv-x="491" 
d="M94 1597h391l-20 -512h-301z" />
    <glyph glyph-name="quotedblleft" unicode="&#x201c;" horiz-adv-x="915" 
d="M424 1085h-391l192 512h301zM864 1085h-391l193 512h301z" />
    <glyph glyph-name="quotedblright" unicode="&#x201d;" horiz-adv-x="931" 
d="M672 1597h391l-193 -512h-301zM231 1597h392l-193 -512h-301z" />
    <glyph glyph-name="quotedblbase" unicode="&#x201e;" horiz-adv-x="931" 
d="M457 176h391l-195 -512h-301zM16 176h392l-195 -512h-299z" />
    <glyph glyph-name="reversequotedblleft" unicode="&#x201f;" horiz-adv-x="931" 
d="M94 1597h391l-20 -512h-301zM535 1597h391l-21 -512h-301z" />
    <glyph glyph-name="dagger" unicode="&#x2020;" horiz-adv-x="718" 
d="M356 1597h232l-45 -208l219 20l-29 -229l-215 20l-8 -401h-272l90 401l-219 -20l28 229l215 -20z" />
    <glyph glyph-name="daggerdbl" unicode="&#x2021;" horiz-adv-x="718" 
d="M356 1597h232l-45 -208l219 20l-29 -229l-217 20v-70l-16 -71l221 20l-29 -229l-213 20l-8 -401h-272l90 401l-221 -20l28 229l215 -20v71l17 70l-219 -20l28 229l215 -20z" />
    <glyph glyph-name="bullet" unicode="&#x2022;" horiz-adv-x="962" 
d="M870 1032l-84 -692h-692l84 692h692z" />
    <glyph glyph-name="ellipsis" unicode="&#x2026;" horiz-adv-x="2088" 
d="M514 362l-43 -362h-367l43 362h367zM1188 362l-43 -362h-365l43 362h365zM1864 362l-43 -362h-367l43 362h367z" />
    <glyph glyph-name="perthousand" unicode="&#x2030;" horiz-adv-x="2750" 
d="M473 971q18 0 31.5 4t29.5 19t26 40.5t17 72.5t7 112q0 54 -16.5 78t-51.5 24q-18 0 -31.5 -4t-29 -19t-25.5 -40.5t-17 -72.5t-7 -112q0 -54 16 -78t51 -24zM440 702q-170 0 -244.5 78.5t-74.5 241.5q0 154 28 264t84 176t133.5 96.5t182.5 30.5q170 0 244.5 -78
t74.5 -241q0 -302 -108 -435t-320 -133zM1470 594q-18 0 -31.5 -4t-29 -19t-25.5 -40.5t-17 -72.5t-7 -112q0 -54 16 -78t51 -24q18 0 31.5 4t29.5 19t26 40.5t17 72.5t7 112q0 54 -16.5 78t-51.5 24zM1503 862q170 0 245 -78t75 -241q0 -302 -108 -435t-320 -133
q-170 0 -245 78.5t-75 241.5q0 154 28 264t84 176t133.5 96.5t182.5 30.5zM2251 594q-18 0 -31.5 -4t-29.5 -19t-26 -40.5t-17 -72.5t-7 -112q0 -54 16.5 -78t51.5 -24q18 0 31.5 4t29 19t25.5 40.5t17 72.5t7 112q0 54 -16 78t-51 24zM2284 862q170 0 244.5 -78t74.5 -241
q0 -302 -108 -435t-320 -133q-170 0 -245 78.5t-75 241.5q0 154 28.5 264t84.5 176t133.5 96.5t182.5 30.5zM342 0l991 1565h269l-992 -1565h-268z" />
    <glyph glyph-name="minute" unicode="&#x2032;" horiz-adv-x="546" 
d="M96 1565h404l-99 -699h-305v699z" />
    <glyph glyph-name="second" unicode="&#x2033;" horiz-adv-x="1013" 
d="M96 1565h404l-99 -699h-305v699zM563 1565h404l-99 -699h-305v699z" />
    <glyph glyph-name="tripleprime" unicode="&#x2034;" horiz-adv-x="1482" 
d="M178 1597h416l-113 -512h-313zM647 1597h414l-113 -512h-311zM1116 1597h414l-113 -512h-311z" />
    <glyph glyph-name="guilsinglleft" unicode="&#x2039;" horiz-adv-x="655" 
d="M516 535l-37 -291l-389 293l27 217l461 293l-35 -289l-135 -113z" />
    <glyph glyph-name="guilsinglright" unicode="&#x203a;" horiz-adv-x="655" 
d="M70 244l36 291l134 110l-107 113l35 289l391 -293l-27 -217z" />
    <glyph glyph-name="fraction" unicode="&#x2044;" horiz-adv-x="512" 
d="M-360 0l991 1565h268l-991 -1565h-268z" />
    <glyph glyph-name="uni2070" unicode="&#x2070;" 
d="M399 889q36 0 65.5 129t29.5 282q0 55 -7.5 74t-25.5 19q-36 0 -65 -129.5t-29 -282.5q0 -55 7 -73.5t25 -18.5zM483 1577q73 0 119 -12.5t79.5 -45.5t47.5 -90.5t14 -148.5q0 -302 -94.5 -438.5t-271.5 -136.5q-73 0 -119 12t-79.5 45t-47.5 90.5t-14 148.5
q0 302 94.5 439t271.5 137z" />
    <glyph glyph-name="uni2074" unicode="&#x2074;" 
d="M715 893h-72l-22 -176h-246l22 176h-311l18 156l336 528h287l-61 -498h71zM420 1079l45 248l-135 -252z" />
    <glyph glyph-name="uni2075" unicode="&#x2075;" 
d="M399 887q74 0 74 182q0 35 -11.5 48t-37.5 13q-24 0 -50 -17t-38 -44l-203 70l76 426h543l-23 -189h-317l-25 -127q34 31 69 44.5t87 13.5q93 0 139.5 -48.5t46.5 -166.5q0 -198 -86.5 -292.5t-265.5 -94.5q-154 0 -218.5 45t-64.5 159l264 90q-8 -49 0 -80.5t41 -31.5z
" />
    <glyph glyph-name="uni2076" unicode="&#x2076;" 
d="M457 1399q-27 0 -37.5 -30.5t-22.5 -141.5q34 42 73.5 59t94.5 17q86 0 122 -40t36 -130q0 -224 -77 -326t-273 -102q-147 0 -201.5 61.5t-54.5 220.5q0 66 3.5 121.5t13 118t26 111t44.5 95t66 77t92.5 49t122.5 18.5q134 0 194.5 -38.5t63.5 -125.5l-258 -88
q0 4 1.5 21.5t1 26t-8 17.5t-22.5 9zM436 1122q-67 0 -67 -161q0 -78 26 -78q66 0 66 196q0 43 -25 43z" />
    <glyph glyph-name="uni2077" unicode="&#x2077;" 
d="M432 717h-276l268 508l88 153l-139 -2h-228l23 189h635l-17 -123z" />
    <glyph glyph-name="uni2078" unicode="&#x2078;" 
d="M461 1391q-60 0 -60 -99q0 -57 41 -57q27 0 42.5 28t15.5 80q0 26 -9 37t-30 11zM422 1067q-42 0 -63 -24t-21 -97q0 -30 13.5 -43.5t47.5 -13.5q44 0 63 29t19 90q0 36 -14 47.5t-45 11.5zM377 705q-162 0 -226.5 49t-64.5 145q0 107 36 172t95 88q-63 25 -63 144
q0 151 77 212.5t254 61.5q144 0 208.5 -44.5t64.5 -143.5q0 -83 -29.5 -147t-85.5 -83q84 -36 84 -166q0 -71 -16 -121.5t-54 -89.5t-107.5 -58t-172.5 -19z" />
    <glyph glyph-name="uni2079" unicode="&#x2079;" 
d="M401 883q28 0 37 25.5t23 135.5q-33 -39 -71 -52t-97 -13q-83 0 -118.5 49t-35.5 168q0 193 79.5 287t268.5 94q148 0 203 -62t55 -223q0 -67 -3 -122t-13 -117.5t-26 -110.5t-45 -94.5t-67.5 -76.5t-95 -48t-126.5 -18q-136 0 -194.5 37t-61.5 124l262 90q-7 -19 -3 -46
t29 -27zM424 1159q34 0 48.5 46t14.5 110q0 49 -5.5 66.5t-22.5 17.5q-62 0 -62 -187q0 -53 27 -53z" />
    <glyph glyph-name="uni207A" unicode="&#x207a;" horiz-adv-x="847" 
d="M307 834l25 192h-193l33 274h193l22 191h275l-23 -191h190l-32 -274h-191l-24 -192h-275z" />
    <glyph glyph-name="uni207B" unicode="&#x207b;" horiz-adv-x="847" 
d="M797 1026h-658l33 274h657z" />
    <glyph glyph-name="uni207C" unicode="&#x207c;" horiz-adv-x="847" 
d="M776 870h-655l31 248h655zM817 1208h-655l31 248h655z" />
    <glyph glyph-name="uni207D" unicode="&#x207d;" horiz-adv-x="614" 
d="M623 1655q-174 -315 -174 -686q0 -205 47 -351h-252q-64 183 -64 367q0 348 191 670h252z" />
    <glyph glyph-name="uni207E" unicode="&#x207e;" horiz-adv-x="614" 
d="M106 618q175 317 175 685q0 193 -48 352h252q64 -183 64 -367q0 -352 -191 -670h-252z" />
    <glyph glyph-name="uni2080" unicode="&#x2080;" 
d="M311 172q36 0 65.5 129.5t29.5 282.5q0 55 -7.5 73.5t-25.5 18.5q-36 0 -65 -129.5t-29 -282.5q0 -55 7 -73.5t25 -18.5zM395 860q73 0 119 -12.5t79.5 -45.5t47.5 -90.5t14 -148.5q0 -302 -94.5 -438.5t-271.5 -136.5q-73 0 -119 12.5t-79.5 45.5t-47.5 90.5t-14 148.5
q0 302 94.5 438.5t271.5 136.5z" />
    <glyph glyph-name="uni2081" unicode="&#x2081;" 
d="M592 0h-580l23 186h164l47 377q-66 -49 -185 -67l25 213q75 14 146 59t104 92h199l-84 -674h163z" />
    <glyph glyph-name="uni2082" unicode="&#x2082;" 
d="M379 678q-19 0 -32 -26.5t-21 -102.5l-246 84q15 84 43.5 130t96 71.5t186.5 25.5q133 0 196.5 -44.5t63.5 -139.5q0 -45 -4.5 -78t-17.5 -63t-30 -52.5t-50 -48.5t-69 -48.5t-94 -55.5q-71 -41 -93 -70.5t-27 -73.5h331l-22 -186h-602q11 92 16.5 130.5t20 92.5t29 75.5
t47 56t71.5 58t104 58.5q78 41 105 75t27 99q0 33 -29 33z" />
    <glyph glyph-name="uni2083" unicode="&#x2083;" 
d="M311 170q66 0 66 119q0 30 -14 41.5t-50 11.5h-65l24 184h66q27 0 37 26t10 97q0 17 -6 23t-23 6q-24 0 -34 -22.5t-19 -96.5l-233 80q25 120 94 170.5t221 50.5q136 0 197 -47.5t61 -171.5q0 -153 -111 -201q51 -13 75 -47.5t24 -111.5q0 -65 -16 -115t-53.5 -91.5
t-108.5 -64t-174 -22.5q-67 0 -114.5 9t-87 32t-57.5 68.5t-14 113.5l260 90q-11 -73 -2 -98q10 -33 47 -33z" />
    <glyph glyph-name="uni2084" unicode="&#x2084;" 
d="M627 176h-72l-23 -176h-245l22 176h-311l18 156l336 528h287l-61 -498h71zM332 362l45 248l-135 -252z" />
    <glyph glyph-name="uni2085" unicode="&#x2085;" 
d="M311 170q74 0 74 182q0 35 -11.5 48.5t-37.5 13.5q-24 0 -50 -17.5t-38 -44.5l-203 70l76 426h543l-23 -189h-317l-25 -127q34 31 69 44.5t87 13.5q93 0 139.5 -48.5t46.5 -166.5q0 -198 -86.5 -292.5t-265.5 -94.5q-154 0 -218.5 45.5t-64.5 159.5l264 90q-8 -49 0 -81
t41 -32z" />
    <glyph glyph-name="uni2086" unicode="&#x2086;" 
d="M369 682q-27 0 -37.5 -30.5t-22.5 -141.5q34 42 73.5 59t94.5 17q86 0 122 -40t36 -130q0 -224 -77 -326t-273 -102q-147 0 -201.5 61.5t-54.5 220.5q0 66 3.5 121.5t13 118t26 111t44.5 95t66 77t92.5 49t122.5 18.5q134 0 194.5 -38.5t63.5 -125.5l-258 -88
q0 4 1.5 21.5t1 26t-8 17.5t-22.5 9zM348 406q-67 0 -67 -162q0 -78 26 -78q66 0 66 196q0 44 -25 44z" />
    <glyph glyph-name="uni2087" unicode="&#x2087;" 
d="M344 0h-276l268 508l88 154l-139 -3h-228l23 189h635l-17 -123z" />
    <glyph glyph-name="uni2088" unicode="&#x2088;" 
d="M373 674q-60 0 -60 -99q0 -57 41 -57q27 0 42.5 28.5t15.5 80.5q0 26 -9 36.5t-30 10.5zM334 350q-42 0 -63 -24t-21 -97q0 -30 13.5 -43.5t47.5 -13.5q44 0 63 29t19 90q0 36 -14 47.5t-45 11.5zM289 -12q-162 0 -226.5 49t-64.5 145q0 107 36 172t95 88q-63 25 -63 144
q0 151 77 212.5t254 61.5q144 0 208.5 -44.5t64.5 -143.5q0 -83 -29.5 -147t-85.5 -83q84 -36 84 -166q0 -71 -16 -121.5t-54 -89.5t-107.5 -58t-172.5 -19z" />
    <glyph glyph-name="uni2089" unicode="&#x2089;" 
d="M313 166q15 0 22.5 4t14.5 23.5t11.5 47t11.5 87.5q-33 -39 -71 -52.5t-97 -13.5q-83 0 -118.5 49t-35.5 168q0 193 79.5 287t268.5 94q148 0 203 -62t55 -223q0 -67 -3 -122t-13 -117.5t-26 -110.5t-45 -94.5t-67.5 -76.5t-95 -48t-126.5 -18q-136 0 -194.5 37.5
t-61.5 124.5l262 90q-7 -19 -3 -46.5t29 -27.5zM336 442q34 0 48.5 46t14.5 110q0 49 -5.5 66.5t-22.5 17.5q-62 0 -62 -186q0 -26 8 -40t19 -14z" />
    <glyph glyph-name="uni208A" unicode="&#x208a;" horiz-adv-x="847" 
d="M219 117l25 192h-193l33 275h192l23 190h274l-22 -190h190l-32 -275h-191l-24 -192h-275z" />
    <glyph glyph-name="uni208B" unicode="&#x208b;" horiz-adv-x="847" 
d="M709 309h-658l33 275h657z" />
    <glyph glyph-name="uni208C" unicode="&#x208c;" horiz-adv-x="847" 
d="M688 154h-655l30 247h656zM729 492h-655l30 247h656z" />
    <glyph glyph-name="uni208D" unicode="&#x208d;" horiz-adv-x="614" 
d="M535 938q-175 -317 -175 -686q0 -201 48 -350h-252q-64 183 -64 366q0 348 191 670h252z" />
    <glyph glyph-name="uni208E" unicode="&#x208e;" horiz-adv-x="614" 
d="M18 -98q175 317 175 686q0 201 -48 350h252q64 -183 64 -367q0 -347 -191 -669h-252z" />
    <glyph glyph-name="uni20A1" unicode="&#x20a1;" horiz-adv-x="1087" 
d="M1116 1659l-78 -172q62 -76 56 -234l-187 -63l-401 -897h2q57 0 85.5 29.5t41.5 115.5l344 -121q-33 -184 -141 -263t-351 -79q-66 0 -118 9l-35 -78h-84l41 94q-39 13 -53 20l-52 -114h-84l72 160q-86 81 -104 255.5t20 460.5q24 188 53.5 316t74 227t109 154.5
t151.5 82.5t208 27q94 0 162 -12l37 82h84l-45 -100q36 -11 53 -23l55 123h84zM455 782l-15 -118l260 583q-19 25 -71 25q-73 0 -105 -96.5t-69 -393.5zM424 438q0 -75 16 -106l367 825l-74 -27z" />
    <glyph glyph-name="uni20A2" unicode="&#x20a2;" horiz-adv-x="1087" 
d="M928 618q-106 0 -185 -61l-34 -278q27 20 42.5 56.5t26.5 102.5l209 -73q-15 -106 -45 -176.5t-87.5 -120t-146.5 -71.5t-221 -22q-151 0 -240.5 41.5t-135.5 136.5t-46.5 249t25.5 380q24 188 53.5 316t74 227t109 154.5t151.5 82.5t208 27q163 0 254.5 -36.5
t125.5 -107.5t28 -192l-375 -127q7 86 -13.5 116t-76.5 30q-73 0 -105 -96.5t-69 -393.5q-30 -224 -28 -342t46 -159l43 350l33 311h199l2 -106q88 131 217 131q55 0 90 -25l-60 -332q-21 8 -69 8z" />
    <glyph glyph-name="franc" unicode="&#x20a3;" horiz-adv-x="940" 
d="M600 1051h246l-27 -228h-248l-10 -82h248l-29 -227h-245l-64 -514h-367l62 514h-109l29 227h109l10 82h-109l27 228h108l64 514h709l-39 -328h-342z" />
    <glyph glyph-name="lira" unicode="&#x20a4;" horiz-adv-x="1187" 
d="M813 477h-256l-18 -151h526l-39 -326h-1030l39 326h147l19 151h-148l29 228h145l11 81h-146l27 228h147l19 143q11 93 28.5 156t51.5 119t87 88.5t134 50.5t194 18q126 0 207 -21.5t124 -68t57 -108.5t8 -154l-369 -125q14 89 1.5 132.5t-65.5 43.5q-54 0 -75.5 -39.5
t-32.5 -136.5l-12 -98h256l-27 -228h-258l-10 -81h258z" />
    <glyph glyph-name="uni20A6" unicode="&#x20a6;" horiz-adv-x="1353" 
d="M700 1565l78 -451l10 -63h99l63 514h326l-64 -514h109l-27 -228h-108l-10 -82h108l-29 -227h-108l-62 -514h-405l-78 451l-10 63h-100l-62 -514h-326l62 514h-109l29 227h109l10 82h-109l27 228h108l64 514h405zM530 881l-14 -140h37zM825 823l25 -139l14 139h-39z" />
    <glyph glyph-name="peseta" unicode="&#x20a7;" horiz-adv-x="2680" 
d="M2118 248q49 0 74.5 28t25.5 80q0 34 -24 47.5t-76 18.5q-101 9 -165 23.5t-115.5 43.5t-74 77.5t-22.5 121.5q0 422 495 422q97 0 165 -11.5t119.5 -39.5t75 -78t21.5 -125l-364 -125q3 20 3 44t-13.5 43.5t-38.5 19.5q-70 0 -70 -101q0 -58 88 -65q77 -6 130 -14.5
t102.5 -26t78 -45t45.5 -70.5t17 -102q0 -439 -527 -439q-237 0 -311 68q-113 -68 -287 -68q-202 0 -286.5 89t-63.5 262l58 462h-111q-28 -73 -68 -127t-84 -87t-99.5 -53t-108 -27t-115.5 -7h-135l-60 -487h-368l190 1565h504q76 0 135.5 -11t116 -42.5t92 -83.5t53 -139
t8.5 -204h86l35 287h357l-35 -287h176l-37 -297h-176l-51 -419q-6 -49 18.5 -69.5t83.5 -20.5q83 0 139 51l316 37q-11 -47 9 -83t69 -36zM496 815h114q146 0 146 297q0 67 -22 96t-70 29h-115z" />
    <glyph glyph-name="uni20A8" unicode="&#x20a8;" horiz-adv-x="2066" 
d="M502 856h114q140 0 140 262q0 62 -21.5 90.5t-70.5 28.5h-115zM1980 414q0 -103 -27.5 -177.5t-81.5 -125.5t-143.5 -81t-202 -42.5t-268.5 -12.5q-108 0 -196.5 14t-155.5 38.5t-120.5 63t-91 82.5t-66 103t-46.5 118.5t-32 133.5h-88l-64 -528h-368l190 1565h504
q410 0 410 -400q0 -219 -70 -361.5t-178 -207.5q88 -348 413 -348q105 0 168.5 6.5t92.5 22.5t37 32.5t8 46.5q0 34 -24 47.5t-77 18.5q-101 9 -165 23.5t-115.5 43.5t-74 77.5t-22.5 121.5q0 422 496 422q97 0 165 -11.5t119.5 -39.5t75 -78t21.5 -125l-365 -125q3 20 3 44
t-13.5 43.5t-38.5 19.5q-69 0 -69 -101q0 -58 88 -65q77 -6 130 -14.5t102 -26t77.5 -45t45.5 -70.5t17 -102z" />
    <glyph glyph-name="uni20A9" unicode="&#x20a9;" horiz-adv-x="1638" 
d="M838 -12l14 526h-107l-112 -526h-461l14 526h-129l29 227h107l2 82h-99l27 228h78l16 514h346l-39 -514h97l120 514h373l-4 -514h94l88 514h346l-110 -514h78l-27 -228h-100l-19 -82h109l-29 -227h-129l-113 -526h-460zM868 1083l-73 -342h63zM1165 823h-57l-2 -352z
M508 823l-25 -352l82 352h-57z" />
    <glyph glyph-name="uni20AA" unicode="&#x20aa;" horiz-adv-x="1404" 
d="M219 1565h365q429 0 381 -410l-97 -780h-172l95 770q12 106 -93 106h-188l-154 -1251h-327zM782 0h-364l145 1190h172l-108 -877h188q106 0 121 107l139 1145h328l-141 -1155q-51 -410 -480 -410z" />
    <glyph glyph-name="Euro" unicode="&#x20ac;" horiz-adv-x="1126" 
d="M803 741l-90 -227h-221q-8 -124 9.5 -172.5t71.5 -48.5q57 0 85.5 29.5t41.5 115.5l344 -121q-22 -123 -73 -195.5t-152 -109.5t-266 -37q-127 0 -209.5 28t-132.5 93.5t-68 165.5t-12 252h-117l29 227h107l10 82h-107l27 228h119q60 298 182 418t371 120
q163 0 254.5 -36.5t125 -107.5t27.5 -192l-375 -127q7 86 -13.5 116t-76.5 30q-54 0 -84 -48.5t-53 -172.5h367l-88 -228h-312l-10 -82h289z" />
    <glyph glyph-name="uni20AE" unicode="&#x20ae;" horiz-adv-x="886" 
d="M96 457l148 75l10 82l-148 -75l27 221l148 76l49 401h-215l39 328h796l-39 -328h-215l-24 -199l155 80l-28 -221l-154 -80l-10 -82l153 80l-26 -221l-154 -80l-63 -514h-367l37 311l-145 -75z" />
    <glyph glyph-name="uni20B1" unicode="&#x20b1;" horiz-adv-x="1345" 
d="M575 795h115q146 0 146 295q0 67 -22.5 97t-72.5 30h-114zM1276 737h-143q-36 -84 -87.5 -142.5t-113.5 -90t-126 -45t-138 -13.5h-136l-53 -446h-368l90 737h-115l27 228h114l11 82h-115l29 227h114l35 291h504q340 0 395 -291h141l-28 -227h-107l-10 -82h107z" />
    <glyph glyph-name="afii61289" unicode="&#x2113;" horiz-adv-x="944" 
d="M510 1159v-180q31 48 55.5 118t24.5 144q0 49 -35 49q-45 0 -45 -131zM612 -33q-116 0 -200.5 24t-135.5 69.5t-79 100.5t-41 128q-64 -40 -107 -64v295l94 72v428q0 132 21 233t56.5 165.5t87.5 105t110 57t129 16.5q168 0 243.5 -92.5t75.5 -267.5q0 -95 -22 -185
t-54 -158.5t-83.5 -140.5t-94 -119.5t-102.5 -107.5v-127q0 -60 26.5 -80.5t86.5 -27.5q50 -5 104.5 11.5t87.5 37.5l27 -332q-98 -41 -230 -41z" />
    <glyph glyph-name="published" unicode="&#x2117;" horiz-adv-x="1884" 
d="M856 -33q-156 0 -293.5 56.5t-234.5 153.5t-153 232t-56 287q0 185 78 358t206 298.5t300.5 201.5t353.5 76q156 0 293.5 -56.5t234.5 -153.5t153 -232t56 -287q0 -185 -78 -358t-206 -298.5t-300.5 -201.5t-353.5 -76zM829 561l203 2q85 1 160.5 29t137 82t97 143.5
t35.5 204.5q0 158 -92 238.5t-242 80.5h-497l-133 -1085h295zM891 1053h186q80 0 80 -80q0 -61 -29.5 -91t-74.5 -30h-187z" />
    <glyph glyph-name="servicemark" unicode="&#x2120;" horiz-adv-x="1265" 
d="M1110 1329l-111 -285h-155l-41 285l-35 -285h-166l68 553h239l43 -305l117 305h240l-68 -553h-166zM330 1032q-109 0 -163.5 34t-57.5 122l170 59q0 -38 15.5 -49.5t55.5 -11.5q70 0 70 35q0 21 -17 29t-69 14q-26 3 -35.5 4.5t-34 6.5t-35.5 10.5t-29 16.5t-26 24
t-15 33.5t-7 45.5q0 100 71 152.5t174 52.5t154 -31t55 -106l-170 -58q0 22 -13 31.5t-44 9.5q-22 0 -39 -8.5t-18 -22.5q0 -13 11 -19t48 -9q56 -4 88.5 -10.5t63 -22t44 -44t13.5 -73.5q0 -102 -77.5 -158.5t-182.5 -56.5z" />
    <glyph glyph-name="trademark" unicode="&#x2122;" horiz-adv-x="1265" 
d="M1110 1329l-111 -285h-155l-41 285l-35 -285h-166l68 553h239l43 -305l117 305h240l-68 -553h-166zM455 1440l-49 -396h-173l50 396h-152l19 157h475l-19 -157h-151z" />
    <glyph glyph-name="ohm" unicode="&#x2126;" horiz-adv-x="1474" 
d="M737 1264q-147 0 -226 -91.5t-79 -246.5q0 -202 71.5 -351t192.5 -270v-305h-639v334h289q-116 136 -190 299.5t-74 341.5q0 133 45 247t127.5 197.5t207 130.5t275.5 47t275.5 -47t207.5 -130.5t128 -197.5t45 -247q0 -178 -74 -341.5t-191 -299.5h289v-334h-639v305
q121 121 192.5 270t71.5 351q0 155 -79 246.5t-226 91.5z" />
    <glyph glyph-name="estimated" unicode="&#x212e;" horiz-adv-x="1699" 
d="M1649 666h-1243q9 -109 34.5 -190t75.5 -147t134.5 -100t201.5 -34q406 0 485 331h281q-21 -144 -84.5 -252t-164 -174.5t-230 -99.5t-289.5 -33q-175 0 -323 57.5t-253 162t-164 257.5t-59 338t59 338t164 257.5t253 162t323 57.5t323 -57.5t253 -162t164 -257.5
t59 -338v-116zM852 1372q-117 0 -201.5 -34.5t-134.5 -100.5t-75 -147.5t-33 -190.5h886q-8 108 -33.5 190.5t-75.5 148t-133.5 100t-199.5 34.5z" />
    <glyph glyph-name="uni2153" unicode="&#x2153;" horiz-adv-x="1912" 
d="M680 725h-580l23 186h164l47 377q-66 -49 -184 -67l24 213q75 14 146 59t104 92h199l-84 -674h163zM340 0l991 1565h268l-991 -1565h-268zM1483 170q65 0 65 119q0 30 -13.5 41.5t-49.5 11.5h-66l25 184h65q27 0 37 26t10 97q0 17 -5.5 23t-22.5 6q-24 0 -34 -22.5
t-19 -96.5l-234 80q25 120 94 170.5t221 50.5q137 0 198 -47.5t61 -171.5q0 -153 -111 -201q51 -13 74.5 -47t23.5 -112q0 -65 -16 -115t-53.5 -91.5t-108.5 -64t-174 -22.5q-67 0 -114 9t-87 32t-57.5 68.5t-13.5 113.5l260 90q-11 -73 -2 -98q10 -33 47 -33z" />
    <glyph glyph-name="uni2154" unicode="&#x2154;" horiz-adv-x="1912" 
d="M467 1403q-19 0 -32 -26.5t-21 -102.5l-246 84q15 84 43.5 130t96 71.5t186.5 25.5q133 0 196.5 -44.5t63.5 -139.5q0 -45 -4.5 -78t-17.5 -63t-30 -52.5t-50 -48.5t-69 -48.5t-94 -55.5q-71 -41 -93 -70.5t-27 -73.5h331l-22 -186h-602q11 91 17 130t20 93t29 75.5
t47 55.5t71.5 58t104.5 59q78 41 104.5 75t26.5 99q0 33 -29 33zM340 0l991 1565h268l-991 -1565h-268zM1483 170q65 0 65 119q0 30 -13.5 41.5t-49.5 11.5h-66l25 184h65q27 0 37 26t10 97q0 17 -5.5 23t-22.5 6q-24 0 -34 -22.5t-19 -96.5l-234 80q25 120 94 170.5
t221 50.5q137 0 198 -47.5t61 -171.5q0 -153 -111 -201q51 -13 74.5 -47t23.5 -112q0 -65 -16 -115t-53.5 -91.5t-108.5 -64t-174 -22.5q-67 0 -114 9t-87 32t-57.5 68.5t-13.5 113.5l260 90q-11 -73 -2 -98q10 -33 47 -33z" />
    <glyph glyph-name="uni2155" unicode="&#x2155;" horiz-adv-x="1912" 
d="M680 725h-580l23 186h164l47 377q-66 -49 -184 -67l24 213q75 14 146 59t104 92h199l-84 -674h163zM340 0l991 1565h268l-991 -1565h-268zM1483 170q73 0 73 182q0 35 -11.5 48.5t-37.5 13.5q-24 0 -50 -17.5t-38 -44.5l-202 70l75 426h543l-23 -189h-317l-25 -127
q34 31 69 44.5t87 13.5q93 0 139.5 -48.5t46.5 -166.5q0 -198 -86.5 -292.5t-265.5 -94.5q-154 0 -218 45.5t-64 159.5l264 90q-8 -49 0 -81t41 -32z" />
    <glyph glyph-name="uni2156" unicode="&#x2156;" horiz-adv-x="1912" 
d="M467 1403q-19 0 -32 -26.5t-21 -102.5l-246 84q15 84 43.5 130t96 71.5t186.5 25.5q133 0 196.5 -44.5t63.5 -139.5q0 -45 -4.5 -78t-17.5 -63t-30 -52.5t-50 -48.5t-69 -48.5t-94 -55.5q-71 -41 -93 -70.5t-27 -73.5h331l-22 -186h-602q11 91 17 130t20 93t29 75.5
t47 55.5t71.5 58t104.5 59q78 41 104.5 75t26.5 99q0 33 -29 33zM340 0l991 1565h268l-991 -1565h-268zM1483 170q73 0 73 182q0 35 -11.5 48.5t-37.5 13.5q-24 0 -50 -17.5t-38 -44.5l-202 70l75 426h543l-23 -189h-317l-25 -127q34 31 69 44.5t87 13.5q93 0 139.5 -48.5
t46.5 -166.5q0 -198 -86.5 -292.5t-265.5 -94.5q-154 0 -218 45.5t-64 159.5l264 90q-8 -49 0 -81t41 -32z" />
    <glyph glyph-name="uni2157" unicode="&#x2157;" horiz-adv-x="1912" 
d="M399 895q66 0 66 119q0 30 -14 41.5t-50 11.5h-65l24 184h66q27 0 37 26t10 97q0 17 -6 23t-23 6q-24 0 -34 -22.5t-19 -96.5l-233 80q25 120 94 170.5t221 50.5q136 0 197 -47.5t61 -171.5q0 -154 -110 -201q51 -13 74.5 -47t23.5 -112q0 -65 -16 -115t-53.5 -91.5
t-108.5 -64t-174 -22.5q-67 0 -114.5 9t-87 32t-57.5 68.5t-14 113.5l260 90q-11 -73 -2 -98q10 -33 47 -33zM340 0l991 1565h268l-991 -1565h-268zM1483 170q73 0 73 182q0 35 -11.5 48.5t-37.5 13.5q-24 0 -50 -17.5t-38 -44.5l-202 70l75 426h543l-23 -189h-317l-25 -127
q34 31 69 44.5t87 13.5q93 0 139.5 -48.5t46.5 -166.5q0 -198 -86.5 -292.5t-265.5 -94.5q-154 0 -218 45.5t-64 159.5l264 90q-8 -49 0 -81t41 -32z" />
    <glyph glyph-name="uni2158" unicode="&#x2158;" horiz-adv-x="1912" 
d="M715 901h-72l-22 -176h-246l22 176h-311l18 156l336 528h287l-61 -498h71zM420 1087l45 248l-135 -252zM340 0l991 1565h268l-991 -1565h-268zM1483 170q73 0 73 182q0 35 -11.5 48.5t-37.5 13.5q-24 0 -50 -17.5t-38 -44.5l-202 70l75 426h543l-23 -189h-317l-25 -127
q34 31 69 44.5t87 13.5q93 0 139.5 -48.5t46.5 -166.5q0 -198 -86.5 -292.5t-265.5 -94.5q-154 0 -218 45.5t-64 159.5l264 90q-8 -49 0 -81t41 -32z" />
    <glyph glyph-name="uni2159" unicode="&#x2159;" horiz-adv-x="1912" 
d="M680 725h-580l23 186h164l47 377q-66 -49 -184 -67l24 213q75 14 146 59t104 92h199l-84 -674h163zM340 0l991 1565h268l-991 -1565h-268zM1540 682q-27 0 -37 -30t-22 -142q34 42 73.5 59t94.5 17q86 0 121.5 -40t35.5 -130q0 -224 -77 -326t-273 -102
q-147 0 -201.5 61.5t-54.5 220.5q0 95 7 170.5t30 157.5t62 136.5t107.5 90t162.5 35.5q134 0 194.5 -38.5t63.5 -125.5l-258 -88q0 5 1 17t1 20t-2 17.5t-9.5 14.5t-19.5 5zM1520 406q-68 0 -68 -162q0 -78 27 -78q65 0 65 196q0 44 -24 44z" />
    <glyph glyph-name="uni215A" unicode="&#x215a;" horiz-adv-x="1912" 
d="M399 895q74 0 74 182q0 35 -11.5 48.5t-37.5 13.5q-24 0 -50 -17.5t-38 -44.5l-203 70l76 426h543l-23 -189h-317l-25 -127q34 31 69 44.5t87 13.5q93 0 139.5 -48.5t46.5 -166.5q0 -198 -86.5 -292.5t-265.5 -94.5q-154 0 -218.5 45.5t-64.5 159.5l264 90
q-8 -50 0 -81.5t41 -31.5zM340 0l991 1565h268l-991 -1565h-268zM1540 682q-27 0 -37 -30t-22 -142q34 42 73.5 59t94.5 17q86 0 121.5 -40t35.5 -130q0 -224 -77 -326t-273 -102q-147 0 -201.5 61.5t-54.5 220.5q0 95 7 170.5t30 157.5t62 136.5t107.5 90t162.5 35.5
q134 0 194.5 -38.5t63.5 -125.5l-258 -88q0 5 1 17t1 20t-2 17.5t-9.5 14.5t-19.5 5zM1520 406q-68 0 -68 -162q0 -78 27 -78q65 0 65 196q0 44 -24 44z" />
    <glyph glyph-name="uni215B" unicode="&#x215b;" horiz-adv-x="1912" 
d="M680 725h-580l23 186h164l47 377q-66 -49 -184 -67l24 213q75 14 146 59t104 92h199l-84 -674h163zM340 0l991 1565h268l-991 -1565h-268zM1544 674q-29 0 -44 -22t-15 -77q0 -57 41 -57q27 0 42 28.5t15 80.5q0 26 -9 36.5t-30 10.5zM1505 350q-42 0 -63 -24t-21 -97
q0 -30 14 -43.5t48 -13.5q44 0 63 29t19 90q0 36 -14.5 47.5t-45.5 11.5zM1460 -12q-162 0 -226.5 49t-64.5 145q0 107 36 172t95 88q-63 25 -63 144q0 151 77.5 212.5t254.5 61.5q144 0 208 -44.5t64 -143.5q0 -83 -29.5 -147t-85.5 -83q84 -36 84 -166q0 -71 -16 -121.5
t-54 -89.5t-107.5 -58t-172.5 -19z" />
    <glyph glyph-name="uni215C" unicode="&#x215c;" horiz-adv-x="1912" 
d="M399 895q66 0 66 119q0 30 -14 41.5t-50 11.5h-65l24 184h66q27 0 37 26t10 97q0 17 -6 23t-23 6q-24 0 -34 -22.5t-19 -96.5l-233 80q25 120 94 170.5t221 50.5q136 0 197 -47.5t61 -171.5q0 -154 -110 -201q51 -13 74.5 -47t23.5 -112q0 -65 -16 -115t-53.5 -91.5
t-108.5 -64t-174 -22.5q-67 0 -114.5 9t-87 32t-57.5 68.5t-14 113.5l260 90q-11 -73 -2 -98q10 -33 47 -33zM340 0l991 1565h268l-991 -1565h-268zM1544 674q-29 0 -44 -22t-15 -77q0 -57 41 -57q27 0 42 28.5t15 80.5q0 26 -9 36.5t-30 10.5zM1505 350q-42 0 -63 -24
t-21 -97q0 -30 14 -43.5t48 -13.5q44 0 63 29t19 90q0 36 -14.5 47.5t-45.5 11.5zM1460 -12q-162 0 -226.5 49t-64.5 145q0 107 36 172t95 88q-63 25 -63 144q0 151 77.5 212.5t254.5 61.5q144 0 208 -44.5t64 -143.5q0 -83 -29.5 -147t-85.5 -83q84 -36 84 -166
q0 -71 -16 -121.5t-54 -89.5t-107.5 -58t-172.5 -19z" />
    <glyph glyph-name="uni215D" unicode="&#x215d;" horiz-adv-x="1912" 
d="M399 895q74 0 74 182q0 35 -11.5 48.5t-37.5 13.5q-24 0 -50 -17.5t-38 -44.5l-203 70l76 426h543l-23 -189h-317l-25 -127q34 31 69 44.5t87 13.5q93 0 139.5 -48.5t46.5 -166.5q0 -198 -86.5 -292.5t-265.5 -94.5q-154 0 -218.5 45.5t-64.5 159.5l264 90
q-8 -50 0 -81.5t41 -31.5zM340 0l991 1565h268l-991 -1565h-268zM1544 674q-29 0 -44 -22t-15 -77q0 -57 41 -57q27 0 42 28.5t15 80.5q0 26 -9 36.5t-30 10.5zM1505 350q-42 0 -63 -24t-21 -97q0 -30 14 -43.5t48 -13.5q44 0 63 29t19 90q0 36 -14.5 47.5t-45.5 11.5z
M1460 -12q-162 0 -226.5 49t-64.5 145q0 107 36 172t95 88q-63 25 -63 144q0 151 77.5 212.5t254.5 61.5q144 0 208 -44.5t64 -143.5q0 -83 -29.5 -147t-85.5 -83q84 -36 84 -166q0 -71 -16 -121.5t-54 -89.5t-107.5 -58t-172.5 -19z" />
    <glyph glyph-name="uni215E" unicode="&#x215e;" horiz-adv-x="1910" 
d="M514 725h-276l268 508l88 153l-139 -2h-228l23 189h635l-17 -123zM340 0l991 1565h268l-991 -1565h-268zM1544 674q-29 0 -44 -22t-15 -77q0 -57 41 -57q27 0 42 28.5t15 80.5q0 26 -9 36.5t-30 10.5zM1505 350q-42 0 -63 -24t-21 -97q0 -30 14 -43.5t48 -13.5
q44 0 63 29t19 90q0 36 -14.5 47.5t-45.5 11.5zM1460 -12q-162 0 -226.5 49t-64.5 145q0 107 36 172t95 88q-63 25 -63 144q0 151 77.5 212.5t254.5 61.5q144 0 208 -44.5t64 -143.5q0 -83 -29.5 -147t-85.5 -83q84 -36 84 -166q0 -71 -16 -121.5t-54 -89.5t-107.5 -58
t-172.5 -19z" />
    <glyph glyph-name="uni215F" unicode="&#x215f;" horiz-adv-x="1212" 
d="M598 725h-580l23 186h164l47 377q-66 -49 -184 -67l24 213q75 14 146 59t104 92h199l-84 -674h164zM258 0l991 1565h269l-992 -1565h-268z" />
    <glyph glyph-name="arrowleft" unicode="&#x2190;" horiz-adv-x="1802" 
d="M70 678v242l934 575v-408l-242 -122l338 8h600v-348h-600l-338 8l242 -123v-408z" />
    <glyph glyph-name="arrowup" unicode="&#x2191;" horiz-adv-x="1802" 
d="M780 1630h242l575 -934h-407l-123 242l8 -338v-600h-348v600l8 338l-123 -242h-407z" />
    <glyph glyph-name="arrowright" unicode="&#x2192;" horiz-adv-x="1802" 
d="M1733 920v-242l-934 -576v408l241 123l-338 -8h-600v348h600l338 -8l-241 122v408z" />
    <glyph glyph-name="arrowdown" unicode="&#x2193;" horiz-adv-x="1802" 
d="M1022 -33h-242l-575 934h407l123 -242l-8 338v600h348v-600l-8 -338l123 242h407z" />
    <glyph glyph-name="uni2196" unicode="&#x2196;" horiz-adv-x="1802" 
d="M53 1460l170 170l1067 -254l-286 -286l-259 84l244 -234l426 -424l-248 -248l-424 426l-233 244l84 -258l-287 -287z" />
    <glyph glyph-name="uni2197" unicode="&#x2197;" horiz-adv-x="1802" 
d="M1579 1630l170 -170l-254 -1067l-287 287l84 258l-233 -244l-424 -426l-248 248l426 424l244 234l-258 -84l-287 286z" />
    <glyph glyph-name="uni2198" unicode="&#x2198;" horiz-adv-x="1802" 
d="M1749 158l-170 -170l-1067 254l287 286l258 -84l-244 234l-426 424l248 248l424 -426l233 -244l-84 258l287 287z" />
    <glyph glyph-name="uni2199" unicode="&#x2199;" horiz-adv-x="1802" 
d="M223 -12l-170 170l254 1067l287 -287l-84 -258l233 244l424 426l248 -248l-426 -424l-244 -234l259 84l286 -286z" />
    <glyph glyph-name="partialdiff" unicode="&#x2202;" horiz-adv-x="1509" 
d="M700 1300q-211 4 -391 -129l-157 291q39 29 75 50t105 52t163 48.5t203 17.5q349 0 537 -222.5t188 -623.5q0 -412 -164.5 -614.5t-513.5 -202.5q-185 0 -325 61t-221.5 188t-81.5 308q0 279 143 417t432 138q96 0 202 -36.5t159 -110.5q6 96 -22.5 169t-82 114.5
t-116 62t-132.5 22.5zM731 754q-110 -2 -172.5 -57.5t-62.5 -172.5q0 -114 70 -169.5t182 -57.5q115 -1 181 42.5t91 133.5q11 141 -71 212t-218 69z" />
    <glyph glyph-name="increment" unicode="&#x2206;" horiz-adv-x="1802" 
d="M123 0v160l684 1425h188l684 -1425v-160h-1556zM901 995l-315 -661h631z" />
    <glyph glyph-name="product" unicode="&#x220f;" horiz-adv-x="1679" 
d="M1044 1227h-409v-1227h-381v1227h-172v338h1515v-338h-172v-1227h-381v1227z" />
    <glyph glyph-name="summation" unicode="&#x2211;" horiz-adv-x="1413" 
d="M109 1253v312h1191v-338h-311l-262 2l399 -307v-244l-405 -342l262 2h348v-338h-1243v295l617 504z" />
    <glyph glyph-name="minus" unicode="&#x2212;" horiz-adv-x="1474" 
d="M1290 631h-1106v336h1106v-336z" />
    <glyph glyph-name="radical" unicode="&#x221a;" horiz-adv-x="1818" 
d="M1364 1565h416l-903 -1565h-410l-168 696l-238 -49v354l510 117l150 -698z" />
    <glyph glyph-name="infinity" unicode="&#x221e;" horiz-adv-x="1679" 
d="M686 799q-54 61 -84 82q-43 30 -94 34q-55 2 -88 -28t-33 -88t33 -87.5t88 -29.5q29 2 53.5 11.5t48 28.5t35 31t33.5 37q5 6 8 9zM840 588q-69 -79 -147 -122.5t-183 -43.5q-179 0 -284 97t-105 280t105 280t284 97q105 0 183 -43.5t147 -122.5q69 79 146.5 122.5
t182.5 43.5q180 0 285 -97t105 -280t-105 -280t-285 -97q-105 0 -182.5 43.5t-146.5 122.5zM993 799q53 -60 81 -81q45 -32 97 -36q54 -2 87.5 28.5t33.5 88.5t-33 87t-88 29q-25 -2 -48.5 -11t-38 -17t-36.5 -29t-27.5 -27.5t-27.5 -31.5z" />
    <glyph glyph-name="integral" unicode="&#x222b;" horiz-adv-x="614" 
d="M492 1225v-1272q0 -60 -13 -113.5t-46.5 -106.5t-85.5 -90.5t-135 -61t-189 -23.5q-134 0 -232 41l27 331q33 -21 87.5 -37.5t104.5 -11.5q56 6 84.5 34t28.5 89v1272q0 60 13 113.5t46.5 106.5t85.5 90.5t135 61t189 23.5q133 0 231 -41l-26 -332q-33 22 -88 38.5
t-105 11.5q-56 -6 -84 -34t-28 -89z" />
    <glyph glyph-name="approxequal" unicode="&#x2248;" horiz-adv-x="1474" 
d="M993 764q-60 0 -135.5 21t-135.5 46.5t-129 46.5t-118 21q-52 0 -99 -14.5t-68 -28.5l-21 -14l-123 243q4 6 12 15t36.5 33t62 42t89.5 33t117 15q75 0 174 -35t191 -69t153 -32q52 0 99.5 14.5t68.5 28.5l21 15l123 -244q-4 -6 -12 -15t-37 -32.5t-62.5 -41.5t-89.5 -33
t-117 -15zM993 375q-60 0 -135.5 21t-135.5 46.5t-129 46.5t-118 21q-52 0 -99 -14t-68 -28l-21 -15l-123 243q4 6 12 15t36.5 33t62 42t89.5 33t117 15q75 0 174 -35t191 -69t153 -32q52 0 99.5 14.5t68.5 29.5l21 14l123 -244q-4 -6 -12 -15t-37 -32.5t-62.5 -41.5
t-89.5 -33t-117 -15z" />
    <glyph glyph-name="notequal" unicode="&#x2260;" horiz-adv-x="1474" 
d="M1290 877h-344l-104 -156h448v-336h-672l-108 -166h-317l110 166h-119v336h342l105 156h-447v335h672l109 166h317l-111 -166h119v-335z" />
    <glyph glyph-name="equivalence" unicode="&#x2261;" horiz-adv-x="1474" 
d="M1290 246h-1106v336h1106v-336zM1290 1016h-1106v336h1106v-336zM1290 631h-1106v336h1106v-336z" />
    <glyph glyph-name="lessequal" unicode="&#x2264;" horiz-adv-x="1474" 
d="M625 901l307 -55l358 -60v-356l-1106 283v377l1106 282v-356l-358 -60zM1290 227l-1106 283v141l1106 -282v-142z" />
    <glyph glyph-name="greaterequal" unicode="&#x2265;" horiz-adv-x="1474" 
d="M543 846l307 55l-307 55l-359 60v356l1106 -282v-377l-1106 -283v356zM1290 510l-1106 -283v142l1106 282v-141z" />
    <glyph glyph-name="squaremultiply" unicode="&#x22a0;" horiz-adv-x="2007" 
d="M205 0v1597h1597v-1597h-1597zM1454 1257h-901v-917h901v917zM588 621l178 178l-178 178l237 237l179 -178l178 178l237 -237l-178 -178l178 -178l-237 -238l-178 178l-179 -178z" />
    <glyph glyph-name="house" unicode="&#x2302;" horiz-adv-x="1781" 
d="M1618 0h-1454v922l727 696l727 -696v-922z" />
    <glyph glyph-name="blacksquare" unicode="&#x25a0;" horiz-adv-x="2007" 
d="M1802 1597v-1597h-1597v1597h1597z" />
    <glyph glyph-name="whitesquare" unicode="&#x25a1;" horiz-adv-x="2007" 
d="M205 0v1597h1597v-1597h-1597zM1454 1257h-901v-917h901v917z" />
    <glyph glyph-name="blacksmallsquare" unicode="&#x25aa;" horiz-adv-x="1495" 
d="M1290 1085v-1085h-1085v1085h1085z" />
    <glyph glyph-name="whitesmallsquare" unicode="&#x25ab;" horiz-adv-x="1495" 
d="M205 0v1085h1085v-1085h-1085zM942 745h-389v-405h389v405z" />
    <glyph glyph-name="triagup" unicode="&#x25b2;" horiz-adv-x="1679" 
d="M1638 0h-1597l799 1384z" />
    <glyph glyph-name="triagrt" unicode="&#x25ba;" horiz-adv-x="1679" 
d="M90 0v1597l1385 -798z" />
    <glyph glyph-name="triagdn" unicode="&#x25bc;" horiz-adv-x="1679" 
d="M41 1597h1597l-798 -1384z" />
    <glyph glyph-name="triaglf" unicode="&#x25c4;" horiz-adv-x="1679" 
d="M1475 1597v-1597l-1385 799z" />
    <glyph glyph-name="lozenge" unicode="&#x25ca;" horiz-adv-x="1884" 
d="M942 -20l-754 819l754 819l754 -819zM662 799l280 -316l281 316l-281 315z" />
    <glyph glyph-name="whitecircle" unicode="&#x25cb;" horiz-adv-x="2007" 
d="M184 799q0 167 65 318.5t174.5 261t261.5 174.5t319 65t318.5 -65t261 -174.5t174.5 -261t65 -318.5t-65 -318.5t-174.5 -261t-261 -174.5t-318.5 -65t-319 65t-261.5 174.5t-174.5 261t-65 318.5zM1446 799q0 190 -128.5 321t-313.5 131t-313 -131t-128 -321t129 -321.5
t314 -131.5t312.5 131.5t127.5 321.5z" />
    <glyph glyph-name="whitecircle" unicode="&#x25ef;" horiz-adv-x="2007" 
d="M184 799q0 167 65 318.5t174.5 261t261.5 174.5t319 65t318.5 -65t261 -174.5t174.5 -261t65 -318.5t-65 -318.5t-174.5 -261t-261 -174.5t-318.5 -65t-319 65t-261.5 174.5t-174.5 261t-65 318.5zM1446 799q0 190 -128.5 321t-313.5 131t-313 -131t-128 -321t129 -321.5
t314 -131.5t312.5 131.5t127.5 321.5z" />
    <glyph glyph-name="bullseye" unicode="&#x25ce;" horiz-adv-x="2007" 
d="M184 799q0 167 65 318.5t174.5 261t261.5 174.5t319 65t318.5 -65t261 -174.5t174.5 -261t65 -318.5t-65 -318.5t-174.5 -261t-261 -174.5t-318.5 -65t-319 65t-261.5 174.5t-174.5 261t-65 318.5zM696 799q0 127 90 217t218 90t217.5 -90t89.5 -217t-89.5 -217
t-217.5 -90t-218 90t-90 217zM342 694q0 -152 74.5 -280t202.5 -202.5t280 -74.5t280.5 74t203.5 202.5t75 280.5q0 114 -44 217.5t-119 178.5t-178.5 119t-217.5 44q-152 0 -280.5 -75t-202.5 -203.5t-74 -280.5z" />
    <glyph glyph-name="blackcircle" unicode="&#x25cf;" horiz-adv-x="2007" 
d="M184 799q0 167 65 318.5t174.5 261t261.5 174.5t319 65t318.5 -65t261 -174.5t174.5 -261t65 -318.5t-65 -318.5t-174.5 -261t-261 -174.5t-318.5 -65t-319 65t-261.5 174.5t-174.5 261t-65 318.5z" />
    <glyph glyph-name="uni25E2" unicode="&#x25e2;" horiz-adv-x="1679" 
d="M74 414l1130 1130l414 -1544z" />
    <glyph glyph-name="uni25E3" unicode="&#x25e3;" horiz-adv-x="1679" 
d="M475 1544l1131 -1130l-1545 -414z" />
    <glyph glyph-name="uni25E4" unicode="&#x25e4;" horiz-adv-x="1679" 
d="M1606 1184l-1131 -1131l-414 1544z" />
    <glyph glyph-name="uni25E5" unicode="&#x25e5;" horiz-adv-x="1679" 
d="M1204 53l-1130 1131l1544 413z" />
    <glyph glyph-name="uni2605" unicode="&#x2605;" horiz-adv-x="1843" 
d="M922 369l-533 -389l203 628l-533 387h660l203 627l202 -627h660l-533 -387l203 -628z" />
    <glyph glyph-name="ballotboxwithx" unicode="&#x2612;" horiz-adv-x="1495" 
d="M205 0v1085h1085v-1085h-1085zM510 543l-178 -178l237 -238l179 178l178 -178l237 238l-178 178l178 178l-237 237l-178 -178l-179 178l-237 -237z" />
    <glyph glyph-name="uni263C" unicode="&#x263c;" horiz-adv-x="2007" 
d="M1823 799l-346 -62l317 -149l-350 30l270 -229l-332 121l201 -289l-289 201l119 -332l-227 266l31 -348l-152 318l-61 -346l-62 346l-151 -318l30 348l-227 -266l119 332l-289 -201l201 289l-332 -121l270 229l-350 -30l317 149l-346 62l346 61l-317 150l350 -31
l-270 229l332 -121l-201 289l289 -200l-119 331l227 -266l-30 348l151 -317l62 346l61 -346l152 317l-31 -348l227 266l-119 -331l289 200l-201 -289l332 121l-270 -229l350 31l-317 -150z" />
    <glyph glyph-name="uni263E" unicode="&#x263e;" horiz-adv-x="2007" 
d="M1298 1491q-135 0 -258 -54.5t-211.5 -147.5t-141 -221t-52.5 -269t52.5 -269.5t141 -221t211.5 -147.5t258 -55q99 0 197 31q-218 -157 -491 -157q-167 0 -319 65t-261.5 174.5t-174.5 261t-65 318.5t65 318.5t174.5 261t261.5 174.5t319 65q267 0 491 -158
q-109 31 -197 31z" />
    <glyph glyph-name="spade" unicode="&#x2660;" horiz-adv-x="1884" 
d="M944 1618q66 -99 199 -238t278 -233q60 -39 104 -73t90.5 -79t75.5 -90t47.5 -102t18.5 -119q0 -150 -104.5 -253t-255.5 -103q-73 0 -139 27t-116.5 74t-89 104t-65.5 124l-6 -2q17 -209 54.5 -356t113.5 -299h-414q76 152 113.5 299t54.5 356l-6 2q-27 -67 -65.5 -124
t-89 -104t-116.5 -74t-139 -27q-151 0 -255.5 103t-104.5 253q0 62 18.5 119t47.5 102t75.5 90t90.5 79t104 73q145 94 278 233t199 238h4z" />
    <glyph glyph-name="club" unicode="&#x2663;" horiz-adv-x="1884" 
d="M735 0q76 152 113.5 299t54.5 356l-6 2q-27 -67 -65.5 -124t-89 -104t-116.5 -74t-139 -27q-151 0 -255.5 103t-104.5 253q0 161 99 265t257 104q84 0 172 -47l4 4q-77 116 -77 239q0 154 103 261.5t257 107.5t257.5 -107.5t103.5 -261.5q0 -121 -78 -239l4 -4
q88 47 172 47q158 0 257 -104t99 -265q0 -150 -104.5 -253t-255.5 -103q-73 0 -139 27t-116.5 74t-89 104t-65.5 124l-6 -2q17 -209 54.5 -356t113.5 -299h-414z" />
    <glyph glyph-name="heart" unicode="&#x2665;" horiz-adv-x="1884" 
d="M944 -20h-4q-59 89 -193.5 260t-283.5 340q-64 73 -114 136.5t-105 148.5t-86 170t-31 161q0 185 106.5 303.5t284.5 118.5q92 0 163.5 -25.5t120.5 -73t80.5 -100.5t55.5 -123h8q24 70 55.5 123t80.5 100.5t120.5 73t163.5 25.5q178 0 284.5 -118.5t106.5 -303.5
q0 -76 -31 -161t-86 -170t-105 -148.5t-114 -136.5q-149 -169 -283.5 -340t-193.5 -260z" />
    <glyph glyph-name="diamond" unicode="&#x2666;" horiz-adv-x="1884" 
d="M1694 799q-218 -170 -415.5 -386t-334.5 -433h-4q-137 217 -334.5 433t-415.5 386q218 170 415.5 386t334.5 433h4q137 -217 334.5 -433t415.5 -386z" />
    <glyph glyph-name="musicflatsign" unicode="&#x266d;" horiz-adv-x="1064" 
d="M123 -160v1843h215v-667q37 41 110.5 68.5t145.5 27.5q213 0 307 -104t94 -312q0 -131 -74 -264.5t-197.5 -244t-278.5 -200.5t-322 -147zM338 682v-483q51 25 103.5 59.5t109 84t100 103.5t71.5 121t28 133q0 172 -179 172q-78 0 -143 -57t-90 -133z" />
    <glyph glyph-name="musicsharpsign" unicode="&#x266f;" horiz-adv-x="995" 
d="M791 1802v-329l143 114v-325l-143 -115v-225l143 114v-325l-143 -115v-596h-216v422l-155 -125v-502h-215v330l-144 -115v326l144 115v225l-144 -115v326l144 114v596h215v-423l155 124v504h216zM420 848v-225l155 125v225z" />
    <glyph glyph-name="uni267B" unicode="&#x267b;" horiz-adv-x="2007" 
d="M1788 545l2 -4l-197 -342q-41 -60 -60 -77q-44 -38 -120 -38h-117v-100l-231 278l231 277v-101h297q54 0 102.5 27t70.5 53zM401 250h-4l-196 344q-23 42 -31.5 65.5t-5.5 63t29 82.5l57 100l-86 49l356 64l121 -340l-84 49q-143 -246 -147 -256q-17 -29 -24.5 -62.5
t-5.5 -60.5t6.5 -50t9.5 -36zM848 1595v2h395q37 -1 56.5 -3t46 -11t47 -29t39.5 -53l57 -100l88 49l-125 -340l-354 64l84 49l-148 256q-27 47 -73.5 76t-79.5 35zM430 1225l137 243q21 37 70 64q63 34 131.5 30.5t126.5 -33t80 -69.5l-238 -411zM934 84h-277q-43 0 -90 27
q-45 26 -76 70.5t-42.5 91.5t-9 91.5t19.5 73.5h475v-354zM1671 1079l141 -239q21 -38 21 -90q1 -99 -78 -178.5t-151 -79.5l-238 411z" />
    <glyph glyph-name="uni267C" unicode="&#x267c;" horiz-adv-x="2007" 
d="M1823 797q0 -167 -64.5 -318.5t-173.5 -260.5t-260.5 -173.5t-318.5 -64.5q-168 0 -320 64.5t-262 173.5t-175 260.5t-65 318.5q0 168 65 320t175 261.5t262 174.5t320 65q167 0 318.5 -65t260.5 -174.5t173.5 -261.5t64.5 -320zM662 1321l-107 -188l238 -138l184 320
q-17 30 -62 52.5t-98 25.5t-102 -23q-37 -21 -53 -49zM870 1421v-2q4 0 11 -1.5t26.5 -7.5t37 -14.5t38 -26.5t33.5 -40l114 -199l-65 -38l274 -50l97 265l-68 -39l-45 78q-28 49 -59.5 62t-85.5 13h-308zM723 248h215v274h-369q-13 -22 -15 -57t7.5 -71.5t33.5 -71
t58 -54.5q36 -20 70 -20zM530 377h2q-4 10 -9.5 27.5t-5 63t21.5 81.5l114 199l66 -39l-94 264l-277 -49l68 -39l-45 -78q-20 -34 -22.5 -65t4 -48.5t24.5 -50.5zM1626 834l-108 186l-238 -137l184 -320q57 0 118 61.5t60 139.5q0 42 -16 70zM1610 602l-2 2q-2 -3 -6.5 -8.5
t-19.5 -20t-31.5 -25t-42.5 -19.5t-52 -9h-229v78l-180 -215l180 -215v78h90q30 0 52.5 6t38.5 20t25.5 26.5t22.5 35.5z" />
    <glyph glyph-name="uni267D" unicode="&#x267d;" horiz-adv-x="2007" 
d="M1823 797q0 -167 -64.5 -318.5t-173.5 -260.5t-260.5 -173.5t-318.5 -64.5q-168 0 -320 64.5t-262 173.5t-175 260.5t-65 318.5q0 168 65 320t175 261.5t262 174.5t320 65q167 0 318.5 -65t260.5 -174.5t173.5 -261.5t64.5 -320zM1782 797q0 159 -61.5 303.5t-165 249
t-247.5 166t-302 61.5q-159 0 -303.5 -61.5t-249 -166t-166.5 -249t-62 -303.5q0 -212 104.5 -390.5t284 -282.5t392.5 -104q158 0 302 61.5t247.5 165.5t165 248t61.5 302zM555 1133l107 188q16 28 53 49q49 26 102 23t98 -25.5t62 -52.5l-184 -320zM870 1419v2h308
q54 0 85.5 -13t59.5 -62l45 -78l68 39l-97 -265l-274 50l65 38l-114 199q-21 36 -57.5 58.5t-62.5 26.5zM938 248h-215q-34 0 -70 20q-34 20 -58 54.5t-33.5 71t-7.5 71.5t15 57h369v-274zM532 377h-2l-153 266q-18 33 -24.5 50.5t-4 48.5t22.5 65l45 78l-68 39l277 49
l94 -264l-66 39l-114 -199q-21 -36 -22.5 -79t7.5 -68zM1518 1020l108 -186q16 -28 16 -70q1 -78 -60 -139.5t-118 -61.5l-184 320zM1608 604l2 -2l-154 -266q-13 -23 -22.5 -35.5t-25.5 -26.5t-38.5 -20t-52.5 -6h-90v-78l-180 215l180 215v-78h229q26 0 51.5 8.5t43 20.5
t31 24t20.5 21z" />
    <glyph glyph-name="anglebracketleft" unicode="&#x3008;" horiz-adv-x="669" 
d="M770 1700l-336 -983l96 -983h-356l-106 983l346 983h356z" />
    <glyph glyph-name="anglebracketright" unicode="&#x3009;" horiz-adv-x="669" 
d="M244 717l-94 983h356l104 -983l-344 -983h-354z" />
    <glyph glyph-name="cordinal" unicode="&#xe181;" horiz-adv-x="870" 
d="M530 1389q-124 0 -124 -271q0 -65 19 -87.5t58 -22.5q43 0 62.5 28t25.5 86l275 -96q-12 -61 -35.5 -105.5t-65.5 -81t-112 -55t-168 -18.5q-185 0 -268.5 72.5t-83.5 240.5q0 201 53 324t151.5 175t253.5 52q97 0 161.5 -18t97.5 -54t45 -78t12 -102l-297 -100
q1 25 2.5 49.5t-14 43t-48.5 18.5z" />
    <glyph glyph-name="fi" unicode="&#xe38c;" horiz-adv-x="1294" 
d="M51 788l37 297h123l27 228q20 170 130 260t300 90q117 0 196 -27l-53 -293q-49 17 -102 17q-59 0 -87 -23t-34 -75l-21 -177h187l-37 -297h-187l-147 -1198h-356l147 1198h-123zM762 0l133 1085h356l-133 -1085h-356zM1317 1597l-43 -362h-367l43 362h367z" />
    <glyph glyph-name="fi" unicode="&#xfb01;" horiz-adv-x="1294" 
d="M51 788l37 297h123l27 228q20 170 130 260t300 90q117 0 196 -27l-53 -293q-49 17 -102 17q-59 0 -87 -23t-34 -75l-21 -177h187l-37 -297h-187l-147 -1198h-356l147 1198h-123zM762 0l133 1085h356l-133 -1085h-356zM1317 1597l-43 -362h-367l43 362h367z" />
    <glyph glyph-name="fl" unicode="&#xe38d;" horiz-adv-x="1302" 
d="M51 788l37 297h123l27 228q20 170 130 260t300 90q117 0 196 -27l-53 -293q-49 17 -102 17q-59 0 -87 -23t-34 -75l-21 -177h187l-37 -297h-187l-147 -1198h-356l147 1198h-123zM766 0l201 1638h356l-201 -1638h-356z" />
    <glyph glyph-name="fl" unicode="&#xfb02;" horiz-adv-x="1302" 
d="M51 788l37 297h123l27 228q20 170 130 260t300 90q117 0 196 -27l-53 -293q-49 17 -102 17q-59 0 -87 -23t-34 -75l-21 -177h187l-37 -297h-187l-147 -1198h-356l147 1198h-123zM766 0l201 1638h356l-201 -1638h-356z" />
    <glyph glyph-name="invertedbreve" unicode="&#xe411;" horiz-adv-x="1269" 
d="M758 1671q138 0 212 -54t89.5 -156t-4.5 -249h-267q23 148 -69 148q-91 0 -107 -148h-266q13 115 39 196t73 142.5t121.5 91t178.5 29.5z" />
    <glyph glyph-name="doublegrave" unicode="&#xe412;" horiz-adv-x="1269" 
d="M643 1638h401l58 -426h-367zM201 1638h401l57 -426h-366z" />
    <glyph glyph-name="caronSlovak" unicode="&#xe413;" horiz-adv-x="1269" 
d="M825 1638h205l-131 -491h-145z" />
    <glyph glyph-name="commaaccent" unicode="&#xe414;" horiz-adv-x="1269" 
d="M360 -82h379l-116 -328h-334z" />
    <glyph glyph-name="commaaccent" unicode="&#xf6c3;" horiz-adv-x="1269" 
d="M360 -82h379l-116 -328h-334z" />
    <glyph glyph-name="dotbelow" unicode="&#xe415;" horiz-adv-x="1269" 
d="M731 -82l-41 -328h-377l41 328h377z" />
    <glyph glyph-name="altcedilla" unicode="&#xe416;" horiz-adv-x="1269" 
d="M340 -154l53 111q230 -14 315.5 -73.5t61.5 -153.5q-21 -86 -102 -129t-191 -43q-154 0 -258 47l70 155q47 -26 98 -34q97 -15 105 43q3 28 -38 49t-114 28z" />
    <glyph glyph-name="exclamdown.cap" unicode="&#xe441;" horiz-adv-x="542" 
d="M158 1235l43 362h366l-43 -362h-366zM389 0h-399l190 1090h285z" />
    <glyph glyph-name="questiondown.cap" unicode="&#xe444;" horiz-adv-x="1064" 
d="M487 1090h252q12 -16 25.5 -66t13.5 -104q0 -120 -54 -190.5t-206 -143.5q-66 -31 -94.5 -78t-28.5 -129q0 -46 20 -66t66 -20q70 0 104.5 49t51.5 184l336 -114q-20 -116 -55.5 -196t-96.5 -137.5t-154 -84.5t-223 -27q-226 0 -328 75.5t-102 252.5q0 60 6.5 112.5
t16.5 93t28.5 77t35.5 62.5t44.5 51t49 41.5t55.5 35t57.5 30t60.5 28.5q7 3 11 5q71 33 95 74.5t24 108.5q0 34 -11 76zM446 1235l43 362h367l-43 -362h-367z" />
    <glyph glyph-name="guilsinglleft.cap" unicode="&#xe451;" horiz-adv-x="655" 
d="M535 688l-37 -291l-389 293l26 217l461 293l-35 -289l-135 -112z" />
    <glyph glyph-name="guilsinglright.cap" unicode="&#xe452;" horiz-adv-x="655" 
d="M88 397l37 291l133 111l-106 112l34 289l392 -293l-27 -217z" />
    <glyph glyph-name="guillemotleft.cap" unicode="&#xe453;" horiz-adv-x="1105" 
d="M535 688l-37 -291l-389 293l26 217l461 293l-35 -289l-135 -112zM985 688l-37 -291l-389 293l27 217l461 293l-35 -289l-135 -112z" />
    <glyph glyph-name="guillemotright.cap" unicode="&#xe454;" horiz-adv-x="1105" 
d="M539 397l36 291l134 111l-107 112l35 289l391 -293l-27 -217zM88 397l37 291l133 111l-106 112l34 289l392 -293l-27 -217z" />
    <glyph glyph-name="slash.cap" unicode="&#xe461;" horiz-adv-x="892" 
d="M954 1638l-606 -1679h-379l606 1679h379z" />
    <glyph glyph-name="backslash.cap" unicode="&#xe462;" horiz-adv-x="892" 
d="M369 -41l-193 1679h379l193 -1679h-379z" />
    <glyph glyph-name="bar.cap" unicode="&#xe463;" horiz-adv-x="673" 
d="M639 1638l-207 -1679h-366l206 1679h367z" />
    <glyph glyph-name="doublebar.cap" unicode="&#xe464;" horiz-adv-x="1241" 
d="M668 1638l-207 -1679h-379l207 1679h379zM1190 1638l-207 -1679h-379l207 1679h379z" />
    <glyph glyph-name="brokenbar.cap" unicode="&#xe465;" horiz-adv-x="718" 
d="M551 686l-90 -727h-379l90 727h379zM668 1638l-90 -727h-379l90 727h379z" />
    <glyph glyph-name="bullet.cap" unicode="&#xe466;" horiz-adv-x="962" 
d="M885 1145l-84 -692h-692l84 692h692z" />
    <glyph glyph-name="onethirdemdash" unicode="&#xe471;" horiz-adv-x="722" 
d="M594 518h-502l41 336h502z" />
    <glyph glyph-name="threequarteremdash" unicode="&#xe472;" horiz-adv-x="1576" 
d="M1448 518h-1356l41 336h1356z" />
    <glyph glyph-name="periodcentered.cap" unicode="&#xe481;" horiz-adv-x="655" 
d="M555 985l-47 -373h-377l47 373h377z" />
    <glyph glyph-name="hyphen.cap" unicode="&#xe482;" horiz-adv-x="843" 
d="M727 629h-623l41 336h623z" />
    <glyph glyph-name="onethirdemdash.cap" unicode="&#xe483;" horiz-adv-x="722" 
d="M606 629h-502l41 336h502z" />
    <glyph glyph-name="endash.cap" unicode="&#xe484;" horiz-adv-x="1064" 
d="M948 629h-844l41 336h844z" />
    <glyph glyph-name="threequarteremdash.cap" unicode="&#xe485;" horiz-adv-x="1576" 
d="M1460 629h-1356l41 336h1356z" />
    <glyph glyph-name="emdash.cap" unicode="&#xe486;" horiz-adv-x="2088" 
d="M1972 629h-1868l41 336h1868z" />
    <glyph glyph-name="figuredash.cap" unicode="&#xe487;" horiz-adv-x="1474" 
d="M1358 629h-1254l41 336h1254z" />
    <glyph glyph-name="uni2015.cap" unicode="&#xe488;" horiz-adv-x="2908" 
d="M2791 629h-2687l41 336h2687z" />
    <glyph glyph-name="parenleft.cap" unicode="&#xe491;" horiz-adv-x="669" 
d="M778 1782q-352 -620 -352 -1295q0 -337 113 -671h-357q-57 122 -90 300.5t-33 385.5q0 362 107.5 714t257.5 566h354z" />
    <glyph glyph-name="parenright.cap" unicode="&#xe492;" horiz-adv-x="669" 
d="M-80 -184q352 620 352 1294q0 341 -112 672h356q57 -122 90 -300.5t33 -385.5q0 -362 -107.5 -714t-257.5 -566h-354z" />
    <glyph glyph-name="bracketleft.cap" unicode="&#xe493;" horiz-adv-x="669" 
d="M709 1454h-115l-162 -1311h115l-41 -327h-481l241 1966h482z" />
    <glyph glyph-name="bracketright.cap" unicode="&#xe494;" horiz-adv-x="671" 
d="M-6 143h115l161 1311h-114l39 328h481l-242 -1966h-481z" />
    <glyph glyph-name="braceleft.cap" unicode="&#xe495;" horiz-adv-x="731" 
d="M641 143l-41 -327h-84q-439 0 -389 411l39 310q11 102 -103 102h-49l39 322h49q116 0 127 102l39 307q50 412 490 412h84l-39 -328h-49q-118 0 -129 -102l-41 -324q-9 -80 -53 -140t-119 -89q67 -28 96 -88.5t20 -139.5l-41 -325q-6 -54 22.5 -78.5t82.5 -24.5h49z" />
    <glyph glyph-name="braceright.cap" unicode="&#xe496;" horiz-adv-x="731" 
d="M170 1454h-51l39 328h86q77 0 139 -13t104 -35.5t73 -53.5t46.5 -68t25.5 -77.5t8 -82t-5 -82.5l-39 -309q-11 -103 100 -103h49l-38 -321h-50q-114 0 -125 -102l-38 -308q-8 -62 -24.5 -116t-53 -110t-88.5 -95.5t-136 -64.5t-190 -25h-84l39 327h51q116 0 127 103
l41 323q9 79 53.5 140t118.5 90q-66 29 -96 89t-21 138l41 326q11 102 -102 102z" />
    <glyph glyph-name="anglebracketleft.cap" unicode="&#xe497;" horiz-adv-x="669" 
d="M780 1782l-336 -983l95 -983h-357l-104 983l346 983h356z" />
    <glyph glyph-name="anglebracketright.cap" unicode="&#xe498;" horiz-adv-x="669" 
d="M254 799l-94 983h356l105 -983l-347 -983h-354z" />
    <glyph glyph-name="lowline" unicode="&#xe511;" horiz-adv-x="753" 
d="M606 0h-622l30 256h623z" />
    <glyph glyph-name="underscoremonospace" unicode="&#xe512;" horiz-adv-x="1556" 
d="M1362 -410h-1432l29 256h1434z" />
    <glyph glyph-name="underscoremonospace" unicode="&#xff3f;" horiz-adv-x="1556" 
d="M1362 -410h-1432l29 256h1434z" />
    <glyph glyph-name="at.cap" unicode="&#xe513;" horiz-adv-x="2105" 
d="M1151 680l27 225q-26 78 -113 78q-62 0 -101.5 -61.5t-39.5 -188.5q0 -131 94 -131q81 0 133 78zM1380 311h-225l-2 95q-105 -119 -262 -119q-169 0 -249.5 86t-80.5 272q0 335 118 494t337 159q163 0 235 -118l23 94h315l-41 -252l-49 -412q225 13 225 531
q0 100 -24.5 168t-84.5 117t-162 71.5t-255 22.5q-393 0 -577.5 -234.5t-184.5 -691.5q0 -284 143 -406t463 -122q224 0 408.5 43t378.5 127l94 -281q-392 -201 -919 -201q-471 0 -696.5 213.5t-225.5 614.5q0 289 74 519.5t217.5 393t363 249.5t500.5 87q222 0 385 -50
t260 -143.5t143 -217.5t46 -281q0 -112 -15 -212t-47.5 -194.5t-87 -170t-129 -132.5t-179.5 -88t-233 -31z" />
    <glyph glyph-name="registered.superior" unicode="&#xe514;" horiz-adv-x="757" 
d="M444 1231l58 -127h127l-68 143q67 31 78 129q10 80 -25.5 112t-103.5 32h-186l-52 -416h111l14 127h47zM492 1339h-80l8 74h80q11 0 18 -9.5t6 -27.5q-5 -37 -32 -37zM137 1311q17 132 122 225.5t237 93.5t214.5 -93.5t65.5 -225.5q-15 -132 -120.5 -226t-237.5 -94
t-214 94t-67 226z" />
    <glyph glyph-name="numbersign.LP" unicode="&#xe533;" horiz-adv-x="1228" 
d="M162 915l41 326h198l93 324h288l-94 -324h146l94 324h289l-95 -324h119l-41 -326h-174l-76 -266h142l-39 -325h-199l-92 -324h-289l94 324h-145l-94 -324h-289l94 324h-119l39 325h174l76 266h-141zM592 915l-78 -266h148l77 266h-147z" />
    <glyph glyph-name="zero.LP" unicode="&#xe534;" horiz-adv-x="1220" 
d="M1178 1006q0 -240 -31 -420t-85.5 -295.5t-138 -187t-180 -100t-219.5 -28.5q-252 0 -353 131.5t-101 452.5q0 240 31 419.5t85 295.5t138 187t180 99.5t219 28.5q252 0 353.5 -131t101.5 -452zM817 981q0 147 -31.5 216t-103.5 69q-123 0 -187.5 -176t-64.5 -506
q0 -147 31.5 -216t103.5 -69q123 0 187.5 176t64.5 506z" />
    <glyph glyph-name="one.LP" unicode="&#xe536;" horiz-adv-x="837" 
d="M782 1589l-194 -1589h-361l133 1096q-94 -62 -227 -105l45 369q188 82 318 229h286z" />
    <glyph glyph-name="two.LP" unicode="&#xe537;" horiz-adv-x="1101" 
d="M631 1270q-57 0 -87 -50t-48 -196l-346 119q16 97 36 162.5t56.5 123.5t90.5 90.5t136 51t195 18.5q225 0 324 -82.5t99 -292.5q0 -80 -7.5 -139t-35.5 -113t-51 -88.5t-85.5 -85t-106 -81t-144.5 -97.5q-8 -5 -12 -8q-139 -93 -182 -141.5t-53 -136.5h577l-39 -324h-960
q13 111 23.5 183.5t27 145.5t31.5 116.5t44 93.5t56.5 81t77.5 73t99 75.5t128 83.5q71 45 110 74.5t72.5 68.5t46.5 83t13 104q0 48 -19.5 68t-66.5 20z" />
    <glyph glyph-name="three.LP" unicode="&#xe538;" horiz-adv-x="1095" 
d="M500 295q168 0 168 225q0 69 -34.5 95t-109.5 26h-110l39 322h110q43 0 69 16t42 64.5t16 134.5q0 53 -20.5 72.5t-69.5 19.5q-65 0 -92.5 -46t-44.5 -182l-338 117q20 118 52 194.5t91 132t150.5 79.5t226.5 24q220 0 317 -72.5t97 -250.5q0 -109 -15 -190t-44 -132
t-61 -81t-75 -50q81 -22 124.5 -85t43.5 -185q0 -104 -16.5 -187t-57.5 -156t-106 -121.5t-167 -76t-236 -27.5q-130 0 -215 21.5t-140 72.5t-74.5 136t-9.5 213l367 125q-1 -8 -3 -32t-2.5 -34t-1 -33t1 -34t5 -29.5t9.5 -28.5t16 -22.5t23.5 -19t32.5 -11t42 -4.5z" />
    <glyph glyph-name="four.LP" unicode="&#xe539;" horiz-adv-x="1138" 
d="M1053 330h-156l-39 -330h-348l39 330h-549l33 268l610 991h410l-115 -934h156zM590 655l80 496l-310 -504z" />
    <glyph glyph-name="five.LP" unicode="&#xe53a;" horiz-adv-x="1097" 
d="M504 295q72 0 117 83.5t45 258.5q0 81 -25 111t-76 30q-49 0 -102.5 -34t-77.5 -85l-289 99l137 807h854l-38 -328h-537l-45 -260q103 106 270 106q149 0 222 -82t73 -284q0 -171 -24 -297.5t-69.5 -211.5t-117 -137t-160 -74t-206.5 -22q-113 0 -193.5 20t-137.5 66.5
t-80 126.5t-13 195l379 129q-5 -41 -5.5 -69.5t5 -67t29.5 -59.5t65 -21z" />
    <glyph glyph-name="six.LP" unicode="&#xe53b;" horiz-adv-x="1157" 
d="M686 1278q-54 0 -92.5 -32.5t-69 -116.5t-47.5 -224q38 52 82.5 87t93 52t91.5 23t96 6q139 0 202.5 -84t63.5 -264q0 -378 -141.5 -564t-456.5 -186q-245 0 -342.5 105t-97.5 356q0 154 9 281t30.5 248t56 214.5t87.5 172t123.5 129.5t165 79.5t210.5 28.5
q76 0 133 -7.5t110.5 -29.5t87 -58.5t54.5 -97t22 -143.5l-373 -127q23 152 -98 152zM625 760q-60 0 -102.5 -34.5t-78.5 -100.5q-12 -95 -12 -160q0 -100 27 -139t84 -39q188 0 188 336q0 73 -24 105t-82 32z" />
    <glyph glyph-name="seven.LP" unicode="&#xe53c;" horiz-adv-x="1017" 
d="M506 0h-391l413 958l136 281l-220 -2h-323l39 328h923l-26 -217z" />
    <glyph glyph-name="eight.LP" unicode="&#xe53d;" horiz-adv-x="1064" 
d="M604 1264q-55 0 -85 -48t-30 -163q0 -103 76 -103q53 0 85 54.5t32 162.5q0 53 -18.5 75t-59.5 22zM530 655q-35 0 -59.5 -8.5t-47.5 -32.5t-34.5 -74t-11.5 -126q0 -60 24 -87.5t84 -27.5q82 0 118 58t36 182q0 69 -26.5 92.5t-82.5 23.5zM446 -25q-121 0 -206 22.5
t-134 67.5t-70.5 104t-21.5 140q0 208 64.5 335.5t159.5 170.5q-50 24 -76.5 89t-26.5 157q0 258 120.5 393t389.5 135q217 0 311.5 -75t94.5 -248q0 -161 -52 -288t-139 -163q127 -62 127 -283q0 -105 -15.5 -187.5t-53 -153.5t-98.5 -117.5t-155 -72.5t-219 -26z" />
    <glyph glyph-name="nine.LP" unicode="&#xe53e;" horiz-adv-x="1157" 
d="M489 287q87 0 141 83.5t79 288.5q-38 -52 -82.5 -87t-93 -51.5t-91.5 -22.5t-96 -6q-139 0 -202.5 84t-63.5 264q0 378 141 563.5t457 185.5q245 0 342.5 -105t97.5 -356q0 -154 -9 -281t-31 -248t-57 -214.5t-89 -172t-125 -130t-167 -79.5t-214 -28q-80 0 -138.5 7.5
t-112 29t-87 58.5t-53.5 97.5t-21 143.5l373 127q-5 -41 -2 -74.5t29 -55t75 -21.5zM561 805q59 0 101 34t79 101q13 102 13 160q0 100 -27 139t-84 39q-188 0 -188 -336q0 -73 24 -105t82 -32z" />
    <glyph glyph-name="zero.inf" unicode="&#xe571;" 
d="M260 -238q36 0 65 129.5t29 282.5q0 55 -7 73.5t-25 18.5q-36 0 -65.5 -129t-29.5 -282q0 -55 7.5 -74t25.5 -19zM344 451q73 0 119 -12.5t79.5 -45.5t47.5 -90.5t14 -148.5q0 -302 -94.5 -439t-271.5 -137q-97 0 -151 23.5t-82 88.5t-28 185q0 576 367 576z" />
    <glyph glyph-name="one.inf" unicode="&#xe572;" 
d="M541 -410h-580l23 187h163l48 377q-67 -50 -185 -68l25 213q74 14 145.5 59.5t104.5 92.5h198l-84 -674h164z" />
    <glyph glyph-name="two.inf" unicode="&#xe573;" 
d="M328 268q-20 0 -33 -26.5t-21 -102.5l-245 84q11 63 28.5 102t53 69.5t94.5 43.5t149 13q132 0 196 -45t64 -140q0 -89 -23.5 -143.5t-74.5 -96t-166 -106.5q-72 -41 -94 -70t-27 -73h332l-22 -187h-602q11 92 16.5 130.5t20 92.5t29 75.5t47 56t71.5 58t104 58.5
q78 41 104.5 75t26.5 100q0 32 -28 32z" />
    <glyph glyph-name="three.inf" unicode="&#xe574;" 
d="M260 -240q66 0 66 119q0 30 -14 41.5t-50 11.5h-65l24 185h66q27 0 37 26t10 97q0 17 -6 22.5t-23 5.5q-25 0 -34.5 -22t-18.5 -96l-234 79q25 120 94.5 171t221.5 51q136 0 197 -47.5t61 -172.5q0 -152 -111 -200q51 -13 75 -48t24 -112q0 -65 -16 -115t-54 -91.5
t-109 -64t-174 -22.5q-67 0 -114 9t-87 32t-57.5 68.5t-13.5 113.5l260 90q-11 -73 -2 -98q10 -33 47 -33z" />
    <glyph glyph-name="four.inf" unicode="&#xe575;" 
d="M575 -233h-71l-23 -177h-245l22 177h-311l18 155l336 529h287l-62 -498h72zM281 -47l45 248l-136 -252z" />
    <glyph glyph-name="five.inf" unicode="&#xe576;" 
d="M260 -240q34 0 54 45t20 138q0 35 -11.5 48t-37.5 13q-24 0 -50 -17t-38 -44l-203 69l76 426h542l-22 -188h-318l-24 -127q34 31 68.5 44t86.5 13q93 0 140 -48.5t47 -166.5q0 -198 -86.5 -292.5t-265.5 -94.5q-154 0 -218.5 45.5t-64.5 159.5l264 90q-8 -49 0 -81
t41 -32z" />
    <glyph glyph-name="six.inf" unicode="&#xe577;" 
d="M317 272q-27 0 -37 -30t-22 -142q34 42 73.5 59t94.5 17q86 0 122 -40t36 -130q0 -224 -77.5 -326t-273.5 -102q-147 0 -201.5 61.5t-54.5 221.5q0 95 7 170.5t30 157.5t62 136.5t107.5 90t162.5 35.5q134 0 194.5 -38.5t63.5 -125.5l-258 -88q0 3 1.5 21t0.5 26t-8.5 17
t-22.5 9zM297 -4q-68 0 -68 -162q0 -78 27 -78q66 0 66 197q0 43 -25 43z" />
    <glyph glyph-name="seven.inf" unicode="&#xe578;" 
d="M293 -410h-277l269 508l88 154l-140 -2h-227l23 188h635l-17 -123z" />
    <glyph glyph-name="eight.inf" unicode="&#xe579;" 
d="M322 264q-29 0 -44.5 -21.5t-15.5 -76.5q0 -57 41 -57q27 0 42 28t15 80q0 26 -8.5 36.5t-29.5 10.5zM283 -59q-42 0 -63 -24t-21 -97q0 -30 13.5 -44t47.5 -14q44 0 63 29t19 90q0 36 -14 48t-45 12zM238 -422q-161 0 -226 49.5t-65 145.5q0 107 36 172t95 88
q-64 26 -64 143q0 151 77.5 213t254.5 62q144 0 208 -45t64 -144q0 -83 -29 -146.5t-85 -82.5q84 -36 84 -166q0 -71 -16 -121.5t-54 -90t-107.5 -58.5t-172.5 -19z" />
    <glyph glyph-name="nine.inf" unicode="&#xe57a;" 
d="M262 -244q15 0 22.5 4t14.5 23.5t11.5 47t11.5 87.5q-33 -39 -71 -52t-97 -13q-83 0 -118.5 49t-35.5 168q0 193 79.5 287t268.5 94q148 0 203 -62t55 -223q0 -67 -3 -122t-13 -118t-26.5 -111t-45 -94t-67.5 -76.5t-95.5 -48.5t-126.5 -18q-136 0 -194.5 37.5
t-61.5 124.5l263 90q-7 -19 -3 -46.5t29 -27.5zM285 33q34 0 48.5 45.5t14.5 109.5q0 48 -6 66t-23 18q-61 0 -61 -186q0 -53 27 -53z" />
    <glyph glyph-name="plus.inf" unicode="&#xe57b;" horiz-adv-x="847" 
d="M168 -293l25 193h-193l33 274h192l23 191h274l-22 -191h190l-33 -274h-190l-25 -193h-274z" />
    <glyph glyph-name="minus.inf" unicode="&#xe57c;" horiz-adv-x="847" 
d="M657 -100h-657l33 274h657z" />
    <glyph glyph-name="equal.inf" unicode="&#xe57d;" horiz-adv-x="847" 
d="M637 -256h-655l30 248h656zM678 82h-655l30 248h656z" />
    <glyph glyph-name="parenleft.inf" unicode="&#xe57e;" horiz-adv-x="614" 
d="M483 528q-174 -315 -174 -686q0 -204 47 -350h-252q-63 180 -63 367q0 348 190 669h252z" />
    <glyph glyph-name="parenright.inf" unicode="&#xe57f;" horiz-adv-x="614" 
d="M-33 -508q174 315 174 686q0 204 -47 350h252q64 -183 64 -366q0 -348 -191 -670h-252z" />
    <glyph glyph-name="plus.cap" unicode="&#xe591;" horiz-adv-x="1802" 
d="M733 0v631h-631v336h631v630h336v-630h631v-336h-631v-631h-336z" />
    <glyph glyph-name="minus.cap" unicode="&#xe592;" horiz-adv-x="1802" 
d="M1700 631h-1598v336h1598v-336z" />
    <glyph glyph-name="multiply.cap" unicode="&#xe593;" horiz-adv-x="1802" 
d="M70 205l594 594l-594 594l237 237l594 -594l594 594l238 -237l-594 -594l594 -594l-238 -238l-594 594l-594 -594z" />
    <glyph glyph-name="divide.cap" unicode="&#xe594;" horiz-adv-x="1802" 
d="M1087 375v-375h-372v375h372zM1087 1597v-374h-372v374h372zM1700 631h-1598v336h1598v-336z" />
    <glyph glyph-name="equal.cap" unicode="&#xe595;" horiz-adv-x="1802" 
d="M1700 926h-1598v336h1598v-336zM1700 336h-1598v336h1598v-336z" />
    <glyph glyph-name="less.cap" unicode="&#xe596;" horiz-adv-x="1802" 
d="M1700 -33l-1598 678v307l1598 678v-366l-1147 -465l1147 -465v-367z" />
    <glyph glyph-name="greater.cap" unicode="&#xe597;" horiz-adv-x="1802" 
d="M102 1630l1598 -678v-307l-1598 -678v367l1147 465l-1147 465v366z" />
    <glyph glyph-name="idotaccent" horiz-adv-x="544" 
d="M12 0l133 1085h357l-133 -1085h-357zM567 1593l-45 -360h-366l45 360h366z" />
    <glyph glyph-name="f_dotlessi" horiz-adv-x="1294" 
d="M51 788l37 297h123l27 228q20 170 130 260t300 90q117 0 196 -27l-53 -293q-49 17 -102 17q-59 0 -87 -23t-34 -75l-21 -177h187l-37 -297h-187l-147 -1198h-356l147 1198h-123zM762 0l133 1085h356l-133 -1085h-356z" />
    <glyph glyph-name="interrobangdown.cap" horiz-adv-x="1064" 
d="M571 1090h50l-70 -785q37 19 58.5 70t33.5 151l336 -114q-20 -116 -55 -195.5t-96.5 -137.5t-154 -85t-222.5 -27q-220 0 -325.5 96.5t-105.5 286.5q0 96 19.5 175t50.5 133.5t79 100t94 74.5t108 58q55 26 180 63zM453 1235l43 362h366l-43 -362h-366zM494 590
q-93 -55 -93 -207q0 -69 48 -84z" />
    <glyph glyph-name="period.T" horiz-adv-x="532" 
d="M410 362l-43 -362h-367l43 362h367z" />
    <glyph glyph-name="comma.T" horiz-adv-x="532" 
d="M43 362h381l-221 -585h-275z" />
    <glyph glyph-name="colon.T" horiz-adv-x="532" 
d="M410 362l-43 -362h-367l43 362h367zM489 1014l-43 -361h-366l43 361h366z" />
    <glyph glyph-name="semicolon.T" horiz-adv-x="532" 
d="M489 1014l-43 -361h-366l43 361h366zM43 362h381l-221 -585h-275z" />
    <glyph glyph-name="musicnaturalsign" horiz-adv-x="831" 
d="M338 1174l371 299v-1575h-215v524l-371 -297v1575h215v-526zM338 848v-225l156 125v225z" />
    <glyph glyph-name="circle" horiz-adv-x="1495" 
d="M184 543q0 153 75.5 282.5t205.5 205t283 75.5t282.5 -75.5t205 -205t75.5 -282.5t-75.5 -282.5t-205 -205t-282.5 -75.5t-283 75.5t-205.5 205t-75.5 282.5z" />
    </font>
</defs>
</svg>
