<?xml version="1.0" standalone="no"?>
<!DOCTYPE svg PUBLIC "-//W3C//DTD SVG 1.1//EN" "http://www.w3.org/Graphics/SVG/1.1/DTD/svg11.dtd" >
<svg xmlns="http://www.w3.org/2000/svg" xmlns:xlink="http://www.w3.org/1999/xlink" version="1.1">
<metadata>
Created by FontForge 20170731 at Wed Jan 28 20:48:41 2015
 By Aleksey,,,
Copyright (c) 2008 by Village Type &#38; Design LLC. All rights reserved.
</metadata>
<defs>
<font id="GalaxiePolarisCondensed-BoldItalic" horiz-adv-x="1030" >
  <font-face 
    font-family="Galaxie Polaris Condensed Bold Italic"
    font-weight="850"
    font-style="italic"
    font-stretch="normal"
    units-per-em="2048"
    panose-1="0 0 0 0 0 0 0 0 0 0"
    ascent="1638"
    descent="-410"
    x-height="1085"
    cap-height="1597"
    bbox="-348 -514 2824 2150"
    underline-thickness="61"
    underline-position="-264"
    unicode-range="U+0020-E597"
  />
<missing-glyph horiz-adv-x="1980" 
d="M190 0v1597h1598v-1597h-1598zM989 707l-571 -572h1143zM418 1462l571 -571l572 571h-1143zM897 799l-563 563v-1126zM1081 799l564 -563v1126z" />
    <glyph glyph-name="interrobang" unicode="&#x21;&#x3f;" horiz-adv-x="1003" 
d="M1008 1309q0 -89 -13.5 -163.5t-36.5 -128t-57 -97t-70.5 -73t-83 -55t-88 -42.5t-90.5 -36q-29 -11 -43 -16l-47 -309h-41l86 985q-62 -15 -95 -75.5t-48 -186.5l-256 86q36 225 146 326.5t345 101.5q205 0 298.5 -72.5t93.5 -244.5zM575 285l-34 -285h-289l35 285h288z
M721 1245q0 113 -88 131l-64 -399q52 27 83 58t50 83t19 127z" />
    <glyph glyph-name="interrobangdown" unicode="&#xa1;&#xbf;" horiz-adv-x="1003" 
d="M518 614l-69 -794q66 13 100 71t49 177l250 -86q-33 -215 -142 -314.5t-341 -99.5q-206 0 -302 74t-96 241q0 397 469 504l35 227h47zM397 801l35 284h289l-35 -284h-289zM258 -66q0 -99 88 -116l51 325q-75 -42 -107 -86.5t-32 -122.5z" />
    <glyph glyph-name=".notdef" horiz-adv-x="1980" 
d="M190 0v1597h1598v-1597h-1598zM989 707l-571 -572h1143zM418 1462l571 -571l572 571h-1143zM897 799l-563 563v-1126zM1081 799l564 -563v1126z" />
    <glyph glyph-name=".null" horiz-adv-x="0" 
 />
    <glyph glyph-name="nonmarkingreturn" horiz-adv-x="682" 
 />
    <glyph glyph-name="space" unicode=" " horiz-adv-x="342" 
 />
    <glyph glyph-name="exclam" unicode="!" horiz-adv-x="477" 
d="M332 283l-33 -283h-285l33 283h285zM195 1597h313l-191 -1126h-208z" />
    <glyph glyph-name="quotedbl" unicode="&#x22;" horiz-adv-x="866" 
d="M197 1597h319l-106 -512h-232zM578 1597h317l-104 -512h-232z" />
    <glyph glyph-name="numbersign" unicode="#" horiz-adv-x="1064" 
d="M174 958l31 246h162l102 361h223l-104 -361h162l104 361h223l-104 -361h100l-31 -246h-143l-100 -352h119l-31 -246h-162l-102 -360h-224l105 360h-162l-104 -360h-224l105 360h-101l29 246h143l101 352h-117zM514 958l-102 -352h163l103 352h-164z" />
    <glyph glyph-name="dollar" unicode="$" horiz-adv-x="915" 
d="M414 446q162 0 174 119q7 61 -26.5 87t-131.5 44q-61 9 -101 18.5t-85 32t-69 54.5t-36.5 86.5t-3.5 128.5q22 177 129 256t295 82l86 211h240l-97 -226q75 -13 150 -53l-92 -233q-103 69 -266 69q-76 0 -118 -29t-48 -79q-6 -52 22.5 -77t112.5 -42q84 -14 127 -27
t98.5 -46.5t73.5 -98t6 -162.5q-23 -183 -132 -265.5t-308 -84.5l-88 -211h-240l100 231q-111 25 -178 68l103 236q147 -89 303 -89z" />
    <glyph glyph-name="percent" unicode="%" horiz-adv-x="1781" 
d="M438 918q49 0 80.5 26.5t50.5 98t19 190.5q0 82 -22 115.5t-70 33.5q-49 0 -80.5 -26.5t-50.5 -98t-19 -190.5q0 -82 22 -115.5t70 -33.5zM414 713q-152 0 -220.5 75t-68.5 244q0 555 395 555q152 0 220.5 -75t68.5 -244q0 -555 -395 -555zM1368 647q-73 0 -111 -70
t-38 -245q0 -81 22.5 -115.5t71.5 -34.5q73 0 110 70.5t37 245.5q0 82 -22 115.5t-70 33.5zM1395 852q152 0 219 -75.5t67 -244.5q0 -555 -395 -555q-152 0 -219.5 75.5t-67.5 244.5q0 555 396 555zM303 0l991 1565h211l-991 -1565h-211z" />
    <glyph glyph-name="ampersand" unicode="&#x26;" horiz-adv-x="1114" 
d="M1051 854q0 -228 -119 -492q41 -32 78 -55l-41 -330q-101 69 -195 160q-166 -160 -387 -160q-183 0 -273.5 96t-90.5 269q0 160 56 282.5t165 225.5q-70 174 -70 332q0 214 105 326t309 112q161 0 229 -75t68 -224q0 -63 -17 -118.5t-41 -97t-73.5 -92.5t-91 -86.5
t-117.5 -95.5q93 -153 219 -296q67 222 49 401zM440 213q103 0 183 80q-137 155 -265 358q-71 -103 -71 -258q0 -95 39 -137.5t114 -42.5zM563 1380q-48 0 -79 -32t-41.5 -74.5t-10.5 -93.5q0 -70 29 -162q98 74 143 133.5t45 138.5q0 90 -86 90z" />
    <glyph glyph-name="quotesingle" unicode="'" horiz-adv-x="485" 
d="M197 1597h319l-106 -512h-232z" />
    <glyph glyph-name="parenleft" unicode="(" horiz-adv-x="626" 
d="M365 717q-32 -289 -8.5 -517t104.5 -466h-268q-50 108 -82 259.5t-41 337.5t16 386q37 287 133 551t213 432h268q-139 -240 -220 -473t-115 -510z" />
    <glyph glyph-name="parenright" unicode=")" horiz-adv-x="626" 
d="M270 717q33 290 10 517t-104 466h268q78 -168 108.5 -420.5t-3.5 -562.5q-35 -287 -131 -551t-213 -432h-266q138 241 218 474t113 509z" />
    <glyph glyph-name="asterisk" unicode="*" horiz-adv-x="724" 
d="M385 1597h180l-41 -192l191 78l35 -172l-183 -39l101 -133l-162 -107l-78 170l-123 -170l-133 107l131 133l-172 39l76 172l172 -78z" />
    <glyph glyph-name="plus" unicode="+" horiz-adv-x="1474" 
d="M600 246v416h-416v274h416v416h274v-416h416v-274h-416v-416h-274z" />
    <glyph glyph-name="comma" unicode="," horiz-adv-x="477" 
d="M45 283h297l-195 -541h-204z" />
    <glyph glyph-name="hyphen" unicode="-" horiz-adv-x="823" 
d="M694 559h-594l31 254h594z" />
    <glyph glyph-name="period" unicode="." horiz-adv-x="477" 
d="M332 283l-33 -283h-285l33 283h285z" />
    <glyph glyph-name="slash" unicode="/" horiz-adv-x="804" 
d="M911 1782l-710 -1966h-277l709 1966h278z" />
    <glyph glyph-name="zero" unicode="0" horiz-adv-x="1064" 
d="M485 221q55 0 100 53.5t74.5 140.5t50 200.5t29.5 229.5t9 232q0 111 -17 170.5t-45.5 77.5t-79.5 18q-68 0 -120.5 -80t-82 -210t-44.5 -274.5t-15 -291.5q0 -112 16.5 -171t45 -77t79.5 -18zM635 1587q83 0 140.5 -12.5t105.5 -45.5t75.5 -90.5t42.5 -146.5t15 -215
q0 -389 -60 -631.5t-181.5 -355.5t-315.5 -113q-83 0 -140.5 12.5t-105.5 45.5t-75.5 90.5t-42.5 146.5t-15 215q0 389 60 631.5t181.5 355.5t315.5 113z" />
    <glyph glyph-name="one" unicode="1" horiz-adv-x="1064" 
d="M905 0h-862l29 246h295l116 942q-59 -62 -147.5 -112t-192.5 -79l35 277q127 38 233.5 123.5t174.5 189.5h219l-166 -1341h295z" />
    <glyph glyph-name="two" unicode="2" horiz-adv-x="1064" 
d="M616 1348q-80 0 -119.5 -61t-58.5 -214l-262 90q13 88 30.5 149.5t51 116.5t83 87.5t126 51.5t180.5 19q201 0 285 -73t84 -236q0 -67 -5.5 -122t-19 -102.5t-29 -85.5t-44.5 -75t-57 -65.5t-73.5 -63t-87 -62t-104.5 -67.5q-67 -42 -110.5 -77.5t-71.5 -66t-44.5 -71.5
t-24 -77t-15.5 -99h585l-30 -244h-873q13 110 22.5 176.5t24.5 140t29 115t40 91.5t53 80.5t72.5 70.5t95 73t122.5 78q166 99 216 172.5t50 221.5q0 68 -27.5 98.5t-93.5 30.5z" />
    <glyph glyph-name="three" unicode="3" horiz-adv-x="1064" 
d="M469 217q105 0 156 73.5t51 225.5q0 92 -40 128t-108 36h-129l29 244h131q162 0 162 288q0 76 -28 106t-97 30q-86 0 -121 -56.5t-53 -206.5l-256 89q17 107 47 180t83 127.5t135.5 80t199.5 25.5q193 0 279.5 -75t86.5 -257q0 -186 -57 -296t-152 -148q80 -22 121 -86
t41 -199q0 -549 -520 -549q-222 0 -306.5 99.5t-66.5 320.5l277 97q-4 -34 -5.5 -60.5t-1 -61t9.5 -60t24 -48.5t42.5 -35t65.5 -12z" />
    <glyph glyph-name="four" unicode="4" horiz-adv-x="1064" 
d="M952 346h-139l-41 -346h-262l41 346h-522l26 219l588 1022h324l-123 -995h139zM582 592l94 655l-373 -663z" />
    <glyph glyph-name="five" unicode="5" horiz-adv-x="1064" 
d="M469 217q105 0 163 107t58 327q0 100 -32 139t-99 39q-61 0 -114 -37t-83 -92l-223 74l133 791h758l-29 -248h-520l-61 -373q110 119 262 119q140 0 212.5 -82.5t72.5 -280.5t-35.5 -338.5t-106 -224.5t-167 -122t-226.5 -38q-209 0 -301 94.5t-74 303.5l285 96
q-3 -32 -4 -48t-1.5 -48t3 -49.5t12.5 -41t23.5 -36t38 -22t55.5 -9.5z" />
    <glyph glyph-name="six" unicode="6" horiz-adv-x="1064" 
d="M618 1352q-37 0 -64 -9.5t-48 -35.5t-35.5 -58.5t-27.5 -93.5t-22 -123.5t-22 -165.5q61 93 136.5 134.5t177.5 41.5q133 0 190.5 -73.5t57.5 -237.5q0 -86 -6 -161.5t-21.5 -153.5t-40.5 -141.5t-65.5 -120t-93 -95t-126 -60.5t-162.5 -22q-205 0 -284.5 103t-79.5 369
q0 198 20 374q45 406 173 585t364 179q211 0 295.5 -76t83.5 -272l-283 -94q6 37 4 74t-9.5 66.5t-36 48t-75.5 18.5zM573 805q-63 0 -104.5 -36.5t-93.5 -123.5q-19 -155 -19 -237q0 -107 28.5 -151t92.5 -44q44 0 78.5 21.5t55.5 60.5t35.5 82t20.5 97t8.5 93.5t2.5 83.5
q0 82 -25.5 118t-79.5 36z" />
    <glyph glyph-name="seven" unicode="7" horiz-adv-x="1064" 
d="M459 0h-295l465 1028l135 291l-225 -2h-361l29 248h872l-20 -168z" />
    <glyph glyph-name="eight" unicode="8" horiz-adv-x="1064" 
d="M614 1341q-93 0 -139.5 -61t-46.5 -213t133 -152q189 0 189 281q0 78 -33 111.5t-103 33.5zM535 690q-49 0 -85 -11.5t-69 -42.5t-50.5 -93.5t-17.5 -155.5q0 -85 39 -125.5t123 -40.5q112 0 166.5 71.5t54.5 227.5q0 96 -40.5 133t-120.5 37zM446 -23q-217 0 -311 86.5
t-94 249.5q0 118 22.5 210t60.5 148t77.5 89t85.5 51q-58 24 -92.5 94t-34.5 168q0 256 116 385t369 129q202 0 291.5 -75.5t89.5 -245.5q0 -176 -60 -299t-155 -156q147 -66 147 -295q0 -128 -26 -224t-84.5 -168.5t-159 -109.5t-242.5 -37z" />
    <glyph glyph-name="nine" unicode="9" horiz-adv-x="1064" 
d="M473 213q28 0 50 5t40 19t32 31.5t26 49t20.5 64t18 85.5t16.5 104t16 127q-63 -93 -137 -134.5t-176 -41.5q-132 0 -190 74t-58 238q0 86 6 161.5t21.5 153.5t40 141t64.5 119.5t92 95t125.5 60.5t162.5 22q140 0 218 -44t113.5 -145.5t35.5 -281.5q0 -179 -23 -391
q-49 -398 -175.5 -573t-358.5 -175q-212 0 -297 76.5t-82 272.5l280 94q-6 -37 -3.5 -74t10.5 -66.5t36.5 -48t75.5 -18.5zM516 760q63 0 106 37t95 123q18 147 18 237q0 106 -29 150.5t-92 44.5q-44 0 -78.5 -21.5t-55.5 -60.5t-35.5 -82.5t-21 -97t-9 -94t-2.5 -83.5
q0 -81 26 -117t78 -36z" />
    <glyph glyph-name="colon" unicode=":" horiz-adv-x="477" 
d="M332 283l-33 -283h-285l33 283h285zM418 973l-35 -281h-285l35 281h285z" />
    <glyph glyph-name="semicolon" unicode=";" horiz-adv-x="477" 
d="M418 973l-35 -281h-285l35 281h285zM45 283h297l-195 -541h-204z" />
    <glyph glyph-name="less" unicode="&#x3c;" horiz-adv-x="1474" 
d="M768 899l-262 -100l262 -101l522 -217v-299l-1106 500v233l1106 500v-299z" />
    <glyph glyph-name="equal" unicode="=" horiz-adv-x="1474" 
d="M1290 426h-1106v274h1106v-274zM1290 897h-1106v274h1106v-274z" />
    <glyph glyph-name="greater" unicode="&#x3e;" horiz-adv-x="1474" 
d="M969 799l-262 100l-523 217v299l1106 -500v-233l-1106 -500v299l523 217z" />
    <glyph glyph-name="question" unicode="?" horiz-adv-x="1003" 
d="M545 471h-191q-35 77 -35 172q0 120 51 190t181 134q59 31 93.5 62.5t55.5 85.5t21 134q0 71 -32.5 101t-100.5 30q-97 0 -142.5 -58.5t-62.5 -209.5l-256 88q36 224 145 325t342 101q206 0 300 -72.5t94 -242.5q0 -74 -10 -136.5t-24.5 -107t-42.5 -84.5t-50.5 -64
t-62.5 -51t-66 -41t-72 -37q-11 -5 -16 -8q-78 -41 -105 -87t-27 -124q0 -43 13 -100zM569 285l-32 -285h-289l33 285h288z" />
    <glyph glyph-name="at" unicode="@" horiz-adv-x="2007" 
d="M1120 451l37 311q-51 108 -160 108q-86 0 -131.5 -65.5t-60.5 -198.5q-16 -133 13 -198.5t114 -65.5q107 0 188 109zM1290 127h-172l2 109q-120 -134 -278 -134q-197 0 -268 123.5t-39 380.5t132.5 379.5t297.5 122.5q92 0 153.5 -38.5t93.5 -92.5l25 108h238l-39 -241
l-60 -490q61 1 106 21t76 54.5t53 92t35.5 121.5t24.5 156q13 112 12 205.5t-32 168t-92 126t-169.5 79t-263.5 27.5q-189 0 -323 -44t-227 -142.5t-147 -247.5t-81 -367q-26 -214 -9.5 -366t89.5 -248.5t201 -141.5t327 -45q222 0 390.5 39t349.5 115l69 -215
q-367 -174 -837 -174q-258 0 -436.5 66t-278.5 196.5t-133 324t0 449.5q64 520 325 778t750 258q882 0 778 -841q-20 -169 -64.5 -291t-120.5 -209t-189.5 -129.5t-268.5 -42.5z" />
    <glyph glyph-name="A" unicode="A" horiz-adv-x="1044" 
d="M428 1612h418l82 -1612h-281l-10 291h-326l-78 -291h-280zM606 1364l-231 -844h256z" />
    <glyph glyph-name="B" unicode="B" horiz-adv-x="1122" 
d="M582 0h-553l194 1597h539q72 0 126 -13.5t99 -46.5t68.5 -95.5t23.5 -153.5q0 -198 -56.5 -305.5t-143.5 -144.5q155 -42 155 -275q0 -266 -111.5 -414.5t-340.5 -148.5zM338 248h213q45 0 78 11t62.5 40t45 86.5t15.5 142.5q0 93 -37 129.5t-101 36.5h-221zM670 1350
h-197l-51 -410h199q74 0 122 67.5t48 211.5q0 76 -29 103.5t-92 27.5z" />
    <glyph glyph-name="C" unicode="C" horiz-adv-x="1107" 
d="M659 1378q-76 0 -136 -78.5t-95.5 -206.5t-53.5 -276.5t-18 -302.5q0 -159 36.5 -227t123.5 -68q112 0 159 60.5t70 230.5l261 -90q-19 -120 -52.5 -201t-93 -136.5t-148 -80.5t-216.5 -25q-85 0 -149.5 16t-116.5 53.5t-84.5 98.5t-50 152t-17.5 213q0 119 7 225.5
t25.5 220.5t48 208.5t78 181t111.5 145.5t151.5 94t196.5 35q241 0 332.5 -100t71.5 -338l-283 -95q4 36 5.5 58t1.5 56.5t-4.5 56t-16 47t-29.5 39.5t-47 24t-68 10z" />
    <glyph glyph-name="D" unicode="D" horiz-adv-x="1165" 
d="M440 0h-411l194 1597h404q265 0 378 -115.5t113 -400.5q0 -206 -22 -370t-71.5 -299.5t-127 -225t-192.5 -138t-265 -48.5zM338 248h133q122 0 206 104.5t123.5 285.5t39.5 429q0 154 -51.5 218.5t-182.5 64.5h-133z" />
    <glyph glyph-name="E" unicode="E" horiz-adv-x="964" 
d="M223 1597h758l-31 -247h-481l-49 -410h401l-30 -246h-402l-55 -446h510l-29 -248h-786z" />
    <glyph glyph-name="F" unicode="F" horiz-adv-x="913" 
d="M389 694l-84 -694h-276l194 1597h750l-31 -247h-473l-49 -410h405l-30 -246h-406z" />
    <glyph glyph-name="G" unicode="G" horiz-adv-x="1146" 
d="M76 498q0 197 18.5 359t63.5 307t116 243.5t181.5 155.5t255.5 57q243 0 336 -98.5t73 -337.5l-282 -97q9 55 6 107.5t-15.5 93t-51.5 65.5t-101 25q-86 0 -151.5 -81.5t-102 -215t-54.5 -282t-18 -303.5q0 -148 43.5 -212.5t151.5 -64.5q113 0 196 39l47 389h-178
l27 230h446l-96 -775q-105 -65 -214.5 -95t-264.5 -30q-237 0 -334.5 120t-97.5 401z" />
    <glyph glyph-name="H" unicode="H" horiz-adv-x="1140" 
d="M866 1597h277l-195 -1597h-276l84 694h-367l-84 -694h-276l194 1597h277l-80 -657h366z" />
    <glyph glyph-name="I" unicode="I" horiz-adv-x="520" 
d="M512 1597l-195 -1597h-278l194 1597h279z" />
    <glyph glyph-name="J" unicode="J" horiz-adv-x="942" 
d="M674 1597h276l-145 -1179q-29 -239 -140.5 -340t-324.5 -101q-110 0 -182 24t-108.5 72t-49 109t-6.5 148l278 96q-14 -108 7.5 -159t95.5 -50q76 1 108.5 46t44.5 153z" />
    <glyph glyph-name="K" unicode="K" horiz-adv-x="1097" 
d="M500 1597l-99 -753l420 753h330l-438 -696l272 -901h-332l-157 657l-144 -217l-47 -440h-276l194 1597h277z" />
    <glyph glyph-name="L" unicode="L" horiz-adv-x="860" 
d="M500 1597l-166 -1349h432l-29 -248h-708l194 1597h277z" />
    <glyph glyph-name="M" unicode="M" horiz-adv-x="1435" 
d="M752 0h-234l-104 1020l-111 -1020h-274l194 1597h387l86 -1087l353 1087h387l-195 -1597h-272l139 1020z" />
    <glyph glyph-name="N" unicode="N" horiz-adv-x="1157" 
d="M530 1597l156 -657l88 -399l43 387l82 669h258l-194 -1597h-308l-155 657l-86 400l-43 -387l-80 -670h-262l194 1597h307z" />
    <glyph glyph-name="O" unicode="O" horiz-adv-x="1134" 
d="M512 219q79 0 140 85.5t94.5 222t50 281.5t16.5 288q0 148 -36.5 215t-121.5 67q-80 0 -141.5 -85.5t-95 -221.5t-50 -281t-16.5 -288q0 -148 37.5 -215.5t122.5 -67.5zM481 -23q-221 0 -314 127.5t-93 393.5q0 130 8.5 246.5t28.5 231t51.5 209.5t79.5 177t110.5 138
t146.5 88t185 32q221 0 314.5 -127.5t93.5 -392.5q0 -153 -12 -286.5t-38.5 -263.5t-74 -231.5t-113 -179.5t-160.5 -120t-213 -42z" />
    <glyph glyph-name="P" unicode="P" horiz-adv-x="1040" 
d="M410 819h145q97 0 151 84t54 281q0 91 -33.5 128.5t-103.5 37.5h-148zM379 571l-68 -571h-278l194 1597h439q84 0 147.5 -17.5t117 -59t81.5 -118.5t28 -188q0 -128 -19.5 -230t-55.5 -171t-81 -117.5t-103 -75t-114 -38t-120 -11.5h-168z" />
    <glyph glyph-name="Q" unicode="Q" horiz-adv-x="1134" 
d="M1092 1100q0 -986 -471 -1106l249 -184l-159 -248l-498 495q-139 139 -139 441q0 130 8.5 246.5t28.5 231t51.5 209.5t79.5 177t110.5 138t146.5 88t185 32q221 0 314.5 -127.5t93.5 -392.5zM512 219q79 0 140 85.5t94.5 222t50 281.5t16.5 288q0 148 -36.5 215
t-121.5 67q-80 0 -141.5 -85.5t-95 -221.5t-50 -281t-16.5 -288q0 -148 37.5 -215.5t122.5 -67.5z" />
    <glyph glyph-name="R" unicode="R" horiz-adv-x="1077" 
d="M381 606l-74 -606h-278l194 1597h451q68 0 119.5 -7.5t102.5 -30t83.5 -61t53 -104.5t20.5 -157q0 -136 -23 -244t-63.5 -176.5t-84.5 -111t-96 -66.5l160 -639h-317l-111 606h-137zM412 856h141q48 0 84.5 14.5t68 49.5t48 102t16.5 164t-40.5 130.5t-121.5 33.5h-135z
" />
    <glyph glyph-name="S" unicode="S" horiz-adv-x="1042" 
d="M453 217q113 0 171 64.5t58 210.5q0 86 -49.5 128t-173.5 78q-59 16 -98.5 30.5t-85.5 43t-73.5 65t-46 95t-18.5 133.5q0 286 127.5 423.5t392.5 137.5q225 0 306.5 -102.5t60.5 -329.5l-279 -94q16 127 4 181q-22 99 -131 99q-94 0 -147 -67t-53 -209q0 -80 43 -116
t157 -62q69 -16 116 -32t94 -44t74 -66t44 -96t17 -135q0 -158 -37.5 -271.5t-110.5 -181t-171 -98.5t-228 -31q-129 0 -212 28.5t-124.5 87.5t-53 135t-1.5 186l276 94q-4 -35 -5.5 -56.5t-1.5 -55t4.5 -54.5t15 -46t28 -39.5t46 -24t65.5 -9.5z" />
    <glyph glyph-name="T" unicode="T" horiz-adv-x="931" 
d="M686 1350l-164 -1350h-276l164 1350h-287l31 247h850l-31 -247h-287z" />
    <glyph glyph-name="U" unicode="U" horiz-adv-x="1101" 
d="M496 217q55 0 90 11.5t56 39.5t31 63.5t17 94.5l144 1171h276l-145 -1183q-15 -118 -42.5 -195.5t-83 -136t-147 -85t-227.5 -26.5t-221.5 27.5t-127.5 82.5t-51.5 138.5t5.5 194.5l145 1183h279l-144 -1171q-10 -72 -3 -118.5t42 -68.5t107 -22z" />
    <glyph glyph-name="V" unicode="V" horiz-adv-x="1044" 
d="M647 -14h-418l-82 1611h281l39 -1364l375 1364h280z" />
    <glyph glyph-name="W" unicode="W" horiz-adv-x="1480" 
d="M811 -14l-6 1210l-303 -1210h-375l41 1611h258l-47 -1224l317 1224h314l18 -1224l252 1224h260l-354 -1611h-375z" />
    <glyph glyph-name="X" unicode="X" horiz-adv-x="1142" 
d="M702 0l-137 631l-286 -631h-324l397 825l-174 772h311l121 -604l269 604h311l-363 -772l197 -825h-322z" />
    <glyph glyph-name="Y" unicode="Y" horiz-adv-x="1056" 
d="M549 842l323 755h285l-508 -1046l-63 -551h-277l70 551l-254 1046h285z" />
    <glyph glyph-name="Z" unicode="Z" 
d="M-23 0l25 201l619 989l106 164l-272 -2h-281l29 245h862l-25 -200l-618 -989l-107 -164l275 2h317l-28 -246h-902z" />
    <glyph glyph-name="bracketleft" unicode="[" horiz-adv-x="626" 
d="M672 1452h-140l-182 -1470h139l-28 -248h-416l240 1966h415z" />
    <glyph glyph-name="backslash" unicode="\" horiz-adv-x="804" 
d="M391 -184l-227 1966h278l228 -1966h-279z" />
    <glyph glyph-name="bracketright" unicode="]" horiz-adv-x="634" 
d="M-25 -18h138l182 1470h-137l28 248h414l-240 -1966h-413z" />
    <glyph glyph-name="asciicircum" unicode="^" horiz-adv-x="1165" 
d="M578 1626h243l322 -807h-289l-121 322l-69 192l-117 -192l-199 -322h-289z" />
    <glyph glyph-name="underscore" unicode="_" horiz-adv-x="722" 
d="M526 -410h-594l23 199h596z" />
    <glyph glyph-name="grave" unicode="`" horiz-adv-x="1269" 
d="M500 1638h303l41 -426h-273z" />
    <glyph glyph-name="a" unicode="a" horiz-adv-x="1038" 
d="M621 319l55 447q-68 104 -160 104q-105 0 -155 -126.5t-50 -354.5q0 -93 28 -133.5t95 -40.5q96 0 187 104zM948 803l-63 -520l-27 -283h-242v109q-57 -67 -125 -99.5t-159 -32.5q-150 0 -224.5 93t-74.5 290q0 350 116.5 549t321.5 199q91 0 151 -32.5t101 -98.5l27 108
h241z" />
    <glyph glyph-name="b" unicode="b" horiz-adv-x="1038" 
d="M670 1108q150 0 223.5 -93t73.5 -290q0 -351 -115.5 -549.5t-321.5 -198.5q-90 0 -149 32.5t-102 99.5l-25 -109h-242l41 283l166 1355h273l-80 -641q96 111 258 111zM383 766l-55 -447q68 -104 159 -104q104 0 153.5 127t49.5 354q0 92 -28 133t-95 41q-93 0 -184 -104z
" />
    <glyph glyph-name="c" unicode="c" horiz-adv-x="933" 
d="M518 874q-53 0 -93 -34t-62 -84.5t-36 -118.5t-18 -124t-4 -114q0 -104 31.5 -146t99.5 -42q73 0 104.5 44.5t43.5 133.5l247 -86q-13 -80 -38.5 -136.5t-73 -101t-124.5 -66.5t-187 -22q-198 0 -284.5 89.5t-86.5 300.5q0 128 14.5 234t50.5 202.5t93 162t146 104
t206 38.5q180 0 267 -72.5t77 -247.5l-270 -92q4 32 2 63.5t-9.5 57t-31.5 41.5t-64 16z" />
    <glyph glyph-name="d" unicode="d" horiz-adv-x="1038" 
d="M475 1108q87 0 141.5 -28t92.5 -83l77 641h269l-166 -1355l-27 -283h-244v109q-57 -67 -124.5 -99.5t-157.5 -32.5q-150 0 -224.5 93t-74.5 290q0 352 115 550t323 198zM623 319l55 447q-68 104 -158 104q-105 0 -156 -126.5t-51 -352.5q0 -93 29.5 -134.5t97.5 -41.5
q92 0 183 104z" />
    <glyph glyph-name="e" unicode="e" horiz-adv-x="970" 
d="M319 446q-4 -29 -5.5 -51.5t-1.5 -54.5t6.5 -55.5t18 -45.5t34.5 -34t55 -12q76 0 112.5 34.5t45.5 108.5l258 -90q-13 -63 -39 -109t-74 -84t-127.5 -57t-189.5 -19q-208 0 -292.5 96t-84.5 306q0 377 128.5 553t381.5 176q199 0 280.5 -91.5t81.5 -285.5
q0 -88 -24 -285h-564zM516 893q-78 0 -115.5 -56.5t-56.5 -193.5h277q6 59 6 102q0 77 -25 112.5t-86 35.5z" />
    <glyph glyph-name="f" unicode="f" horiz-adv-x="694" 
d="M72 860l28 225h121l33 279q19 145 111.5 221t257.5 76q105 0 170 -25l-43 -223q-43 19 -103 19q-61 0 -91.5 -23.5t-37.5 -83.5l-29 -240h197l-29 -225h-196l-156 -1270h-268l156 1270h-121z" />
    <glyph glyph-name="g" unicode="g" horiz-adv-x="1040" 
d="M348 29q-150 0 -224.5 92.5t-74.5 286.5q0 326 114 513t318 187q91 0 150 -32t102 -99l27 108h241l-43 -282l-104 -860q-24 -197 -140 -286t-331 -89q-212 0 -301.5 63.5t-85.5 218.5l274 93q-10 -77 20 -118.5t113 -41.5q88 0 129 42t52 132l24 182q-51 -55 -111 -82.5
t-149 -27.5zM637 371l47 395q-64 104 -160 104q-198 0 -198 -428q0 -94 28 -134t97 -40q93 0 186 103z" />
    <glyph glyph-name="h" unicode="h" horiz-adv-x="1028" 
d="M487 1638l-79 -641q124 111 309 111q272 0 235 -291l-98 -817h-268l92 754q12 116 -98 116q-118 0 -199 -102l-94 -768h-271l201 1638h270z" />
    <glyph glyph-name="i" unicode="i" horiz-adv-x="473" 
d="M20 0l134 1085h268l-133 -1085h-269zM489 1569l-34 -281h-285l35 281h284z" />
    <glyph glyph-name="j" unicode="j" horiz-adv-x="473" 
d="M422 1085l-152 -1226q-36 -297 -348 -297q-106 0 -168 24l41 226q39 -17 103 -17q48 0 74.5 22t33.5 77l148 1191h268zM489 1569l-34 -281h-285l35 281h284z" />
    <glyph glyph-name="k" unicode="k" horiz-adv-x="1003" 
d="M358 655l314 430h321l-364 -423l264 -662h-315l-150 428l-115 -137l-26 -291h-271l201 1638h270z" />
    <glyph glyph-name="l" unicode="l" horiz-adv-x="475" 
d="M20 0l201 1638h271l-201 -1638h-271z" />
    <glyph glyph-name="m" unicode="m" horiz-adv-x="1509" 
d="M387 1085l-2 -112q129 135 315 135q99 0 147 -39t58 -90q59 61 142 95t176 34q245 0 215 -268l-103 -840h-270l94 774q10 96 -84 96q-91 0 -170 -92l-94 -778h-268l94 774q10 96 -86 96q-92 0 -168 -92l-94 -778h-271l99 803l28 282h242z" />
    <glyph glyph-name="n" unicode="n" 
d="M385 1085l-2 -108q70 65 149.5 98t186.5 33q272 0 235 -291l-98 -817h-268l92 754q12 116 -98 116q-118 0 -199 -102l-94 -768h-271l99 803l28 282h240z" />
    <glyph glyph-name="o" unicode="o" horiz-adv-x="991" 
d="M438 213q55 0 96 36.5t62 87.5t34 121t16 119.5t3 100.5q0 105 -32 149.5t-99 44.5q-55 0 -96 -36.5t-62 -87.5t-34 -120.5t-16 -119t-3 -100.5q0 -106 32 -150.5t99 -44.5zM412 -23q-193 0 -284 92t-91 308q0 81 5 150.5t20 146t38.5 138t62.5 118t91 95t126 61
t165 22.5q193 0 285 -92.5t92 -308.5q0 -80 -5.5 -150t-20 -146t-38.5 -137.5t-63.5 -118t-91.5 -95t-126 -61t-165 -22.5z" />
    <glyph glyph-name="p" unicode="p" horiz-adv-x="1038" 
d="M530 -23q-87 0 -140 28t-89 83l-61 -498h-273l150 1213l28 282h242l-2 -108q59 66 127 98.5t158 32.5q150 0 223.5 -93t73.5 -290q0 -351 -115.5 -549.5t-321.5 -198.5zM383 766l-55 -447q68 -104 159 -104q104 0 153.5 127t49.5 354q0 92 -28 133t-95 41
q-93 0 -184 -104z" />
    <glyph glyph-name="q" unicode="q" horiz-adv-x="1036" 
d="M334 -23q-148 0 -222.5 93t-74.5 290q0 351 115.5 549.5t320.5 198.5q91 0 151 -32t103 -99l25 108h243l-43 -282l-149 -1213h-268l61 498q-49 -55 -111 -83t-151 -28zM623 319l55 447q-68 104 -160 104q-105 0 -155 -126.5t-50 -354.5q0 -93 29 -133.5t96 -40.5
q94 0 185 104z" />
    <glyph glyph-name="r" unicode="r" horiz-adv-x="698" 
d="M594 848q-117 0 -215 -98l-90 -750h-271l99 803l28 282h240l-2 -118q48 69 111 105t129 36q56 0 86 -21l-45 -247q-21 8 -70 8z" />
    <glyph glyph-name="s" unicode="s" horiz-adv-x="931" 
d="M395 184q158 0 158 158q0 57 -32.5 79.5t-110.5 37.5q-69 8 -115.5 18t-89.5 28t-68 45t-40 68t-15 97q0 110 35 188.5t98.5 122t140 63t172.5 19.5q181 0 263 -57.5t75 -202.5l-276 -94q4 36 3 68.5t-24.5 55.5t-66.5 23q-125 0 -125 -151q0 -49 27.5 -69.5t97.5 -33.5
q87 -10 141 -23t103 -41t71.5 -77t22.5 -123q0 -109 -35 -189t-101 -126.5t-151.5 -68.5t-194.5 -22q-89 0 -152 11.5t-112.5 40.5t-71.5 83t-18 134l277 94q-13 -70 13 -113t101 -43z" />
    <glyph glyph-name="t" unicode="t" horiz-adv-x="735" 
d="M70 860l28 225h127l35 287l268 4l-34 -291h223l-29 -225h-223l-68 -551q-7 -57 15.5 -79.5t70.5 -22.5q55 0 107 18l-12 -223q-73 -25 -179 -25q-310 0 -274 297l72 586h-127z" />
    <glyph glyph-name="u" unicode="u" 
d="M614 0v109q-70 -66 -149 -99t-186 -33q-273 0 -236 293l100 815h269l-95 -753q-12 -117 97 -117q114 0 202 102l95 768h270l-100 -802l-27 -283h-240z" />
    <glyph glyph-name="v" unicode="v" horiz-adv-x="929" 
d="M948 1085l-373 -1091h-389l-102 1091h283l41 -858l256 858h284z" />
    <glyph glyph-name="w" unicode="w" horiz-adv-x="1320" 
d="M584 1085h260l47 -731l168 731h260l-291 -1091h-311l-45 751l-232 -751h-311l-23 1091h261l-13 -731z" />
    <glyph glyph-name="x" unicode="x" horiz-adv-x="993" 
d="M551 0l-84 418l-188 -418h-314l291 557l-135 528h299l78 -411l178 411h299l-266 -528l155 -557h-313z" />
    <glyph glyph-name="y" unicode="y" horiz-adv-x="985" 
d="M446 305l271 780h287l-447 -1054l-203 -441h-303l209 406l-176 1089h285z" />
    <glyph glyph-name="z" unicode="z" horiz-adv-x="849" 
d="M-35 0l23 184l495 668l-387 -4l31 237h700l-22 -184l-498 -668l443 5l-29 -238h-756z" />
    <glyph glyph-name="braceleft" unicode="{" horiz-adv-x="694" 
d="M580 -18l-29 -248h-78q-81 0 -143.5 15.5t-100.5 42.5t-63.5 63.5t-33.5 78t-10.5 86.5t5.5 89l43 354q9 73 -19.5 103t-91.5 30h-45l31 244h45q64 0 99 30t44 103l43 352q8 59 22 107t45.5 100t77 87t120.5 58t172 23h78l-29 -248h-60q-140 0 -155 -133l-47 -369
q-10 -79 -50.5 -142t-109.5 -91q61 -28 86.5 -90.5t17.5 -141.5l-47 -370q-8 -73 25 -103t98 -30h60z" />
    <glyph glyph-name="bar" unicode="|" horiz-adv-x="636" 
d="M582 1700l-240 -1966h-276l239 1966h277z" />
    <glyph glyph-name="braceright" unicode="}" horiz-adv-x="694" 
d="M184 1452h-61l29 248h77q398 0 349 -375l-43 -354q-9 -73 18.5 -103t89.5 -30h45l-31 -244h-45q-62 0 -97 -30t-44 -103l-43 -352q-8 -59 -22 -107t-45.5 -100t-77.5 -87t-121 -58t-172 -23h-76l27 248h61q139 0 154 133l45 368q9 79 50.5 142.5t110.5 91.5
q-62 28 -88 90.5t-16 140.5l47 371q8 73 -24.5 103t-96.5 30z" />
    <glyph glyph-name="asciitilde" unicode="~" horiz-adv-x="1046" 
d="M899 815l98 -149q-7 -13 -29.5 -35.5t-58.5 -50t-91 -47t-113 -19.5q-63 0 -119 17.5t-89.5 39t-79.5 39t-93 17.5q-38 0 -76.5 -17t-54 -29t-25.5 -22l-98 148q8 14 30 36.5t58.5 49.5t91 46t112.5 19q63 0 119 -17t89.5 -38t79.5 -38t93 -17q38 0 76 16t56.5 30
t23.5 21z" />
    <glyph glyph-name="nbspace" unicode="&#xa0;" horiz-adv-x="342" 
 />
    <glyph glyph-name="exclamdown" unicode="&#xa1;" horiz-adv-x="559" 
d="M473 1085l-35 -282h-284l34 282h285zM299 -410h-305l174 1026h209z" />
    <glyph glyph-name="cent" unicode="&#xa2;" horiz-adv-x="933" 
d="M547 1118q-46 0 -82.5 -25t-58.5 -69t-37.5 -92.5t-22.5 -108t-9.5 -103t-2.5 -87.5q0 -101 31.5 -144t99.5 -43q76 0 105.5 35.5t37.5 112.5l248 -88q-10 -54 -26.5 -95.5t-45.5 -78.5t-69.5 -62t-100.5 -40.5t-137 -18.5h-16l-90 -211h-240l105 244q-88 38 -129 125
t-41 233q0 716 471 750h18l90 213h240l-105 -240q150 -65 144 -262l-271 -92q4 31 1 58t-12 47t-33 31t-62 11z" />
    <glyph glyph-name="sterling" unicode="&#xa3;" horiz-adv-x="1122" 
d="M756 1587q97 0 165 -15t109 -44.5t63 -73t26 -100t-1 -125.5l-280 -94q9 77 7.5 127t-29 74t-89.5 24q-46 0 -76 -12.5t-47.5 -43.5t-26.5 -68t-16 -101l-24 -211h348l-29 -226h-348l-55 -450h551l-29 -248h-975l29 248h153l56 450h-154l29 226h151l31 245q11 88 27 148
t48 115t80.5 86.5t124.5 50t181 18.5z" />
    <glyph glyph-name="currency" unicode="&#xa4;" horiz-adv-x="1628" 
d="M815 428q161 0 251.5 88.5t90.5 265.5t-90.5 266t-251.5 89q-162 0 -252 -89t-90 -266t89.5 -265.5t252.5 -88.5zM72 231l209 207q-93 145 -93 344t93 344l-209 207l180 180l213 -213q150 89 350 89q197 0 350 -89l211 213l180 -180l-208 -207q92 -143 92 -344t-92 -344
l208 -207l-180 -180l-213 213q-148 -88 -348 -88q-202 0 -350 88l-213 -213z" />
    <glyph glyph-name="yen" unicode="&#xa5;" horiz-adv-x="1118" 
d="M578 821l317 744h287l-394 -801h228l-21 -176h-293l-26 -58l-6 -57h311l-23 -176h-309l-33 -297h-278l39 297h-311l22 176h311l9 57l-15 58h-291l21 176h227l-196 801h286z" />
    <glyph glyph-name="brokenbar" unicode="&#xa6;" horiz-adv-x="667" 
d="M471 627l-109 -893h-286l108 893h287zM602 1700l-108 -893h-287l108 893h287z" />
    <glyph glyph-name="section" unicode="&#xa7;" horiz-adv-x="1056" 
d="M678 1620q203 0 282.5 -78.5t69.5 -279.5l-278 -95q12 104 3 145q-17 81 -106 81q-74 0 -117 -59.5t-43 -172.5q0 -66 34.5 -101.5t115.5 -47.5t136.5 -30t103 -51t71 -88.5t23.5 -133.5q0 -341 -244 -426q56 -20 82.5 -84t26.5 -146q0 -241 -125.5 -363t-354.5 -122
q-198 0 -284 82t-68 276l279 94q-12 -104 -3 -144q18 -81 107 -81q73 0 116.5 59.5t43.5 170.5q0 66 -35.5 102.5t-116.5 48.5q-80 11 -136 29t-102.5 51.5t-69.5 89t-23 133.5q0 343 243 426q-56 20 -83 84.5t-27 145.5q0 241 125 363t354 122zM492 408q96 0 145 57.5
t49 183.5q0 72 -34.5 101.5t-106.5 29.5q-97 0 -146 -57.5t-49 -183.5q0 -72 35 -101.5t107 -29.5z" />
    <glyph glyph-name="dieresis" unicode="&#xa8;" horiz-adv-x="1269" 
d="M672 1569l-35 -281h-285l35 281h285zM1104 1569l-35 -281h-285l35 281h285z" />
    <glyph glyph-name="copyright" unicode="&#xa9;" horiz-adv-x="1884" 
d="M123 698q0 138 47.5 275.5t135 253.5t202 206.5t258 141.5t293.5 51q207 0 375 -95.5t262 -261t94 -368.5q0 -184 -77.5 -356.5t-205.5 -297.5t-299.5 -200.5t-351.5 -75.5q-208 0 -376.5 96t-262.5 262t-94 369zM1180 930l284 96q-7 58 -24 105t-49.5 89t-80.5 70.5
t-120 45t-164 16.5q-266 0 -429 -174t-163 -486q0 -217 118 -331.5t337 -114.5q93 0 170 17t132.5 46t99 72t71.5 90.5t49 106.5l-262 90q-31 -78 -78 -116t-137 -38q-213 0 -213 221q0 169 74.5 258.5t195.5 89.5q100 0 139.5 -36.5t49.5 -116.5z" />
    <glyph glyph-name="ordfeminine" unicode="&#xaa;" horiz-adv-x="876" 
d="M864 1378l-45 -360l-20 -219h-209l-2 90q-76 -119 -236 -119q-229 0 -229 301q0 266 93.5 410.5t242.5 144.5q158 0 207 -119l22 90h209zM510 1438q-50 0 -85 -47.5t-51 -121.5t-16 -165q0 -82 25.5 -114t69.5 -32q74 0 135 74l41 332q-45 74 -119 74z" />
    <glyph glyph-name="guillemotleft" unicode="&#xab;" horiz-adv-x="1097" 
d="M508 483l-27 -225l-389 303l21 168l462 303l-26 -225l-209 -162zM950 483l-26 -225l-389 303l20 168l463 303l-27 -225l-209 -162z" />
    <glyph glyph-name="logicalnot" unicode="&#xac;" horiz-adv-x="1474" 
d="M1016 426v471h-832v274h1106v-745h-274z" />
    <glyph glyph-name="uni00AD" unicode="&#xad;" horiz-adv-x="823" 
d="M694 559h-594l31 254h594z" />
    <glyph glyph-name="registered" unicode="&#xae;" horiz-adv-x="1884" 
d="M731 274l47 388h174l144 -388h266l-176 420q219 81 219 353q0 145 -89.5 210.5t-234.5 65.5h-465l-129 -1049h244zM1038 901h-229l20 182h230q92 0 92 -71q0 -111 -113 -111zM123 698q0 138 47.5 275.5t135 253.5t202 206.5t258 141.5t293.5 51q207 0 375 -95.5t262 -261
t94 -368.5q0 -184 -77.5 -356.5t-205.5 -297.5t-299.5 -200.5t-351.5 -75.5q-208 0 -376.5 96t-262.5 262t-94 369z" />
    <glyph glyph-name="macron" unicode="&#xaf;" horiz-adv-x="1269" 
d="M473 1313l31 252h479l-31 -252h-479z" />
    <glyph glyph-name="degree" unicode="&#xb0;" horiz-adv-x="993" 
d="M498 1036q87 0 136.5 45.5t49.5 135.5q0 91 -49 135.5t-137 44.5q-89 0 -139 -44.5t-50 -135.5q0 -90 50 -135.5t139 -45.5zM498 840q-178 0 -288 96t-110 281t109.5 280.5t288.5 95.5q177 0 286 -95.5t109 -280.5t-109 -281t-286 -96z" />
    <glyph glyph-name="plusminus" unicode="&#xb1;" horiz-adv-x="1474" 
d="M600 655v211h-416v275h416v211h274v-211h416v-275h-416v-211h-274zM1290 242h-1106v274h1106v-274z" />
    <glyph glyph-name="twosuperior" unicode="&#xb2;" horiz-adv-x="702" 
d="M449 1436q-37 0 -56 -30t-28 -108l-191 66q14 77 39.5 121t87 70t166.5 26q122 0 178.5 -44.5t56.5 -137.5q0 -67 -10.5 -110t-43 -82t-73.5 -67.5t-122 -74.5q-84 -48 -109 -83.5t-33 -102.5h340l-18 -148h-549q8 62 12.5 96.5t13 76t16.5 62.5t23 49t31.5 43.5t44 38
t58 40.5t75.5 43q89 48 117.5 85.5t28.5 108.5q0 33 -12.5 47.5t-42.5 14.5z" />
    <glyph glyph-name="threesuperior" unicode="&#xb3;" horiz-adv-x="700" 
d="M373 864q98 0 98 142q0 48 -18.5 63.5t-61.5 15.5h-69l18 148h72q35 0 55 30.5t20 112.5q0 34 -12 47t-43 13q-41 0 -58 -27.5t-28 -105.5l-180 61q23 114 85.5 165.5t201.5 51.5q124 0 179.5 -46t55.5 -163q0 -162 -119 -209q50 -13 75.5 -49.5t25.5 -114.5
q0 -132 -73.5 -206t-250.5 -74q-48 0 -85 5.5t-70 20t-53 39t-30 62.5t-6 90l203 70q-4 -33 -5 -64.5t17 -54.5t56 -23z" />
    <glyph glyph-name="acute" unicode="&#xb4;" horiz-adv-x="1269" 
d="M705 1638h303l-179 -426h-272z" />
    <glyph glyph-name="mu" unicode="&#xb5;" 
d="M614 0v109q-48 -64 -126.5 -98t-155.5 -34q-10 0 -29.5 1.5t-28.5 1.5l-6 -62l-41 -328h-268l80 654l4 32l18 146l82 663h269l-95 -753q-12 -117 97 -117q114 0 202 102l95 768h270l-100 -802l-27 -283h-240z" />
    <glyph glyph-name="paragraph" unicode="&#xb6;" horiz-adv-x="1062" 
d="M100 950q0 647 500 647h461l-195 -1597h-276l164 1350h-74l-164 -1350h-74l70 571h-43q-84 0 -147 17t-115 57.5t-79.5 117t-27.5 187.5zM383 983q0 -90 33 -127t104 -37h23l63 531h-22q-62 0 -104.5 -32t-69.5 -116t-27 -219z" />
    <glyph glyph-name="periodcentered" unicode="&#xb7;" horiz-adv-x="591" 
d="M467 836l-37 -295h-299l37 295h299z" />
    <glyph glyph-name="cedilla" unicode="&#xb8;" horiz-adv-x="1269" 
d="M453 25h149l-39 -99q224 -45 193 -194q-18 -85 -95 -127.5t-184 -42.5q-132 0 -227 43l57 125q50 -27 105 -33q121 -11 129 61q4 40 -42.5 62t-125.5 30z" />
    <glyph glyph-name="onesuperior" unicode="&#xb9;" horiz-adv-x="669" 
d="M606 731h-502l19 148h151l58 464q-62 -54 -172 -79l18 168q65 17 125.5 58.5t97.5 90.5h156l-88 -702h156z" />
    <glyph glyph-name="ordmasculine" unicode="&#xba;" horiz-adv-x="854" 
d="M461 954q174 0 174 338q0 85 -28 117.5t-87 32.5q-172 0 -172 -338q0 -85 27.5 -117.5t85.5 -32.5zM438 770q-166 0 -240.5 70.5t-74.5 232.5q0 280 101.5 416.5t318.5 136.5q167 0 241 -70.5t74 -232.5q0 -280 -101.5 -416.5t-318.5 -136.5z" />
    <glyph glyph-name="guillemotright" unicode="&#xbb;" horiz-adv-x="1097" 
d="M514 258l27 225l211 162l-170 162l26 225l389 -303l-20 -168zM72 258l26 225l209 162l-168 162l27 225l389 -303l-20 -168z" />
    <glyph glyph-name="onequarter" unicode="&#xbc;" horiz-adv-x="1642" 
d="M580 735h-500l18 150h152l57 463q-66 -54 -174 -78l21 168q65 17 125.5 58t97.5 89h155l-88 -700h154zM256 0l991 1565h211l-991 -1565h-211zM1520 182h-80l-23 -182h-190l22 182h-303l15 127l337 541h224l-66 -520h80zM1266 330l51 317l-180 -321z" />
    <glyph glyph-name="onehalf" unicode="&#xbd;" horiz-adv-x="1744" 
d="M580 735h-500l18 150h152l57 463q-66 -54 -174 -78l21 168q65 17 125.5 58t97.5 89h155l-88 -700h154zM256 0l991 1565h211l-991 -1565h-211zM1403 705q-38 0 -56.5 -29t-27.5 -109l-191 66q9 58 25 95t48.5 66.5t86 42.5t133.5 13q122 0 179 -43.5t57 -136.5
q0 -54 -8.5 -92.5t-23 -68.5t-48 -59t-69.5 -53t-101 -61q-85 -50 -110 -86t-31 -103h338l-19 -147h-549q11 82 17.5 124.5t20.5 90t28.5 70.5t45.5 54.5t67 53.5t96 56q91 50 119 86.5t28 107.5q0 33 -12.5 47.5t-42.5 14.5z" />
    <glyph glyph-name="threequarters" unicode="&#xbe;" horiz-adv-x="1673" 
d="M346 868q100 0 100 142q0 49 -18.5 65.5t-60.5 16.5h-72l20 147h72q36 0 56 30.5t20 112.5q0 34 -12.5 47t-44.5 13q-40 0 -57.5 -28t-26.5 -105l-181 61q23 114 85.5 164.5t201.5 50.5q125 0 180.5 -45.5t55.5 -161.5q0 -162 -119 -209q50 -13 74 -49t24 -116
q0 -63 -15.5 -111t-51 -87t-99.5 -60t-155 -21q-61 0 -105 9.5t-79 32.5t-50.5 66.5t-9.5 106.5l201 72q-3 -33 -4 -65t16.5 -55.5t54.5 -23.5zM287 0l991 1565h211l-991 -1565h-211zM1548 182h-78l-24 -182h-191l25 182h-305l16 127l336 541h225l-65 -520h80zM1296 330
l52 317l-181 -321z" />
    <glyph glyph-name="questiondown" unicode="&#xbf;" horiz-adv-x="1003" 
d="M426 614h195q30 -92 30 -161q0 -107 -51.5 -171t-183.5 -128q-85 -42 -122.5 -90t-37.5 -130q0 -120 137 -120q96 0 141 56t64 198l252 -88q-23 -143 -75.5 -231t-152.5 -134.5t-257 -46.5q-206 0 -302 72.5t-96 230.5q1 88 20 157t42.5 110t74.5 81.5t81.5 57.5t99.5 50
q9 5 14 7q82 40 108.5 79.5t26.5 112.5q0 22 -8 88zM397 801l35 284h289l-37 -284h-287z" />
    <glyph glyph-name="Agrave" unicode="&#xc0;" horiz-adv-x="1044" 
d="M428 1612h418l82 -1612h-281l-10 291h-326l-78 -291h-280zM606 1364l-231 -844h256zM444 2109h304l40 -426h-272z" />
    <glyph glyph-name="Aacute" unicode="&#xc1;" horiz-adv-x="1044" 
d="M428 1612h418l82 -1612h-281l-10 291h-326l-78 -291h-280zM606 1364l-231 -844h256zM649 2109h303l-178 -426h-272z" />
    <glyph glyph-name="Acircumflex" unicode="&#xc2;" horiz-adv-x="1044" 
d="M428 1612h418l82 -1612h-281l-10 291h-326l-78 -291h-280zM606 1364l-231 -844h256zM524 1683h-221l244 426h303l137 -426h-221l-92 232z" />
    <glyph glyph-name="Atilde" unicode="&#xc3;" horiz-adv-x="1044" 
d="M428 1612h418l82 -1612h-281l-10 291h-326l-78 -291h-280zM606 1364l-231 -844h256zM891 2052l188 -22q-28 -156 -94 -245.5t-176 -88.5q-44 0 -81 15.5t-62.5 37.5t-47 44t-44 37.5t-44.5 16.5q-11 0 -20.5 -3.5t-16.5 -8t-13 -13.5t-9.5 -15.5t-7 -18.5t-4.5 -17
t-3.5 -16t-2.5 -12l-191 22q65 337 270 334q43 0 80 -15.5t62.5 -37.5t47 -44.5t43.5 -38t44 -15.5q15 0 27.5 6t20 13t14.5 22t9 22t6 24z" />
    <glyph glyph-name="Adieresis" unicode="&#xc4;" horiz-adv-x="1044" 
d="M428 1612h418l82 -1612h-281l-10 291h-326l-78 -291h-280zM606 1364l-231 -844h256zM616 2044l-36 -293h-295l37 293h294zM1059 2044l-37 -293h-295l37 293h295z" />
    <glyph glyph-name="Aring" unicode="&#xc5;" horiz-adv-x="1044" 
d="M428 1612h418l82 -1612h-281l-10 291h-326l-78 -291h-280zM606 1364l-231 -844h256zM430 1896q14 108 86.5 175t185.5 67t169 -67t42 -175q-12 -108 -84.5 -174.5t-185.5 -66.5t-169 66.5t-44 174.5zM764 1896q6 46 -15 70.5t-65 24.5t-71 -24.5t-33 -70.5q-9 -94 82 -94
q44 0 71 24t31 70z" />
    <glyph glyph-name="AE" unicode="&#xc6;" horiz-adv-x="1495" 
d="M586 1597h925l-30 -247h-504l-14 -410h389l-31 -246h-369l-16 -446h438l-28 -248h-695l17 291h-334l-109 -291h-280zM727 1341l-307 -821h260z" />
    <glyph glyph-name="Ccedilla" unicode="&#xc7;" horiz-adv-x="1107" 
d="M659 1378q-76 0 -136 -78.5t-95.5 -206.5t-53.5 -276.5t-18 -302.5q0 -159 36.5 -227t123.5 -68q112 0 159 60.5t70 230.5l261 -90q-36 -226 -136.5 -328t-316.5 -112l-21 -54q224 -45 193 -194q-18 -85 -95 -127.5t-184 -42.5q-132 0 -227 43l57 125q50 -27 105 -33
q121 -11 129 61q4 40 -42.5 62t-125.5 30l59 134q-111 14 -180.5 68.5t-106 167t-36.5 290.5q0 119 7 225.5t25.5 220.5t48 208.5t78 181t111.5 145.5t151.5 94t196.5 35q241 0 332.5 -100t71.5 -338l-283 -95q4 36 5.5 58t1.5 56.5t-4.5 56t-16 47t-29.5 39.5t-47 24
t-68 10z" />
    <glyph glyph-name="Egrave" unicode="&#xc8;" horiz-adv-x="964" 
d="M223 1597h758l-31 -247h-481l-49 -410h401l-30 -246h-402l-55 -446h510l-29 -248h-786zM426 2109h303l41 -426h-272z" />
    <glyph glyph-name="Eacute" unicode="&#xc9;" horiz-adv-x="964" 
d="M223 1597h758l-31 -247h-481l-49 -410h401l-30 -246h-402l-55 -446h510l-29 -248h-786zM631 2109h303l-178 -426h-273z" />
    <glyph glyph-name="Ecircumflex" unicode="&#xca;" horiz-adv-x="964" 
d="M223 1597h758l-31 -247h-481l-49 -410h401l-30 -246h-402l-55 -446h510l-29 -248h-786zM492 1683h-222l244 426h303l137 -426h-221l-92 232z" />
    <glyph glyph-name="Edieresis" unicode="&#xcb;" horiz-adv-x="964" 
d="M223 1597h758l-31 -247h-481l-49 -410h401l-30 -246h-402l-55 -446h510l-29 -248h-786zM594 2044l-37 -293h-295l37 293h295zM1036 2044l-37 -293h-294l36 293h295z" />
    <glyph glyph-name="Igrave" unicode="&#xcc;" horiz-adv-x="520" 
d="M512 1597l-195 -1597h-278l194 1597h279zM172 2109h303l41 -426h-272z" />
    <glyph glyph-name="Iacute" unicode="&#xcd;" horiz-adv-x="520" 
d="M512 1597l-195 -1597h-278l194 1597h279zM397 2109h303l-178 -426h-272z" />
    <glyph glyph-name="Icircumflex" unicode="&#xce;" horiz-adv-x="520" 
d="M512 1597l-195 -1597h-278l194 1597h279zM262 1683h-221l244 426h303l137 -426h-221l-92 232z" />
    <glyph glyph-name="Idieresis" unicode="&#xcf;" horiz-adv-x="520" 
d="M512 1597l-195 -1597h-278l194 1597h279zM375 2044l-37 -293h-295l37 293h295zM776 2044l-37 -293h-295l37 293h295z" />
    <glyph glyph-name="Eth" unicode="&#xd0;" horiz-adv-x="1251" 
d="M526 0h-411l84 694h-133l30 246h133l80 657h404q265 0 378 -115.5t113 -400.5q0 -206 -22 -370t-71.5 -299.5t-127 -225t-192.5 -138t-265 -48.5zM424 248h133q122 0 206 104.5t123.5 285.5t39.5 429q0 154 -51.5 218.5t-182.5 64.5h-133l-51 -410h225l-31 -246h-225z
" />
    <glyph glyph-name="Ntilde" unicode="&#xd1;" horiz-adv-x="1157" 
d="M530 1597l156 -657l88 -399l43 387l82 669h258l-194 -1597h-308l-155 657l-86 400l-43 -387l-80 -670h-262l194 1597h307zM946 2052l189 -22q-28 -155 -94.5 -245t-176.5 -89q-44 0 -81 15.5t-62 37.5t-46.5 44t-44 37.5t-44.5 16.5q-10 0 -18.5 -2t-15.5 -7.5t-12 -10.5
t-9.5 -14l-7.5 -15t-6 -16t-4 -14.5t-3 -14t-2 -10.5l-191 22q65 337 271 334q43 0 80 -15.5t62 -37.5t46.5 -44.5t43.5 -38t44 -15.5q15 0 27.5 6t20 13t14.5 22t9 22t7 24z" />
    <glyph glyph-name="Ograve" unicode="&#xd2;" horiz-adv-x="1134" 
d="M489 2109h304l41 -426h-273zM512 219q79 0 140 85.5t94.5 222t50 281.5t16.5 288q0 148 -36.5 215t-121.5 67q-80 0 -141.5 -85.5t-95 -221.5t-50 -281t-16.5 -288q0 -148 37.5 -215.5t122.5 -67.5zM481 -23q-221 0 -314 127.5t-93 393.5q0 130 8.5 246.5t28.5 231
t51.5 209.5t79.5 177t110.5 138t146.5 88t185 32q221 0 314.5 -127.5t93.5 -392.5q0 -153 -12 -286.5t-38.5 -263.5t-74 -231.5t-113 -179.5t-160.5 -120t-213 -42z" />
    <glyph glyph-name="Oacute" unicode="&#xd3;" horiz-adv-x="1134" 
d="M694 2109h303l-178 -426h-272zM512 219q79 0 140 85.5t94.5 222t50 281.5t16.5 288q0 148 -36.5 215t-121.5 67q-80 0 -141.5 -85.5t-95 -221.5t-50 -281t-16.5 -288q0 -148 37.5 -215.5t122.5 -67.5zM481 -23q-221 0 -314 127.5t-93 393.5q0 130 8.5 246.5t28.5 231
t51.5 209.5t79.5 177t110.5 138t146.5 88t185 32q221 0 314.5 -127.5t93.5 -392.5q0 -153 -12 -286.5t-38.5 -263.5t-74 -231.5t-113 -179.5t-160.5 -120t-213 -42z" />
    <glyph glyph-name="Ocircumflex" unicode="&#xd4;" horiz-adv-x="1134" 
d="M569 1683h-221l244 426h303l137 -426h-221l-92 232zM512 219q79 0 140 85.5t94.5 222t50 281.5t16.5 288q0 148 -36.5 215t-121.5 67q-80 0 -141.5 -85.5t-95 -221.5t-50 -281t-16.5 -288q0 -148 37.5 -215.5t122.5 -67.5zM481 -23q-221 0 -314 127.5t-93 393.5
q0 130 8.5 246.5t28.5 231t51.5 209.5t79.5 177t110.5 138t146.5 88t185 32q221 0 314.5 -127.5t93.5 -392.5q0 -153 -12 -286.5t-38.5 -263.5t-74 -231.5t-113 -179.5t-160.5 -120t-213 -42z" />
    <glyph glyph-name="Otilde" unicode="&#xd5;" horiz-adv-x="1134" 
d="M936 2052l188 -22q-28 -156 -94 -245.5t-176 -88.5q-44 0 -81 15.5t-62.5 37.5t-47 44t-44 37.5t-44.5 16.5q-11 0 -20.5 -3.5t-16.5 -8t-13 -13.5t-9.5 -15.5t-7 -18.5t-4.5 -17t-3.5 -16t-2.5 -12l-191 22q65 337 271 334q43 0 80 -15.5t62 -37.5t46.5 -44.5t43.5 -38
t44 -15.5q15 0 27.5 6t20 13t14.5 22t9 22t7 24zM512 219q79 0 140 85.5t94.5 222t50 281.5t16.5 288q0 148 -36.5 215t-121.5 67q-80 0 -141.5 -85.5t-95 -221.5t-50 -281t-16.5 -288q0 -148 37.5 -215.5t122.5 -67.5zM481 -23q-221 0 -314 127.5t-93 393.5
q0 130 8.5 246.5t28.5 231t51.5 209.5t79.5 177t110.5 138t146.5 88t185 32q221 0 314.5 -127.5t93.5 -392.5q0 -153 -12 -286.5t-38.5 -263.5t-74 -231.5t-113 -179.5t-160.5 -120t-213 -42z" />
    <glyph glyph-name="Odieresis" unicode="&#xd6;" horiz-adv-x="1134" 
d="M662 2044l-37 -293h-295l37 293h295zM1104 2044l-37 -293h-295l37 293h295zM512 219q79 0 140 85.5t94.5 222t50 281.5t16.5 288q0 148 -36.5 215t-121.5 67q-80 0 -141.5 -85.5t-95 -221.5t-50 -281t-16.5 -288q0 -148 37.5 -215.5t122.5 -67.5zM481 -23
q-221 0 -314 127.5t-93 393.5q0 130 8.5 246.5t28.5 231t51.5 209.5t79.5 177t110.5 138t146.5 88t185 32q221 0 314.5 -127.5t93.5 -392.5q0 -153 -12 -286.5t-38.5 -263.5t-74 -231.5t-113 -179.5t-160.5 -120t-213 -42z" />
    <glyph glyph-name="multiply" unicode="&#xd7;" horiz-adv-x="1474" 
d="M195 451l348 348l-348 348l194 194l348 -348l348 348l195 -194l-348 -348l348 -348l-195 -195l-348 348l-348 -348z" />
    <glyph glyph-name="Oslash" unicode="&#xd8;" horiz-adv-x="1136" 
d="M481 -23q-186 0 -286 95l-43 -72h-113l96 156q-61 122 -61 342q0 130 8.5 246.5t28.5 231t51.5 209.5t79.5 177t110.5 138t146.5 88t185 32q189 0 285 -96l45 73h114l-98 -159q62 -121 62 -338q0 -153 -12 -286.5t-38.5 -263.5t-74 -231.5t-113 -179.5t-160.5 -120
t-213 -42zM655 1378q-64 0 -116.5 -56.5t-86 -146t-57 -206t-33 -231t-10.5 -226.5l447 735q-30 131 -144 131zM512 219q78 0 138.5 83.5t94 216.5t50.5 276t18 286l-448 -731q29 -131 147 -131z" />
    <glyph glyph-name="Ugrave" unicode="&#xd9;" horiz-adv-x="1101" 
d="M496 217q55 0 90 11.5t56 39.5t31 63.5t17 94.5l144 1171h276l-145 -1183q-15 -118 -42.5 -195.5t-83 -136t-147 -85t-227.5 -26.5t-221.5 27.5t-127.5 82.5t-51.5 138.5t5.5 194.5l145 1183h279l-144 -1171q-10 -72 -3 -118.5t42 -68.5t107 -22zM471 2109h303l41 -426
h-272z" />
    <glyph glyph-name="Uacute" unicode="&#xda;" horiz-adv-x="1101" 
d="M496 217q55 0 90 11.5t56 39.5t31 63.5t17 94.5l144 1171h276l-145 -1183q-15 -118 -42.5 -195.5t-83 -136t-147 -85t-227.5 -26.5t-221.5 27.5t-127.5 82.5t-51.5 138.5t5.5 194.5l145 1183h279l-144 -1171q-10 -72 -3 -118.5t42 -68.5t107 -22zM676 2109h303l-178 -426
h-273z" />
    <glyph glyph-name="Ucircumflex" unicode="&#xdb;" horiz-adv-x="1101" 
d="M496 217q55 0 90 11.5t56 39.5t31 63.5t17 94.5l144 1171h276l-145 -1183q-15 -118 -42.5 -195.5t-83 -136t-147 -85t-227.5 -26.5t-221.5 27.5t-127.5 82.5t-51.5 138.5t5.5 194.5l145 1183h279l-144 -1171q-10 -72 -3 -118.5t42 -68.5t107 -22zM551 1683h-221l243 426
h304l137 -426h-221l-93 232z" />
    <glyph glyph-name="Udieresis" unicode="&#xdc;" horiz-adv-x="1101" 
d="M496 217q55 0 90 11.5t56 39.5t31 63.5t17 94.5l144 1171h276l-145 -1183q-15 -118 -42.5 -195.5t-83 -136t-147 -85t-227.5 -26.5t-221.5 27.5t-127.5 82.5t-51.5 138.5t5.5 194.5l145 1183h279l-144 -1171q-10 -72 -3 -118.5t42 -68.5t107 -22zM643 2044l-37 -293h-295
l37 293h295zM1085 2044l-36 -293h-295l37 293h294z" />
    <glyph glyph-name="Yacute" unicode="&#xdd;" horiz-adv-x="1056" 
d="M549 842l323 755h285l-508 -1046l-63 -551h-277l70 551l-254 1046h285zM655 2109h303l-178 -426h-272z" />
    <glyph glyph-name="Thorn" unicode="&#xde;" horiz-adv-x="1040" 
d="M506 1597l-35 -286h160q84 0 148 -17.5t117 -59t81.5 -118.5t28.5 -188q0 -99 -14.5 -187.5t-50 -173.5t-90.5 -146t-142 -98.5t-197 -37.5h-166l-35 -285h-278l194 1597h279zM375 532h145q96 0 149.5 83t53.5 280q0 91 -33 129.5t-104 38.5h-146z" />
    <glyph glyph-name="germandbls" unicode="&#xdf;" horiz-adv-x="1280" 
d="M928 997q-80 -44 -108 -70q-52 -49 -52 -120q0 -52 31.5 -79t109.5 -46q150 -37 214.5 -97.5t64.5 -181.5q0 -426 -459 -426q-79 0 -137.5 12t-106 41.5t-67.5 86t-10 137.5l247 86q-3 -41 -2 -76t26 -58.5t73 -23.5q141 0 141 158q0 57 -31.5 85t-103.5 46
q-137 31 -203 92.5t-66 179.5q0 64 13 115t32 85t52.5 63.5t63.5 47.5t75 40q36 16 56 26.5t44.5 28t37 35.5t21.5 44.5t9 59.5q0 69 -51.5 105.5t-149.5 36.5q-230 0 -252 -187l-202 -1653h-271l205 1663q26 206 151.5 307t385.5 101q434 0 434 -305q0 -134 -52.5 -216.5
t-162.5 -142.5z" />
    <glyph glyph-name="agrave" unicode="&#xe0;" horiz-adv-x="1038" 
d="M356 1638h303l41 -426h-272zM621 319l55 447q-68 104 -160 104q-105 0 -155 -126.5t-50 -354.5q0 -93 28 -133.5t95 -40.5q96 0 187 104zM948 803l-63 -520l-27 -283h-242v109q-57 -67 -125 -99.5t-159 -32.5q-150 0 -224.5 93t-74.5 290q0 350 116.5 549t321.5 199
q91 0 151 -32.5t101 -98.5l27 108h241z" />
    <glyph glyph-name="aacute" unicode="&#xe1;" horiz-adv-x="1038" 
d="M561 1638h303l-178 -426h-272zM621 319l55 447q-68 104 -160 104q-105 0 -155 -126.5t-50 -354.5q0 -93 28 -133.5t95 -40.5q96 0 187 104zM948 803l-63 -520l-27 -283h-242v109q-57 -67 -125 -99.5t-159 -32.5q-150 0 -224.5 93t-74.5 290q0 350 116.5 549t321.5 199
q91 0 151 -32.5t101 -98.5l27 108h241z" />
    <glyph glyph-name="acircumflex" unicode="&#xe2;" horiz-adv-x="1038" 
d="M436 1212h-221l244 426h303l137 -426h-221l-92 232zM621 319l55 447q-68 104 -160 104q-105 0 -155 -126.5t-50 -354.5q0 -93 28 -133.5t95 -40.5q96 0 187 104zM948 803l-63 -520l-27 -283h-242v109q-57 -67 -125 -99.5t-159 -32.5q-150 0 -224.5 93t-74.5 290
q0 350 116.5 549t321.5 199q91 0 151 -32.5t101 -98.5l27 108h241z" />
    <glyph glyph-name="atilde" unicode="&#xe3;" horiz-adv-x="1038" 
d="M801 1581l190 -22q-65 -337 -270 -334q-44 0 -81 15.5t-62.5 37.5t-47 44t-44 37.5t-44.5 16.5q-61 2 -77 -104l-191 22q65 337 270 334q43 0 80 -15.5t62.5 -38t47 -44.5t43.5 -37.5t44 -15.5q21 -1 36 9t23.5 27.5t12.5 31.5t7 30q1 4 1 6zM621 319l55 447
q-68 104 -160 104q-105 0 -155 -126.5t-50 -354.5q0 -93 28 -133.5t95 -40.5q96 0 187 104zM948 803l-63 -520l-27 -283h-242v109q-57 -67 -125 -99.5t-159 -32.5q-150 0 -224.5 93t-74.5 290q0 350 116.5 549t321.5 199q91 0 151 -32.5t101 -98.5l27 108h241z" />
    <glyph glyph-name="adieresis" unicode="&#xe4;" horiz-adv-x="1038" 
d="M528 1569l-34 -281h-285l35 281h284zM961 1569l-35 -281h-285l35 281h285zM621 319l55 447q-68 104 -160 104q-105 0 -155 -126.5t-50 -354.5q0 -93 28 -133.5t95 -40.5q96 0 187 104zM948 803l-63 -520l-27 -283h-242v109q-57 -67 -125 -99.5t-159 -32.5
q-150 0 -224.5 93t-74.5 290q0 350 116.5 549t321.5 199q91 0 151 -32.5t101 -98.5l27 108h241z" />
    <glyph glyph-name="aring" unicode="&#xe5;" horiz-adv-x="1038" 
d="M621 319l55 447q-68 104 -160 104q-105 0 -155 -126.5t-50 -354.5q0 -93 28 -133.5t95 -40.5q96 0 187 104zM948 803l-63 -520l-27 -283h-242v109q-57 -67 -125 -99.5t-159 -32.5q-150 0 -224.5 93t-74.5 290q0 350 116.5 549t321.5 199q91 0 151 -32.5t101 -98.5l27 108
h241zM584 1331q48 0 76 30t28 83q0 76 -84 76q-48 0 -75 -29.5t-27 -83.5q0 -76 82 -76zM565 1184q-102 0 -158.5 54.5t-56.5 147.5q0 121 76 201t199 80q102 0 157.5 -55t55.5 -148q0 -121 -75.5 -200.5t-197.5 -79.5z" />
    <glyph glyph-name="ae" unicode="&#xe6;" horiz-adv-x="1507" 
d="M1421 461h-563q-10 -54 -10 -117q0 -77 27.5 -114t91.5 -37q71 0 106 35t43 108l262 -92q-13 -63 -39.5 -109t-75 -83t-127.5 -56t-188 -19q-232 0 -311 129q-157 -129 -340 -129q-148 0 -218.5 72.5t-70.5 198.5q0 199 111.5 290t345.5 91h133l20 155q17 119 -102 119
q-64 0 -96.5 -36t-42.5 -124l-260 91q26 139 121.5 206.5t306.5 67.5q202 0 262 -104q96 104 274 104q198 0 280.5 -91t82.5 -282q0 -96 -14 -194zM465 461q-182 0 -182 -160q0 -106 104 -106q111 0 184 104q0 6 -1 25t-1 32q0 6 6 105h-110zM1051 893q-80 0 -117.5 -59.5
t-56.5 -204.5h276q8 63 8 123q0 74 -25 107.5t-85 33.5z" />
    <glyph glyph-name="ccedilla" unicode="&#xe7;" horiz-adv-x="933" 
d="M518 874q-53 0 -93 -34t-62 -84.5t-36 -118.5t-18 -124t-4 -114q0 -104 31.5 -146t99.5 -42q73 0 104.5 44.5t43.5 133.5l247 -86q-25 -153 -107 -233t-265 -90l-21 -54q224 -45 193 -194q-18 -85 -95 -127.5t-184 -42.5q-132 0 -227 43l57 125q50 -27 105 -33
q121 -11 129 61q4 40 -42.5 62t-125.5 30l61 134q-145 20 -208.5 110t-63.5 273q0 128 14.5 234t50.5 202.5t93 162t146 104t206 38.5q180 0 267 -72.5t77 -247.5l-270 -92q4 32 2 63.5t-9.5 57t-31.5 41.5t-64 16z" />
    <glyph glyph-name="egrave" unicode="&#xe8;" horiz-adv-x="970" 
d="M350 1638h303l41 -426h-272zM319 446q-4 -29 -5.5 -51.5t-1.5 -54.5t6.5 -55.5t18 -45.5t34.5 -34t55 -12q76 0 112.5 34.5t45.5 108.5l258 -90q-13 -63 -39 -109t-74 -84t-127.5 -57t-189.5 -19q-208 0 -292.5 96t-84.5 306q0 377 128.5 553t381.5 176
q199 0 280.5 -91.5t81.5 -285.5q0 -88 -24 -285h-564zM516 893q-78 0 -115.5 -56.5t-56.5 -193.5h277q6 59 6 102q0 77 -25 112.5t-86 35.5z" />
    <glyph glyph-name="eacute" unicode="&#xe9;" horiz-adv-x="970" 
d="M555 1638h303l-178 -426h-272zM319 446q-4 -29 -5.5 -51.5t-1.5 -54.5t6.5 -55.5t18 -45.5t34.5 -34t55 -12q76 0 112.5 34.5t45.5 108.5l258 -90q-13 -63 -39 -109t-74 -84t-127.5 -57t-189.5 -19q-208 0 -292.5 96t-84.5 306q0 377 128.5 553t381.5 176
q199 0 280.5 -91.5t81.5 -285.5q0 -88 -24 -285h-564zM516 893q-78 0 -115.5 -56.5t-56.5 -193.5h277q6 59 6 102q0 77 -25 112.5t-86 35.5z" />
    <glyph glyph-name="ecircumflex" unicode="&#xea;" horiz-adv-x="970" 
d="M430 1212h-221l244 426h303l137 -426h-221l-92 232zM319 446q-4 -29 -5.5 -51.5t-1.5 -54.5t6.5 -55.5t18 -45.5t34.5 -34t55 -12q76 0 112.5 34.5t45.5 108.5l258 -90q-13 -63 -39 -109t-74 -84t-127.5 -57t-189.5 -19q-208 0 -292.5 96t-84.5 306q0 377 128.5 553
t381.5 176q199 0 280.5 -91.5t81.5 -285.5q0 -88 -24 -285h-564zM516 893q-78 0 -115.5 -56.5t-56.5 -193.5h277q6 59 6 102q0 77 -25 112.5t-86 35.5z" />
    <glyph glyph-name="edieresis" unicode="&#xeb;" horiz-adv-x="970" 
d="M522 1569l-35 -281h-284l35 281h284zM954 1569l-34 -281h-285l35 281h284zM319 446q-4 -29 -5.5 -51.5t-1.5 -54.5t6.5 -55.5t18 -45.5t34.5 -34t55 -12q76 0 112.5 34.5t45.5 108.5l258 -90q-13 -63 -39 -109t-74 -84t-127.5 -57t-189.5 -19q-208 0 -292.5 96t-84.5 306
q0 377 128.5 553t381.5 176q199 0 280.5 -91.5t81.5 -285.5q0 -88 -24 -285h-564zM516 893q-78 0 -115.5 -56.5t-56.5 -193.5h277q6 59 6 102q0 77 -25 112.5t-86 35.5z" />
    <glyph glyph-name="igrave" unicode="&#xec;" horiz-adv-x="473" 
d="M20 0l134 1085h268l-133 -1085h-269zM92 1638h303l41 -426h-272z" />
    <glyph glyph-name="iacute" unicode="&#xed;" horiz-adv-x="473" 
d="M20 0l134 1085h268l-133 -1085h-269zM313 1638h303l-178 -426h-272z" />
    <glyph glyph-name="icircumflex" unicode="&#xee;" horiz-adv-x="473" 
d="M20 0l134 1085h268l-133 -1085h-269zM180 1212h-221l244 426h303l137 -426h-221l-92 232z" />
    <glyph glyph-name="idieresis" unicode="&#xef;" horiz-adv-x="473" 
d="M20 0l134 1085h268l-133 -1085h-269zM293 1569l-35 -281h-285l35 281h285zM684 1569l-35 -281h-284l34 281h285z" />
    <glyph glyph-name="eth" unicode="&#xf0;" horiz-adv-x="989" 
d="M211 1184l22 180l242 82q-98 107 -250 192h342q70 -50 131 -114l289 98l-22 -180l-166 -58q127 -227 127 -602q0 -146 -12.5 -259.5t-46.5 -219.5t-90.5 -175t-149 -110t-217.5 -41q-196 0 -284.5 85t-88.5 296q0 67 5 132.5t19 141.5t36 142t58 128.5t83 107t113.5 71.5
t146.5 27q121 0 180 -76q-26 148 -100 277zM438 213q40 0 73 19t54.5 49t37.5 73t24.5 84.5t13.5 91.5t6.5 85t1.5 73q0 103 -31.5 143.5t-97.5 40.5q-56 0 -97 -35.5t-62.5 -85.5t-34.5 -120.5t-16 -123t-3 -110.5q0 -103 31.5 -143.5t99.5 -40.5z" />
    <glyph glyph-name="ntilde" unicode="&#xf1;" 
d="M385 1085l-2 -108q70 65 149.5 98t186.5 33q272 0 235 -291l-98 -817h-268l92 754q12 116 -98 116q-118 0 -199 -102l-94 -768h-271l99 803l28 282h240zM825 1581l191 -22q-65 -337 -271 -334q-44 0 -81 15.5t-62 37.5t-46.5 44t-44 37.5t-44.5 16.5q-62 2 -78 -104
l-190 22q65 337 270 334q43 0 80 -15.5t62 -38t46.5 -44.5t43.5 -37.5t44 -15.5q21 -1 36 9t23.5 27.5t12.5 31.5t7 30q1 4 1 6z" />
    <glyph glyph-name="ograve" unicode="&#xf2;" horiz-adv-x="991" 
d="M358 1638h304l40 -426h-272zM438 213q55 0 96 36.5t62 87.5t34 121t16 119.5t3 100.5q0 105 -32 149.5t-99 44.5q-55 0 -96 -36.5t-62 -87.5t-34 -120.5t-16 -119t-3 -100.5q0 -106 32 -150.5t99 -44.5zM412 -23q-193 0 -284 92t-91 308q0 81 5 150.5t20 146t38.5 138
t62.5 118t91 95t126 61t165 22.5q193 0 285 -92.5t92 -308.5q0 -80 -5.5 -150t-20 -146t-38.5 -137.5t-63.5 -118t-91.5 -95t-126 -61t-165 -22.5z" />
    <glyph glyph-name="oacute" unicode="&#xf3;" horiz-adv-x="991" 
d="M563 1638h303l-178 -426h-272zM438 213q55 0 96 36.5t62 87.5t34 121t16 119.5t3 100.5q0 105 -32 149.5t-99 44.5q-55 0 -96 -36.5t-62 -87.5t-34 -120.5t-16 -119t-3 -100.5q0 -106 32 -150.5t99 -44.5zM412 -23q-193 0 -284 92t-91 308q0 81 5 150.5t20 146t38.5 138
t62.5 118t91 95t126 61t165 22.5q193 0 285 -92.5t92 -308.5q0 -80 -5.5 -150t-20 -146t-38.5 -137.5t-63.5 -118t-91.5 -95t-126 -61t-165 -22.5z" />
    <glyph glyph-name="ocircumflex" unicode="&#xf4;" horiz-adv-x="991" 
d="M438 1212h-221l244 426h303l137 -426h-221l-92 232zM438 213q55 0 96 36.5t62 87.5t34 121t16 119.5t3 100.5q0 105 -32 149.5t-99 44.5q-55 0 -96 -36.5t-62 -87.5t-34 -120.5t-16 -119t-3 -100.5q0 -106 32 -150.5t99 -44.5zM412 -23q-193 0 -284 92t-91 308
q0 81 5 150.5t20 146t38.5 138t62.5 118t91 95t126 61t165 22.5q193 0 285 -92.5t92 -308.5q0 -80 -5.5 -150t-20 -146t-38.5 -137.5t-63.5 -118t-91.5 -95t-126 -61t-165 -22.5z" />
    <glyph glyph-name="otilde" unicode="&#xf5;" horiz-adv-x="991" 
d="M803 1581l190 -22q-65 -337 -270 -334q-44 0 -81 15.5t-62.5 37.5t-47 44t-44 37.5t-44.5 16.5q-61 2 -77 -104l-191 22q65 337 270 334q43 0 80 -15.5t62.5 -38t47 -44.5t43.5 -37.5t44 -15.5q21 -1 36 9t23.5 27.5t12.5 31.5t7 30q1 4 1 6zM438 213q55 0 96 36.5
t62 87.5t34 121t16 119.5t3 100.5q0 105 -32 149.5t-99 44.5q-55 0 -96 -36.5t-62 -87.5t-34 -120.5t-16 -119t-3 -100.5q0 -106 32 -150.5t99 -44.5zM412 -23q-193 0 -284 92t-91 308q0 81 5 150.5t20 146t38.5 138t62.5 118t91 95t126 61t165 22.5q193 0 285 -92.5
t92 -308.5q0 -80 -5.5 -150t-20 -146t-38.5 -137.5t-63.5 -118t-91.5 -95t-126 -61t-165 -22.5z" />
    <glyph glyph-name="odieresis" unicode="&#xf6;" horiz-adv-x="991" 
d="M530 1569l-34 -281h-285l35 281h284zM963 1569l-35 -281h-285l35 281h285zM438 213q55 0 96 36.5t62 87.5t34 121t16 119.5t3 100.5q0 105 -32 149.5t-99 44.5q-55 0 -96 -36.5t-62 -87.5t-34 -120.5t-16 -119t-3 -100.5q0 -106 32 -150.5t99 -44.5zM412 -23
q-193 0 -284 92t-91 308q0 81 5 150.5t20 146t38.5 138t62.5 118t91 95t126 61t165 22.5q193 0 285 -92.5t92 -308.5q0 -80 -5.5 -150t-20 -146t-38.5 -137.5t-63.5 -118t-91.5 -95t-126 -61t-165 -22.5z" />
    <glyph glyph-name="divide" unicode="&#xf7;" horiz-adv-x="1474" 
d="M1290 662h-1106v274h1106v-274zM891 1352v-308h-307v308h307zM891 553v-307h-307v307h307z" />
    <glyph glyph-name="oslash" unicode="&#xf8;" horiz-adv-x="989" 
d="M412 -23q-173 0 -260 70l-35 -47h-111l88 113q-57 92 -57 264q0 81 5 150.5t20 146t38.5 138t62.5 118t91 95t126 61t165 22.5q167 0 260 -72l37 49h110l-88 -114q58 -94 58 -264q0 -80 -5.5 -150t-20 -146t-38.5 -137.5t-63.5 -118t-91.5 -95t-126 -61t-165 -22.5z
M307 408v-19l322 418q-32 65 -111 65q-55 0 -96 -36.5t-62 -87.5t-34 -120.5t-16 -119t-3 -100.5zM438 213q55 0 96 36.5t62 87.5t34 121t16 119.5t3 100.5v14l-321 -418q31 -61 110 -61z" />
    <glyph glyph-name="ugrave" unicode="&#xf9;" 
d="M614 0v109q-70 -66 -149 -99t-186 -33q-273 0 -236 293l100 815h269l-95 -753q-12 -117 97 -117q114 0 202 102l95 768h270l-100 -802l-27 -283h-240zM379 1638h303l41 -426h-272z" />
    <glyph glyph-name="uacute" unicode="&#xfa;" 
d="M614 0v109q-70 -66 -149 -99t-186 -33q-273 0 -236 293l100 815h269l-95 -753q-12 -117 97 -117q114 0 202 102l95 768h270l-100 -802l-27 -283h-240zM584 1638h303l-178 -426h-273z" />
    <glyph glyph-name="ucircumflex" unicode="&#xfb;" 
d="M614 0v109q-70 -66 -149 -99t-186 -33q-273 0 -236 293l100 815h269l-95 -753q-12 -117 97 -117q114 0 202 102l95 768h270l-100 -802l-27 -283h-240zM459 1212h-221l243 426h303l138 -426h-222l-92 232z" />
    <glyph glyph-name="udieresis" unicode="&#xfc;" 
d="M614 0v109q-70 -66 -149 -99t-186 -33q-273 0 -236 293l100 815h269l-95 -753q-12 -117 97 -117q114 0 202 102l95 768h270l-100 -802l-27 -283h-240zM551 1569l-35 -281h-285l35 281h285zM983 1569l-35 -281h-284l34 281h285z" />
    <glyph glyph-name="yacute" unicode="&#xfd;" horiz-adv-x="985" 
d="M446 305l271 780h287l-447 -1054l-203 -441h-303l209 406l-176 1089h285zM561 1638h303l-178 -426h-272z" />
    <glyph glyph-name="thorn" unicode="&#xfe;" horiz-adv-x="1038" 
d="M-33 -410l252 2048h273l-80 -641q96 111 258 111q150 0 223.5 -93t73.5 -290q0 -351 -115.5 -549.5t-321.5 -198.5q-87 0 -140 28t-89 83l-61 -498h-273zM328 319q68 -104 159 -104q104 0 153.5 127t49.5 354q0 92 -28 133t-95 41q-93 0 -184 -104z" />
    <glyph glyph-name="ydieresis" unicode="&#xff;" horiz-adv-x="985" 
d="M446 305l271 780h287l-447 -1054l-203 -441h-303l209 406l-176 1089h285zM528 1569l-34 -281h-285l35 281h284zM961 1569l-35 -281h-285l35 281h285z" />
    <glyph glyph-name="Amacron" unicode="&#x100;" horiz-adv-x="1044" 
d="M428 1612h418l82 -1612h-281l-10 291h-326l-78 -291h-280zM606 1364l-231 -844h256zM418 1784l33 252h479l-33 -252h-479z" />
    <glyph glyph-name="amacron" unicode="&#x101;" horiz-adv-x="1038" 
d="M330 1313l30 252h480l-31 -252h-479zM621 319l55 447q-68 104 -160 104q-105 0 -155 -126.5t-50 -354.5q0 -93 28 -133.5t95 -40.5q96 0 187 104zM948 803l-63 -520l-27 -283h-242v109q-57 -67 -125 -99.5t-159 -32.5q-150 0 -224.5 93t-74.5 290q0 350 116.5 549
t321.5 199q91 0 151 -32.5t101 -98.5l27 108h241z" />
    <glyph glyph-name="Abreve" unicode="&#x102;" horiz-adv-x="1044" 
d="M428 1612h418l82 -1612h-281l-10 291h-326l-78 -291h-280zM606 1364l-231 -844h256zM643 1667q-129 0 -197 53.5t-79.5 151.5t6.5 237h202q-14 -105 7 -155.5t92 -50.5q70 0 103 50t44 156h203q-12 -110 -35.5 -186.5t-66.5 -137t-112 -89.5t-167 -29z" />
    <glyph glyph-name="abreve" unicode="&#x103;" horiz-adv-x="1038" 
d="M555 1196q-129 0 -197 53.5t-79.5 151.5t6.5 237h202q-14 -106 6.5 -156t90.5 -50q71 0 104.5 50.5t44.5 155.5h203q-12 -110 -35.5 -186.5t-66.5 -137t-112 -89.5t-167 -29zM621 319l55 447q-68 104 -160 104q-105 0 -155 -126.5t-50 -354.5q0 -93 28 -133.5t95 -40.5
q96 0 187 104zM948 803l-63 -520l-27 -283h-242v109q-57 -67 -125 -99.5t-159 -32.5q-150 0 -224.5 93t-74.5 290q0 350 116.5 549t321.5 199q91 0 151 -32.5t101 -98.5l27 108h241z" />
    <glyph glyph-name="Aogonek" unicode="&#x104;" horiz-adv-x="1044" 
d="M428 1612h418l82 -1612q-94 -13 -157 -63.5t-66 -112.5q-2 -38 21 -57.5t71 -12.5q54 7 94 37l31 -178q-79 -51 -203 -51q-99 0 -158 44.5t-63 139.5q-11 157 147 274l-8 271h-326l-78 -291h-280zM606 1364l-231 -844h256z" />
    <glyph glyph-name="aogonek" unicode="&#x105;" horiz-adv-x="1038" 
d="M948 803l-63 -520l-27 -277l4 -6q-94 -13 -157 -63.5t-66 -112.5q-2 -38 21 -57.5t71 -12.5q54 7 94 37l31 -178q-79 -51 -203 -51q-99 0 -158 44.5t-63 139.5q-7 92 43.5 167t140.5 130v66q-57 -67 -125 -99.5t-159 -32.5q-150 0 -224.5 93t-74.5 290q0 350 116.5 549
t321.5 199q91 0 151 -32.5t101 -98.5l27 108h241zM621 319l55 447q-68 104 -160 104q-105 0 -155 -126.5t-50 -354.5q0 -93 28 -133.5t95 -40.5q96 0 187 104z" />
    <glyph glyph-name="Cacute" unicode="&#x106;" horiz-adv-x="1107" 
d="M700 2109h304l-179 -426h-272zM659 1378q-76 0 -136 -78.5t-95.5 -206.5t-53.5 -276.5t-18 -302.5q0 -159 36.5 -227t123.5 -68q112 0 159 60.5t70 230.5l261 -90q-19 -120 -52.5 -201t-93 -136.5t-148 -80.5t-216.5 -25q-85 0 -149.5 16t-116.5 53.5t-84.5 98.5t-50 152
t-17.5 213q0 119 7 225.5t25.5 220.5t48 208.5t78 181t111.5 145.5t151.5 94t196.5 35q241 0 332.5 -100t71.5 -338l-283 -95q4 36 5.5 58t1.5 56.5t-4.5 56t-16 47t-29.5 39.5t-47 24t-68 10z" />
    <glyph glyph-name="cacute" unicode="&#x107;" horiz-adv-x="933" 
d="M551 1638h303l-178 -426h-273zM518 874q-53 0 -93 -34t-62 -84.5t-36 -118.5t-18 -124t-4 -114q0 -104 31.5 -146t99.5 -42q73 0 104.5 44.5t43.5 133.5l247 -86q-13 -80 -38.5 -136.5t-73 -101t-124.5 -66.5t-187 -22q-198 0 -284.5 89.5t-86.5 300.5q0 128 14.5 234
t50.5 202.5t93 162t146 104t206 38.5q180 0 267 -72.5t77 -247.5l-270 -92q4 32 2 63.5t-9.5 57t-31.5 41.5t-64 16z" />
    <glyph glyph-name="Ccircumflex" unicode="&#x108;" horiz-adv-x="1107" 
d="M575 1683h-221l244 426h303l137 -426h-221l-92 232zM659 1378q-76 0 -136 -78.5t-95.5 -206.5t-53.5 -276.5t-18 -302.5q0 -159 36.5 -227t123.5 -68q112 0 159 60.5t70 230.5l261 -90q-19 -120 -52.5 -201t-93 -136.5t-148 -80.5t-216.5 -25q-85 0 -149.5 16
t-116.5 53.5t-84.5 98.5t-50 152t-17.5 213q0 119 7 225.5t25.5 220.5t48 208.5t78 181t111.5 145.5t151.5 94t196.5 35q241 0 332.5 -100t71.5 -338l-283 -95q4 36 5.5 58t1.5 56.5t-4.5 56t-16 47t-29.5 39.5t-47 24t-68 10z" />
    <glyph glyph-name="ccircumflex" unicode="&#x109;" horiz-adv-x="933" 
d="M426 1212h-221l244 426h303l137 -426h-221l-93 232zM518 874q-53 0 -93 -34t-62 -84.5t-36 -118.5t-18 -124t-4 -114q0 -104 31.5 -146t99.5 -42q73 0 104.5 44.5t43.5 133.5l247 -86q-13 -80 -38.5 -136.5t-73 -101t-124.5 -66.5t-187 -22q-198 0 -284.5 89.5
t-86.5 300.5q0 128 14.5 234t50.5 202.5t93 162t146 104t206 38.5q180 0 267 -72.5t77 -247.5l-270 -92q4 32 2 63.5t-9.5 57t-31.5 41.5t-64 16z" />
    <glyph glyph-name="Cdotaccent" unicode="&#x10a;" horiz-adv-x="1148" 
d="M909 2044l-37 -293h-294l36 293h295zM680 1378q-76 0 -136 -78.5t-95.5 -206.5t-53.5 -276.5t-18 -302.5q0 -159 36.5 -227t123.5 -68q112 0 159 60.5t70 230.5l260 -90q-19 -120 -52.5 -201t-93 -136.5t-148 -80.5t-216.5 -25q-85 0 -149.5 16t-116.5 53.5t-84.5 98.5
t-50 152t-17.5 213q0 119 7 225.5t25.5 220.5t48.5 208.5t78 181t111 145.5t152 94t197 35q241 0 332 -100t71 -338l-282 -95q4 36 5.5 58t1.5 56.5t-4.5 56t-16 47t-29.5 39.5t-47 24t-68 10z" />
    <glyph glyph-name="cdotaccent" unicode="&#x10b;" horiz-adv-x="933" 
d="M739 1573l-37 -293h-294l36 293h295zM518 874q-53 0 -93 -34t-62 -84.5t-36 -118.5t-18 -124t-4 -114q0 -104 31.5 -146t99.5 -42q73 0 104.5 44.5t43.5 133.5l247 -86q-13 -80 -38.5 -136.5t-73 -101t-124.5 -66.5t-187 -22q-198 0 -284.5 89.5t-86.5 300.5
q0 128 14.5 234t50.5 202.5t93 162t146 104t206 38.5q180 0 267 -72.5t77 -247.5l-270 -92q4 32 2 63.5t-9.5 57t-31.5 41.5t-64 16z" />
    <glyph glyph-name="Ccaron" unicode="&#x10c;" horiz-adv-x="1107" 
d="M874 2109h222l-246 -426h-307l-140 426h222l96 -229zM659 1378q-76 0 -136 -78.5t-95.5 -206.5t-53.5 -276.5t-18 -302.5q0 -159 36.5 -227t123.5 -68q112 0 159 60.5t70 230.5l261 -90q-19 -120 -52.5 -201t-93 -136.5t-148 -80.5t-216.5 -25q-85 0 -149.5 16
t-116.5 53.5t-84.5 98.5t-50 152t-17.5 213q0 119 7 225.5t25.5 220.5t48 208.5t78 181t111.5 145.5t151.5 94t196.5 35q241 0 332.5 -100t71.5 -338l-283 -95q4 36 5.5 58t1.5 56.5t-4.5 56t-16 47t-29.5 39.5t-47 24t-68 10z" />
    <glyph glyph-name="ccaron" unicode="&#x10d;" horiz-adv-x="933" 
d="M725 1638h221l-246 -426h-307l-139 426h221l96 -229zM518 874q-53 0 -93 -34t-62 -84.5t-36 -118.5t-18 -124t-4 -114q0 -104 31.5 -146t99.5 -42q73 0 104.5 44.5t43.5 133.5l247 -86q-13 -80 -38.5 -136.5t-73 -101t-124.5 -66.5t-187 -22q-198 0 -284.5 89.5
t-86.5 300.5q0 128 14.5 234t50.5 202.5t93 162t146 104t206 38.5q180 0 267 -72.5t77 -247.5l-270 -92q4 32 2 63.5t-9.5 57t-31.5 41.5t-64 16z" />
    <glyph glyph-name="Dcaron" unicode="&#x10e;" horiz-adv-x="1165" 
d="M803 2109h221l-246 -426h-307l-139 426h221l96 -229zM440 0h-411l194 1597h404q265 0 378 -115.5t113 -400.5q0 -206 -22 -370t-71.5 -299.5t-127 -225t-192.5 -138t-265 -48.5zM338 248h133q122 0 206 104.5t123.5 285.5t39.5 429q0 154 -51.5 218.5t-182.5 64.5h-133z
" />
    <glyph glyph-name="dcaron" unicode="&#x10f;" horiz-adv-x="1120" 
d="M1137 1638h245l-122 -426h-177zM475 1108q87 0 141.5 -28t92.5 -83l77 641h269l-166 -1355l-27 -283h-244v109q-57 -67 -124.5 -99.5t-157.5 -32.5q-150 0 -224.5 93t-74.5 290q0 352 115 550t323 198zM623 319l55 447q-68 104 -158 104q-105 0 -156 -126.5t-51 -352.5
q0 -93 29.5 -134.5t97.5 -41.5q92 0 183 104z" />
    <glyph glyph-name="Dcroat" unicode="&#x110;" horiz-adv-x="1251" 
d="M526 0h-411l84 694h-133l30 246h133l80 657h404q265 0 378 -115.5t113 -400.5q0 -206 -22 -370t-71.5 -299.5t-127 -225t-192.5 -138t-265 -48.5zM424 248h133q122 0 206 104.5t123.5 285.5t39.5 429q0 154 -51.5 218.5t-182.5 64.5h-133l-51 -410h225l-31 -246h-225z
" />
    <glyph glyph-name="dcroat" unicode="&#x111;" horiz-adv-x="1079" 
d="M551 1257l27 226h190l18 155h269l-21 -155h109l-27 -226h-108l-119 -974l-27 -283h-244v109q-57 -67 -124.5 -99.5t-157.5 -32.5q-150 0 -224.5 93t-74.5 290q0 352 115 550t323 198q87 0 141.5 -28t92.5 -83l30 260h-188zM623 319l55 447q-68 104 -158 104
q-105 0 -156 -126.5t-51 -352.5q0 -93 29.5 -134.5t97.5 -41.5q92 0 183 104z" />
    <glyph glyph-name="Emacron" unicode="&#x112;" horiz-adv-x="964" 
d="M223 1597h758l-31 -247h-481l-49 -410h401l-30 -246h-402l-55 -446h510l-29 -248h-786zM389 1784l33 252h479l-33 -252h-479z" />
    <glyph glyph-name="emacron" unicode="&#x113;" horiz-adv-x="970" 
d="M322 1313l30 252h479l-30 -252h-479zM319 446q-4 -29 -5.5 -51.5t-1.5 -54.5t6.5 -55.5t18 -45.5t34.5 -34t55 -12q76 0 112.5 34.5t45.5 108.5l258 -90q-13 -63 -39 -109t-74 -84t-127.5 -57t-189.5 -19q-208 0 -292.5 96t-84.5 306q0 377 128.5 553t381.5 176
q199 0 280.5 -91.5t81.5 -285.5q0 -88 -24 -285h-564zM516 893q-78 0 -115.5 -56.5t-56.5 -193.5h277q6 59 6 102q0 77 -25 112.5t-86 35.5z" />
    <glyph glyph-name="Ebreve" unicode="&#x114;" horiz-adv-x="964" 
d="M223 1597h758l-31 -247h-481l-49 -410h401l-30 -246h-402l-55 -446h510l-29 -248h-786zM614 1667q-129 0 -197 53.5t-79.5 151.5t6.5 237h203q-14 -105 7 -155.5t91 -50.5t103.5 50.5t44.5 155.5h202q-12 -110 -35.5 -186.5t-66.5 -137t-112 -89.5t-167 -29z" />
    <glyph glyph-name="ebreve" unicode="&#x115;" horiz-adv-x="970" 
d="M547 1196q-98 0 -160 30t-89.5 87t-33 139t11.5 186h203q-14 -106 6 -156t90 -50q71 0 105 50.5t45 155.5h203q-12 -110 -35.5 -186.5t-66.5 -137t-112 -89.5t-167 -29zM319 446q-4 -29 -5.5 -51.5t-1.5 -54.5t6.5 -55.5t18 -45.5t34.5 -34t55 -12q76 0 112.5 34.5
t45.5 108.5l258 -90q-13 -63 -39 -109t-74 -84t-127.5 -57t-189.5 -19q-208 0 -292.5 96t-84.5 306q0 377 128.5 553t381.5 176q199 0 280.5 -91.5t81.5 -285.5q0 -88 -24 -285h-564zM516 893q-78 0 -115.5 -56.5t-56.5 -193.5h277q6 59 6 102q0 77 -25 112.5t-86 35.5z" />
    <glyph glyph-name="Edotaccent" unicode="&#x116;" horiz-adv-x="964" 
d="M223 1597h758l-31 -247h-481l-49 -410h401l-30 -246h-402l-55 -446h510l-29 -248h-786zM819 2044l-37 -293h-295l37 293h295z" />
    <glyph glyph-name="edotaccent" unicode="&#x117;" horiz-adv-x="970" 
d="M741 1573l-36 -293h-295l36 293h295zM319 446q-4 -29 -5.5 -51.5t-1.5 -54.5t6.5 -55.5t18 -45.5t34.5 -34t55 -12q76 0 112.5 34.5t45.5 108.5l258 -90q-13 -63 -39 -109t-74 -84t-127.5 -57t-189.5 -19q-208 0 -292.5 96t-84.5 306q0 377 128.5 553t381.5 176
q199 0 280.5 -91.5t81.5 -285.5q0 -88 -24 -285h-564zM516 893q-78 0 -115.5 -56.5t-56.5 -193.5h277q6 59 6 102q0 77 -25 112.5t-86 35.5z" />
    <glyph glyph-name="Eogonek" unicode="&#x118;" horiz-adv-x="964" 
d="M223 1597h758l-31 -247h-481l-49 -410h401l-30 -246h-402l-55 -446h510l-29 -248q-94 -13 -157 -63.5t-66 -112.5q-2 -38 21 -57.5t71 -12.5q54 7 94 37l31 -178q-79 -51 -203 -51q-99 0 -158 44.5t-63 139.5q-11 141 123 254h-479z" />
    <glyph glyph-name="eogonek" unicode="&#x119;" horiz-adv-x="970" 
d="M319 446q-4 -29 -5.5 -51.5t-1.5 -54.5t6.5 -55.5t18 -45.5t34.5 -34t55 -12q76 0 112.5 34.5t45.5 108.5l258 -90q-22 -102 -81.5 -165.5t-182.5 -88.5q-75 -22 -125.5 -69t-51.5 -99q-2 -38 21 -57.5t72 -12.5q54 7 94 37l30 -178q-79 -51 -202 -51q-99 0 -158 44.5
t-63 139.5q-11 132 106 240q-145 23 -205.5 117.5t-60.5 275.5q0 377 128.5 553t381.5 176q199 0 280.5 -91.5t81.5 -285.5q0 -88 -24 -285h-564zM516 893q-78 0 -115.5 -56.5t-56.5 -193.5h277q6 59 6 102q0 77 -25 112.5t-86 35.5z" />
    <glyph glyph-name="Ecaron" unicode="&#x11a;" horiz-adv-x="964" 
d="M223 1597h758l-31 -247h-481l-49 -410h401l-30 -246h-402l-55 -446h510l-29 -248h-786zM805 2109h221l-246 -426h-307l-139 426h221l96 -229z" />
    <glyph glyph-name="ecaron" unicode="&#x11b;" horiz-adv-x="970" 
d="M727 1638h221l-246 -426h-307l-139 426h221l96 -229zM319 446q-4 -29 -5.5 -51.5t-1.5 -54.5t6.5 -55.5t18 -45.5t34.5 -34t55 -12q76 0 112.5 34.5t45.5 108.5l258 -90q-13 -63 -39 -109t-74 -84t-127.5 -57t-189.5 -19q-208 0 -292.5 96t-84.5 306q0 377 128.5 553
t381.5 176q199 0 280.5 -91.5t81.5 -285.5q0 -88 -24 -285h-564zM516 893q-78 0 -115.5 -56.5t-56.5 -193.5h277q6 59 6 102q0 77 -25 112.5t-86 35.5z" />
    <glyph glyph-name="Gcircumflex" unicode="&#x11c;" horiz-adv-x="1146" 
d="M596 1683h-221l243 426h304l137 -426h-221l-93 232zM76 498q0 197 18.5 359t63.5 307t116 243.5t181.5 155.5t255.5 57q243 0 336 -98.5t73 -337.5l-282 -97q9 55 6 107.5t-15.5 93t-51.5 65.5t-101 25q-86 0 -151.5 -81.5t-102 -215t-54.5 -282t-18 -303.5
q0 -148 43.5 -212.5t151.5 -64.5q113 0 196 39l47 389h-178l27 230h446l-96 -775q-105 -65 -214.5 -95t-264.5 -30q-237 0 -334.5 120t-97.5 401z" />
    <glyph glyph-name="gcircumflex" unicode="&#x11d;" horiz-adv-x="1040" 
d="M438 1212h-221l244 426h303l137 -426h-221l-92 232zM348 29q-150 0 -224.5 92.5t-74.5 286.5q0 326 114 513t318 187q91 0 150 -32t102 -99l27 108h241l-43 -282l-104 -860q-24 -197 -140 -286t-331 -89q-212 0 -301.5 63.5t-85.5 218.5l274 93q-10 -77 20 -118.5
t113 -41.5q88 0 129 42t52 132l24 182q-51 -55 -111 -82.5t-149 -27.5zM637 371l47 395q-64 104 -160 104q-198 0 -198 -428q0 -94 28 -134t97 -40q93 0 186 103z" />
    <glyph glyph-name="Gbreve" unicode="&#x11e;" horiz-adv-x="1146" 
d="M715 1667q-98 0 -160 30.5t-89.5 87.5t-33 139t11.5 185h203q-14 -105 7 -155.5t91 -50.5t103.5 50.5t44.5 155.5h203q-12 -110 -35.5 -186.5t-66.5 -137t-112 -89.5t-167 -29zM76 498q0 197 18.5 359t63.5 307t116 243.5t181.5 155.5t255.5 57q243 0 336 -98.5
t73 -337.5l-282 -97q9 55 6 107.5t-15.5 93t-51.5 65.5t-101 25q-86 0 -151.5 -81.5t-102 -215t-54.5 -282t-18 -303.5q0 -148 43.5 -212.5t151.5 -64.5q113 0 196 39l47 389h-178l27 230h446l-96 -775q-105 -65 -214.5 -95t-264.5 -30q-237 0 -334.5 120t-97.5 401z" />
    <glyph glyph-name="gbreve" unicode="&#x11f;" horiz-adv-x="1040" 
d="M557 1196q-129 0 -197 53.5t-79.5 151.5t6.5 237h202q-14 -106 6.5 -156t90.5 -50q71 0 104.5 50.5t44.5 155.5h203q-12 -110 -35.5 -186.5t-66.5 -137t-112 -89.5t-167 -29zM348 29q-150 0 -224.5 92.5t-74.5 286.5q0 326 114 513t318 187q91 0 150 -32t102 -99l27 108
h241l-43 -282l-104 -860q-24 -197 -140 -286t-331 -89q-212 0 -301.5 63.5t-85.5 218.5l274 93q-10 -77 20 -118.5t113 -41.5q88 0 129 42t52 132l24 182q-51 -55 -111 -82.5t-149 -27.5zM637 371l47 395q-64 104 -160 104q-198 0 -198 -428q0 -94 28 -134t97 -40
q93 0 186 103z" />
    <glyph glyph-name="Gdotaccent" unicode="&#x120;" horiz-adv-x="1146" 
d="M909 2044l-37 -293h-294l36 293h295zM76 498q0 197 18.5 359t63.5 307t116 243.5t181.5 155.5t255.5 57q243 0 336 -98.5t73 -337.5l-282 -97q9 55 6 107.5t-15.5 93t-51.5 65.5t-101 25q-86 0 -151.5 -81.5t-102 -215t-54.5 -282t-18 -303.5q0 -148 43.5 -212.5
t151.5 -64.5q113 0 196 39l47 389h-178l27 230h446l-96 -775q-105 -65 -214.5 -95t-264.5 -30q-237 0 -334.5 120t-97.5 401z" />
    <glyph glyph-name="gdotaccent" unicode="&#x121;" horiz-adv-x="1040" 
d="M752 1573l-37 -293h-295l37 293h295zM348 29q-150 0 -224.5 92.5t-74.5 286.5q0 326 114 513t318 187q91 0 150 -32t102 -99l27 108h241l-43 -282l-104 -860q-24 -197 -140 -286t-331 -89q-212 0 -301.5 63.5t-85.5 218.5l274 93q-10 -77 20 -118.5t113 -41.5
q88 0 129 42t52 132l24 182q-51 -55 -111 -82.5t-149 -27.5zM637 371l47 395q-64 104 -160 104q-198 0 -198 -428q0 -94 28 -134t97 -40q93 0 186 103z" />
    <glyph glyph-name="Gcommaaccent" unicode="&#x122;" horiz-adv-x="1146" 
d="M373 -127h274l-100 -283h-230zM76 498q0 197 18.5 359t63.5 307t116 243.5t181.5 155.5t255.5 57q243 0 336 -98.5t73 -337.5l-282 -97q9 55 6 107.5t-15.5 93t-51.5 65.5t-101 25q-86 0 -151.5 -81.5t-102 -215t-54.5 -282t-18 -303.5q0 -148 43.5 -212.5t151.5 -64.5
q113 0 196 39l47 389h-178l27 230h446l-96 -775q-105 -65 -214.5 -95t-264.5 -30q-237 0 -334.5 120t-97.5 401z" />
    <glyph glyph-name="gcommaaccent" unicode="&#x123;" horiz-adv-x="1040" 
d="M688 1212h-274l121 426h227zM348 29q-150 0 -224.5 92.5t-74.5 286.5q0 326 114 513t318 187q91 0 150 -32t102 -99l27 108h241l-43 -282l-104 -860q-24 -197 -140 -286t-331 -89q-212 0 -301.5 63.5t-85.5 218.5l274 93q-10 -77 20 -118.5t113 -41.5q88 0 129 42t52 132
l24 182q-51 -55 -111 -82.5t-149 -27.5zM637 371l47 395q-64 104 -160 104q-198 0 -198 -428q0 -94 28 -134t97 -40q93 0 186 103z" />
    <glyph glyph-name="Hcircumflex" unicode="&#x124;" horiz-adv-x="1140" 
d="M866 1597h277l-195 -1597h-276l84 694h-367l-84 -694h-276l194 1597h277l-80 -657h366zM571 1683h-221l244 426h303l137 -426h-221l-92 232z" />
    <glyph glyph-name="hcircumflex" unicode="&#x125;" horiz-adv-x="1028" 
d="M487 1638l-79 -641q124 111 309 111q272 0 235 -291l-98 -817h-268l92 754q12 116 -98 116q-118 0 -199 -102l-94 -768h-271l201 1638h270zM242 1724h-222l242 426h303l140 -426h-222l-92 232z" />
    <glyph glyph-name="Hbar" unicode="&#x126;" horiz-adv-x="1140" 
d="M866 1597h277l-195 -1597h-276l84 694h-367l-84 -694h-276l194 1597h277l-80 -657h366zM465 1784l33 252h479l-33 -252h-479z" />
    <glyph glyph-name="hbar" unicode="&#x127;" horiz-adv-x="1069" 
d="M102 1257l27 226h109l20 155h270l-20 -155h186l-26 -226h-187l-32 -260q124 111 309 111q272 0 235 -291l-98 -817h-268l92 754q12 116 -98 116q-118 0 -199 -102l-94 -768h-271l154 1257h-109z" />
    <glyph glyph-name="Itilde" unicode="&#x128;" horiz-adv-x="520" 
d="M512 1597l-195 -1597h-278l194 1597h279zM629 2052l188 -22q-28 -156 -94 -245.5t-176 -88.5q-44 0 -81 15.5t-62.5 37.5t-47 44t-44 37.5t-44.5 16.5q-10 0 -18.5 -2t-15.5 -7.5t-12 -10.5t-9.5 -14l-7.5 -15t-6 -16t-4 -14.5t-3 -14t-2 -10.5l-190 22q65 337 270 334
q43 0 80 -15.5t62.5 -37.5t47 -44.5t43.5 -38t44 -15.5q15 0 27.5 6t20 13t14.5 22t9 22t6 24z" />
    <glyph glyph-name="itilde" unicode="&#x129;" horiz-adv-x="473" 
d="M20 0l134 1085h268l-133 -1085h-269zM545 1581l190 -22q-65 -337 -270 -334q-44 0 -81 15.5t-62.5 37.5t-47 44t-44 37.5t-44.5 16.5q-61 2 -77 -104l-189 22q61 337 268 334q43 0 80 -15.5t62.5 -38t47 -44.5t43.5 -37.5t44 -15.5q21 -1 36 9t23.5 27.5t12.5 31.5t7 30
q1 4 1 6z" />
    <glyph glyph-name="Imacron" unicode="&#x12a;" horiz-adv-x="520" 
d="M512 1597l-195 -1597h-278l194 1597h279zM156 1784l32 252h480l-33 -252h-479z" />
    <glyph glyph-name="imacron" unicode="&#x12b;" horiz-adv-x="473" 
d="M20 0l134 1085h268l-133 -1085h-269zM74 1313l30 252h480l-31 -252h-479z" />
    <glyph glyph-name="Ibreve" unicode="&#x12c;" horiz-adv-x="520" 
d="M512 1597l-195 -1597h-278l194 1597h279zM381 1667q-129 0 -197 53.5t-79.5 151.5t6.5 237h202q-14 -105 7 -155.5t92 -50.5q70 0 103 50t44 156h203q-12 -110 -35.5 -186.5t-66.5 -137t-112 -89.5t-167 -29z" />
    <glyph glyph-name="ibreve" unicode="&#x12d;" horiz-adv-x="473" 
d="M20 0l134 1085h268l-133 -1085h-269zM299 1196q-129 0 -197 53.5t-79.5 151.5t6.5 237h202q-14 -106 6.5 -156t90.5 -50q71 0 104.5 50.5t44.5 155.5h203q-12 -110 -35.5 -186.5t-66.5 -137t-112 -89.5t-167 -29z" />
    <glyph glyph-name="Iogonek" unicode="&#x12e;" horiz-adv-x="520" 
d="M512 1597l-195 -1597q-92 -13 -145.5 -62.5t-56.5 -113.5q-2 -38 21 -57.5t71 -12.5q54 7 94 37l31 -178q-79 -51 -203 -51q-211 0 -219 184q-11 158 131 270l192 1581h279z" />
    <glyph glyph-name="iogonek" unicode="&#x12f;" horiz-adv-x="473" 
d="M-119 -254q-11 164 142 279l131 1060h268l-133 -1085q-92 -13 -146 -62.5t-57 -113.5q-2 -38 21 -57.5t71 -12.5q54 7 94 37l31 -178q-79 -51 -203 -51q-211 0 -219 184zM489 1569l-34 -281h-285l35 281h284z" />
    <glyph glyph-name="Idotaccent" unicode="&#x130;" horiz-adv-x="520" 
d="M512 1597l-195 -1597h-278l194 1597h279zM575 2044l-36 -293h-295l37 293h294z" />
    <glyph glyph-name="dotlessi" unicode="&#x131;" horiz-adv-x="473" 
d="M20 0l134 1085h268l-133 -1085h-269z" />
    <glyph glyph-name="IJ" unicode="&#x132;" horiz-adv-x="1105" 
d="M512 1597l-195 -1597h-278l194 1597h279zM1106 1597l-160 -1310q-39 -310 -364 -310q-114 0 -174 27l43 246q48 -21 106 -21q51 0 80.5 23.5t36.5 81.5l153 1263h279z" />
    <glyph glyph-name="ij" unicode="&#x133;" horiz-adv-x="905" 
d="M20 0l134 1085h268l-133 -1085h-269zM489 1569l-34 -281h-285l35 281h284zM854 1085l-152 -1226q-36 -297 -350 -297q-106 0 -168 24l41 226q39 -17 103 -17q49 0 76 21.5t34 77.5l148 1191h268zM922 1569l-35 -281h-285l35 281h285z" />
    <glyph glyph-name="Jcircumflex" unicode="&#x134;" horiz-adv-x="942" 
d="M700 1683h-221l244 426h303l137 -426h-221l-92 232zM674 1597h276l-145 -1179q-29 -239 -140.5 -340t-324.5 -101q-110 0 -182 24t-108.5 72t-49 109t-6.5 148l278 96q-14 -108 7.5 -159t95.5 -50q76 1 108.5 46t44.5 153z" />
    <glyph glyph-name="jcircumflex" unicode="&#x135;" horiz-adv-x="473" 
d="M422 1085l-152 -1226q-36 -297 -348 -297q-106 0 -168 24l41 226q39 -17 103 -17q48 0 74.5 22t33.5 77l148 1191h268zM180 1212h-221l244 426h303l137 -426h-221l-92 232z" />
    <glyph glyph-name="Kcommaaccent" unicode="&#x136;" horiz-adv-x="1097" 
d="M500 1597l-99 -753l420 753h330l-438 -696l272 -901h-332l-157 657l-144 -217l-47 -440h-276l194 1597h277zM311 -127h275l-101 -283h-229z" />
    <glyph glyph-name="kcommaaccent" unicode="&#x137;" horiz-adv-x="1003" 
d="M358 655l314 430h321l-364 -423l264 -662h-315l-150 428l-115 -137l-26 -291h-271l201 1638h270zM270 -127h275l-101 -283h-229z" />
    <glyph glyph-name="kgreenlandic" unicode="&#x138;" horiz-adv-x="1003" 
d="M358 655l314 430h321l-364 -423l264 -662h-315l-150 428l-115 -137l-26 -291h-271l134 1085h270z" />
    <glyph glyph-name="Lacute" unicode="&#x139;" horiz-adv-x="860" 
d="M500 1597l-166 -1349h432l-29 -248h-708l194 1597h277zM387 2109h303l-178 -426h-272z" />
    <glyph glyph-name="lacute" unicode="&#x13a;" horiz-adv-x="475" 
d="M20 0l201 1638h271l-201 -1638h-271zM369 2150h303l-176 -426h-273z" />
    <glyph glyph-name="Lcommaaccent" unicode="&#x13b;" horiz-adv-x="860" 
d="M500 1597l-166 -1349h432l-29 -248h-708l194 1597h277zM227 -127h275l-101 -283h-229z" />
    <glyph glyph-name="lcommaaccent" unicode="&#x13c;" horiz-adv-x="475" 
d="M20 0l201 1638h271l-201 -1638h-271zM2 -127h274l-100 -283h-229z" />
    <glyph glyph-name="Lcaron" unicode="&#x13d;" horiz-adv-x="860" 
d="M500 1597l-166 -1349h432l-29 -248h-708l194 1597h277zM643 1638h246l-123 -426h-176z" />
    <glyph glyph-name="lcaron" unicode="&#x13e;" horiz-adv-x="557" 
d="M20 0l201 1638h271l-201 -1638h-271zM573 1638h246l-123 -426h-176z" />
    <glyph glyph-name="Ldot" unicode="&#x13f;" horiz-adv-x="860" 
d="M500 1597l-166 -1349h432l-29 -248h-708l194 1597h277zM842 965l-35 -295h-299l35 295h299z" />
    <glyph glyph-name="ldot" unicode="&#x140;" horiz-adv-x="823" 
d="M20 0l201 1638h271l-201 -1638h-271zM799 836l-37 -295h-299l37 295h299z" />
    <glyph glyph-name="Lslash" unicode="&#x141;" horiz-adv-x="860" 
d="M637 817l-248 -117l-55 -452h432l-29 -248h-708l67 561l-106 -49l30 254l107 49l96 782h277l-80 -645l250 119z" />
    <glyph glyph-name="lslash" unicode="&#x142;" horiz-adv-x="645" 
d="M616 897l-159 -92l-99 -805h-270l78 639l-139 -80l26 211l137 80l99 788h270l-78 -620l162 92z" />
    <glyph glyph-name="Nacute" unicode="&#x143;" horiz-adv-x="1157" 
d="M530 1597l156 -657l88 -399l43 387l82 669h258l-194 -1597h-308l-155 657l-86 400l-43 -387l-80 -670h-262l194 1597h307zM705 2109h303l-179 -426h-272z" />
    <glyph glyph-name="nacute" unicode="&#x144;" 
d="M385 1085l-2 -108q70 65 149.5 98t186.5 33q272 0 235 -291l-98 -817h-268l92 754q12 116 -98 116q-118 0 -199 -102l-94 -768h-271l99 803l28 282h240zM586 1638h303l-178 -426h-273z" />
    <glyph glyph-name="Ncommaaccent" unicode="&#x145;" horiz-adv-x="1157" 
d="M530 1597l156 -657l88 -399l43 387l82 669h258l-194 -1597h-308l-155 657l-86 400l-43 -387l-80 -670h-262l194 1597h307zM326 -127h274l-100 -283h-230z" />
    <glyph glyph-name="ncommaaccent" unicode="&#x146;" 
d="M385 1085l-2 -108q70 65 149.5 98t186.5 33q272 0 235 -291l-98 -817h-268l92 754q12 116 -98 116q-118 0 -199 -102l-94 -768h-271l99 803l28 282h240zM279 -127h274l-100 -283h-230z" />
    <glyph glyph-name="Ncaron" unicode="&#x147;" horiz-adv-x="1157" 
d="M530 1597l156 -657l88 -399l43 387l82 669h258l-194 -1597h-308l-155 657l-86 400l-43 -387l-80 -670h-262l194 1597h307zM879 2109h221l-246 -426h-307l-139 426h221l96 -229z" />
    <glyph glyph-name="ncaron" unicode="&#x148;" 
d="M385 1085l-2 -108q70 65 149.5 98t186.5 33q272 0 235 -291l-98 -817h-268l92 754q12 116 -98 116q-118 0 -199 -102l-94 -768h-271l99 803l28 282h240zM760 1638h221l-246 -426h-307l-139 426h221l96 -229z" />
    <glyph glyph-name="Eng" unicode="&#x14a;" horiz-adv-x="1157" 
d="M520 1597l164 -647l90 -399l41 383l82 663h260l-194 -1597h-2l-17 -141q-36 -297 -350 -297q-106 0 -168 24l41 226q39 -17 102 -17q49 0 76.5 22t34.5 77l4 38l-184 715l-86 400l-43 -383l-78 -664h-264l194 1597h297z" />
    <glyph glyph-name="eng" unicode="&#x14b;" 
d="M385 1085l-2 -108q70 65 149.5 98t186.5 33q272 0 235 -291l-98 -817h-2l-16 -141q-36 -297 -351 -297q-106 0 -168 24l41 226q39 -17 103 -17q49 0 76 21.5t34 77.5l45 372h3l59 488q12 116 -98 116q-118 0 -199 -102l-94 -768h-271l99 803l28 282h240z" />
    <glyph glyph-name="Omacron" unicode="&#x14c;" horiz-adv-x="1134" 
d="M463 1784l33 252h479l-33 -252h-479zM512 219q79 0 140 85.5t94.5 222t50 281.5t16.5 288q0 148 -36.5 215t-121.5 67q-80 0 -141.5 -85.5t-95 -221.5t-50 -281t-16.5 -288q0 -148 37.5 -215.5t122.5 -67.5zM481 -23q-221 0 -314 127.5t-93 393.5q0 130 8.5 246.5
t28.5 231t51.5 209.5t79.5 177t110.5 138t146.5 88t185 32q221 0 314.5 -127.5t93.5 -392.5q0 -153 -12 -286.5t-38.5 -263.5t-74 -231.5t-113 -179.5t-160.5 -120t-213 -42z" />
    <glyph glyph-name="omacron" unicode="&#x14d;" horiz-adv-x="991" 
d="M332 1313l30 252h480l-31 -252h-479zM438 213q55 0 96 36.5t62 87.5t34 121t16 119.5t3 100.5q0 105 -32 149.5t-99 44.5q-55 0 -96 -36.5t-62 -87.5t-34 -120.5t-16 -119t-3 -100.5q0 -106 32 -150.5t99 -44.5zM412 -23q-193 0 -284 92t-91 308q0 81 5 150.5t20 146
t38.5 138t62.5 118t91 95t126 61t165 22.5q193 0 285 -92.5t92 -308.5q0 -80 -5.5 -150t-20 -146t-38.5 -137.5t-63.5 -118t-91.5 -95t-126 -61t-165 -22.5z" />
    <glyph glyph-name="Obreve" unicode="&#x14e;" horiz-adv-x="1134" 
d="M688 1667q-129 0 -197 53.5t-79.5 151.5t6.5 237h203q-14 -105 7 -155.5t91 -50.5t103 50t44 156h203q-12 -110 -35.5 -186.5t-66.5 -137t-112 -89.5t-167 -29zM512 219q79 0 140 85.5t94.5 222t50 281.5t16.5 288q0 148 -36.5 215t-121.5 67q-80 0 -141.5 -85.5
t-95 -221.5t-50 -281t-16.5 -288q0 -148 37.5 -215.5t122.5 -67.5zM481 -23q-221 0 -314 127.5t-93 393.5q0 130 8.5 246.5t28.5 231t51.5 209.5t79.5 177t110.5 138t146.5 88t185 32q221 0 314.5 -127.5t93.5 -392.5q0 -153 -12 -286.5t-38.5 -263.5t-74 -231.5
t-113 -179.5t-160.5 -120t-213 -42z" />
    <glyph glyph-name="obreve" unicode="&#x14f;" horiz-adv-x="991" 
d="M557 1196q-80 0 -135 20t-87 55.5t-46 92.5t-13.5 121.5t11.5 152.5h202q-13 -107 6.5 -156.5t90.5 -49.5t103.5 49.5t45.5 156.5h203q-14 -111 -37 -187t-65.5 -136.5t-111.5 -89.5t-167 -29zM438 213q55 0 96 36.5t62 87.5t34 121t16 119.5t3 100.5q0 105 -32 149.5
t-99 44.5q-55 0 -96 -36.5t-62 -87.5t-34 -120.5t-16 -119t-3 -100.5q0 -106 32 -150.5t99 -44.5zM412 -23q-193 0 -284 92t-91 308q0 81 5 150.5t20 146t38.5 138t62.5 118t91 95t126 61t165 22.5q193 0 285 -92.5t92 -308.5q0 -80 -5.5 -150t-20 -146t-38.5 -137.5
t-63.5 -118t-91.5 -95t-126 -61t-165 -22.5z" />
    <glyph glyph-name="Ohungarumlaut" unicode="&#x150;" horiz-adv-x="1134" 
d="M532 2109h310l-197 -426h-276zM901 2109h309l-196 -426h-275zM512 219q79 0 140 85.5t94.5 222t50 281.5t16.5 288q0 148 -36.5 215t-121.5 67q-80 0 -141.5 -85.5t-95 -221.5t-50 -281t-16.5 -288q0 -148 37.5 -215.5t122.5 -67.5zM481 -23q-221 0 -314 127.5t-93 393.5
q0 130 8.5 246.5t28.5 231t51.5 209.5t79.5 177t110.5 138t146.5 88t185 32q221 0 314.5 -127.5t93.5 -392.5q0 -153 -12 -286.5t-38.5 -263.5t-74 -231.5t-113 -179.5t-160.5 -120t-213 -42z" />
    <glyph glyph-name="ohungarumlaut" unicode="&#x151;" horiz-adv-x="991" 
d="M401 1638h310l-197 -426h-276zM770 1638h309l-196 -426h-275zM438 213q55 0 96 36.5t62 87.5t34 121t16 119.5t3 100.5q0 105 -32 149.5t-99 44.5q-55 0 -96 -36.5t-62 -87.5t-34 -120.5t-16 -119t-3 -100.5q0 -106 32 -150.5t99 -44.5zM412 -23q-193 0 -284 92t-91 308
q0 81 5 150.5t20 146t38.5 138t62.5 118t91 95t126 61t165 22.5q193 0 285 -92.5t92 -308.5q0 -80 -5.5 -150t-20 -146t-38.5 -137.5t-63.5 -118t-91.5 -95t-126 -61t-165 -22.5z" />
    <glyph glyph-name="OE" unicode="&#x152;" horiz-adv-x="1533" 
d="M748 1597h802l-30 -247h-453l-49 -410h373l-31 -246h-373l-55 -446h481l-29 -248h-823q-265 0 -378 115.5t-113 400.5q0 206 22 370t71.5 299.5t127 225t192.5 138t265 48.5zM348 530q0 -153 51.5 -217.5t182.5 -64.5h73l136 1102h-74q-122 0 -206 -104.5t-123.5 -286
t-39.5 -429.5z" />
    <glyph glyph-name="oe" unicode="&#x153;" horiz-adv-x="1560" 
d="M909 446q-4 -29 -5.5 -51.5t-1.5 -54.5t6.5 -55.5t18 -45.5t34.5 -34t55 -12q76 0 112.5 34.5t45.5 108.5l258 -90q-13 -63 -39 -109t-74.5 -84t-128 -57t-189.5 -19q-116 0 -178 33t-88 99q-112 -132 -323 -132q-193 0 -284 92t-91 308q0 81 5 150.5t20 146t38.5 138
t62.5 118t91 95t126 61t165 22.5q112 0 177.5 -34t98.5 -107q99 141 314 141q199 0 280.5 -91.5t81.5 -285.5q0 -88 -24 -285h-564zM438 213q55 0 96 36.5t62 87.5t34 121t16 119.5t3 100.5q0 105 -32 149.5t-99 44.5q-55 0 -96 -36.5t-62 -87.5t-34 -120.5t-16 -119
t-3 -100.5q0 -106 32 -150.5t99 -44.5zM1106 893q-78 0 -115.5 -56.5t-56.5 -193.5h276q7 68 7 102q0 77 -25 112.5t-86 35.5z" />
    <glyph glyph-name="Racute" unicode="&#x154;" horiz-adv-x="1077" 
d="M639 2109h303l-178 -426h-272zM381 606l-74 -606h-278l194 1597h451q68 0 119.5 -7.5t102.5 -30t83.5 -61t53 -104.5t20.5 -157q0 -136 -23 -244t-63.5 -176.5t-84.5 -111t-96 -66.5l160 -639h-317l-111 606h-137zM412 856h141q48 0 84.5 14.5t68 49.5t48 102t16.5 164
t-40.5 130.5t-121.5 33.5h-135z" />
    <glyph glyph-name="racute" unicode="&#x155;" horiz-adv-x="698" 
d="M594 848q-117 0 -215 -98l-90 -750h-271l99 803l28 282h240l-2 -118q48 69 111 105t129 36q56 0 86 -21l-45 -247q-21 8 -70 8zM444 1638h304l-179 -426h-272z" />
    <glyph glyph-name="Rcommaaccent" unicode="&#x156;" horiz-adv-x="1077" 
d="M307 -127h275l-101 -283h-229zM381 606l-74 -606h-278l194 1597h451q68 0 119.5 -7.5t102.5 -30t83.5 -61t53 -104.5t20.5 -157q0 -136 -23 -244t-63.5 -176.5t-84.5 -111t-96 -66.5l160 -639h-317l-111 606h-137zM412 856h141q48 0 84.5 14.5t68 49.5t48 102t16.5 164
t-40.5 130.5t-121.5 33.5h-135z" />
    <glyph glyph-name="rcommaaccent" unicode="&#x157;" horiz-adv-x="698" 
d="M594 848q-117 0 -215 -98l-90 -750h-271l99 803l28 282h240l-2 -118q48 69 111 105t129 36q56 0 86 -21l-45 -247q-21 8 -70 8zM0 -127h274l-100 -283h-229z" />
    <glyph glyph-name="Rcaron" unicode="&#x158;" horiz-adv-x="1077" 
d="M813 2109h221l-246 -426h-307l-139 426h221l96 -229zM381 606l-74 -606h-278l194 1597h451q68 0 119.5 -7.5t102.5 -30t83.5 -61t53 -104.5t20.5 -157q0 -136 -23 -244t-63.5 -176.5t-84.5 -111t-96 -66.5l160 -639h-317l-111 606h-137zM412 856h141q48 0 84.5 14.5
t68 49.5t48 102t16.5 164t-40.5 130.5t-121.5 33.5h-135z" />
    <glyph glyph-name="rcaron" unicode="&#x159;" horiz-adv-x="698" 
d="M594 848q-117 0 -215 -98l-90 -750h-271l99 803l28 282h240l-2 -118q48 69 111 105t129 36q56 0 86 -21l-45 -247q-21 8 -70 8zM618 1638h222l-246 -426h-307l-140 426h222l96 -229z" />
    <glyph glyph-name="Sacute" unicode="&#x15a;" horiz-adv-x="1042" 
d="M659 2109h304l-179 -426h-272zM453 217q113 0 171 64.5t58 210.5q0 86 -49.5 128t-173.5 78q-59 16 -98.5 30.5t-85.5 43t-73.5 65t-46 95t-18.5 133.5q0 286 127.5 423.5t392.5 137.5q225 0 306.5 -102.5t60.5 -329.5l-279 -94q16 127 4 181q-22 99 -131 99
q-94 0 -147 -67t-53 -209q0 -80 43 -116t157 -62q69 -16 116 -32t94 -44t74 -66t44 -96t17 -135q0 -158 -37.5 -271.5t-110.5 -181t-171 -98.5t-228 -31q-129 0 -212 28.5t-124.5 87.5t-53 135t-1.5 186l276 94q-4 -35 -5.5 -56.5t-1.5 -55t4.5 -54.5t15 -46t28 -39.5
t46 -24t65.5 -9.5z" />
    <glyph glyph-name="sacute" unicode="&#x15b;" horiz-adv-x="931" 
d="M516 1638h303l-178 -426h-272zM395 184q158 0 158 158q0 57 -32.5 79.5t-110.5 37.5q-69 8 -115.5 18t-89.5 28t-68 45t-40 68t-15 97q0 110 35 188.5t98.5 122t140 63t172.5 19.5q181 0 263 -57.5t75 -202.5l-276 -94q4 36 3 68.5t-24.5 55.5t-66.5 23q-125 0 -125 -151
q0 -49 27.5 -69.5t97.5 -33.5q87 -10 141 -23t103 -41t71.5 -77t22.5 -123q0 -109 -35 -189t-101 -126.5t-151.5 -68.5t-194.5 -22q-89 0 -152 11.5t-112.5 40.5t-71.5 83t-18 134l277 94q-13 -70 13 -113t101 -43z" />
    <glyph glyph-name="Scircumflex" unicode="&#x15c;" horiz-adv-x="1042" 
d="M535 1683h-222l244 426h303l137 -426h-221l-92 232zM453 217q113 0 171 64.5t58 210.5q0 86 -49.5 128t-173.5 78q-59 16 -98.5 30.5t-85.5 43t-73.5 65t-46 95t-18.5 133.5q0 286 127.5 423.5t392.5 137.5q225 0 306.5 -102.5t60.5 -329.5l-279 -94q16 127 4 181
q-22 99 -131 99q-94 0 -147 -67t-53 -209q0 -80 43 -116t157 -62q69 -16 116 -32t94 -44t74 -66t44 -96t17 -135q0 -158 -37.5 -271.5t-110.5 -181t-171 -98.5t-228 -31q-129 0 -212 28.5t-124.5 87.5t-53 135t-1.5 186l276 94q-4 -35 -5.5 -56.5t-1.5 -55t4.5 -54.5t15 -46
t28 -39.5t46 -24t65.5 -9.5z" />
    <glyph glyph-name="scircumflex" unicode="&#x15d;" horiz-adv-x="931" 
d="M391 1212h-221l244 426h303l137 -426h-221l-92 232zM395 184q158 0 158 158q0 57 -32.5 79.5t-110.5 37.5q-69 8 -115.5 18t-89.5 28t-68 45t-40 68t-15 97q0 110 35 188.5t98.5 122t140 63t172.5 19.5q181 0 263 -57.5t75 -202.5l-276 -94q4 36 3 68.5t-24.5 55.5
t-66.5 23q-125 0 -125 -151q0 -49 27.5 -69.5t97.5 -33.5q87 -10 141 -23t103 -41t71.5 -77t22.5 -123q0 -109 -35 -189t-101 -126.5t-151.5 -68.5t-194.5 -22q-89 0 -152 11.5t-112.5 40.5t-71.5 83t-18 134l277 94q-13 -70 13 -113t101 -43z" />
    <glyph glyph-name="Scedilla" unicode="&#x15e;" horiz-adv-x="1042" 
d="M453 217q113 0 171 64.5t58 210.5q0 86 -49.5 128t-173.5 78q-59 16 -98.5 30.5t-85.5 43t-73.5 65t-46 95t-18.5 133.5q0 286 127.5 423.5t392.5 137.5q225 0 306.5 -102.5t60.5 -329.5l-279 -94q16 127 4 181q-22 99 -131 99q-94 0 -147 -67t-53 -209q0 -80 43 -116
t157 -62q69 -16 116 -32t94 -44t74 -66t44 -96t17 -135q0 -293 -125.5 -429.5t-362.5 -150.5l-18 -47q223 -45 192 -194q-18 -85 -94.5 -127.5t-183.5 -42.5q-133 0 -228 43l58 125q49 -27 104 -33q121 -11 129 61q4 40 -42.5 62t-125.5 30l58 127q-99 10 -163.5 43.5
t-95.5 88.5t-41 130t1 169l276 94q-4 -35 -5.5 -56.5t-1.5 -55t4.5 -54.5t15 -46t28 -39.5t46 -24t65.5 -9.5z" />
    <glyph glyph-name="scedilla" unicode="&#x15f;" horiz-adv-x="931" 
d="M395 184q158 0 158 158q0 57 -32.5 79.5t-110.5 37.5q-69 8 -115.5 18t-89.5 28t-68 45t-40 68t-15 97q0 110 35 188.5t98.5 122t140 63t172.5 19.5q181 0 263 -57.5t75 -202.5l-276 -94q4 36 3 68.5t-24.5 55.5t-66.5 23q-125 0 -125 -151q0 -49 27.5 -69.5t97.5 -33.5
q87 -10 141 -23t103 -41t71.5 -77t22.5 -123q0 -196 -110 -293t-306 -110l-21 -54q224 -45 193 -194q-18 -85 -95 -127.5t-184 -42.5q-132 0 -227 43l57 125q50 -27 105 -33q121 -11 129 61q4 40 -42.5 62t-125.5 30l59 132q-140 10 -207.5 69t-60.5 195l277 94
q-13 -70 13 -113t101 -43z" />
    <glyph glyph-name="Scaron" unicode="&#x160;" horiz-adv-x="1042" 
d="M834 2109h221l-246 -426h-307l-140 426h222l96 -229zM453 217q113 0 171 64.5t58 210.5q0 86 -49.5 128t-173.5 78q-59 16 -98.5 30.5t-85.5 43t-73.5 65t-46 95t-18.5 133.5q0 286 127.5 423.5t392.5 137.5q225 0 306.5 -102.5t60.5 -329.5l-279 -94q16 127 4 181
q-22 99 -131 99q-94 0 -147 -67t-53 -209q0 -80 43 -116t157 -62q69 -16 116 -32t94 -44t74 -66t44 -96t17 -135q0 -158 -37.5 -271.5t-110.5 -181t-171 -98.5t-228 -31q-129 0 -212 28.5t-124.5 87.5t-53 135t-1.5 186l276 94q-4 -35 -5.5 -56.5t-1.5 -55t4.5 -54.5t15 -46
t28 -39.5t46 -24t65.5 -9.5z" />
    <glyph glyph-name="scaron" unicode="&#x161;" horiz-adv-x="931" 
d="M690 1638h221l-245 -426h-308l-139 426h221l97 -229zM395 184q158 0 158 158q0 57 -32.5 79.5t-110.5 37.5q-69 8 -115.5 18t-89.5 28t-68 45t-40 68t-15 97q0 110 35 188.5t98.5 122t140 63t172.5 19.5q181 0 263 -57.5t75 -202.5l-276 -94q4 36 3 68.5t-24.5 55.5
t-66.5 23q-125 0 -125 -151q0 -49 27.5 -69.5t97.5 -33.5q87 -10 141 -23t103 -41t71.5 -77t22.5 -123q0 -109 -35 -189t-101 -126.5t-151.5 -68.5t-194.5 -22q-89 0 -152 11.5t-112.5 40.5t-71.5 83t-18 134l277 94q-13 -70 13 -113t101 -43z" />
    <glyph glyph-name="Tcommaaccent" unicode="&#x162;" horiz-adv-x="931" 
d="M686 1350l-164 -1350h-276l164 1350h-287l31 247h850l-31 -247h-287zM229 -127h275l-101 -283h-229z" />
    <glyph glyph-name="tcommaaccent" unicode="&#x163;" horiz-adv-x="735" 
d="M70 860l28 225h127l35 287l268 4l-34 -291h223l-29 -225h-223l-68 -551q-7 -57 15.5 -79.5t70.5 -22.5q55 0 107 18l-12 -223q-73 -25 -179 -25q-310 0 -274 297l72 586h-127zM174 -127h275l-101 -283h-229z" />
    <glyph glyph-name="Tcaron" unicode="&#x164;" horiz-adv-x="931" 
d="M686 1350l-164 -1350h-276l164 1350h-287l31 247h850l-31 -247h-287zM766 2109h221l-246 -426h-307l-139 426h221l96 -229z" />
    <glyph glyph-name="tcaron" unicode="&#x165;" horiz-adv-x="755" 
d="M70 860l28 225h127l35 287l268 4l-34 -291h223l-29 -225h-223l-68 -551q-7 -57 15.5 -79.5t70.5 -22.5q55 0 107 18l-12 -223q-73 -25 -179 -25q-310 0 -274 297l72 586h-127zM643 1638h246l-123 -426h-176z" />
    <glyph glyph-name="Tbar" unicode="&#x166;" horiz-adv-x="931" 
d="M686 1350l-164 -1350h-276l164 1350h-287l31 247h850l-31 -247h-287zM360 1784l33 252h479l-32 -252h-480z" />
    <glyph glyph-name="tbar" unicode="&#x167;" horiz-adv-x="735" 
d="M18 440l27 226h127l25 194h-127l28 225h127l35 287l268 4l-34 -291h223l-29 -225h-223l-25 -194h150l-27 -226h-149l-17 -131q-7 -57 15.5 -79.5t70.5 -22.5q55 0 107 18l-12 -223q-73 -25 -179 -25q-310 0 -274 297l20 166h-127z" />
    <glyph glyph-name="Utilde" unicode="&#x168;" horiz-adv-x="1101" 
d="M496 217q55 0 90 11.5t56 39.5t31 63.5t17 94.5l144 1171h276l-145 -1183q-15 -118 -42.5 -195.5t-83 -136t-147 -85t-227.5 -26.5t-221.5 27.5t-127.5 82.5t-51.5 138.5t5.5 194.5l145 1183h279l-144 -1171q-10 -72 -3 -118.5t42 -68.5t107 -22zM918 2052l188 -22
q-28 -156 -94 -245.5t-176 -88.5q-44 0 -81 15.5t-62.5 37.5t-47 44t-44 37.5t-44.5 16.5q-10 0 -18.5 -2t-15.5 -7.5t-12 -10.5t-9.5 -14l-7.5 -15t-6 -16t-4 -14.5t-3 -14t-2 -10.5l-190 22q65 337 270 334q43 0 80 -15.5t62.5 -37.5t47 -44.5t43.5 -38t44 -15.5
q15 0 27.5 6t20 13t14.5 22t9 22t7 24z" />
    <glyph glyph-name="utilde" unicode="&#x169;" 
d="M614 0v109q-70 -66 -149 -99t-186 -33q-273 0 -236 293l100 815h269l-95 -753q-12 -117 97 -117q114 0 202 102l95 768h270l-100 -802l-27 -283h-240zM823 1581l191 -22q-65 -337 -271 -334q-44 0 -81 15.5t-62 37.5t-46.5 44t-44 37.5t-44.5 16.5q-62 2 -78 -104
l-190 22q65 337 270 334q43 0 80 -15.5t62 -38t46.5 -44.5t43.5 -37.5t44 -15.5q21 -1 36 9t23.5 27.5t12.5 31.5t7 30q1 4 1 6z" />
    <glyph glyph-name="Umacron" unicode="&#x16a;" horiz-adv-x="1101" 
d="M496 217q55 0 90 11.5t56 39.5t31 63.5t17 94.5l144 1171h276l-145 -1183q-15 -118 -42.5 -195.5t-83 -136t-147 -85t-227.5 -26.5t-221.5 27.5t-127.5 82.5t-51.5 138.5t5.5 194.5l145 1183h279l-144 -1171q-10 -72 -3 -118.5t42 -68.5t107 -22zM444 1784l33 252h479
l-32 -252h-480z" />
    <glyph glyph-name="umacron" unicode="&#x16b;" 
d="M614 0v109q-70 -66 -149 -99t-186 -33q-273 0 -236 293l100 815h269l-95 -753q-12 -117 97 -117q114 0 202 102l95 768h270l-100 -802l-27 -283h-240zM352 1313l31 252h479l-31 -252h-479z" />
    <glyph glyph-name="Ubreve" unicode="&#x16c;" horiz-adv-x="1101" 
d="M496 217q55 0 90 11.5t56 39.5t31 63.5t17 94.5l144 1171h276l-145 -1183q-15 -118 -42.5 -195.5t-83 -136t-147 -85t-227.5 -26.5t-221.5 27.5t-127.5 82.5t-51.5 138.5t5.5 194.5l145 1183h279l-144 -1171q-10 -72 -3 -118.5t42 -68.5t107 -22zM670 1667
q-98 0 -160 30.5t-89.5 87.5t-33 139t11.5 185h203q-14 -105 7 -155.5t91 -50.5t103.5 50.5t44.5 155.5h203q-12 -110 -35.5 -186.5t-66.5 -137t-112 -89.5t-167 -29z" />
    <glyph glyph-name="ubreve" unicode="&#x16d;" 
d="M614 0v109q-70 -66 -149 -99t-186 -33q-273 0 -236 293l100 815h269l-95 -753q-12 -117 97 -117q114 0 202 102l95 768h270l-100 -802l-27 -283h-240zM578 1196q-98 0 -160 30t-89.5 87t-33 139t11.5 186h203q-14 -106 6 -156t90 -50q71 0 105 50.5t45 155.5h202
q-10 -87 -26 -152.5t-44.5 -122t-69.5 -92t-101 -55.5t-139 -20z" />
    <glyph glyph-name="Uring" unicode="&#x16e;" horiz-adv-x="1101" 
d="M496 217q55 0 90 11.5t56 39.5t31 63.5t17 94.5l144 1171h276l-145 -1183q-15 -118 -42.5 -195.5t-83 -136t-147 -85t-227.5 -26.5t-221.5 27.5t-127.5 82.5t-51.5 138.5t5.5 194.5l145 1183h279l-144 -1171q-10 -72 -3 -118.5t42 -68.5t107 -22zM457 1896
q14 108 86.5 175t185.5 67t169 -67t42 -175q-12 -108 -84.5 -174.5t-185.5 -66.5t-169 66.5t-44 174.5zM791 1896q6 46 -15 70.5t-65 24.5t-71.5 -24.5t-33.5 -70.5q-9 -94 82 -94q45 0 72 24.5t31 69.5z" />
    <glyph glyph-name="uring" unicode="&#x16f;" 
d="M614 0v109q-70 -66 -149 -99t-186 -33q-273 0 -236 293l100 815h269l-95 -753q-12 -117 97 -117q114 0 202 102l95 768h270l-100 -802l-27 -283h-240zM365 1425q12 108 84.5 175t185.5 67t169 -67t44 -175q-14 -108 -87 -174.5t-186 -66.5t-168.5 66.5t-41.5 174.5z
M698 1425q6 46 -15 70.5t-65 24.5t-71 -24.5t-33 -70.5t15 -70t65 -24t71 24t33 70z" />
    <glyph glyph-name="Uhungarumlaut" unicode="&#x170;" horiz-adv-x="1101" 
d="M496 217q55 0 90 11.5t56 39.5t31 63.5t17 94.5l144 1171h276l-145 -1183q-15 -118 -42.5 -195.5t-83 -136t-147 -85t-227.5 -26.5t-221.5 27.5t-127.5 82.5t-51.5 138.5t5.5 194.5l145 1183h279l-144 -1171q-10 -72 -3 -118.5t42 -68.5t107 -22zM514 2109h309l-196 -426
h-277zM883 2109h309l-197 -426h-274z" />
    <glyph glyph-name="uhungarumlaut" unicode="&#x171;" 
d="M614 0v109q-70 -66 -149 -99t-186 -33q-273 0 -236 293l100 815h269l-95 -753q-12 -117 97 -117q114 0 202 102l95 768h270l-100 -802l-27 -283h-240zM422 1638h309l-196 -426h-277zM791 1638h309l-197 -426h-274z" />
    <glyph glyph-name="Uogonek" unicode="&#x172;" horiz-adv-x="1101" 
d="M496 217q55 0 90 11.5t56 39.5t31 63.5t17 94.5l144 1171h276l-145 -1183q-25 -193 -93 -293.5t-223 -132.5q-74 -22 -119.5 -67t-46.5 -97q-2 -38 21 -57.5t71 -12.5q55 7 95 37l30 -178q-79 -51 -202 -51q-100 0 -159 44.5t-63 139.5q-8 127 97 229q-140 11 -213.5 64
t-90 146.5t0.5 228.5l145 1183h279l-144 -1171q-10 -72 -3 -118.5t42 -68.5t107 -22z" />
    <glyph glyph-name="uogonek" unicode="&#x173;" 
d="M881 283l-27 -283q-94 -13 -157 -63.5t-66 -112.5q-2 -38 21 -57.5t71 -12.5q54 7 94 37l31 -178q-79 -51 -203 -51q-99 0 -158 44.5t-63 139.5q-7 93 45.5 169.5t144.5 131.5v62q-70 -66 -149 -99t-186 -33q-273 0 -236 293l100 815h269l-95 -753q-12 -117 97 -117
q114 0 202 102l95 768h270z" />
    <glyph glyph-name="Wcircumflex" unicode="&#x174;" horiz-adv-x="1480" 
d="M811 -14l-6 1210l-303 -1210h-375l41 1611h258l-47 -1224l317 1224h314l18 -1224l252 1224h260l-354 -1611h-375zM743 1683h-221l244 426h303l137 -426h-221l-92 232z" />
    <glyph glyph-name="wcircumflex" unicode="&#x175;" horiz-adv-x="1320" 
d="M582 1085h260l47 -731l168 731h260l-291 -1091h-311l-47 751l-232 -751h-311l-19 1091h259l-13 -731zM604 1212h-221l244 426h303l137 -426h-221l-92 232z" />
    <glyph glyph-name="Ycircumflex" unicode="&#x176;" horiz-adv-x="1056" 
d="M549 842l323 755h285l-508 -1046l-63 -551h-277l70 551l-254 1046h285zM530 1683h-221l244 426h303l137 -426h-221l-92 232z" />
    <glyph glyph-name="ycircumflex" unicode="&#x177;" horiz-adv-x="985" 
d="M446 305l271 780h287l-447 -1054l-203 -441h-303l209 406l-176 1089h285zM436 1212h-221l244 426h303l137 -426h-221l-92 232z" />
    <glyph glyph-name="Ydieresis" unicode="&#x178;" horiz-adv-x="1056" 
d="M549 842l323 755h285l-508 -1046l-63 -551h-277l70 551l-254 1046h285zM623 2044l-37 -293h-295l37 293h295zM1065 2044l-37 -293h-295l37 293h295z" />
    <glyph glyph-name="Zacute" unicode="&#x179;" 
d="M-23 0l25 201l619 989l106 164l-272 -2h-281l29 245h862l-25 -200l-618 -989l-107 -164l275 2h317l-28 -246h-902zM637 2109h303l-178 -426h-273z" />
    <glyph glyph-name="zacute" unicode="&#x17a;" horiz-adv-x="849" 
d="M-35 0l23 184l495 668l-387 -4l31 237h700l-22 -184l-498 -668l443 5l-29 -238h-756zM494 1638h303l-179 -426h-272z" />
    <glyph glyph-name="Zdotaccent" unicode="&#x17b;" 
d="M-23 0l25 201l619 989l106 164l-272 -2h-281l29 245h862l-25 -200l-618 -989l-107 -164l275 2h317l-28 -246h-902zM825 2044l-37 -293h-294l36 293h295z" />
    <glyph glyph-name="zdotaccent" unicode="&#x17c;" horiz-adv-x="849" 
d="M-35 0l23 184l495 668l-387 -4l31 237h700l-22 -184l-498 -668l443 5l-29 -238h-756zM682 1573l-37 -293h-295l37 293h295z" />
    <glyph glyph-name="Zcaron" unicode="&#x17d;" 
d="M-23 0l25 201l619 989l106 164l-272 -2h-281l29 245h862l-25 -200l-618 -989l-107 -164l275 2h317l-28 -246h-902zM811 2109h221l-246 -426h-307l-139 426h221l96 -229z" />
    <glyph glyph-name="zcaron" unicode="&#x17e;" horiz-adv-x="849" 
d="M-35 0l23 184l495 668l-387 -4l31 237h700l-22 -184l-498 -668l443 5l-29 -238h-756zM668 1638h221l-246 -426h-307l-139 426h221l96 -229z" />
    <glyph glyph-name="florin" unicode="&#x192;" horiz-adv-x="763" 
d="M51 702l27 228h166l45 360q17 144 110.5 220.5t259.5 76.5q106 0 168 -24l-41 -224q-55 19 -102 19q-61 0 -92 -24t-37 -83l-41 -321h197l-27 -228h-197l-104 -837q-17 -144 -109.5 -220.5t-257.5 -76.5q-108 0 -170 24l41 224q55 -19 101 -19q62 0 93 23.5t38 83.5
l98 798h-166z" />
    <glyph glyph-name="Scommaaccent" unicode="&#x218;" horiz-adv-x="1042" 
d="M274 -127h275l-100 -283h-230zM453 217q113 0 171 64.5t58 210.5q0 86 -49.5 128t-173.5 78q-59 16 -98.5 30.5t-85.5 43t-73.5 65t-46 95t-18.5 133.5q0 286 127.5 423.5t392.5 137.5q225 0 306.5 -102.5t60.5 -329.5l-279 -94q16 127 4 181q-22 99 -131 99
q-94 0 -147 -67t-53 -209q0 -80 43 -116t157 -62q69 -16 116 -32t94 -44t74 -66t44 -96t17 -135q0 -158 -37.5 -271.5t-110.5 -181t-171 -98.5t-228 -31q-129 0 -212 28.5t-124.5 87.5t-53 135t-1.5 186l276 94q-4 -35 -5.5 -56.5t-1.5 -55t4.5 -54.5t15 -46t28 -39.5
t46 -24t65.5 -9.5z" />
    <glyph glyph-name="scommaaccent" unicode="&#x219;" horiz-adv-x="931" 
d="M223 -127h275l-101 -283h-229zM395 184q158 0 158 158q0 57 -32.5 79.5t-110.5 37.5q-69 8 -115.5 18t-89.5 28t-68 45t-40 68t-15 97q0 110 35 188.5t98.5 122t140 63t172.5 19.5q181 0 263 -57.5t75 -202.5l-276 -94q4 36 3 68.5t-24.5 55.5t-66.5 23q-125 0 -125 -151
q0 -49 27.5 -69.5t97.5 -33.5q87 -10 141 -23t103 -41t71.5 -77t22.5 -123q0 -109 -35 -189t-101 -126.5t-151.5 -68.5t-194.5 -22q-89 0 -152 11.5t-112.5 40.5t-71.5 83t-18 134l277 94q-13 -70 13 -113t101 -43z" />
    <glyph glyph-name="dotlessj" unicode="&#x237;" horiz-adv-x="473" 
d="M422 1085l-152 -1226q-36 -297 -348 -297q-106 0 -168 24l41 226q39 -17 103 -17q48 0 74.5 22t33.5 77l148 1191h268z" />
    <glyph glyph-name="circumflex" unicode="&#x2c6;" horiz-adv-x="1269" 
d="M580 1212h-222l244 426h303l137 -426h-221l-92 232z" />
    <glyph glyph-name="caron" unicode="&#x2c7;" horiz-adv-x="1269" 
d="M879 1638h221l-246 -426h-307l-139 426h221l96 -229z" />
    <glyph glyph-name="breve" unicode="&#x2d8;" horiz-adv-x="1269" 
d="M698 1196q-129 0 -197 53.5t-79.5 151.5t6.5 237h203q-14 -106 6 -156t90 -50q71 0 105 50.5t45 155.5h202q-12 -110 -35.5 -186.5t-66.5 -137t-112 -89.5t-167 -29z" />
    <glyph glyph-name="dotaccent" unicode="&#x2d9;" horiz-adv-x="1269" 
d="M887 1569l-35 -281h-285l35 281h285z" />
    <glyph glyph-name="ring" unicode="&#x2da;" horiz-adv-x="1269" 
d="M485 1425q12 108 85 175t186 67t169 -67t44 -175q-14 -108 -87 -174.5t-186 -66.5t-169 66.5t-42 174.5zM819 1425q6 46 -15 70.5t-65 24.5t-71 -24.5t-33 -70.5t15 -70t65 -24t71 24t33 70z" />
    <glyph glyph-name="ogonek" unicode="&#x2db;" horiz-adv-x="1269" 
d="M911 125l64 -125q-94 -13 -157 -63.5t-66 -112.5q-2 -38 21 -57.5t71 -12.5q54 7 94 37l31 -178q-79 -51 -203 -51q-99 0 -158 44.5t-63 139.5q-5 70 25.5 133.5t85.5 110t119.5 80.5t135.5 55z" />
    <glyph glyph-name="tilde" unicode="&#x2dc;" horiz-adv-x="1269" 
d="M944 1581l191 -22q-65 -337 -271 -334q-44 0 -81 15.5t-62 37.5t-46.5 44t-44 37.5t-44.5 16.5q-62 2 -78 -104l-191 22q65 337 271 334q43 0 80 -15.5t62 -38t46.5 -44.5t43.5 -37.5t44 -15.5q21 -1 36 9t23.5 27.5t12.5 31.5t7 30q1 4 1 6z" />
    <glyph glyph-name="hungarumlaut" unicode="&#x2dd;" horiz-adv-x="1269" 
d="M543 1638h309l-197 -426h-276zM911 1638h310l-197 -426h-274z" />
    <glyph glyph-name="pi" unicode="&#x3c0;" horiz-adv-x="1257" 
d="M653 274l72 586h-213l-72 -592l-67 -268h-242l39 283l72 577h-166l28 225h1121l-29 -225h-203l-67 -551q-7 -56 15.5 -78t70.5 -22q60 0 106 16l-12 -223q-73 -25 -174 -25q-315 0 -279 297z" />
    <glyph glyph-name="uni0E3F" unicode="&#xe3f;" horiz-adv-x="911" 
d="M864 1565l-100 -240q92 -55 92 -203q0 -246 -133 -309q108 -23 108 -190q0 -418 -352 -418h-90l-84 -205h-239l84 205h-101l141 1155h351l84 205h239zM336 440h115q110 0 110 152q0 90 -76 90h-120zM518 1124h-98l-27 -215h99q38 0 64 32.5t26 109.5q0 42 -16 57.5
t-48 15.5z" />
    <glyph glyph-name="enspace" unicode="&#x2002;" horiz-adv-x="1024" 
 />
    <glyph glyph-name="emspace" unicode="&#x2003;" horiz-adv-x="2048" 
 />
    <glyph glyph-name="threeperemspace" unicode="&#x2004;" horiz-adv-x="681" 
 />
    <glyph glyph-name="fourperemspace" unicode="&#x2005;" horiz-adv-x="512" 
 />
    <glyph glyph-name="sixperemspace" unicode="&#x2006;" horiz-adv-x="342" 
 />
    <glyph glyph-name="figurespace" unicode="&#x2007;" horiz-adv-x="1433" 
 />
    <glyph glyph-name="punctuationspace" unicode="&#x2008;" horiz-adv-x="544" 
 />
    <glyph glyph-name="thinspace" unicode="&#x2009;" horiz-adv-x="409" 
 />
    <glyph glyph-name="hairspace" unicode="&#x200a;" horiz-adv-x="204" 
 />
    <glyph glyph-name="zerowidthspace" unicode="&#x200b;" horiz-adv-x="0" 
 />
    <glyph glyph-name="figuredash" unicode="&#x2012;" horiz-adv-x="1474" 
d="M1346 559h-1246l31 254h1245z" />
    <glyph glyph-name="endash" unicode="&#x2013;" horiz-adv-x="1064" 
d="M936 559h-836l31 254h836z" />
    <glyph glyph-name="emdash" unicode="&#x2014;" horiz-adv-x="2088" 
d="M1960 559h-1860l31 254h1860z" />
    <glyph glyph-name="uni2015" unicode="&#x2015;" horiz-adv-x="2908" 
d="M2779 559h-2679l31 254h2679z" />
    <glyph glyph-name="doublebar" unicode="&#x2016;" horiz-adv-x="1075" 
d="M602 1700l-240 -1966h-286l239 1966h287zM1008 1700l-240 -1966h-285l240 1966h285z" />
    <glyph glyph-name="quoteleft" unicode="&#x2018;" horiz-adv-x="432" 
d="M360 1085h-305l185 512h221z" />
    <glyph glyph-name="quoteright" unicode="&#x2019;" horiz-adv-x="432" 
d="M236 1597h305l-185 -512h-221z" />
    <glyph glyph-name="quotesinglbase" unicode="&#x201a;" horiz-adv-x="432" 
d="M33 176h305l-186 -512h-220z" />
    <glyph glyph-name="reversequoteleft" unicode="&#x201b;" horiz-adv-x="432" 
d="M117 1597h305l-23 -512h-221z" />
    <glyph glyph-name="quotedblleft" unicode="&#x201c;" horiz-adv-x="788" 
d="M360 1085h-305l185 512h221zM729 1085h-305l182 512h223z" />
    <glyph glyph-name="quotedblright" unicode="&#x201d;" horiz-adv-x="798" 
d="M602 1597h305l-182 -512h-223zM236 1597h305l-185 -512h-221z" />
    <glyph glyph-name="quotedblbase" unicode="&#x201e;" horiz-adv-x="798" 
d="M401 176h304l-185 -512h-221zM33 176h305l-186 -512h-220z" />
    <glyph glyph-name="reversequotedblleft" unicode="&#x201f;" horiz-adv-x="798" 
d="M117 1597h305l-23 -512h-223zM483 1597h305l-22 -512h-221z" />
    <glyph glyph-name="dagger" unicode="&#x2020;" horiz-adv-x="698" 
d="M371 1597h182l-49 -233l244 20l-23 -180l-238 21l-14 -426h-219l92 426l-240 -21l23 180l233 -20z" />
    <glyph glyph-name="daggerdbl" unicode="&#x2021;" horiz-adv-x="698" 
d="M371 1597h182l-49 -233l244 20l-23 -180l-240 21l-2 -95l-20 -96l244 21l-23 -181l-238 21l-12 -426h-219l90 426l-239 -21l22 181l236 -21l2 96l20 95l-240 -21l23 180l233 -20z" />
    <glyph glyph-name="bullet" unicode="&#x2022;" horiz-adv-x="911" 
d="M817 1008l-80 -643h-641l80 643h641z" />
    <glyph glyph-name="ellipsis" unicode="&#x2026;" horiz-adv-x="2088" 
d="M467 285l-35 -285h-289l35 285h289zM1141 285l-35 -285h-287l35 285h287zM1817 285l-35 -285h-289l35 285h289z" />
    <glyph glyph-name="perthousand" unicode="&#x2030;" horiz-adv-x="2547" 
d="M438 918q49 0 80.5 26.5t50.5 98t19 190.5q0 82 -22 115.5t-70 33.5q-49 0 -80.5 -26.5t-50.5 -98t-19 -190.5q0 -82 22 -115.5t70 -33.5zM414 713q-152 0 -220.5 75t-68.5 244q0 555 395 555q152 0 220.5 -75t68.5 -244q0 -555 -395 -555zM1368 647q-73 0 -111 -70
t-38 -245q0 -81 22.5 -115.5t71.5 -34.5q73 0 110 70.5t37 245.5q0 82 -22 115.5t-70 33.5zM1395 852q152 0 219 -75.5t67 -244.5q0 -555 -395 -555q-152 0 -219.5 75.5t-67.5 244.5q0 555 396 555zM2097 647q-73 0 -111 -70t-38 -245q0 -81 22.5 -115.5t71.5 -34.5
q73 0 111 70.5t38 245.5q0 81 -22.5 115t-71.5 34zM2124 852q152 0 219 -75.5t67 -244.5q0 -555 -395 -555q-152 0 -219 75.5t-67 244.5q0 555 395 555zM303 0l991 1565h211l-991 -1565h-211z" />
    <glyph glyph-name="minute" unicode="&#x2032;" horiz-adv-x="514" 
d="M96 1565h322l-99 -699h-223v699z" />
    <glyph glyph-name="second" unicode="&#x2033;" horiz-adv-x="913" 
d="M96 1565h322l-99 -699h-223v699zM496 1565h321l-98 -699h-223v699z" />
    <glyph glyph-name="tripleprime" unicode="&#x2034;" horiz-adv-x="1247" 
d="M197 1597h319l-106 -512h-232zM578 1597h317l-104 -512h-232zM958 1597h318l-105 -512h-231z" />
    <glyph glyph-name="guilsinglleft" unicode="&#x2039;" horiz-adv-x="655" 
d="M508 483l-27 -225l-389 303l21 168l462 303l-26 -225l-209 -162z" />
    <glyph glyph-name="guilsinglright" unicode="&#x203a;" horiz-adv-x="655" 
d="M72 258l26 225l209 162l-168 162l27 225l389 -303l-20 -168z" />
    <glyph glyph-name="fraction" unicode="&#x2044;" horiz-adv-x="481" 
d="M-348 0l991 1565h211l-991 -1565h-211z" />
    <glyph glyph-name="uni2070" unicode="&#x2070;" horiz-adv-x="708" 
d="M379 866q59 0 96 123.5t37 310.5q0 73 -15 103.5t-51 30.5q-59 0 -95 -124.5t-36 -312.5q0 -72 14.5 -101.5t49.5 -29.5zM467 1581q130 0 185 -65t55 -230q0 -292 -87.5 -429.5t-259.5 -137.5q-130 0 -184.5 65t-54.5 228q0 293 87 431t259 138z" />
    <glyph glyph-name="uni2074" unicode="&#x2074;" horiz-adv-x="698" 
d="M668 911h-80l-23 -180h-190l22 180h-303l15 127l337 543h224l-64 -522h78zM416 1059l51 319l-182 -321z" />
    <glyph glyph-name="uni2075" unicode="&#x2075;" horiz-adv-x="696" 
d="M371 864q49 0 77.5 52.5t28.5 156.5q0 51 -16.5 70.5t-50.5 19.5q-32 0 -61.5 -19.5t-43.5 -47.5l-160 55l74 418h486l-19 -150h-311l-31 -176q63 60 154 60q87 0 131.5 -46.5t44.5 -162.5q0 -190 -80 -282.5t-242 -92.5q-138 0 -195 46.5t-53 158.5l205 69
q-2 -38 -2 -66.5t15.5 -45.5t48.5 -17z" />
    <glyph glyph-name="uni2076" unicode="&#x2076;" horiz-adv-x="704" 
d="M449 1440q-51 0 -70 -45.5t-35 -186.5q36 48 77 68t97 20q86 0 123 -41.5t37 -132.5q0 -208 -73 -305.5t-249 -97.5q-131 0 -182 57.5t-51 204.5q0 111 14 217q13 91 35 157t59.5 119.5t97 80t140.5 26.5q122 0 176.5 -39.5t54.5 -126.5l-200 -67q13 92 -51 92zM424 1153
q-63 0 -100 -113q-5 -39 -5 -77q0 -103 56 -103q98 0 98 221q0 72 -49 72z" />
    <glyph glyph-name="uni2077" unicode="&#x2077;" horiz-adv-x="688" 
d="M377 731h-213l264 535l84 155l-135 -2h-217l18 150h559l-12 -101z" />
    <glyph glyph-name="uni2078" unicode="&#x2078;" horiz-adv-x="696" 
d="M442 1432q-43 0 -65.5 -28.5t-22.5 -96.5q0 -80 64 -80q40 0 64 33.5t24 101.5q0 39 -15.5 54.5t-48.5 15.5zM401 1092q-53 0 -81.5 -29t-28.5 -115q0 -84 82 -84q56 0 82 36t26 110q0 48 -20 65t-60 17zM356 719q-142 0 -202 49t-60 143q0 110 38.5 171.5t98.5 82.5
q-34 12 -51.5 52t-17.5 98q0 144 71 205t228 61q129 0 187.5 -44t58.5 -142q0 -85 -33 -148t-88 -82q88 -36 88 -166q0 -139 -71 -209.5t-247 -70.5z" />
    <glyph glyph-name="uni2079" unicode="&#x2079;" horiz-adv-x="704" 
d="M373 860q51 0 68.5 40.5t37.5 182.5q-36 -46 -76.5 -62.5t-99.5 -16.5q-83 0 -119.5 46.5t-36.5 157.5q0 188 74 280.5t246 92.5q133 0 184 -58.5t51 -205.5q0 -91 -12 -193q-11 -97 -31.5 -166.5t-58.5 -126t-101 -84.5t-151 -28q-123 0 -177 38t-54 124l202 71
q-7 -39 5 -65.5t49 -26.5zM401 1147q70 0 99 147q3 83 -19 97q-18 26 -36 17t-42 -52q-55 -22 -55 -131q0 -78 53 -78z" />
    <glyph glyph-name="uni207A" unicode="&#x207a;" horiz-adv-x="839" 
d="M336 848l26 217h-217l27 211h217l25 217h211l-25 -217h215l-24 -211h-216l-28 -217h-211z" />
    <glyph glyph-name="uni207B" unicode="&#x207b;" horiz-adv-x="839" 
d="M791 1065h-646l27 211h643z" />
    <glyph glyph-name="uni207C" unicode="&#x207c;" horiz-adv-x="839" 
d="M772 920h-643l23 192h643zM809 1229h-643l24 192h644z" />
    <glyph glyph-name="uni207D" unicode="&#x207d;" horiz-adv-x="569" 
d="M575 1663q-176 -321 -176 -678q0 -194 52 -358h-201q-64 183 -64 366q0 348 191 670h198z" />
    <glyph glyph-name="uni207E" unicode="&#x207e;" horiz-adv-x="569" 
d="M111 627q176 318 176 673q0 202 -51 363h200q64 -183 64 -367q0 -351 -191 -669h-198z" />
    <glyph glyph-name="uni2080" unicode="&#x2080;" horiz-adv-x="708" 
d="M291 135q59 0 96 123.5t37 310.5q0 73 -15 103t-51 30q-59 0 -95 -124t-36 -312q0 -72 14.5 -101.5t49.5 -29.5zM379 850q130 0 184.5 -65t54.5 -230q0 -293 -87 -430t-259 -137q-130 0 -184.5 65t-54.5 228q0 293 87 431t259 138z" />
    <glyph glyph-name="uni2081" unicode="&#x2081;" horiz-adv-x="669" 
d="M518 0h-502l19 147h151l58 465q-64 -55 -172 -80l18 168q65 17 125.5 58.5t97.5 91.5h156l-88 -703h156z" />
    <glyph glyph-name="uni2082" unicode="&#x2082;" horiz-adv-x="702" 
d="M360 705q-37 0 -56 -30t-28 -108l-190 66q14 77 39.5 121t87 70t166.5 26q122 0 178.5 -44.5t56.5 -137.5q0 -67 -10.5 -110t-43 -82t-73.5 -67.5t-122 -74.5q-84 -48 -109 -84t-33 -103h340l-18 -147h-549q8 62 12.5 96.5t13 76t16.5 62.5t23 49t31.5 43.5t44 38
t58 40.5t75.5 43q89 48 117.5 85.5t28.5 108.5q0 33 -13 47.5t-43 14.5z" />
    <glyph glyph-name="uni2083" unicode="&#x2083;" horiz-adv-x="700" 
d="M285 133q98 0 98 141q0 48 -18.5 64t-61.5 16h-70l19 148h72q35 0 55 30.5t20 112.5q0 34 -12 47t-43 13q-41 0 -58 -28t-28 -106l-180 62q23 114 85.5 165.5t201.5 51.5q124 0 179.5 -46t55.5 -163q0 -162 -119 -209q50 -13 75.5 -49.5t25.5 -114.5q0 -132 -73.5 -206
t-250.5 -74q-48 0 -85 5.5t-70 20t-53 39t-30 62.5t-6 90l203 69q-4 -33 -5 -64.5t17 -54t56 -22.5z" />
    <glyph glyph-name="uni2084" unicode="&#x2084;" horiz-adv-x="698" 
d="M580 180h-80l-23 -180h-190l22 180h-303l14 127l338 543h224l-64 -522h78zM328 328l51 319l-182 -321z" />
    <glyph glyph-name="uni2085" unicode="&#x2085;" horiz-adv-x="696" 
d="M283 133q49 0 77.5 52.5t28.5 156.5q0 51 -16.5 70.5t-50.5 19.5q-32 0 -61.5 -19.5t-43.5 -47.5l-160 55l74 418h485l-18 -150h-311l-31 -176q62 59 154 59q87 0 131.5 -46.5t44.5 -162.5q0 -190 -80 -282t-242 -92q-138 0 -195 46.5t-53 158.5l205 69q-2 -38 -2 -66.5
t15.5 -45.5t48.5 -17z" />
    <glyph glyph-name="uni2086" unicode="&#x2086;" horiz-adv-x="704" 
d="M360 709q-51 0 -69.5 -45.5t-34.5 -186.5q36 48 77 68t97 20q86 0 123 -41.5t37 -132.5q0 -208 -73 -305.5t-249 -97.5q-131 0 -182 57.5t-51 204.5q0 111 14 217q13 91 35 157t59.5 119.5t97 80t140.5 26.5q122 0 176.5 -39.5t54.5 -126.5l-200 -68q13 93 -52 93z
M336 422q-63 0 -100 -113q-5 -39 -5 -78q0 -102 56 -102q98 0 98 221q0 72 -49 72z" />
    <glyph glyph-name="uni2087" unicode="&#x2087;" horiz-adv-x="688" 
d="M289 0h-213l264 535l84 155l-135 -2h-217l18 150h559l-12 -101z" />
    <glyph glyph-name="uni2088" unicode="&#x2088;" horiz-adv-x="696" 
d="M354 700q-43 0 -65.5 -28.5t-22.5 -96.5q0 -79 64 -79q40 0 64 33.5t24 101.5q0 39 -15 54t-49 15zM313 360q-54 0 -82 -28.5t-28 -114.5q0 -84 82 -84q56 0 82 36t26 110q0 48 -19.5 64.5t-60.5 16.5zM268 -12q-142 0 -202 49t-60 143q0 110 38.5 171.5t98.5 82.5
q-34 12 -51.5 52t-17.5 98q0 144 71 205t228 61q129 0 187 -44t58 -142q0 -85 -32.5 -148t-87.5 -82q88 -36 88 -166q0 -139 -71 -209.5t-247 -70.5z" />
    <glyph glyph-name="uni2089" unicode="&#x2089;" horiz-adv-x="704" 
d="M285 129q51 0 68.5 40.5t37.5 182.5q-36 -47 -76.5 -63.5t-99.5 -16.5q-83 0 -119.5 47t-36.5 158q0 188 74 280.5t246 92.5q133 0 184 -58.5t51 -205.5q0 -91 -12 -193q-11 -97 -31.5 -166.5t-58.5 -126t-101 -84.5t-151 -28q-123 0 -177 38t-54 124l202 71
q-7 -39 5 -65.5t49 -26.5zM313 416q70 0 99 147q3 82 -19 96q-31 50 -78 -34q-55 -22 -55 -131q0 -78 53 -78z" />
    <glyph glyph-name="uni208A" unicode="&#x208a;" horiz-adv-x="839" 
d="M248 117l26 217h-217l27 211h217l25 217h211l-25 -217h215l-25 -211h-215l-28 -217h-211z" />
    <glyph glyph-name="uni208B" unicode="&#x208b;" horiz-adv-x="839" 
d="M702 334h-645l27 211h643z" />
    <glyph glyph-name="uni208C" unicode="&#x208c;" horiz-adv-x="839" 
d="M684 188h-643l22 193h644zM721 498h-643l24 192h643z" />
    <glyph glyph-name="uni208D" unicode="&#x208d;" horiz-adv-x="569" 
d="M487 932q-176 -321 -176 -678q0 -197 51 -358h-200q-64 183 -64 366q0 348 191 670h198z" />
    <glyph glyph-name="uni208E" unicode="&#x208e;" horiz-adv-x="569" 
d="M23 -104q176 318 176 673q0 199 -52 363h201q64 -183 64 -367q0 -351 -191 -669h-198z" />
    <glyph glyph-name="uni20A1" unicode="&#x20a1;" horiz-adv-x="1044" 
d="M1055 1659l-72 -170q75 -85 61 -256l-196 -68l-399 -946q12 -2 38 -2q90 0 129 45.5t56 165.5l262 -90q-21 -129 -68 -205t-143 -116t-254 -40q-36 0 -119 9l-33 -80h-79l41 96q-27 8 -54 25l-51 -121h-78l70 166q-94 103 -94 354q0 188 22 358q19 156 42 269.5t56 206
t74.5 152.5t100.5 100.5t132 57.5t169 17q66 0 131 -10l35 82h79l-43 -98q31 -9 56 -25l51 123h78zM373 782q-25 -208 -29 -286l352 839q-29 13 -71 13q-40 0 -70 -11.5t-54.5 -41.5t-41.5 -70t-32.5 -108.5t-27.5 -144.5t-26 -190zM352 328q9 -44 33 -72l375 889
q7 85 -8 131z" />
    <glyph glyph-name="uni20A2" unicode="&#x20a2;" horiz-adv-x="1044" 
d="M760 1137q5 41 2 79t-12.5 67.5t-40.5 47t-84 17.5q-40 0 -70 -11.5t-54.5 -41.5t-41.5 -70t-32.5 -108.5t-27.5 -144.5t-26 -190q-29 -230 -29 -342q0 -108 24.5 -164.5t82.5 -76.5l55 460l29 283h155v-119q100 142 232 142q56 0 86 -21l-45 -248q-21 9 -70 9
q-110 0 -209 -99l-49 -407q62 18 91.5 69.5t43.5 159.5l168 -57q-15 -106 -42.5 -176t-81 -121t-137.5 -74t-208 -23q-218 0 -307.5 101t-89.5 348q0 188 22 358q19 156 42 269.5t56 206t74.5 152.5t100.5 100.5t132 57.5t169 17q99 0 170 -17t122 -57t72 -109.5t12 -170.5z
" />
    <glyph glyph-name="franc" unicode="&#x20a3;" horiz-adv-x="923" 
d="M524 1016h285l-21 -176h-286l-13 -115h285l-22 -176h-285l-66 -549h-276l65 549h-124l22 176h125l14 115h-125l21 176h125l67 549h668l-31 -248h-391z" />
    <glyph glyph-name="lira" unicode="&#x20a4;" horiz-adv-x="1134" 
d="M727 1360q-46 0 -75.5 -12.5t-47 -43.5t-25.5 -67.5t-16 -101.5l-20 -154h286l-20 -178h-289l-14 -115h289l-23 -176h-287l-32 -264h551l-29 -248h-975l29 248h153l33 264h-154l23 176h152l14 115h-152l21 178h153l25 188q11 88 26.5 148t47 115t80 86.5t124.5 50
t181 18.5q97 0 165 -15t109 -44.5t63 -73t26 -100t-1 -125.5l-280 -94q9 77 7.5 127t-29 74t-89.5 24z" />
    <glyph glyph-name="uni20A6" unicode="&#x20a6;" horiz-adv-x="1310" 
d="M631 1565l119 -549h157l68 549h248l-68 -549h125l-20 -176h-125l-15 -115h125l-22 -176h-125l-66 -549h-313l-123 549h-156l-65 -549h-250l65 549h-124l22 176h125l14 115h-125l21 176h125l67 549h316zM786 840l64 -342l37 342h-101zM496 1067l-35 -342h100z" />
    <glyph glyph-name="peseta" unicode="&#x20a7;" horiz-adv-x="2469" 
d="M2064 1108q181 0 263 -57.5t75 -202.5l-276 -94q4 36 3 68.5t-24.5 55.5t-66.5 23q-125 0 -125 -153q0 -47 27.5 -67.5t95.5 -33.5q71 -9 116 -17.5t92 -26t73 -43t42.5 -67.5t16.5 -100q0 -416 -475 -416q-220 0 -291 68q-106 -68 -267 -68q-176 0 -247.5 76.5
t-53.5 222.5l72 584h-121q-110 -321 -456 -321h-160l-66 -539h-278l190 1565h439q67 0 119.5 -9t102.5 -34.5t82.5 -67t52 -109.5t19.5 -159q0 -35 -4 -101h109l35 287l268 4l-35 -291h197l-29 -225h-197l-67 -549q-7 -56 21 -80t89 -24q101 0 156 65l4 4l234 64
q-4 -33 -1.5 -61.5t12 -49.5t34.5 -33t67 -12q160 0 160 162q0 54 -34.5 76.5t-112.5 36.5q-69 8 -115 17.5t-89.5 27t-68 43t-39 65.5t-14.5 95q0 401 446 401zM408 786h145q203 0 203 359q0 93 -34.5 132.5t-105.5 39.5h-145z" />
    <glyph glyph-name="uni20A8" unicode="&#x20a8;" horiz-adv-x="1904" 
d="M381 567l-70 -567h-278l190 1565h439q84 0 148 -17.5t117.5 -58.5t82 -117t28.5 -184q0 -444 -258 -572q95 -432 430 -432q83 0 141 8t91.5 20.5t52 34t24 42.5t5.5 53q0 57 -32.5 79.5t-111.5 37.5q-86 10 -140.5 24t-100 41.5t-66 74t-20.5 116.5q0 110 35 188.5
t98.5 122t140 63t172.5 19.5q181 0 263 -57.5t75 -202.5l-276 -94q4 36 3 68.5t-24.5 55.5t-66.5 23q-125 0 -125 -151q0 -49 27.5 -69.5t97.5 -33.5q69 -8 115 -17t91.5 -27.5t72 -45.5t42.5 -70.5t16 -103.5q0 -218 -147 -312t-485 -94q-132 0 -234.5 28.5t-171 77
t-118.5 125.5t-78.5 161.5t-49.5 197.5h-145zM410 815h145q201 0 201 338q0 87 -34.5 125.5t-105.5 38.5h-145z" />
    <glyph glyph-name="uni20A9" unicode="&#x20a9;" horiz-adv-x="1576" 
d="M856 -14l-2 563h-162l-139 -563h-350l10 563h-147l22 176h127l2 115h-115l21 176h98l10 549h263l-25 -549h139l144 549h290l9 -549h141l108 549h263l-125 -549h98l-20 -176h-117l-27 -115h129l-22 -176h-146l-127 -563h-350zM764 840l-29 -115h119v115h-90zM1053 840
l2 -115h80l22 115h-104zM455 725h80l28 115h-102zM854 1206l-47 -190h47v190zM1057 549l4 -197l39 197h-43zM446 549l-8 -197l51 197h-43z" />
    <glyph glyph-name="uni20AA" unicode="&#x20aa;" horiz-adv-x="1286" 
d="M223 1565h322q394 0 348 -375l-105 -856h-141l103 848q9 75 -22 110t-105 35h-179l-161 -1327h-250zM696 0h-323l149 1231h144l-121 -993h178q74 0 113.5 35t48.5 110l145 1182h250l-145 -1190q-46 -375 -439 -375z" />
    <glyph glyph-name="Euro" unicode="&#x20ac;" horiz-adv-x="1120" 
d="M782 725l-73 -176h-273q-6 -68 -6 -121q0 -116 32 -163.5t111 -47.5q90 0 130 45.5t57 165.5l260 -90q-15 -95 -44.5 -160t-82.5 -111.5t-135.5 -68t-200.5 -21.5q-215 0 -304.5 96.5t-94.5 332.5q0 64 6 143h-129l22 176h121q0 5 3 28t3 27l9 60h-121l20 176h129
q59 318 176 444.5t359 126.5q116 0 192.5 -21t118 -67.5t55.5 -110t8 -157.5l-284 -94q11 115 -15.5 163t-117.5 48q-95 0 -141.5 -73t-77.5 -259h407l-70 -176h-364l-6 -60l-8 -55h329z" />
    <glyph glyph-name="uni20AE" unicode="&#x20ae;" horiz-adv-x="866" 
d="M111 471l170 88l14 119l-170 -88l20 176l170 88l58 463h-232l31 248h741l-30 -248h-234l-39 -311l189 98l-23 -178l-186 -97l-15 -118l187 96l-23 -176l-186 -96l-64 -535h-276l45 383l-170 -88z" />
    <glyph glyph-name="uni20B1" unicode="&#x20b1;" horiz-adv-x="1275" 
d="M469 512l-61 -512h-277l100 836h-129l21 176h131l6 53h-129l23 176h127l41 324h438q77 0 137 -15t111 -50.5t82.5 -100.5t39.5 -158h138l-23 -176h-115l-4 -53h111l-20 -176h-130q-108 -324 -456 -324h-162zM844 1012l4 53h-309l-9 -53h314zM502 772h147q85 0 133 64
h-272zM831 1241q-33 62 -116 62h-148l-8 -62h272z" />
    <glyph glyph-name="afii61289" unicode="&#x2113;" horiz-adv-x="886" 
d="M559 -29q-191 0 -281 75t-110 218v88q-17 -10 -42.5 -26.5t-43.5 -28t-23 -14.5v229l101 76v477q0 149 26.5 254.5t76 164t110.5 84t139 25.5q283 0 283 -331q0 -382 -359 -732v-180q0 -73 30 -100.5t101 -32.5q81 -7 166 39l23 -252q-92 -33 -197 -33zM436 1157v-285
q58 71 101 179t43 215q0 94 -62 94q-82 0 -82 -203z" />
    <glyph glyph-name="published" unicode="&#x2117;" horiz-adv-x="1884" 
d="M813 598h213q63 0 121 15t111 48t92 82t62.5 121.5t23.5 161.5q0 77 -25 135t-70 93t-101.5 52t-123.5 17h-459l-129 -1049h246zM1049 838h-205l28 245h205q107 0 107 -98q0 -79 -38.5 -113t-96.5 -34zM123 698q0 138 47.5 275.5t135 253.5t202 206.5t258 141.5t293.5 51
q207 0 375 -95.5t262 -261t94 -368.5q0 -184 -77.5 -356.5t-205.5 -297.5t-299.5 -200.5t-351.5 -75.5q-208 0 -376.5 96t-262.5 262t-94 369z" />
    <glyph glyph-name="servicemark" unicode="&#x2120;" horiz-adv-x="1265" 
d="M457 1415q0 62 -72 62q-84 0 -84 -52q0 -19 30 -26t72.5 -11t84.5 -14.5t72 -45t30 -93.5q0 -95 -77.5 -148t-184.5 -53q-108 0 -161.5 37.5t-57.5 118.5l147 51q0 -74 78 -74q46 0 74 15t28 41q0 19 -21.5 29.5t-53.5 14t-69.5 11.5t-69.5 19t-53.5 40t-21.5 72
q0 98 71 148.5t177 50.5q103 0 153 -36t56 -108zM1022 1044h-139l-56 256l-12 68l-8 -76l-31 -248h-151l67 553h209l60 -282l16 -80l33 80l129 282h209l-68 -553h-152l31 248l12 76l-32 -68z" />
    <glyph glyph-name="trademark" unicode="&#x2122;" horiz-adv-x="1251" 
d="M1008 1044h-140l-55 256l-12 68l-8 -76l-31 -248h-152l68 553h209l59 -282l17 -80l32 80l129 282h209l-67 -553h-152l31 248l12 76l-33 -68zM436 1456l-51 -412h-147l51 412h-162l16 141h471l-16 -141h-162z" />
    <glyph glyph-name="ohm" unicode="&#x2126;" horiz-adv-x="1474" 
d="M737 1341q-183 0 -285 -111.5t-102 -305.5q0 -113 26.5 -219.5t73 -193.5t100.5 -156t118 -128v-227h-609v252h162l170 -4q-133 143 -220 328t-87 382q0 284 175 459.5t478 175.5t478.5 -175.5t175.5 -459.5q0 -197 -87 -381.5t-221 -328.5l170 4h162v-252h-608v227
q64 59 117.5 128t100 156t73 193.5t26.5 219.5q0 194 -102 305.5t-285 111.5z" />
    <glyph glyph-name="estimated" unicode="&#x212e;" horiz-adv-x="1699" 
d="M1649 696h-1287q7 -119 36 -213t85 -171t150 -119t221 -43q231 -1 370 97t171 283h223q-21 -144 -84.5 -252t-164 -174.5t-230 -99.5t-289.5 -33q-175 0 -323 57.5t-253 162t-164 257.5t-59 338q0 246 101.5 432.5t282.5 286t415 99.5t415 -99.5t282.5 -286t101.5 -432.5
v-90zM852 1427q-102 0 -183.5 -28.5t-135.5 -77.5t-91.5 -120t-55.5 -149.5t-24 -172.5h975q-5 93 -23.5 172t-55.5 149.5t-91 120t-134.5 78t-180.5 28.5z" />
    <glyph glyph-name="uni2153" unicode="&#x2153;" horiz-adv-x="1742" 
d="M580 735h-500l18 150h152l57 463q-66 -54 -174 -78l21 168q65 17 125.5 58t97.5 89h155l-88 -700h154zM256 0l991 1565h211l-991 -1565h-211zM1325 133q100 0 100 141q0 49 -18.5 65.5t-60.5 16.5h-72l20 148h72q35 0 55.5 30t20.5 111q0 34 -13 47t-45 13q-41 0 -58 -28
t-26 -104l-180 62q21 113 84 164t201 51q125 0 181 -46t56 -163q0 -164 -118 -207q50 -13 74 -49.5t24 -116.5q0 -132 -73 -206t-249 -74q-127 0 -190.5 47t-52.5 170l200 69q-3 -32 -4 -63.5t17 -54.5t55 -23z" />
    <glyph glyph-name="uni2154" unicode="&#x2154;" horiz-adv-x="1775" 
d="M424 1442q-38 0 -56.5 -29.5t-27.5 -107.5l-190 63q14 79 39 122.5t86 69t167 25.5q122 0 179 -43.5t57 -136.5q0 -54 -8.5 -92.5t-23 -68.5t-48 -59t-69.5 -53t-101 -61q-84 -50 -108.5 -84.5t-32.5 -101.5h338l-17 -150h-551q8 62 13 96.5t14 76t17 63t23.5 49.5
t31.5 43.5t43.5 38t57.5 40t75 42.5q90 50 118.5 87.5t28.5 108.5q0 33 -12.5 47.5t-42.5 14.5zM289 0l989 1565h211l-989 -1565h-211zM1358 133q98 0 98 141q0 48 -18.5 65t-59.5 17h-71l18 148h72q37 0 56.5 30t19.5 111q0 34 -12.5 47t-43.5 13q-41 0 -58 -28t-26 -104
l-182 62q23 113 86 164t201 51q125 0 180 -46t55 -163q0 -164 -117 -207q49 -13 74 -50t25 -116q0 -132 -73 -206t-249 -74q-61 0 -105 9.5t-79.5 32.5t-51 67t-10.5 108l203 69q-3 -32 -4 -63.5t17 -54.5t55 -23z" />
    <glyph glyph-name="uni2155" unicode="&#x2155;" horiz-adv-x="1738" 
d="M580 735h-500l18 150h152l57 463q-66 -54 -174 -78l21 168q65 17 125.5 58t97.5 89h155l-88 -700h154zM256 0l991 1565h211l-991 -1565h-211zM1323 133q107 0 107 211q0 50 -17 70t-51 20q-30 0 -59 -19.5t-43 -47.5l-160 53l71 418h486l-19 -150h-309l-33 -176
q64 61 154 61q88 0 133 -47.5t45 -163.5q0 -189 -80 -281.5t-243 -92.5q-136 0 -194 47.5t-54 157.5l205 69q-2 -37 -2 -65.5t15 -46t48 -17.5z" />
    <glyph glyph-name="uni2156" unicode="&#x2156;" horiz-adv-x="1769" 
d="M424 1442q-38 0 -56.5 -29.5t-27.5 -107.5l-190 63q14 79 39 122.5t86 69t167 25.5q122 0 179 -43.5t57 -136.5q0 -54 -8.5 -92.5t-23 -68.5t-48 -59t-69.5 -53t-101 -61q-84 -50 -108.5 -84.5t-32.5 -101.5h338l-17 -150h-551q8 62 13 96.5t14 76t17 63t23.5 49.5
t31.5 43.5t43.5 38t57.5 40t75 42.5q90 50 118.5 87.5t28.5 108.5q0 33 -12.5 47.5t-42.5 14.5zM289 0l989 1565h211l-989 -1565h-211zM1356 133q106 0 106 211q0 50 -16.5 70t-50.5 20q-32 0 -61.5 -19.5t-43.5 -47.5l-160 53l74 418h486l-19 -150h-311l-31 -176
q64 61 154 61q87 0 132.5 -47.5t45.5 -163.5q0 -374 -324 -374q-137 0 -194 47.5t-53 157.5l204 69q-2 -37 -2 -65.5t15.5 -46t48.5 -17.5z" />
    <glyph glyph-name="uni2157" unicode="&#x2157;" horiz-adv-x="1769" 
d="M346 868q100 0 100 142q0 49 -18.5 65.5t-60.5 16.5h-72l20 147h72q36 0 56 30.5t20 112.5q0 34 -12.5 47t-44.5 13q-40 0 -57.5 -28t-26.5 -105l-181 61q23 114 85.5 164.5t201.5 50.5q125 0 180.5 -45.5t55.5 -161.5q0 -162 -119 -209q50 -13 74 -49t24 -116
q0 -63 -15.5 -111t-51 -87t-99.5 -60t-155 -21q-61 0 -105 9.5t-79 32.5t-50.5 66.5t-9.5 106.5l201 72q-3 -33 -4 -65t16.5 -55.5t54.5 -23.5zM287 0l991 1565h211l-991 -1565h-211zM1354 133q106 0 106 211q0 50 -16.5 70t-50.5 20q-31 0 -60.5 -19t-44.5 -48l-158 53
l72 418h486l-19 -150h-309l-33 -176q64 61 154 61q88 0 133 -47.5t45 -163.5q0 -374 -324 -374q-136 0 -194 47.5t-54 157.5l205 69q-2 -37 -2 -65.5t15.5 -46t48.5 -17.5z" />
    <glyph glyph-name="uni2158" unicode="&#x2158;" horiz-adv-x="1767" 
d="M643 918h-80l-22 -183h-191l23 183h-303l14 126l338 541h223l-65 -520h79zM391 1065l49 319l-180 -323zM287 0l989 1565h211l-989 -1565h-211zM1354 133q49 0 77.5 53t28.5 158q0 50 -16.5 70t-50.5 20q-32 0 -61.5 -19.5t-43.5 -47.5l-160 53l74 418h486l-19 -150h-311
l-31 -176q64 61 154 61q87 0 131.5 -47.5t44.5 -163.5q0 -374 -322 -374q-137 0 -194.5 47.5t-53.5 157.5l205 69q-2 -37 -2 -65.5t15.5 -46t48.5 -17.5z" />
    <glyph glyph-name="uni2159" unicode="&#x2159;" horiz-adv-x="1746" 
d="M580 735h-500l18 150h152l57 463q-66 -54 -174 -78l21 168q65 17 125.5 58t97.5 89h155l-88 -700h154zM256 0l991 1565h211l-991 -1565h-211zM1403 709q-52 0 -70.5 -44.5t-36.5 -187.5q37 49 78.5 68.5t98.5 19.5q85 0 121 -40.5t36 -131.5q0 -209 -71.5 -307
t-247.5 -98q-131 0 -182.5 58t-51.5 204q0 110 13 201q12 95 33 163.5t58 124t97.5 83.5t144.5 28q123 0 177.5 -39t54.5 -125l-201 -70q4 42 -5.5 67.5t-45.5 25.5zM1376 422q-27 0 -48.5 -21.5t-31.5 -45.5t-20 -60q-4 -54 -4 -64q0 -100 55 -100q100 0 100 219
q0 39 -12 55.5t-39 16.5z" />
    <glyph glyph-name="uni215A" unicode="&#x215a;" horiz-adv-x="1771" 
d="M346 868q49 0 77 53t28 158q0 50 -17 70t-51 20q-30 0 -59 -19.5t-43 -47.5l-160 55l72 418h485l-19 -150h-309l-33 -178q65 62 154 62q88 0 133 -47.5t45 -163.5q0 -189 -80 -281t-243 -92q-136 0 -193.5 46.5t-54.5 156.5l205 69q-2 -37 -2 -65.5t15.5 -46t49.5 -17.5z
M1483 1565l-989 -1565h-211l989 1565h211zM1427 709q-50 0 -68 -44t-36 -188q37 49 77.5 68.5t96.5 19.5q87 0 123.5 -40.5t36.5 -131.5q0 -209 -72 -307t-248 -98q-133 0 -184 58t-51 204q0 87 12 186q11 98 31 168.5t57.5 129t99 87.5t148.5 29q121 0 175 -39t54 -125
l-200 -70q12 93 -52 93zM1403 422q-68 0 -100 -119q-5 -36 -5 -72q0 -100 56 -100q51 0 74.5 53t23.5 166q0 39 -12 55.5t-37 16.5z" />
    <glyph glyph-name="uni215B" unicode="&#x215b;" horiz-adv-x="1738" 
d="M580 735h-500l18 150h152l57 463q-66 -54 -174 -78l21 168q65 17 125.5 58t97.5 89h155l-88 -700h154zM256 0l991 1565h211l-991 -1565h-211zM1397 702q-44 0 -67 -28.5t-23 -95.5q0 -82 65 -82q40 0 63 34t23 101q0 40 -14 55.5t-47 15.5zM1354 362q-53 0 -81 -29.5
t-28 -115.5q0 -42 19.5 -62t62.5 -20q109 0 109 144q0 49 -20.5 66t-61.5 17zM1309 -12q-142 0 -201 49t-59 143q0 204 135 256q-33 12 -51.5 52t-18.5 98q0 143 71.5 203.5t229.5 60.5q129 0 186.5 -43.5t57.5 -142.5q0 -85 -32.5 -148t-86.5 -80q86 -37 86 -168
q0 -138 -71 -209t-246 -71z" />
    <glyph glyph-name="uni215C" unicode="&#x215c;" horiz-adv-x="1769" 
d="M346 868q100 0 100 142q0 49 -18.5 65.5t-60.5 16.5h-72l20 147h72q36 0 56 30.5t20 112.5q0 34 -12.5 47t-44.5 13q-40 0 -57.5 -28t-26.5 -105l-181 61q23 114 85.5 164.5t201.5 50.5q125 0 180.5 -45.5t55.5 -161.5q0 -162 -119 -209q50 -13 74 -49t24 -116
q0 -63 -15.5 -111t-51 -87t-99.5 -60t-155 -21q-61 0 -105 9.5t-79 32.5t-50.5 66.5t-9.5 106.5l201 72q-3 -33 -4 -65t16.5 -55.5t54.5 -23.5zM287 0l991 1565h211l-991 -1565h-211zM1425 702q-88 0 -88 -124q0 -40 17 -61t47 -21q40 0 64 34t24 101q0 40 -15 55.5
t-49 15.5zM1384 362q-53 0 -81.5 -29.5t-28.5 -115.5q0 -82 82 -82q110 0 110 144q0 49 -20.5 66t-61.5 17zM1339 -12q-142 0 -201 49t-59 143q0 204 135 256q-33 12 -51 52t-18 98q0 143 71.5 203.5t229.5 60.5q129 0 186.5 -43.5t57.5 -142.5q0 -85 -33 -148t-88 -80
q88 -36 88 -168q0 -138 -71.5 -209t-246.5 -71z" />
    <glyph glyph-name="uni215D" unicode="&#x215d;" horiz-adv-x="1765" 
d="M346 868q49 0 77 53t28 158q0 50 -17 70t-51 20q-30 0 -59 -19.5t-43 -47.5l-160 55l72 418h485l-19 -150h-309l-33 -178q65 62 154 62q88 0 133 -47.5t45 -163.5q0 -189 -80 -281t-243 -92q-136 0 -193.5 46.5t-54.5 156.5l205 69q-2 -37 -2 -65.5t15.5 -46t49.5 -17.5z
M283 0l989 1565h211l-989 -1565h-211zM1421 702q-88 0 -88 -124q0 -82 64 -82q40 0 64 34t24 101q0 40 -15 55.5t-49 15.5zM1380 362q-53 0 -81.5 -29.5t-28.5 -115.5q0 -42 19.5 -62t62.5 -20q110 0 110 144q0 49 -20.5 66t-61.5 17zM1335 -12q-142 0 -201 49t-59 143
q0 204 135 256q-33 12 -51 52t-18 98q0 143 71.5 203.5t229.5 60.5q128 0 186 -43.5t58 -142.5q0 -85 -33 -148t-88 -80q88 -36 88 -168q0 -138 -71.5 -209t-246.5 -71z" />
    <glyph glyph-name="uni215E" unicode="&#x215e;" horiz-adv-x="1751" 
d="M434 735h-215l266 537l84 155l-135 -2h-217l19 150h559l-15 -100zM268 0l992 1565h210l-991 -1565h-211zM1409 702q-44 0 -67 -28.5t-23 -95.5q0 -82 65 -82q40 0 64.5 34.5t24.5 100.5q0 40 -15 55.5t-49 15.5zM1368 362q-54 0 -82.5 -29.5t-28.5 -115.5q0 -42 19.5 -62
t62.5 -20q109 0 109 144q0 49 -20 66t-60 17zM1323 -12q-143 0 -202.5 49t-59.5 143q0 205 137 256q-35 12 -53.5 52t-18.5 98q0 143 71.5 203.5t229.5 60.5q130 0 188 -43.5t58 -142.5q0 -85 -33 -148t-88 -80q86 -37 86 -168q0 -138 -70.5 -209t-244.5 -71z" />
    <glyph glyph-name="uni215F" unicode="&#x215f;" horiz-adv-x="1110" 
d="M524 735h-501l18 150h152l57 463q-65 -53 -172 -78l18 168q65 17 125.5 58t97.5 89h156l-88 -700h156zM199 0l991 1565h211l-991 -1565h-211z" />
    <glyph glyph-name="arrowleft" unicode="&#x2190;" horiz-adv-x="1802" 
d="M973 453v-310l-899 568v176l899 567v-309l-256 -148l-129 -73l332 6h780v-262h-780l-332 6l129 -74z" />
    <glyph glyph-name="arrowup" unicode="&#x2191;" horiz-adv-x="1802" 
d="M555 729h-309l567 897h176l567 -897h-309l-147 254l-74 131l6 -332v-782h-262v782l6 332l-74 -131z" />
    <glyph glyph-name="arrowright" unicode="&#x2192;" horiz-adv-x="1802" 
d="M829 143v310l256 147l129 74l-331 -6h-781v262h781l331 -6l-129 73l-256 148v309l900 -567v-176z" />
    <glyph glyph-name="arrowdown" unicode="&#x2193;" horiz-adv-x="1802" 
d="M1247 870h309l-567 -899h-176l-567 899h309l147 -256l74 -131l-6 332v782h262v-782l-6 -332l74 131z" />
    <glyph glyph-name="uni2196" unicode="&#x2196;" horiz-adv-x="1802" 
d="M512 684l-219 -219l-234 1036l125 125l1037 -233l-220 -217l-282 75l-146 39l238 -229l553 -553l-186 -186l-551 552l-230 240l39 -145z" />
    <glyph glyph-name="uni2197" unicode="&#x2197;" horiz-adv-x="1802" 
d="M1509 465l-219 219l76 285l39 145l-229 -240l-551 -552l-187 186l553 553l238 229l-146 -39l-282 -75l-219 217l1036 233l125 -125z" />
    <glyph glyph-name="uni2198" unicode="&#x2198;" horiz-adv-x="1802" 
d="M1290 928l219 219l234 -1038l-125 -123l-1036 233l219 217l282 -76l146 -38l-238 229l-553 553l187 186l551 -553l229 -239l-39 145z" />
    <glyph glyph-name="uni2199" unicode="&#x2199;" horiz-adv-x="1802" 
d="M293 1147l219 -219l-76 -285l-39 -145l230 239l551 553l186 -186l-553 -553l-238 -229l146 38l282 76l220 -217l-1037 -233l-125 123z" />
    <glyph glyph-name="partialdiff" unicode="&#x2202;" horiz-adv-x="1492" 
d="M170 1466q229 150 508 150q335 0 516.5 -218t181.5 -614q0 -411 -156 -612t-489 -201q-175 0 -309.5 60t-213.5 183.5t-79 295.5q0 268 141 403.5t410 135.5q54 0 111.5 -11t116 -33.5t108.5 -64.5t78 -98v43q5 124 -27 219t-92 150.5t-134.5 83.5t-160.5 30
q-213 0 -391 -121zM709 801q-134 -2 -213.5 -72.5t-79.5 -218.5q0 -144 89.5 -215.5t225.5 -73.5q265 -6 328 230q2 8 2 20q7 159 -94.5 245.5t-257.5 84.5z" />
    <glyph glyph-name="increment" unicode="&#x2206;" horiz-adv-x="1802" 
d="M127 0v127l698 1458h152l698 -1458v-127h-1548zM983 979l-82 180l-82 -180l-346 -729l170 4h516l170 -2z" />
    <glyph glyph-name="product" unicode="&#x220f;" horiz-adv-x="1648" 
d="M1077 1311h-506v-1311h-288v1311h-205v254h1491v-254h-205v-1311h-287v1311z" />
    <glyph glyph-name="summation" unicode="&#x2211;" horiz-adv-x="1425" 
d="M156 1325v240h1132v-254h-379l-301 2l496 -422v-180l-518 -459l303 2h436v-254h-1204v227l670 574z" />
    <glyph glyph-name="minus" unicode="&#x2212;" horiz-adv-x="1474" 
d="M1290 662h-1106v274h1106v-274z" />
    <glyph glyph-name="radical" unicode="&#x221a;" horiz-adv-x="1744" 
d="M791 504l600 1061h315l-907 -1571h-305l-193 805l-227 -49v266l432 98l131 -598l47 -217z" />
    <glyph glyph-name="infinity" unicode="&#x221e;" horiz-adv-x="1679" 
d="M719 799q-32 42 -57.5 68t-71 51t-96.5 28q-69 2 -113.5 -35t-44.5 -112t44 -111.5t114 -36.5q39 2 73 15.5t62.5 37t47 44t42.5 51.5zM840 635q-75 -86 -157.5 -135t-186.5 -49q-169 0 -268 89.5t-99 258.5t99 258.5t268 89.5q104 0 186.5 -49t157.5 -135
q155 184 344 184q169 0 267.5 -89.5t98.5 -258.5t-98.5 -258.5t-267.5 -89.5q-189 0 -344 184zM961 799q24 -31 42.5 -51.5t47 -44t62.5 -37t73 -15.5q69 -2 113 35t44 113q0 75 -43.5 111t-113.5 36q-51 -3 -96.5 -28t-71 -51t-57.5 -68z" />
    <glyph glyph-name="integral" unicode="&#x222b;" horiz-adv-x="585" 
d="M432 1221v-1254q0 -405 -428 -405q-112 0 -197 32l23 252q84 -46 166 -39q80 5 119 43t39 134v1255q0 406 430 406q113 0 194 -35l-22 -252q-28 18 -74 31.5t-90 9.5q-80 -5 -120 -43t-40 -135z" />
    <glyph glyph-name="approxequal" unicode="&#x2248;" horiz-adv-x="1474" 
d="M1006 795q-72 0 -134.5 12.5t-109 30t-90.5 35t-98 30t-113 12.5q-54 0 -108.5 -25.5t-82.5 -51.5l-28 -25l-117 201q5 7 15 18t43.5 39.5t70.5 50.5t96 40t121 18q87 0 164.5 -19t125 -41.5t116 -41.5t139.5 -19q54 0 108.5 25.5t82.5 51.5l28 25l117 -200
q-5 -7 -15 -18t-43.5 -39.5t-70.5 -50.5t-96 -40t-121 -18zM471 813q87 0 164.5 -19t125 -41.5t116 -41.5t139.5 -19q54 0 108.5 26t82.5 52l28 25l117 -201q-5 -7 -15 -18t-43.5 -39.5t-70.5 -50.5t-96 -40t-121 -18q-87 0 -164.5 19t-125 41.5t-116 41.5t-139.5 19
q-34 0 -69 -10.5t-60.5 -25.5t-46.5 -30.5t-32 -26.5l-11 -10l-117 201q5 7 15 18t43.5 39.5t70.5 50.5t96 40t121 18z" />
    <glyph glyph-name="notequal" unicode="&#x2260;" horiz-adv-x="1474" 
d="M1290 426h-669l-80 -127h-234l80 127h-203v274h375l123 197h-498v274h670l80 127h233l-80 -127h203v-274h-375l-122 -197h497v-274z" />
    <glyph glyph-name="equivalence" unicode="&#x2261;" horiz-adv-x="1474" 
d="M1290 246h-1106v274h1106v-274zM1290 1077h-1106v275h1106v-275zM1290 662h-1106v274h1106v-274z" />
    <glyph glyph-name="lessequal" unicode="&#x2264;" horiz-adv-x="1474" 
d="M1290 178l-1106 348v195l1106 -340v-203zM184 813v252l1106 340v-299l-481 -109l-256 -55l256 -41l481 -92v-299z" />
    <glyph glyph-name="greaterequal" unicode="&#x2265;" horiz-adv-x="1474" 
d="M1290 526l-1106 -348v203l1106 340v-195zM1290 1065v-252l-1106 -303v299l482 92l256 41l-256 55l-482 109v299z" />
    <glyph glyph-name="squaremultiply" unicode="&#x22a0;" horiz-adv-x="2039" 
d="M221 0v1597h1598v-1597h-1598zM1542 1329h-1044v-1061h1044v1061zM537 502l297 297l-297 297l186 186l297 -297l297 297l186 -186l-297 -297l297 -297l-186 -187l-297 297l-297 -297z" />
    <glyph glyph-name="house" unicode="&#x2302;" horiz-adv-x="1781" 
d="M1618 0h-1454v922l727 696l727 -696v-922z" />
    <glyph glyph-name="blacksquare" unicode="&#x25a0;" horiz-adv-x="2039" 
d="M1819 1597v-1597h-1598v1597h1598z" />
    <glyph glyph-name="whitesquare" unicode="&#x25a1;" horiz-adv-x="2039" 
d="M221 0v1597h1598v-1597h-1598zM1542 1329h-1044v-1061h1044v1061z" />
    <glyph glyph-name="blacksmallsquare" unicode="&#x25aa;" horiz-adv-x="1527" 
d="M1307 1085v-1085h-1086v1085h1086z" />
    <glyph glyph-name="whitesmallsquare" unicode="&#x25ab;" horiz-adv-x="1527" 
d="M221 0v1085h1086v-1085h-1086zM1030 817h-532v-549h532v549z" />
    <glyph glyph-name="triagup" unicode="&#x25b2;" horiz-adv-x="1679" 
d="M1638 0h-1597l799 1384z" />
    <glyph glyph-name="triagrt" unicode="&#x25ba;" horiz-adv-x="1679" 
d="M90 0v1597l1385 -798z" />
    <glyph glyph-name="triagdn" unicode="&#x25bc;" horiz-adv-x="1679" 
d="M41 1597h1597l-798 -1384z" />
    <glyph glyph-name="triaglf" unicode="&#x25c4;" horiz-adv-x="1679" 
d="M1475 1597v-1597l-1385 799z" />
    <glyph glyph-name="lozenge" unicode="&#x25ca;" horiz-adv-x="1884" 
d="M942 -20l-754 819l754 819l754 -819zM547 799l395 -439l395 439l-395 438z" />
    <glyph glyph-name="whitecircle" unicode="&#x25cb;" horiz-adv-x="2031" 
d="M1024 264q144 0 265.5 71.5t192 194.5t70.5 269t-70.5 269t-192 194t-265.5 71t-265.5 -71t-192 -194t-70.5 -269t70.5 -269t192 -194.5t265.5 -71.5zM1024 -29q-168 0 -321.5 65.5t-264 176.5t-176 264.5t-65.5 321.5t65.5 321.5t176 264t264 176t321.5 65.5
t321.5 -65.5t264 -176t176 -264t65.5 -321.5t-65.5 -321.5t-176 -264.5t-264 -176.5t-321.5 -65.5z" />
    <glyph glyph-name="whitecircle" unicode="&#x25ef;" horiz-adv-x="2031" 
d="M1024 264q144 0 265.5 71.5t192 194.5t70.5 269t-70.5 269t-192 194t-265.5 71t-265.5 -71t-192 -194t-70.5 -269t70.5 -269t192 -194.5t265.5 -71.5zM1024 -29q-168 0 -321.5 65.5t-264 176.5t-176 264.5t-65.5 321.5t65.5 321.5t176 264t264 176t321.5 65.5
t321.5 -65.5t264 -176t176 -264t65.5 -321.5t-65.5 -321.5t-176 -264.5t-264 -176.5t-321.5 -65.5z" />
    <glyph glyph-name="bullseye" unicode="&#x25ce;" horiz-adv-x="2007" 
d="M184 799q0 167 65 318.5t174.5 261t261.5 174.5t319 65t318.5 -65t261 -174.5t174.5 -261t65 -318.5t-65 -318.5t-174.5 -261t-261 -174.5t-318.5 -65t-319 65t-261.5 174.5t-174.5 261t-65 318.5zM696 799q0 127 90 217t218 90t217.5 -90t89.5 -217t-89.5 -217
t-217.5 -90t-218 90t-90 217zM342 694q0 -152 74.5 -280t202.5 -202.5t280 -74.5t280.5 74t203.5 202.5t75 280.5q0 114 -44 217.5t-119 178.5t-178.5 119t-217.5 44q-152 0 -280.5 -75t-202.5 -203.5t-74 -280.5z" />
    <glyph glyph-name="blackcircle" unicode="&#x25cf;" horiz-adv-x="2048" 
d="M197 799q0 168 65.5 321.5t176 264t264 176t321.5 65.5t321.5 -65.5t264 -176t176 -264t65.5 -321.5t-65.5 -321.5t-176 -264.5t-264 -176.5t-321.5 -65.5t-321.5 65.5t-264 176.5t-176 264.5t-65.5 321.5z" />
    <glyph glyph-name="uni25E2" unicode="&#x25e2;" horiz-adv-x="1679" 
d="M74 414l1130 1130l414 -1544z" />
    <glyph glyph-name="uni25E3" unicode="&#x25e3;" horiz-adv-x="1679" 
d="M475 1544l1131 -1130l-1545 -414z" />
    <glyph glyph-name="uni25E4" unicode="&#x25e4;" horiz-adv-x="1679" 
d="M1606 1184l-1131 -1131l-414 1544z" />
    <glyph glyph-name="uni25E5" unicode="&#x25e5;" horiz-adv-x="1679" 
d="M1204 53l-1130 1131l1544 413z" />
    <glyph glyph-name="uni2605" unicode="&#x2605;" horiz-adv-x="1843" 
d="M922 369l-533 -389l203 628l-533 387h660l203 627l202 -627h660l-533 -387l203 -628z" />
    <glyph glyph-name="ballotboxwithx" unicode="&#x2612;" horiz-adv-x="1536" 
d="M1311 1085v-1085h-1086v1085h1086zM573 543l-206 -207l194 -195l207 207l207 -207l194 195l-206 207l206 207l-194 194l-207 -207l-207 207l-194 -194z" />
    <glyph glyph-name="uni263C" unicode="&#x263c;" horiz-adv-x="2007" 
d="M1823 799l-346 -62l317 -149l-350 30l270 -229l-332 121l201 -289l-289 201l119 -332l-227 266l31 -348l-152 318l-61 -346l-62 346l-151 -318l30 348l-227 -266l119 332l-289 -201l201 289l-332 -121l270 229l-350 -30l317 149l-346 62l346 61l-317 150l350 -31
l-270 229l332 -121l-201 289l289 -200l-119 331l227 -266l-30 348l151 -317l62 346l61 -346l152 317l-31 -348l227 266l-119 -331l289 200l-201 -289l332 121l-270 -229l350 31l-317 -150z" />
    <glyph glyph-name="uni263E" unicode="&#x263e;" horiz-adv-x="2007" 
d="M1298 1491q-135 0 -258 -54.5t-211.5 -147.5t-141 -221t-52.5 -269t52.5 -269.5t141 -221t211.5 -147.5t258 -55q99 0 197 31q-218 -157 -491 -157q-167 0 -319 65t-261.5 174.5t-174.5 261t-65 318.5t65 318.5t174.5 261t261.5 174.5t319 65q267 0 491 -158
q-109 31 -197 31z" />
    <glyph glyph-name="spade" unicode="&#x2660;" horiz-adv-x="1884" 
d="M944 1618q66 -99 199 -238t278 -233q60 -39 104 -73t90.5 -79t75.5 -90t47.5 -102t18.5 -119q0 -150 -104.5 -253t-255.5 -103q-73 0 -139 27t-116.5 74t-89 104t-65.5 124l-6 -2q17 -209 54.5 -356t113.5 -299h-414q76 152 113.5 299t54.5 356l-6 2q-27 -67 -65.5 -124
t-89 -104t-116.5 -74t-139 -27q-151 0 -255.5 103t-104.5 253q0 62 18.5 119t47.5 102t75.5 90t90.5 79t104 73q145 94 278 233t199 238h4z" />
    <glyph glyph-name="club" unicode="&#x2663;" horiz-adv-x="1884" 
d="M735 0q76 152 113.5 299t54.5 356l-6 2q-27 -67 -65.5 -124t-89 -104t-116.5 -74t-139 -27q-151 0 -255.5 103t-104.5 253q0 161 99 265t257 104q84 0 172 -47l4 4q-77 116 -77 239q0 154 103 261.5t257 107.5t257.5 -107.5t103.5 -261.5q0 -121 -78 -239l4 -4
q88 47 172 47q158 0 257 -104t99 -265q0 -150 -104.5 -253t-255.5 -103q-73 0 -139 27t-116.5 74t-89 104t-65.5 124l-6 -2q17 -209 54.5 -356t113.5 -299h-414z" />
    <glyph glyph-name="heart" unicode="&#x2665;" horiz-adv-x="1884" 
d="M944 -20h-4q-59 89 -193.5 260t-283.5 340q-64 73 -114 136.5t-105 148.5t-86 170t-31 161q0 185 106.5 303.5t284.5 118.5q92 0 163.5 -25.5t120.5 -73t80.5 -100.5t55.5 -123h8q24 70 55.5 123t80.5 100.5t120.5 73t163.5 25.5q178 0 284.5 -118.5t106.5 -303.5
q0 -76 -31 -161t-86 -170t-105 -148.5t-114 -136.5q-149 -169 -283.5 -340t-193.5 -260z" />
    <glyph glyph-name="diamond" unicode="&#x2666;" horiz-adv-x="1884" 
d="M1694 799q-218 -170 -415.5 -386t-334.5 -433h-4q-137 217 -334.5 433t-415.5 386q218 170 415.5 386t334.5 433h4q137 -217 334.5 -433t415.5 -386z" />
    <glyph glyph-name="musicflatsign" unicode="&#x266d;" horiz-adv-x="1048" 
d="M137 -131v1812h172v-702q38 57 119.5 95t161.5 38q198 0 289.5 -101t91.5 -300q0 -137 -70.5 -271.5t-188.5 -242.5t-266 -192.5t-309 -135.5zM309 690v-540q57 24 115.5 58.5t122.5 87t112.5 112.5t80.5 138.5t32 160.5q0 213 -203 213q-92 0 -166 -71t-94 -159z" />
    <glyph glyph-name="musicsharpsign" unicode="&#x266f;" horiz-adv-x="995" 
d="M774 1802v-368l160 129v-263l-160 -129v-301l160 127v-262l-160 -127v-608h-172v469l-209 -168v-506h-172v369l-160 -129v262l160 129v301l-160 -127v262l160 127v608h172v-471l209 168v508h172zM393 864v-301l209 168v301z" />
    <glyph glyph-name="uni267B" unicode="&#x267b;" horiz-adv-x="2007" 
d="M1788 545l2 -4l-197 -342q-41 -60 -60 -77q-44 -38 -120 -38h-117v-100l-231 278l231 277v-101h297q54 0 102.5 27t70.5 53zM401 250h-4l-196 344q-23 42 -31.5 65.5t-5.5 63t29 82.5l57 100l-86 49l356 64l121 -340l-84 49q-143 -246 -147 -256q-17 -29 -24.5 -62.5
t-5.5 -60.5t6.5 -50t9.5 -36zM848 1595v2h395q37 -1 56.5 -3t46 -11t47 -29t39.5 -53l57 -100l88 49l-125 -340l-354 64l84 49l-148 256q-27 47 -73.5 76t-79.5 35zM430 1225l137 243q21 37 70 64q63 34 131.5 30.5t126.5 -33t80 -69.5l-238 -411zM934 84h-277q-43 0 -90 27
q-45 26 -76 70.5t-42.5 91.5t-9 91.5t19.5 73.5h475v-354zM1671 1079l141 -239q21 -38 21 -90q1 -99 -78 -178.5t-151 -79.5l-238 411z" />
    <glyph glyph-name="uni267C" unicode="&#x267c;" horiz-adv-x="2007" 
d="M1823 797q0 -167 -64.5 -318.5t-173.5 -260.5t-260.5 -173.5t-318.5 -64.5q-168 0 -320 64.5t-262 173.5t-175 260.5t-65 318.5q0 168 65 320t175 261.5t262 174.5t320 65q167 0 318.5 -65t260.5 -174.5t173.5 -261.5t64.5 -320zM662 1321l-107 -188l238 -138l184 320
q-17 30 -62 52.5t-98 25.5t-102 -23q-37 -21 -53 -49zM870 1421v-2q4 0 11 -1.5t26.5 -7.5t37 -14.5t38 -26.5t33.5 -40l114 -199l-65 -38l274 -50l97 265l-68 -39l-45 78q-28 49 -59.5 62t-85.5 13h-308zM723 248h215v274h-369q-13 -22 -15 -57t7.5 -71.5t33.5 -71
t58 -54.5q36 -20 70 -20zM530 377h2q-4 10 -9.5 27.5t-5 63t21.5 81.5l114 199l66 -39l-94 264l-277 -49l68 -39l-45 -78q-20 -34 -22.5 -65t4 -48.5t24.5 -50.5zM1626 834l-108 186l-238 -137l184 -320q57 0 118 61.5t60 139.5q0 42 -16 70zM1610 602l-2 2q-2 -3 -6.5 -8.5
t-19.5 -20t-31.5 -25t-42.5 -19.5t-52 -9h-229v78l-180 -215l180 -215v78h90q30 0 52.5 6t38.5 20t25.5 26.5t22.5 35.5z" />
    <glyph glyph-name="uni267D" unicode="&#x267d;" horiz-adv-x="2007" 
d="M1823 797q0 -167 -64.5 -318.5t-173.5 -260.5t-260.5 -173.5t-318.5 -64.5q-168 0 -320 64.5t-262 173.5t-175 260.5t-65 318.5q0 168 65 320t175 261.5t262 174.5t320 65q167 0 318.5 -65t260.5 -174.5t173.5 -261.5t64.5 -320zM1782 797q0 159 -61.5 303.5t-165 249
t-247.5 166t-302 61.5q-159 0 -303.5 -61.5t-249 -166t-166.5 -249t-62 -303.5q0 -212 104.5 -390.5t284 -282.5t392.5 -104q158 0 302 61.5t247.5 165.5t165 248t61.5 302zM555 1133l107 188q16 28 53 49q49 26 102 23t98 -25.5t62 -52.5l-184 -320zM870 1419v2h308
q54 0 85.5 -13t59.5 -62l45 -78l68 39l-97 -265l-274 50l65 38l-114 199q-21 36 -57.5 58.5t-62.5 26.5zM938 248h-215q-34 0 -70 20q-34 20 -58 54.5t-33.5 71t-7.5 71.5t15 57h369v-274zM532 377h-2l-153 266q-18 33 -24.5 50.5t-4 48.5t22.5 65l45 78l-68 39l277 49
l94 -264l-66 39l-114 -199q-21 -36 -22.5 -79t7.5 -68zM1518 1020l108 -186q16 -28 16 -70q1 -78 -60 -139.5t-118 -61.5l-184 320zM1608 604l2 -2l-154 -266q-13 -23 -22.5 -35.5t-25.5 -26.5t-38.5 -20t-52.5 -6h-90v-78l-180 215l180 215v-78h229q26 0 51.5 8.5t43 20.5
t31 24t20.5 21z" />
    <glyph glyph-name="anglebracketleft" unicode="&#x3008;" horiz-adv-x="626" 
d="M700 1700l-338 -983l99 -983h-268l-107 983l346 983h268z" />
    <glyph glyph-name="anglebracketright" unicode="&#x3009;" horiz-adv-x="626" 
d="M274 717l-98 983h268l105 -983l-344 -983h-266z" />
    <glyph glyph-name="cordinal" unicode="&#xe181;" horiz-adv-x="808" 
d="M516 1442q-86 0 -127 -95.5t-41 -242.5q0 -85 27 -117.5t82 -32.5q57 0 82.5 32t33.5 101l211 -73q-11 -58 -31.5 -99.5t-58.5 -75.5t-101.5 -51.5t-152.5 -17.5q-166 0 -241.5 71t-75.5 234q0 276 102.5 413.5t321.5 137.5q163 0 224 -59t58 -178l-229 -78q2 34 1 63
t-22 48.5t-63 19.5z" />
    <glyph glyph-name="fi" unicode="&#xe38c;" horiz-adv-x="1167" 
d="M72 860l28 225h121l33 279q19 145 111.5 221t257.5 76q105 0 170 -25l-43 -223q-43 19 -103 19q-61 0 -91.5 -23.5t-37.5 -83.5l-29 -240h197l-29 -225h-196l-156 -1270h-268l156 1270h-121zM715 0l133 1085h268l-133 -1085h-268zM1184 1569l-35 -281h-285l35 281h285z
" />
    <glyph glyph-name="fi" unicode="&#xfb01;" horiz-adv-x="1167" 
d="M72 860l28 225h121l33 279q19 145 111.5 221t257.5 76q105 0 170 -25l-43 -223q-43 19 -103 19q-61 0 -91.5 -23.5t-37.5 -83.5l-29 -240h197l-29 -225h-196l-156 -1270h-268l156 1270h-121zM715 0l133 1085h268l-133 -1085h-268zM1184 1569l-35 -281h-285l35 281h285z
" />
    <glyph glyph-name="fl" unicode="&#xe38d;" horiz-adv-x="1169" 
d="M72 860l28 225h121l33 279q19 145 111.5 221t257.5 76q105 0 170 -25l-43 -223q-43 19 -103 19q-61 0 -91.5 -23.5t-37.5 -83.5l-29 -240h197l-29 -225h-196l-156 -1270h-268l156 1270h-121zM715 0l200 1638h271l-201 -1638h-270z" />
    <glyph glyph-name="fl" unicode="&#xfb02;" horiz-adv-x="1169" 
d="M72 860l28 225h121l33 279q19 145 111.5 221t257.5 76q105 0 170 -25l-43 -223q-43 19 -103 19q-61 0 -91.5 -23.5t-37.5 -83.5l-29 -240h197l-29 -225h-196l-156 -1270h-268l156 1270h-121zM715 0l200 1638h271l-201 -1638h-270z" />
    <glyph glyph-name="invertedbreve" unicode="&#xe411;" horiz-adv-x="1269" 
d="M756 1655q129 0 197 -53.5t79.5 -152t-6.5 -237.5h-203q14 106 -6 156.5t-90 50.5q-71 0 -104.5 -51t-44.5 -156h-203q12 110 35.5 187t66.5 137t112 89.5t167 29.5z" />
    <glyph glyph-name="doublegrave" unicode="&#xe412;" horiz-adv-x="1269" 
d="M655 1638h310l57 -426h-277zM287 1638h309l55 -426h-274z" />
    <glyph glyph-name="caronSlovak" unicode="&#xe413;" horiz-adv-x="1269" 
d="M711 1638h245l-122 -426h-177z" />
    <glyph glyph-name="commaaccent" unicode="&#xe414;" horiz-adv-x="1269" 
d="M401 -127h275l-101 -283h-229z" />
    <glyph glyph-name="commaaccent" unicode="&#xf6c3;" horiz-adv-x="1269" 
d="M401 -127h275l-101 -283h-229z" />
    <glyph glyph-name="dotbelow" unicode="&#xe415;" horiz-adv-x="1269" 
d="M682 -150l-33 -260h-295l33 260h295z" />
    <glyph glyph-name="altcedilla" unicode="&#xe416;" horiz-adv-x="1269" 
d="M373 -150l43 95q104 -7 175.5 -25t109.5 -46.5t51 -63.5t4 -78q-18 -85 -95 -127.5t-184 -42.5q-132 0 -227 43l57 125q50 -27 105 -33q121 -11 129 61q4 40 -42.5 62t-125.5 30z" />
    <glyph glyph-name="exclamdown.cap" unicode="&#xe441;" horiz-adv-x="477" 
d="M174 1315l35 282h285l-35 -282h-285zM313 0h-313l190 1126h209z" />
    <glyph glyph-name="questiondown.cap" unicode="&#xe444;" horiz-adv-x="1003" 
d="M485 1126h191q35 -78 35 -172q0 -119 -51.5 -188t-182.5 -135q-88 -47 -128 -107.5t-40 -175.5q0 -72 32 -101.5t101 -29.5q97 0 141.5 58t63.5 210l256 -88q-36 -224 -145 -325t-342 -101q-206 0 -301 73t-95 243q0 126 24 215t81.5 148t97 85.5t125.5 69.5q13 7 19 10
q78 41 103.5 86.5t25.5 124.5q0 36 -11 100zM461 1313l33 284h288l-34 -284h-287z" />
    <glyph glyph-name="guilsinglleft.cap" unicode="&#xe451;" horiz-adv-x="655" 
d="M528 637l-28 -225l-389 303l20 168l465 303l-29 -225l-209 -162z" />
    <glyph glyph-name="guilsinglright.cap" unicode="&#xe452;" horiz-adv-x="655" 
d="M90 412l29 225l207 162l-168 162l28 225l387 -303l-20 -168z" />
    <glyph glyph-name="guillemotleft.cap" unicode="&#xe453;" horiz-adv-x="1097" 
d="M528 637l-28 -225l-389 303l20 168l465 303l-29 -225l-209 -162zM971 637l-29 -225l-389 303l20 168l465 303l-28 -225l-209 -162z" />
    <glyph glyph-name="guillemotright.cap" unicode="&#xe454;" horiz-adv-x="1097" 
d="M532 412l29 225l209 162l-170 162l29 225l387 -303l-21 -168zM90 412l29 225l207 162l-168 162l28 225l387 -303l-20 -168z" />
    <glyph glyph-name="slash.cap" unicode="&#xe461;" horiz-adv-x="798" 
d="M862 1638l-608 -1679h-287l608 1679h287z" />
    <glyph glyph-name="backslash.cap" unicode="&#xe462;" horiz-adv-x="798" 
d="M369 -41l-195 1679h287l194 -1679h-286z" />
    <glyph glyph-name="bar.cap" unicode="&#xe463;" horiz-adv-x="636" 
d="M575 1638l-206 -1679h-277l207 1679h276z" />
    <glyph glyph-name="doublebar.cap" unicode="&#xe464;" horiz-adv-x="1075" 
d="M596 1638l-207 -1679h-287l207 1679h287zM1001 1638l-206 -1679h-285l207 1679h284z" />
    <glyph glyph-name="brokenbar.cap" unicode="&#xe465;" horiz-adv-x="667" 
d="M481 709l-92 -750h-287l93 750h286zM596 1638l-92 -749h-287l92 749h287z" />
    <glyph glyph-name="bullet.cap" unicode="&#xe466;" horiz-adv-x="911" 
d="M831 1120l-79 -643h-641l79 643h641z" />
    <glyph glyph-name="onethirdemdash" unicode="&#xe471;" horiz-adv-x="722" 
d="M594 559h-494l31 254h494z" />
    <glyph glyph-name="threequarteremdash" unicode="&#xe472;" horiz-adv-x="1576" 
d="M1448 559h-1348l31 254h1348z" />
    <glyph glyph-name="periodcentered.cap" unicode="&#xe481;" horiz-adv-x="591" 
d="M479 946l-35 -295h-299l35 295h299z" />
    <glyph glyph-name="hyphen.cap" unicode="&#xe482;" horiz-adv-x="823" 
d="M709 670h-594l30 254h594z" />
    <glyph glyph-name="onethirdemdash.cap" unicode="&#xe483;" horiz-adv-x="722" 
d="M608 670h-493l30 254h494z" />
    <glyph glyph-name="endash.cap" unicode="&#xe484;" horiz-adv-x="1064" 
d="M950 670h-835l30 254h836z" />
    <glyph glyph-name="threequarteremdash.cap" unicode="&#xe485;" horiz-adv-x="1576" 
d="M1462 670h-1347l30 254h1348z" />
    <glyph glyph-name="emdash.cap" unicode="&#xe486;" horiz-adv-x="2088" 
d="M1974 670h-1859l30 254h1860z" />
    <glyph glyph-name="figuredash.cap" unicode="&#xe487;" horiz-adv-x="1474" 
d="M1360 670h-1245l30 254h1246z" />
    <glyph glyph-name="uni2015.cap" unicode="&#xe488;" horiz-adv-x="2908" 
d="M2793 670h-2678l30 254h2679z" />
    <glyph glyph-name="parenleft.cap" unicode="&#xe491;" horiz-adv-x="626" 
d="M375 799q-32 -290 -9 -517t103 -466h-268q-49 109 -80.5 259.5t-40.5 337t16 386.5q35 286 131.5 550t214.5 433h269q-139 -241 -220.5 -473.5t-115.5 -509.5z" />
    <glyph glyph-name="parenright.cap" unicode="&#xe492;" horiz-adv-x="626" 
d="M281 799q33 290 10 517t-105 466h269q77 -166 107 -420t-3 -563q-35 -288 -131 -552t-215 -431h-268q141 240 222 473t114 510z" />
    <glyph glyph-name="bracketleft.cap" unicode="&#xe493;" horiz-adv-x="626" 
d="M680 1534h-139l-181 -1471h140l-31 -247h-416l242 1966h416z" />
    <glyph glyph-name="bracketright.cap" unicode="&#xe494;" horiz-adv-x="628" 
d="M-23 63h140l180 1471h-139l30 248h416l-242 -1966h-415z" />
    <glyph glyph-name="braceleft.cap" unicode="&#xe495;" horiz-adv-x="694" 
d="M590 63l-31 -247h-78q-81 0 -143.5 15.5t-100 42.5t-63 63t-33 77.5t-10 86.5t5.5 89l43 355q9 73 -19.5 103t-90.5 30h-45l30 244h45q63 0 99 30t45 103l43 352q7 59 20.5 107.5t45 100t77.5 87t121 58t172 22.5h78l-31 -248h-59q-138 0 -156 -133l-45 -369
q-10 -80 -50 -142.5t-110 -90.5q63 -28 88 -90.5t17 -141.5l-47 -370q-15 -134 122 -134h60z" />
    <glyph glyph-name="braceright.cap" unicode="&#xe496;" horiz-adv-x="694" 
d="M193 1534h-62l31 248h78q81 0 143.5 -15.5t100.5 -42.5t63.5 -63.5t33.5 -78t11.5 -86.5t-4.5 -89l-43 -354q-10 -73 18 -103t90 -30h45l-30 -244h-45q-62 0 -97.5 -30t-44.5 -103l-43 -353q-6 -48 -17.5 -89t-32 -85.5t-53.5 -79t-78.5 -62.5t-111.5 -43t-147 -15h-76
l29 247h61q139 0 154 134l45 368q9 79 51 142.5t111 91.5q-62 28 -88 91t-17 140l45 371q10 73 -22.5 103t-97.5 30z" />
    <glyph glyph-name="anglebracketleft.cap" unicode="&#xe497;" horiz-adv-x="626" 
d="M711 1782l-338 -983l96 -983h-268l-105 983l346 983h269z" />
    <glyph glyph-name="anglebracketright.cap" unicode="&#xe498;" horiz-adv-x="626" 
d="M285 799l-99 983h269l104 -983l-346 -983h-268z" />
    <glyph glyph-name="lowline" unicode="&#xe511;" horiz-adv-x="722" 
d="M578 0h-596l22 199h596z" />
    <glyph glyph-name="underscoremonospace" unicode="&#xe512;" horiz-adv-x="1519" 
d="M1325 -410h-1395l23 199h1397z" />
    <glyph glyph-name="underscoremonospace" unicode="&#xff3f;" horiz-adv-x="1519" 
d="M1325 -410h-1395l23 199h1397z" />
    <glyph glyph-name="at.cap" unicode="&#xe513;" horiz-adv-x="2007" 
d="M1143 645l39 311q-54 109 -162 109q-85 0 -130.5 -65.5t-60.5 -198.5q-18 -131 12 -197.5t115 -66.5q110 0 187 108zM1315 322h-172v108q-115 -133 -279 -133q-197 0 -267.5 123.5t-37.5 380.5q32 257 132.5 379.5t297.5 122.5q165 0 248 -132l23 109h237l-37 -242
l-61 -489q61 1 107 21t77 54t53 91.5t35.5 121.5t24.5 156q12 112 11 205.5t-32.5 168t-92.5 126t-169.5 79t-263.5 27.5q-372 0 -548 -184t-230 -616q-25 -214 -8.5 -366t89 -248.5t200.5 -141.5t327 -45q221 0 389.5 38.5t351.5 115.5l70 -215q-369 -175 -840 -175
q-258 0 -436.5 66t-278.5 196.5t-133 324.5t0 450q64 519 326 777.5t752 258.5q882 0 778 -842q-20 -169 -64.5 -291t-120.5 -208.5t-189.5 -129t-268.5 -42.5z" />
    <glyph glyph-name="registered.superior" unicode="&#xe514;" horiz-adv-x="757" 
d="M139 1272q0 136 106 245t251 109q119 0 198.5 -79t79.5 -195q0 -144 -107 -250.5t-249 -106.5q-121 0 -200 79.5t-79 197.5zM367 1112l16 133h70l57 -133h98l-67 145q37 13 60.5 50.5t23.5 99.5q0 104 -127 104h-174l-50 -399h93zM481 1333h-88l13 90h88q32 0 32 -37
q0 -29 -14 -41t-31 -12z" />
    <glyph glyph-name="numbersign.LP" unicode="&#xe533;" horiz-adv-x="1153" 
d="M174 958l33 246h188l105 361h223l-105 -361h189l104 361h224l-105 -361h129l-31 -246h-172l-100 -352h148l-29 -246h-191l-104 -360h-223l104 360h-188l-105 -360h-223l105 360h-130l29 246h172l101 352h-148zM545 958l-103 -352h191l102 352h-190z" />
    <glyph glyph-name="zero.LP" unicode="&#xe534;" horiz-adv-x="1171" 
d="M1118 1024q0 -541 -150.5 -794t-463.5 -253q-158 0 -248 53t-132 175t-42 336q0 541 150.5 793.5t463.5 252.5q118 0 196 -28t129.5 -94.5t74 -173t22.5 -267.5zM846 1006q0 187 -41 262t-139 75q-85 0 -146.5 -59t-97 -168t-52 -246.5t-16.5 -310.5q0 -187 41.5 -262.5
t139.5 -75.5q85 0 146.5 59.5t96.5 168.5t51.5 246.5t16.5 310.5z" />
    <glyph glyph-name="one.LP" unicode="&#xe536;" horiz-adv-x="804" 
d="M721 1587l-195 -1587h-272l145 1208q-101 -85 -247 -141l32 274q93 43 168.5 101t149.5 145h219z" />
    <glyph glyph-name="two.LP" unicode="&#xe537;" horiz-adv-x="1064" 
d="M616 1348q-90 0 -133 -60.5t-63 -214.5l-260 90q11 73 26 126.5t39.5 104t59.5 84t84.5 59.5t117.5 38t156 12q209 0 300 -80t91 -270q0 -83 -9 -145.5t-37 -117.5t-53.5 -91.5t-87.5 -85t-107 -78.5t-142 -92q-114 -71 -169 -123t-78.5 -107t-35.5 -153h617l-29 -244
h-907q13 105 23.5 176.5t26.5 140.5t31 112.5t43.5 91t56.5 78t76 70t96 71.5t124 79q87 53 136.5 90t84.5 83t47.5 96t12.5 124q0 71 -31.5 103.5t-106.5 32.5z" />
    <glyph glyph-name="three.LP" unicode="&#xe538;" horiz-adv-x="1038" 
d="M457 217q233 0 233 293q0 98 -46 134t-128 36h-131l31 244h129q30 0 54.5 6t49 24.5t41 49t27 83t10.5 123.5q0 75 -32.5 106.5t-110.5 31.5q-96 0 -137 -57t-60 -206l-256 89q18 108 48 180.5t84.5 127t141.5 80t213 25.5q205 0 296.5 -71.5t91.5 -241.5
q0 -379 -215 -463q83 -24 128.5 -90t45.5 -193q0 -129 -28 -227t-90 -172.5t-169.5 -113t-259.5 -38.5q-233 0 -327 96.5t-75 323.5l277 97q-8 -50 -5 -99.5t15 -89t51 -64t103 -24.5z" />
    <glyph glyph-name="four.LP" unicode="&#xe539;" horiz-adv-x="1081" 
d="M987 346h-168l-39 -346h-262l41 346h-549l27 203l631 1038h307l-123 -995h166zM590 592l94 655l-399 -663z" />
    <glyph glyph-name="five.LP" unicode="&#xe53a;" horiz-adv-x="1046" 
d="M459 217q108 0 171.5 105t63.5 319q0 105 -35 146.5t-106 41.5q-65 0 -125.5 -38t-89.5 -91l-221 74l131 791h786l-28 -248h-547l-64 -373q111 117 279 117q148 0 222.5 -82.5t74.5 -282.5q0 -197 -35.5 -336.5t-107 -223t-171 -121.5t-235.5 -38q-213 0 -310 93.5
t-79 304.5l286 96q-32 -254 140 -254z" />
    <glyph glyph-name="six.LP" unicode="&#xe53b;" horiz-adv-x="1097" 
d="M666 1352q-123 0 -183 -110t-94 -390q73 106 166 148t211 42q139 0 203.5 -83t64.5 -261q0 -362 -131.5 -541.5t-421.5 -179.5q-224 0 -314.5 101t-90.5 344q0 224 26 428q24 188 66.5 320t114 228.5t178 142.5t252.5 46q194 0 288 -77t93 -271l-283 -94q12 99 -17.5 153
t-127.5 54zM608 805q-79 0 -135.5 -45t-110.5 -135q-14 -130 -14 -185q0 -127 38.5 -177t121.5 -50q244 0 244 410q0 98 -34.5 140t-109.5 42z" />
    <glyph glyph-name="seven.LP" unicode="&#xe53c;" horiz-adv-x="964" 
d="M420 0h-295l446 1030l136 289l-226 -2h-342l29 248h854l-21 -168z" />
    <glyph glyph-name="eight.LP" unicode="&#xe53d;" 
d="M596 1341q-92 0 -139 -63t-47 -215q0 -79 34.5 -113.5t100.5 -34.5q85 0 135.5 68t50.5 217q0 78 -31.5 109.5t-103.5 31.5zM518 690q-38 0 -68.5 -7t-60.5 -27t-49.5 -53t-32 -89t-12.5 -131q0 -85 39 -123.5t125 -38.5q110 0 164.5 73.5t54.5 229.5q0 95 -40.5 130.5
t-119.5 35.5zM428 -23q-218 0 -311.5 84t-93.5 248q0 117 22.5 210t61 150t78 90.5t83.5 51.5q-58 24 -91.5 92t-33.5 166q0 256 116 387t368 131q203 0 293 -73.5t90 -241.5q0 -176 -61 -302t-154 -159q147 -68 147 -289q0 -129 -26 -225.5t-84.5 -170t-159.5 -111.5
t-244 -38z" />
    <glyph glyph-name="nine.LP" unicode="&#xe53e;" horiz-adv-x="1097" 
d="M453 213q126 0 188 110.5t96 389.5q-73 -105 -167 -148t-210 -43q-139 0 -203.5 83t-64.5 261q0 362 131 541.5t422 179.5q224 0 315 -100.5t91 -343.5q0 -227 -29 -434q-24 -186 -67 -317.5t-114.5 -227t-179 -141.5t-255.5 -46q-98 0 -166.5 17t-119 56t-74.5 107.5
t-23 168.5l282 94q-8 -44 -4 -82t18 -65.5t47.5 -43.5t86.5 -16zM518 760q79 0 136 45.5t108 134.5q14 104 14 184q0 127 -38 177.5t-120 50.5q-88 0 -143.5 -53t-77.5 -141t-22 -216q0 -98 34 -140t109 -42z" />
    <glyph glyph-name="zero.inf" unicode="&#xe571;" horiz-adv-x="708" 
d="M240 -274q59 0 96 123.5t37 310.5q0 73 -15 103t-51 30q-59 0 -95 -124t-36 -312q0 -72 14.5 -101.5t49.5 -29.5zM328 440q130 0 184.5 -65t54.5 -230q0 -293 -87 -430t-259 -137q-130 0 -184.5 65t-54.5 228q0 293 87 431t259 138z" />
    <glyph glyph-name="one.inf" unicode="&#xe572;" horiz-adv-x="669" 
d="M467 -410h-502l19 148h151l58 465q-63 -55 -173 -80l19 168q65 17 125.5 58.5t97.5 90.5h156l-88 -702h155z" />
    <glyph glyph-name="two.inf" unicode="&#xe573;" horiz-adv-x="702" 
d="M309 295q-38 0 -56.5 -29.5t-27.5 -107.5l-190 65q14 77 39.5 121t87 70t166.5 26q122 0 178.5 -44.5t56.5 -137.5q0 -54 -8.5 -92.5t-23 -68.5t-48 -59t-69.5 -53t-101 -61q-84 -48 -108.5 -83.5t-32.5 -102.5h340l-18 -148h-549q8 62 12.5 96.5t13 76t16.5 62.5t23 49
t31.5 43.5t44 38t58 40.5t75.5 43q89 48 117.5 85.5t28.5 108.5q0 33 -13 47.5t-43 14.5z" />
    <glyph glyph-name="three.inf" unicode="&#xe574;" horiz-adv-x="700" 
d="M233 -276q99 0 99 141q0 48 -18.5 64t-61.5 16h-70l19 147h71q35 0 55.5 31t20.5 113q0 34 -12 46.5t-43 12.5q-41 0 -58 -27.5t-28 -105.5l-180 61q15 76 44 121.5t88 70.5t154 25q124 0 180 -46t56 -163q0 -161 -119 -208q50 -13 75 -49.5t25 -114.5q0 -132 -73 -206.5
t-250 -74.5q-48 0 -85 5.5t-70 20t-53 39t-30 62.5t-6 90l203 70q-4 -33 -5.5 -64.5t16.5 -54t56 -22.5z" />
    <glyph glyph-name="four.inf" unicode="&#xe575;" horiz-adv-x="698" 
d="M528 -229h-79l-23 -181h-190l22 181h-303l14 127l338 542h223l-63 -522h78zM276 -82l52 320l-183 -322z" />
    <glyph glyph-name="five.inf" unicode="&#xe576;" horiz-adv-x="696" 
d="M231 -276q49 0 78 52t29 156q0 51 -17 71t-51 20q-31 0 -60.5 -19.5t-43.5 -48.5l-160 55l74 418h485l-18 -149h-311l-31 -177q63 60 153 60q88 0 132.5 -47t44.5 -162q0 -190 -80 -282.5t-242 -92.5q-138 0 -195 46.5t-53 158.5l205 70q-2 -38 -2 -66.5t15 -45.5t48 -17
z" />
    <glyph glyph-name="six.inf" unicode="&#xe577;" horiz-adv-x="704" 
d="M309 299q-51 0 -69.5 -45t-34.5 -186q36 48 77 68t97 20q86 0 123 -41.5t37 -132.5q0 -208 -73 -306t-249 -98q-131 0 -182 57.5t-51 204.5q0 111 14 217q13 91 35 157t59.5 119.5t97 80t140.5 26.5q122 0 176.5 -39.5t54.5 -126.5l-201 -67q13 92 -51 92zM285 12
q-64 0 -101 -112q-4 -31 -4 -78q0 -103 56 -103q98 0 98 222q0 71 -49 71z" />
    <glyph glyph-name="seven.inf" unicode="&#xe578;" horiz-adv-x="688" 
d="M238 -410h-213l264 535l84 156l-135 -2h-218l19 149h559l-12 -100z" />
    <glyph glyph-name="eight.inf" unicode="&#xe579;" horiz-adv-x="696" 
d="M303 291q-43 0 -65.5 -28.5t-22.5 -96.5q0 -80 64 -80q40 0 64 33.5t24 101.5q0 39 -15.5 54.5t-48.5 15.5zM262 -49q-53 0 -81.5 -29t-28.5 -115q0 -42 19 -62.5t62 -20.5q57 0 83 35.5t26 109.5q0 48 -20 65t-60 17zM217 -422q-142 0 -202 49.5t-60 143.5
q0 110 38.5 171.5t98.5 82.5q-34 12 -51.5 51.5t-17.5 97.5q0 144 71 205t228 61q129 0 187 -44t58 -142q0 -85 -33 -147.5t-88 -81.5q89 -36 89 -166q0 -139 -71 -210t-247 -71z" />
    <glyph glyph-name="nine.inf" unicode="&#xe57a;" horiz-adv-x="704" 
d="M233 -281q51 0 69 41.5t38 182.5q-36 -47 -76.5 -63.5t-99.5 -16.5q-83 0 -119.5 47t-36.5 158q0 188 74 280t246 92q133 0 184 -58.5t51 -205.5q0 -90 -12 -192q-11 -97 -31.5 -166.5t-58.5 -126t-101 -85t-151 -28.5q-123 0 -177.5 38t-54.5 124l203 72q-7 -39 4.5 -66
t48.5 -27zM262 6q69 0 98 148q3 83 -18 96q-18 26 -36 17t-42 -52q-55 -22 -55 -131q0 -78 53 -78z" />
    <glyph glyph-name="plus.inf" unicode="&#xe57b;" horiz-adv-x="839" 
d="M197 -293l26 217h-217l27 211h217l24 217h211l-24 -217h215l-25 -211h-215l-28 -217h-211z" />
    <glyph glyph-name="minus.inf" unicode="&#xe57c;" horiz-adv-x="839" 
d="M651 -76h-645l27 211h643z" />
    <glyph glyph-name="equal.inf" unicode="&#xe57d;" horiz-adv-x="839" 
d="M633 -221h-643l22 192h643zM670 88h-643l24 193h643z" />
    <glyph glyph-name="parenleft.inf" unicode="&#xe57e;" horiz-adv-x="569" 
d="M436 522q-176 -321 -176 -678q0 -197 51 -358h-200q-64 183 -64 367q0 347 191 669h198z" />
    <glyph glyph-name="parenright.inf" unicode="&#xe57f;" horiz-adv-x="569" 
d="M-29 -514q176 318 176 674q0 201 -51 362h201q63 -180 63 -366q0 -353 -190 -670h-199z" />
    <glyph glyph-name="plus.cap" unicode="&#xe591;" horiz-adv-x="1802" 
d="M764 0v662h-662v274h662v661h274v-661h662v-274h-662v-662h-274z" />
    <glyph glyph-name="minus.cap" unicode="&#xe592;" horiz-adv-x="1802" 
d="M102 662v274h1598v-274h-1598z" />
    <glyph glyph-name="multiply.cap" unicode="&#xe593;" horiz-adv-x="1802" 
d="M74 166l633 633l-633 633l194 194l633 -633l633 633l195 -194l-633 -633l633 -633l-195 -195l-633 633l-633 -633z" />
    <glyph glyph-name="divide.cap" unicode="&#xe594;" horiz-adv-x="1802" 
d="M1055 1597v-307h-307v307h307zM1055 307v-307h-307v307h307zM102 662v274h1598v-274h-1598z" />
    <glyph glyph-name="equal.cap" unicode="&#xe595;" horiz-adv-x="1802" 
d="M102 387v275h1598v-275h-1598zM102 936v274h1598v-274h-1598z" />
    <glyph glyph-name="less.cap" unicode="&#xe596;" horiz-adv-x="1802" 
d="M721 920l-287 -121l287 -121l979 -424v-283l-1598 703v250l1598 702v-283z" />
    <glyph glyph-name="greater.cap" unicode="&#xe597;" horiz-adv-x="1802" 
d="M1081 678l287 121l-287 121l-979 423v283l1598 -702v-250l-1598 -703v283z" />
    <glyph glyph-name="idotaccent" horiz-adv-x="473" 
d="M20 0l134 1085h268l-133 -1085h-269zM489 1569l-34 -281h-285l35 281h284z" />
    <glyph glyph-name="f_dotlessi" horiz-adv-x="1167" 
d="M72 860l28 225h121l33 279q19 145 111.5 221t257.5 76q105 0 170 -25l-43 -223q-43 19 -103 19q-61 0 -91.5 -23.5t-37.5 -83.5l-29 -240h197l-29 -225h-196l-156 -1270h-268l156 1270h-121zM715 0l133 1085h268l-133 -1085h-268z" />
    <glyph glyph-name="interrobangdown.cap" horiz-adv-x="1003" 
d="M20 289q0 77 9.5 143t29 116.5t43 91.5t57 73t65 56t73 44.5t76 35t78.5 31.5q33 13 49 19l49 309h41l-88 -985q64 15 97 75t48 187l256 -86q-36 -225 -146 -326.5t-345 -101.5q-205 0 -298.5 73t-93.5 245zM453 1313l34 284h289l-35 -284h-288zM307 352q0 -116 88 -131
l62 400q-77 -42 -113.5 -101t-36.5 -168z" />
    <glyph glyph-name="period.T" horiz-adv-x="532" 
d="M358 283l-32 -283h-285l33 283h284z" />
    <glyph glyph-name="comma.T" horiz-adv-x="532" 
d="M72 283h297l-195 -541h-205z" />
    <glyph glyph-name="colon.T" horiz-adv-x="532" 
d="M358 283l-32 -283h-285l33 283h284zM444 973l-34 -281h-285l35 281h284z" />
    <glyph glyph-name="semicolon.T" horiz-adv-x="532" 
d="M444 973l-34 -281h-285l35 281h284zM72 283h297l-195 -541h-205z" />
    <glyph glyph-name="musicnaturalsign" horiz-adv-x="827" 
d="M309 1126l379 308v-1536h-170v571l-381 -305v1536h172v-574zM309 864v-301l209 168v301z" />
    <glyph glyph-name="circle" horiz-adv-x="1536" 
d="M197 543q0 155 76.5 286.5t208 208t286.5 76.5t286.5 -76.5t208 -208t76.5 -286.5q0 -116 -45.5 -222t-121.5 -182.5t-182 -122t-222 -45.5t-222 45.5t-182 122t-121.5 182.5t-45.5 222z" />
    </font>
</defs>
</svg>
