<?xml version="1.0" standalone="no"?>
<!DOCTYPE svg PUBLIC "-//W3C//DTD SVG 1.1//EN" "http://www.w3.org/Graphics/SVG/1.1/DTD/svg11.dtd" >
<svg xmlns="http://www.w3.org/2000/svg" xmlns:xlink="http://www.w3.org/1999/xlink" version="1.1">
<metadata>
Created by FontForge 20170731 at Wed Jan 28 20:48:59 2015
 By Aleksey,,,
Copyright (c) 2008 by Village Type &#38; Design LLC. All rights reserved.
</metadata>
<defs>
<font id="GalaxiePolarisCondensed-Light" horiz-adv-x="921" >
  <font-face 
    font-family="Galaxie Polaris Condensed Light"
    font-weight="400"
    font-stretch="normal"
    units-per-em="2048"
    panose-1="2 11 5 4 3 3 1 2 1 3"
    ascent="1638"
    descent="-410"
    x-height="1085"
    cap-height="1597"
    bbox="-236 -524 2785 2171"
    underline-thickness="61"
    underline-position="-264"
    unicode-range="U+0020-E597"
  />
<missing-glyph horiz-adv-x="2007" 
d="M205 0v1597h1597v-1597h-1597zM1004 707l-572 -572h1143zM432 1462l572 -571l571 571h-1143zM911 799l-563 563v-1126zM1096 799l563 -563v1126z" />
    <glyph glyph-name="interrobang" unicode="&#x21;&#x3f;" horiz-adv-x="864" 
d="M539 819q-15 -10 -39.5 -26t-34.5 -23l-12 -381h-41l-39 1157q-121 -13 -168 -94.5t-47 -247.5l-76 13q0 214 80 307.5t270 93.5q186 0 268 -88t82 -303q0 -70 -12.5 -126t-30.5 -92.5t-50 -70.5t-57.5 -53.5t-67.5 -48.5q-17 -11 -25 -17zM705 1225q0 162 -52.5 235
t-160.5 86l-23 -688l14 10q50 32 75.5 50.5t59 51t49 64.5t27 80.5t11.5 110.5zM487 111v-111h-110v111h110z" />
    <glyph glyph-name="interrobangdown" unicode="&#xa1;&#xbf;" horiz-adv-x="864" 
d="M326 303l73 41l13 352h41l34 -1054q123 13 171.5 94t48.5 248l75 -13q0 -214 -80 -307.5t-270 -93.5q-181 0 -265.5 90.5t-84.5 280.5q0 80 16 137.5t55.5 99t67 61t88.5 54.5q11 7 17 10zM160 -57q0 -273 217 -301l20 622l-18 -10q-43 -25 -63.5 -37.5t-51.5 -35
t-45.5 -42.5t-30.5 -49t-22 -65t-6 -82zM391 975v110h111v-110h-111z" />
    <glyph glyph-name=".notdef" horiz-adv-x="2007" 
d="M205 0v1597h1597v-1597h-1597zM1004 707l-572 -572h1143zM432 1462l572 -571l571 571h-1143zM911 799l-563 563v-1126zM1096 799l563 -563v1126z" />
    <glyph glyph-name=".null" horiz-adv-x="0" 
 />
    <glyph glyph-name="nonmarkingreturn" horiz-adv-x="682" 
 />
    <glyph glyph-name="space" unicode=" " horiz-adv-x="368" 
 />
    <glyph glyph-name="exclam" unicode="!" horiz-adv-x="327" 
d="M102 1597h123l-41 -1208h-41zM219 111v-111h-110v111h110z" />
    <glyph glyph-name="quotedbl" unicode="&#x22;" horiz-adv-x="532" 
d="M123 1597h102l-26 -512h-49zM307 1597h103l-27 -512h-49z" />
    <glyph glyph-name="numbersign" unicode="#" horiz-adv-x="1064" 
d="M520 1565l-76 -443h289l76 443h76l-76 -443h154v-69h-166l-90 -541h159v-70h-172l-73 -442h-76l73 442h-288l-74 -442h-76l74 442h-152v70h164l90 541h-157v69h170l75 443h76zM432 1053l-90 -541h289l90 541h-289z" />
    <glyph glyph-name="dollar" unicode="$" horiz-adv-x="823" 
d="M391 283q147 0 201.5 58t54.5 177q0 39 -6.5 69.5t-16.5 53.5t-30 41.5t-38.5 31t-51 25t-59 20.5t-70.5 19q-41 10 -66.5 18.5t-57.5 23t-51 34t-37 47.5t-26 67.5t-8 90.5q0 287 297 287q20 0 41 -3l68 222h75l-75 -230q101 -22 136.5 -89.5t35.5 -190.5l-76 -13
q0 48 -3.5 80.5t-16 65t-34.5 51.5t-60 31t-93 12q-116 0 -167.5 -56t-51.5 -165q0 -112 41.5 -151.5t187.5 -75.5q59 -15 92 -26t77.5 -35.5t68 -54.5t40.5 -80.5t17 -117.5q0 -150 -76 -225.5t-260 -75.5h-14l-70 -219h-76l74 223q-124 19 -168.5 91t-44.5 196l76 12
q0 -48 3 -78t15.5 -64t35.5 -53t65 -31.5t102 -12.5z" />
    <glyph glyph-name="percent" unicode="%" horiz-adv-x="1474" 
d="M1178 1565l-799 -1565h-82l799 1565h82zM1128 764q-73 0 -111.5 -30.5t-55.5 -106.5t-17 -221t17 -221t55.5 -107t111.5 -31t111.5 31t56 107.5t17.5 220.5t-17.5 220.5t-56 107t-111.5 30.5zM1128 -20q-97 0 -152 38t-81.5 130.5t-26.5 257.5t26.5 257.5t81.5 130
t152 37.5t152 -37.5t82 -130t27 -257.5t-27 -257.5t-82 -130.5t-152 -38zM346 801q73 0 111.5 30.5t55.5 106.5t17 221t-17 221t-55.5 107t-111.5 31t-111.5 -31t-55.5 -107t-17 -221t17 -221t55.5 -106.5t111.5 -30.5zM346 1585q97 0 152 -38t81.5 -130.5t26.5 -257.5
t-26.5 -257.5t-81.5 -130.5t-152 -38t-152 38t-81.5 130.5t-26.5 257.5t26.5 257.5t81.5 130.5t152 38z" />
    <glyph glyph-name="ampersand" unicode="&#x26;" horiz-adv-x="1026" 
d="M911 711q0 -275 -90 -465l131 -150v-116q-72 77 -172 192q-126 -192 -344 -192q-85 0 -149 22.5t-113.5 72.5t-75.5 137.5t-26 211.5q0 151 48 255.5t134 192.5q-133 228 -133 410q0 165 63.5 250.5t214.5 85.5q64 0 111 -14t76.5 -38.5t47.5 -61.5t25 -78t7 -93
q0 -39 -7.5 -75t-18 -65t-31 -61t-38.5 -55t-48.5 -54.5t-52.5 -52t-59.5 -55.5t-60.5 -57h2q123 -203 418 -553q70 168 70 408q0 139 -35 254l72 10q34 -109 34 -266zM436 49q187 0 295 180q-274 324 -434 576q-70 -77 -108.5 -167t-38.5 -214q0 -110 21 -186t62 -116
t89.5 -56.5t113.5 -16.5zM197 1290q0 -162 114 -364q13 12 50 45t49 44t42 39.5t40.5 42.5t31.5 40t29 45t19 45t14.5 51.5t3.5 54.5q0 101 -42.5 157t-148.5 56q-109 0 -155.5 -66t-46.5 -190z" />
    <glyph glyph-name="quotesingle" unicode="'" horiz-adv-x="348" 
d="M123 1597h102l-26 -512h-49z" />
    <glyph glyph-name="parenleft" unicode="(" horiz-adv-x="532" 
d="M201 717q0 -291 52.5 -513t166.5 -470h-72q-98 167 -161.5 431t-63.5 552t63.5 552t161.5 431h72q-114 -248 -166.5 -470t-52.5 -513z" />
    <glyph glyph-name="parenright" unicode=")" horiz-adv-x="532" 
d="M332 717q0 291 -52.5 513t-166.5 470h71q98 -168 162 -431.5t64 -551.5t-64 -551.5t-162 -431.5h-71q114 248 166.5 470t52.5 513z" />
    <glyph glyph-name="asterisk" unicode="*" horiz-adv-x="655" 
d="M195 1075l-60 43l162 193l-244 61l23 70l231 -94l-16 249h74l-17 -249l232 94l22 -70l-244 -61l162 -193l-59 -43l-133 211z" />
    <glyph glyph-name="plus" unicode="+" horiz-adv-x="1474" 
d="M702 246v518h-518v70h518v518h70v-518h518v-70h-518v-518h-70z" />
    <glyph glyph-name="comma" unicode="," horiz-adv-x="327" 
d="M111 102h106l-82 -438h-49z" />
    <glyph glyph-name="hyphen" unicode="-" horiz-adv-x="778" 
d="M655 651h-532v70h532v-70z" />
    <glyph glyph-name="period" unicode="." horiz-adv-x="327" 
d="M219 111v-111h-110v111h110z" />
    <glyph glyph-name="slash" unicode="/" horiz-adv-x="655" 
d="M604 1782l-471 -1966h-82l471 1966h82z" />
    <glyph glyph-name="zero" unicode="0" horiz-adv-x="1064" 
d="M532 49q72 0 119.5 10t88.5 39.5t64 78.5t39.5 133.5t22.5 196.5t6 275t-6 275.5t-22.5 197t-40 134t-64 79.5t-88 40t-119.5 10t-119.5 -10t-88 -40t-63.5 -79.5t-39.5 -134t-22.5 -197t-6 -275.5t6 -275t22.5 -196.5t39.5 -133.5t63.5 -78.5t88 -39.5t119.5 -10z
M532 1585q86 0 145 -12t108 -46.5t78.5 -89.5t49.5 -147.5t27.5 -213.5t7.5 -294t-7.5 -294t-28 -213t-49.5 -147t-78 -89.5t-108 -46.5t-145 -12t-145 12t-108 46.5t-78 89.5t-49 147t-27.5 213t-7.5 294t7.5 294t27.5 213.5t49 147.5t78 89.5t108 46.5t145 12z" />
    <glyph glyph-name="one" unicode="1" horiz-adv-x="1064" 
d="M973 0h-819v70h372v1384q-125 -203 -393 -307v72q75 29 134.5 67t108 88t82.5 96t77 115h65v-1515h373v-70z" />
    <glyph glyph-name="two" unicode="2" horiz-adv-x="1064" 
d="M522 1518q-85 0 -142.5 -22t-90 -66.5t-45.5 -103.5t-13 -142l-73 12q0 69 9.5 124t34 106t64.5 85t105 54t151 20q88 0 152.5 -18.5t104.5 -52t64 -87.5t33 -116.5t9 -147.5q0 -62 -10 -113.5t-33 -94.5t-49.5 -77t-71.5 -69.5t-85.5 -62.5t-103.5 -64
q-51 -31 -90.5 -59t-71.5 -54t-54.5 -55.5t-39.5 -54.5t-27.5 -61t-17 -65.5t-9.5 -77t-4 -86t-1 -101.5h707v-68h-785q0 126 4.5 208t21 155t38 117t67 92t96 83.5t136.5 87.5q131 81 196.5 142.5t89 122.5t23.5 155q0 97 -12 159.5t-43.5 108.5t-88 66.5t-145.5 20.5z" />
    <glyph glyph-name="three" unicode="3" horiz-adv-x="1064" 
d="M514 47q172 0 251 84t79 270q0 93 -19 162.5t-46.5 107t-67.5 60.5t-74 29t-74 6h-172v74h172q39 0 71.5 6.5t68.5 27.5t60.5 56t41 97.5t16.5 146.5q0 190 -64 267t-233 77q-85 0 -142.5 -22t-90 -66.5t-45.5 -103.5t-13 -142l-73 12q0 69 9.5 124t34 106t64.5 85
t105 54t151 20q206 0 288.5 -90.5t82.5 -314.5q0 -155 -56 -250t-155 -125q234 -64 234 -412q0 -204 -97 -308.5t-307 -104.5q-367 0 -367 389l74 12q0 -59 6.5 -105t26 -90.5t51 -73.5t84.5 -47t125 -18z" />
    <glyph glyph-name="four" unicode="4" horiz-adv-x="1064" 
d="M954 383h-213v-383h-67v383h-565v53l561 1149h71v-1136h213v-66zM676 449l4 1011l-496 -1016z" />
    <glyph glyph-name="five" unicode="5" horiz-adv-x="1064" 
d="M518 47q168 0 245 111.5t77 343.5q0 125 -18.5 212.5t-55.5 137.5t-86 72t-115 22q-99 0 -166.5 -47t-107.5 -111l-74 15l29 762h635v-68h-572l-26 -627q108 144 280 144q83 0 145 -25.5t109.5 -83.5t71.5 -158.5t24 -244.5q0 -260 -97 -391t-298 -131q-366 0 -366 389
l73 12q0 -59 6.5 -105t26 -90.5t51 -73.5t84.5 -47t125 -18z" />
    <glyph glyph-name="six" unicode="6" horiz-adv-x="1064" 
d="M551 1518q-51 0 -92 -9.5t-73.5 -26t-57.5 -46.5t-43 -63.5t-30 -86.5t-19.5 -104.5t-11.5 -127.5t-5.5 -147.5t-1.5 -171.5q123 242 377 242q168 0 247 -119.5t79 -380.5q0 -126 -19 -215t-62.5 -154t-117.5 -96.5t-182 -31.5q-98 0 -164 25.5t-112.5 79.5t-72 151.5
t-36.5 226t-11 319.5q0 132 4.5 229.5t16 185.5t32 147.5t50.5 108t73.5 76t100.5 42t131 14.5q86 0 151 -20t105 -54t64.5 -85t34 -106t9.5 -124l-73 -12q0 83 -13 142t-45.5 103.5t-90 66.5t-142.5 22zM575 907q-121 0 -203 -70t-153 -212q0 -170 17.5 -281.5t58 -177.5
t98.5 -92.5t146 -26.5q166 0 236.5 97.5t70.5 334.5q0 121 -17.5 204.5t-53 132t-84 70t-116.5 21.5z" />
    <glyph glyph-name="seven" unicode="7" horiz-adv-x="1064" 
d="M410 0h-76l373 1190l102 309l-240 -2h-385v68h697v-60z" />
    <glyph glyph-name="eight" unicode="8" horiz-adv-x="1064" 
d="M532 838q70 0 121.5 15.5t93 52t63 102.5t21.5 161q0 196 -67 272.5t-232 76.5t-232 -76.5t-67 -272.5q0 -95 21.5 -161t63 -102.5t93 -52t121.5 -15.5zM532 47q163 0 241.5 84t78.5 270q0 106 -23 179.5t-68 113.5t-100 57t-129 17t-129 -17t-99.5 -57t-67.5 -113.5
t-23 -179.5q0 -186 78.5 -270t240.5 -84zM532 1585q199 0 285 -94.5t86 -316.5q0 -162 -63.5 -254t-153.5 -115q26 -9 41 -15.5t43.5 -23t46.5 -34t41 -49.5t36 -70.5t22.5 -94.5t9.5 -123q0 -200 -96.5 -307.5t-297.5 -107.5q-393 0 -393 415q0 67 9.5 123t22.5 94.5
t36 70.5t41 49.5t46.5 34t43.5 23t41 15.5q-90 23 -153.5 115t-63.5 254q0 222 85.5 316.5t284.5 94.5z" />
    <glyph glyph-name="nine" unicode="9" horiz-adv-x="1064" 
d="M512 47q51 0 92 9.5t73.5 25.5t57.5 46.5t43 64t30 86t19.5 104t11.5 127.5t5.5 147.5t1.5 171.5q-122 -241 -377 -241q-168 0 -247 119t-79 380q0 126 19 215.5t62.5 154.5t117.5 96.5t182 31.5q81 0 140 -16.5t104 -56.5t73.5 -98.5t46.5 -151.5t25 -207t7 -273
q0 -155 -6.5 -264t-23 -203.5t-45.5 -154t-74.5 -102t-108.5 -60.5t-150 -18q-107 0 -181 29.5t-113 85t-55 121.5t-16 153l74 12q0 -83 13 -142t45.5 -103.5t90 -66.5t142.5 -22zM487 657q121 0 203.5 70.5t153.5 212.5q0 170 -17.5 281.5t-58 177.5t-98.5 92.5t-146 26.5
q-166 0 -236.5 -98t-70.5 -335q0 -160 32 -255.5t89.5 -134t148.5 -38.5z" />
    <glyph glyph-name="colon" unicode=":" horiz-adv-x="327" 
d="M219 111v-111h-110v111h110zM219 889v-111h-110v111h110z" />
    <glyph glyph-name="semicolon" unicode=";" horiz-adv-x="327" 
d="M111 102h106l-82 -438h-49zM219 889v-111h-110v111h110z" />
    <glyph glyph-name="less" unicode="&#x3c;" horiz-adv-x="1474" 
d="M590 954l-344 -155l344 -156l700 -321v-76l-1106 520v65l1106 521v-76z" />
    <glyph glyph-name="equal" unicode="=" horiz-adv-x="1474" 
d="M1290 600h-1106v70h1106v-70zM1290 928h-1106v69h1106v-69z" />
    <glyph glyph-name="greater" unicode="&#x3e;" horiz-adv-x="1474" 
d="M1229 799l-344 155l-701 322v76l1106 -521v-65l-1106 -520v76l701 321z" />
    <glyph glyph-name="question" unicode="?" horiz-adv-x="864" 
d="M449 389h-54q-49 132 -49 236q0 91 35 145t102 98q50 32 75.5 50.5t59 51t49 64.5t27 80.5t11.5 110.5q0 95 -17.5 159t-53.5 100t-84.5 51t-117.5 15q-156 0 -215 -81t-59 -265l-76 13q0 214 80 307.5t270 93.5q186 0 268 -88t82 -303q0 -70 -12.5 -126t-30.5 -92.5
t-50 -70.5t-57.5 -53.5t-67.5 -48.5q-17 -11 -25 -17q-70 -50 -96 -90t-29 -104q-3 -86 35 -236zM473 111v-111h-111v111h111z" />
    <glyph glyph-name="at" unicode="@" horiz-adv-x="1785" 
d="M1139 360v500q-63 87 -132.5 131.5t-154.5 44.5q-65 0 -112.5 -21t-76 -56.5t-46 -91.5t-23.5 -116t-6 -141t6 -141t23.5 -116t46 -91.5t76 -56.5t112.5 -21q85 0 154.5 44.5t132.5 131.5zM1210 135h-53l-12 144q-119 -164 -299 -164q-82 0 -142.5 24.5t-97.5 66
t-58.5 107t-29.5 135t-8 162.5t8 163t29.5 135t58.5 106.5t97.5 66.5t142.5 25q180 0 299 -164l12 143h60l-5 -219v-661q98 0 169.5 27.5t115 75.5t69.5 125.5t35 163.5t9 204q0 71 -3.5 131t-14 125.5t-27.5 119t-45.5 107.5t-66.5 95.5t-91.5 78t-119.5 60.5t-152.5 37.5
t-188.5 13.5q-142 0 -251.5 -25.5t-189.5 -80t-134 -131t-86 -188t-46 -241t-14 -299.5q0 -171 13.5 -299.5t46.5 -240.5t89 -188t140.5 -131t201.5 -80t271 -25q216 0 346.5 28.5t272.5 87.5l28 -67q-167 -60 -249 -79q-171 -40 -398 -40q-190 0 -327 35t-237 108.5
t-160 197t-88 292t-28 401.5q0 289 43.5 484.5t141.5 319t246.5 177t367.5 53.5q135 0 245.5 -22.5t191 -62t141 -99t99 -128.5t62.5 -156.5t33.5 -175.5t9.5 -193q0 -134 -15 -236.5t-49 -185t-88.5 -135.5t-134.5 -81t-186 -28z" />
    <glyph glyph-name="A" unicode="A" horiz-adv-x="962" 
d="M426 1618h111l362 -1618h-76l-82 371h-520l-82 -371h-76zM481 1550l-245 -1110h489z" />
    <glyph glyph-name="B" unicode="B" horiz-adv-x="997" 
d="M578 0h-455v1597h440q110 0 174.5 -35.5t96.5 -123t32 -240.5q0 -296 -178 -371q31 -9 55 -21.5t54.5 -42.5t50 -72.5t33.5 -115.5t14 -167q0 -117 -20.5 -197t-62.5 -126t-98.5 -65.5t-135.5 -19.5zM197 68h360q65 0 109.5 13.5t81 49t54 104.5t17.5 173q0 93 -14 161.5
t-36 109t-56 65t-68 32.5t-78 8h-370v-716zM559 1530h-362v-676h366q107 0 166 87.5t59 258.5q0 131 -25.5 204t-73 99.5t-130.5 26.5z" />
    <glyph glyph-name="C" unicode="C" horiz-adv-x="948" 
d="M178 799q0 -144 4.5 -243t18 -189t36.5 -145.5t60.5 -96.5t90.5 -58.5t126 -17.5q86 0 140 20t83.5 67.5t40 109.5t10.5 162l76 -13q1 -106 -13.5 -178t-52 -128t-108 -82.5t-176.5 -26.5q-101 0 -171 28.5t-118 86t-74.5 158.5t-37.5 229.5t-11 316.5t11 316.5
t37.5 229.5t74.5 158.5t118 86t171 28.5q106 0 176.5 -26.5t108 -83t52 -128.5t13.5 -178l-76 -12q0 99 -10.5 161.5t-40 109.5t-83.5 67t-140 20q-63 0 -110.5 -14t-83.5 -40t-60.5 -72.5t-40.5 -101.5t-25 -138t-12.5 -171.5t-3.5 -211.5z" />
    <glyph glyph-name="D" unicode="D" horiz-adv-x="999" 
d="M379 0h-256v1597h256q107 0 183 -15.5t135.5 -53.5t96 -95.5t60 -150t32.5 -207.5t9 -276t-9 -276t-32.5 -207.5t-60 -150t-96 -96t-135.5 -54t-183 -15.5zM197 68h204q90 0 154.5 14.5t112 52t76 89.5t46 139t23.5 188t6 248t-6 248t-23.5 188t-46 139t-76 89.5t-112 52
t-154.5 14.5h-204v-1462z" />
    <glyph glyph-name="E" unicode="E" horiz-adv-x="835" 
d="M123 1597h590v-67h-516v-676h454v-68h-454v-718h557v-68h-631v1597z" />
    <glyph glyph-name="F" unicode="F" horiz-adv-x="774" 
d="M197 786v-786h-74v1597h590v-67h-516v-676h454v-68h-454z" />
    <glyph glyph-name="G" unicode="G" horiz-adv-x="999" 
d="M102 799q0 185 13.5 316.5t43 230.5t80.5 157.5t123 86.5t173 28q106 0 176.5 -26.5t108 -83t52 -128.5t13.5 -178l-76 -12q0 99 -10.5 161.5t-40 109.5t-83.5 67t-140 20q-73 0 -127 -17.5t-94 -57.5t-66 -97.5t-41.5 -144.5t-22 -189.5t-6.5 -242.5q0 -143 5 -243
t18 -189.5t36.5 -145t61 -96.5t90 -58.5t125.5 -17.5q179 0 299 53v625h-225v70h299v-740q-161 -77 -373 -77q-101 0 -171 28.5t-117.5 86t-74.5 158t-38 230t-11 316.5z" />
    <glyph glyph-name="H" unicode="H" horiz-adv-x="1019" 
d="M823 1597h74v-1597h-74v786h-626v-786h-74v1597h74v-743h626v743z" />
    <glyph glyph-name="I" unicode="I" horiz-adv-x="339" 
d="M207 1597v-1597h-74v1597h74z" />
    <glyph glyph-name="J" unicode="J" horiz-adv-x="788" 
d="M598 1597h74v-1241q0 -203 -67.5 -289.5t-227.5 -86.5q-69 0 -120 19t-80 49t-46.5 75.5t-23 90t-5.5 101.5l74 13q0 -55 4 -94t17 -77t35 -61t59.5 -36t89.5 -11q69 2 111.5 20t66 58t31.5 92t8 135v1243z" />
    <glyph glyph-name="K" unicode="K" horiz-adv-x="874" 
d="M197 1597l-2 -948l505 948h80l-381 -706l420 -891h-78l-383 815l-163 -299l2 -516h-74v1597h74z" />
    <glyph glyph-name="L" unicode="L" horiz-adv-x="733" 
d="M197 1597v-1529h495v-68h-569v1597h74z" />
    <glyph glyph-name="M" unicode="M" horiz-adv-x="1222" 
d="M664 0h-107l-367 1481l7 -1481h-74v1597h113l374 -1527l375 1527h113v-1597h-74l6 1481z" />
    <glyph glyph-name="N" unicode="N" horiz-adv-x="983" 
d="M229 1597l410 -1087l156 -426l-9 563v950h74v-1597h-106l-410 1087l-156 426l9 -563v-950h-74v1597h106z" />
    <glyph glyph-name="O" unicode="O" horiz-adv-x="983" 
d="M492 49q79 0 133 26.5t89.5 78.5t55.5 145.5t27.5 210t7.5 289.5q0 144 -5 246.5t-18.5 190.5t-35.5 143.5t-57.5 95t-83 56.5t-113.5 17q-79 0 -133 -26.5t-90 -78.5t-55.5 -145t-27.5 -209.5t-8 -289.5q0 -143 5 -246t18.5 -191t36 -144t57.5 -95.5t83 -56.5t114 -17z
M492 -20q-93 0 -158 28t-111 85.5t-72 157t-37.5 230.5t-11.5 318t11.5 318t37.5 230.5t72 157t111 85.5t158 28t158 -28t110.5 -85.5t71.5 -157t37.5 -230.5t11.5 -318t-11.5 -318t-37.5 -230.5t-71.5 -157t-110.5 -85.5t-158 -28z" />
    <glyph glyph-name="P" unicode="P" horiz-adv-x="847" 
d="M197 760h217q71 0 119.5 17.5t85 60.5t54 118.5t17.5 188.5q0 148 -32.5 234t-90.5 118.5t-153 32.5h-217v-770zM197 692v-692h-74v1597h295q84 0 143.5 -19.5t108 -68t72.5 -139.5t24 -225q0 -108 -16.5 -188t-45.5 -130.5t-74 -81t-95.5 -42t-116.5 -11.5h-221z" />
    <glyph glyph-name="Q" unicode="Q" horiz-adv-x="983" 
d="M492 -20q-7 0 -20.5 1t-20.5 1l393 -330l-21 -82l-557 477q-90 76 -127 253t-37 499q0 187 11.5 318t37.5 230.5t72 157t111 85.5t158 28t158 -28t110.5 -85.5t71.5 -157t37.5 -230.5t11.5 -318t-11.5 -318t-37.5 -230.5t-71.5 -157t-110.5 -85.5t-158 -28zM492 49
q79 0 133 26.5t89.5 78.5t55.5 145.5t27.5 210t7.5 289.5q0 144 -5 246.5t-18.5 190.5t-35.5 143.5t-57.5 95t-83 56.5t-113.5 17q-79 0 -133 -26.5t-90 -78.5t-55.5 -145t-27.5 -209.5t-8 -289.5q0 -143 5 -246t18.5 -191t36 -144t57.5 -95.5t83 -56.5t114 -17z" />
    <glyph glyph-name="R" unicode="R" horiz-adv-x="878" 
d="M197 717v-717h-74v1597h305q84 0 142 -17.5t104.5 -64t69 -135.5t22.5 -223q0 -148 -29 -241t-79.5 -136t-129.5 -57l267 -723h-82l-260 717h-256zM197 784h229q57 0 97 9.5t73.5 34.5t53 67t30 106.5t10.5 155.5t-10.5 155.5t-30 106.5t-53 67t-73.5 34.5t-97 9.5h-229
v-746z" />
    <glyph glyph-name="S" unicode="S" horiz-adv-x="911" 
d="M426 47q176 0 252 81t76 278q0 124 -27 194.5t-84.5 109.5t-171.5 72q-41 12 -68.5 21.5t-63 24t-59 31t-50 39t-43 50.5t-31 64t-21 81.5t-6.5 100.5q0 221 81 322.5t275 101.5q63 0 112.5 -11.5t83 -30.5t58 -50t38.5 -63t21.5 -77t10 -84t2.5 -92l-76 -12
q0 50 -1.5 84t-7.5 74t-16 66.5t-28.5 52.5t-45 41t-64.5 24.5t-87 9.5q-146 0 -213 -80.5t-67 -275.5q0 -107 25 -168.5t80 -98.5t163 -69q52 -15 87 -27t75.5 -32t66.5 -42t52.5 -55.5t41.5 -75t24 -97.5t9 -126q0 -220 -98 -321.5t-305 -101.5q-83 0 -145 21t-99.5 56.5
t-60.5 90.5t-31 115t-8 138l76 13q0 -76 5 -127t21.5 -100t45.5 -77.5t77.5 -45.5t118.5 -17z" />
    <glyph glyph-name="T" unicode="T" horiz-adv-x="778" 
d="M426 1530v-1530h-74v1530h-311v67h696v-67h-311z" />
    <glyph glyph-name="U" unicode="U" horiz-adv-x="995" 
d="M498 47q58 0 103 7.5t77.5 21t55 36.5t36 49t21 64.5t10 76.5t2.5 91v1204h76v-1204q0 -85 -8.5 -145t-33 -113.5t-66.5 -85.5t-110 -50.5t-163 -18.5q-94 0 -162 18.5t-110 50.5t-66.5 85.5t-33.5 113.5t-9 145v1204h76v-1204q0 -53 2.5 -91t10 -76.5t21 -64.5t36 -49
t55 -36.5t77.5 -21t103 -7.5z" />
    <glyph glyph-name="V" unicode="V" horiz-adv-x="962" 
d="M537 -20h-111l-363 1617h76l342 -1550l342 1550h76z" />
    <glyph glyph-name="W" unicode="W" horiz-adv-x="1294" 
d="M909 -20l-262 1527l-262 -1527h-100l-203 1617h74l182 -1511l256 1511h106l256 -1511l183 1511h73l-202 -1617h-101z" />
    <glyph glyph-name="X" unicode="X" horiz-adv-x="1044" 
d="M897 0l-375 774l-375 -774h-81l411 842l-358 755h80l323 -692l324 692h80l-359 -755l412 -842h-82z" />
    <glyph glyph-name="Y" unicode="Y" horiz-adv-x="962" 
d="M481 721l342 876h82l-389 -970l2 -627h-74l2 627l-389 970h82z" />
    <glyph glyph-name="Z" unicode="Z" horiz-adv-x="913" 
d="M68 0v57l546 1200l131 277l-348 -2h-309v65h737v-57l-546 -1200l-132 -277l349 3h350v-66h-778z" />
    <glyph glyph-name="bracketleft" unicode="[" horiz-adv-x="532" 
d="M301 1632v-1831h191v-67h-267v1966h267v-68h-191z" />
    <glyph glyph-name="backslash" unicode="\" horiz-adv-x="655" 
d="M522 -184l-471 1966h82l471 -1966h-82z" />
    <glyph glyph-name="bracketright" unicode="]" horiz-adv-x="532" 
d="M231 -199v1831h-190v68h266v-1966h-266v67h190z" />
    <glyph glyph-name="asciicircum" unicode="^" horiz-adv-x="1003" 
d="M502 1548l-172 -338l-205 -391h-76l420 799h66l419 -799h-75l-205 391z" />
    <glyph glyph-name="underscore" unicode="_" horiz-adv-x="655" 
d="M594 -410h-533v70h533v-70z" />
    <glyph glyph-name="grave" unicode="`" horiz-adv-x="1269" 
d="M483 1638h78l105 -426h-60z" />
    <glyph glyph-name="a" unicode="a" horiz-adv-x="876" 
d="M451 1042q-129 0 -182.5 -55t-53.5 -176l-76 12q0 141 73.5 212t238.5 71q309 0 309 -283v-604l4 -219h-57l-13 143q-109 -163 -323 -163q-143 0 -211 85t-68 224q0 163 93.5 243t289.5 107l211 29v170q0 100 -55.5 152t-179.5 52zM170 289q0 -132 55 -187t156 -55
q87 0 168 44.5t137 125.5v387l-201 -26q-81 -11 -136 -28.5t-97 -50t-62 -84.5t-20 -126z" />
    <glyph glyph-name="b" unicode="b" 
d="M481 1106q83 0 143 -27t97.5 -73t59.5 -119.5t30 -154.5t8 -189t-8 -189t-30 -154.5t-59.5 -119.5t-97.5 -73t-143 -27q-178 0 -297 163l-12 -143h-59l4 219v1419h73v-684q121 152 291 152zM190 862v-639q65 -87 132.5 -130.5t152.5 -43.5q66 0 113.5 23t76.5 63
t46.5 104.5t23.5 135.5t6 168t-6 167.5t-23.5 135t-46.5 104.5t-76.5 63t-113.5 23q-85 0 -152.5 -43.5t-132.5 -130.5z" />
    <glyph glyph-name="c" unicode="c" horiz-adv-x="839" 
d="M180 543q0 -267 67 -382.5t216 -115.5q72 0 118.5 15.5t70 48t32 69.5t8.5 92l76 -12q0 -63 -14 -110t-46.5 -86.5t-94 -60.5t-150.5 -21q-186 0 -273.5 133.5t-87.5 429.5t87.5 429.5t273.5 133.5q89 0 150.5 -21t94 -60.5t46.5 -87t14 -110.5l-76 -12q0 55 -8.5 92
t-32 69.5t-70 48t-118.5 15.5q-149 0 -216 -115t-67 -382z" />
    <glyph glyph-name="d" unicode="d" 
d="M440 1106q170 0 291 -152v684h74v-1419l4 -219h-59l-13 143q-119 -163 -297 -163q-83 0 -143 27t-97.5 73t-59.5 119.5t-30 154.5t-8 189t8 189t30 154.5t59.5 119.5t97.5 73t143 27zM731 223v639q-65 87 -132.5 130.5t-152.5 43.5q-66 0 -113.5 -23t-76.5 -63
t-46.5 -104.5t-23.5 -135t-6 -167.5t6 -168t23.5 -135.5t46.5 -104.5t76.5 -63t113.5 -23q85 0 152.5 43.5t132.5 130.5z" />
    <glyph glyph-name="e" unicode="e" horiz-adv-x="882" 
d="M791 514h-609q0 -97 7 -166.5t25 -129.5t49 -96.5t80 -56.5t116 -20q75 0 125 17t76 51t35.5 73.5t9.5 96.5l75 -13q0 -67 -15 -117t-50.5 -90.5t-99.5 -61.5t-156 -21q-85 0 -148 25t-103 70.5t-63.5 117.5t-33 155t-9.5 195q0 114 8.5 197t31.5 155t62.5 116.5
t101 69.5t147.5 25q62 0 110.5 -13t84 -35.5t61 -60.5t41.5 -81.5t25 -104t12.5 -123t3.5 -143.5v-31zM453 1040q-156 0 -213.5 -104.5t-57.5 -351.5h531q0 95 -5 159.5t-20.5 125t-44 95.5t-75.5 55.5t-115 20.5z" />
    <glyph glyph-name="f" unicode="f" horiz-adv-x="571" 
d="M66 1020v65h127v396q0 178 208 178q63 0 115 -21l-10 -69q-47 20 -105 20q-69 0 -102 -24t-33 -99v-381h221v-65h-221v-1020h-73v1020h-127z" />
    <glyph glyph-name="g" unicode="g" 
d="M440 20q-83 0 -143 26t-97.5 70.5t-59.5 115.5t-30 148.5t-8 182.5t8 182.5t30 148.5t59.5 115.5t97.5 70.5t143 26q178 0 297 -164l13 143h59l-4 -219v-987q0 -69 -17 -122.5t-55 -97t-106.5 -66.5t-165.5 -23t-164.5 21.5t-104.5 63t-53 94.5t-16 124l76 12
q0 -65 11 -108t39 -77t80.5 -49.5t131.5 -15.5q150 0 210 61.5t60 166.5v309q-118 -152 -291 -152zM731 264v598q-63 86 -131.5 130t-155.5 44q-65 0 -112 -22t-76.5 -60.5t-46.5 -100t-23 -129.5t-6 -161t6 -161t23 -130t46.5 -100.5t76.5 -61t112 -22.5q87 0 155 44.5
t132 131.5z" />
    <glyph glyph-name="h" unicode="h" horiz-adv-x="888" 
d="M190 1638v-686q48 65 134 109.5t196 44.5q121 0 190.5 -63t69.5 -156v-887h-73v856q0 80 -48.5 130t-150.5 50q-101 0 -185 -46.5t-133 -121.5v-868h-73v1638h73z" />
    <glyph glyph-name="i" unicode="i" horiz-adv-x="315" 
d="M121 0v1085h74v-1085h-74zM213 1516v-111h-111v111h111z" />
    <glyph glyph-name="j" unicode="j" horiz-adv-x="315" 
d="M195 1085v-1333q0 -88 -45 -135t-148 -47q-61 0 -111 20l11 70q42 -18 100 -18q60 0 89.5 25.5t29.5 101.5v1316h74zM213 1516v-111h-111v111h111z" />
    <glyph glyph-name="k" unicode="k" horiz-adv-x="866" 
d="M190 1638l-2 -1161l486 608h96l-383 -471l426 -614h-88l-385 555l-152 -184l2 -371h-73v1638h73z" />
    <glyph glyph-name="l" unicode="l" horiz-adv-x="315" 
d="M121 0v1638h74v-1638h-74z" />
    <glyph glyph-name="m" unicode="m" horiz-adv-x="1363" 
d="M172 1085l12 -143q43 75 117 119.5t178 44.5q99 0 159.5 -44.5t76.5 -117.5q99 162 297 162q120 0 181.5 -62t61.5 -159v-885h-73v856q0 180 -187 180q-167 0 -272 -176v-860h-74v856q0 180 -186 180q-168 0 -273 -176v-860h-73v866l-4 219h59z" />
    <glyph glyph-name="n" unicode="n" horiz-adv-x="888" 
d="M172 1085l12 -143q44 69 132 116.5t204 47.5q121 0 190.5 -63t69.5 -156v-887h-73v856q0 80 -48.5 130t-150.5 50q-101 0 -185 -46.5t-133 -121.5v-868h-73v866l-4 219h59z" />
    <glyph glyph-name="o" unicode="o" 
d="M461 45q148 0 214 115.5t66 382.5t-66 382t-214 115t-214.5 -115t-66.5 -382t66.5 -382.5t214.5 -115.5zM461 -20q-189 0 -274 128.5t-85 434.5t85 434.5t274 128.5t273.5 -128.5t84.5 -434.5t-84.5 -434.5t-273.5 -128.5z" />
    <glyph glyph-name="p" unicode="p" 
d="M481 -20q-171 0 -291 151v-541h-73v1276l-4 219h59l12 -143q119 164 297 164q83 0 143 -27t97.5 -73t59.5 -119.5t30 -154.5t8 -189t-8 -189t-30 -154.5t-59.5 -119.5t-97.5 -73t-143 -27zM190 862v-639q65 -87 132.5 -130.5t152.5 -43.5q66 0 113.5 23t76.5 63
t46.5 104.5t23.5 135.5t6 168t-6 167.5t-23.5 135t-46.5 104.5t-76.5 63t-113.5 23q-85 0 -152.5 -43.5t-132.5 -130.5z" />
    <glyph glyph-name="q" unicode="q" 
d="M440 -20q-83 0 -143 27t-97.5 73t-59.5 119.5t-30 154.5t-8 189t8 189t30 154.5t59.5 119.5t97.5 73t143 27q178 0 297 -164l13 143h59l-4 -219v-1276h-74v541q-120 -151 -291 -151zM731 223v639q-65 87 -132.5 130.5t-152.5 43.5q-66 0 -113.5 -23t-76.5 -63
t-46.5 -104.5t-23.5 -135t-6 -167.5t6 -168t23.5 -135.5t46.5 -104.5t76.5 -63t113.5 -23q85 0 152.5 43.5t132.5 130.5z" />
    <glyph glyph-name="r" unicode="r" horiz-adv-x="581" 
d="M455 1036q-159 0 -265 -178v-858h-73v866l-4 219h59l12 -143q43 73 113.5 118.5t151.5 45.5q45 0 79 -12l-6 -66q-24 8 -67 8z" />
    <glyph glyph-name="s" unicode="s" horiz-adv-x="778" 
d="M369 43q76 0 127 15.5t79 48t39 73t11 99.5q0 54 -13 93t-32 64t-58 45t-73.5 31t-96.5 27q-41 11 -66.5 19t-57.5 22.5t-51 33.5t-37 47t-26 67.5t-8 90.5q0 287 297 287q71 0 122 -13.5t81.5 -37t48 -62t23.5 -79.5t6 -99l-76 -12q0 61 -6.5 99t-27 73t-63 51
t-110.5 16q-116 0 -167.5 -56t-51.5 -165q0 -48 6.5 -79t19.5 -53.5t42.5 -39t64.5 -28.5t97 -27q42 -11 66 -18t60 -21t56.5 -28.5t45 -38t37 -51.5t21.5 -68t9 -88q0 -150 -76 -225.5t-260 -75.5q-74 0 -128 14.5t-86.5 38.5t-51.5 62.5t-26 79.5t-7 95l75 13
q0 -48 3 -78.5t15.5 -64.5t36 -53t65.5 -31.5t102 -12.5z" />
    <glyph glyph-name="t" unicode="t" horiz-adv-x="583" 
d="M72 1020v65h127v287l73 12v-299h242v-65h-242v-844q0 -76 30.5 -101.5t90.5 -25.5q57 0 101 19l10 -68q-50 -20 -111 -20q-194 0 -194 182v858h-127z" />
    <glyph glyph-name="u" unicode="u" horiz-adv-x="888" 
d="M717 0l-12 143q-44 -68 -132 -115.5t-204 -47.5q-121 0 -190.5 63t-69.5 156v886h73v-856q0 -80 48.5 -130t150.5 -50q101 0 184.5 46.5t132.5 121.5v868h74v-866l4 -219h-59z" />
    <glyph glyph-name="v" unicode="v" horiz-adv-x="819" 
d="M743 1085l-282 -1105h-103l-282 1105h76l258 -1038l258 1038h75z" />
    <glyph glyph-name="w" unicode="w" horiz-adv-x="1187" 
d="M649 1085l223 -1015l154 1015h76l-178 -1105h-97l-233 1038l-234 -1038h-96l-178 1105h76l153 -1015l224 1015h110z" />
    <glyph glyph-name="x" unicode="x" horiz-adv-x="851" 
d="M694 0l-268 506l-268 -506h-82l303 563l-275 522h80l242 -475l242 475h80l-275 -522l303 -563h-82z" />
    <glyph glyph-name="y" unicode="y" horiz-adv-x="839" 
d="M420 125l270 960h78l-293 -1007l-153 -488h-82l141 430l-309 1065h78z" />
    <glyph glyph-name="z" unicode="z" horiz-adv-x="798" 
d="M82 0v63l532 957h-510v65h590v-63l-532 -956l555 2v-68h-635z" />
    <glyph glyph-name="braceleft" unicode="{" horiz-adv-x="614" 
d="M199 717q55 -25 79.5 -93t24.5 -147v-471q0 -116 50.5 -160.5t138.5 -44.5h81v-67h-61q-75 0 -128.5 17.5t-83.5 43t-47 67t-21.5 78t-4.5 85.5v454q0 82 -17.5 127t-48.5 60.5t-85 15.5h-39v70h39q82 0 116.5 41t34.5 161v455q0 49 4.5 85.5t21.5 78t47 67t83.5 43
t128.5 17.5h61v-68h-81q-88 0 -138.5 -44.5t-50.5 -160.5v-471q0 -79 -24.5 -146.5t-79.5 -92.5z" />
    <glyph glyph-name="bar" unicode="|" horiz-adv-x="552" 
d="M313 1700v-1966h-73v1966h73z" />
    <glyph glyph-name="braceright" unicode="}" horiz-adv-x="614" 
d="M416 717q-55 25 -80 92.5t-25 146.5v471q0 116 -50 160.5t-138 44.5h-82v68h61q75 0 128.5 -17.5t83.5 -43t47 -67t21.5 -78t4.5 -85.5v-455q0 -120 35 -161t117 -41h39v-70h-39q-82 0 -117 -41.5t-35 -161.5v-454q0 -49 -4.5 -85.5t-21.5 -78t-47 -67t-83.5 -43
t-128.5 -17.5h-61v67h82q88 0 138 44.5t50 160.5v471q0 79 25 147t80 93z" />
    <glyph glyph-name="asciitilde" unicode="~" horiz-adv-x="1003" 
d="M915 743l48 -57q-9 -12 -32.5 -31.5t-76.5 -42t-109 -22.5q-66 0 -126 18.5t-98.5 40t-94 40t-113.5 18.5q-43 0 -83.5 -19.5t-59.5 -39.5l-20 -19l-48 57q9 12 32.5 31.5t76 42t108.5 22.5q66 0 126.5 -18t99 -40t94 -40t113.5 -18q43 0 83.5 19t60.5 39z" />
    <glyph glyph-name="nbspace" unicode="&#xa0;" horiz-adv-x="368" 
 />
    <glyph glyph-name="exclamdown" unicode="&#xa1;" horiz-adv-x="327" 
d="M221 -410h-115l37 1106h41zM109 975v110h110v-110h-110z" />
    <glyph glyph-name="cent" unicode="&#xa2;" horiz-adv-x="841" 
d="M180 782q0 -267 67 -382t216 -115q72 0 118.5 15.5t70 48t32 69.5t8.5 92l76 -12q0 -63 -14 -110.5t-46.5 -87t-94 -60.5t-150.5 -21q-37 0 -55 2l-68 -221h-76l78 236q-123 37 -181.5 169t-58.5 377q0 296 87.5 430t273.5 134q13 0 63 -5l70 224h76l-78 -236
q95 -28 134.5 -94.5t39.5 -167.5l-76 -12q0 55 -8.5 92t-32 69.5t-70 48t-118.5 15.5q-149 0 -216 -115.5t-67 -382.5z" />
    <glyph glyph-name="sterling" unicode="&#xa3;" horiz-adv-x="1013" 
d="M256 840v356q0 56 2.5 96t10.5 83.5t22.5 73t39 57.5t59.5 44t85.5 25.5t114.5 9.5t114 -9.5t85 -25.5t59.5 -44t39 -57t22 -73t10 -83.5t2.5 -96.5l-76 -12q0 55 -1.5 91t-7.5 75t-17 62.5t-29.5 46t-46 34t-65.5 18.5t-89 7t-89 -7t-65.5 -18.5t-46 -34t-29.5 -46
t-17 -62.5t-7.5 -75t-1.5 -91v-344h360v-66h-360v-702h608v-72h-852v72h166v702h-166v66h166z" />
    <glyph glyph-name="currency" unicode="&#xa4;" horiz-adv-x="1515" 
d="M758 258q236 0 381 139.5t145 384.5t-145 385t-381 140t-381.5 -140t-145.5 -385t145.5 -384.5t381.5 -139.5zM758 184q-245 0 -410 140l-196 -197l-50 49l197 197q-141 157 -141 409q0 253 141 410l-197 197l50 49l196 -199q162 141 410 141q245 0 409 -139l197 197
l49 -49l-196 -197q141 -160 141 -410q0 -249 -141 -409l196 -197l-49 -49l-199 197q-162 -140 -407 -140z" />
    <glyph glyph-name="yen" unicode="&#xa5;" horiz-adv-x="962" 
d="M481 729l330 836h82l-350 -863h280v-65h-307v-184h307v-66h-307l2 -387h-74v387h-305v66h305l2 184h-307v65h281l-350 863h82z" />
    <glyph glyph-name="brokenbar" unicode="&#xa6;" horiz-adv-x="552" 
d="M313 1700v-942h-73v942h73zM313 676v-942h-73v942h73z" />
    <glyph glyph-name="section" unicode="&#xa7;" horiz-adv-x="901" 
d="M760 608q0 -82 -14 -145t-34 -99.5t-51.5 -62.5t-55.5 -37t-56 -20v-2q83 -19 127.5 -104t44.5 -183q0 -200 -68.5 -292.5t-242.5 -92.5q-58 0 -103 10.5t-76 27.5t-52.5 46.5t-33.5 58.5t-18.5 73.5t-8 81.5t-1.5 91l73 12q0 -51 1 -83t6 -71t14 -63t25 -48.5t39 -37.5
t57 -21.5t78 -8.5q60 0 101 13.5t72 47t45.5 92.5t14.5 148q0 118 -44.5 183.5t-168.5 84.5q-38 5 -60.5 9.5t-57 16t-55.5 27t-45.5 43t-38 64t-23 91t-9.5 122.5q0 82 14 145t34 99.5t51.5 62.5t55.5 37t56 20v2q-83 19 -127.5 104t-44.5 183q0 200 69 292.5t243 92.5
q58 0 103 -10.5t75.5 -27.5t52 -47t33.5 -58.5t18.5 -73t8 -81t1.5 -91.5l-73 -12q0 51 -1 83t-6 71t-13.5 62.5t-24.5 48.5t-39 38t-57 21.5t-78 8.5q-80 0 -129 -24.5t-77 -92t-28 -184.5q0 -118 44.5 -183.5t168.5 -84.5q38 -5 60.5 -9.5t57 -16t55.5 -27t45.5 -43
t38 -64t23 -91t9.5 -122.5zM682 610q0 75 -11.5 128.5t-29 84t-47.5 48t-59 23t-70 5.5q-125 0 -185.5 -72.5t-60.5 -248.5q0 -75 11.5 -128.5t29 -84t47.5 -48t59 -23t70 -5.5q125 0 185.5 72.5t60.5 248.5z" />
    <glyph glyph-name="dieresis" unicode="&#xa8;" horiz-adv-x="1269" 
d="M526 1516v-111h-110v111h110zM854 1516v-111h-111v111h111z" />
    <glyph glyph-name="copyright" unicode="&#xa9;" horiz-adv-x="1884" 
d="M123 799q0 167 65 318.5t174.5 261t261 174.5t318.5 65t318.5 -65t261 -174.5t174.5 -261t65 -318.5t-65 -318.5t-174.5 -261t-261 -174.5t-318.5 -65t-318.5 65t-261 174.5t-174.5 261t-65 318.5zM197 799q0 -151 59 -289t159 -238t238 -159.5t289 -59.5t289 59.5
t238 159.5t159.5 238t59.5 289t-59.5 289t-159.5 238t-238 159t-289 59t-289 -59t-238 -159t-159 -238t-59 -289zM555 799q0 -204 101.5 -311.5t273.5 -110.5q150 -3 241 62t115 184l88 -11q-31 -146 -139.5 -230.5t-294.5 -84.5q-215 0 -344 130.5t-129 371.5t129 371
t344 130q186 0 294.5 -84.5t139.5 -230.5l-88 -10q-24 119 -115 184t-241 62q-172 -3 -273.5 -110.5t-101.5 -311.5z" />
    <glyph glyph-name="ordfeminine" unicode="&#xaa;" horiz-adv-x="702" 
d="M82 1001q0 130 77 193t242 86l125 18v58q0 41 -1 63.5t-6.5 49.5t-16 40t-29 25.5t-47 17t-68.5 4.5q-60 0 -96 -10t-54 -36t-23 -57t-5 -87l-69 12q0 62 9 102.5t35 73.5t76 48.5t127 15.5q63 0 106 -11.5t69 -31t40 -54.5t18.5 -72.5t4.5 -94.5v-371l4 -184h-55
l-13 102q-29 -49 -88.5 -86t-150.5 -37q-102 0 -156.5 57.5t-54.5 165.5zM152 1001q0 -79 37.5 -120t107.5 -41q50 0 90.5 14t68.5 40.5t40.5 43t29.5 43.5v262l-129 -20q-126 -19 -185.5 -67t-59.5 -155z" />
    <glyph glyph-name="guillemotleft" unicode="&#xab;" horiz-adv-x="1081" 
d="M532 1004v-84l-342 -275l342 -274v-84l-426 329v58zM958 1004v-84l-342 -275l342 -274v-84l-426 329v58z" />
    <glyph glyph-name="logicalnot" unicode="&#xac;" horiz-adv-x="1474" 
d="M1221 426v676h-1037v69h1106v-745h-69z" />
    <glyph glyph-name="uni00AD" unicode="&#xad;" horiz-adv-x="778" 
d="M655 651h-532v70h532v-70z" />
    <glyph glyph-name="registered" unicode="&#xae;" horiz-adv-x="1884" 
d="M123 799q0 167 65 318.5t174.5 261t261 174.5t318.5 65t318.5 -65t261 -174.5t174.5 -261t65 -318.5t-65 -318.5t-174.5 -261t-261 -174.5t-318.5 -65t-318.5 65t-261 174.5t-174.5 261t-65 318.5zM197 799q0 -151 59 -289t159 -238t238 -159.5t289 -59.5t289 59.5
t238 159.5t159.5 238t59.5 289t-59.5 289t-159.5 238t-238 159t-289 59t-289 -59t-238 -159t-159 -238t-59 -289zM647 702v-385h-76v963h404q315 0 315 -289q0 -239 -217 -280l227 -394h-96l-217 385h-340zM647 1206v-430h359q27 0 50.5 3.5t53 17t50.5 35.5t35.5 63
t14.5 96t-14.5 96t-35.5 63t-50.5 35.5t-53 17t-50.5 3.5h-359z" />
    <glyph glyph-name="macron" unicode="&#xaf;" horiz-adv-x="1269" 
d="M438 1427v66h393v-66h-393z" />
    <glyph glyph-name="degree" unicode="&#xb0;" horiz-adv-x="1044" 
d="M522 918q147 0 228 74.5t81 224.5t-81 224.5t-228 74.5t-228 -74.5t-81 -224.5t81 -224.5t228 -74.5zM522 848q-174 0 -280.5 94t-106.5 275t106.5 274.5t280.5 93.5t280.5 -93.5t106.5 -274.5t-106.5 -275t-280.5 -94z" />
    <glyph glyph-name="plusminus" unicode="&#xb1;" horiz-adv-x="1474" 
d="M1290 344h-1106v70h1106v-70zM702 553v365h-518v69h518v365h70v-365h518v-69h-518v-365h-70z" />
    <glyph glyph-name="twosuperior" unicode="&#xb2;" horiz-adv-x="612" 
d="M303 1526q-76 0 -104.5 -37t-28.5 -119l-70 10q2 105 44 156t159 51q115 0 157 -52.5t42 -168.5q0 -50 -10.5 -86t-38 -66.5t-55.5 -51t-81 -54.5q-54 -34 -84 -60.5t-46 -61.5t-19.5 -68t-3.5 -95h356v-63h-430q0 68 2 112t11 83t20 62.5t35.5 49t51.5 44.5t73 48
q92 58 121.5 98.5t29.5 106.5q0 89 -27 125.5t-104 36.5z" />
    <glyph glyph-name="threesuperior" unicode="&#xb3;" horiz-adv-x="606" 
d="M295 811q79 0 115 39.5t36 126.5q0 53 -12 89t-33 52.5t-41.5 22.5t-46.5 6h-84v65h84q52 0 85.5 31.5t33.5 122.5q0 89 -29 124.5t-106 35.5q-75 0 -104 -39t-29 -123l-68 8q0 107 43 161t158 54q114 0 159.5 -47.5t45.5 -167.5q0 -157 -105 -190q121 -33 121 -211
q0 -110 -53 -165.5t-172 -55.5q-115 0 -160 56.5t-45 160.5l68 10q0 -81 29.5 -123.5t109.5 -42.5z" />
    <glyph glyph-name="acute" unicode="&#xb4;" horiz-adv-x="1269" 
d="M709 1638h77l-122 -426h-60z" />
    <glyph glyph-name="mu" unicode="&#xb5;" horiz-adv-x="888" 
d="M109 -410v1495h73v-856q0 -80 48.5 -130t150.5 -50q101 0 184.5 46.5t132.5 121.5v868h74v-866l4 -219h-59l-12 143q-44 -68 -132 -115.5t-204 -47.5q-121 0 -189 65l2 -127v-328h-73z" />
    <glyph glyph-name="paragraph" unicode="&#xb6;" horiz-adv-x="847" 
d="M725 0h-74v1530h-73v-1530h-74v692h-74q-66 0 -116.5 11.5t-95.5 42t-74 81t-45.5 130.5t-16.5 188q0 134 24 225t72.5 139.5t108 68t143.5 19.5h295v-1597zM158 1145q0 -113 17.5 -188.5t54 -118.5t85 -60.5t119.5 -17.5h70v770h-70q-95 0 -153 -32.5t-90.5 -118.5
t-32.5 -234z" />
    <glyph glyph-name="periodcentered" unicode="&#xb7;" horiz-adv-x="450" 
d="M287 748v-123h-123v123h123z" />
    <glyph glyph-name="cedilla" unicode="&#xb8;" horiz-adv-x="1269" 
d="M596 25h51l-31 -111q222 -32 222 -176q0 -85 -62 -126.5t-162 -41.5q-44 0 -90.5 11t-70.5 24l20 59q55 -31 125 -33q80 -2 124 21.5t44 83.5q0 34 -18.5 58t-52 36t-64 18t-71.5 11q-13 1 -19 2z" />
    <glyph glyph-name="onesuperior" unicode="&#xb9;" horiz-adv-x="507" 
d="M428 760h-324v63h125v660q-50 -63 -135 -105v68q77 42 146 141h57v-764h131v-63z" />
    <glyph glyph-name="ordmasculine" unicode="&#xba;" horiz-adv-x="749" 
d="M92 1198q0 222 67 321t216 99t215.5 -98.5t66.5 -321.5t-66.5 -321.5t-215.5 -98.5t-216 99t-67 321zM588 1198q0 197 -52 279t-161 82t-161 -82t-52 -279t52 -278.5t161 -81.5t161 81.5t52 278.5z" />
    <glyph glyph-name="guillemotright" unicode="&#xbb;" horiz-adv-x="1081" 
d="M549 920v84l426 -330v-58l-426 -329v84l342 274zM123 920v84l426 -330v-58l-426 -329v84l342 274z" />
    <glyph glyph-name="onequarter" unicode="&#xbc;" horiz-adv-x="1439" 
d="M428 760h-324v63h125v660q-50 -63 -135 -105v68q77 42 146 141h57v-764h131v-63zM1112 1565l-799 -1565h-82l799 1565h82zM1362 195h-96v-195h-66v195h-287v63l271 569h82v-571h96v-61zM1200 256l4 475l-225 -477z" />
    <glyph glyph-name="onehalf" unicode="&#xbd;" horiz-adv-x="1447" 
d="M428 760h-324v63h125v660q-50 -63 -135 -105v68q77 42 146 141h57v-764h131v-63zM1112 1565l-799 -1565h-82l799 1565h82zM1139 766q-76 0 -104.5 -37t-28.5 -119l-70 11q2 105 44 155.5t159 50.5q114 0 156 -52.5t42 -168.5q0 -50 -10.5 -86t-37.5 -66.5t-55 -51.5
t-81 -54q-44 -28 -71 -51t-44.5 -45t-25.5 -52t-10.5 -59t-2.5 -78h357v-63h-430q0 82 4.5 131.5t14 89t34 68.5t54 52.5t85.5 57.5q92 59 122 99t30 106q0 89 -27 125.5t-104 36.5z" />
    <glyph glyph-name="threequarters" unicode="&#xbe;" horiz-adv-x="1538" 
d="M295 811q79 0 115 39.5t36 126.5q0 53 -12 89t-33 52.5t-41.5 22.5t-46.5 6h-84v65h84q52 0 85.5 31.5t33.5 122.5q0 89 -29 124.5t-106 35.5q-75 0 -104 -39t-29 -123l-68 8q0 107 43 161t158 54q114 0 159.5 -47.5t45.5 -167.5q0 -157 -105 -190q121 -33 121 -211
q0 -110 -53 -165.5t-172 -55.5q-115 0 -160 56.5t-45 160.5l68 10q0 -81 29.5 -123.5t109.5 -42.5zM1210 1565l-798 -1565h-82l798 1565h82zM1460 195h-96v-195h-66v195h-286v63l270 569h82v-571h96v-61zM1298 256l5 475l-226 -477z" />
    <glyph glyph-name="questiondown" unicode="&#xbf;" horiz-adv-x="864" 
d="M416 696h53q49 -132 49 -215q0 -91 -34 -139.5t-103 -87.5q-38 -22 -55 -32t-46.5 -30t-42.5 -34t-31.5 -38t-26 -48t-13.5 -57t-6 -72q0 -158 68.5 -231.5t203.5 -73.5q156 0 215.5 81t59.5 265l75 -13q0 -214 -80 -307.5t-270 -93.5q-181 0 -265.5 90.5t-84.5 280.5
q0 77 15 132.5t53 97t63.5 60.5t83.5 54q19 12 29 18q73 44 97.5 78.5t27.5 99.5q3 68 -35 215zM391 975v110h111v-110h-111z" />
    <glyph glyph-name="Agrave" unicode="&#xc0;" horiz-adv-x="962" 
d="M330 2150h78l104 -426h-59zM426 1618h111l362 -1618h-76l-82 371h-520l-82 -371h-76zM481 1550l-245 -1110h489z" />
    <glyph glyph-name="Aacute" unicode="&#xc1;" horiz-adv-x="962" 
d="M555 2150h78l-123 -426h-59zM426 1618h111l362 -1618h-76l-82 371h-520l-82 -371h-76zM481 1550l-245 -1110h489z" />
    <glyph glyph-name="Acircumflex" unicode="&#xc2;" horiz-adv-x="962" 
d="M737 1724h-59l-197 365l-196 -365h-60l213 426h86zM426 1618h111l362 -1618h-76l-82 371h-520l-82 -371h-76zM481 1550l-245 -1110h489z" />
    <glyph glyph-name="Atilde" unicode="&#xc3;" horiz-adv-x="962" 
d="M700 2028l58 -11q-6 -87 -44 -135t-102 -47q-32 1 -62.5 16.5t-55.5 37t-48.5 43.5t-50 37.5t-51.5 17.5q-44 3 -64 -29.5t-26 -104.5l-57 11q6 87 43.5 135t101.5 47q32 -1 62.5 -16.5t55.5 -37t48.5 -43.5t50 -37.5t51.5 -17.5q44 -3 64 29.5t26 104.5zM426 1618h111
l362 -1618h-76l-82 371h-520l-82 -371h-76zM481 1550l-245 -1110h489z" />
    <glyph glyph-name="Adieresis" unicode="&#xc4;" horiz-adv-x="962" 
d="M373 2028v-111h-111v111h111zM700 2028v-111h-110v111h110zM426 1618h111l362 -1618h-76l-82 371h-520l-82 -371h-76zM481 1550l-245 -1110h489z" />
    <glyph glyph-name="Aring" unicode="&#xc5;" horiz-adv-x="962" 
d="M248 1937q0 104 62.5 169t170.5 65t171 -65.5t63 -168.5t-63 -168t-171 -65t-170.5 65t-62.5 168zM651 1937q0 83 -44 130t-126 47t-126 -47t-44 -130t44 -129.5t126 -46.5t126 46.5t44 129.5zM426 1618h111l362 -1618h-76l-82 371h-520l-82 -371h-76zM481 1550
l-245 -1110h489z" />
    <glyph glyph-name="AE" unicode="&#xc6;" horiz-adv-x="1449" 
d="M633 1597h694v-67h-573l61 -676h451v-68h-445l66 -718h481v-68h-549l-35 371h-516l-133 -371h-78zM682 1524l-389 -1084h485z" />
    <glyph glyph-name="Ccedilla" unicode="&#xc7;" horiz-adv-x="948" 
d="M178 799q0 -144 4.5 -243t18 -189t36.5 -145.5t60.5 -96.5t90.5 -58.5t126 -17.5q86 0 140 20t83.5 67.5t40 109.5t10.5 162l76 -13q1 -104 -13 -175.5t-50.5 -127t-103.5 -83t-169 -29.5l-18 -66q221 -32 221 -176q0 -85 -61.5 -126.5t-161.5 -41.5q-44 0 -91 11t-71 24
l21 59q55 -31 125 -33q80 -2 123.5 21.5t43.5 83.5q0 34 -18.5 58t-52 36t-64 18t-71.5 11q-13 1 -19 2l41 121q-91 5 -154.5 37t-106.5 91t-67.5 158.5t-34.5 225t-10 305.5q0 188 11 316.5t37.5 229.5t74.5 158.5t118 86t171 28.5q106 0 176.5 -26.5t108 -83t52 -128.5
t13.5 -178l-76 -12q0 99 -10.5 161.5t-40 109.5t-83.5 67t-140 20q-63 0 -110.5 -14t-83.5 -40t-60.5 -72.5t-40.5 -101.5t-25 -138t-12.5 -171.5t-3.5 -211.5z" />
    <glyph glyph-name="Egrave" unicode="&#xc8;" horiz-adv-x="835" 
d="M268 2150h78l105 -426h-60zM123 1597h590v-67h-516v-676h454v-68h-454v-718h557v-68h-631v1597z" />
    <glyph glyph-name="Eacute" unicode="&#xc9;" horiz-adv-x="835" 
d="M492 2150h77l-123 -426h-59zM123 1597h590v-67h-516v-676h454v-68h-454v-718h557v-68h-631v1597z" />
    <glyph glyph-name="Ecircumflex" unicode="&#xca;" horiz-adv-x="835" 
d="M676 1724h-60l-196 365l-197 -365h-59l213 426h86zM123 1597h590v-67h-516v-676h454v-68h-454v-718h557v-68h-631v1597z" />
    <glyph glyph-name="Edieresis" unicode="&#xcb;" horiz-adv-x="835" 
d="M309 2028v-111h-110v111h110zM637 2028v-111h-111v111h111zM123 1597h590v-67h-516v-676h454v-68h-454v-718h557v-68h-631v1597z" />
    <glyph glyph-name="Igrave" unicode="&#xcc;" horiz-adv-x="339" 
d="M18 2150h78l105 -426h-60zM207 1597v-1597h-74v1597h74z" />
    <glyph glyph-name="Iacute" unicode="&#xcd;" horiz-adv-x="339" 
d="M244 2150h78l-123 -426h-60zM207 1597v-1597h-74v1597h74z" />
    <glyph glyph-name="Icircumflex" unicode="&#xce;" horiz-adv-x="339" 
d="M426 1724h-59l-197 365l-197 -365h-59l213 426h86zM207 1597v-1597h-74v1597h74z" />
    <glyph glyph-name="Idieresis" unicode="&#xcf;" horiz-adv-x="339" 
d="M61 2028v-111h-110v111h110zM389 2028v-111h-110v111h110zM207 1597v-1597h-74v1597h74z" />
    <glyph glyph-name="Eth" unicode="&#xd0;" horiz-adv-x="1093" 
d="M473 0h-256v786h-156v68h156v743h256q107 0 183 -15.5t135.5 -53.5t96 -95.5t60 -150t32.5 -207.5t9 -276t-9 -276t-32.5 -207.5t-60 -150t-96 -96t-135.5 -54t-183 -15.5zM291 68h205q90 0 154.5 14.5t112 52t76 89.5t45.5 139t23 187.5t6 248.5t-6 248.5t-23 187.5
t-45.5 139t-76 89.5t-112 52t-154.5 14.5h-205v-676h303v-68h-303v-718z" />
    <glyph glyph-name="Ntilde" unicode="&#xd1;" horiz-adv-x="983" 
d="M711 2028l57 -11q-6 -87 -43.5 -135t-101.5 -47q-39 1 -77.5 24.5t-65.5 51t-61.5 51t-64.5 25.5q-44 3 -64 -29.5t-26 -104.5l-57 11q6 87 43.5 135t101.5 47q39 -1 77.5 -24.5t65.5 -51t61.5 -51t64.5 -25.5q44 -3 64 29.5t26 104.5zM229 1597l410 -1087l156 -426
l-9 563v950h74v-1597h-106l-410 1087l-156 426l9 -563v-950h-74v1597h106z" />
    <glyph glyph-name="Ograve" unicode="&#xd2;" horiz-adv-x="983" 
d="M340 2150h78l104 -426h-59zM492 49q79 0 133 26.5t89.5 78.5t55.5 145.5t27.5 210t7.5 289.5q0 144 -5 246.5t-18.5 190.5t-35.5 143.5t-57.5 95t-83 56.5t-113.5 17q-79 0 -133 -26.5t-90 -78.5t-55.5 -145t-27.5 -209.5t-8 -289.5q0 -143 5 -246t18.5 -191t36 -144
t57.5 -95.5t83 -56.5t114 -17zM492 -20q-93 0 -158 28t-111 85.5t-72 157t-37.5 230.5t-11.5 318t11.5 318t37.5 230.5t72 157t111 85.5t158 28t158 -28t110.5 -85.5t71.5 -157t37.5 -230.5t11.5 -318t-11.5 -318t-37.5 -230.5t-71.5 -157t-110.5 -85.5t-158 -28z" />
    <glyph glyph-name="Oacute" unicode="&#xd3;" horiz-adv-x="983" 
d="M565 2150h78l-123 -426h-59zM492 49q79 0 133 26.5t89.5 78.5t55.5 145.5t27.5 210t7.5 289.5q0 144 -5 246.5t-18.5 190.5t-35.5 143.5t-57.5 95t-83 56.5t-113.5 17q-79 0 -133 -26.5t-90 -78.5t-55.5 -145t-27.5 -209.5t-8 -289.5q0 -143 5 -246t18.5 -191t36 -144
t57.5 -95.5t83 -56.5t114 -17zM492 -20q-93 0 -158 28t-111 85.5t-72 157t-37.5 230.5t-11.5 318t11.5 318t37.5 230.5t72 157t111 85.5t158 28t158 -28t110.5 -85.5t71.5 -157t37.5 -230.5t11.5 -318t-11.5 -318t-37.5 -230.5t-71.5 -157t-110.5 -85.5t-158 -28z" />
    <glyph glyph-name="Ocircumflex" unicode="&#xd4;" horiz-adv-x="983" 
d="M748 1724h-60l-196 365l-197 -365h-59l213 426h86zM492 49q79 0 133 26.5t89.5 78.5t55.5 145.5t27.5 210t7.5 289.5q0 144 -5 246.5t-18.5 190.5t-35.5 143.5t-57.5 95t-83 56.5t-113.5 17q-79 0 -133 -26.5t-90 -78.5t-55.5 -145t-27.5 -209.5t-8 -289.5q0 -143 5 -246
t18.5 -191t36 -144t57.5 -95.5t83 -56.5t114 -17zM492 -20q-93 0 -158 28t-111 85.5t-72 157t-37.5 230.5t-11.5 318t11.5 318t37.5 230.5t72 157t111 85.5t158 28t158 -28t110.5 -85.5t71.5 -157t37.5 -230.5t11.5 -318t-11.5 -318t-37.5 -230.5t-71.5 -157t-110.5 -85.5
t-158 -28z" />
    <glyph glyph-name="Otilde" unicode="&#xd5;" horiz-adv-x="983" 
d="M711 2028l57 -11q-6 -87 -43.5 -135t-101.5 -47q-39 1 -77.5 24.5t-65.5 51t-61.5 51t-64.5 25.5q-44 3 -64 -29.5t-26 -104.5l-57 11q6 87 43.5 135t101.5 47q39 -1 77.5 -24.5t65.5 -51t61.5 -51t64.5 -25.5q44 -3 64 29.5t26 104.5zM492 49q79 0 133 26.5t89.5 78.5
t55.5 145.5t27.5 210t7.5 289.5q0 144 -5 246.5t-18.5 190.5t-35.5 143.5t-57.5 95t-83 56.5t-113.5 17q-79 0 -133 -26.5t-90 -78.5t-55.5 -145t-27.5 -209.5t-8 -289.5q0 -143 5 -246t18.5 -191t36 -144t57.5 -95.5t83 -56.5t114 -17zM492 -20q-93 0 -158 28t-111 85.5
t-72 157t-37.5 230.5t-11.5 318t11.5 318t37.5 230.5t72 157t111 85.5t158 28t158 -28t110.5 -85.5t71.5 -157t37.5 -230.5t11.5 -318t-11.5 -318t-37.5 -230.5t-71.5 -157t-110.5 -85.5t-158 -28z" />
    <glyph glyph-name="Odieresis" unicode="&#xd6;" horiz-adv-x="983" 
d="M383 2028v-111h-111v111h111zM711 2028v-111h-111v111h111zM492 49q79 0 133 26.5t89.5 78.5t55.5 145.5t27.5 210t7.5 289.5q0 144 -5 246.5t-18.5 190.5t-35.5 143.5t-57.5 95t-83 56.5t-113.5 17q-79 0 -133 -26.5t-90 -78.5t-55.5 -145t-27.5 -209.5t-8 -289.5
q0 -143 5 -246t18.5 -191t36 -144t57.5 -95.5t83 -56.5t114 -17zM492 -20q-93 0 -158 28t-111 85.5t-72 157t-37.5 230.5t-11.5 318t11.5 318t37.5 230.5t72 157t111 85.5t158 28t158 -28t110.5 -85.5t71.5 -157t37.5 -230.5t11.5 -318t-11.5 -318t-37.5 -230.5t-71.5 -157
t-110.5 -85.5t-158 -28z" />
    <glyph glyph-name="multiply" unicode="&#xd7;" horiz-adv-x="1474" 
d="M217 328l471 471l-471 471l49 49l471 -471l471 471l49 -49l-471 -471l471 -471l-49 -49l-471 471l-471 -471z" />
    <glyph glyph-name="Oslash" unicode="&#xd8;" horiz-adv-x="983" 
d="M492 -20q-180 0 -263 104l-34 -84h-72l63 154q-46 94 -65 249t-19 396q0 187 11.5 318t37.5 230.5t72 157t111 85.5t158 28q174 0 260 -105l34 84h72l-63 -151q86 -176 86 -647q0 -187 -11.5 -318t-37.5 -230.5t-71.5 -157t-110.5 -85.5t-158 -28zM492 49q79 0 133 26.5
t89.5 78.5t55.5 145.5t27.5 210t7.5 289.5q0 393 -49 551l-494 -1186q70 -115 230 -115zM178 799q0 -398 47 -549l494 1184q-70 114 -227 114q-79 0 -133 -26.5t-90 -78.5t-55.5 -145t-27.5 -209.5t-8 -289.5z" />
    <glyph glyph-name="Ugrave" unicode="&#xd9;" horiz-adv-x="995" 
d="M346 2150h78l104 -426h-59zM498 47q58 0 103 7.5t77.5 21t55 36.5t36 49t21 64.5t10 76.5t2.5 91v1204h76v-1204q0 -85 -8.5 -145t-33 -113.5t-66.5 -85.5t-110 -50.5t-163 -18.5q-94 0 -162 18.5t-110 50.5t-66.5 85.5t-33.5 113.5t-9 145v1204h76v-1204q0 -53 2.5 -91
t10 -76.5t21 -64.5t36 -49t55 -36.5t77.5 -21t103 -7.5z" />
    <glyph glyph-name="Uacute" unicode="&#xda;" horiz-adv-x="995" 
d="M571 2150h78l-123 -426h-59zM498 47q58 0 103 7.5t77.5 21t55 36.5t36 49t21 64.5t10 76.5t2.5 91v1204h76v-1204q0 -85 -8.5 -145t-33 -113.5t-66.5 -85.5t-110 -50.5t-163 -18.5q-94 0 -162 18.5t-110 50.5t-66.5 85.5t-33.5 113.5t-9 145v1204h76v-1204q0 -53 2.5 -91
t10 -76.5t21 -64.5t36 -49t55 -36.5t77.5 -21t103 -7.5z" />
    <glyph glyph-name="Ucircumflex" unicode="&#xdb;" horiz-adv-x="995" 
d="M754 1724h-60l-196 365l-197 -365h-59l213 426h86zM498 47q58 0 103 7.5t77.5 21t55 36.5t36 49t21 64.5t10 76.5t2.5 91v1204h76v-1204q0 -85 -8.5 -145t-33 -113.5t-66.5 -85.5t-110 -50.5t-163 -18.5q-94 0 -162 18.5t-110 50.5t-66.5 85.5t-33.5 113.5t-9 145v1204
h76v-1204q0 -53 2.5 -91t10 -76.5t21 -64.5t36 -49t55 -36.5t77.5 -21t103 -7.5z" />
    <glyph glyph-name="Udieresis" unicode="&#xdc;" horiz-adv-x="995" 
d="M389 2028v-111h-110v111h110zM717 2028v-111h-111v111h111zM498 47q58 0 103 7.5t77.5 21t55 36.5t36 49t21 64.5t10 76.5t2.5 91v1204h76v-1204q0 -85 -8.5 -145t-33 -113.5t-66.5 -85.5t-110 -50.5t-163 -18.5q-94 0 -162 18.5t-110 50.5t-66.5 85.5t-33.5 113.5
t-9 145v1204h76v-1204q0 -53 2.5 -91t10 -76.5t21 -64.5t36 -49t55 -36.5t77.5 -21t103 -7.5z" />
    <glyph glyph-name="Yacute" unicode="&#xdd;" horiz-adv-x="962" 
d="M555 2150h78l-123 -426h-59zM481 721l342 876h82l-389 -970l2 -627h-74l2 627l-389 970h82z" />
    <glyph glyph-name="Thorn" unicode="&#xde;" horiz-adv-x="847" 
d="M197 1597v-346h221q84 0 143.5 -19.5t108 -68t72.5 -139.5t24 -225q0 -108 -16.5 -188t-45.5 -130.5t-74 -81t-95.5 -42t-116.5 -11.5h-221v-346h-74v1597h74zM197 414h217q71 0 119.5 17.5t85 60.5t54 118.5t17.5 188.5q0 148 -32.5 234t-90.5 118.5t-153 32.5h-217
v-770z" />
    <glyph glyph-name="germandbls" unicode="&#xdf;" horiz-adv-x="1024" 
d="M438 821q0 -48 6.5 -79t19.5 -53.5t42.5 -39t64.5 -28.5t97 -27q42 -11 66 -18t60 -21t56.5 -28.5t45 -38t37 -51.5t21.5 -68t9 -88q0 -150 -76 -225.5t-260 -75.5q-74 0 -128 14.5t-86.5 38.5t-51.5 62.5t-26 79.5t-7 95l75 13q0 -48 3 -78.5t15.5 -64.5t36 -53
t65.5 -31.5t102 -12.5q76 0 127 15.5t79 48t39 73t11 99.5q0 54 -13 93t-32 64t-58 45t-73.5 31t-96.5 27q-41 11 -66.5 19t-57.5 22.5t-51 33.5t-37 47t-26 67.5t-8 90.5q0 30 4.5 57t10 47.5t18 39.5t21 32t26.5 27t28 21t31.5 18t30 14.5t31.5 13t29 11.5
q55 23 88.5 42.5t62 49.5t40.5 71.5t12 100.5q0 106 -70.5 163.5t-212.5 57.5q-175 0 -246 -73t-71 -218v-1294h-74v1284q0 210 94.5 292.5t296.5 82.5q354 0 354 -295q0 -62 -14 -112t-34.5 -81.5t-54.5 -58t-61.5 -40.5t-68.5 -30q-46 -18 -75.5 -34t-60 -41.5t-45 -61.5
t-14.5 -84z" />
    <glyph glyph-name="agrave" unicode="&#xe0;" horiz-adv-x="876" 
d="M451 1042q-129 0 -182.5 -55t-53.5 -176l-76 12q0 141 73.5 212t238.5 71q309 0 309 -283v-604l4 -219h-57l-13 143q-109 -163 -323 -163q-143 0 -211 85t-68 224q0 163 93.5 243t289.5 107l211 29v170q0 100 -55.5 152t-179.5 52zM170 289q0 -132 55 -187t156 -55
q87 0 168 44.5t137 125.5v387l-201 -26q-81 -11 -136 -28.5t-97 -50t-62 -84.5t-20 -126zM289 1638h78l104 -426h-59z" />
    <glyph glyph-name="aacute" unicode="&#xe1;" horiz-adv-x="876" 
d="M451 1042q-129 0 -182.5 -55t-53.5 -176l-76 12q0 141 73.5 212t238.5 71q309 0 309 -283v-604l4 -219h-57l-13 143q-109 -163 -323 -163q-143 0 -211 85t-68 224q0 163 93.5 243t289.5 107l211 29v170q0 100 -55.5 152t-179.5 52zM170 289q0 -132 55 -187t156 -55
q87 0 168 44.5t137 125.5v387l-201 -26q-81 -11 -136 -28.5t-97 -50t-62 -84.5t-20 -126zM514 1638h78l-123 -426h-59z" />
    <glyph glyph-name="acircumflex" unicode="&#xe2;" horiz-adv-x="876" 
d="M451 1042q-129 0 -182.5 -55t-53.5 -176l-76 12q0 141 73.5 212t238.5 71q309 0 309 -283v-604l4 -219h-57l-13 143q-109 -163 -323 -163q-143 0 -211 85t-68 224q0 163 93.5 243t289.5 107l211 29v170q0 100 -55.5 152t-179.5 52zM170 289q0 -132 55 -187t156 -55
q87 0 168 44.5t137 125.5v387l-201 -26q-81 -11 -136 -28.5t-97 -50t-62 -84.5t-20 -126zM696 1212h-59l-197 365l-196 -365h-60l213 426h86z" />
    <glyph glyph-name="atilde" unicode="&#xe3;" horiz-adv-x="876" 
d="M451 1042q-129 0 -182.5 -55t-53.5 -176l-76 12q0 141 73.5 212t238.5 71q309 0 309 -283v-604l4 -219h-57l-13 143q-109 -163 -323 -163q-143 0 -211 85t-68 224q0 163 93.5 243t289.5 107l211 29v170q0 100 -55.5 152t-179.5 52zM170 289q0 -132 55 -187t156 -55
q87 0 168 44.5t137 125.5v387l-201 -26q-81 -11 -136 -28.5t-97 -50t-62 -84.5t-20 -126zM659 1516l58 -11q-6 -87 -44 -135t-102 -47q-32 1 -62.5 16.5t-55.5 37t-48.5 43.5t-50 37.5t-51.5 17.5q-44 3 -64 -29.5t-26 -104.5l-57 11q6 87 43.5 135t101.5 47
q32 -1 62.5 -16.5t55.5 -37t48.5 -43.5t50 -37.5t51.5 -17.5q44 -3 64 29.5t26 104.5z" />
    <glyph glyph-name="adieresis" unicode="&#xe4;" horiz-adv-x="876" 
d="M451 1042q-129 0 -182.5 -55t-53.5 -176l-76 12q0 141 73.5 212t238.5 71q309 0 309 -283v-604l4 -219h-57l-13 143q-109 -163 -323 -163q-143 0 -211 85t-68 224q0 163 93.5 243t289.5 107l211 29v170q0 100 -55.5 152t-179.5 52zM170 289q0 -132 55 -187t156 -55
q87 0 168 44.5t137 125.5v387l-201 -26q-81 -11 -136 -28.5t-97 -50t-62 -84.5t-20 -126zM332 1516v-111h-111v111h111zM659 1516v-111h-110v111h110z" />
    <glyph glyph-name="aring" unicode="&#xe5;" horiz-adv-x="876" 
d="M451 1042q-129 0 -182.5 -55t-53.5 -176l-76 12q0 141 73.5 212t238.5 71q309 0 309 -283v-604l4 -219h-57l-13 143q-109 -163 -323 -163q-143 0 -211 85t-68 224q0 163 93.5 243t289.5 107l211 29v170q0 100 -55.5 152t-179.5 52zM170 289q0 -132 55 -187t156 -55
q87 0 168 44.5t137 125.5v387l-201 -26q-81 -11 -136 -28.5t-97 -50t-62 -84.5t-20 -126zM207 1425q0 104 62.5 169t170.5 65t171 -65.5t63 -168.5t-63 -168t-171 -65t-170.5 65t-62.5 168zM610 1425q0 83 -44 130t-126 47t-126 -47t-44 -130t44 -129.5t126 -46.5t126 46.5
t44 129.5z" />
    <glyph glyph-name="ae" unicode="&#xe6;" horiz-adv-x="1466" 
d="M1374 514h-608q0 -97 7 -166.5t25 -129.5t49 -96.5t79.5 -56.5t115.5 -20q75 0 125 17t76 51t35.5 73.5t9.5 96.5l76 -13q0 -67 -15.5 -117t-50.5 -90.5t-99.5 -61.5t-156.5 -21q-123 0 -197 49.5t-112 148.5q-132 -198 -362 -198q-73 0 -128 23.5t-87 64t-48 91
t-16 109.5q0 166 95 241t288 75h211v254q0 100 -55.5 152t-179.5 52q-129 0 -182.5 -55t-53.5 -176l-76 12q0 141 73.5 212t238.5 71q236 0 292 -166q37 83 108 124.5t185 41.5q62 0 110.5 -13t84 -35.5t61 -60.5t41.5 -81.5t25 -104t12.5 -123t3.5 -143.5v-31zM1036 1040
q-156 0 -213 -104.5t-57 -351.5h530q0 95 -5 159.5t-20.5 125t-44 95.5t-75.5 55.5t-115 20.5zM170 268q0 -118 55.5 -169.5t155.5 -51.5q96 0 183.5 49.5t144.5 165.5q-23 118 -23 252h-201q-82 0 -136.5 -10.5t-97 -37t-62 -75.5t-19.5 -123z" />
    <glyph glyph-name="ccedilla" unicode="&#xe7;" horiz-adv-x="839" 
d="M180 543q0 -267 67 -382.5t216 -115.5q72 0 118.5 15.5t70 48t32 69.5t8.5 92l76 -12q0 -62 -13.5 -108.5t-45 -86t-91 -61t-145.5 -22.5l-18 -66q221 -32 221 -176q0 -85 -61.5 -126.5t-161.5 -41.5q-44 0 -91 11t-71 24l20 59q55 -31 125 -33q80 -2 124 21.5t44 83.5
q0 34 -18.5 58t-52 36t-64 18t-71.5 11q-13 1 -19 2l41 121q-164 14 -241 148t-77 413q0 296 87.5 429.5t273.5 133.5q89 0 150.5 -21t94 -60.5t46.5 -87t14 -110.5l-76 -12q0 55 -8.5 92t-32 69.5t-70 48t-118.5 15.5q-149 0 -216 -115t-67 -382z" />
    <glyph glyph-name="egrave" unicode="&#xe8;" horiz-adv-x="882" 
d="M791 514h-609q0 -97 7 -166.5t25 -129.5t49 -96.5t80 -56.5t116 -20q75 0 125 17t76 51t35.5 73.5t9.5 96.5l75 -13q0 -67 -15 -117t-50.5 -90.5t-99.5 -61.5t-156 -21q-85 0 -148 25t-103 70.5t-63.5 117.5t-33 155t-9.5 195q0 114 8.5 197t31.5 155t62.5 116.5
t101 69.5t147.5 25q62 0 110.5 -13t84 -35.5t61 -60.5t41.5 -81.5t25 -104t12.5 -123t3.5 -143.5v-31zM453 1040q-156 0 -213.5 -104.5t-57.5 -351.5h531q0 95 -5 159.5t-20.5 125t-44 95.5t-75.5 55.5t-115 20.5zM295 1638h78l104 -426h-59z" />
    <glyph glyph-name="eacute" unicode="&#xe9;" horiz-adv-x="882" 
d="M791 514h-609q0 -97 7 -166.5t25 -129.5t49 -96.5t80 -56.5t116 -20q75 0 125 17t76 51t35.5 73.5t9.5 96.5l75 -13q0 -67 -15 -117t-50.5 -90.5t-99.5 -61.5t-156 -21q-85 0 -148 25t-103 70.5t-63.5 117.5t-33 155t-9.5 195q0 114 8.5 197t31.5 155t62.5 116.5
t101 69.5t147.5 25q62 0 110.5 -13t84 -35.5t61 -60.5t41.5 -81.5t25 -104t12.5 -123t3.5 -143.5v-31zM453 1040q-156 0 -213.5 -104.5t-57.5 -351.5h531q0 95 -5 159.5t-20.5 125t-44 95.5t-75.5 55.5t-115 20.5zM520 1638h78l-123 -426h-59z" />
    <glyph glyph-name="ecircumflex" unicode="&#xea;" horiz-adv-x="882" 
d="M791 514h-609q0 -97 7 -166.5t25 -129.5t49 -96.5t80 -56.5t116 -20q75 0 125 17t76 51t35.5 73.5t9.5 96.5l75 -13q0 -67 -15 -117t-50.5 -90.5t-99.5 -61.5t-156 -21q-85 0 -148 25t-103 70.5t-63.5 117.5t-33 155t-9.5 195q0 114 8.5 197t31.5 155t62.5 116.5
t101 69.5t147.5 25q62 0 110.5 -13t84 -35.5t61 -60.5t41.5 -81.5t25 -104t12.5 -123t3.5 -143.5v-31zM453 1040q-156 0 -213.5 -104.5t-57.5 -351.5h531q0 95 -5 159.5t-20.5 125t-44 95.5t-75.5 55.5t-115 20.5zM702 1212h-59l-197 365l-196 -365h-60l213 426h86z" />
    <glyph glyph-name="edieresis" unicode="&#xeb;" horiz-adv-x="882" 
d="M791 514h-609q0 -97 7 -166.5t25 -129.5t49 -96.5t80 -56.5t116 -20q75 0 125 17t76 51t35.5 73.5t9.5 96.5l75 -13q0 -67 -15 -117t-50.5 -90.5t-99.5 -61.5t-156 -21q-85 0 -148 25t-103 70.5t-63.5 117.5t-33 155t-9.5 195q0 114 8.5 197t31.5 155t62.5 116.5
t101 69.5t147.5 25q62 0 110.5 -13t84 -35.5t61 -60.5t41.5 -81.5t25 -104t12.5 -123t3.5 -143.5v-31zM453 1040q-156 0 -213.5 -104.5t-57.5 -351.5h531q0 95 -5 159.5t-20.5 125t-44 95.5t-75.5 55.5t-115 20.5zM338 1516v-111h-111v111h111zM666 1516v-111h-111v111h111z
" />
    <glyph glyph-name="igrave" unicode="&#xec;" horiz-adv-x="315" 
d="M121 0v1085h74v-1085h-74zM6 1638h78l104 -426h-59z" />
    <glyph glyph-name="iacute" unicode="&#xed;" horiz-adv-x="315" 
d="M121 0v1085h74v-1085h-74zM231 1638h78l-123 -426h-59z" />
    <glyph glyph-name="icircumflex" unicode="&#xee;" horiz-adv-x="315" 
d="M121 0v1085h74v-1085h-74zM414 1212h-60l-196 365l-197 -365h-59l213 426h86z" />
    <glyph glyph-name="idieresis" unicode="&#xef;" horiz-adv-x="315" 
d="M121 0v1085h74v-1085h-74zM49 1516v-111h-110v111h110zM377 1516v-111h-111v111h111z" />
    <glyph glyph-name="eth" unicode="&#xf0;" 
d="M145 1290v72l275 104q-115 98 -293 172h143q124 -62 219 -145l271 104v-71l-215 -84q139 -146 206.5 -363.5t67.5 -535.5q0 -306 -84.5 -434.5t-273.5 -128.5t-274 128.5t-85 434.5q0 301 84.5 432t253.5 131q198 0 281 -166q-63 289 -246 475zM461 45q148 0 214 115.5
t66 382.5t-66 382t-214 115t-214.5 -115t-66.5 -382t66.5 -382.5t214.5 -115.5z" />
    <glyph glyph-name="ntilde" unicode="&#xf1;" horiz-adv-x="888" 
d="M172 1085l12 -143q44 69 132 116.5t204 47.5q121 0 190.5 -63t69.5 -156v-887h-73v856q0 80 -48.5 130t-150.5 50q-101 0 -185 -46.5t-133 -121.5v-868h-73v866l-4 219h59zM680 1516l57 -11q-6 -87 -43.5 -135t-101.5 -47q-32 1 -62.5 16.5t-55.5 37t-48.5 43.5t-50 37.5
t-51.5 17.5q-44 3 -64.5 -29.5t-26.5 -104.5l-57 11q6 87 44 135t102 47q32 -1 62.5 -16.5t55.5 -37t48.5 -43.5t50 -37.5t51.5 -17.5q44 -3 64 29.5t26 104.5z" />
    <glyph glyph-name="ograve" unicode="&#xf2;" 
d="M461 45q148 0 214 115.5t66 382.5t-66 382t-214 115t-214.5 -115t-66.5 -382t66.5 -382.5t214.5 -115.5zM461 -20q-189 0 -274 128.5t-85 434.5t85 434.5t274 128.5t273.5 -128.5t84.5 -434.5t-84.5 -434.5t-273.5 -128.5zM309 1638h78l105 -426h-60z" />
    <glyph glyph-name="oacute" unicode="&#xf3;" 
d="M461 45q148 0 214 115.5t66 382.5t-66 382t-214 115t-214.5 -115t-66.5 -382t66.5 -382.5t214.5 -115.5zM461 -20q-189 0 -274 128.5t-85 434.5t85 434.5t274 128.5t273.5 -128.5t84.5 -434.5t-84.5 -434.5t-273.5 -128.5zM535 1638h77l-123 -426h-59z" />
    <glyph glyph-name="ocircumflex" unicode="&#xf4;" 
d="M461 45q148 0 214 115.5t66 382.5t-66 382t-214 115t-214.5 -115t-66.5 -382t66.5 -382.5t214.5 -115.5zM461 -20q-189 0 -274 128.5t-85 434.5t85 434.5t274 128.5t273.5 -128.5t84.5 -434.5t-84.5 -434.5t-273.5 -128.5zM717 1212h-60l-196 365l-197 -365h-59l213 426
h86z" />
    <glyph glyph-name="otilde" unicode="&#xf5;" 
d="M461 45q148 0 214 115.5t66 382.5t-66 382t-214 115t-214.5 -115t-66.5 -382t66.5 -382.5t214.5 -115.5zM461 -20q-189 0 -274 128.5t-85 434.5t85 434.5t274 128.5t273.5 -128.5t84.5 -434.5t-84.5 -434.5t-273.5 -128.5zM680 1516l57 -11q-6 -87 -43.5 -135t-101.5 -47
q-32 1 -62.5 16.5t-55.5 37t-48.5 43.5t-50 37.5t-51.5 17.5q-44 3 -64.5 -29.5t-26.5 -104.5l-57 11q6 87 44 135t102 47q32 -1 62.5 -16.5t55.5 -37t48.5 -43.5t50 -37.5t51.5 -17.5q44 -3 64 29.5t26 104.5z" />
    <glyph glyph-name="odieresis" unicode="&#xf6;" 
d="M461 45q148 0 214 115.5t66 382.5t-66 382t-214 115t-214.5 -115t-66.5 -382t66.5 -382.5t214.5 -115.5zM461 -20q-189 0 -274 128.5t-85 434.5t85 434.5t274 128.5t273.5 -128.5t84.5 -434.5t-84.5 -434.5t-273.5 -128.5zM352 1516v-111h-110v111h110zM680 1516v-111
h-111v111h111z" />
    <glyph glyph-name="divide" unicode="&#xf7;" horiz-adv-x="1474" 
d="M1290 764h-1106v70h1106v-70zM799 397v-123h-123v123h123zM799 1323v-123h-123v123h123z" />
    <glyph glyph-name="oslash" unicode="&#xf8;" 
d="M799 1085l-62 -112q82 -134 82 -430q0 -306 -84.5 -434.5t-273.5 -128.5q-152 0 -230 75l-30 -55h-78l61 113q-82 127 -82 430q0 306 85 434.5t274 128.5q147 0 229 -76l31 55h78zM461 45q148 0 214 115.5t66 382.5q0 229 -49 348l-422 -766q65 -80 191 -80zM180 543
q0 -239 49 -348l422 766q-65 79 -190 79q-148 0 -214.5 -115t-66.5 -382z" />
    <glyph glyph-name="ugrave" unicode="&#xf9;" horiz-adv-x="888" 
d="M717 0l-12 143q-44 -68 -132 -115.5t-204 -47.5q-121 0 -190.5 63t-69.5 156v886h73v-856q0 -80 48.5 -130t150.5 -50q101 0 184.5 46.5t132.5 121.5v868h74v-866l4 -219h-59zM291 1638h78l104 -426h-59z" />
    <glyph glyph-name="uacute" unicode="&#xfa;" horiz-adv-x="888" 
d="M717 0l-12 143q-44 -68 -132 -115.5t-204 -47.5q-121 0 -190.5 63t-69.5 156v886h73v-856q0 -80 48.5 -130t150.5 -50q101 0 184.5 46.5t132.5 121.5v868h74v-866l4 -219h-59zM516 1638h78l-123 -426h-59z" />
    <glyph glyph-name="ucircumflex" unicode="&#xfb;" horiz-adv-x="888" 
d="M717 0l-12 143q-44 -68 -132 -115.5t-204 -47.5q-121 0 -190.5 63t-69.5 156v886h73v-856q0 -80 48.5 -130t150.5 -50q101 0 184.5 46.5t132.5 121.5v868h74v-866l4 -219h-59zM698 1212h-59l-197 365l-196 -365h-60l213 426h86z" />
    <glyph glyph-name="udieresis" unicode="&#xfc;" horiz-adv-x="888" 
d="M717 0l-12 143q-44 -68 -132 -115.5t-204 -47.5q-121 0 -190.5 63t-69.5 156v886h73v-856q0 -80 48.5 -130t150.5 -50q101 0 184.5 46.5t132.5 121.5v868h74v-866l4 -219h-59zM334 1516v-111h-111v111h111zM662 1516v-111h-111v111h111z" />
    <glyph glyph-name="yacute" unicode="&#xfd;" horiz-adv-x="839" 
d="M420 125l270 960h78l-293 -1007l-153 -488h-82l141 430l-309 1065h78zM494 1638h77l-122 -426h-60z" />
    <glyph glyph-name="thorn" unicode="&#xfe;" 
d="M741 543q0 97 -6 167.5t-23.5 135t-46.5 104.5t-76.5 63t-113.5 23q-85 0 -152.5 -43.5t-132.5 -130.5v-639q65 -87 132.5 -130.5t152.5 -43.5q66 0 113.5 23t76.5 63t46.5 104.5t23.5 135.5t6 168zM819 543q0 -108 -8 -189t-30 -154.5t-59.5 -119.5t-97.5 -73t-143 -27
q-171 0 -291 151v-541h-73v2048h73v-684q121 152 291 152q83 0 143 -27t97.5 -73t59.5 -119.5t30 -154.5t8 -189z" />
    <glyph glyph-name="ydieresis" unicode="&#xff;" horiz-adv-x="839" 
d="M420 125l270 960h78l-293 -1007l-153 -488h-82l141 430l-309 1065h78zM311 1516v-111h-110v111h110zM639 1516v-111h-111v111h111z" />
    <glyph glyph-name="Amacron" unicode="&#x100;" horiz-adv-x="962" 
d="M285 1939v66h393v-66h-393zM426 1618h111l362 -1618h-76l-82 371h-520l-82 -371h-76zM481 1550l-245 -1110h489z" />
    <glyph glyph-name="amacron" unicode="&#x101;" horiz-adv-x="876" 
d="M451 1042q-129 0 -182.5 -55t-53.5 -176l-76 12q0 141 73.5 212t238.5 71q309 0 309 -283v-604l4 -219h-57l-13 143q-109 -163 -323 -163q-143 0 -211 85t-68 224q0 163 93.5 243t289.5 107l211 29v170q0 100 -55.5 152t-179.5 52zM170 289q0 -132 55 -187t156 -55
q87 0 168 44.5t137 125.5v387l-201 -26q-81 -11 -136 -28.5t-97 -50t-62 -84.5t-20 -126zM244 1427v66h393v-66h-393z" />
    <glyph glyph-name="Abreve" unicode="&#x102;" horiz-adv-x="962" 
d="M682 2150h61q0 -79 -5 -134.5t-21 -110t-44 -87.5t-76 -53t-116 -20t-116 20t-76 53t-44 87.5t-21 110t-5 134.5h62q0 -72 4.5 -122.5t17 -94.5t34.5 -70t58 -40.5t86 -14.5t86 14.5t58.5 40.5t35 70t17 94.5t4.5 122.5zM426 1618h111l362 -1618h-76l-82 371h-520
l-82 -371h-76zM481 1550l-245 -1110h489z" />
    <glyph glyph-name="abreve" unicode="&#x103;" horiz-adv-x="876" 
d="M451 1042q-129 0 -182.5 -55t-53.5 -176l-76 12q0 141 73.5 212t238.5 71q309 0 309 -283v-604l4 -219h-57l-13 143q-109 -163 -323 -163q-143 0 -211 85t-68 224q0 163 93.5 243t289.5 107l211 29v170q0 100 -55.5 152t-179.5 52zM170 289q0 -132 55 -187t156 -55
q87 0 168 44.5t137 125.5v387l-201 -26q-81 -11 -136 -28.5t-97 -50t-62 -84.5t-20 -126zM641 1638h61q0 -79 -5 -134.5t-21 -110t-44 -87.5t-76 -53t-116 -20t-116 20t-76 53t-44 87.5t-21 110t-5 134.5h62q0 -72 4.5 -122.5t17 -94.5t34.5 -70t58 -40.5t86 -14.5t86 14.5
t58.5 40.5t35 70t17 94.5t4.5 122.5z" />
    <glyph glyph-name="Aogonek" unicode="&#x104;" horiz-adv-x="962" 
d="M426 1618h111l362 -1618q-180 -58 -180 -238q0 -68 36 -99.5t87 -31.5q66 0 127 45l20 -57q-64 -49 -155 -49q-70 0 -126.5 44.5t-56.5 137.5q0 91 39 156.5t127 114.5l-76 348h-520l-82 -371h-76zM481 1550l-245 -1110h489z" />
    <glyph glyph-name="aogonek" unicode="&#x105;" horiz-adv-x="876" 
d="M451 1042q-129 0 -182.5 -55t-53.5 -176l-76 12q0 141 73.5 212t238.5 71q309 0 309 -283v-604l4 -219q-180 -58 -180 -238q0 -68 36 -99.5t87 -31.5q66 0 127 45l20 -57q-64 -49 -156 -49q-70 0 -126 44.5t-56 137.5q0 96 44 164.5t142 118.5l-8 108
q-109 -163 -323 -163q-143 0 -211 85t-68 224q0 163 93.5 243t289.5 107l211 29v170q0 100 -55.5 152t-179.5 52zM170 289q0 -132 55 -187t156 -55q87 0 168 44.5t137 125.5v387l-201 -26q-81 -11 -136 -28.5t-97 -50t-62 -84.5t-20 -126z" />
    <glyph glyph-name="Cacute" unicode="&#x106;" horiz-adv-x="948" 
d="M578 2150h77l-123 -426h-59zM178 799q0 -144 4.5 -243t18 -189t36.5 -145.5t60.5 -96.5t90.5 -58.5t126 -17.5q86 0 140 20t83.5 67.5t40 109.5t10.5 162l76 -13q1 -106 -13.5 -178t-52 -128t-108 -82.5t-176.5 -26.5q-101 0 -171 28.5t-118 86t-74.5 158.5t-37.5 229.5
t-11 316.5t11 316.5t37.5 229.5t74.5 158.5t118 86t171 28.5q106 0 176.5 -26.5t108 -83t52 -128.5t13.5 -178l-76 -12q0 99 -10.5 161.5t-40 109.5t-83.5 67t-140 20q-63 0 -110.5 -14t-83.5 -40t-60.5 -72.5t-40.5 -101.5t-25 -138t-12.5 -171.5t-3.5 -211.5z" />
    <glyph glyph-name="cacute" unicode="&#x107;" horiz-adv-x="839" 
d="M180 543q0 -267 67 -382.5t216 -115.5q72 0 118.5 15.5t70 48t32 69.5t8.5 92l76 -12q0 -63 -14 -110t-46.5 -86.5t-94 -60.5t-150.5 -21q-186 0 -273.5 133.5t-87.5 429.5t87.5 429.5t273.5 133.5q89 0 150.5 -21t94 -60.5t46.5 -87t14 -110.5l-76 -12q0 55 -8.5 92
t-32 69.5t-70 48t-118.5 15.5q-149 0 -216 -115t-67 -382zM528 1638h78l-123 -426h-59z" />
    <glyph glyph-name="Ccircumflex" unicode="&#x108;" horiz-adv-x="948" 
d="M760 1724h-60l-196 365l-197 -365h-59l213 426h86zM178 799q0 -144 4.5 -243t18 -189t36.5 -145.5t60.5 -96.5t90.5 -58.5t126 -17.5q86 0 140 20t83.5 67.5t40 109.5t10.5 162l76 -13q1 -106 -13.5 -178t-52 -128t-108 -82.5t-176.5 -26.5q-101 0 -171 28.5t-118 86
t-74.5 158.5t-37.5 229.5t-11 316.5t11 316.5t37.5 229.5t74.5 158.5t118 86t171 28.5q106 0 176.5 -26.5t108 -83t52 -128.5t13.5 -178l-76 -12q0 99 -10.5 161.5t-40 109.5t-83.5 67t-140 20q-63 0 -110.5 -14t-83.5 -40t-60.5 -72.5t-40.5 -101.5t-25 -138t-12.5 -171.5
t-3.5 -211.5z" />
    <glyph glyph-name="ccircumflex" unicode="&#x109;" horiz-adv-x="839" 
d="M180 543q0 -267 67 -382.5t216 -115.5q72 0 118.5 15.5t70 48t32 69.5t8.5 92l76 -12q0 -63 -14 -110t-46.5 -86.5t-94 -60.5t-150.5 -21q-186 0 -273.5 133.5t-87.5 429.5t87.5 429.5t273.5 133.5q89 0 150.5 -21t94 -60.5t46.5 -87t14 -110.5l-76 -12q0 55 -8.5 92
t-32 69.5t-70 48t-118.5 15.5q-149 0 -216 -115t-67 -382zM711 1212h-60l-196 365l-197 -365h-59l213 426h86z" />
    <glyph glyph-name="Cdotaccent" unicode="&#x10a;" horiz-adv-x="948" 
d="M559 2028v-111h-110v111h110zM178 799q0 -144 4.5 -243t18 -189t36.5 -145.5t60.5 -96.5t90.5 -58.5t126 -17.5q86 0 140 20t83.5 67.5t40 109.5t10.5 162l76 -13q1 -106 -13.5 -178t-52 -128t-108 -82.5t-176.5 -26.5q-101 0 -171 28.5t-118 86t-74.5 158.5t-37.5 229.5
t-11 316.5t11 316.5t37.5 229.5t74.5 158.5t118 86t171 28.5q106 0 176.5 -26.5t108 -83t52 -128.5t13.5 -178l-76 -12q0 99 -10.5 161.5t-40 109.5t-83.5 67t-140 20q-63 0 -110.5 -14t-83.5 -40t-60.5 -72.5t-40.5 -101.5t-25 -138t-12.5 -171.5t-3.5 -211.5z" />
    <glyph glyph-name="cdotaccent" unicode="&#x10b;" horiz-adv-x="839" 
d="M180 543q0 -267 67 -382.5t216 -115.5q72 0 118.5 15.5t70 48t32 69.5t8.5 92l76 -12q0 -63 -14 -110t-46.5 -86.5t-94 -60.5t-150.5 -21q-186 0 -273.5 133.5t-87.5 429.5t87.5 429.5t273.5 133.5q89 0 150.5 -21t94 -60.5t46.5 -87t14 -110.5l-76 -12q0 55 -8.5 92
t-32 69.5t-70 48t-118.5 15.5q-149 0 -216 -115t-67 -382zM510 1516v-111h-111v111h111z" />
    <glyph glyph-name="Ccaron" unicode="&#x10c;" horiz-adv-x="948" 
d="M238 2150h61l205 -358l205 358h61l-221 -426h-90zM178 799q0 -144 4.5 -243t18 -189t36.5 -145.5t60.5 -96.5t90.5 -58.5t126 -17.5q86 0 140 20t83.5 67.5t40 109.5t10.5 162l76 -13q1 -106 -13.5 -178t-52 -128t-108 -82.5t-176.5 -26.5q-101 0 -171 28.5t-118 86
t-74.5 158.5t-37.5 229.5t-11 316.5t11 316.5t37.5 229.5t74.5 158.5t118 86t171 28.5q106 0 176.5 -26.5t108 -83t52 -128.5t13.5 -178l-76 -12q0 99 -10.5 161.5t-40 109.5t-83.5 67t-140 20q-63 0 -110.5 -14t-83.5 -40t-60.5 -72.5t-40.5 -101.5t-25 -138t-12.5 -171.5
t-3.5 -211.5z" />
    <glyph glyph-name="ccaron" unicode="&#x10d;" horiz-adv-x="839" 
d="M180 543q0 -267 67 -382.5t216 -115.5q72 0 118.5 15.5t70 48t32 69.5t8.5 92l76 -12q0 -63 -14 -110t-46.5 -86.5t-94 -60.5t-150.5 -21q-186 0 -273.5 133.5t-87.5 429.5t87.5 429.5t273.5 133.5q89 0 150.5 -21t94 -60.5t46.5 -87t14 -110.5l-76 -12q0 55 -8.5 92
t-32 69.5t-70 48t-118.5 15.5q-149 0 -216 -115t-67 -382zM188 1638h62l205 -358l204 358h62l-221 -426h-90z" />
    <glyph glyph-name="Dcaron" unicode="&#x10e;" horiz-adv-x="999" 
d="M180 2150h62l204 -358l205 358h62l-221 -426h-91zM379 0h-256v1597h256q107 0 183 -15.5t135.5 -53.5t96 -95.5t60 -150t32.5 -207.5t9 -276t-9 -276t-32.5 -207.5t-60 -150t-96 -96t-135.5 -54t-183 -15.5zM197 68h204q90 0 154.5 14.5t112 52t76 89.5t46 139t23.5 188
t6 248t-6 248t-23.5 188t-46 139t-76 89.5t-112 52t-154.5 14.5h-204v-1462z" />
    <glyph glyph-name="dcaron" unicode="&#x10f;" horiz-adv-x="983" 
d="M440 1106q170 0 291 -152v684h74v-1419l4 -219h-59l-13 143q-119 -163 -297 -163q-83 0 -143 27t-97.5 73t-59.5 119.5t-30 154.5t-8 189t8 189t30 154.5t59.5 119.5t97.5 73t143 27zM731 223v639q-65 87 -132.5 130.5t-152.5 43.5q-66 0 -113.5 -23t-76.5 -63
t-46.5 -104.5t-23.5 -135t-6 -167.5t6 -168t23.5 -135.5t46.5 -104.5t76.5 -63t113.5 -23q85 0 152.5 43.5t132.5 130.5zM928 1638h78l-33 -426h-45v426z" />
    <glyph glyph-name="Dcroat" unicode="&#x110;" horiz-adv-x="1093" 
d="M473 0h-256v786h-156v68h156v743h256q107 0 183 -15.5t135.5 -53.5t96 -95.5t60 -150t32.5 -207.5t9 -276t-9 -276t-32.5 -207.5t-60 -150t-96 -96t-135.5 -54t-183 -15.5zM291 68h205q90 0 154.5 14.5t112 52t76 89.5t45.5 139t23 187.5t6 248.5t-6 248.5t-23 187.5
t-45.5 139t-76 89.5t-112 52t-154.5 14.5h-205v-676h303v-68h-303v-718z" />
    <glyph glyph-name="dcroat" unicode="&#x111;" horiz-adv-x="983" 
d="M494 1348v65h237v225h74v-225h184v-65h-184v-1129l4 -219h-59l-13 143q-119 -163 -297 -163q-83 0 -143 27t-97.5 73t-59.5 119.5t-30 154.5t-8 189t8 189t30 154.5t59.5 119.5t97.5 73t143 27q170 0 291 -152v394h-237zM731 223v639q-65 87 -132.5 130.5t-152.5 43.5
q-66 0 -113.5 -23t-76.5 -63t-46.5 -104.5t-23.5 -135t-6 -167.5t6 -168t23.5 -135.5t46.5 -104.5t76.5 -63t113.5 -23q85 0 152.5 43.5t132.5 130.5z" />
    <glyph glyph-name="Emacron" unicode="&#x112;" horiz-adv-x="835" 
d="M221 1939v66h393v-66h-393zM123 1597h590v-67h-516v-676h454v-68h-454v-718h557v-68h-631v1597z" />
    <glyph glyph-name="emacron" unicode="&#x113;" horiz-adv-x="882" 
d="M791 514h-609q0 -97 7 -166.5t25 -129.5t49 -96.5t80 -56.5t116 -20q75 0 125 17t76 51t35.5 73.5t9.5 96.5l75 -13q0 -67 -15 -117t-50.5 -90.5t-99.5 -61.5t-156 -21q-85 0 -148 25t-103 70.5t-63.5 117.5t-33 155t-9.5 195q0 114 8.5 197t31.5 155t62.5 116.5
t101 69.5t147.5 25q62 0 110.5 -13t84 -35.5t61 -60.5t41.5 -81.5t25 -104t12.5 -123t3.5 -143.5v-31zM453 1040q-156 0 -213.5 -104.5t-57.5 -351.5h531q0 95 -5 159.5t-20.5 125t-44 95.5t-75.5 55.5t-115 20.5zM250 1427v66h393v-66h-393z" />
    <glyph glyph-name="Ebreve" unicode="&#x114;" horiz-adv-x="835" 
d="M618 2150h62q0 -79 -5 -134.5t-21 -110t-44 -87.5t-76 -53t-116 -20t-116 20t-76 53t-44 87.5t-21 110t-5 134.5h61q0 -72 4.5 -122.5t17 -94.5t35 -70t58.5 -40.5t86 -14.5t86 14.5t58 40.5t34.5 70t17 94.5t4.5 122.5zM123 1597h590v-67h-516v-676h454v-68h-454v-718
h557v-68h-631v1597z" />
    <glyph glyph-name="ebreve" unicode="&#x115;" horiz-adv-x="882" 
d="M791 514h-609q0 -97 7 -166.5t25 -129.5t49 -96.5t80 -56.5t116 -20q75 0 125 17t76 51t35.5 73.5t9.5 96.5l75 -13q0 -67 -15 -117t-50.5 -90.5t-99.5 -61.5t-156 -21q-85 0 -148 25t-103 70.5t-63.5 117.5t-33 155t-9.5 195q0 114 8.5 197t31.5 155t62.5 116.5
t101 69.5t147.5 25q62 0 110.5 -13t84 -35.5t61 -60.5t41.5 -81.5t25 -104t12.5 -123t3.5 -143.5v-31zM453 1040q-156 0 -213.5 -104.5t-57.5 -351.5h531q0 95 -5 159.5t-20.5 125t-44 95.5t-75.5 55.5t-115 20.5zM647 1638h62q0 -79 -5 -134.5t-21 -110t-44.5 -87.5
t-76.5 -53t-116 -20t-116 20t-76 53t-44 87.5t-21 110t-5 134.5h62q0 -72 4.5 -122.5t17 -94.5t34.5 -70t58 -40.5t86 -14.5t86 14.5t58.5 40.5t35 70t17 94.5t4.5 122.5z" />
    <glyph glyph-name="Edotaccent" unicode="&#x116;" horiz-adv-x="835" 
d="M473 2028v-111h-111v111h111zM123 1597h590v-67h-516v-676h454v-68h-454v-718h557v-68h-631v1597z" />
    <glyph glyph-name="edotaccent" unicode="&#x117;" horiz-adv-x="882" 
d="M791 514h-609q0 -97 7 -166.5t25 -129.5t49 -96.5t80 -56.5t116 -20q75 0 125 17t76 51t35.5 73.5t9.5 96.5l75 -13q0 -67 -15 -117t-50.5 -90.5t-99.5 -61.5t-156 -21q-85 0 -148 25t-103 70.5t-63.5 117.5t-33 155t-9.5 195q0 114 8.5 197t31.5 155t62.5 116.5
t101 69.5t147.5 25q62 0 110.5 -13t84 -35.5t61 -60.5t41.5 -81.5t25 -104t12.5 -123t3.5 -143.5v-31zM453 1040q-156 0 -213.5 -104.5t-57.5 -351.5h531q0 95 -5 159.5t-20.5 125t-44 95.5t-75.5 55.5t-115 20.5zM502 1516v-111h-111v111h111z" />
    <glyph glyph-name="Eogonek" unicode="&#x118;" horiz-adv-x="835" 
d="M123 1597h590v-67h-516v-676h454v-68h-454v-718h557v-68q-181 -59 -181 -238q0 -68 36 -99.5t87 -31.5q66 0 127 45l21 -57q-64 -49 -156 -49q-70 0 -126 44.5t-56 137.5q0 160 129 248h-512v1597z" />
    <glyph glyph-name="eogonek" unicode="&#x119;" horiz-adv-x="882" 
d="M791 514h-609q0 -97 7 -166.5t25 -129.5t49 -96.5t80 -56.5t116 -20q75 0 125 17t76 51t35.5 73.5t9.5 96.5l75 -13q0 -223 -182 -274q-168 -61 -168 -234q0 -68 36 -99.5t87 -31.5q66 0 127 45l20 -57q-64 -49 -155 -49q-70 0 -126.5 44.5t-56.5 137.5q0 144 103 228h-6
q-85 0 -148 25t-103 70.5t-63.5 117.5t-33 155t-9.5 195q0 114 8.5 197t31.5 155t62.5 116.5t101 69.5t147.5 25q62 0 110.5 -13t84 -35.5t61 -60.5t41.5 -81.5t25 -104t12.5 -123t3.5 -143.5v-31zM453 1040q-156 0 -213.5 -104.5t-57.5 -351.5h531q0 95 -5 159.5t-20.5 125
t-44 95.5t-75.5 55.5t-115 20.5z" />
    <glyph glyph-name="Ecaron" unicode="&#x11a;" horiz-adv-x="835" 
d="M152 2150h61l205 -358l205 358h61l-221 -426h-90zM123 1597h590v-67h-516v-676h454v-68h-454v-718h557v-68h-631v1597z" />
    <glyph glyph-name="ecaron" unicode="&#x11b;" horiz-adv-x="882" 
d="M791 514h-609q0 -97 7 -166.5t25 -129.5t49 -96.5t80 -56.5t116 -20q75 0 125 17t76 51t35.5 73.5t9.5 96.5l75 -13q0 -67 -15 -117t-50.5 -90.5t-99.5 -61.5t-156 -21q-85 0 -148 25t-103 70.5t-63.5 117.5t-33 155t-9.5 195q0 114 8.5 197t31.5 155t62.5 116.5
t101 69.5t147.5 25q62 0 110.5 -13t84 -35.5t61 -60.5t41.5 -81.5t25 -104t12.5 -123t3.5 -143.5v-31zM453 1040q-156 0 -213.5 -104.5t-57.5 -351.5h531q0 95 -5 159.5t-20.5 125t-44 95.5t-75.5 55.5t-115 20.5zM180 1638h62l204 -358l205 358h62l-221 -426h-91z" />
    <glyph glyph-name="Gcircumflex" unicode="&#x11c;" horiz-adv-x="999" 
d="M770 1724h-59l-197 365l-197 -365h-59l213 426h86zM102 799q0 185 13.5 316.5t43 230.5t80.5 157.5t123 86.5t173 28q106 0 176.5 -26.5t108 -83t52 -128.5t13.5 -178l-76 -12q0 99 -10.5 161.5t-40 109.5t-83.5 67t-140 20q-73 0 -127 -17.5t-94 -57.5t-66 -97.5
t-41.5 -144.5t-22 -189.5t-6.5 -242.5q0 -143 5 -243t18 -189.5t36.5 -145t61 -96.5t90 -58.5t125.5 -17.5q179 0 299 53v625h-225v70h299v-740q-161 -77 -373 -77q-101 0 -171 28.5t-117.5 86t-74.5 158t-38 230t-11 316.5z" />
    <glyph glyph-name="gcircumflex" unicode="&#x11d;" 
d="M440 20q-83 0 -143 26t-97.5 70.5t-59.5 115.5t-30 148.5t-8 182.5t8 182.5t30 148.5t59.5 115.5t97.5 70.5t143 26q178 0 297 -164l13 143h59l-4 -219v-987q0 -69 -17 -122.5t-55 -97t-106.5 -66.5t-165.5 -23t-164.5 21.5t-104.5 63t-53 94.5t-16 124l76 12
q0 -65 11 -108t39 -77t80.5 -49.5t131.5 -15.5q150 0 210 61.5t60 166.5v309q-118 -152 -291 -152zM731 264v598q-63 86 -131.5 130t-155.5 44q-65 0 -112 -22t-76.5 -60.5t-46.5 -100t-23 -129.5t-6 -161t6 -161t23 -130t46.5 -100.5t76.5 -61t112 -22.5q87 0 155 44.5
t132 131.5zM711 1212h-60l-196 365l-197 -365h-59l213 426h86z" />
    <glyph glyph-name="Gbreve" unicode="&#x11e;" horiz-adv-x="999" 
d="M715 2150h61q0 -79 -5 -134.5t-21 -110t-44 -87.5t-76 -53t-116 -20t-116 20t-76 53t-44 87.5t-21 110t-5 134.5h61q0 -72 4.5 -122.5t17 -94.5t35 -70t58.5 -40.5t86 -14.5t86 14.5t58.5 40.5t35 70t17 94.5t4.5 122.5zM102 799q0 185 13.5 316.5t43 230.5t80.5 157.5
t123 86.5t173 28q106 0 176.5 -26.5t108 -83t52 -128.5t13.5 -178l-76 -12q0 99 -10.5 161.5t-40 109.5t-83.5 67t-140 20q-73 0 -127 -17.5t-94 -57.5t-66 -97.5t-41.5 -144.5t-22 -189.5t-6.5 -242.5q0 -143 5 -243t18 -189.5t36.5 -145t61 -96.5t90 -58.5t125.5 -17.5
q179 0 299 53v625h-225v70h299v-740q-161 -77 -373 -77q-101 0 -171 28.5t-117.5 86t-74.5 158t-38 230t-11 316.5z" />
    <glyph glyph-name="gbreve" unicode="&#x11f;" 
d="M440 20q-83 0 -143 26t-97.5 70.5t-59.5 115.5t-30 148.5t-8 182.5t8 182.5t30 148.5t59.5 115.5t97.5 70.5t143 26q178 0 297 -164l13 143h59l-4 -219v-987q0 -69 -17 -122.5t-55 -97t-106.5 -66.5t-165.5 -23t-164.5 21.5t-104.5 63t-53 94.5t-16 124l76 12
q0 -65 11 -108t39 -77t80.5 -49.5t131.5 -15.5q150 0 210 61.5t60 166.5v309q-118 -152 -291 -152zM731 264v598q-63 86 -131.5 130t-155.5 44q-65 0 -112 -22t-76.5 -60.5t-46.5 -100t-23 -129.5t-6 -161t6 -161t23 -130t46.5 -100.5t76.5 -61t112 -22.5q87 0 155 44.5
t132 131.5zM655 1638h62q0 -79 -5 -134.5t-21 -110t-44 -87.5t-76 -53t-116 -20t-116 20t-76 53t-44 87.5t-21 110t-5 134.5h61q0 -72 4.5 -122.5t17 -94.5t35 -70t58.5 -40.5t86 -14.5t86 14.5t58 40.5t34.5 70t17 94.5t4.5 122.5z" />
    <glyph glyph-name="Gdotaccent" unicode="&#x120;" horiz-adv-x="999" 
d="M569 2028v-111h-110v111h110zM102 799q0 185 13.5 316.5t43 230.5t80.5 157.5t123 86.5t173 28q106 0 176.5 -26.5t108 -83t52 -128.5t13.5 -178l-76 -12q0 99 -10.5 161.5t-40 109.5t-83.5 67t-140 20q-73 0 -127 -17.5t-94 -57.5t-66 -97.5t-41.5 -144.5t-22 -189.5
t-6.5 -242.5q0 -143 5 -243t18 -189.5t36.5 -145t61 -96.5t90 -58.5t125.5 -17.5q179 0 299 53v625h-225v70h299v-740q-161 -77 -373 -77q-101 0 -171 28.5t-117.5 86t-74.5 158t-38 230t-11 316.5z" />
    <glyph glyph-name="gdotaccent" unicode="&#x121;" 
d="M440 20q-83 0 -143 26t-97.5 70.5t-59.5 115.5t-30 148.5t-8 182.5t8 182.5t30 148.5t59.5 115.5t97.5 70.5t143 26q178 0 297 -164l13 143h59l-4 -219v-987q0 -69 -17 -122.5t-55 -97t-106.5 -66.5t-165.5 -23t-164.5 21.5t-104.5 63t-53 94.5t-16 124l76 12
q0 -65 11 -108t39 -77t80.5 -49.5t131.5 -15.5q150 0 210 61.5t60 166.5v309q-118 -152 -291 -152zM731 264v598q-63 86 -131.5 130t-155.5 44q-65 0 -112 -22t-76.5 -60.5t-46.5 -100t-23 -129.5t-6 -161t6 -161t23 -130t46.5 -100.5t76.5 -61t112 -22.5q87 0 155 44.5
t132 131.5zM510 1516v-111h-111v111h111z" />
    <glyph glyph-name="Gcommaaccent" unicode="&#x122;" horiz-adv-x="999" 
d="M502 -410h-56l23 283h90zM102 799q0 185 13.5 316.5t43 230.5t80.5 157.5t123 86.5t173 28q106 0 176.5 -26.5t108 -83t52 -128.5t13.5 -178l-76 -12q0 99 -10.5 161.5t-40 109.5t-83.5 67t-140 20q-73 0 -127 -17.5t-94 -57.5t-66 -97.5t-41.5 -144.5t-22 -189.5
t-6.5 -242.5q0 -143 5 -243t18 -189.5t36.5 -145t61 -96.5t90 -58.5t125.5 -17.5q179 0 299 53v625h-225v70h299v-740q-161 -77 -373 -77q-101 0 -171 28.5t-117.5 86t-74.5 158t-38 230t-11 316.5z" />
    <glyph glyph-name="gcommaaccent" unicode="&#x123;" 
d="M440 20q-83 0 -143 26t-97.5 70.5t-59.5 115.5t-30 148.5t-8 182.5t8 182.5t30 148.5t59.5 115.5t97.5 70.5t143 26q178 0 297 -164l13 143h59l-4 -219v-987q0 -69 -17 -122.5t-55 -97t-106.5 -66.5t-165.5 -23t-164.5 21.5t-104.5 63t-53 94.5t-16 124l76 12
q0 -65 11 -108t39 -77t80.5 -49.5t131.5 -15.5q150 0 210 61.5t60 166.5v309q-118 -152 -291 -152zM731 264v598q-63 86 -131.5 130t-155.5 44q-65 0 -112 -22t-76.5 -60.5t-46.5 -100t-23 -129.5t-6 -161t6 -161t23 -130t46.5 -100.5t76.5 -61t112 -22.5q87 0 155 44.5
t132 131.5zM471 1212h-78l123 426h59z" />
    <glyph glyph-name="Hcircumflex" unicode="&#x124;" horiz-adv-x="1019" 
d="M766 1724h-59l-197 365l-197 -365h-59l213 426h86zM823 1597h74v-1597h-74v786h-626v-786h-74v1597h74v-743h626v743z" />
    <glyph glyph-name="hcircumflex" unicode="&#x125;" horiz-adv-x="888" 
d="M190 1638v-686q48 65 134 109.5t196 44.5q121 0 190.5 -63t69.5 -156v-887h-73v856q0 80 -48.5 130t-150.5 50q-101 0 -185 -46.5t-133 -121.5v-868h-73v1638h73zM410 1724h-60l-196 365l-197 -365h-59l213 426h86z" />
    <glyph glyph-name="Hbar" unicode="&#x126;" horiz-adv-x="1019" 
d="M823 1597h74v-1597h-74v786h-626v-786h-74v1597h74v-340h626v340zM197 854h626v338h-626v-338z" />
    <glyph glyph-name="hbar" unicode="&#x127;" horiz-adv-x="950" 
d="M-6 1348v65h184v225h74v-225h237v-65h-237v-396q48 65 134 109.5t196 44.5q121 0 190.5 -63t69.5 -156v-887h-74v856q0 80 -48.5 130t-150.5 50q-101 0 -184.5 -46.5t-132.5 -121.5v-868h-74v1348h-184z" />
    <glyph glyph-name="Itilde" unicode="&#x128;" horiz-adv-x="339" 
d="M389 2028l57 -11q-6 -87 -43.5 -135t-101.5 -47q-32 1 -62.5 16.5t-55.5 37t-48.5 43.5t-50 37.5t-51.5 17.5q-44 3 -64 -29.5t-26 -104.5l-58 11q6 87 44 135t102 47q32 -1 62.5 -16.5t55.5 -37t48.5 -43.5t50 -37.5t51.5 -17.5q44 -3 64 29.5t26 104.5zM207 1597v-1597
h-74v1597h74z" />
    <glyph glyph-name="itilde" unicode="&#x129;" horiz-adv-x="315" 
d="M121 0v1085h74v-1085h-74zM377 1516l57 -11q-6 -87 -43.5 -135t-101.5 -47q-39 1 -77.5 24.5t-65.5 51t-61.5 51t-64.5 25.5q-44 3 -64 -29.5t-26 -104.5l-57 11q6 87 43.5 135t101.5 47q39 -1 77.5 -24.5t65.5 -51t61.5 -51t64.5 -25.5q44 -3 64 29.5t26 104.5z" />
    <glyph glyph-name="Imacron" unicode="&#x12a;" horiz-adv-x="339" 
d="M-27 1939v66h394v-66h-394zM207 1597v-1597h-74v1597h74z" />
    <glyph glyph-name="imacron" unicode="&#x12b;" horiz-adv-x="315" 
d="M121 0v1085h74v-1085h-74zM-39 1427v66h393v-66h-393z" />
    <glyph glyph-name="Ibreve" unicode="&#x12c;" horiz-adv-x="339" 
d="M371 2150h61q0 -79 -5 -134.5t-21 -110t-44 -87.5t-76 -53t-116 -20t-116 20t-76 53t-44 87.5t-21 110t-5 134.5h61q0 -72 4.5 -122.5t17 -94.5t35 -70t58.5 -40.5t86 -14.5t86 14.5t58.5 40.5t35 70t17 94.5t4.5 122.5zM207 1597v-1597h-74v1597h74z" />
    <glyph glyph-name="ibreve" unicode="&#x12d;" horiz-adv-x="315" 
d="M121 0v1085h74v-1085h-74zM358 1638h62q0 -79 -5 -134.5t-21 -110t-44 -87.5t-76 -53t-116 -20t-116 20t-76 53t-44 87.5t-21 110t-5 134.5h61q0 -72 4.5 -122.5t17 -94.5t35 -70t58.5 -40.5t86 -14.5t86 14.5t58 40.5t34.5 70t17 94.5t4.5 122.5z" />
    <glyph glyph-name="Iogonek" unicode="&#x12e;" horiz-adv-x="339" 
d="M207 1597v-1597q-69 -26 -114.5 -90t-45.5 -148q0 -68 36 -99.5t87 -31.5q66 0 127 45l20 -57q-64 -49 -155 -49q-70 0 -126 44.5t-56 137.5q0 177 153 273v1572h74z" />
    <glyph glyph-name="iogonek" unicode="&#x12f;" horiz-adv-x="315" 
d="M195 1085v-1085q-69 -26 -114.5 -90t-45.5 -148q0 -68 36 -99.5t87 -31.5q66 0 127 45l20 -57q-64 -49 -155 -49q-70 0 -126.5 44.5t-56.5 137.5q0 79 38 151t116 122v1060h74zM213 1516v-111h-111v111h111z" />
    <glyph glyph-name="Idotaccent" unicode="&#x130;" horiz-adv-x="339" 
d="M225 2028v-111h-110v111h110zM207 1597v-1597h-74v1597h74z" />
    <glyph glyph-name="dotlessi" unicode="&#x131;" horiz-adv-x="315" 
d="M121 0v1085h74v-1085h-74z" />
    <glyph glyph-name="IJ" unicode="&#x132;" horiz-adv-x="780" 
d="M207 1597v-1597h-74v1597h74zM643 1597v-1435q0 -88 -44.5 -135t-147.5 -47q-61 0 -111 20l10 68q44 -19 101 -19q59 0 88.5 25.5t29.5 101.5v1421h74z" />
    <glyph glyph-name="ij" unicode="&#x133;" horiz-adv-x="589" 
d="M121 0v1085h74v-1085h-74zM213 1516v-111h-111v111h111zM469 1085v-1333q0 -88 -45 -135t-148 -47q-60 0 -110 20l10 70q42 -18 100 -18q60 0 89.5 25.5t29.5 101.5v1316h74zM487 1516v-111h-110v111h110z" />
    <glyph glyph-name="Jcircumflex" unicode="&#x134;" horiz-adv-x="808" 
d="M891 1724h-60l-196 365l-197 -365h-59l213 426h86zM598 1597h74v-1241q0 -203 -67.5 -289.5t-227.5 -86.5q-69 0 -120 19t-80 49t-46.5 75.5t-23 90t-5.5 101.5l74 13q0 -55 4 -94t17 -77t35 -61t59.5 -36t89.5 -11q69 2 111.5 20t66 58t31.5 92t8 135v1243z" />
    <glyph glyph-name="jcircumflex" unicode="&#x135;" horiz-adv-x="315" 
d="M195 1085v-1333q0 -88 -45 -135t-148 -47q-61 0 -111 20l11 70q42 -18 100 -18q60 0 89.5 25.5t29.5 101.5v1316h74zM414 1212h-60l-196 365l-197 -365h-59l213 426h86z" />
    <glyph glyph-name="Kcommaaccent" unicode="&#x136;" horiz-adv-x="874" 
d="M418 -410h-56l23 283h90zM197 1597l-2 -948l505 948h80l-381 -706l420 -891h-78l-383 815l-163 -299l2 -516h-74v1597h74z" />
    <glyph glyph-name="kcommaaccent" unicode="&#x137;" horiz-adv-x="866" 
d="M190 1638l-2 -1161l486 608h96l-383 -471l426 -614h-88l-385 555l-152 -184l2 -371h-73v1638h73zM428 -412h-55l22 283h90z" />
    <glyph glyph-name="kgreenlandic" unicode="&#x138;" horiz-adv-x="866" 
d="M190 1085l-2 -608l486 608h96l-383 -471l426 -614h-88l-385 555l-152 -184l2 -371h-73v1085h73z" />
    <glyph glyph-name="Lacute" unicode="&#x139;" horiz-adv-x="733" 
d="M197 1597v-1529h495v-68h-569v1597h74zM233 2150h78l-123 -426h-59z" />
    <glyph glyph-name="lacute" unicode="&#x13a;" horiz-adv-x="315" 
d="M121 0v1638h74v-1638h-74zM231 2150h78l-123 -426h-59z" />
    <glyph glyph-name="Lcommaaccent" unicode="&#x13b;" horiz-adv-x="733" 
d="M395 -410h-55l22 283h91zM197 1597v-1529h495v-68h-569v1597h74z" />
    <glyph glyph-name="lcommaaccent" unicode="&#x13c;" horiz-adv-x="315" 
d="M121 0v1638h74v-1638h-74zM145 -410h-55l23 283h90z" />
    <glyph glyph-name="Lcaron" unicode="&#x13d;" horiz-adv-x="733" 
d="M197 1597v-1529h495v-68h-569v1597h74zM444 1638h78l-33 -426h-45v426z" />
    <glyph glyph-name="lcaron" unicode="&#x13e;" horiz-adv-x="376" 
d="M121 0v1638h74v-1638h-74zM317 1638h78l-33 -426h-45v426z" />
    <glyph glyph-name="Ldot" unicode="&#x13f;" horiz-adv-x="733" 
d="M197 1597v-1529h495v-68h-569v1597h74zM547 881v-123h-123v123h123z" />
    <glyph glyph-name="ldot" unicode="&#x140;" horiz-adv-x="491" 
d="M121 0v1638h74v-1638h-74zM444 860v-123h-122v123h122z" />
    <glyph glyph-name="Lslash" unicode="&#x141;" horiz-adv-x="733" 
d="M43 623v69l135 68v837h74v-800l311 157v-69l-311 -158v-659h496v-68h-570v690z" />
    <glyph glyph-name="lslash" unicode="&#x142;" horiz-adv-x="501" 
d="M449 1032l-177 -110v-922h-73v877l-156 -97v74l156 96v688h73v-643l177 111v-74z" />
    <glyph glyph-name="Nacute" unicode="&#x143;" horiz-adv-x="983" 
d="M565 2150h78l-123 -426h-59zM229 1597l410 -1087l156 -426l-9 563v950h74v-1597h-106l-410 1087l-156 426l9 -563v-950h-74v1597h106z" />
    <glyph glyph-name="nacute" unicode="&#x144;" horiz-adv-x="888" 
d="M172 1085l12 -143q44 69 132 116.5t204 47.5q121 0 190.5 -63t69.5 -156v-887h-73v856q0 80 -48.5 130t-150.5 50q-101 0 -185 -46.5t-133 -121.5v-868h-73v866l-4 219h59zM541 1638h77l-122 -426h-60z" />
    <glyph glyph-name="Ncommaaccent" unicode="&#x145;" horiz-adv-x="983" 
d="M479 -410h-55l22 283h91zM229 1597l410 -1087l156 -426l-9 563v950h74v-1597h-106l-410 1087l-156 426l9 -563v-950h-74v1597h106z" />
    <glyph glyph-name="ncommaaccent" unicode="&#x146;" horiz-adv-x="888" 
d="M172 1085l12 -143q44 69 132 116.5t204 47.5q121 0 190.5 -63t69.5 -156v-887h-73v856q0 80 -48.5 130t-150.5 50q-101 0 -185 -46.5t-133 -121.5v-868h-73v866l-4 219h59zM434 -410h-55l22 283h91z" />
    <glyph glyph-name="Ncaron" unicode="&#x147;" horiz-adv-x="983" 
d="M225 2150h62l205 -358l204 358h62l-221 -426h-91zM229 1597l410 -1087l156 -426l-9 563v950h74v-1597h-106l-410 1087l-156 426l9 -563v-950h-74v1597h106z" />
    <glyph glyph-name="ncaron" unicode="&#x148;" horiz-adv-x="888" 
d="M172 1085l12 -143q44 69 132 116.5t204 47.5q121 0 190.5 -63t69.5 -156v-887h-73v856q0 80 -48.5 130t-150.5 50q-101 0 -185 -46.5t-133 -121.5v-868h-73v866l-4 219h59zM180 1638h62l204 -358l205 358h62l-221 -426h-91z" />
    <glyph glyph-name="Eng" unicode="&#x14a;" horiz-adv-x="983" 
d="M229 1597l410 -1087l156 -426l-9 563v950h74v-1845q0 -88 -44.5 -135t-147.5 -47q-61 0 -111 20l10 70q42 -18 101 -18t88.5 25.5t29.5 101.5v145l-442 1173l-156 426l9 -563v-950h-74v1597h106z" />
    <glyph glyph-name="eng" unicode="&#x14b;" horiz-adv-x="888" 
d="M172 1085l12 -143q44 69 132 116.5t204 47.5q121 0 190.5 -63t69.5 -156v-1135q0 -88 -44.5 -135t-147.5 -47q-61 0 -111 20l10 70q42 -18 101 -18q60 0 89.5 25.5t29.5 101.5v1087q0 80 -48.5 130t-150.5 50q-101 0 -185 -46.5t-133 -121.5v-868h-73v866l-4 219h59z" />
    <glyph glyph-name="Omacron" unicode="&#x14c;" horiz-adv-x="983" 
d="M295 1939v66h393v-66h-393zM492 49q79 0 133 26.5t89.5 78.5t55.5 145.5t27.5 210t7.5 289.5q0 144 -5 246.5t-18.5 190.5t-35.5 143.5t-57.5 95t-83 56.5t-113.5 17q-79 0 -133 -26.5t-90 -78.5t-55.5 -145t-27.5 -209.5t-8 -289.5q0 -143 5 -246t18.5 -191t36 -144
t57.5 -95.5t83 -56.5t114 -17zM492 -20q-93 0 -158 28t-111 85.5t-72 157t-37.5 230.5t-11.5 318t11.5 318t37.5 230.5t72 157t111 85.5t158 28t158 -28t110.5 -85.5t71.5 -157t37.5 -230.5t11.5 -318t-11.5 -318t-37.5 -230.5t-71.5 -157t-110.5 -85.5t-158 -28z" />
    <glyph glyph-name="omacron" unicode="&#x14d;" 
d="M461 45q148 0 214 115.5t66 382.5t-66 382t-214 115t-214.5 -115t-66.5 -382t66.5 -382.5t214.5 -115.5zM461 -20q-189 0 -274 128.5t-85 434.5t85 434.5t274 128.5t273.5 -128.5t84.5 -434.5t-84.5 -434.5t-273.5 -128.5zM264 1427v66h393v-66h-393z" />
    <glyph glyph-name="Obreve" unicode="&#x14e;" horiz-adv-x="983" 
d="M692 2150h62q0 -79 -5 -134.5t-21 -110t-44 -87.5t-76 -53t-116 -20t-116 20t-76.5 53t-44.5 87.5t-21 110t-5 134.5h62q0 -72 4.5 -122.5t17 -94.5t35 -70t58.5 -40.5t86 -14.5t86 14.5t58 40.5t34.5 70t17 94.5t4.5 122.5zM492 49q79 0 133 26.5t89.5 78.5t55.5 145.5
t27.5 210t7.5 289.5q0 144 -5 246.5t-18.5 190.5t-35.5 143.5t-57.5 95t-83 56.5t-113.5 17q-79 0 -133 -26.5t-90 -78.5t-55.5 -145t-27.5 -209.5t-8 -289.5q0 -143 5 -246t18.5 -191t36 -144t57.5 -95.5t83 -56.5t114 -17zM492 -20q-93 0 -158 28t-111 85.5t-72 157
t-37.5 230.5t-11.5 318t11.5 318t37.5 230.5t72 157t111 85.5t158 28t158 -28t110.5 -85.5t71.5 -157t37.5 -230.5t11.5 -318t-11.5 -318t-37.5 -230.5t-71.5 -157t-110.5 -85.5t-158 -28z" />
    <glyph glyph-name="obreve" unicode="&#x14f;" 
d="M461 45q148 0 214 115.5t66 382.5t-66 382t-214 115t-214.5 -115t-66.5 -382t66.5 -382.5t214.5 -115.5zM461 -20q-189 0 -274 128.5t-85 434.5t85 434.5t274 128.5t273.5 -128.5t84.5 -434.5t-84.5 -434.5t-273.5 -128.5zM662 1638h61q0 -79 -5 -134.5t-21 -110
t-44 -87.5t-76 -53t-116 -20t-116 20t-76 53t-44 87.5t-21 110t-5 134.5h61q0 -72 4.5 -122.5t17 -94.5t35 -70t58.5 -40.5t86 -14.5t86 14.5t58.5 40.5t35 70t17 94.5t4.5 122.5z" />
    <glyph glyph-name="Ohungarumlaut" unicode="&#x150;" horiz-adv-x="983" 
d="M463 2150h78l-123 -426h-60zM668 2150h77l-122 -426h-60zM492 49q79 0 133 26.5t89.5 78.5t55.5 145.5t27.5 210t7.5 289.5q0 144 -5 246.5t-18.5 190.5t-35.5 143.5t-57.5 95t-83 56.5t-113.5 17q-79 0 -133 -26.5t-90 -78.5t-55.5 -145t-27.5 -209.5t-8 -289.5
q0 -143 5 -246t18.5 -191t36 -144t57.5 -95.5t83 -56.5t114 -17zM492 -20q-93 0 -158 28t-111 85.5t-72 157t-37.5 230.5t-11.5 318t11.5 318t37.5 230.5t72 157t111 85.5t158 28t158 -28t110.5 -85.5t71.5 -157t37.5 -230.5t11.5 -318t-11.5 -318t-37.5 -230.5t-71.5 -157
t-110.5 -85.5t-158 -28z" />
    <glyph glyph-name="ohungarumlaut" unicode="&#x151;" 
d="M461 45q148 0 214 115.5t66 382.5t-66 382t-214 115t-214.5 -115t-66.5 -382t66.5 -382.5t214.5 -115.5zM461 -20q-189 0 -274 128.5t-85 434.5t85 434.5t274 128.5t273.5 -128.5t84.5 -434.5t-84.5 -434.5t-273.5 -128.5zM432 1638h78l-123 -426h-59zM637 1638h78
l-123 -426h-60z" />
    <glyph glyph-name="OE" unicode="&#x152;" horiz-adv-x="1433" 
d="M1352 0h-731q-91 0 -159.5 12t-124.5 37t-94.5 69.5t-66 104t-43 146t-22.5 189.5t-7 241q0 161 9 276t32.5 207.5t60.5 150t96.5 95.5t135.5 53.5t183 15.5h690v-67h-516v-676h454v-68h-454v-718h557v-68zM598 68h123v1462h-123q-90 0 -154.5 -14.5t-112 -52t-76 -89.5
t-46 -139t-23.5 -188t-6 -248t6 -248t23.5 -188t46 -139t76 -89.5t112 -52t154.5 -14.5z" />
    <glyph glyph-name="oe" unicode="&#x153;" horiz-adv-x="1521" 
d="M1430 514h-609q0 -97 7 -166.5t25 -129.5t49 -96.5t80 -56.5t116 -20q75 0 125 17t75.5 51t35 73.5t9.5 96.5l76 -13q0 -67 -15 -117t-50.5 -90.5t-99.5 -61.5t-156 -21q-140 0 -215 64t-105 194q-33 -137 -109.5 -197.5t-207.5 -60.5q-189 0 -274 128.5t-85 434.5
t85 434.5t274 128.5q131 0 207.5 -60t109.5 -196q29 130 101.5 193t212.5 63q62 0 110.5 -13t84 -35.5t61 -60.5t41.5 -81.5t25 -104t12.5 -123t3.5 -143.5v-31zM461 45q148 0 214 115.5t66 382.5t-66 382t-214 115t-214.5 -115t-66.5 -382t66.5 -382.5t214.5 -115.5z
M1092 1040q-156 0 -213.5 -104.5t-57.5 -351.5h531q0 95 -5 159.5t-20.5 125t-44 95.5t-75.5 55.5t-115 20.5z" />
    <glyph glyph-name="Racute" unicode="&#x154;" horiz-adv-x="878" 
d="M492 2150h77l-123 -426h-59zM197 717v-717h-74v1597h305q84 0 142 -17.5t104.5 -64t69 -135.5t22.5 -223q0 -148 -29 -241t-79.5 -136t-129.5 -57l267 -723h-82l-260 717h-256zM197 784h229q57 0 97 9.5t73.5 34.5t53 67t30 106.5t10.5 155.5t-10.5 155.5t-30 106.5
t-53 67t-73.5 34.5t-97 9.5h-229v-746z" />
    <glyph glyph-name="racute" unicode="&#x155;" horiz-adv-x="581" 
d="M455 1036q-159 0 -265 -178v-858h-73v866l-4 219h59l12 -143q43 73 113.5 118.5t151.5 45.5q45 0 79 -12l-6 -66q-24 8 -67 8zM393 1638h78l-123 -426h-59z" />
    <glyph glyph-name="Rcommaaccent" unicode="&#x156;" horiz-adv-x="878" 
d="M434 -410h-55l22 283h91zM197 717v-717h-74v1597h305q84 0 142 -17.5t104.5 -64t69 -135.5t22.5 -223q0 -148 -29 -241t-79.5 -136t-129.5 -57l267 -723h-82l-260 717h-256zM197 784h229q57 0 97 9.5t73.5 34.5t53 67t30 106.5t10.5 155.5t-10.5 155.5t-30 106.5t-53 67
t-73.5 34.5t-97 9.5h-229v-746z" />
    <glyph glyph-name="rcommaaccent" unicode="&#x157;" horiz-adv-x="581" 
d="M455 1036q-159 0 -265 -178v-858h-73v866l-4 219h59l12 -143q43 73 113.5 118.5t151.5 45.5q45 0 79 -12l-6 -66q-24 8 -67 8zM141 -410h-55l23 283h90z" />
    <glyph glyph-name="Rcaron" unicode="&#x158;" horiz-adv-x="878" 
d="M152 2150h61l205 -358l205 358h61l-221 -426h-90zM197 717v-717h-74v1597h305q84 0 142 -17.5t104.5 -64t69 -135.5t22.5 -223q0 -148 -29 -241t-79.5 -136t-129.5 -57l267 -723h-82l-260 717h-256zM197 784h229q57 0 97 9.5t73.5 34.5t53 67t30 106.5t10.5 155.5
t-10.5 155.5t-30 106.5t-53 67t-73.5 34.5t-97 9.5h-229v-746z" />
    <glyph glyph-name="rcaron" unicode="&#x159;" horiz-adv-x="581" 
d="M455 1036q-159 0 -265 -178v-858h-73v866l-4 219h59l12 -143q43 73 113.5 118.5t151.5 45.5q45 0 79 -12l-6 -66q-24 8 -67 8zM53 1638h62l204 -358l205 358h62l-221 -426h-91z" />
    <glyph glyph-name="Sacute" unicode="&#x15a;" horiz-adv-x="911" 
d="M549 2150h78l-123 -426h-60zM426 47q176 0 252 81t76 278q0 124 -27 194.5t-84.5 109.5t-171.5 72q-41 12 -68.5 21.5t-63 24t-59 31t-50 39t-43 50.5t-31 64t-21 81.5t-6.5 100.5q0 221 81 322.5t275 101.5q63 0 112.5 -11.5t83 -30.5t58 -50t38.5 -63t21.5 -77t10 -84
t2.5 -92l-76 -12q0 50 -1.5 84t-7.5 74t-16 66.5t-28.5 52.5t-45 41t-64.5 24.5t-87 9.5q-146 0 -213 -80.5t-67 -275.5q0 -107 25 -168.5t80 -98.5t163 -69q52 -15 87 -27t75.5 -32t66.5 -42t52.5 -55.5t41.5 -75t24 -97.5t9 -126q0 -220 -98 -321.5t-305 -101.5
q-83 0 -145 21t-99.5 56.5t-60.5 90.5t-31 115t-8 138l76 13q0 -76 5 -127t21.5 -100t45.5 -77.5t77.5 -45.5t118.5 -17z" />
    <glyph glyph-name="sacute" unicode="&#x15b;" horiz-adv-x="778" 
d="M369 43q76 0 127 15.5t79 48t39 73t11 99.5q0 54 -13 93t-32 64t-58 45t-73.5 31t-96.5 27q-41 11 -66.5 19t-57.5 22.5t-51 33.5t-37 47t-26 67.5t-8 90.5q0 287 297 287q71 0 122 -13.5t81.5 -37t48 -62t23.5 -79.5t6 -99l-76 -12q0 61 -6.5 99t-27 73t-63 51
t-110.5 16q-116 0 -167.5 -56t-51.5 -165q0 -48 6.5 -79t19.5 -53.5t42.5 -39t64.5 -28.5t97 -27q42 -11 66 -18t60 -21t56.5 -28.5t45 -38t37 -51.5t21.5 -68t9 -88q0 -150 -76 -225.5t-260 -75.5q-74 0 -128 14.5t-86.5 38.5t-51.5 62.5t-26 79.5t-7 95l75 13
q0 -48 3 -78.5t15.5 -64.5t36 -53t65.5 -31.5t102 -12.5zM475 1638h78l-123 -426h-59z" />
    <glyph glyph-name="Scircumflex" unicode="&#x15c;" horiz-adv-x="911" 
d="M731 1724h-59l-197 365l-196 -365h-60l213 426h86zM426 47q176 0 252 81t76 278q0 124 -27 194.5t-84.5 109.5t-171.5 72q-41 12 -68.5 21.5t-63 24t-59 31t-50 39t-43 50.5t-31 64t-21 81.5t-6.5 100.5q0 221 81 322.5t275 101.5q63 0 112.5 -11.5t83 -30.5t58 -50
t38.5 -63t21.5 -77t10 -84t2.5 -92l-76 -12q0 50 -1.5 84t-7.5 74t-16 66.5t-28.5 52.5t-45 41t-64.5 24.5t-87 9.5q-146 0 -213 -80.5t-67 -275.5q0 -107 25 -168.5t80 -98.5t163 -69q52 -15 87 -27t75.5 -32t66.5 -42t52.5 -55.5t41.5 -75t24 -97.5t9 -126
q0 -220 -98 -321.5t-305 -101.5q-83 0 -145 21t-99.5 56.5t-60.5 90.5t-31 115t-8 138l76 13q0 -76 5 -127t21.5 -100t45.5 -77.5t77.5 -45.5t118.5 -17z" />
    <glyph glyph-name="scircumflex" unicode="&#x15d;" horiz-adv-x="778" 
d="M369 43q76 0 127 15.5t79 48t39 73t11 99.5q0 54 -13 93t-32 64t-58 45t-73.5 31t-96.5 27q-41 11 -66.5 19t-57.5 22.5t-51 33.5t-37 47t-26 67.5t-8 90.5q0 287 297 287q71 0 122 -13.5t81.5 -37t48 -62t23.5 -79.5t6 -99l-76 -12q0 61 -6.5 99t-27 73t-63 51
t-110.5 16q-116 0 -167.5 -56t-51.5 -165q0 -48 6.5 -79t19.5 -53.5t42.5 -39t64.5 -28.5t97 -27q42 -11 66 -18t60 -21t56.5 -28.5t45 -38t37 -51.5t21.5 -68t9 -88q0 -150 -76 -225.5t-260 -75.5q-74 0 -128 14.5t-86.5 38.5t-51.5 62.5t-26 79.5t-7 95l75 13
q0 -48 3 -78.5t15.5 -64.5t36 -53t65.5 -31.5t102 -12.5zM657 1212h-59l-197 365l-196 -365h-60l213 426h86z" />
    <glyph glyph-name="Scedilla" unicode="&#x15e;" horiz-adv-x="911" 
d="M426 47q176 0 252 81t76 278q0 124 -27 194.5t-84.5 109.5t-171.5 72q-41 12 -68.5 21.5t-63 24t-59 31t-50 39t-43 50.5t-31 64t-21 81.5t-6.5 100.5q0 221 81 322.5t275 101.5q63 0 112.5 -11.5t83 -30.5t58 -50t38.5 -63t21.5 -77t10 -84t2.5 -92l-76 -12
q0 50 -1.5 84t-7.5 74t-16 66.5t-28.5 52.5t-45 41t-64.5 24.5t-87 9.5q-146 0 -213 -80.5t-67 -275.5q0 -107 25 -168.5t80 -98.5t163 -69q52 -15 87 -27t75.5 -32t66.5 -42t52.5 -55.5t41.5 -75t24 -97.5t9 -126q0 -212 -91 -313.5t-283 -109.5l-19 -66q221 -32 221 -176
q0 -85 -61.5 -126.5t-161.5 -41.5q-44 0 -91 11t-71 24l21 59q55 -31 125 -33q80 -2 124 21.5t44 83.5q0 34 -18.5 58t-52 36t-64.5 18t-72 11q-13 1 -19 2l39 119q-77 3 -133.5 25.5t-91.5 58t-56 90t-28.5 113t-7.5 134.5l76 13q0 -76 5 -127t21.5 -100t45.5 -77.5
t77.5 -45.5t118.5 -17z" />
    <glyph glyph-name="scedilla" unicode="&#x15f;" horiz-adv-x="778" 
d="M369 43q76 0 127 15.5t79 48t39 73t11 99.5q0 54 -13 93t-32 64t-58 45t-73.5 31t-96.5 27q-41 11 -66.5 19t-57.5 22.5t-51 33.5t-37 47t-26 67.5t-8 90.5q0 287 297 287q71 0 122 -13.5t81.5 -37t48 -62t23.5 -79.5t6 -99l-76 -12q0 61 -6.5 99t-27 73t-63 51
t-110.5 16q-116 0 -167.5 -56t-51.5 -165q0 -48 6.5 -79t19.5 -53.5t42.5 -39t64.5 -28.5t97 -27q42 -11 66 -18t60 -21t56.5 -28.5t45 -38t37 -51.5t21.5 -68t9 -88q0 -145 -70 -219t-238 -80l-18 -68q221 -32 221 -176q0 -85 -61.5 -126.5t-161.5 -41.5q-44 0 -91 11
t-71 24l21 59q54 -31 124 -33q80 -2 124 21.5t44 83.5q0 34 -18.5 58t-52 36t-64 18t-71.5 11q-13 1 -19 2l39 119q-83 3 -138.5 25t-84 63t-39 88.5t-10.5 113.5l75 13q0 -48 3 -78.5t15.5 -64.5t36 -53t65.5 -31.5t102 -12.5z" />
    <glyph glyph-name="Scaron" unicode="&#x160;" horiz-adv-x="911" 
d="M209 2150h61l205 -358l205 358h61l-221 -426h-90zM426 47q176 0 252 81t76 278q0 124 -27 194.5t-84.5 109.5t-171.5 72q-41 12 -68.5 21.5t-63 24t-59 31t-50 39t-43 50.5t-31 64t-21 81.5t-6.5 100.5q0 221 81 322.5t275 101.5q63 0 112.5 -11.5t83 -30.5t58 -50
t38.5 -63t21.5 -77t10 -84t2.5 -92l-76 -12q0 50 -1.5 84t-7.5 74t-16 66.5t-28.5 52.5t-45 41t-64.5 24.5t-87 9.5q-146 0 -213 -80.5t-67 -275.5q0 -107 25 -168.5t80 -98.5t163 -69q52 -15 87 -27t75.5 -32t66.5 -42t52.5 -55.5t41.5 -75t24 -97.5t9 -126
q0 -220 -98 -321.5t-305 -101.5q-83 0 -145 21t-99.5 56.5t-60.5 90.5t-31 115t-8 138l76 13q0 -76 5 -127t21.5 -100t45.5 -77.5t77.5 -45.5t118.5 -17z" />
    <glyph glyph-name="scaron" unicode="&#x161;" horiz-adv-x="778" 
d="M369 43q76 0 127 15.5t79 48t39 73t11 99.5q0 54 -13 93t-32 64t-58 45t-73.5 31t-96.5 27q-41 11 -66.5 19t-57.5 22.5t-51 33.5t-37 47t-26 67.5t-8 90.5q0 287 297 287q71 0 122 -13.5t81.5 -37t48 -62t23.5 -79.5t6 -99l-76 -12q0 61 -6.5 99t-27 73t-63 51
t-110.5 16q-116 0 -167.5 -56t-51.5 -165q0 -48 6.5 -79t19.5 -53.5t42.5 -39t64.5 -28.5t97 -27q42 -11 66 -18t60 -21t56.5 -28.5t45 -38t37 -51.5t21.5 -68t9 -88q0 -150 -76 -225.5t-260 -75.5q-74 0 -128 14.5t-86.5 38.5t-51.5 62.5t-26 79.5t-7 95l75 13
q0 -48 3 -78.5t15.5 -64.5t36 -53t65.5 -31.5t102 -12.5zM135 1638h62l204 -358l205 358h62l-222 -426h-90z" />
    <glyph glyph-name="Tcommaaccent" unicode="&#x162;" horiz-adv-x="778" 
d="M377 -410h-55l22 283h90zM426 1530v-1530h-74v1530h-311v67h696v-67h-311z" />
    <glyph glyph-name="tcommaaccent" unicode="&#x163;" horiz-adv-x="612" 
d="M76 1020v65h127v287l73 12v-299h242v-65h-242v-844q0 -76 30.5 -101.5t90.5 -25.5q57 0 101 19l10 -68q-50 -20 -111 -20q-194 0 -194 182v858h-127zM336 -410h-55l22 283h90z" />
    <glyph glyph-name="Tcaron" unicode="&#x164;" horiz-adv-x="778" 
d="M123 2150h61l205 -358l205 358h61l-221 -426h-90zM426 1530v-1530h-74v1530h-311v67h696v-67h-311z" />
    <glyph glyph-name="tcaron" unicode="&#x165;" horiz-adv-x="612" 
d="M76 1020v65h127v287l73 12v-299h242v-65h-242v-844q0 -76 30.5 -101.5t90.5 -25.5q57 0 101 19l10 -68q-50 -20 -111 -20q-194 0 -194 182v858h-127zM432 1212h-43l43 426h86z" />
    <glyph glyph-name="Tbar" unicode="&#x166;" horiz-adv-x="778" 
d="M426 1530v-678h197v-66h-197v-786h-74v786h-198v66h198v678h-311v67h696v-67h-311z" />
    <glyph glyph-name="tbar" unicode="&#x167;" horiz-adv-x="612" 
d="M457 582v-66h-181v-340q0 -76 30.5 -101.5t90.5 -25.5q57 0 101 19l10 -68q-50 -20 -111 -20q-194 0 -194 182v354h-127v66h127v438h-127v65h127v287l73 12v-299h242v-65h-242v-438h181z" />
    <glyph glyph-name="Utilde" unicode="&#x168;" horiz-adv-x="995" 
d="M717 2028l57 -11q-6 -87 -43.5 -135t-101.5 -47q-39 1 -77.5 24.5t-65.5 51t-61.5 51t-64.5 25.5q-44 3 -64 -29.5t-26 -104.5l-57 11q6 87 43.5 135t101.5 47q39 -1 77.5 -24.5t65.5 -51t61.5 -51t64.5 -25.5q44 -3 64 29.5t26 104.5zM498 47q58 0 103 7.5t77.5 21
t55 36.5t36 49t21 64.5t10 76.5t2.5 91v1204h76v-1204q0 -85 -8.5 -145t-33 -113.5t-66.5 -85.5t-110 -50.5t-163 -18.5q-94 0 -162 18.5t-110 50.5t-66.5 85.5t-33.5 113.5t-9 145v1204h76v-1204q0 -53 2.5 -91t10 -76.5t21 -64.5t36 -49t55 -36.5t77.5 -21t103 -7.5z" />
    <glyph glyph-name="utilde" unicode="&#x169;" horiz-adv-x="888" 
d="M717 0l-12 143q-44 -68 -132 -115.5t-204 -47.5q-121 0 -190.5 63t-69.5 156v886h73v-856q0 -80 48.5 -130t150.5 -50q101 0 184.5 46.5t132.5 121.5v868h74v-866l4 -219h-59zM662 1516l57 -11q-6 -87 -44 -135t-102 -47q-32 1 -62.5 16.5t-55.5 37t-48.5 43.5t-50 37.5
t-51.5 17.5q-44 3 -64 -29.5t-26 -104.5l-57 11q6 87 43.5 135t101.5 47q32 -1 62.5 -16.5t55.5 -37t48.5 -43.5t50 -37.5t51.5 -17.5q44 -3 64.5 29.5t26.5 104.5z" />
    <glyph glyph-name="Umacron" unicode="&#x16a;" horiz-adv-x="995" 
d="M301 1939v66h393v-66h-393zM498 47q58 0 103 7.5t77.5 21t55 36.5t36 49t21 64.5t10 76.5t2.5 91v1204h76v-1204q0 -85 -8.5 -145t-33 -113.5t-66.5 -85.5t-110 -50.5t-163 -18.5q-94 0 -162 18.5t-110 50.5t-66.5 85.5t-33.5 113.5t-9 145v1204h76v-1204q0 -53 2.5 -91
t10 -76.5t21 -64.5t36 -49t55 -36.5t77.5 -21t103 -7.5z" />
    <glyph glyph-name="umacron" unicode="&#x16b;" horiz-adv-x="888" 
d="M717 0l-12 143q-44 -68 -132 -115.5t-204 -47.5q-121 0 -190.5 63t-69.5 156v886h73v-856q0 -80 48.5 -130t150.5 -50q101 0 184.5 46.5t132.5 121.5v868h74v-866l4 -219h-59zM246 1427v66h393v-66h-393z" />
    <glyph glyph-name="Ubreve" unicode="&#x16c;" horiz-adv-x="995" 
d="M698 2150h62q0 -79 -5 -134.5t-21 -110t-44 -87.5t-76 -53t-116 -20t-116 20t-76 53t-44 87.5t-21 110t-5 134.5h61q0 -72 4.5 -122.5t17 -94.5t35 -70t58.5 -40.5t86 -14.5t86 14.5t58 40.5t34.5 70t17 94.5t4.5 122.5zM498 47q58 0 103 7.5t77.5 21t55 36.5t36 49
t21 64.5t10 76.5t2.5 91v1204h76v-1204q0 -85 -8.5 -145t-33 -113.5t-66.5 -85.5t-110 -50.5t-163 -18.5q-94 0 -162 18.5t-110 50.5t-66.5 85.5t-33.5 113.5t-9 145v1204h76v-1204q0 -53 2.5 -91t10 -76.5t21 -64.5t36 -49t55 -36.5t77.5 -21t103 -7.5z" />
    <glyph glyph-name="ubreve" unicode="&#x16d;" horiz-adv-x="888" 
d="M717 0l-12 143q-44 -68 -132 -115.5t-204 -47.5q-121 0 -190.5 63t-69.5 156v886h73v-856q0 -80 48.5 -130t150.5 -50q101 0 184.5 46.5t132.5 121.5v868h74v-866l4 -219h-59zM643 1638h62q0 -79 -5 -134.5t-21 -110t-44.5 -87.5t-76.5 -53t-116 -20t-116 20t-76 53
t-44 87.5t-21 110t-5 134.5h62q0 -72 4.5 -122.5t17 -94.5t34.5 -70t58 -40.5t86 -14.5t86 14.5t58.5 40.5t35 70t17 94.5t4.5 122.5z" />
    <glyph glyph-name="Uring" unicode="&#x16e;" horiz-adv-x="995" 
d="M264 1937q0 103 63 168.5t171 65.5t170.5 -65t62.5 -169q0 -103 -62.5 -168t-170.5 -65t-171 65t-63 168zM668 1937q0 83 -44 130t-126 47t-126 -47t-44 -130t44 -129.5t126 -46.5t126 46.5t44 129.5zM498 47q58 0 103 7.5t77.5 21t55 36.5t36 49t21 64.5t10 76.5t2.5 91
v1204h76v-1204q0 -85 -8.5 -145t-33 -113.5t-66.5 -85.5t-110 -50.5t-163 -18.5q-94 0 -162 18.5t-110 50.5t-66.5 85.5t-33.5 113.5t-9 145v1204h76v-1204q0 -53 2.5 -91t10 -76.5t21 -64.5t36 -49t55 -36.5t77.5 -21t103 -7.5z" />
    <glyph glyph-name="uring" unicode="&#x16f;" horiz-adv-x="888" 
d="M717 0l-12 143q-44 -68 -132 -115.5t-204 -47.5q-121 0 -190.5 63t-69.5 156v886h73v-856q0 -80 48.5 -130t150.5 -50q101 0 184.5 46.5t132.5 121.5v868h74v-866l4 -219h-59zM209 1425q0 104 62.5 169t170.5 65t171 -65.5t63 -168.5t-63 -168t-171 -65t-170.5 65
t-62.5 168zM612 1425q0 83 -44 130t-126 47t-126 -47t-44 -130t44 -129.5t126 -46.5t126 46.5t44 129.5z" />
    <glyph glyph-name="Uhungarumlaut" unicode="&#x170;" horiz-adv-x="995" 
d="M498 47q58 0 103 7.5t77.5 21t55 36.5t36 49t21 64.5t10 76.5t2.5 91v1204h76v-1204q0 -85 -8.5 -145t-33 -113.5t-66.5 -85.5t-110 -50.5t-163 -18.5q-94 0 -162 18.5t-110 50.5t-66.5 85.5t-33.5 113.5t-9 145v1204h76v-1204q0 -53 2.5 -91t10 -76.5t21 -64.5t36 -49
t55 -36.5t77.5 -21t103 -7.5zM469 2150h78l-123 -426h-59zM674 2150h78l-123 -426h-60z" />
    <glyph glyph-name="uhungarumlaut" unicode="&#x171;" horiz-adv-x="888" 
d="M717 0l-12 143q-44 -68 -132 -115.5t-204 -47.5q-121 0 -190.5 63t-69.5 156v886h73v-856q0 -80 48.5 -130t150.5 -50q101 0 184.5 46.5t132.5 121.5v868h74v-866l4 -219h-59zM412 1638h77l-122 -426h-60zM616 1638h78l-123 -426h-59z" />
    <glyph glyph-name="Uogonek" unicode="&#x172;" horiz-adv-x="995" 
d="M498 47q58 0 103 7.5t77.5 21t55 36.5t36 49t21 64.5t10 76.5t2.5 91v1204h76v-1204q0 -85 -9.5 -146t-33 -113.5t-68 -85.5t-111.5 -50q-168 -61 -168 -236q0 -68 36 -99.5t87 -31.5q66 0 127 45l21 -57q-64 -49 -156 -49q-70 0 -126 44.5t-56 137.5q0 144 102 228h-26
q-94 0 -162 18.5t-110 50.5t-66.5 85.5t-33.5 113.5t-9 145v1204h76v-1204q0 -53 2.5 -91t10 -76.5t21 -64.5t36 -49t55 -36.5t77.5 -21t103 -7.5z" />
    <glyph glyph-name="uogonek" unicode="&#x173;" horiz-adv-x="888" 
d="M772 219l4 -219q-180 -58 -180 -238q0 -68 36 -99.5t87 -31.5q66 0 127 45l20 -57q-64 -49 -155 -49q-70 0 -126.5 44.5t-56.5 137.5q0 95 44 163.5t141 117.5l-8 110q-44 -68 -132 -115.5t-204 -47.5q-121 0 -190.5 63t-69.5 156v886h73v-856q0 -80 48.5 -130t150.5 -50
q101 0 184.5 46.5t132.5 121.5v868h74v-866z" />
    <glyph glyph-name="Wcircumflex" unicode="&#x174;" horiz-adv-x="1294" 
d="M903 1724h-59l-197 365l-196 -365h-60l213 426h86zM909 -20l-262 1527l-262 -1527h-100l-203 1617h74l182 -1511l256 1511h106l256 -1511l183 1511h73l-202 -1617h-101z" />
    <glyph glyph-name="wcircumflex" unicode="&#x175;" horiz-adv-x="1187" 
d="M649 1085l223 -1015l154 1015h76l-178 -1105h-97l-233 1038l-234 -1038h-96l-178 1105h76l153 -1015l224 1015h110zM850 1212h-59l-197 365l-197 -365h-59l213 426h86z" />
    <glyph glyph-name="Ycircumflex" unicode="&#x176;" horiz-adv-x="962" 
d="M737 1724h-59l-197 365l-196 -365h-60l213 426h86zM481 721l342 876h82l-389 -970l2 -627h-74l2 627l-389 970h82z" />
    <glyph glyph-name="ycircumflex" unicode="&#x177;" horiz-adv-x="839" 
d="M420 125l270 960h78l-293 -1007l-153 -488h-82l141 430l-309 1065h78zM676 1212h-60l-196 365l-197 -365h-59l213 426h86z" />
    <glyph glyph-name="Ydieresis" unicode="&#x178;" horiz-adv-x="962" 
d="M373 2028v-111h-111v111h111zM700 2028v-111h-110v111h110zM481 721l342 876h82l-389 -970l2 -627h-74l2 627l-389 970h82z" />
    <glyph glyph-name="Zacute" unicode="&#x179;" horiz-adv-x="913" 
d="M530 2150h78l-123 -426h-59zM68 0v57l546 1200l131 277l-348 -2h-309v65h737v-57l-546 -1200l-132 -277l349 3h350v-66h-778z" />
    <glyph glyph-name="zacute" unicode="&#x17a;" horiz-adv-x="798" 
d="M82 0v63l532 957h-510v65h590v-63l-532 -956l555 2v-68h-635zM473 1638h78l-123 -426h-59z" />
    <glyph glyph-name="Zdotaccent" unicode="&#x17b;" horiz-adv-x="913" 
d="M512 2028v-111h-111v111h111zM68 0v57l546 1200l131 277l-348 -2h-309v65h737v-57l-546 -1200l-132 -277l349 3h350v-66h-778z" />
    <glyph glyph-name="zdotaccent" unicode="&#x17c;" horiz-adv-x="798" 
d="M82 0v63l532 957h-510v65h590v-63l-532 -956l555 2v-68h-635zM455 1516v-111h-111v111h111z" />
    <glyph glyph-name="Zcaron" unicode="&#x17d;" horiz-adv-x="913" 
d="M190 2150h62l205 -358l205 358h61l-221 -426h-90zM68 0v57l546 1200l131 277l-348 -2h-309v65h737v-57l-546 -1200l-132 -277l349 3h350v-66h-778z" />
    <glyph glyph-name="zcaron" unicode="&#x17e;" horiz-adv-x="798" 
d="M82 0v63l532 957h-510v65h590v-63l-532 -956l555 2v-68h-635zM133 1638h62l204 -358l205 358h62l-222 -426h-90z" />
    <glyph glyph-name="florin" unicode="&#x192;" horiz-adv-x="614" 
d="M61 784v70h172v553q0 178 209 178q65 0 115 -20l-10 -70q-49 21 -105 21q-68 0 -99.5 -23.5t-31.5 -99.5v-539h217v-70h-217v-1036q0 -178 -209 -178q-68 0 -118 20l10 70q47 -20 104 -20q69 0 102 23.5t33 98.5v1022h-172z" />
    <glyph glyph-name="Scommaaccent" unicode="&#x218;" horiz-adv-x="911" 
d="M428 -410h-55l22 283h90zM426 47q176 0 252 81t76 278q0 124 -27 194.5t-84.5 109.5t-171.5 72q-41 12 -68.5 21.5t-63 24t-59 31t-50 39t-43 50.5t-31 64t-21 81.5t-6.5 100.5q0 221 81 322.5t275 101.5q63 0 112.5 -11.5t83 -30.5t58 -50t38.5 -63t21.5 -77t10 -84
t2.5 -92l-76 -12q0 50 -1.5 84t-7.5 74t-16 66.5t-28.5 52.5t-45 41t-64.5 24.5t-87 9.5q-146 0 -213 -80.5t-67 -275.5q0 -107 25 -168.5t80 -98.5t163 -69q52 -15 87 -27t75.5 -32t66.5 -42t52.5 -55.5t41.5 -75t24 -97.5t9 -126q0 -220 -98 -321.5t-305 -101.5
q-83 0 -145 21t-99.5 56.5t-60.5 90.5t-31 115t-8 138l76 13q0 -76 5 -127t21.5 -100t45.5 -77.5t77.5 -45.5t118.5 -17z" />
    <glyph glyph-name="scommaaccent" unicode="&#x219;" horiz-adv-x="778" 
d="M369 43q76 0 127 15.5t79 48t39 73t11 99.5q0 54 -13 93t-32 64t-58 45t-73.5 31t-96.5 27q-41 11 -66.5 19t-57.5 22.5t-51 33.5t-37 47t-26 67.5t-8 90.5q0 287 297 287q71 0 122 -13.5t81.5 -37t48 -62t23.5 -79.5t6 -99l-76 -12q0 61 -6.5 99t-27 73t-63 51
t-110.5 16q-116 0 -167.5 -56t-51.5 -165q0 -48 6.5 -79t19.5 -53.5t42.5 -39t64.5 -28.5t97 -27q42 -11 66 -18t60 -21t56.5 -28.5t45 -38t37 -51.5t21.5 -68t9 -88q0 -150 -76 -225.5t-260 -75.5q-74 0 -128 14.5t-86.5 38.5t-51.5 62.5t-26 79.5t-7 95l75 13
q0 -48 3 -78.5t15.5 -64.5t36 -53t65.5 -31.5t102 -12.5zM377 -410h-55l22 283h90z" />
    <glyph glyph-name="dotlessj" unicode="&#x237;" horiz-adv-x="315" 
d="M195 1085v-1333q0 -88 -45 -135t-148 -47q-61 0 -111 20l11 70q42 -18 100 -18q60 0 89.5 25.5t29.5 101.5v1316h74z" />
    <glyph glyph-name="circumflex" unicode="&#x2c6;" horiz-adv-x="1269" 
d="M891 1212h-60l-196 365l-197 -365h-59l213 426h86z" />
    <glyph glyph-name="caron" unicode="&#x2c7;" horiz-adv-x="1269" 
d="M369 1638h61l205 -358l205 358h61l-221 -426h-90z" />
    <glyph glyph-name="breve" unicode="&#x2d8;" horiz-adv-x="1269" 
d="M836 1638h61q0 -79 -5 -134.5t-21 -110t-44 -87.5t-76 -53t-116 -20t-116 20t-76 53t-44 87.5t-21 110t-5 134.5h61q0 -72 4.5 -122.5t17 -94.5t35 -70t58.5 -40.5t86 -14.5t86 14.5t58.5 40.5t35 70t17 94.5t4.5 122.5z" />
    <glyph glyph-name="dotaccent" unicode="&#x2d9;" horiz-adv-x="1269" 
d="M690 1516v-111h-110v111h110z" />
    <glyph glyph-name="ring" unicode="&#x2da;" horiz-adv-x="1269" 
d="M401 1425q0 103 63 168.5t171 65.5t170.5 -65t62.5 -169q0 -103 -62.5 -168t-170.5 -65t-171 65t-63 168zM805 1425q0 83 -44 130t-126 47t-126 -47t-44 -130t44 -129.5t126 -46.5t126 46.5t44 129.5z" />
    <glyph glyph-name="ogonek" unicode="&#x2db;" horiz-adv-x="1269" 
d="M1032 51l25 -51q-180 -58 -180 -238q0 -68 35.5 -99.5t86.5 -31.5q66 0 127 45l21 -57q-64 -49 -156 -49q-70 0 -126 44.5t-56 137.5q0 103 52.5 175t170.5 124z" />
    <glyph glyph-name="tilde" unicode="&#x2dc;" horiz-adv-x="1269" 
d="M854 1516l57 -11q-6 -87 -43.5 -135t-101.5 -47q-32 1 -62.5 16.5t-55.5 37t-48.5 43.5t-50 37.5t-51.5 17.5q-44 3 -64 -29.5t-26 -104.5l-58 11q6 87 44 135t102 47q32 -1 62.5 -16.5t55.5 -37t48.5 -43.5t50 -37.5t51.5 -17.5q44 -3 64 29.5t26 104.5z" />
    <glyph glyph-name="hungarumlaut" unicode="&#x2dd;" horiz-adv-x="1269" 
d="M606 1638h78l-123 -426h-59zM811 1638h78l-123 -426h-59z" />
    <glyph glyph-name="pi" unicode="&#x3c0;" horiz-adv-x="1044" 
d="M76 1085h864v-65h-221v-844q0 -76 30.5 -101.5t90.5 -25.5q56 0 100 19l10 -68q-50 -20 -110 -20q-195 0 -195 182v858h-328v-877l-12 -143h-65l4 219v801h-168v65z" />
    <glyph glyph-name="uni0E3F" unicode="&#xe3f;" horiz-adv-x="944" 
d="M479 1556v-208h43q142 0 212.5 -75t70.5 -216q0 -104 -49.5 -166t-116.5 -76q41 -6 75 -22.5t64 -47.5t47 -84.5t17 -125.5q0 -68 -17.5 -123t-56 -100t-106 -70t-160.5 -25h-23v-217h-73v217h-283v1131h283v208h73zM514 776h-35v-491h6q157 0 219 63t62 187
q0 74 -17 122.5t-52 74t-78 35t-105 9.5zM197 285h209v491h-209v-491zM518 1280h-39v-434h31q106 0 161.5 54.5t55.5 158.5q0 117 -51.5 169t-157.5 52zM197 1280v-434h209v434h-209z" />
    <glyph glyph-name="enspace" unicode="&#x2002;" horiz-adv-x="1024" 
 />
    <glyph glyph-name="emspace" unicode="&#x2003;" horiz-adv-x="2048" 
 />
    <glyph glyph-name="threeperemspace" unicode="&#x2004;" horiz-adv-x="681" 
 />
    <glyph glyph-name="fourperemspace" unicode="&#x2005;" horiz-adv-x="512" 
 />
    <glyph glyph-name="sixperemspace" unicode="&#x2006;" horiz-adv-x="342" 
 />
    <glyph glyph-name="figurespace" unicode="&#x2007;" horiz-adv-x="1433" 
 />
    <glyph glyph-name="punctuationspace" unicode="&#x2008;" horiz-adv-x="573" 
 />
    <glyph glyph-name="thinspace" unicode="&#x2009;" horiz-adv-x="409" 
 />
    <glyph glyph-name="hairspace" unicode="&#x200a;" horiz-adv-x="204" 
 />
    <glyph glyph-name="zerowidthspace" unicode="&#x200b;" horiz-adv-x="0" 
 />
    <glyph glyph-name="figuredash" unicode="&#x2012;" horiz-adv-x="1474" 
d="M1352 651h-1229v70h1229v-70z" />
    <glyph glyph-name="endash" unicode="&#x2013;" horiz-adv-x="1064" 
d="M942 651h-819v70h819v-70z" />
    <glyph glyph-name="emdash" unicode="&#x2014;" horiz-adv-x="2088" 
d="M1966 721v-70h-1843v70h1843z" />
    <glyph glyph-name="uni2015" unicode="&#x2015;" horiz-adv-x="2908" 
d="M2785 721v-70h-2662v70h2662z" />
    <glyph glyph-name="doublebar" unicode="&#x2016;" horiz-adv-x="700" 
d="M313 1700v-1966h-73v1966h73zM461 1700v-1966h-74v1966h74z" />
    <glyph glyph-name="quoteleft" unicode="&#x2018;" horiz-adv-x="296" 
d="M166 1085h-111l103 512h43z" />
    <glyph glyph-name="quoteright" unicode="&#x2019;" horiz-adv-x="296" 
d="M131 1597h111l-103 -512h-43z" />
    <glyph glyph-name="quotesinglbase" unicode="&#x201a;" horiz-adv-x="296" 
d="M131 176h111l-103 -512h-43z" />
    <glyph glyph-name="reversequoteleft" unicode="&#x201b;" horiz-adv-x="296" 
d="M55 1597h111l35 -512h-43z" />
    <glyph glyph-name="quotedblleft" unicode="&#x201c;" horiz-adv-x="501" 
d="M166 1085h-111l103 512h43zM371 1085h-111l102 512h44z" />
    <glyph glyph-name="quotedblright" unicode="&#x201d;" horiz-adv-x="501" 
d="M131 1597h111l-103 -512h-43zM336 1597h110l-102 -512h-43z" />
    <glyph glyph-name="quotedblbase" unicode="&#x201e;" horiz-adv-x="501" 
d="M131 176h111l-103 -512h-43zM336 176h110l-102 -512h-43z" />
    <glyph glyph-name="reversequotedblleft" unicode="&#x201f;" horiz-adv-x="501" 
d="M260 1597h111l35 -512h-44zM55 1597h111l35 -512h-43z" />
    <glyph glyph-name="dagger" unicode="&#x2020;" horiz-adv-x="655" 
d="M631 1331v-74l-289 21l37 -479h-103l35 479l-286 -21v74l286 -22l-20 288h74l-23 -288z" />
    <glyph glyph-name="daggerdbl" unicode="&#x2021;" horiz-adv-x="655" 
d="M631 1001v-73l-289 20l37 -479h-103l35 479l-286 -20v73l286 -22l-10 149l10 150l-286 -21v74l286 -22l-20 288h74l-23 -288l289 22v-74l-289 21l12 -150l-12 -149z" />
    <glyph glyph-name="bullet" unicode="&#x2022;" horiz-adv-x="798" 
d="M664 950v-528h-529v528h529z" />
    <glyph glyph-name="ellipsis" unicode="&#x2026;" horiz-adv-x="2088" 
d="M424 111v-111h-111v111h111zM1100 111v-111h-111v111h111zM1776 111v-111h-111v111h111z" />
    <glyph glyph-name="perthousand" unicode="&#x2030;" horiz-adv-x="2088" 
d="M1178 1565l-799 -1565h-82l799 1565h82zM1128 764q-73 0 -111.5 -30.5t-55.5 -106.5t-17 -221t17 -221t55.5 -107t111.5 -31t111.5 31t56 107.5t17.5 220.5t-17.5 220.5t-56 107t-111.5 30.5zM1128 -20q-97 0 -152 38t-81.5 130.5t-26.5 257.5t26.5 257.5t81.5 130
t152 37.5t152 -37.5t82 -130t27 -257.5t-27 -257.5t-82 -130.5t-152 -38zM346 801q73 0 111.5 30.5t55.5 106.5t17 221t-17 221t-55.5 107t-111.5 31t-111.5 -31t-55.5 -107t-17 -221t17 -221t55.5 -106.5t111.5 -30.5zM346 1585q97 0 152 -38t81.5 -130.5t26.5 -257.5
t-26.5 -257.5t-81.5 -130.5t-152 -38t-152 38t-81.5 130.5t-26.5 257.5t26.5 257.5t81.5 130.5t152 38zM1743 764q-73 0 -111.5 -30.5t-55.5 -106.5t-17 -221t17 -221t55.5 -107t111.5 -31t111.5 31t55.5 107t17 221t-17 221t-55.5 106.5t-111.5 30.5zM1743 -20
q-97 0 -152 38t-81.5 130.5t-26.5 257.5t26.5 257.5t81.5 130t152 37.5t152 -37.5t81.5 -130t26.5 -257.5t-26.5 -257.5t-81.5 -130.5t-152 -38z" />
    <glyph glyph-name="minute" unicode="&#x2032;" horiz-adv-x="348" 
d="M123 1597h102l-26 -512h-49z" />
    <glyph glyph-name="second" unicode="&#x2033;" horiz-adv-x="532" 
d="M123 1597h102l-53 -512h-49v512zM307 1597h103l-54 -512h-49v512z" />
    <glyph glyph-name="tripleprime" unicode="&#x2034;" horiz-adv-x="716" 
d="M123 1597h102l-26 -512h-49zM307 1597h103l-27 -512h-49zM492 1597h102l-27 -512h-49z" />
    <glyph glyph-name="guilsinglleft" unicode="&#x2039;" horiz-adv-x="655" 
d="M532 1004v-84l-342 -275l342 -274v-84l-426 329v58z" />
    <glyph glyph-name="guilsinglright" unicode="&#x203a;" horiz-adv-x="655" 
d="M123 287v84l342 274l-342 275v84l426 -330v-58z" />
    <glyph glyph-name="fraction" unicode="&#x2044;" horiz-adv-x="409" 
d="M645 1565l-799 -1565h-82l799 1565h82z" />
    <glyph glyph-name="uni2070" unicode="&#x2070;" horiz-adv-x="632" 
d="M315 813q69 0 101 27t45.5 99.5t13.5 227.5q0 156 -13.5 230t-46 101.5t-100.5 27.5q-67 0 -99 -27t-45 -100t-13 -228q0 -157 13 -230.5t44.5 -100.5t99.5 -27zM315 1587q95 0 142.5 -33.5t68.5 -121.5t21 -263q0 -176 -21 -264t-68.5 -121.5t-142.5 -33.5
q-71 0 -113 16t-69.5 64t-37 127t-9.5 212q0 176 20 263t67 121t142 34z" />
    <glyph glyph-name="uni2074" unicode="&#x2074;" horiz-adv-x="604" 
d="M526 954h-96v-194h-65v194h-287v64l270 569h82v-571h96v-62zM365 1016l4 475l-226 -477z" />
    <glyph glyph-name="uni2075" unicode="&#x2075;" horiz-adv-x="591" 
d="M289 811q76 0 111.5 52.5t35.5 160.5q0 117 -32.5 165t-96.5 48q-85 0 -131 -80l-63 12l16 408h356v-64h-295l-12 -286q53 69 144 69t136.5 -60.5t45.5 -211.5q0 -140 -52.5 -207t-164.5 -67q-106 0 -151.5 50t-45.5 169l70 10q2 -96 28.5 -132t100.5 -36z" />
    <glyph glyph-name="uni2076" unicode="&#x2076;" horiz-adv-x="618" 
d="M319 1528q-35 0 -60 -8.5t-42 -30t-27.5 -48t-16 -71.5t-7.5 -91.5t-2 -117.5q61 119 192 119q88 0 129 -63t41 -201q0 -136 -48.5 -201t-164.5 -65q-132 0 -176.5 88t-44.5 331q0 95 5.5 159t20 116.5t40.5 82t66 45t98 15.5q97 0 144.5 -42t47.5 -136l-70 -12
q0 72 -32.5 101.5t-92.5 29.5zM330 1219q-57 0 -94.5 -33.5t-71.5 -100.5q0 -158 33 -216t114 -58q79 0 112.5 46t33.5 157q0 112 -31 158.5t-96 46.5z" />
    <glyph glyph-name="uni2077" unicode="&#x2077;" horiz-adv-x="569" 
d="M244 760h-74l186 598l54 158l-123 -3h-195v64h387v-47z" />
    <glyph glyph-name="uni2078" unicode="&#x2078;" horiz-adv-x="593" 
d="M297 1526q-73 0 -103 -35.5t-30 -126.5q0 -85 34.5 -120.5t98.5 -35.5t98.5 35.5t34.5 120.5q0 91 -30 126.5t-103 35.5zM297 1149q-71 0 -108 -37.5t-37 -134.5q0 -87 35.5 -126.5t109.5 -39.5t109.5 39.5t35.5 126.5q0 97 -37 134.5t-108 37.5zM297 750
q-215 0 -215 219q0 57 11 97.5t31.5 63t37 33t39.5 19.5q-45 12 -76 59.5t-31 128.5q0 118 47 167.5t156 49.5t156 -49.5t47 -167.5q0 -81 -30.5 -128.5t-74.5 -59.5q23 -9 38.5 -19.5t36 -33t31.5 -63.5t11 -97q0 -219 -215 -219z" />
    <glyph glyph-name="uni2079" unicode="&#x2079;" horiz-adv-x="618" 
d="M293 811q101 0 131.5 78t30.5 287q-61 -119 -191 -119q-88 0 -130 63.5t-42 200.5t48 201.5t167 64.5q130 0 174.5 -88.5t44.5 -329.5q0 -235 -47.5 -327t-187.5 -92q-97 0 -147 42.5t-50 137.5l70 10q0 -71 34.5 -100t94.5 -29zM289 1120q57 0 95 32.5t71 98.5
q0 158 -34.5 217.5t-113.5 59.5q-78 0 -110.5 -46.5t-32.5 -158.5t30 -157.5t95 -45.5z" />
    <glyph glyph-name="uni207A" unicode="&#x207a;" horiz-adv-x="819" 
d="M375 881v272h-273v70h273v272h69v-272h273v-70h-273v-272h-69z" />
    <glyph glyph-name="uni207B" unicode="&#x207b;" horiz-adv-x="819" 
d="M717 1153h-615v70h615v-70z" />
    <glyph glyph-name="uni207C" unicode="&#x207c;" horiz-adv-x="819" 
d="M717 1030h-615v70h615v-70zM717 1276h-615v70h615v-70z" />
    <glyph glyph-name="uni207D" unicode="&#x207d;" horiz-adv-x="471" 
d="M238 1161q0 -127 31.5 -267.5t78.5 -250.5h-78q-116 245 -116 518t116 518h78q-47 -110 -78.5 -250.5t-31.5 -267.5z" />
    <glyph glyph-name="uni207E" unicode="&#x207e;" horiz-adv-x="471" 
d="M233 1161q0 127 -31.5 267.5t-78.5 250.5h78q116 -245 116 -518t-116 -518h-78q47 110 78.5 250.5t31.5 267.5z" />
    <glyph glyph-name="uni2080" unicode="&#x2080;" horiz-adv-x="632" 
d="M315 53q69 0 101 27t45.5 100t13.5 228q0 156 -13.5 229.5t-45.5 101t-101 27.5q-68 0 -99.5 -27t-44.5 -99.5t-13 -227.5q0 -157 13 -230.5t44.5 -101t99.5 -27.5zM315 827q95 0 142.5 -33.5t68.5 -121t21 -262.5q0 -176 -21 -264.5t-68.5 -122t-142.5 -33.5t-142 34
t-67 121.5t-20 264.5q0 176 20 263t67 120.5t142 33.5z" />
    <glyph glyph-name="uni2081" unicode="&#x2081;" horiz-adv-x="507" 
d="M428 0h-324v63h125v660q-50 -63 -135 -105v68q77 42 146 141h57v-764h131v-63z" />
    <glyph glyph-name="uni2082" unicode="&#x2082;" horiz-adv-x="612" 
d="M303 766q-76 0 -104.5 -37t-28.5 -119l-70 11q2 105 44 155.5t159 50.5q115 0 157 -52.5t42 -168.5q0 -50 -10.5 -86t-38 -66.5t-55.5 -51t-81 -54.5q-54 -34 -84 -60.5t-46 -61.5t-19.5 -68t-3.5 -95h356v-63h-430q0 68 2 112t11 83t20 62.5t35.5 49t51.5 44.5t73 48
q92 58 121.5 98.5t29.5 106.5q0 89 -27 125.5t-104 36.5z" />
    <glyph glyph-name="uni2083" unicode="&#x2083;" horiz-adv-x="606" 
d="M295 51q79 0 115 39.5t36 126.5q0 53 -12 89t-33 52.5t-41.5 22.5t-46.5 6h-84v66h84q52 0 85.5 31t33.5 122q0 89 -29 124.5t-106 35.5q-75 0 -104 -39t-29 -123l-68 8q0 107 43 161t158 54q114 0 159.5 -47.5t45.5 -167.5q0 -157 -105 -190q121 -33 121 -211
q0 -110 -53 -165.5t-172 -55.5q-115 0 -160 56.5t-45 160.5l68 10q0 -81 29.5 -123.5t109.5 -42.5z" />
    <glyph glyph-name="uni2084" unicode="&#x2084;" horiz-adv-x="604" 
d="M526 195h-96v-195h-65v195h-287v63l270 569h82v-571h96v-61zM365 256l4 475l-226 -477z" />
    <glyph glyph-name="uni2085" unicode="&#x2085;" horiz-adv-x="591" 
d="M289 51q76 0 111.5 52.5t35.5 160.5q0 117 -32.5 165t-96.5 48q-85 0 -131 -80l-63 13l16 407h356v-63h-295l-12 -287q54 70 144 70t136 -61t46 -212q0 -140 -52.5 -207t-164.5 -67q-106 0 -151.5 50t-45.5 169l70 10q2 -96 28.5 -132t100.5 -36z" />
    <glyph glyph-name="uni2086" unicode="&#x2086;" horiz-adv-x="618" 
d="M319 768q-35 0 -60 -8.5t-42 -30t-27.5 -48t-16 -71.5t-7.5 -91.5t-2 -117.5q61 119 192 119q88 0 129 -63t41 -201q0 -136 -48.5 -201t-164.5 -65q-132 0 -176.5 88.5t-44.5 331.5q0 95 5.5 159t20 116.5t40.5 81.5t66 44.5t98 15.5q97 0 144.5 -42t47.5 -136l-70 -12
q0 72 -32.5 101.5t-92.5 29.5zM330 459q-57 0 -95 -33t-71 -100q0 -108 15.5 -168t46.5 -83.5t85 -23.5q79 0 112.5 46t33.5 157q0 112 -31 158.5t-96 46.5z" />
    <glyph glyph-name="uni2087" unicode="&#x2087;" horiz-adv-x="569" 
d="M244 0h-74l186 598l54 158l-123 -2h-195v63h387v-47z" />
    <glyph glyph-name="uni2088" unicode="&#x2088;" horiz-adv-x="593" 
d="M297 766q-73 0 -103 -35.5t-30 -126.5q0 -85 34.5 -120t98.5 -35t98.5 35t34.5 120q0 91 -30 126.5t-103 35.5zM297 389q-71 0 -108 -37.5t-37 -134.5q0 -87 35.5 -126.5t109.5 -39.5t109.5 39.5t35.5 126.5q0 97 -37 134.5t-108 37.5zM297 -10q-215 0 -215 219
q0 57 11 97.5t31.5 63t37 33t39.5 19.5q-45 12 -76 59.5t-31 128.5q0 118 47 167.5t156 49.5t156 -49.5t47 -167.5q0 -81 -30.5 -128.5t-74.5 -59.5q23 -9 38.5 -19.5t36 -33t31.5 -63.5t11 -97q0 -219 -215 -219z" />
    <glyph glyph-name="uni2089" unicode="&#x2089;" horiz-adv-x="618" 
d="M293 51q101 0 131.5 78t30.5 287q-61 -119 -191 -119q-88 0 -130 63.5t-42 200.5t48 201.5t167 64.5q130 0 174.5 -88.5t44.5 -328.5q0 -235 -47.5 -327.5t-187.5 -92.5q-97 0 -147 42.5t-50 137.5l70 10q0 -71 34.5 -100t94.5 -29zM289 360q57 0 95 33t71 99
q0 158 -34.5 217t-113.5 59q-78 0 -110.5 -46.5t-32.5 -158.5t30 -157.5t95 -45.5z" />
    <glyph glyph-name="uni208A" unicode="&#x208a;" horiz-adv-x="819" 
d="M375 123v272h-273v70h273v272h69v-272h273v-70h-273v-272h-69z" />
    <glyph glyph-name="uni208B" unicode="&#x208b;" horiz-adv-x="819" 
d="M717 395h-615v70h615v-70z" />
    <glyph glyph-name="uni208C" unicode="&#x208c;" horiz-adv-x="819" 
d="M717 272h-615v70h615v-70zM717 518h-615v70h615v-70z" />
    <glyph glyph-name="uni208D" unicode="&#x208d;" horiz-adv-x="471" 
d="M238 403q0 -127 31.5 -267.5t78.5 -250.5h-78q-116 245 -116 518q0 274 116 519h78q-47 -109 -78.5 -250.5t-31.5 -268.5z" />
    <glyph glyph-name="uni208E" unicode="&#x208e;" horiz-adv-x="471" 
d="M233 403q0 127 -31.5 268.5t-78.5 250.5h78q116 -245 116 -519q0 -273 -116 -518h-78q47 110 78.5 250.5t31.5 267.5z" />
    <glyph glyph-name="uni20A1" unicode="&#x20a1;" horiz-adv-x="948" 
d="M797 1659l-35 -143q57 -48 79.5 -133t22.5 -214l-76 -12q0 196 -49 268l-329 -1366q39 -10 104 -10q86 0 140 20t83.5 67.5t40 109.5t10.5 162l76 -13q1 -106 -13.5 -178t-52 -128t-108 -82.5t-176.5 -26.5q-68 0 -121 12l-20 -86h-68l25 104q-31 13 -56 31l-32 -135h-68
l45 188q-65 86 -91 248.5t-26 439.5q0 188 11 315t37.5 225.5t74.5 153.5t117.5 82t171.5 27q46 0 66 -2l18 76h68l-23 -88q27 -5 59 -19l27 107h68zM178 782q0 -227 14 -365t52 -220l319 1316q-8 0 -24.5 1.5t-24.5 1.5q-63 0 -110.5 -13t-83.5 -38t-60.5 -69.5t-41 -98.5
t-25 -135.5t-12 -169t-3.5 -210.5zM686 1479q-24 15 -59 24l-334 -1380q27 -27 55 -41z" />
    <glyph glyph-name="uni20A2" unicode="&#x20a2;" horiz-adv-x="948" 
d="M791 893q-138 0 -244 -178v-666q75 4 123 26t74 69.5t35 108t9 155.5l76 -13q1 -106 -13.5 -178t-52 -128t-108 -82.5t-176.5 -26.5q-85 0 -147 17t-108.5 58t-76 100.5t-48 152.5t-25.5 205.5t-7 268.5q0 188 11 315t37.5 225.5t74.5 153.5t117.5 82t171.5 27
q106 0 176.5 -26.5t108 -83t52 -128.5t13.5 -178l-76 -12q0 100 -10.5 162t-40 109.5t-83.5 67.5t-140 20q-63 0 -110.5 -13t-83.5 -38t-60.5 -69.5t-41 -98.5t-25 -135.5t-12 -169t-3.5 -210.5q0 -136 4 -231t16 -181t32.5 -140t53.5 -95.5t79 -61t110 -24.5v674l-4 219h59
l13 -143q44 74 106.5 119t136.5 45q43 0 80 -13l-6 -65q-24 8 -67 8z" />
    <glyph glyph-name="franc" unicode="&#x20a3;" horiz-adv-x="888" 
d="M90 690h166v184h-166v66h166v625h569v-68h-495v-557h364v-66h-364v-184h364v-65h-364v-625h-74v625h-166v65z" />
    <glyph glyph-name="lira" unicode="&#x20a4;" horiz-adv-x="1013" 
d="M694 588h-360v-516h608v-72h-852v72h166v516h-166v65h166v187h-166v65h166v291q0 56 2.5 96t10.5 83.5t22.5 73t39 57.5t59.5 44t85.5 25.5t114.5 9.5t114 -9.5t85 -25.5t59.5 -44t39 -57t22 -73t10 -83.5t2.5 -96.5l-76 -12q0 55 -1.5 91t-7.5 75t-17 62.5t-29.5 46
t-46 34t-65.5 18.5t-89 7t-89 -7t-65.5 -18.5t-46 -34t-29.5 -46t-17 -62.5t-7.5 -75t-1.5 -91v-279h360v-65h-360v-187h360v-65z" />
    <glyph glyph-name="uni20A6" unicode="&#x20a6;" horiz-adv-x="1214" 
d="M90 690h166v184h-166v66h166v625h106l242 -625h316v625h73v-625h166v-66h-166v-184h166v-65h-166v-625h-106l-244 625h-313v-625h-74v625h-166v65zM477 1055l-155 426l6 -541h192zM928 84l-8 541h-193l45 -115zM330 874v-184h288l-71 184h-217zM920 690v184h-289l71 -184
h218z" />
    <glyph glyph-name="peseta" unicode="&#x20a7;" horiz-adv-x="1996" 
d="M1587 43q76 0 127 15.5t79 48t39 73t11 99.5q0 39 -6.5 69.5t-16.5 53.5t-30 41.5t-38.5 31t-51 25t-59 20.5t-70.5 19q-41 11 -66.5 19t-57.5 22.5t-51 33.5t-37 47t-26 67.5t-8 90.5q0 287 297 287q71 0 122 -13.5t81.5 -37t48 -62t23.5 -79.5t6 -99l-76 -12
q0 61 -6.5 99t-27 73t-63 51t-110.5 16q-116 0 -167.5 -56t-51.5 -165q0 -112 41.5 -151.5t187.5 -75.5q42 -11 66 -18t60 -21t56.5 -28.5t45 -38t37 -51.5t21.5 -68t9 -88q0 -150 -76 -225.5t-260 -75.5q-166 0 -237 71q-34 -33 -90 -52t-121 -19q-211 0 -211 190v850h-168
q-7 -106 -34.5 -179t-74.5 -113t-103 -56.5t-132 -16.5h-221v-655h-74v1565h295q83 0 143 -20t108.5 -69t72.5 -140.5t24 -225.5v-25h164v287l74 12v-299h241v-65h-241v-836q0 -77 35.5 -107t101.5 -30q49 0 96 17t76 53q-23 62 -23 153l76 13q0 -48 3 -78.5t15.5 -64.5
t35.5 -53t65 -31.5t102 -12.5zM197 723h217q71 0 120 18t85 61t53.5 119t17.5 189q0 148 -32.5 234.5t-90.5 119.5t-153 33h-217v-774z" />
    <glyph glyph-name="uni20A8" unicode="&#x20a8;" horiz-adv-x="1542" 
d="M1083 43q91 0 152 15.5t94 48t46.5 73t13.5 99.5q0 54 -13 93t-32 64t-58 45t-73.5 31t-96.5 27q-41 11 -66.5 19t-57.5 22.5t-51 33.5t-37 47t-26 67.5t-8 90.5q0 287 297 287q71 0 122 -13.5t81.5 -37t48 -62t23.5 -79.5t6 -99l-76 -12q0 61 -6.5 99t-27 73t-63 51
t-110.5 16q-116 0 -167.5 -56t-51.5 -165q0 -48 6.5 -79t19.5 -53.5t42.5 -39t64.5 -28.5t97 -27q42 -11 66 -18t59.5 -21t56.5 -28.5t45 -38t36.5 -51.5t21.5 -68t9 -88q0 -74 -18.5 -127.5t-62 -93.5t-119.5 -60t-185 -20q-116 0 -209 45.5t-165.5 137.5t-128 210.5
t-107.5 283.5q-18 -2 -57 -2h-221v-655h-74v1565h295q83 0 143 -20t108.5 -69t72.5 -140.5t24 -225.5q0 -139 -27.5 -232t-74 -140.5t-117.5 -67.5q44 -145 95 -255t116 -196t147 -131t178 -45zM197 723h217q71 0 120 18t85 61t53.5 119t17.5 189q0 148 -32.5 234.5
t-90.5 119.5t-153 33h-217v-774z" />
    <glyph glyph-name="uni20A9" unicode="&#x20a9;" horiz-adv-x="1437" 
d="M1348 874h-152l-25 -184h177v-65h-185l-82 -645h-100l-113 645h-299l-112 -645h-101l-84 645h-182v65h174l-22 184h-152v66h143l-79 625h73l76 -625h254l109 625h106l109 -625h252l77 625h74l-80 -625h144v-66zM719 1479l-94 -539h188zM612 874l-32 -184h276l-33 184
h-211zM934 625l94 -535l66 535h-160zM342 625l68 -535l92 535h-160zM891 874l33 -184h178l22 184h-233zM311 874l23 -184h180l31 184h-234z" />
    <glyph glyph-name="uni20AA" unicode="&#x20aa;" horiz-adv-x="1017" 
d="M123 1565h225q314 0 314 -295v-1024h-74v1016q0 127 -55.5 181t-180.5 54h-155v-1497h-74v1565zM582 0h-228v1319h78v-1251h154q125 0 180 54t55 181v1262h74v-1270q0 -295 -313 -295z" />
    <glyph glyph-name="Euro" unicode="&#x20ac;" horiz-adv-x="1105" 
d="M709 625h-394q3 -132 13.5 -222t33 -161.5t61 -111.5t94 -60.5t134.5 -20.5q69 0 117.5 14t79 40t48 72t24 100t6.5 133l75 -13q1 -106 -13.5 -178t-52 -128t-108 -82.5t-176.5 -26.5q-115 0 -190 32.5t-122.5 110.5t-69.5 197t-27 305h-152v65h150v184h-150v66h152
q5 184 27 302.5t69.5 197.5t122.5 112t190 33q106 0 176.5 -26.5t108 -83t52 -128.5t13.5 -178l-75 -12q0 79 -6.5 133t-24 100t-48 72t-79 40t-117.5 14q-78 0 -133.5 -21t-93.5 -62t-60.5 -112.5t-33 -161t-13.5 -219.5h500l-22 -66h-480v-184h416z" />
    <glyph glyph-name="uni20AE" unicode="&#x20ae;" horiz-adv-x="823" 
d="M160 502l215 116v201l-215 -117v78l215 117v600h-271v68h615v-68h-270v-559l237 131v-78l-237 -131v-201l237 132v-78l-237 -131v-582h-74v541l-215 -117v78z" />
    <glyph glyph-name="uni20B1" unicode="&#x20b1;" horiz-adv-x="1122" 
d="M1036 1202h-141q4 -58 4 -92t-4 -92h141v-66h-149q-26 -167 -110 -232t-226 -65h-221v-655h-74v952h-166v66h166v184h-166v66h166v297h295q141 0 225.5 -66t110.5 -231h149v-66zM330 723h217q114 0 178 50.5t86 178.5h-481v-229zM330 1497v-229h481q-22 127 -86.5 178
t-177.5 51h-217zM330 1018h489q4 58 4 92t-4 92h-489v-184z" />
    <glyph glyph-name="afii61289" unicode="&#x2113;" horiz-adv-x="757" 
d="M199 580v583q0 422 233 422q93 0 147 -69.5t54 -200.5q0 -109 -33.5 -227t-87 -219t-115.5 -185t-125 -141v-301q0 -106 36 -147.5t134 -41.5q56 0 109 17l14 -72q-56 -18 -123 -18q-120 0 -181.5 53.5t-61.5 175.5v285l-117 -86v88q90 60 117 84zM272 1153v-516
q121 129 204 318t83 368q0 88 -32 140.5t-95 52.5q-76 0 -118 -83.5t-42 -279.5z" />
    <glyph glyph-name="published" unicode="&#x2117;" horiz-adv-x="1843" 
d="M123 799q0 167 65 318.5t174.5 261t261 174.5t318.5 65t318.5 -65t261 -174.5t174.5 -261t65 -318.5t-65 -318.5t-174.5 -261t-261 -174.5t-318.5 -65t-318.5 65t-261 174.5t-174.5 261t-65 318.5zM197 799q0 -151 59 -289t159 -238t238 -159.5t289 -59.5t289 59.5
t238 159.5t159.5 238t59.5 289t-59.5 289t-159.5 238t-238 159t-289 59t-289 -59t-238 -159t-159 -238t-59 -289zM1016 686h-307v-369h-76v963h383q51 0 95 -8.5t85.5 -29.5t70.5 -53.5t46.5 -85t17.5 -120.5t-17.5 -120.5t-46.5 -85t-70.5 -53.5t-85.5 -29.5t-95 -8.5z
M709 1206v-446h338q26 0 50 4.5t53.5 19t50.5 37.5t35.5 65t14.5 97t-14.5 97t-35.5 65t-50.5 37.5t-53.5 19t-50 4.5h-338z" />
    <glyph glyph-name="servicemark" unicode="&#x2120;" horiz-adv-x="1167" 
d="M831 1044h-53l-139 320l-35 88l2 -104v-304h-59v553h53l154 -358l51 -125l51 125l154 358h53v-553h-59v304l2 104l-35 -88zM242 1036q-185 0 -211 154l61 8q10 -54 43 -80t107 -26q65 0 107 28.5t42 81.5q0 51 -34.5 74t-116.5 31q-33 4 -56.5 8t-50.5 14t-43.5 24.5
t-27.5 38.5t-11 56q0 77 54 117.5t135 40.5q182 0 206 -152l-59 -6q-10 54 -41 79t-106 25q-53 0 -91 -25t-38 -77q0 -42 30 -61t103 -27q55 -7 87 -15t61 -24.5t41.5 -46t12.5 -74.5q0 -81 -59.5 -123.5t-144.5 -42.5z" />
    <glyph glyph-name="trademark" unicode="&#x2122;" horiz-adv-x="1146" 
d="M811 1044h-53l-140 320l-34 88l2 -104v-304h-60v553h54l153 -358l51 -125l52 125l153 358h53v-553h-59v304l2 104l-35 -88zM258 1538v-494h-63v494h-175v59h412v-59h-174z" />
    <glyph glyph-name="ohm" unicode="&#x2126;" horiz-adv-x="1474" 
d="M737 1585q305 0 478.5 -177.5t173.5 -485.5q0 -237 -117 -465t-291 -389l229 2h201v-70h-537v55q79 64 153.5 153.5t139 201t103.5 246t39 266.5q0 278 -154.5 433.5t-417.5 155.5t-417 -155.5t-154 -433.5q0 -132 39 -266.5t103.5 -246t138.5 -201t153 -153.5v-55h-537
v70h201l230 -2q-174 161 -291 389t-117 465q0 309 173 486t478 177z" />
    <glyph glyph-name="estimated" unicode="&#x212e;" horiz-adv-x="1699" 
d="M1649 764h-1385q3 -111 25.5 -211.5t69 -192t113.5 -159t165.5 -108t218.5 -42.5q290 -5 470 124.5t198 367.5h94q-42 -285 -242 -424t-526 -139q-175 0 -323 58t-253 163.5t-164 259t-59 338.5t59 338.5t164 259t253 163.5t323 58t323 -58t253 -163.5t164 -259
t59 -338.5v-35zM850 1548q-119 0 -217 -40.5t-164 -108t-112 -160.5t-68 -194t-25 -211h1172q-3 110 -25 211t-68.5 194t-112.5 160.5t-163.5 108t-216.5 40.5z" />
    <glyph glyph-name="uni2153" unicode="&#x2153;" horiz-adv-x="1441" 
d="M428 760h-324v63h125v660q-50 -63 -135 -105v68q77 42 146 141h57v-764h131v-63zM1112 1565l-799 -1565h-82l799 1565h82zM1130 51q79 0 115.5 40t36.5 126q0 53 -12 89t-33 52.5t-41.5 22.5t-46.5 6h-84v66h84q52 0 85.5 31t33.5 122q0 89 -29 124.5t-106 35.5
q-75 0 -104.5 -39t-29.5 -123l-67 8q0 107 43 161t158 54q114 0 159 -47.5t45 -167.5q0 -157 -104 -190q121 -33 121 -211q0 -110 -53.5 -165.5t-172.5 -55.5q-115 0 -159.5 56.5t-44.5 160.5l67 10q0 -81 29.5 -123.5t109.5 -42.5z" />
    <glyph glyph-name="uni2154" unicode="&#x2154;" horiz-adv-x="1546" 
d="M303 1526q-76 0 -104.5 -37t-28.5 -119l-70 10q2 105 44 156t159 51q115 0 157 -52.5t42 -168.5q0 -50 -10.5 -86t-38 -66.5t-55.5 -51t-81 -54.5q-54 -34 -84 -60.5t-46 -61.5t-19.5 -68t-3.5 -95h356v-63h-430q0 68 2 112t11 83t20 62.5t35.5 49t51.5 44.5t73 48
q92 58 121.5 98.5t29.5 106.5q0 89 -27 125.5t-104 36.5zM1217 1565l-799 -1565h-82l799 1565h82zM1235 51q79 0 115 39.5t36 126.5q0 53 -12 89t-33 52.5t-41.5 22.5t-46.5 6h-84v66h84q52 0 85.5 31t33.5 122q0 89 -29 124.5t-106 35.5q-75 0 -104 -39t-29 -123l-68 8
q0 107 43 161t158 54q114 0 159.5 -47.5t45.5 -167.5q0 -157 -105 -190q121 -33 121 -211q0 -110 -53 -165.5t-172 -55.5q-115 0 -160 56.5t-45 160.5l68 10q0 -81 29.5 -123.5t109.5 -42.5z" />
    <glyph glyph-name="uni2155" unicode="&#x2155;" horiz-adv-x="1427" 
d="M428 760h-324v63h125v660q-50 -63 -135 -105v68q77 42 146 141h57v-764h131v-63zM1112 1565l-799 -1565h-82l799 1565h82zM1124 51q76 0 112 52.5t36 160.5q0 117 -32.5 165t-96.5 48q-85 0 -131 -80l-64 13l17 407h356v-63h-295l-12 -287q54 70 143 70q90 0 136 -61
t46 -212q0 -140 -52.5 -207t-164.5 -67q-106 0 -151 49.5t-45 169.5l69 10q2 -96 28.5 -132t100.5 -36z" />
    <glyph glyph-name="uni2156" unicode="&#x2156;" horiz-adv-x="1531" 
d="M303 1526q-76 0 -104.5 -37t-28.5 -119l-70 10q2 105 44 156t159 51q115 0 157 -52.5t42 -168.5q0 -50 -10.5 -86t-38 -66.5t-55.5 -51t-81 -54.5q-54 -34 -84 -60.5t-46 -61.5t-19.5 -68t-3.5 -95h356v-63h-430q0 68 2 112t11 83t20 62.5t35.5 49t51.5 44.5t73 48
q92 58 121.5 98.5t29.5 106.5q0 89 -27 125.5t-104 36.5zM1217 1565l-799 -1565h-82l799 1565h82zM1229 51q76 0 111.5 52.5t35.5 160.5q0 117 -32.5 165t-96.5 48q-85 0 -131 -80l-63 13l16 407h356v-63h-295l-12 -287q54 70 144 70t136 -61t46 -212q0 -140 -52.5 -207
t-164.5 -67q-106 0 -151.5 50t-45.5 169l70 10q2 -96 28.5 -132t100.5 -36z" />
    <glyph glyph-name="uni2157" unicode="&#x2157;" horiz-adv-x="1525" 
d="M295 811q79 0 115 39.5t36 126.5q0 53 -12 89t-33 52.5t-41.5 22.5t-46.5 6h-84v65h84q52 0 85.5 31.5t33.5 122.5q0 89 -29 124.5t-106 35.5q-75 0 -104 -39t-29 -123l-68 8q0 107 43 161t158 54q114 0 159.5 -47.5t45.5 -167.5q0 -157 -105 -190q121 -33 121 -211
q0 -110 -53 -165.5t-172 -55.5q-115 0 -160 56.5t-45 160.5l68 10q0 -81 29.5 -123.5t109.5 -42.5zM1210 1565l-798 -1565h-82l798 1565h82zM1223 51q76 0 111.5 52.5t35.5 160.5q0 117 -32.5 165t-96.5 48q-85 0 -131 -80l-63 13l16 407h356v-63h-295l-12 -287
q54 70 143 70q91 0 137 -61t46 -212q0 -140 -52.5 -207t-164.5 -67q-106 0 -151.5 50t-45.5 169l70 10q2 -96 28.5 -132t100.5 -36z" />
    <glyph glyph-name="uni2158" unicode="&#x2158;" horiz-adv-x="1523" 
d="M526 954h-96v-194h-65v194h-287v64l270 569h82v-571h96v-62zM365 1016l4 475l-226 -477zM1208 1565l-798 -1565h-82l798 1565h82zM1221 51q76 0 111.5 52.5t35.5 160.5q0 117 -32.5 165t-96.5 48q-85 0 -131 -80l-64 13l17 407h356v-63h-295l-12 -287q54 70 143 70
q91 0 137 -61t46 -212q0 -140 -52.5 -207t-164.5 -67q-106 0 -151.5 50t-45.5 169l70 10q2 -96 28.5 -132t100.5 -36z" />
    <glyph glyph-name="uni2159" unicode="&#x2159;" horiz-adv-x="1454" 
d="M428 760h-324v63h125v660q-50 -63 -135 -105v68q77 42 146 141h57v-764h131v-63zM1112 1565l-799 -1565h-82l799 1565h82zM1155 768q-42 0 -70 -14.5t-45 -39.5t-26 -73t-12 -101.5t-3 -138.5q61 119 193 119q88 0 129 -63t41 -201q0 -136 -48.5 -201t-164.5 -65
q-132 0 -176.5 88.5t-44.5 331.5q0 95 5.5 159t19.5 116.5t40 81.5t66 44.5t98 15.5q97 0 145 -42t48 -136l-70 -12q0 72 -32.5 101.5t-92.5 29.5zM1165 459q-57 0 -95 -33t-71 -100q0 -158 33.5 -216.5t114.5 -58.5q79 0 112 45.5t33 157.5t-31 158.5t-96 46.5z" />
    <glyph glyph-name="uni215A" unicode="&#x215a;" horiz-adv-x="1538" 
d="M289 811q76 0 111.5 52.5t35.5 160.5q0 117 -32.5 165t-96.5 48q-85 0 -131 -80l-63 12l16 408h356v-64h-295l-12 -286q53 69 144 69t136.5 -60.5t45.5 -211.5q0 -140 -52.5 -207t-164.5 -67q-106 0 -151.5 50t-45.5 169l70 10q2 -96 28.5 -132t100.5 -36zM1196 1565
l-799 -1565h-82l799 1565h82zM1239 768q-42 0 -70 -14.5t-45 -39.5t-26 -73t-12 -101.5t-3 -138.5q61 119 193 119q88 0 129 -63t41 -201q0 -136 -48.5 -201t-164.5 -65q-132 0 -176.5 88.5t-44.5 331.5q0 95 5.5 159t19.5 116.5t40 81.5t66 44.5t98 15.5q97 0 145 -42
t48 -136l-70 -12q0 72 -32.5 101.5t-92.5 29.5zM1249 459q-57 0 -95 -33t-71 -100q0 -158 33.5 -216.5t114.5 -58.5q79 0 112 45.5t33 157.5t-31 158.5t-96 46.5z" />
    <glyph glyph-name="uni215B" unicode="&#x215b;" horiz-adv-x="1429" 
d="M428 760h-324v63h125v660q-50 -63 -135 -105v68q77 42 146 141h57v-764h131v-63zM1112 1565l-799 -1565h-82l799 1565h82zM1133 766q-73 0 -103.5 -35.5t-30.5 -126.5q0 -85 34.5 -120t99.5 -35q64 0 98.5 35t34.5 120q0 91 -30 126.5t-103 35.5zM1133 389
q-71 0 -108.5 -38t-37.5 -134q0 -87 36 -126.5t110 -39.5t109.5 39.5t35.5 126.5q0 97 -37 134.5t-108 37.5zM1133 -10q-215 0 -215 219q0 46 8 82t19.5 57t29 37.5t30.5 23t31 13.5q-45 12 -75.5 59.5t-30.5 128.5q0 118 47 167.5t156 49.5t155.5 -49.5t46.5 -167.5
q0 -81 -30 -128.5t-74 -59.5q23 -9 38.5 -19.5t36 -33t31.5 -63.5t11 -97q0 -219 -215 -219z" />
    <glyph glyph-name="uni215C" unicode="&#x215c;" horiz-adv-x="1527" 
d="M295 811q79 0 115 39.5t36 126.5q0 53 -12 89t-33 52.5t-41.5 22.5t-46.5 6h-84v65h84q52 0 85.5 31.5t33.5 122.5q0 89 -29 124.5t-106 35.5q-75 0 -104 -39t-29 -123l-68 8q0 107 43 161t158 54q114 0 159.5 -47.5t45.5 -167.5q0 -157 -105 -190q121 -33 121 -211
q0 -110 -53 -165.5t-172 -55.5q-115 0 -160 56.5t-45 160.5l68 10q0 -81 29.5 -123.5t109.5 -42.5zM1210 1565l-798 -1565h-82l798 1565h82zM1231 766q-73 0 -103 -35.5t-30 -126.5q0 -85 34.5 -120t98.5 -35t98.5 35t34.5 120q0 91 -30 126.5t-103 35.5zM1231 389
q-71 0 -108.5 -38t-37.5 -134q0 -87 36 -126.5t110 -39.5t109.5 39.5t35.5 126.5q0 97 -37 134.5t-108 37.5zM1231 -10q-215 0 -215 219q0 57 11 97.5t31.5 63t37 33t39.5 19.5q-45 12 -76 59.5t-31 128.5q0 118 47 167.5t156 49.5t156 -49.5t47 -167.5q0 -81 -30.5 -128.5
t-74.5 -59.5q23 -9 38.5 -19.5t36 -33t31.5 -63.5t11 -97q0 -219 -215 -219z" />
    <glyph glyph-name="uni215D" unicode="&#x215d;" horiz-adv-x="1513" 
d="M289 811q76 0 111.5 52.5t35.5 160.5q0 117 -32.5 165t-96.5 48q-85 0 -131 -80l-63 12l16 408h356v-64h-295l-12 -286q53 69 144 69t136.5 -60.5t45.5 -211.5q0 -140 -52.5 -207t-164.5 -67q-106 0 -151.5 50t-45.5 169l70 10q2 -96 28.5 -132t100.5 -36zM1196 1565
l-799 -1565h-82l799 1565h82zM1217 766q-73 0 -103.5 -35.5t-30.5 -126.5q0 -85 34.5 -120t99.5 -35q64 0 98.5 35t34.5 120q0 91 -30 126.5t-103 35.5zM1217 389q-71 0 -108.5 -38t-37.5 -134q0 -87 36 -126.5t110 -39.5t109.5 39.5t35.5 126.5q0 97 -37 134.5t-108 37.5z
M1217 -10q-216 0 -216 219q0 57 11 97.5t31.5 63t37 33t39.5 19.5q-45 12 -75.5 59.5t-30.5 128.5q0 118 47 167.5t156 49.5t155.5 -49.5t46.5 -167.5q0 -81 -30 -128.5t-74 -59.5q23 -9 38.5 -19.5t36 -33t31.5 -63.5t11 -97q0 -219 -215 -219z" />
    <glyph glyph-name="uni215E" unicode="&#x215e;" horiz-adv-x="1388" 
d="M244 760h-74l186 598l54 158l-123 -3h-195v64h387v-47zM1071 1565l-799 -1565h-82l799 1565h82zM1092 766q-73 0 -103.5 -35.5t-30.5 -126.5q0 -85 34.5 -120t99.5 -35q64 0 98.5 35t34.5 120q0 91 -30 126.5t-103 35.5zM1092 389q-71 0 -108.5 -38t-37.5 -134
q0 -87 36 -126.5t110 -39.5t109.5 39.5t35.5 126.5q0 97 -37 134.5t-108 37.5zM1092 -10q-215 0 -215 219q0 46 8 82t19.5 57t29 37.5t30.5 23t31 13.5q-45 12 -75.5 59.5t-30.5 128.5q0 118 47 167.5t156 49.5t155.5 -49.5t46.5 -167.5q0 -81 -30 -128.5t-74 -59.5
q23 -9 38.5 -19.5t36 -33t31.5 -63.5t11 -97q0 -219 -215 -219z" />
    <glyph glyph-name="uni215F" unicode="&#x215f;" horiz-adv-x="876" 
d="M428 760h-324v63h125v660q-50 -63 -135 -105v68q77 42 146 141h57v-764h131v-63zM1112 1565l-799 -1565h-82l799 1565h82z" />
    <glyph glyph-name="arrowleft" unicode="&#x2190;" horiz-adv-x="1802" 
d="M82 782v33l819 549v-90l-399 -260l-285 -183l295 3h1188v-70h-1188l-295 2l285 -182l399 -260v-91z" />
    <glyph glyph-name="arrowup" unicode="&#x2191;" horiz-adv-x="1802" 
d="M885 1618h33l548 -819h-90l-260 399l-182 285l2 -295v-1188h-70v1188l2 295l-182 -285l-260 -399h-90z" />
    <glyph glyph-name="arrowright" unicode="&#x2192;" horiz-adv-x="1802" 
d="M1720 815v-33l-819 -549v91l399 260l285 182l-295 -2h-1188v70h1188l295 -3l-285 183l-399 260v90z" />
    <glyph glyph-name="arrowdown" unicode="&#x2193;" horiz-adv-x="1802" 
d="M918 -20h-33l-549 819h90l260 -400l182 -284l-2 295v1187h70v-1187l-2 -295l182 284l260 400h90z" />
    <glyph glyph-name="uni2196" unicode="&#x2196;" horiz-adv-x="1802" 
d="M72 1595l22 23l969 -191l-64 -63l-467 98l-329 72l209 -207l839 -840l-49 -49l-840 840l-206 209l71 -330l99 -467l-64 -63z" />
    <glyph glyph-name="uni2197" unicode="&#x2197;" horiz-adv-x="1802" 
d="M1708 1618l23 -23l-191 -968l-63 63l98 467l72 330l-207 -209l-840 -840l-49 49l840 840l208 207l-329 -72l-467 -98l-64 63z" />
    <glyph glyph-name="uni2198" unicode="&#x2198;" horiz-adv-x="1802" 
d="M94 -20l-22 22l190 969l64 -64l-99 -467l-71 -329l206 208l840 840l49 -49l-839 -840l-209 -207l329 72l467 98l64 -63z" />
    <glyph glyph-name="uni2199" unicode="&#x2199;" horiz-adv-x="1802" 
d="M1731 2l-23 -22l-969 190l64 63l467 -98l329 -72l-208 207l-840 840l49 49l840 -840l207 -208l-72 329l-98 467l63 64z" />
    <glyph glyph-name="partialdiff" unicode="&#x2202;" horiz-adv-x="1454" 
d="M246 1417l-33 62q192 106 420 106q304 0 470.5 -207t166.5 -596q0 -406 -139 -604t-435 -198q-154 0 -275.5 57t-194 172t-72.5 272q0 242 136 371t365 129q79 0 155.5 -17t152 -54t134.5 -105.5t87 -161.5q0 4 1 23t2 50.5t1 65.5q0 187 -40.5 329t-115 230t-174 131.5
t-223.5 43.5q-196 0 -389 -99zM655 905q-89 -1 -163 -25t-132.5 -73.5t-91 -132.5t-32.5 -193q0 -111 39 -195.5t106 -134t146 -74t169 -26.5q178 -3 292.5 86.5t160.5 265.5q2 20 2 66q0 103 -41.5 187.5t-111.5 138t-158.5 82.5t-184.5 28z" />
    <glyph glyph-name="increment" unicode="&#x2206;" horiz-adv-x="1802" 
d="M135 0v53l733 1532h66l733 -1532v-53h-1532zM1307 70l274 -2l-557 1165l-123 270l-123 -270l-557 -1167l275 4h811z" />
    <glyph glyph-name="product" unicode="&#x220f;" horiz-adv-x="1576" 
d="M1227 1495v-1495h-78v1495h-721v-1495h-78v1495h-278v70h1433v-70h-278z" />
    <glyph glyph-name="summation" unicode="&#x2211;" horiz-adv-x="1454" 
d="M262 1565h995v-70h-528l-389 2l715 -672v-43l-770 -714l391 2h635v-70h-1114v80l788 723l-723 680v82z" />
    <glyph glyph-name="minus" unicode="&#x2212;" horiz-adv-x="1474" 
d="M1290 764h-1106v70h1106v-70z" />
    <glyph glyph-name="radical" unicode="&#x221a;" horiz-adv-x="1576" 
d="M102 979v68l254 59l164 -686l78 -348l174 309l680 1184h86l-913 -1585h-72l-246 1046z" />
    <glyph glyph-name="infinity" unicode="&#x221e;" horiz-adv-x="1679" 
d="M1530 799q0 -137 -85 -210t-226 -73q-201 0 -379 223q-181 -223 -379 -223q-141 0 -226 73t-85 210t85 209.5t226 72.5q195 0 379 -223q181 223 379 223q141 0 226 -72.5t85 -209.5zM463 1012q-49 2 -90 -8t-76.5 -33.5t-55.5 -67t-20 -104.5t20 -104.5t55.5 -67
t76.5 -33.5t90 -8q191 7 332 213q-141 206 -332 213zM1458 799q0 61 -20 104.5t-54.5 67t-75.5 33.5t-89 8q-193 -7 -334 -213q141 -206 334 -213q48 -2 89 8t75.5 33.5t54.5 67t20 104.5z" />
    <glyph glyph-name="integral" unicode="&#x222b;" horiz-adv-x="524" 
d="M563 1511q-66 0 -110.5 -11.5t-81 -43t-53.5 -91t-17 -151.5v-1218q0 -56 -2 -95t-9.5 -87t-21.5 -80.5t-39.5 -66t-60.5 -53t-87.5 -32t-119.5 -12.5q-72 0 -117 18l17 74q42 -18 100 -18q66 0 110.5 11.5t81 43t53.5 91t17 151.5v1218q0 56 2 95t9.5 87t21.5 80.5
t39.5 66t60.5 53t87.5 32t119.5 12.5q72 0 117 -18l-16 -74q-42 18 -101 18z" />
    <glyph glyph-name="approxequal" unicode="&#x2248;" horiz-adv-x="1474" 
d="M1255 1024l35 -55q-6 -9 -24 -24t-51 -37t-85.5 -37t-109.5 -15q-76 0 -153.5 23.5t-132 51.5t-129 51.5t-146.5 23.5q-44 0 -85 -10.5t-68 -25t-47.5 -29.5t-30.5 -25l-9 -11l-35 56q6 9 24.5 24t51.5 36.5t85.5 36.5t109.5 15q76 0 153.5 -23.5t132 -51t129 -51
t146.5 -23.5q44 0 85 10.5t68 25t47 29t30 25.5zM219 578l-35 55q6 9 24.5 24t51.5 36.5t85.5 36.5t109.5 15q76 0 153.5 -23.5t132 -51t129 -51t146.5 -23.5q44 0 85 10.5t68 25t47 29t30 25.5l9 10l35 -55q-6 -9 -24 -24t-51 -37t-85.5 -37t-109.5 -15q-76 0 -153.5 23.5
t-132 51.5t-129 51.5t-146.5 23.5q-44 0 -85 -10.5t-68 -25t-47.5 -29t-30.5 -25.5z" />
    <glyph glyph-name="notequal" unicode="&#x2260;" horiz-adv-x="1474" 
d="M1290 928h-424l-172 -258h596v-70h-643l-149 -225h-86l149 225h-377v70h424l172 258h-596v69h641l152 226h86l-152 -226h379v-69z" />
    <glyph glyph-name="equivalence" unicode="&#x2261;" horiz-adv-x="1474" 
d="M1290 834v-70h-1106v70h1106zM1290 315v-69h-1106v69h1106zM1290 1352v-70h-1106v70h1106z" />
    <glyph glyph-name="lessequal" unicode="&#x2264;" horiz-adv-x="1474" 
d="M594 1049l-350 -109l350 -109l696 -227v-74l-1106 371v78l1106 371v-74zM1290 248l-1106 375v69l1106 -375v-69z" />
    <glyph glyph-name="greaterequal" unicode="&#x2265;" horiz-adv-x="1474" 
d="M1231 940l-350 109l-697 227v74l1106 -371v-78l-1106 -371v74l697 227zM1290 623l-1106 -375v69l1106 375v-69z" />
    <glyph glyph-name="squaremultiply" unicode="&#x22a0;" horiz-adv-x="2048" 
d="M1083 799l535 -535l-59 -59l-535 534l-535 -534l-59 59l535 535l-535 534l59 60l535 -535l535 535l59 -60zM225 0v1597h1598v-1597h-1598zM1741 1524h-1434v-1450h1434v1450z" />
    <glyph glyph-name="house" unicode="&#x2302;" horiz-adv-x="1781" 
d="M1618 0h-1454v922l727 696l727 -696v-922z" />
    <glyph glyph-name="blacksquare" unicode="&#x25a0;" horiz-adv-x="2048" 
d="M1823 1597v-1597h-1598v1597h1598z" />
    <glyph glyph-name="whitesquare" unicode="&#x25a1;" horiz-adv-x="2048" 
d="M225 0v1597h1598v-1597h-1598zM1741 1524h-1434v-1450h1434v1450z" />
    <glyph glyph-name="blacksmallsquare" unicode="&#x25aa;" horiz-adv-x="1536" 
d="M1311 1085v-1085h-1086v1085h1086z" />
    <glyph glyph-name="whitesmallsquare" unicode="&#x25ab;" horiz-adv-x="1536" 
d="M225 0v1085h1086v-1085h-1086zM1229 1012h-922v-938h922v938z" />
    <glyph glyph-name="triagup" unicode="&#x25b2;" horiz-adv-x="1679" 
d="M1638 0h-1597l799 1384z" />
    <glyph glyph-name="triagrt" unicode="&#x25ba;" horiz-adv-x="1679" 
d="M90 0v1597l1385 -798z" />
    <glyph glyph-name="triagdn" unicode="&#x25bc;" horiz-adv-x="1679" 
d="M41 1597h1597l-798 -1384z" />
    <glyph glyph-name="triaglf" unicode="&#x25c4;" horiz-adv-x="1679" 
d="M1475 1597v-1597l-1385 799z" />
    <glyph glyph-name="lozenge" unicode="&#x25ca;" horiz-adv-x="1884" 
d="M942 86l651 713l-651 712l-651 -712zM942 -20l-754 819l754 819l754 -819z" />
    <glyph glyph-name="whitecircle" unicode="&#x25cb;" horiz-adv-x="2048" 
d="M205 799q0 167 65 318.5t174.5 261t261 174.5t318.5 65t318.5 -65t261 -174.5t174.5 -261t65 -318.5t-65 -318.5t-174.5 -261t-261 -174.5t-318.5 -65t-318.5 65t-261 174.5t-174.5 261t-65 318.5zM1753 799q0 201 -96.5 371.5t-264.5 270t-368 99.5t-368 -99.5
t-264.5 -270t-96.5 -371.5t96.5 -371.5t264.5 -270.5t368 -100t368 100t264.5 270.5t96.5 371.5z" />
    <glyph glyph-name="whitecircle" unicode="&#x25ef;" horiz-adv-x="2048" 
d="M205 799q0 167 65 318.5t174.5 261t261 174.5t318.5 65t318.5 -65t261 -174.5t174.5 -261t65 -318.5t-65 -318.5t-174.5 -261t-261 -174.5t-318.5 -65t-318.5 65t-261 174.5t-174.5 261t-65 318.5zM1753 799q0 201 -96.5 371.5t-264.5 270t-368 99.5t-368 -99.5
t-264.5 -270t-96.5 -371.5t96.5 -371.5t264.5 -270.5t368 -100t368 100t264.5 270.5t96.5 371.5z" />
    <glyph glyph-name="bullseye" unicode="&#x25ce;" horiz-adv-x="2007" 
d="M184 799q0 167 65 318.5t174.5 261t261.5 174.5t319 65t318.5 -65t261 -174.5t174.5 -261t65 -318.5t-65 -318.5t-174.5 -261t-261 -174.5t-318.5 -65t-319 65t-261.5 174.5t-174.5 261t-65 318.5zM696 799q0 127 90 217t218 90t217.5 -90t89.5 -217t-89.5 -217
t-217.5 -90t-218 90t-90 217zM342 694q0 -152 74.5 -280t202.5 -202.5t280 -74.5t280.5 74t203.5 202.5t75 280.5q0 114 -44 217.5t-119 178.5t-178.5 119t-217.5 44q-152 0 -280.5 -75t-202.5 -203.5t-74 -280.5z" />
    <glyph glyph-name="blackcircle" unicode="&#x25cf;" horiz-adv-x="2048" 
d="M205 799q0 167 65 318.5t174.5 261t261 174.5t318.5 65t318.5 -65t261 -174.5t174.5 -261t65 -318.5t-65 -318.5t-174.5 -261t-261 -174.5t-318.5 -65t-318.5 65t-261 174.5t-174.5 261t-65 318.5z" />
    <glyph glyph-name="uni25E2" unicode="&#x25e2;" horiz-adv-x="1679" 
d="M74 414l1130 1130l414 -1544z" />
    <glyph glyph-name="uni25E3" unicode="&#x25e3;" horiz-adv-x="1679" 
d="M475 1544l1131 -1130l-1545 -414z" />
    <glyph glyph-name="uni25E4" unicode="&#x25e4;" horiz-adv-x="1679" 
d="M1606 1184l-1131 -1131l-414 1544z" />
    <glyph glyph-name="uni25E5" unicode="&#x25e5;" horiz-adv-x="1679" 
d="M1204 53l-1130 1131l1544 413z" />
    <glyph glyph-name="uni2605" unicode="&#x2605;" horiz-adv-x="1843" 
d="M922 369l-533 -389l203 628l-533 387h660l203 627l202 -627h660l-533 -387l203 -628z" />
    <glyph glyph-name="ballotboxwithx" unicode="&#x2612;" horiz-adv-x="1536" 
d="M827 543l279 -279l-59 -59l-279 278l-279 -278l-59 59l279 279l-279 278l59 60l279 -279l279 279l59 -60zM225 0v1085h1086v-1085h-1086zM1229 1012h-922v-938h922v938z" />
    <glyph glyph-name="uni263C" unicode="&#x263c;" horiz-adv-x="2007" 
d="M1823 799l-346 -62l317 -149l-350 30l270 -229l-332 121l201 -289l-289 201l119 -332l-227 266l31 -348l-152 318l-61 -346l-62 346l-151 -318l30 348l-227 -266l119 332l-289 -201l201 289l-332 -121l270 229l-350 -30l317 149l-346 62l346 61l-317 150l350 -31
l-270 229l332 -121l-201 289l289 -200l-119 331l227 -266l-30 348l151 -317l62 346l61 -346l152 317l-31 -348l227 266l-119 -331l289 200l-201 -289l332 121l-270 -229l350 31l-317 -150z" />
    <glyph glyph-name="uni263E" unicode="&#x263e;" horiz-adv-x="2007" 
d="M1298 1491q-135 0 -258 -54.5t-211.5 -147.5t-141 -221t-52.5 -269t52.5 -269.5t141 -221t211.5 -147.5t258 -55q99 0 197 31q-218 -157 -491 -157q-167 0 -319 65t-261.5 174.5t-174.5 261t-65 318.5t65 318.5t174.5 261t261.5 174.5t319 65q267 0 491 -158
q-109 31 -197 31z" />
    <glyph glyph-name="spade" unicode="&#x2660;" horiz-adv-x="1884" 
d="M944 1618q66 -99 199 -238t278 -233q60 -39 104 -73t90.5 -79t75.5 -90t47.5 -102t18.5 -119q0 -150 -104.5 -253t-255.5 -103q-73 0 -139 27t-116.5 74t-89 104t-65.5 124l-6 -2q17 -209 54.5 -356t113.5 -299h-414q76 152 113.5 299t54.5 356l-6 2q-27 -67 -65.5 -124
t-89 -104t-116.5 -74t-139 -27q-151 0 -255.5 103t-104.5 253q0 62 18.5 119t47.5 102t75.5 90t90.5 79t104 73q145 94 278 233t199 238h4z" />
    <glyph glyph-name="club" unicode="&#x2663;" horiz-adv-x="1884" 
d="M735 0q76 152 113.5 299t54.5 356l-6 2q-27 -67 -65.5 -124t-89 -104t-116.5 -74t-139 -27q-151 0 -255.5 103t-104.5 253q0 161 99 265t257 104q84 0 172 -47l4 4q-77 116 -77 239q0 154 103 261.5t257 107.5t257.5 -107.5t103.5 -261.5q0 -121 -78 -239l4 -4
q88 47 172 47q158 0 257 -104t99 -265q0 -150 -104.5 -253t-255.5 -103q-73 0 -139 27t-116.5 74t-89 104t-65.5 124l-6 -2q17 -209 54.5 -356t113.5 -299h-414z" />
    <glyph glyph-name="heart" unicode="&#x2665;" horiz-adv-x="1884" 
d="M944 -20h-4q-59 89 -193.5 260t-283.5 340q-64 73 -114 136.5t-105 148.5t-86 170t-31 161q0 185 106.5 303.5t284.5 118.5q92 0 163.5 -25.5t120.5 -73t80.5 -100.5t55.5 -123h8q24 70 55.5 123t80.5 100.5t120.5 73t163.5 25.5q178 0 284.5 -118.5t106.5 -303.5
q0 -76 -31 -161t-86 -170t-105 -148.5t-114 -136.5q-149 -169 -283.5 -340t-193.5 -260z" />
    <glyph glyph-name="diamond" unicode="&#x2666;" horiz-adv-x="1884" 
d="M1694 799q-218 -170 -415.5 -386t-334.5 -433h-4q-137 217 -334.5 433t-415.5 386q218 170 415.5 386t334.5 433h4q137 -217 334.5 -433t415.5 -386z" />
    <glyph glyph-name="musicflatsign" unicode="&#x266d;" horiz-adv-x="1013" 
d="M170 -68v1747h78v-780q40 88 136.5 150.5t193.5 62.5q165 0 251 -96t86 -271q0 -122 -41 -235.5t-111.5 -203.5t-165.5 -165.5t-203 -127t-224 -81.5zM248 709v-672q49 16 97.5 38t107 56t110 74t100.5 95t84 116.5t56.5 140t21.5 164.5q0 303 -258 303
q-127 0 -220.5 -102t-98.5 -213z" />
    <glyph glyph-name="musicsharpsign" unicode="&#x266f;" horiz-adv-x="995" 
d="M662 0v573l-328 -262v-516h-74v457l-199 -160v121l199 160v471l-199 -160v121l199 160v632h74v-573l328 262v516h73v-456l199 159v-121l-199 -159v-471l199 159v-120l-199 -160v-633h-73zM334 903v-471l328 262v471z" />
    <glyph glyph-name="uni267B" unicode="&#x267b;" horiz-adv-x="2007" 
d="M1788 545l2 -4l-197 -342q-41 -60 -60 -77q-44 -38 -120 -38h-117v-100l-231 278l231 277v-101h297q54 0 102.5 27t70.5 53zM401 250h-4l-196 344q-23 42 -31.5 65.5t-5.5 63t29 82.5l57 100l-86 49l356 64l121 -340l-84 49q-143 -246 -147 -256q-17 -29 -24.5 -62.5
t-5.5 -60.5t6.5 -50t9.5 -36zM848 1595v2h395q37 -1 56.5 -3t46 -11t47 -29t39.5 -53l57 -100l88 49l-125 -340l-354 64l84 49l-148 256q-27 47 -73.5 76t-79.5 35zM430 1225l137 243q21 37 70 64q63 34 131.5 30.5t126.5 -33t80 -69.5l-238 -411zM934 84h-277q-43 0 -90 27
q-45 26 -76 70.5t-42.5 91.5t-9 91.5t19.5 73.5h475v-354zM1671 1079l141 -239q21 -38 21 -90q1 -99 -78 -178.5t-151 -79.5l-238 411z" />
    <glyph glyph-name="uni267C" unicode="&#x267c;" horiz-adv-x="2007" 
d="M1823 797q0 -167 -64.5 -318.5t-173.5 -260.5t-260.5 -173.5t-318.5 -64.5q-168 0 -320 64.5t-262 173.5t-175 260.5t-65 318.5q0 168 65 320t175 261.5t262 174.5t320 65q167 0 318.5 -65t260.5 -174.5t173.5 -261.5t64.5 -320zM662 1321l-107 -188l238 -138l184 320
q-17 30 -62 52.5t-98 25.5t-102 -23q-37 -21 -53 -49zM870 1421v-2q4 0 11 -1.5t26.5 -7.5t37 -14.5t38 -26.5t33.5 -40l114 -199l-65 -38l274 -50l97 265l-68 -39l-45 78q-28 49 -59.5 62t-85.5 13h-308zM723 248h215v274h-369q-13 -22 -15 -57t7.5 -71.5t33.5 -71
t58 -54.5q36 -20 70 -20zM530 377h2q-4 10 -9.5 27.5t-5 63t21.5 81.5l114 199l66 -39l-94 264l-277 -49l68 -39l-45 -78q-20 -34 -22.5 -65t4 -48.5t24.5 -50.5zM1626 834l-108 186l-238 -137l184 -320q57 0 118 61.5t60 139.5q0 42 -16 70zM1610 602l-2 2q-2 -3 -6.5 -8.5
t-19.5 -20t-31.5 -25t-42.5 -19.5t-52 -9h-229v78l-180 -215l180 -215v78h90q30 0 52.5 6t38.5 20t25.5 26.5t22.5 35.5z" />
    <glyph glyph-name="uni267D" unicode="&#x267d;" horiz-adv-x="2007" 
d="M1823 797q0 -167 -64.5 -318.5t-173.5 -260.5t-260.5 -173.5t-318.5 -64.5q-168 0 -320 64.5t-262 173.5t-175 260.5t-65 318.5q0 168 65 320t175 261.5t262 174.5t320 65q167 0 318.5 -65t260.5 -174.5t173.5 -261.5t64.5 -320zM1782 797q0 159 -61.5 303.5t-165 249
t-247.5 166t-302 61.5q-159 0 -303.5 -61.5t-249 -166t-166.5 -249t-62 -303.5q0 -212 104.5 -390.5t284 -282.5t392.5 -104q158 0 302 61.5t247.5 165.5t165 248t61.5 302zM555 1133l107 188q16 28 53 49q49 26 102 23t98 -25.5t62 -52.5l-184 -320zM870 1419v2h308
q54 0 85.5 -13t59.5 -62l45 -78l68 39l-97 -265l-274 50l65 38l-114 199q-21 36 -57.5 58.5t-62.5 26.5zM938 248h-215q-34 0 -70 20q-34 20 -58 54.5t-33.5 71t-7.5 71.5t15 57h369v-274zM532 377h-2l-153 266q-18 33 -24.5 50.5t-4 48.5t22.5 65l45 78l-68 39l277 49
l94 -264l-66 39l-114 -199q-21 -36 -22.5 -79t7.5 -68zM1518 1020l108 -186q16 -28 16 -70q1 -78 -60 -139.5t-118 -61.5l-184 320zM1608 604l2 -2l-154 -266q-13 -23 -22.5 -35.5t-25.5 -26.5t-38.5 -20t-52.5 -6h-90v-78l-180 215l180 215v-78h229q26 0 51.5 8.5t43 20.5
t31 24t20.5 21z" />
    <glyph glyph-name="anglebracketleft" unicode="&#x3008;" horiz-adv-x="532" 
d="M420 1700l-225 -983l225 -983h-72l-225 983l225 983h72z" />
    <glyph glyph-name="anglebracketright" unicode="&#x3009;" horiz-adv-x="532" 
d="M338 717l-225 983h71l226 -983l-226 -983h-71z" />
    <glyph glyph-name="aogonek.school" unicode="&#xe150;" horiz-adv-x="880" 
d="M92 543q0 108 8 189t30 154.5t59.5 119.5t97.5 73t143 27q178 0 297 -164l12 143h60l-4 -219v-647l4 -219q-181 -59 -181 -238q0 -68 36 -99.5t87 -31.5q66 0 127 45l21 -57q-64 -49 -156 -49q-70 0 -126 44.5t-56 137.5q0 96 43.5 164t140.5 117l-8 110
q-119 -163 -297 -163q-83 0 -143 27t-97.5 73t-59.5 119.5t-30 154.5t-8 189zM170 543q0 -97 6 -168t23.5 -135.5t46.5 -104.5t76.5 -63t113.5 -23q85 0 152.5 43.5t132.5 130.5v639q-65 87 -132.5 130.5t-152.5 43.5q-66 0 -113.5 -23t-76.5 -63t-46.5 -104.5t-23.5 -135
t-6 -167.5z" />
    <glyph glyph-name="a.school" unicode="&#xe151;" horiz-adv-x="880" 
d="M170 543q0 -97 6 -168t23.5 -135.5t46.5 -104.5t76.5 -63t113.5 -23q85 0 152.5 43.5t132.5 130.5v639q-65 87 -132.5 130.5t-152.5 43.5q-66 0 -113.5 -23t-76.5 -63t-46.5 -104.5t-23.5 -135t-6 -167.5zM92 543q0 108 8 189t30 154.5t59.5 119.5t97.5 73t143 27
q178 0 297 -164l12 143h60l-4 -219v-647l4 -219h-60l-12 143q-119 -163 -297 -163q-83 0 -143 27t-97.5 73t-59.5 119.5t-30 154.5t-8 189z" />
    <glyph glyph-name="agrave.school" unicode="&#xe152;" horiz-adv-x="880" 
d="M170 543q0 -97 6 -168t23.5 -135.5t46.5 -104.5t76.5 -63t113.5 -23q85 0 152.5 43.5t132.5 130.5v639q-65 87 -132.5 130.5t-152.5 43.5q-66 0 -113.5 -23t-76.5 -63t-46.5 -104.5t-23.5 -135t-6 -167.5zM92 543q0 108 8 189t30 154.5t59.5 119.5t97.5 73t143 27
q178 0 297 -164l12 143h60l-4 -219v-647l4 -219h-60l-12 143q-119 -163 -297 -163q-83 0 -143 27t-97.5 73t-59.5 119.5t-30 154.5t-8 189zM297 1638h78l104 -426h-59z" />
    <glyph glyph-name="aacute.school" unicode="&#xe153;" horiz-adv-x="880" 
d="M170 543q0 -97 6 -168t23.5 -135.5t46.5 -104.5t76.5 -63t113.5 -23q85 0 152.5 43.5t132.5 130.5v639q-65 87 -132.5 130.5t-152.5 43.5q-66 0 -113.5 -23t-76.5 -63t-46.5 -104.5t-23.5 -135t-6 -167.5zM92 543q0 108 8 189t30 154.5t59.5 119.5t97.5 73t143 27
q178 0 297 -164l12 143h60l-4 -219v-647l4 -219h-60l-12 143q-119 -163 -297 -163q-83 0 -143 27t-97.5 73t-59.5 119.5t-30 154.5t-8 189zM522 1638h78l-123 -426h-59z" />
    <glyph glyph-name="acircumflex.school" unicode="&#xe154;" horiz-adv-x="880" 
d="M170 543q0 -97 6 -168t23.5 -135.5t46.5 -104.5t76.5 -63t113.5 -23q85 0 152.5 43.5t132.5 130.5v639q-65 87 -132.5 130.5t-152.5 43.5q-66 0 -113.5 -23t-76.5 -63t-46.5 -104.5t-23.5 -135t-6 -167.5zM92 543q0 108 8 189t30 154.5t59.5 119.5t97.5 73t143 27
q178 0 297 -164l12 143h60l-4 -219v-647l4 -219h-60l-12 143q-119 -163 -297 -163q-83 0 -143 27t-97.5 73t-59.5 119.5t-30 154.5t-8 189zM705 1212h-60l-196 365l-197 -365h-59l213 426h86z" />
    <glyph glyph-name="adieresis.school" unicode="&#xe155;" horiz-adv-x="880" 
d="M170 543q0 -97 6 -168t23.5 -135.5t46.5 -104.5t76.5 -63t113.5 -23q85 0 152.5 43.5t132.5 130.5v639q-65 87 -132.5 130.5t-152.5 43.5q-66 0 -113.5 -23t-76.5 -63t-46.5 -104.5t-23.5 -135t-6 -167.5zM92 543q0 108 8 189t30 154.5t59.5 119.5t97.5 73t143 27
q178 0 297 -164l12 143h60l-4 -219v-647l4 -219h-60l-12 143q-119 -163 -297 -163q-83 0 -143 27t-97.5 73t-59.5 119.5t-30 154.5t-8 189zM340 1516v-111h-111v111h111zM668 1516v-111h-111v111h111z" />
    <glyph glyph-name="atilde.school" unicode="&#xe156;" horiz-adv-x="880" 
d="M170 543q0 -97 6 -168t23.5 -135.5t46.5 -104.5t76.5 -63t113.5 -23q85 0 152.5 43.5t132.5 130.5v639q-65 87 -132.5 130.5t-152.5 43.5q-66 0 -113.5 -23t-76.5 -63t-46.5 -104.5t-23.5 -135t-6 -167.5zM92 543q0 108 8 189t30 154.5t59.5 119.5t97.5 73t143 27
q178 0 297 -164l12 143h60l-4 -219v-647l4 -219h-60l-12 143q-119 -163 -297 -163q-83 0 -143 27t-97.5 73t-59.5 119.5t-30 154.5t-8 189zM668 1516l57 -11q-6 -87 -43.5 -135t-101.5 -47q-39 1 -77.5 24.5t-65.5 51t-61.5 51t-64.5 25.5q-44 3 -64 -29.5t-26 -104.5
l-57 11q6 87 43.5 135t101.5 47q39 -1 77.5 -24.5t65.5 -51t61.5 -51t64.5 -25.5q44 -3 64 29.5t26 104.5z" />
    <glyph glyph-name="aring.school" unicode="&#xe157;" horiz-adv-x="880" 
d="M170 543q0 -97 6 -168t23.5 -135.5t46.5 -104.5t76.5 -63t113.5 -23q85 0 152.5 43.5t132.5 130.5v639q-65 87 -132.5 130.5t-152.5 43.5q-66 0 -113.5 -23t-76.5 -63t-46.5 -104.5t-23.5 -135t-6 -167.5zM92 543q0 108 8 189t30 154.5t59.5 119.5t97.5 73t143 27
q178 0 297 -164l12 143h60l-4 -219v-647l4 -219h-60l-12 143q-119 -163 -297 -163q-83 0 -143 27t-97.5 73t-59.5 119.5t-30 154.5t-8 189zM215 1425q0 103 63 168.5t171 65.5t170.5 -65t62.5 -169q0 -103 -62.5 -168t-170.5 -65t-171 65t-63 168zM618 1425q0 83 -43.5 130
t-125.5 47t-126 -47t-44 -130t44 -129.5t126 -46.5t125.5 46.5t43.5 129.5z" />
    <glyph glyph-name="amacron.school" unicode="&#xe159;" horiz-adv-x="880" 
d="M170 543q0 -97 6 -168t23.5 -135.5t46.5 -104.5t76.5 -63t113.5 -23q85 0 152.5 43.5t132.5 130.5v639q-65 87 -132.5 130.5t-152.5 43.5q-66 0 -113.5 -23t-76.5 -63t-46.5 -104.5t-23.5 -135t-6 -167.5zM92 543q0 108 8 189t30 154.5t59.5 119.5t97.5 73t143 27
q178 0 297 -164l12 143h60l-4 -219v-647l4 -219h-60l-12 143q-119 -163 -297 -163q-83 0 -143 27t-97.5 73t-59.5 119.5t-30 154.5t-8 189zM252 1427v66h393v-66h-393z" />
    <glyph glyph-name="abreve.school" unicode="&#xe15a;" horiz-adv-x="880" 
d="M170 543q0 -97 6 -168t23.5 -135.5t46.5 -104.5t76.5 -63t113.5 -23q85 0 152.5 43.5t132.5 130.5v639q-65 87 -132.5 130.5t-152.5 43.5q-66 0 -113.5 -23t-76.5 -63t-46.5 -104.5t-23.5 -135t-6 -167.5zM92 543q0 108 8 189t30 154.5t59.5 119.5t97.5 73t143 27
q178 0 297 -164l12 143h60l-4 -219v-647l4 -219h-60l-12 143q-119 -163 -297 -163q-83 0 -143 27t-97.5 73t-59.5 119.5t-30 154.5t-8 189zM649 1638h62q0 -79 -5 -134.5t-21 -110t-44 -87.5t-76 -53t-116 -20t-116 20t-76.5 53t-44.5 87.5t-21 110t-5 134.5h62
q0 -72 4.5 -122.5t17 -94.5t35 -70t58.5 -40.5t86 -14.5t86 14.5t58 40.5t34.5 70t17 94.5t4.5 122.5z" />
    <glyph glyph-name="cordinal" unicode="&#xe181;" horiz-adv-x="669" 
d="M92 1198q0 222 67 321t216 99q70 0 117.5 -16t72 -47.5t34 -69.5t9.5 -90l-71 -11q0 95 -34.5 135t-127.5 40q-109 0 -161 -82t-52 -279t52 -278.5t161 -81.5q93 0 127.5 39.5t34.5 134.5l71 -11q0 -52 -9.5 -90t-34 -69.5t-72 -47.5t-117.5 -16q-149 0 -216 99t-67 321z
" />
    <glyph glyph-name="ordfeminine.school" unicode="&#xe182;" horiz-adv-x="722" 
d="M92 1198q0 218 59.5 319t176.5 101q82 0 139 -37t86 -86l12 102h56l-7 -184v-430l7 -184h-56l-12 102q-29 -49 -86 -86t-139 -37q-117 0 -176.5 101t-59.5 319zM547 1415q-14 23 -21.5 34t-28.5 36t-40.5 38t-51 24.5t-65.5 11.5q-178 0 -178 -361q0 -360 178 -360
q42 0 77.5 14t62 41.5t38.5 43.5t29 44v434z" />
    <glyph glyph-name="fi" unicode="&#xe38c;" horiz-adv-x="886" 
d="M66 1020v65h127v396q0 178 208 178q63 0 115 -21l-10 -69q-47 20 -105 20q-69 0 -102 -24t-33 -99v-381h221v-65h-221v-1020h-73v1020h-127zM692 0v1085h74v-1085h-74zM784 1516v-111h-110v111h110z" />
    <glyph glyph-name="fi" unicode="&#xfb01;" horiz-adv-x="886" 
d="M66 1020v65h127v396q0 178 208 178q63 0 115 -21l-10 -69q-47 20 -105 20q-69 0 -102 -24t-33 -99v-381h221v-65h-221v-1020h-73v1020h-127zM692 0v1085h74v-1085h-74zM784 1516v-111h-110v111h110z" />
    <glyph glyph-name="fl" unicode="&#xe38d;" horiz-adv-x="886" 
d="M66 1020v65h127v396q0 178 208 178q63 0 115 -21l-10 -69q-47 20 -105 20q-69 0 -102 -24t-33 -99v-381h221v-65h-221v-1020h-73v1020h-127zM692 0v1638h74v-1638h-74z" />
    <glyph glyph-name="fl" unicode="&#xfb02;" horiz-adv-x="886" 
d="M66 1020v65h127v396q0 178 208 178q63 0 115 -21l-10 -69q-47 20 -105 20q-69 0 -102 -24t-33 -99v-381h221v-65h-221v-1020h-73v1020h-127zM692 0v1638h74v-1638h-74z" />
    <glyph glyph-name="invertedbreve" unicode="&#xe411;" horiz-adv-x="1269" 
d="M434 1212h-61q0 79 5 134.5t21 110.5t44 87.5t76 53t116 20.5t116 -20.5t76 -53t44 -87.5t21 -110.5t5 -134.5h-61q0 72 -4.5 122.5t-17 94.5t-35 70t-58.5 40.5t-86 14.5t-86 -14.5t-58.5 -40.5t-35 -70t-17 -94.5t-4.5 -122.5z" />
    <glyph glyph-name="doublegrave" unicode="&#xe412;" horiz-adv-x="1269" 
d="M586 1638h78l104 -426h-59zM381 1638h78l104 -426h-59z" />
    <glyph glyph-name="caronSlovak" unicode="&#xe413;" horiz-adv-x="1269" 
d="M758 1638h78l-33 -426h-45v426z" />
    <glyph glyph-name="commaaccent" unicode="&#xe414;" horiz-adv-x="1269" 
d="M623 -410h-56l23 283h90z" />
    <glyph glyph-name="commaaccent" unicode="&#xf6c3;" horiz-adv-x="1269" 
d="M623 -410h-56l23 283h90z" />
    <glyph glyph-name="dotbelow" unicode="&#xe415;" horiz-adv-x="1269" 
d="M690 -299v-111h-110v111h110z" />
    <glyph glyph-name="altcedilla" unicode="&#xe416;" horiz-adv-x="1269" 
d="M541 -139l20 59q277 -20 277 -182q0 -85 -62 -126.5t-162 -41.5q-44 0 -90.5 11t-70.5 24l20 59q55 -31 125 -33q80 -2 124 21.5t44 83.5q0 34 -18.5 58t-52 36t-64 18t-71.5 11q-13 1 -19 2z" />
    <glyph glyph-name="exclamdown.cap" unicode="&#xe441;" horiz-adv-x="327" 
d="M225 0h-123l41 1208h41zM109 1487v110h110v-110h-110z" />
    <glyph glyph-name="questiondown.cap" unicode="&#xe444;" horiz-adv-x="864" 
d="M416 1208h53q49 -132 49 -235q0 -91 -35 -145.5t-102 -98.5q-36 -23 -54.5 -36t-46.5 -35t-42.5 -39t-32 -44t-25.5 -54.5t-14 -65t-6 -82.5q0 -184 66 -255t206 -71q156 0 215.5 81t59.5 265l75 -12q0 -214 -80 -307.5t-270 -93.5q-186 0 -268 88t-82 303q0 69 12 124.5
t31.5 93t49 69.5t58.5 54t66 48l27 18q70 50 96 90.5t29 104.5q3 85 -35 235zM391 1487v110h111v-110h-111z" />
    <glyph glyph-name="guilsinglleft.cap" unicode="&#xe451;" horiz-adv-x="655" 
d="M532 1157v-84l-342 -274l342 -275v-84l-426 330v57z" />
    <glyph glyph-name="guilsinglright.cap" unicode="&#xe452;" horiz-adv-x="655" 
d="M123 440v84l342 275l-342 274v84l426 -330v-57z" />
    <glyph glyph-name="guillemotleft.cap" unicode="&#xe453;" horiz-adv-x="1081" 
d="M532 1157v-84l-342 -274l342 -275v-84l-426 330v57zM958 1157v-84l-342 -274l342 -275v-84l-426 330v57z" />
    <glyph glyph-name="guillemotright.cap" unicode="&#xe454;" horiz-adv-x="1081" 
d="M549 1073v84l426 -330v-57l-426 -330v84l342 275zM123 1073v84l426 -330v-57l-426 -330v84l342 275z" />
    <glyph glyph-name="slash.cap" unicode="&#xe461;" horiz-adv-x="614" 
d="M549 1638l-402 -1679h-81l401 1679h82z" />
    <glyph glyph-name="backslash.cap" unicode="&#xe462;" horiz-adv-x="614" 
d="M467 -41l-401 1679h81l402 -1679h-82z" />
    <glyph glyph-name="bar.cap" unicode="&#xe463;" horiz-adv-x="552" 
d="M313 1638v-1679h-73v1679h73z" />
    <glyph glyph-name="doublebar.cap" unicode="&#xe464;" horiz-adv-x="700" 
d="M461 1638v-1679h-74v1679h74zM313 1638v-1679h-73v1679h73z" />
    <glyph glyph-name="brokenbar.cap" unicode="&#xe465;" horiz-adv-x="552" 
d="M313 1638v-798h-73v798h73zM240 758h73v-799h-73v799z" />
    <glyph glyph-name="bullet.cap" unicode="&#xe466;" horiz-adv-x="798" 
d="M664 1063v-528h-529v528h529z" />
    <glyph glyph-name="onethirdemdash" unicode="&#xe471;" horiz-adv-x="722" 
d="M600 651h-477v70h477v-70z" />
    <glyph glyph-name="threequarteremdash" unicode="&#xe472;" horiz-adv-x="1576" 
d="M1454 651h-1331v70h1331v-70z" />
    <glyph glyph-name="periodcentered.cap" unicode="&#xe481;" horiz-adv-x="450" 
d="M287 860v-123h-123v123h123z" />
    <glyph glyph-name="hyphen.cap" unicode="&#xe482;" horiz-adv-x="778" 
d="M655 764h-532v70h532v-70z" />
    <glyph glyph-name="onethirdemdash.cap" unicode="&#xe483;" horiz-adv-x="722" 
d="M600 764h-477v70h477v-70z" />
    <glyph glyph-name="endash.cap" unicode="&#xe484;" horiz-adv-x="1064" 
d="M942 764h-819v70h819v-70z" />
    <glyph glyph-name="threequarteremdash.cap" unicode="&#xe485;" horiz-adv-x="1576" 
d="M1454 764h-1331v70h1331v-70z" />
    <glyph glyph-name="emdash.cap" unicode="&#xe486;" horiz-adv-x="2088" 
d="M1966 834v-70h-1843v70h1843z" />
    <glyph glyph-name="figuredash.cap" unicode="&#xe487;" horiz-adv-x="1474" 
d="M1352 764h-1229v70h1229v-70z" />
    <glyph glyph-name="uni2015.cap" unicode="&#xe488;" horiz-adv-x="2908" 
d="M2785 834v-70h-2662v70h2662z" />
    <glyph glyph-name="parenleft.cap" unicode="&#xe491;" horiz-adv-x="532" 
d="M201 799q0 -291 52.5 -513t166.5 -470h-72q-98 167 -161.5 431t-63.5 552t63.5 552t161.5 431h72q-114 -248 -166.5 -470t-52.5 -513z" />
    <glyph glyph-name="parenright.cap" unicode="&#xe492;" horiz-adv-x="532" 
d="M332 799q0 291 -52.5 513t-166.5 470h71q98 -168 162 -431.5t64 -551.5t-64 -551.5t-162 -431.5h-71q114 248 166.5 470t52.5 513z" />
    <glyph glyph-name="bracketleft.cap" unicode="&#xe493;" horiz-adv-x="532" 
d="M301 1714v-1831h191v-67h-267v1966h267v-68h-191z" />
    <glyph glyph-name="bracketright.cap" unicode="&#xe494;" horiz-adv-x="532" 
d="M231 -117v1831h-190v68h266v-1966h-266v67h190z" />
    <glyph glyph-name="braceleft.cap" unicode="&#xe495;" horiz-adv-x="614" 
d="M199 799q55 -25 79.5 -93t24.5 -147v-471q0 -116 50.5 -160.5t138.5 -44.5h81v-67h-61q-75 0 -128.5 17t-83.5 43t-47 67t-21.5 77.5t-4.5 85.5v455q0 82 -17.5 127t-48.5 60.5t-85 15.5h-39v70h39q82 0 116.5 41t34.5 161v455q0 49 4.5 85.5t21.5 78t47 67t83.5 43
t128.5 17.5h61v-68h-81q-88 0 -138.5 -44.5t-50.5 -160.5v-471q0 -79 -24.5 -146.5t-79.5 -92.5z" />
    <glyph glyph-name="braceright.cap" unicode="&#xe496;" horiz-adv-x="614" 
d="M412 799q-55 25 -80 92.5t-25 146.5v471q0 116 -50 160.5t-138 44.5h-82v68h61q75 0 128.5 -17.5t83.5 -43t47 -67t21.5 -78t4.5 -85.5v-455q0 -120 35 -161t117 -41h38v-70h-38q-82 0 -117 -41.5t-35 -161.5v-455q0 -49 -4.5 -85.5t-21.5 -77.5t-47 -67t-83.5 -43
t-128.5 -17h-61v67h82q88 0 138 44.5t50 160.5v471q0 79 25 147t80 93z" />
    <glyph glyph-name="anglebracketleft.cap" unicode="&#xe497;" horiz-adv-x="532" 
d="M420 1782l-225 -983l225 -983h-72l-225 983l225 983h72z" />
    <glyph glyph-name="anglebracketright.cap" unicode="&#xe498;" horiz-adv-x="532" 
d="M338 799l-225 983h71l226 -983l-226 -983h-71z" />
    <glyph glyph-name="lowline" unicode="&#xe511;" horiz-adv-x="655" 
d="M594 0h-533v70h533v-70z" />
    <glyph glyph-name="underscoremonospace" unicode="&#xe512;" horiz-adv-x="1433" 
d="M1372 -410h-1311v70h1311v-70z" />
    <glyph glyph-name="underscoremonospace" unicode="&#xff3f;" horiz-adv-x="1433" 
d="M1372 -410h-1311v70h1311v-70z" />
    <glyph glyph-name="at.cap" unicode="&#xe513;" horiz-adv-x="1785" 
d="M1139 555v500q-63 87 -132.5 131.5t-154.5 44.5q-65 0 -112.5 -21t-76 -56.5t-46 -91.5t-23.5 -116t-6 -141t6 -141t23.5 -116t46 -91.5t76 -56.5t112.5 -21q85 0 154.5 44.5t132.5 131.5zM1210 330h-53l-12 143q-119 -164 -299 -164q-82 0 -142.5 25t-97.5 66.5
t-58.5 106.5t-29.5 135t-8 163t8 162.5t29.5 135t58.5 107t97.5 66t142.5 24.5q180 0 299 -163l12 143h60l-5 -219v-662q98 0 169.5 27.5t115 75.5t69.5 125.5t35 163.5t9 204q0 71 -3.5 131t-14 125.5t-27.5 119t-45.5 107.5t-66.5 95.5t-91.5 78t-119.5 60.5t-152.5 37.5
t-188.5 13.5q-171 0 -294.5 -38.5t-206 -111.5t-131.5 -193t-69 -268.5t-20 -352.5q0 -171 13.5 -299.5t46.5 -241t89 -188.5t140.5 -130.5t201.5 -80t271 -25.5q216 0 346 28.5t273 88.5l28 -68q-167 -60 -249 -79q-171 -40 -398 -40q-190 0 -327 35t-237 109t-160 197.5
t-88 292t-28 401.5q0 289 43.5 484.5t141.5 319t246.5 177t367.5 53.5q135 0 245.5 -22.5t191 -62t141 -99.5t99 -128.5t62.5 -156t33.5 -176t9.5 -193.5q0 -168 -24 -288t-78.5 -206.5t-146.5 -128.5t-224 -42z" />
    <glyph glyph-name="registered.superior" unicode="&#xe514;" horiz-adv-x="716" 
d="M51 1311q0 127 90.5 217t216.5 90q128 0 218 -90t90 -217q0 -126 -90.5 -216.5t-217.5 -90.5q-126 0 -216.5 90.5t-90.5 216.5zM92 1311q0 -110 78 -188.5t188 -78.5q112 0 190.5 78t78.5 189q0 112 -78 190t-191 78q-111 0 -188.5 -78t-77.5 -190zM272 1274v-144h-45
v363h148q121 0 121 -111q0 -86 -80 -104l90 -148h-57l-82 144h-95zM272 1317h111q66 0 66 65q0 66 -66 66h-111v-131z" />
    <glyph glyph-name="numbersign.LP" unicode="&#xe533;" horiz-adv-x="983" 
d="M479 1565l-76 -443h289l76 443h76l-76 -443h154v-69h-166l-90 -541h159v-70h-172l-73 -442h-76l74 442h-289l-74 -442h-76l74 442h-152v70h164l90 541h-157v69h170l75 443h76zM391 1053l-90 -541h289l90 541h-289z" />
    <glyph glyph-name="zero.LP" unicode="&#xe534;" horiz-adv-x="1060" 
d="M530 49q72 0 119.5 10t88.5 39.5t64 78.5t39.5 133.5t22.5 196.5t6 275t-6 275.5t-22.5 197t-40 134t-64 79.5t-88 40t-119.5 10t-119.5 -10t-88 -40t-64 -79.5t-40 -134t-22.5 -197t-6 -275.5t6 -275t22.5 -196.5t39.5 -133.5t64 -78.5t88.5 -39.5t119.5 -10zM530 1585
q86 0 145 -12t108 -46.5t78.5 -89.5t49.5 -147.5t27.5 -213.5t7.5 -294t-7.5 -294t-28 -213t-49.5 -147t-78 -89.5t-108 -46.5t-145 -12t-145 12t-108 46.5t-78 89.5t-49 147t-27.5 213t-7.5 294t7.5 294t27.5 213.5t49 147.5t78 89.5t108 46.5t145 12z" />
    <glyph glyph-name="one.LP" unicode="&#xe536;" horiz-adv-x="733" 
d="M467 1585v-1585h-74v1460q-99 -140 -270 -227v67q73 41 138.5 108.5t139.5 176.5h66z" />
    <glyph glyph-name="two.LP" unicode="&#xe537;" horiz-adv-x="985" 
d="M481 1518q-85 0 -142.5 -22t-90 -66.5t-45.5 -103.5t-13 -142l-73 12q0 69 9.5 124t34 106t64.5 85t105 54t151 20q88 0 152.5 -18.5t104.5 -52t64 -87.5t33 -116.5t9 -147.5q0 -74 -16.5 -134.5t-42.5 -105t-75 -88.5t-95.5 -76t-122.5 -77q-58 -35 -101 -65
t-76.5 -62.5t-56 -60t-38 -66t-24.5 -70t-13.5 -83t-5.5 -94t-1 -113.5h707v-68h-785q0 126 4.5 208t21 155t38 117t67 92t96 83.5t136.5 87.5q131 81 196.5 142.5t89 122.5t23.5 155q0 97 -12 159.5t-43.5 108.5t-88 66.5t-145.5 20.5z" />
    <glyph glyph-name="three.LP" unicode="&#xe538;" horiz-adv-x="911" 
d="M436 47q172 0 251 84t79 270q0 93 -19 162.5t-46.5 107t-67.5 60.5t-74 29t-74 6h-172v74h172q39 0 71.5 6.5t68.5 27.5t60.5 56t41 97.5t16.5 146.5q0 190 -64 267t-233 77q-85 0 -142.5 -22t-89.5 -67t-45 -103.5t-13 -141.5l-74 12q0 69 9.5 124t34 106t64.5 85
t105 54t151 20q206 0 288.5 -90.5t82.5 -314.5q0 -155 -56 -250t-155 -125q234 -64 234 -412q0 -204 -97 -308.5t-307 -104.5q-366 0 -366 389l73 12q0 -59 6.5 -105t26 -90.5t51 -73.5t84.5 -47t125 -18z" />
    <glyph glyph-name="four.LP" unicode="&#xe539;" horiz-adv-x="950" 
d="M877 383h-193v-383h-68v383h-544v53l540 1149h72v-1136h193v-66zM618 449l5 1013l-480 -1018z" />
    <glyph glyph-name="five.LP" unicode="&#xe53a;" horiz-adv-x="929" 
d="M444 47q168 0 245 111.5t77 343.5q0 125 -18.5 212.5t-55 137.5t-85.5 72t-115 22q-99 0 -167.5 -47.5t-107.5 -110.5l-74 15l29 762h635v-68h-571l-27 -627q108 144 280 144q83 0 145 -25.5t109.5 -83.5t72 -159t24.5 -244q0 -522 -396 -522q-366 0 -366 389l74 12
q0 -59 6.5 -105t25.5 -90.5t50.5 -73.5t84.5 -47t125 -18z" />
    <glyph glyph-name="six.LP" unicode="&#xe53b;" horiz-adv-x="964" 
d="M518 1518q-51 0 -92 -9.5t-73.5 -26t-57.5 -46.5t-43 -63.5t-30 -86.5t-19.5 -104.5t-11.5 -127.5t-5.5 -147.5t-1.5 -171.5q123 242 377 242q168 0 247 -119.5t79 -380.5q0 -126 -19 -215t-62.5 -154t-117.5 -96.5t-182 -31.5q-98 0 -164 25.5t-112.5 79.5t-71.5 151.5
t-36 226t-11 319.5q0 155 6 264t23 204t45.5 154t74 102t108.5 61t150 18q107 0 181 -29.5t113 -85t55 -121.5t16 -153l-74 -12q0 83 -13 142t-45.5 103.5t-90 66.5t-142.5 22zM543 907q-121 0 -203.5 -70.5t-153.5 -211.5q0 -170 17.5 -281.5t58 -177.5t98.5 -92.5
t146 -26.5q166 0 236.5 97.5t70.5 334.5q0 160 -32 255.5t-89.5 134t-148.5 38.5z" />
    <glyph glyph-name="seven.LP" unicode="&#xe53c;" horiz-adv-x="847" 
d="M305 0h-76l373 1190l103 309l-240 -2h-385v68h696v-60z" />
    <glyph glyph-name="eight.LP" unicode="&#xe53d;" horiz-adv-x="950" 
d="M475 838q70 0 121.5 15.5t93 52t63 102.5t21.5 161q0 196 -67 272.5t-232 76.5t-232 -76.5t-67 -272.5q0 -95 21.5 -161t63 -102.5t93 -52t121.5 -15.5zM475 47q163 0 241.5 84t78.5 270q0 106 -23 179.5t-68 113.5t-100 57t-129 17t-129 -17t-99.5 -57t-67.5 -113.5
t-23 -179.5q0 -186 78.5 -270t240.5 -84zM475 1585q199 0 285 -94.5t86 -316.5q0 -162 -63.5 -254t-153.5 -115q26 -9 41 -15.5t43.5 -23t46.5 -34t40.5 -49.5t35.5 -70.5t22.5 -94.5t9.5 -123q0 -415 -393 -415t-393 415q0 67 9.5 123t22.5 94.5t36 70.5t41 49.5t46.5 34
t43.5 23t41 15.5q-91 23 -154.5 115.5t-63.5 253.5q0 222 86 316.5t285 94.5z" />
    <glyph glyph-name="nine.LP" unicode="&#xe53e;" horiz-adv-x="964" 
d="M446 47q51 0 92 9.5t73.5 25.5t57.5 46.5t43 64t30 86t19.5 104t11.5 127.5t5.5 147.5t1.5 171.5q-122 -241 -377 -241q-168 0 -246.5 119t-78.5 380q0 126 19 215.5t62.5 154.5t117.5 96.5t182 31.5q81 0 140 -16.5t104 -56.5t73.5 -98.5t46 -152t24.5 -207t7 -272.5
q0 -155 -6.5 -264t-23 -203.5t-45.5 -154t-74.5 -102t-108.5 -60.5t-150 -18q-86 0 -151 20t-105 54t-64.5 85t-34 106t-9.5 124l74 12q0 -83 13 -141.5t45 -103.5t89.5 -67t142.5 -22zM422 657q121 0 203 70.5t153 212.5q0 226 -33.5 352t-100.5 176t-185 50
q-166 0 -236.5 -98t-70.5 -335q0 -160 32 -255.5t89.5 -134t148.5 -38.5z" />
    <glyph glyph-name="zero.inf" unicode="&#xe571;" horiz-adv-x="632" 
d="M315 -356q69 0 101 27t45.5 99.5t13.5 227.5q0 156 -13.5 229.5t-45.5 101t-101 27.5q-68 0 -99.5 -27t-44.5 -99.5t-13 -227.5q0 -157 13 -230.5t44.5 -100.5t99.5 -27zM315 418q95 0 142.5 -33.5t68.5 -121.5t21 -263q0 -176 -21 -264.5t-68.5 -122t-142.5 -33.5
t-142 34t-67 121.5t-20 264.5q0 176 20 263t67 121t142 34z" />
    <glyph glyph-name="one.inf" unicode="&#xe572;" horiz-adv-x="507" 
d="M428 -410h-324v64h125v659q-48 -62 -135 -104v67q76 41 146 142h57v-764h131v-64z" />
    <glyph glyph-name="two.inf" unicode="&#xe573;" horiz-adv-x="612" 
d="M303 356q-76 0 -104.5 -36.5t-28.5 -118.5l-70 10q2 105 44 156t159 51q115 0 157 -52.5t42 -168.5q0 -50 -10.5 -86t-38 -66.5t-55.5 -51t-81 -54.5q-54 -34 -84 -60.5t-46 -61.5t-19.5 -68t-3.5 -95h356v-64h-430q0 102 5.5 157t29 100.5t56.5 72.5t102 70
q92 58 121.5 98.5t29.5 106.5q0 88 -27 124.5t-104 36.5z" />
    <glyph glyph-name="three.inf" unicode="&#xe574;" horiz-adv-x="606" 
d="M295 -358q79 0 115 39.5t36 125.5q0 53 -12 89t-33 52.5t-41.5 22.5t-46.5 6h-84v66h84q52 0 85.5 31.5t33.5 122.5q0 89 -29 124t-106 35q-75 0 -104 -38.5t-29 -122.5l-68 8q0 107 43 161t158 54q114 0 159.5 -47.5t45.5 -167.5q0 -158 -105 -191q121 -33 121 -211
q0 -110 -53 -165.5t-172 -55.5q-115 0 -160 56.5t-45 160.5l68 10q0 -81 29.5 -123t109.5 -42z" />
    <glyph glyph-name="four.inf" unicode="&#xe575;" horiz-adv-x="604" 
d="M526 -215h-96v-195h-65v195h-287v63l270 570h82v-572h96v-61zM365 -154l4 476l-226 -478z" />
    <glyph glyph-name="five.inf" unicode="&#xe576;" horiz-adv-x="591" 
d="M289 -358q76 0 111.5 52.5t35.5 160.5q0 117 -32.5 165t-96.5 48q-85 0 -131 -80l-63 12l16 408h356v-64h-295l-12 -287q54 70 144 70q91 0 136.5 -60.5t45.5 -211.5q0 -140 -52.5 -207.5t-164.5 -67.5q-106 0 -151.5 50t-45.5 169l70 11q2 -96 28.5 -132t100.5 -36z" />
    <glyph glyph-name="six.inf" unicode="&#xe577;" horiz-adv-x="618" 
d="M319 358q-35 0 -60 -8.5t-42 -29.5t-27.5 -47.5t-16 -71.5t-7.5 -91.5t-2 -117.5q61 119 192 119q88 0 129 -63.5t41 -201.5q0 -136 -48.5 -201t-164.5 -65q-132 0 -176.5 88.5t-44.5 331.5q0 95 5.5 159t20 116.5t40.5 82t66 45t98 15.5q97 0 144.5 -42t47.5 -136
l-70 -13q0 72 -32.5 101.5t-92.5 29.5zM330 49q-57 0 -95 -33t-71 -100q0 -158 33 -216t114 -58q79 0 112.5 45.5t33.5 156.5q0 112 -31 158.5t-96 46.5z" />
    <glyph glyph-name="seven.inf" unicode="&#xe578;" horiz-adv-x="569" 
d="M244 -410h-74l186 598l54 158l-123 -2h-195v64h387v-48z" />
    <glyph glyph-name="eight.inf" unicode="&#xe579;" horiz-adv-x="593" 
d="M297 356q-73 0 -103 -35t-30 -126q0 -85 34.5 -120.5t98.5 -35.5t98.5 35.5t34.5 120.5q0 91 -30 126t-103 35zM297 -20q-70 0 -107.5 -38t-37.5 -135q0 -87 35.5 -126t109.5 -39t109.5 39t35.5 126q0 97 -37.5 135t-107.5 38zM297 -420q-215 0 -215 219q0 57 11 97.5
t31.5 63t37 33t39.5 19.5q-45 12 -76 60t-31 129q0 118 47 167.5t156 49.5t156 -49.5t47 -167.5q0 -81 -30.5 -129t-74.5 -60q23 -9 38.5 -19.5t36 -33t31.5 -63.5t11 -97q0 -219 -215 -219z" />
    <glyph glyph-name="nine.inf" unicode="&#xe57a;" horiz-adv-x="618" 
d="M293 -358q101 0 131.5 77.5t30.5 286.5q-61 -119 -191 -119q-88 0 -130 64t-42 201t48 201.5t167 64.5q130 0 174.5 -88.5t44.5 -329.5q0 -235 -47.5 -327.5t-187.5 -92.5q-97 0 -147 42.5t-50 137.5l70 11q0 -71 34.5 -100t94.5 -29zM289 -49q57 0 95 32.5t71 98.5
q0 158 -34.5 217t-113.5 59q-78 0 -110.5 -46t-32.5 -158t30 -157.5t95 -45.5z" />
    <glyph glyph-name="plus.inf" unicode="&#xe57b;" horiz-adv-x="819" 
d="M375 -287v273h-273v69h273v273h69v-273h273v-69h-273v-273h-69z" />
    <glyph glyph-name="minus.inf" unicode="&#xe57c;" horiz-adv-x="819" 
d="M717 -14h-615v69h615v-69z" />
    <glyph glyph-name="equal.inf" unicode="&#xe57d;" horiz-adv-x="819" 
d="M717 -137h-615v69h615v-69zM717 109h-615v69h615v-69z" />
    <glyph glyph-name="parenleft.inf" unicode="&#xe57e;" horiz-adv-x="471" 
d="M238 -6q0 -127 31.5 -267.5t78.5 -250.5h-78q-116 245 -116 518t116 518h78q-47 -110 -78.5 -250.5t-31.5 -267.5z" />
    <glyph glyph-name="parenright.inf" unicode="&#xe57f;" horiz-adv-x="471" 
d="M233 -6q0 127 -31.5 267.5t-78.5 250.5h78q116 -245 116 -518t-116 -518h-78q47 110 78.5 250.5t31.5 267.5z" />
    <glyph glyph-name="plus.cap" unicode="&#xe591;" horiz-adv-x="1802" 
d="M866 0v764h-764v70h764v763h70v-763h764v-70h-764v-764h-70z" />
    <glyph glyph-name="minus.cap" unicode="&#xe592;" horiz-adv-x="1802" 
d="M102 764v70h1598v-70h-1598z" />
    <glyph glyph-name="multiply.cap" unicode="&#xe593;" horiz-adv-x="1802" 
d="M82 29l770 770l-770 770l49 49l770 -770l770 770l49 -49l-770 -770l770 -770l-49 -49l-770 770l-770 -770z" />
    <glyph glyph-name="divide.cap" unicode="&#xe594;" horiz-adv-x="1802" 
d="M963 123v-123h-123v123h123zM963 1597v-122h-123v122h123zM102 764v70h1598v-70h-1598z" />
    <glyph glyph-name="equal.cap" unicode="&#xe595;" horiz-adv-x="1802" 
d="M102 469v70h1598v-70h-1598zM102 1059v69h1598v-69h-1598z" />
    <glyph glyph-name="less.cap" unicode="&#xe596;" horiz-adv-x="1802" 
d="M510 956l-332 -157l332 -158l1190 -582v-79l-1598 786v65l1598 787v-80z" />
    <glyph glyph-name="greater.cap" unicode="&#xe597;" horiz-adv-x="1802" 
d="M1292 641l332 158l-332 157l-1190 582v80l1598 -787v-65l-1598 -786v79z" />
    <glyph glyph-name="idotaccent" horiz-adv-x="315" 
d="M121 0v1085h74v-1085h-74zM213 1516v-111h-111v111h111z" />
    <glyph glyph-name="f_dotlessi" horiz-adv-x="886" 
d="M66 1020v65h127v396q0 178 208 178q63 0 115 -21l-10 -69q-47 20 -105 20q-69 0 -102 -24t-33 -99v-381h221v-65h-221v-1020h-73v1020h-127zM692 0v1085h74v-1085h-74z" />
    <glyph glyph-name="interrobangdown.cap" horiz-adv-x="864" 
d="M326 778l71 49l15 381h41l39 -1159q120 15 167.5 96.5t47.5 247.5l75 -12q0 -214 -80 -307.5t-270 -93.5q-186 0 -268 88t-82 303q0 69 12 124.5t31.5 93t49 69.5t58.5 54t66 48zM160 373q0 -163 52.5 -237.5t160.5 -86.5l22 688q-3 -1 -8 -4t-6 -4q-36 -23 -54.5 -36
t-46.5 -35t-42.5 -39t-32 -44t-25.5 -54.5t-14 -65t-6 -82.5zM377 1487v110h110v-110h-110z" />
    <glyph glyph-name="period.T" horiz-adv-x="532" 
d="M322 111v-111h-111v111h111z" />
    <glyph glyph-name="comma.T" horiz-adv-x="532" 
d="M213 102h106l-81 -438h-50z" />
    <glyph glyph-name="colon.T" horiz-adv-x="532" 
d="M322 111v-111h-111v111h111zM322 889v-111h-111v111h111z" />
    <glyph glyph-name="semicolon.T" horiz-adv-x="532" 
d="M213 102h106l-81 -438h-50zM322 889v-111h-111v111h111z" />
    <glyph glyph-name="musicnaturalsign" horiz-adv-x="815" 
d="M645 1346v-1448h-74v675l-401 -321v1448h74v-676zM244 903v-471l327 262v471z" />
    <glyph glyph-name="circle" horiz-adv-x="1536" 
d="M205 543q0 153 75.5 282.5t205 205t282.5 75.5t282.5 -75.5t205 -205t75.5 -282.5t-75.5 -282.5t-205 -205t-282.5 -75.5t-282.5 75.5t-205 205t-75.5 282.5z" />
    </font>
</defs>
</svg>
