<?xml version="1.0" standalone="no"?>
<!DOCTYPE svg PUBLIC "-//W3C//DTD SVG 1.1//EN" "http://www.w3.org/Graphics/SVG/1.1/DTD/svg11.dtd" >
<svg xmlns="http://www.w3.org/2000/svg" xmlns:xlink="http://www.w3.org/1999/xlink" version="1.1">
<metadata>
Created by FontForge 20170731 at Wed Jan 28 20:48:45 2015
 By Aleksey,,,
Copyright (c) 2008 by Village Type &#38; Design LLC. All rights reserved.
</metadata>
<defs>
<font id="GalaxiePolarisCondensed-Book" horiz-adv-x="958" >
  <font-face 
    font-family="Galaxie Polaris Condensed Book"
    font-weight="600"
    font-stretch="normal"
    units-per-em="2048"
    panose-1="2 0 0 0 0 0 0 0 0 0"
    ascent="1638"
    descent="-410"
    x-height="1085"
    cap-height="1597"
    bbox="-287 -524 2787 2150"
    underline-thickness="61"
    underline-position="-264"
    unicode-range="U+0020-E597"
  />
<missing-glyph horiz-adv-x="1998" 
d="M201 0v1597h1597v-1597h-1597zM999 707l-571 -572h1143zM428 1462l571 -571l572 571h-1143zM907 799l-563 563v-1126zM1092 799l563 -563v1126z" />
    <glyph glyph-name="interrobang" unicode="&#x21;&#x3f;" horiz-adv-x="907" 
d="M578 797l-74 -43l-12 -340h-91l-41 1075q-84 -23 -117.5 -96.5t-33.5 -214.5l-133 18q0 226 84.5 325t292.5 99q200 0 288 -89.5t88 -309.5q0 -93 -17 -160.5t-58 -116.5t-71 -73.5t-93 -65.5q-8 -5 -12 -8zM688 1214q0 131 -38.5 196.5t-117.5 80.5l-22 -588
q47 30 75.5 54t54 59.5t37 83.5t11.5 114zM524 156v-156h-155v156h155z" />
    <glyph glyph-name="interrobangdown" unicode="&#xa1;&#xbf;" horiz-adv-x="907" 
d="M328 326l73 43l13 303h90l37 -971q85 21 120 95t35 216l133 -18q0 -226 -84 -325t-292 -99q-196 0 -286.5 89.5t-90.5 283.5q0 46 7.5 86t16.5 68.5t31 59t35 46.5t46.5 42t47 35.5t53.5 35.5q10 7 15 10zM217 -51q0 -111 39.5 -172t120.5 -78l18 520
q-47 -31 -75.5 -53.5t-54.5 -54.5t-37 -71t-11 -91zM539 1085v-159h-160v159h160z" />
    <glyph glyph-name=".notdef" horiz-adv-x="1998" 
d="M201 0v1597h1597v-1597h-1597zM999 707l-571 -572h1143zM428 1462l571 -571l572 571h-1143zM907 799l-563 563v-1126zM1092 799l563 -563v1126z" />
    <glyph glyph-name=".null" horiz-adv-x="0" 
 />
    <glyph glyph-name="nonmarkingreturn" horiz-adv-x="682" 
 />
    <glyph glyph-name="space" unicode=" " horiz-adv-x="360" 
 />
    <glyph glyph-name="exclam" unicode="!" horiz-adv-x="372" 
d="M264 156v-156h-155v156h155zM96 1597h180l-45 -1183h-90z" />
    <glyph glyph-name="quotedbl" unicode="&#x22;" horiz-adv-x="632" 
d="M111 1597h168l-31 -512h-105zM354 1597h168l-30 -512h-105z" />
    <glyph glyph-name="numbersign" unicode="#" horiz-adv-x="1064" 
d="M178 1024v123h166l72 418h119l-70 -418h256l72 418h120l-71 -418h137v-123h-158l-82 -483h148v-123h-168l-70 -418h-121l70 418h-256l-72 -418h-118l69 418h-135v123h156l82 483h-146zM442 1024l-80 -483h259l79 483h-258z" />
    <glyph glyph-name="dollar" unicode="$" horiz-adv-x="849" 
d="M412 336q225 0 225 199q0 96 -50.5 138.5t-183.5 76.5q-52 12 -88 24t-77 34.5t-65.5 51.5t-41 75.5t-16.5 106.5q0 306 352 306l68 217h124l-71 -226q96 -12 176 -55l-35 -119q-101 66 -260 66q-113 0 -164 -51t-51 -133q0 -83 42.5 -122t166.5 -73q42 -11 68.5 -18.5
t63 -21.5t59 -29t47.5 -38.5t39 -52t23 -68t9 -87.5q0 -157 -87.5 -238.5t-278.5 -81.5l-68 -217h-125l74 225q-126 19 -205 68l35 123q132 -80 295 -80z" />
    <glyph glyph-name="percent" unicode="%" horiz-adv-x="1568" 
d="M365 1477q-64 0 -98 -27.5t-49 -95.5t-15 -197q0 -190 33.5 -255.5t128.5 -65.5q65 0 99 27.5t49 95.5t15 198q0 189 -34 254.5t-129 65.5zM317 0l799 1565h133l-798 -1565h-134zM365 727q-106 0 -166 40t-87.5 132.5t-27.5 257.5q0 242 62 335t219 93t219.5 -93
t62.5 -335t-62.5 -336t-219.5 -94zM1202 88q64 0 98.5 27.5t50 95.5t15.5 197q0 130 -15.5 198t-49.5 95.5t-99 27.5q-95 0 -128.5 -65.5t-33.5 -255.5q0 -129 15 -197t49 -95.5t98 -27.5zM1202 838q157 0 220 -94t63 -336t-63 -335t-220 -93t-218.5 92.5t-61.5 335.5
q0 165 27.5 257.5t87 132.5t165.5 40z" />
    <glyph glyph-name="ampersand" unicode="&#x26;" horiz-adv-x="1052" 
d="M948 725q0 -257 -84 -451q99 -105 119 -114v-180q-59 39 -186 178q-131 -178 -351 -178q-378 0 -378 448q0 143 46 247t132 191q-129 220 -129 404q0 173 69.5 260.5t233.5 87.5q84 0 142 -21t88.5 -63t43.5 -92.5t13 -120.5q0 -47 -8 -88.5t-29.5 -81.5t-39 -68t-57 -69
t-61.5 -62t-74 -68q-23 -21 -35 -32q139 -217 371 -479q53 151 53 354q0 135 -30 229l118 17q33 -112 33 -248zM455 98q159 0 260 150q-219 243 -402 512q-112 -138 -112 -324q0 -98 18.5 -165.5t54 -104.5t79 -52.5t102.5 -15.5zM248 1274q0 -149 94 -320q42 37 57 50
t49.5 45t47.5 48.5t35.5 46t31 52t16 52.5t7.5 61q0 89 -36 138.5t-128 49.5q-174 0 -174 -223z" />
    <glyph glyph-name="quotesingle" unicode="'" horiz-adv-x="389" 
d="M111 1597h168l-31 -512h-105z" />
    <glyph glyph-name="parenleft" unicode="(" horiz-adv-x="561" 
d="M248 717q0 -285 53 -511t166 -472h-131q-98 167 -161.5 431t-63.5 552t63.5 552t161.5 431h131q-113 -246 -166 -472t-53 -511z" />
    <glyph glyph-name="parenright" unicode=")" horiz-adv-x="561" 
d="M311 717q0 287 -52.5 512.5t-164.5 470.5h131q98 -168 162 -431.5t64 -551.5t-64 -551.5t-162 -431.5h-131q112 245 164.5 470.5t52.5 512.5z" />
    <glyph glyph-name="asterisk" unicode="*" horiz-adv-x="675" 
d="M285 1597h106l-16 -233l215 90l33 -100l-224 -56l148 -174l-86 -61l-123 199l-123 -199l-86 61l147 174l-223 56l33 100l215 -90z" />
    <glyph glyph-name="plus" unicode="+" horiz-adv-x="1474" 
d="M674 246v491h-490v123h490v492h127v-492h489v-123h-489v-491h-127z" />
    <glyph glyph-name="comma" unicode="," horiz-adv-x="368" 
d="M104 156h162l-94 -469h-96z" />
    <glyph glyph-name="hyphen" unicode="-" horiz-adv-x="792" 
d="M672 625h-551v123h551v-123z" />
    <glyph glyph-name="period" unicode="." horiz-adv-x="368" 
d="M262 156v-156h-156v156h156z" />
    <glyph glyph-name="slash" unicode="/" horiz-adv-x="700" 
d="M657 1782l-471 -1966h-141l469 1966h143z" />
    <glyph glyph-name="zero" unicode="0" horiz-adv-x="1064" 
d="M244 782q0 -152 5 -256.5t19 -183t33.5 -124t54.5 -73t75 -36.5t101 -9t101.5 9t75 36.5t54 73t34 124t19.5 183t5 256.5t-5 256.5t-19.5 183.5t-34 124.5t-54 73.5t-75 37t-101.5 9t-101 -9t-75 -37t-54.5 -73.5t-33.5 -124.5t-19 -183.5t-5 -256.5zM956 782
q0 -172 -8 -293.5t-28.5 -213.5t-50.5 -147t-80 -89.5t-110 -46.5t-147 -12t-147 12t-110 46.5t-79.5 89.5t-50 147t-28.5 213t-8 294t8 294t28.5 213t50 147.5t79.5 89.5t110 46.5t147 12.5t147 -12.5t110 -46.5t80 -89.5t50.5 -147.5t28.5 -213t8 -294z" />
    <glyph glyph-name="one" unicode="1" horiz-adv-x="1064" 
d="M977 0h-832v121h349v1253q-117 -181 -369 -272v133q136 50 225 135.5t166 214.5h113v-1464h348v-121z" />
    <glyph glyph-name="two" unicode="2" horiz-adv-x="1064" 
d="M526 1466q-140 0 -193.5 -75t-53.5 -240l-134 18q0 79 9 138.5t34 114t67 88.5t110.5 54.5t162.5 20.5q113 0 187 -26t115 -82.5t57 -130.5t16 -185q0 -64 -9 -115.5t-31 -95.5t-47 -77.5t-69.5 -70t-85.5 -65t-108 -69.5q-52 -32 -90.5 -60t-68.5 -58t-50.5 -54.5
t-35 -59t-22 -62.5t-12 -72.5t-5.5 -82t-1 -98.5h670v-121h-813q0 133 3.5 215t19.5 158.5t36.5 121t66 94.5t97 87t139.5 92q173 107 228 184t55 203q0 85 -10 140t-36.5 95.5t-74.5 58t-123 17.5z" />
    <glyph glyph-name="three" unicode="3" horiz-adv-x="1064" 
d="M518 98q148 0 214.5 76.5t66.5 241.5q0 83 -15.5 143.5t-39 94.5t-58.5 54t-65 25.5t-68 5.5h-160v125h160q34 0 62 6t58.5 24.5t51 49.5t34 86t13.5 129q0 172 -53 239.5t-197 67.5q-143 0 -195.5 -74t-52.5 -237l-131 19q0 98 16.5 168.5t57.5 127.5t117 86t188 29
q211 0 297 -91.5t86 -319.5q0 -301 -194 -367q223 -61 223 -404q0 -209 -98.5 -316t-321.5 -107q-111 0 -188 30.5t-118.5 89t-59 129.5t-17.5 166l131 19q0 -75 10.5 -128t37.5 -98t79 -67.5t129 -22.5z" />
    <glyph glyph-name="four" unicode="4" horiz-adv-x="1064" 
d="M967 373h-191v-373h-127v373h-553v110l522 1102h158v-1093h191v-119zM651 492l6 905l-432 -912z" />
    <glyph glyph-name="five" unicode="5" horiz-adv-x="1064" 
d="M520 98q146 0 211.5 99t65.5 309q0 153 -29.5 244t-80 126t-130.5 35q-88 0 -150 -44.5t-96 -104.5l-121 20l31 783h672v-121h-555l-25 -551q106 135 271 135q83 0 144.5 -25.5t108.5 -84.5t71 -162t24 -250q0 -269 -101 -397.5t-313 -128.5q-108 0 -184 29t-119.5 85
t-62.5 127.5t-19 167.5l135 19q1 -74 11.5 -126t36.5 -96t77 -66t127 -22z" />
    <glyph glyph-name="six" unicode="6" horiz-adv-x="1064" 
d="M547 1468q-43 0 -78 -8t-62.5 -22t-48.5 -40.5t-36 -55.5t-25.5 -75.5t-17 -92.5t-10 -114t-4.5 -132t-1 -154q58 112 143.5 167.5t208.5 55.5q168 0 243 -120t75 -388q0 -263 -88.5 -386t-308.5 -123q-85 0 -146.5 16.5t-107.5 57t-75 99.5t-47 152.5t-25 206t-7 270.5
q0 130 4.5 225.5t16 183.5t32 148t52 109.5t76.5 78t104.5 43.5t136.5 15q88 0 154 -19t108 -52.5t67.5 -84t35.5 -107.5t10 -130l-133 -21q-1 77 -12 128.5t-38 91.5t-75 58.5t-121 18.5zM569 877q-103 0 -171.5 -60t-131.5 -186q0 -208 28.5 -324.5t85.5 -163.5t157 -47
q145 0 203.5 88t58.5 303q0 214 -56.5 302t-173.5 88z" />
    <glyph glyph-name="seven" unicode="7" horiz-adv-x="1064" 
d="M449 0h-142l363 1143l102 303l-235 -2h-379v121h749v-92z" />
    <glyph glyph-name="eight" unicode="8" horiz-adv-x="1064" 
d="M532 1466q-140 0 -198 -68t-58 -241q0 -162 66.5 -229.5t189.5 -67.5t189.5 67.5t66.5 229.5q0 173 -58 241t-198 68zM532 745q-65 0 -113 -14.5t-87 -50.5t-58.5 -102t-19.5 -162q0 -166 68 -242t210 -76t210.5 76t68.5 242q0 96 -20 162t-59 102t-87 50.5t-113 14.5z
M532 -20q-216 0 -313.5 107.5t-97.5 311.5q0 87 15.5 156t37 109.5t55.5 71.5t58.5 44.5t58.5 26.5q-85 24 -143 116.5t-58 245.5q0 226 89 321t298 95q210 0 299 -95.5t89 -320.5q0 -153 -58 -245.5t-143 -116.5q34 -13 58.5 -26.5t58.5 -44.5t55.5 -71.5t37 -109.5
t15.5 -156q0 -204 -98 -311.5t-314 -107.5z" />
    <glyph glyph-name="nine" unicode="9" horiz-adv-x="1064" 
d="M518 96q49 0 86.5 8.5t66.5 30.5t49.5 48.5t35 73t23 93.5t13 120.5t6 143.5t1.5 172q-58 -110 -144 -164.5t-209 -54.5q-165 0 -241 121t-76 387q0 263 88.5 386.5t308.5 123.5q85 0 146.5 -17t107.5 -57.5t75 -99t47 -152.5t25 -206.5t7 -270.5q0 -152 -6 -259
t-23 -202.5t-46.5 -155t-77 -104t-113.5 -63t-156 -18.5q-88 0 -154 19t-108 52.5t-67.5 84t-35.5 107.5t-10 130l133 20q1 -77 12 -128.5t38 -91.5t76 -58.5t122 -18.5zM494 688q103 0 172.5 60t130.5 182q0 208 -28.5 325t-85.5 165t-157 48q-143 0 -202.5 -88t-59.5 -303
q0 -213 57 -301t173 -88z" />
    <glyph glyph-name="colon" unicode=":" horiz-adv-x="368" 
d="M262 156v-156h-156v156h156zM262 907v-155h-156v155h156z" />
    <glyph glyph-name="semicolon" unicode=";" horiz-adv-x="368" 
d="M262 907v-155h-156v155h156zM104 156h162l-94 -469h-96z" />
    <glyph glyph-name="less" unicode="&#x3c;" horiz-adv-x="1474" 
d="M303 799l318 -135l669 -289v-133l-1106 491v131l1106 492v-133l-669 -289z" />
    <glyph glyph-name="equal" unicode="=" horiz-adv-x="1474" 
d="M1290 555h-1106v125h1106v-125zM1290 918h-1106v124h1106v-124z" />
    <glyph glyph-name="greater" unicode="&#x3e;" horiz-adv-x="1474" 
d="M854 664l317 135l-317 135l-670 289v133l1106 -492v-131l-1106 -491v133z" />
    <glyph glyph-name="question" unicode="?" horiz-adv-x="905" 
d="M485 414h-94q-53 128 -53 231q0 93 37.5 148.5t118.5 103.5q44 28 68 45.5t52.5 46t42.5 57.5t23.5 71.5t9.5 96.5q0 160 -57 222.5t-180 62.5q-138 0 -191 -74t-53 -247l-133 18q0 225 85 324.5t292 99.5q199 0 287.5 -89.5t88.5 -309.5q0 -89 -16.5 -153.5t-58 -112
t-69.5 -69.5t-91 -62q-15 -10 -23 -15q-66 -45 -90.5 -84t-27.5 -100q-3 -81 32 -211zM514 156v-156h-156v156h156z" />
    <glyph glyph-name="at" unicode="@" horiz-adv-x="1851" 
d="M1141 387v444q-111 156 -252 156q-69 0 -116 -26.5t-72.5 -79t-35.5 -117.5t-10 -156q0 -90 10 -154.5t35.5 -117t72.5 -79t116 -26.5q141 0 252 156zM1255 133h-90l-12 133q-55 -76 -129 -115.5t-158 -39.5q-82 0 -143 23.5t-99.5 64.5t-62 105t-32.5 136.5t-9 167.5
q0 120 15.5 206t52.5 154.5t106.5 103t171.5 34.5q174 0 289 -154l10 133h113l-4 -225v-610q87 0 149.5 25.5t101 69t61 115.5t30.5 151.5t8 189.5q0 90 -6.5 162.5t-25 149.5t-49.5 135t-83 111t-122.5 87t-170.5 54t-225 20q-165 0 -285.5 -35.5t-202 -104.5t-130.5 -182
t-70 -256t-21 -338q0 -163 14 -287.5t47.5 -230t89.5 -177.5t138.5 -122.5t195.5 -74t261 -23.5q217 0 356 31.5t293 95.5l49 -111q-157 -66 -311 -100.5t-387 -34.5q-244 0 -410 57t-272 183.5t-152.5 319.5t-46.5 474q0 372 86.5 598t270.5 331t487 105q190 0 333 -43
t233 -116t146 -182t77.5 -228t21.5 -268q0 -168 -25.5 -289t-83.5 -207.5t-154.5 -129t-234.5 -42.5z" />
    <glyph glyph-name="A" unicode="A" horiz-adv-x="987" 
d="M391 1616h203l338 -1616h-137l-70 346h-463l-69 -346h-138zM494 1495l-209 -1030h415z" />
    <glyph glyph-name="B" unicode="B" horiz-adv-x="1036" 
d="M604 0h-483v1597h471q83 0 139.5 -19t98.5 -64.5t61.5 -125.5t19.5 -198q0 -287 -170 -361q203 -54 203 -407q0 -121 -22 -204t-67 -130.5t-105.5 -67.5t-145.5 -20zM256 121h317q46 0 79.5 7t64 27t49.5 53.5t30 87.5t11 128q0 82 -12 142.5t-32 96.5t-50 58t-61 29.5
t-70 7.5h-326v-637zM569 1477h-313v-596h317q95 0 147 75.5t52 229.5q0 170 -47 230.5t-156 60.5z" />
    <glyph glyph-name="C" unicode="C" horiz-adv-x="995" 
d="M233 799q0 -132 4.5 -224.5t16.5 -175.5t32.5 -135.5t54 -91.5t80.5 -55.5t111 -16.5q78 0 126.5 18t75.5 61t37 102t11 155l136 -20q0 -114 -16.5 -190.5t-58.5 -134t-118 -84.5t-190 -27q-102 0 -174.5 27.5t-124 85t-81.5 156t-43.5 231t-13.5 319.5t13.5 319.5
t43.5 231t81.5 156t124 85t174.5 27.5q114 0 190 -27t118 -84.5t58.5 -134t16.5 -190.5l-136 -21q-1 96 -11 155t-37 102t-75.5 61t-126.5 18q-64 0 -111 -16.5t-80.5 -55.5t-54 -91t-32.5 -135t-16.5 -175.5t-4.5 -224.5z" />
    <glyph glyph-name="D" unicode="D" horiz-adv-x="1050" 
d="M422 0h-301v1597h301q108 0 185.5 -15.5t138 -54t99 -96.5t63 -149.5t34.5 -207t10 -275.5t-10 -275.5t-34.5 -207.5t-63 -150t-99 -96.5t-138 -54t-185.5 -15.5zM256 121h184q82 0 140.5 14t101 49.5t68 83.5t40.5 129.5t20 173.5t5 228t-5 228t-20 173.5t-40.5 129.5
t-68 83.5t-101 49.5t-140.5 14h-184v-1356z" />
    <glyph glyph-name="E" unicode="E" horiz-adv-x="876" 
d="M121 1597h641v-120h-506v-596h438v-121h-438v-639h543v-121h-678v1597z" />
    <glyph glyph-name="F" unicode="F" horiz-adv-x="817" 
d="M256 760v-760h-135v1597h639v-120h-504v-596h440v-121h-440z" />
    <glyph glyph-name="G" unicode="G" horiz-adv-x="1044" 
d="M98 799q0 184 14 315t45.5 230t85 158t129.5 87.5t183 28.5q116 0 191.5 -26.5t117.5 -85t58 -134.5t16 -190l-135 -21q-1 95 -11 154.5t-37.5 102.5t-76 61t-125.5 18q-78 0 -132.5 -25.5t-91.5 -76t-58 -136.5t-29.5 -195t-8.5 -265q0 -100 2 -173.5t8 -145t16 -121.5
t26.5 -95.5t39.5 -74t54 -50t71 -30.5t91 -9q157 0 266 50v552h-211v119h342v-751q-89 -47 -181 -68.5t-218 -21.5q-107 0 -182 29t-126 86.5t-80 158.5t-41 230t-12 315z" />
    <glyph glyph-name="H" unicode="H" horiz-adv-x="1056" 
d="M803 1597h133v-1597h-133v760h-547v-760h-135v1597h135v-716h547v716z" />
    <glyph glyph-name="I" unicode="I" horiz-adv-x="393" 
d="M264 1597v-1597h-135v1597h135z" />
    <glyph glyph-name="J" unicode="J" horiz-adv-x="835" 
d="M586 1597h133v-1222q0 -214 -77 -304.5t-253 -90.5q-77 0 -133.5 19t-89.5 49.5t-53 79t-26.5 97t-6.5 113.5l131 18q0 -64 7 -107.5t25.5 -80.5t55.5 -53.5t94 -14.5q116 3 154.5 64t38.5 209v1224z" />
    <glyph glyph-name="K" unicode="K" horiz-adv-x="944" 
d="M256 1597l-4 -888l453 888h155l-373 -704l408 -893h-154l-340 768l-149 -274l4 -494h-135v1597h135z" />
    <glyph glyph-name="L" unicode="L" horiz-adv-x="774" 
d="M256 1597v-1476h477v-121h-612v1597h135z" />
    <glyph glyph-name="M" unicode="M" horiz-adv-x="1288" 
d="M717 0h-146l-325 1343l10 -1343h-135v1597h196l328 -1394l328 1394h194v-1597h-133l8 1343z" />
    <glyph glyph-name="N" unicode="N" horiz-adv-x="1038" 
d="M289 1597l356 -958l150 -418l-7 510v866h130v-1597h-166l-359 958l-149 418l6 -510l2 -866h-131v1597h168z" />
    <glyph glyph-name="O" unicode="O" horiz-adv-x="1032" 
d="M516 -20q-100 0 -171 29t-119.5 87t-76 158t-39.5 230t-12 315t12 315t39.5 230t76 158t119.5 87t171 29t171 -29t119.5 -87t76 -158t39.5 -230t12 -315t-12 -315t-39.5 -230t-76 -158t-119.5 -87t-171 -29zM516 1497q-71 0 -119 -24.5t-80 -72t-49.5 -134.5t-24.5 -196
t-7 -271t7 -271t24.5 -196t49.5 -135t80 -72.5t119 -24.5t119 24.5t80.5 72.5t50 135t24.5 196t7 271q0 135 -4.5 231t-16.5 178t-32 133.5t-51.5 88t-74.5 52t-102 15.5z" />
    <glyph glyph-name="P" unicode="P" horiz-adv-x="905" 
d="M256 778h195q84 0 135 29.5t79.5 107t28.5 211.5q0 196 -58.5 273.5t-184.5 77.5h-195v-699zM256 655v-655h-135v1597h338q69 0 122.5 -12t102 -44t79.5 -84.5t49.5 -135.5t18.5 -195t-18.5 -195t-49.5 -135.5t-79 -84.5t-101.5 -44t-121.5 -12h-205z" />
    <glyph glyph-name="Q" unicode="Q" horiz-adv-x="1032" 
d="M829 -432l-553 477q-97 83 -137.5 260.5t-40.5 493.5q0 185 12 315t39.5 230t76 158t119.5 87t171 29t171 -29t119.5 -87t76 -158t39.5 -230t12 -315q0 -183 -11.5 -311.5t-38.5 -228.5t-74 -158.5t-116 -88.5t-166 -32l355 -281zM516 1497q-71 0 -119 -24.5t-80 -72
t-49.5 -134.5t-24.5 -196t-7 -271t7 -271t24.5 -196t49.5 -135t80 -72.5t119 -24.5t119 24.5t80.5 72.5t50 135t24.5 196t7 271q0 135 -4.5 231t-16.5 178t-32 133.5t-51.5 88t-74.5 52t-102 15.5z" />
    <glyph glyph-name="R" unicode="R" horiz-adv-x="940" 
d="M256 684v-684h-135v1597h348q70 0 122 -10.5t100.5 -39.5t78.5 -79t48 -132t18 -195q0 -213 -58 -314t-170 -129l258 -698h-151l-238 684h-221zM256 805h201q64 0 106.5 14t74 50.5t46 103t14.5 168.5t-14.5 168.5t-46 103t-74 50.5t-106.5 14h-201v-672z" />
    <glyph glyph-name="S" unicode="S" horiz-adv-x="950" 
d="M451 98q154 0 221 71.5t67 244.5q0 85 -12.5 138.5t-46.5 92t-82 61t-131 46.5q-47 14 -79.5 25.5t-72 30.5t-66.5 40t-54.5 53.5t-43.5 71.5t-26 92.5t-10 118.5q0 227 88.5 331.5t298.5 104.5q68 0 121.5 -11.5t90.5 -31t63.5 -52t41.5 -65.5t23.5 -81t11 -90.5
t2.5 -100.5l-133 -19q0 56 -2 93t-9.5 78.5t-22.5 67.5t-39 48.5t-61.5 32.5t-88.5 10q-128 0 -188 -71.5t-60 -241.5q0 -99 24 -155t76.5 -88t155.5 -60q52 -14 89 -26.5t78.5 -32.5t69.5 -43t55 -57.5t42.5 -77t25 -100t9.5 -128.5q0 -231 -104.5 -336t-323.5 -105
q-113 0 -188.5 30.5t-115.5 92t-55.5 137.5t-15.5 185l133 18q0 -90 8.5 -147t33.5 -104.5t74.5 -69t127.5 -21.5z" />
    <glyph glyph-name="T" unicode="T" horiz-adv-x="823" 
d="M479 1477v-1477h-135v1477h-303v120h741v-120h-303z" />
    <glyph glyph-name="U" unicode="U" horiz-adv-x="1032" 
d="M516 -23q-99 0 -170 18t-115.5 51t-70.5 87t-35.5 116.5t-9.5 149.5v1198h137v-1194q0 -68 4.5 -110.5t20 -83.5t44 -63t76.5 -35t119 -13t119 13t76.5 35t44 63t20 83.5t4.5 110.5v1194h138v-1198q0 -87 -9.5 -149.5t-35.5 -116.5t-71 -87t-116 -51t-170 -18z" />
    <glyph glyph-name="V" unicode="V" horiz-adv-x="987" 
d="M594 -18h-203l-336 1615h138l301 -1495l301 1495h137z" />
    <glyph glyph-name="W" unicode="W" horiz-adv-x="1349" 
d="M905 -20l-229 1433l-232 -1433h-182l-188 1617h129l157 -1423l232 1423h168l229 -1423l158 1423h129l-189 -1617h-182z" />
    <glyph glyph-name="X" unicode="X" horiz-adv-x="1073" 
d="M862 0l-325 731l-326 -731h-154l377 838l-332 759h150l285 -665l284 665h150l-332 -759l379 -838h-156z" />
    <glyph glyph-name="Y" unicode="Y" horiz-adv-x="991" 
d="M496 758l309 839h141l-385 -993l2 -604h-135l2 604l-387 993h143z" />
    <glyph glyph-name="Z" unicode="Z" horiz-adv-x="948" 
d="M66 0v100l532 1137l117 244l-326 -2h-301v118h776v-100l-532 -1137l-119 -243l328 2h340v-119h-815z" />
    <glyph glyph-name="bracketleft" unicode="[" horiz-adv-x="561" 
d="M516 1579h-174v-1724h174v-121h-311v1966h311v-121z" />
    <glyph glyph-name="backslash" unicode="\" horiz-adv-x="700" 
d="M514 -184l-469 1966h141l471 -1966h-143z" />
    <glyph glyph-name="bracketright" unicode="]" horiz-adv-x="579" 
d="M63 -145h175v1724h-175v121h310v-1966h-310v121z" />
    <glyph glyph-name="asciicircum" unicode="^" horiz-adv-x="1052" 
d="M467 1620h119l420 -801h-142l-190 371l-148 295l-149 -295l-191 -371h-139z" />
    <glyph glyph-name="underscore" unicode="_" horiz-adv-x="675" 
d="M614 -410h-553v109h553v-109z" />
    <glyph glyph-name="grave" unicode="`" horiz-adv-x="1269" 
d="M453 1638h145l102 -426h-125z" />
    <glyph glyph-name="a" unicode="a" horiz-adv-x="907" 
d="M463 1001q-111 0 -157 -49.5t-46 -160.5l-135 18q0 150 76.5 223.5t261.5 73.5q91 0 155 -18.5t102.5 -57.5t56 -93.5t18.5 -131.5v-567l6 -238h-115l-12 133q-105 -153 -314 -153q-144 0 -211 85t-67 230q0 164 95 245.5t296 108.5l191 25v147q0 180 -201 180zM217 301
q0 -113 46.5 -161t135.5 -48q76 0 147 39t118 107v337l-177 -24q-141 -20 -205.5 -72.5t-64.5 -177.5z" />
    <glyph glyph-name="b" unicode="b" 
d="M522 1106q79 0 138.5 -25t98.5 -70.5t63 -116.5t34 -156t10 -195t-10 -195t-34 -156t-63 -116.5t-98.5 -70.5t-138.5 -25q-176 0 -286 153l-13 -133h-114l4 238v1400h133v-671q111 139 276 139zM246 834v-582q58 -76 118 -115t134 -39q57 0 98 20t66.5 55t40.5 92.5
t20.5 122.5t5.5 155t-5.5 155t-20.5 122t-40.5 92t-66.5 55t-98 20q-74 0 -134 -39t-118 -114z" />
    <glyph glyph-name="c" unicode="c" horiz-adv-x="868" 
d="M225 543q0 -244 57.5 -346.5t188.5 -102.5q62 0 102.5 14t61 43t28 62.5t7.5 83.5l131 -18q0 -55 -8.5 -97.5t-30.5 -81.5t-58.5 -64.5t-95 -40.5t-137.5 -15q-199 0 -289 131.5t-90 431.5t90 431.5t289 131.5q79 0 137.5 -15t95 -40.5t58.5 -64.5t30.5 -81.5t8.5 -97.5
l-131 -19q0 50 -7.5 83.5t-28 62.5t-61 43t-102.5 14q-131 0 -188.5 -102t-57.5 -346z" />
    <glyph glyph-name="d" unicode="d" 
d="M434 1106q166 0 279 -139v671h131v-1400l6 -238h-115l-12 133q-113 -153 -289 -153q-79 0 -138.5 25t-98 70.5t-62 117t-33.5 155.5t-10 195t10 195t33.5 155.5t62 117t98 70.5t138.5 25zM713 252v582q-58 75 -118 114t-134 39q-57 0 -98 -20t-67 -55t-41 -92t-20.5 -122
t-5.5 -155t5.5 -155t20.5 -122.5t41 -92.5t67 -55t98 -20q74 0 134 39t118 115z" />
    <glyph glyph-name="e" unicode="e" horiz-adv-x="909" 
d="M231 494q0 -84 6 -144t21 -111.5t42 -82.5t69 -48.5t100 -17.5q122 0 166.5 52t44.5 157l135 -18q0 -70 -15.5 -121.5t-52.5 -93.5t-106.5 -64t-169.5 -22q-113 0 -188.5 36.5t-116.5 112.5t-57.5 174t-16.5 240q0 114 9.5 198t34.5 156t67 116t107 68.5t155 24.5
t154.5 -25t104.5 -68.5t63 -116.5t31.5 -155t8.5 -198v-49h-596zM463 995q-133 0 -182.5 -90t-49.5 -303h455q0 82 -4.5 138.5t-18.5 108t-38.5 81.5t-64.5 47.5t-97 17.5z" />
    <glyph glyph-name="f" unicode="f" horiz-adv-x="608" 
d="M61 973v112h125v361q0 213 246 213q74 0 131 -21l-10 -116q-53 20 -104 20q-67 0 -99.5 -24.5t-32.5 -94.5v-338h215v-112h-215v-973h-131v973h-125z" />
    <glyph glyph-name="g" unicode="g" 
d="M434 23q-79 0 -138.5 24t-98 68t-62 112.5t-33.5 150t-10 187.5t10 186.5t33.5 149t62 112.5t98 68.5t138.5 24.5q175 0 289 -154l12 133h115l-6 -237v-950q0 -159 -86.5 -243.5t-280.5 -84.5q-204 0 -284 77.5t-80 235.5l133 19q-2 -115 46 -168t181 -53t186.5 54.5
t53.5 155.5v271q-111 -139 -279 -139zM713 297v537q-58 76 -118 114.5t-136 38.5q-56 0 -97 -19t-66.5 -52.5t-40.5 -87.5t-20.5 -116t-5.5 -147t5.5 -147t20.5 -116.5t40.5 -88.5t66.5 -53t97 -19q76 0 136 39.5t118 116.5z" />
    <glyph glyph-name="h" unicode="h" horiz-adv-x="931" 
d="M244 1638v-671q51 61 131.5 100t187.5 39q128 0 196 -66.5t68 -173.5v-866h-131v825q0 74 -42.5 118t-131.5 44t-161 -40.5t-117 -108.5v-838h-131v1638h131z" />
    <glyph glyph-name="i" unicode="i" horiz-adv-x="368" 
d="M119 0v1085h131v-1085h-131zM262 1528v-156h-156v156h156z" />
    <glyph glyph-name="j" unicode="j" horiz-adv-x="368" 
d="M250 1085v-1300q0 -106 -53.5 -161.5t-173.5 -55.5q-75 0 -129 20l12 117q48 -18 100 -18q57 0 85 24.5t28 93.5v1280h131zM262 1528v-156h-156v156h156z" />
    <glyph glyph-name="k" unicode="k" horiz-adv-x="901" 
d="M240 530l424 555h159l-362 -458l403 -627h-153l-334 524l-137 -176l6 -348h-133v1638h133z" />
    <glyph glyph-name="l" unicode="l" horiz-adv-x="368" 
d="M119 0v1638h131v-1638h-131z" />
    <glyph glyph-name="m" unicode="m" horiz-adv-x="1409" 
d="M223 1085l13 -133q101 154 296 154q98 0 157 -43t75 -109q45 70 120.5 111t176.5 41q123 0 184.5 -65t61.5 -171v-870h-133v831q0 156 -160 156q-144 0 -238 -151v-836h-133v831q0 156 -160 156q-143 0 -237 -151v-836h-131v848l-6 237h114z" />
    <glyph glyph-name="n" unicode="n" horiz-adv-x="931" 
d="M223 1085l13 -133q49 68 132.5 111t196.5 43q128 0 196 -66.5t68 -173.5v-866h-131v825q0 74 -42.5 118t-131.5 44t-161 -40.5t-117 -108.5v-838h-131v848l-6 237h114z" />
    <glyph glyph-name="o" unicode="o" horiz-adv-x="942" 
d="M471 96q130 0 187 101t57 346t-57 345.5t-187 100.5t-187 -100.5t-57 -345.5t57 -346t187 -101zM471 -20q-202 0 -290.5 126.5t-88.5 436.5q0 209 40.5 332.5t122 177t216.5 53.5t216.5 -53.5t122 -177t40.5 -332.5q0 -310 -88.5 -436.5t-290.5 -126.5z" />
    <glyph glyph-name="p" unicode="p" 
d="M522 -20q-165 0 -276 139v-529h-133v1258l-4 237h114l13 -133q111 154 286 154q79 0 138.5 -25t98.5 -70.5t63 -116.5t34 -156t10 -195t-10 -195t-34 -156t-63 -116.5t-98.5 -70.5t-138.5 -25zM246 834v-582q58 -76 118 -115t134 -39q57 0 98 20t66.5 55t40.5 92.5
t20.5 122.5t5.5 155t-5.5 155t-20.5 122t-40.5 92t-66.5 55t-98 20q-74 0 -134 -39t-118 -114z" />
    <glyph glyph-name="q" unicode="q" 
d="M434 -20q-79 0 -138.5 25t-98 70.5t-62 117t-33.5 155.5t-10 195t10 195t33.5 155.5t62 117t98 70.5t138.5 25q178 0 289 -154l12 133h115l-6 -237v-1258h-131v529q-113 -139 -279 -139zM713 252v582q-58 75 -118 114t-134 39q-57 0 -98 -20t-67 -55t-41 -92t-20.5 -122
t-5.5 -155t5.5 -155t20.5 -122.5t41 -92.5t67 -55t98 -20q74 0 134 39t118 115z" />
    <glyph glyph-name="r" unicode="r" horiz-adv-x="618" 
d="M492 979q-144 0 -246 -154v-825h-131v848l-6 237h114l13 -135q42 71 108.5 113.5t142.5 42.5q50 0 82 -14l-8 -121q-24 8 -69 8z" />
    <glyph glyph-name="s" unicode="s" horiz-adv-x="825" 
d="M393 86q126 0 173.5 50.5t47.5 154.5q0 29 -3.5 53t-13 42.5t-18 32.5t-27.5 26t-33 19.5t-41.5 16.5t-46 13.5t-54.5 13.5q-56 11 -93.5 22.5t-76.5 33.5t-61 52t-36 78t-14 113q0 299 326 299q98 0 160.5 -18.5t95 -59.5t44 -91.5t11.5 -129.5l-133 -19q0 54 -6 88.5
t-23.5 64.5t-54 44t-94.5 14q-98 0 -141 -48.5t-43 -143.5q0 -51 7.5 -80.5t33 -50.5t58.5 -32.5t101 -27.5q52 -11 86.5 -20.5t75 -26t66 -39t48.5 -54.5t33.5 -77.5t10.5 -103.5q0 -161 -86.5 -238t-278.5 -77q-102 0 -168 20t-99.5 62.5t-45.5 92.5t-12 126l131 18
q0 -43 3 -71t14 -57.5t31.5 -46t57 -27.5t88.5 -11z" />
    <glyph glyph-name="t" unicode="t" horiz-adv-x="649" 
d="M68 973v112h127v287l131 10v-297h237v-112h-237v-758q0 -69 29 -94t85 -25q46 0 103 19l10 -115q-54 -20 -129 -20q-120 0 -174.5 55.5t-54.5 161.5v776h-127z" />
    <glyph glyph-name="u" unicode="u" horiz-adv-x="929" 
d="M709 0l-13 133q-51 -68 -134 -110.5t-197 -42.5q-126 0 -194.5 66t-68.5 173v866h131v-825q0 -73 42.5 -117.5t130.5 -44.5q89 0 162 41.5t116 108.5v837h131v-847l6 -238h-112z" />
    <glyph glyph-name="v" unicode="v" horiz-adv-x="851" 
d="M788 1085l-268 -1101h-188l-269 1101h138l225 -985l225 985h137z" />
    <glyph glyph-name="w" unicode="w" horiz-adv-x="1228" 
d="M526 1085h176l189 -929l123 929h137l-170 -1101h-166l-201 952l-200 -952h-166l-170 1101h137l123 -929z" />
    <glyph glyph-name="x" unicode="x" horiz-adv-x="894" 
d="M676 0l-230 479l-227 -479h-151l278 561l-252 524h146l206 -456l209 456h146l-252 -524l278 -561h-151z" />
    <glyph glyph-name="y" unicode="y" horiz-adv-x="882" 
d="M442 178l240 907h141l-299 -1022l-153 -473h-148l148 422l-312 1073h142z" />
    <glyph glyph-name="z" unicode="z" horiz-adv-x="813" 
d="M72 0v100l495 869h-473v116h625v-100l-498 -868l520 2v-119h-669z" />
    <glyph glyph-name="braceleft" unicode="{" horiz-adv-x="638" 
d="M600 -145v-121h-65q-81 0 -140.5 18.5t-93 47t-53 72.5t-25.5 84.5t-6 92.5v426q0 105 -33.5 142.5t-109.5 37.5h-41v123h41q76 0 109.5 38t33.5 145v423q0 52 6 92.5t25.5 84.5t53 72.5t93 47.5t140.5 19h65v-121h-74q-82 0 -128 -40t-46 -144v-441q0 -79 -27 -145
t-85 -92q58 -26 85 -92.5t27 -145.5v-440q0 -104 46 -144t128 -40h74z" />
    <glyph glyph-name="bar" unicode="|" horiz-adv-x="577" 
d="M356 1700v-1966h-135v1966h135z" />
    <glyph glyph-name="braceright" unicode="}" horiz-adv-x="638" 
d="M109 1579h-74v121h65q81 0 140.5 -19t93 -47.5t53 -72.5t25.5 -84.5t6 -92.5v-426q0 -105 34 -142.5t109 -37.5h41v-123h-41q-76 0 -109.5 -37.5t-33.5 -144.5v-424q0 -52 -6 -92.5t-25.5 -84.5t-53 -72.5t-93 -47t-140.5 -18.5h-65v121h74q82 0 128 40t46 144v440
q0 79 27 145.5t85 92.5q-58 26 -85 92t-27 145v441q0 104 -46 144t-128 40z" />
    <glyph glyph-name="asciitilde" unicode="~" horiz-adv-x="1015" 
d="M905 764l68 -84q-8 -14 -33.5 -37.5t-82 -49.5t-118.5 -26q-65 0 -125 18t-97.5 39.5t-90.5 39.5t-107 18q-85 0 -159 -74l-68 84q8 14 33.5 37.5t82 49.5t118.5 26q65 0 124.5 -18t97.5 -39.5t90.5 -39.5t106.5 -18q86 0 160 74z" />
    <glyph glyph-name="nbspace" unicode="&#xa0;" horiz-adv-x="360" 
 />
    <glyph glyph-name="exclamdown" unicode="&#xa1;" horiz-adv-x="483" 
d="M322 1085v-159h-160v159h160zM328 -410h-172l41 1082h90z" />
    <glyph glyph-name="cent" unicode="&#xa2;" horiz-adv-x="868" 
d="M225 782q0 -244 57.5 -346t188.5 -102q62 0 102.5 13.5t61 42t28 62t7.5 83.5l131 -19q0 -55 -8.5 -97.5t-30.5 -81.5t-58.5 -64.5t-95 -40.5t-137.5 -15h-31l-65 -217h-125l76 238q-122 41 -178 172t-56 372q0 301 90 433.5t289 132.5q27 0 41 -2l66 219h124l-77 -238
q98 -29 137 -99.5t39 -178.5l-131 -19q0 50 -7.5 83.5t-28 62t-61 42t-102.5 13.5q-131 0 -188.5 -102.5t-57.5 -346.5z" />
    <glyph glyph-name="sterling" unicode="&#xa3;" horiz-adv-x="993" 
d="M565 1585q68 0 120.5 -9.5t89.5 -25.5t63.5 -44t42.5 -58t24.5 -74t11.5 -86t3 -100l-134 -19q0 70 -3.5 112t-16 82.5t-36.5 61t-64 33t-101 12.5t-101 -12.5t-64 -33t-36.5 -61t-16 -82.5t-3.5 -112v-292h358v-117h-358v-637h576v-123h-832v123h121v637h-121v117h121
v311q0 58 3 100t11.5 86t24 74t42 58t64 44t90.5 25.5t121 9.5z" />
    <glyph glyph-name="currency" unicode="&#xa4;" horiz-adv-x="1550" 
d="M774 309q215 0 343 124t128 349t-128 349t-343 124q-214 0 -341.5 -124t-127.5 -349t127.5 -349t341.5 -124zM94 193l199 200q-125 150 -125 389t125 389l-199 201l88 88l201 -203q159 125 391 125q234 0 393 -122l201 200l88 -88l-199 -201q125 -154 125 -389t-125 -389
l199 -200l-88 -89l-203 201q-157 -123 -391 -123q-231 0 -391 123l-201 -201z" />
    <glyph glyph-name="yen" unicode="&#xa5;" horiz-adv-x="1009" 
d="M506 756l297 809h145l-334 -844h265v-98h-304l-6 -17v-149h310v-99h-308l2 -358h-137l2 358h-307v99h307l2 149l-6 17h-303v98h264l-334 844h146z" />
    <glyph glyph-name="brokenbar" unicode="&#xa6;" horiz-adv-x="587" 
d="M362 662v-928h-137v928h137zM362 1700v-928h-137v928h137z" />
    <glyph glyph-name="section" unicode="&#xa7;" horiz-adv-x="948" 
d="M512 1618q63 0 112.5 -10.5t84 -27t58.5 -46t37.5 -59t21.5 -74.5t10 -84.5t2 -95.5l-133 -19q0 53 -1.5 86.5t-8 72.5t-19 61.5t-33.5 42.5t-53.5 29t-77.5 9q-103 0 -153 -59t-50 -207q0 -109 43 -168.5t158 -77.5q42 -6 69.5 -12t63.5 -18.5t59.5 -29t48.5 -44t39 -64
t23.5 -88.5t9.5 -117q0 -76 -12 -136t-31 -97t-47.5 -64t-54.5 -40.5t-60 -24.5v-2q54 -14 92 -62t54 -106.5t16 -120.5q0 -204 -79.5 -299.5t-264.5 -95.5q-63 0 -112.5 10.5t-83.5 27t-58 46t-38 59t-21.5 74.5t-9.5 84t-2 96l133 19q0 -54 1.5 -87t7.5 -72t18.5 -61.5
t33.5 -43t53.5 -29t77.5 -8.5q105 0 154 59t49 207q0 109 -43 168.5t-158 77.5q-42 6 -69.5 12t-63.5 18.5t-59.5 28.5t-48.5 44t-39 64t-23.5 88t-9.5 117q0 76 12 136t31 97t47.5 64.5t54.5 41t60 24.5v2q-54 14 -92 62t-54 106.5t-16 120.5q0 204 79.5 299.5t264.5 95.5z
M684 608q0 80 -14 132.5t-42.5 78.5t-61.5 35.5t-81 9.5q-114 0 -167.5 -64.5t-53.5 -219.5q0 -80 14 -132.5t42.5 -78.5t61.5 -35.5t81 -9.5q116 0 168.5 64t52.5 220z" />
    <glyph glyph-name="dieresis" unicode="&#xa8;" horiz-adv-x="1269" 
d="M545 1528v-156h-156v156h156zM881 1528v-156h-156v156h156z" />
    <glyph glyph-name="copyright" unicode="&#xa9;" horiz-adv-x="1843" 
d="M102 799q0 167 65 318.5t174.5 261t261.5 174.5t319 65t318.5 -65t261 -174.5t174.5 -261t65 -318.5t-65 -318.5t-174.5 -261t-261 -174.5t-318.5 -65t-319 65t-261.5 174.5t-174.5 261t-65 318.5zM236 799q0 -186 92 -344t250 -250t344 -92t344 92t250 250t92 344
t-92 344t-250 250t-344 92t-344 -92t-250 -250t-92 -344zM578 799q0 -182 89.5 -278t252.5 -99q133 -3 204 50t95 159l145 -19q-66 -315 -442 -315q-229 0 -357.5 133t-128.5 369t128.5 368.5t357.5 132.5q376 0 442 -315l-145 -18q-24 106 -95 159t-204 50
q-163 -3 -252.5 -99t-89.5 -278z" />
    <glyph glyph-name="ordfeminine" unicode="&#xaa;" horiz-adv-x="727" 
d="M365 1526q-97 0 -125.5 -37t-28.5 -131l-115 16q-1 63 9 104.5t38 75.5t82.5 50t139.5 16q66 0 112.5 -11.5t75.5 -32t45 -56.5t22 -76.5t7 -100.5l2 -401l2 -143h-99l-12 96q-76 -119 -237 -119q-106 0 -161.5 59t-55.5 173q0 127 78 189.5t245 86.5l121 19v49
q0 35 -1 55t-5.5 42.5t-14 34.5t-25.5 23t-40 15t-59 4zM186 1016q0 -70 32.5 -107t94.5 -37q43 0 77.5 12t58 34t36 38.5t25.5 38.5v232l-117 -21q-106 -16 -156.5 -58t-50.5 -132z" />
    <glyph glyph-name="guillemotleft" unicode="&#xab;" horiz-adv-x="1087" 
d="M532 403v-124l-426 321v90l426 322v-125l-294 -242zM965 403v-124l-426 321v90l426 322v-125l-297 -242z" />
    <glyph glyph-name="logicalnot" unicode="&#xac;" horiz-adv-x="1474" 
d="M1165 426v621h-981v124h1106v-745h-125z" />
    <glyph glyph-name="uni00AD" unicode="&#xad;" horiz-adv-x="792" 
d="M672 625h-551v123h551v-123z" />
    <glyph glyph-name="registered" unicode="&#xae;" horiz-adv-x="1843" 
d="M102 799q0 167 65 318.5t174.5 261t261.5 174.5t319 65t318.5 -65t261 -174.5t174.5 -261t65 -318.5t-65 -318.5t-174.5 -261t-261 -174.5t-318.5 -65t-319 65t-261.5 174.5t-174.5 261t-65 318.5zM236 799q0 -186 92 -344t250 -250t344 -92t344 92t250 250t92 344
t-92 344t-250 250t-344 92t-344 -92t-250 -250t-92 -344zM700 700v-383h-129v963h394q52 0 96 -7t87 -26.5t72.5 -51t47.5 -83.5t18 -121q0 -234 -213 -280l240 -394h-162l-217 383h-234zM700 823h277q27 0 47 2.5t45.5 12t42 26.5t28 49.5t11.5 77.5q0 44 -11.5 76
t-28 48.5t-42 26t-45.5 11.5t-47 2h-277v-332z" />
    <glyph glyph-name="macron" unicode="&#xaf;" horiz-adv-x="1269" 
d="M426 1393v120h418v-120h-418z" />
    <glyph glyph-name="degree" unicode="&#xb0;" horiz-adv-x="1036" 
d="M518 954q128 0 199 65.5t71 197.5t-71 197t-199 65t-199 -65t-71 -197t71 -197.5t199 -65.5zM518 846q-175 0 -282 94.5t-107 276.5t107 276t282 94t283 -94t108 -276t-108 -276.5t-283 -94.5z" />
    <glyph glyph-name="plusminus" unicode="&#xb1;" horiz-adv-x="1474" 
d="M674 565v342h-490v125h490v340h127v-340h489v-125h-489v-342h-127zM1290 303h-1106v125h1106v-125z" />
    <glyph glyph-name="twosuperior" unicode="&#xb2;" horiz-adv-x="643" 
d="M319 1489q-60 0 -82 -33.5t-22 -114.5l-113 15q0 120 45.5 175.5t174.5 55.5q121 0 167 -52t46 -173q0 -41 -8.5 -73.5t-20 -55.5t-39.5 -48.5t-51 -42.5t-70 -48q-89 -58 -112 -100.5t-23 -135.5h336v-100h-455q0 106 5 161.5t29 103.5t57 76t104 75q81 52 108 87.5
t27 94.5q0 72 -21 102.5t-82 30.5z" />
    <glyph glyph-name="threesuperior" unicode="&#xb3;" horiz-adv-x="593" 
d="M291 844q67 0 96 34t29 107q0 84 -31.5 112.5t-85.5 28.5h-74v101h74q44 0 69 26.5t25 102.5q0 75 -22 104t-82 29q-62 0 -84.5 -34t-22.5 -114l-108 15q0 120 44.5 175.5t170.5 55.5q119 0 168 -49.5t49 -171.5q0 -148 -94 -186q116 -28 116 -205q0 -112 -55.5 -171
t-185.5 -59t-177 60t-47 178l109 14q0 -78 26 -115.5t93 -37.5z" />
    <glyph glyph-name="acute" unicode="&#xb4;" horiz-adv-x="1269" 
d="M672 1638h145l-123 -426h-125z" />
    <glyph glyph-name="mu" unicode="&#xb5;" horiz-adv-x="931" 
d="M711 0l-13 133q-44 -67 -127.5 -110t-187.5 -43q-86 0 -150 28l3 -90v-328h-134v1495h134v-825q0 -74 42 -118t130 -44q89 0 162 41.5t116 108.5v837h133v-847l6 -238h-114z" />
    <glyph glyph-name="paragraph" unicode="&#xb6;" horiz-adv-x="913" 
d="M74 1126q0 139 27 234t79.5 145.5t116 71t149.5 20.5h347v-1597h-136v1477h-73v-1477h-74v655h-64q-69 0 -122.5 12t-102 44t-79.5 84.5t-49.5 135.5t-18.5 195zM213 1126q0 -134 28 -211.5t79 -107t135 -29.5h55v699h-55q-126 0 -184 -77t-58 -274z" />
    <glyph glyph-name="periodcentered" unicode="&#xb7;" horiz-adv-x="493" 
d="M334 774v-174h-176v174h176z" />
    <glyph glyph-name="cedilla" unicode="&#xb8;" horiz-adv-x="1269" 
d="M578 25h79l-28 -107q108 -18 165 -62.5t54 -119.5q-1 -85 -66.5 -126.5t-167.5 -41.5q-55 0 -106 11.5t-76 25.5l27 80q53 -31 119 -35q73 -2 113 18.5t40 73.5q0 22 -8 39.5t-27 29.5t-34 19.5t-46.5 13.5t-46 8.5t-49.5 6.5z" />
    <glyph glyph-name="onesuperior" unicode="&#xb9;" horiz-adv-x="575" 
d="M471 758h-342v100h117v572q-51 -57 -129 -89v111q81 40 149 135h90v-729h115v-100z" />
    <glyph glyph-name="ordmasculine" unicode="&#xba;" horiz-adv-x="780" 
d="M696 1198q0 -225 -72 -323.5t-235 -98.5q-162 0 -233.5 98.5t-71.5 323.5t71.5 323.5t233.5 98.5q163 0 235 -98.5t72 -323.5zM580 1198q0 181 -46.5 253.5t-144.5 72.5q-97 0 -142.5 -72.5t-45.5 -253.5t45.5 -253.5t142.5 -72.5q98 0 144.5 72.5t46.5 253.5z" />
    <glyph glyph-name="guillemotright" unicode="&#xbb;" horiz-adv-x="1087" 
d="M555 279v124l295 242l-295 242v125l426 -322v-90zM123 279v124l295 242l-295 242v125l426 -322v-90z" />
    <glyph glyph-name="onequarter" unicode="&#xbc;" horiz-adv-x="1470" 
d="M471 758h-342v100h117v572q-51 -57 -129 -89v111q81 40 149 135h90v-729h115v-100zM248 0l799 1565h133l-799 -1565h-133zM1403 186h-92v-186h-107v186h-286v82l270 561h123v-542h92v-101zM1204 287l6 399l-190 -403z" />
    <glyph glyph-name="onehalf" unicode="&#xbd;" horiz-adv-x="1546" 
d="M1116 731q-56 0 -77 -34.5t-21 -116.5l-113 14q0 60 7.5 99.5t29.5 72.5t65.5 48t110.5 15q119 0 163 -51.5t44 -173.5q0 -52 -9 -87.5t-35 -66.5t-54 -52t-84 -58q-88 -57 -109.5 -101t-21.5 -139h325v-100h-442q0 74 1.5 116t9 85t18 66t34 51t51 49t74.5 51
q79 52 104 86.5t25 93.5q0 73 -19.5 103t-76.5 30zM471 758h-342v100h117v572q-51 -57 -129 -89v111q81 40 149 135h90v-729h115v-100zM256 0l799 1565h133l-799 -1565h-133z" />
    <glyph glyph-name="threequarters" unicode="&#xbe;" horiz-adv-x="1488" 
d="M291 844q67 0 96 34t29 107q0 84 -31.5 112.5t-85.5 28.5h-74v101h74q44 0 69 26.5t25 102.5q0 75 -22 104t-82 29q-62 0 -84.5 -34t-22.5 -114l-108 15q0 120 44.5 175.5t170.5 55.5q119 0 168 -49.5t49 -171.5q0 -148 -94 -186q116 -28 116 -205q0 -112 -55.5 -171
t-185.5 -59t-177 60t-47 178l109 14q0 -78 26 -115.5t93 -37.5zM266 0l799 1565h133l-799 -1565h-133zM1421 186h-92v-186h-106v186h-287v82l270 561h123v-542h92v-101zM1223 287l6 399l-191 -403z" />
    <glyph glyph-name="questiondown" unicode="&#xbf;" horiz-adv-x="907" 
d="M422 672h94q51 -127 51 -211q0 -90 -37 -141.5t-118 -96.5q-45 -25 -68 -39.5t-52.5 -39.5t-43 -49.5t-23.5 -61.5t-10 -84q0 -133 59.5 -196.5t178.5 -63.5q137 0 190 74t53 245l133 -18q0 -223 -84.5 -321.5t-291.5 -98.5q-196 0 -286.5 90t-90.5 283q0 46 7 86t16 68
t29.5 56.5t33.5 44t44 37.5t45.5 31t51.5 31q18 11 27 16q72 41 96 74.5t27 93.5q0 70 -31 191zM389 924v161h164v-161h-164z" />
    <glyph glyph-name="Agrave" unicode="&#xc0;" horiz-adv-x="987" 
d="M391 1616h203l338 -1616h-137l-70 346h-463l-69 -346h-138zM494 1495l-209 -1030h415zM311 2109h146l102 -426h-125z" />
    <glyph glyph-name="Aacute" unicode="&#xc1;" horiz-adv-x="987" 
d="M391 1616h203l338 -1616h-137l-70 346h-463l-69 -346h-138zM494 1495l-209 -1030h415zM530 2109h146l-123 -426h-125z" />
    <glyph glyph-name="Acircumflex" unicode="&#xc2;" horiz-adv-x="987" 
d="M391 1616h203l338 -1616h-137l-70 346h-463l-69 -346h-138zM494 1495l-209 -1030h415zM319 1683h-108l207 426h151l207 -426h-108l-174 326z" />
    <glyph glyph-name="Atilde" unicode="&#xc3;" horiz-adv-x="987" 
d="M391 1616h203l338 -1616h-137l-70 346h-463l-69 -346h-138zM494 1495l-209 -1030h415zM707 2007l98 -14q-8 -108 -51.5 -168.5t-120.5 -59.5q-43 1 -84 24t-68.5 50.5t-61 51.5t-63.5 26q-42 1 -59.5 -30.5t-22.5 -94.5l-98 14q6 106 49.5 167.5t120.5 60.5
q36 -1 69.5 -16.5t59 -37.5t49.5 -44t49.5 -37.5t49.5 -16.5q30 -2 48.5 15t25.5 42.5t10 67.5z" />
    <glyph glyph-name="Adieresis" unicode="&#xc4;" horiz-adv-x="987" 
d="M391 1616h203l338 -1616h-137l-70 346h-463l-69 -346h-138zM494 1495l-209 -1030h415zM403 1999v-156h-155v156h155zM739 1999v-156h-155v156h155z" />
    <glyph glyph-name="Aring" unicode="&#xc5;" horiz-adv-x="987" 
d="M391 1616h203l338 -1616h-137l-70 346h-463l-69 -346h-138zM494 1495l-209 -1030h415zM258 1896q0 105 63 170.5t173 65.5t172.5 -65.5t62.5 -170.5t-62.5 -170t-172.5 -65t-173 65t-63 170zM639 1896q0 71 -37.5 111.5t-107.5 40.5t-108 -40.5t-38 -111.5t38 -111
t108 -40t107.5 40t37.5 111z" />
    <glyph glyph-name="AE" unicode="&#xc6;" horiz-adv-x="1464" 
d="M586 1597h764v-120h-553l53 -596h432v-121h-422l58 -639h468v-121h-593l-29 348h-461l-115 -348h-141zM672 1470l-332 -1007h414z" />
    <glyph glyph-name="Ccedilla" unicode="&#xc7;" horiz-adv-x="995" 
d="M233 799q0 -132 4.5 -224.5t16.5 -175.5t32.5 -135.5t54 -91.5t80.5 -55.5t111 -16.5q78 0 126.5 18t75.5 61t37 102t11 155l136 -20q0 -110 -15.5 -185.5t-55 -133t-110.5 -86t-178 -31.5l-16 -62q108 -18 165 -62.5t54 -119.5q-1 -85 -66.5 -126.5t-167.5 -41.5
q-55 0 -106 11.5t-76 25.5l27 80q53 -31 119 -35q73 -2 113 18.5t40 73.5q0 22 -8 39.5t-27 29.5t-34 19.5t-46.5 13.5t-46 8.5t-49.5 6.5l43 125q-110 9 -182 56t-116.5 147t-62.5 246t-18 366q0 187 13.5 319.5t43.5 231t81.5 156t124 85t174.5 27.5q114 0 190 -27
t118 -84.5t58.5 -134t16.5 -190.5l-136 -21q-1 96 -11 155t-37 102t-75.5 61t-126.5 18q-64 0 -111 -16.5t-80.5 -55.5t-54 -91t-32.5 -135t-16.5 -175.5t-4.5 -224.5z" />
    <glyph glyph-name="Egrave" unicode="&#xc8;" horiz-adv-x="874" 
d="M119 1597h641v-120h-506v-596h438v-121h-438v-639h543v-121h-678v1597zM254 2109h145l103 -426h-125z" />
    <glyph glyph-name="Eacute" unicode="&#xc9;" horiz-adv-x="874" 
d="M119 1597h641v-120h-506v-596h438v-121h-438v-639h543v-121h-678v1597zM473 2109h145l-122 -426h-125z" />
    <glyph glyph-name="Ecircumflex" unicode="&#xca;" horiz-adv-x="874" 
d="M119 1597h641v-120h-506v-596h438v-121h-438v-639h543v-121h-678v1597zM262 1683h-108l206 426h152l207 -426h-109l-174 326z" />
    <glyph glyph-name="Edieresis" unicode="&#xcb;" horiz-adv-x="876" 
d="M121 1597h641v-120h-506v-596h438v-121h-438v-639h543v-121h-678v1597zM348 1999v-156h-155v156h155zM684 1999v-156h-156v156h156z" />
    <glyph glyph-name="Igrave" unicode="&#xcc;" horiz-adv-x="393" 
d="M264 1597v-1597h-135v1597h135zM10 2109h146l102 -426h-125z" />
    <glyph glyph-name="Iacute" unicode="&#xcd;" horiz-adv-x="393" 
d="M264 1597v-1597h-135v1597h135zM238 2109h145l-123 -426h-125z" />
    <glyph glyph-name="Icircumflex" unicode="&#xce;" horiz-adv-x="393" 
d="M264 1597v-1597h-135v1597h135zM23 1683h-109l207 426h151l207 -426h-108l-174 326z" />
    <glyph glyph-name="Idieresis" unicode="&#xcf;" horiz-adv-x="393" 
d="M264 1597v-1597h-135v1597h135zM106 1999v-156h-155v156h155zM442 1999v-156h-155v156h155z" />
    <glyph glyph-name="Eth" unicode="&#xd0;" horiz-adv-x="1140" 
d="M512 0h-301v760h-150v121h150v716h301q108 0 185.5 -15.5t138 -54t99 -96.5t63 -149.5t34.5 -207t10 -275.5t-10 -275.5t-34.5 -207.5t-63 -150t-99 -96.5t-138 -54t-185.5 -15.5zM346 121h184q82 0 140.5 14t101 49.5t68 83.5t40.5 129.5t20 173.5t5 228t-5 228
t-20 173.5t-40.5 129.5t-68 83.5t-101 49.5t-140.5 14h-184v-596h281v-121h-281v-639z" />
    <glyph glyph-name="Ntilde" unicode="&#xd1;" horiz-adv-x="1034" 
d="M287 1597l356 -958l150 -418l-7 510v866h129v-1597h-165l-359 958l-149 418l6 -510l2 -866h-131v1597h168zM729 2007l98 -14q-8 -108 -51.5 -168.5t-120.5 -59.5q-43 1 -84 24t-68 50.5t-60.5 51.5t-63.5 26q-42 1 -59.5 -30.5t-22.5 -94.5l-98 14q6 106 49.5 167.5
t120.5 60.5q36 -1 69.5 -16.5t59 -37.5t49 -44t49 -37.5t49.5 -16.5q30 -2 48.5 15t25.5 42.5t10 67.5z" />
    <glyph glyph-name="Ograve" unicode="&#xd2;" horiz-adv-x="1028" 
d="M516 -20q-100 0 -171 29t-119.5 87t-76 158t-39.5 230t-12 315t12 315t39.5 230t76 158t119.5 87t171 29t171 -29t119.5 -87t76 -158t39.5 -230t12 -315t-12 -315t-39.5 -230t-76 -158t-119.5 -87t-171 -29zM516 1497q-71 0 -119 -24.5t-80 -72t-49.5 -134.5t-24.5 -196
t-7 -271t7 -271t24.5 -196t49.5 -135t80 -72.5t119 -24.5t119 24.5t80.5 72.5t50 135t24.5 196t7 271q0 135 -4.5 231t-16.5 178t-32 133.5t-51.5 88t-74.5 52t-102 15.5zM328 2109h145l102 -426h-124z" />
    <glyph glyph-name="Oacute" unicode="&#xd3;" horiz-adv-x="1028" 
d="M516 -20q-100 0 -171 29t-119.5 87t-76 158t-39.5 230t-12 315t12 315t39.5 230t76 158t119.5 87t171 29t171 -29t119.5 -87t76 -158t39.5 -230t12 -315t-12 -315t-39.5 -230t-76 -158t-119.5 -87t-171 -29zM516 1497q-71 0 -119 -24.5t-80 -72t-49.5 -134.5t-24.5 -196
t-7 -271t7 -271t24.5 -196t49.5 -135t80 -72.5t119 -24.5t119 24.5t80.5 72.5t50 135t24.5 196t7 271q0 135 -4.5 231t-16.5 178t-32 133.5t-51.5 88t-74.5 52t-102 15.5zM555 2109h145l-122 -426h-125z" />
    <glyph glyph-name="Ocircumflex" unicode="&#xd4;" horiz-adv-x="1028" 
d="M516 -20q-100 0 -171 29t-119.5 87t-76 158t-39.5 230t-12 315t12 315t39.5 230t76 158t119.5 87t171 29t171 -29t119.5 -87t76 -158t39.5 -230t12 -315t-12 -315t-39.5 -230t-76 -158t-119.5 -87t-171 -29zM516 1497q-71 0 -119 -24.5t-80 -72t-49.5 -134.5t-24.5 -196
t-7 -271t7 -271t24.5 -196t49.5 -135t80 -72.5t119 -24.5t119 24.5t80.5 72.5t50 135t24.5 196t7 271q0 135 -4.5 231t-16.5 178t-32 133.5t-51.5 88t-74.5 52t-102 15.5zM340 1683h-109l207 426h152l207 -426h-109l-174 326z" />
    <glyph glyph-name="Otilde" unicode="&#xd5;" horiz-adv-x="1028" 
d="M516 -20q-100 0 -171 29t-119.5 87t-76 158t-39.5 230t-12 315t12 315t39.5 230t76 158t119.5 87t171 29t171 -29t119.5 -87t76 -158t39.5 -230t12 -315t-12 -315t-39.5 -230t-76 -158t-119.5 -87t-171 -29zM516 1497q-71 0 -119 -24.5t-80 -72t-49.5 -134.5t-24.5 -196
t-7 -271t7 -271t24.5 -196t49.5 -135t80 -72.5t119 -24.5t119 24.5t80.5 72.5t50 135t24.5 196t7 271q0 135 -4.5 231t-16.5 178t-32 133.5t-51.5 88t-74.5 52t-102 15.5zM727 2007l98 -14q-8 -108 -51.5 -168.5t-120.5 -59.5q-43 1 -84 24t-68 50.5t-60.5 51.5t-63.5 26
q-42 1 -59.5 -30.5t-22.5 -94.5l-98 14q6 106 49.5 167.5t120.5 60.5q36 -1 69.5 -16.5t59 -37.5t49 -44t49 -37.5t49.5 -16.5q30 -2 48.5 15t25.5 42.5t10 67.5z" />
    <glyph glyph-name="Odieresis" unicode="&#xd6;" horiz-adv-x="1032" 
d="M516 -20q-100 0 -171 29t-119.5 87t-76 158t-39.5 230t-12 315t12 315t39.5 230t76 158t119.5 87t171 29t171 -29t119.5 -87t76 -158t39.5 -230t12 -315t-12 -315t-39.5 -230t-76 -158t-119.5 -87t-171 -29zM516 1497q-71 0 -119 -24.5t-80 -72t-49.5 -134.5t-24.5 -196
t-7 -271t7 -271t24.5 -196t49.5 -135t80 -72.5t119 -24.5t119 24.5t80.5 72.5t50 135t24.5 196t7 271q0 135 -4.5 231t-16.5 178t-32 133.5t-51.5 88t-74.5 52t-102 15.5zM426 1999v-156h-156v156h156zM762 1999v-156h-156v156h156z" />
    <glyph glyph-name="multiply" unicode="&#xd7;" horiz-adv-x="1474" 
d="M213 362l436 437l-436 436l88 88l436 -436l437 436l88 -88l-437 -436l437 -437l-88 -88l-437 437l-436 -437z" />
    <glyph glyph-name="Oslash" unicode="&#xd8;" horiz-adv-x="1032" 
d="M913 1597l-67 -159q48 -94 68 -248t20 -391q0 -185 -12 -315t-39.5 -230t-76 -158t-119.5 -87t-171 -29q-168 0 -256 79l-24 -59h-117l67 160q-48 94 -68 248t-20 391q0 185 12 315t39.5 230t76 158t119.5 87t171 29q165 0 254 -80l27 59h116zM797 799q0 307 -31 454
l-449 -1058q62 -95 199 -95q71 0 119 24.5t80.5 72.5t50 135t24.5 196t7 271zM516 1497q-71 0 -119 -24.5t-80 -72t-49.5 -134.5t-24.5 -196t-7 -271q0 -322 28 -455l449 1059q-61 94 -197 94z" />
    <glyph glyph-name="Ugrave" unicode="&#xd9;" horiz-adv-x="1028" 
d="M512 -23q-99 0 -170 18t-115.5 51t-70.5 87t-35.5 116.5t-9.5 149.5v1198h137v-1194q0 -68 4.5 -110.5t20 -83.5t44 -63t76.5 -35t119 -13t119 13t76.5 35t44 63t20 83.5t4.5 110.5v1194h137v-1198q0 -87 -9.5 -149.5t-35.5 -116.5t-70.5 -87t-115.5 -51t-170 -18z
M330 2109h145l103 -426h-125z" />
    <glyph glyph-name="Uacute" unicode="&#xda;" horiz-adv-x="1028" 
d="M512 -23q-99 0 -170 18t-115.5 51t-70.5 87t-35.5 116.5t-9.5 149.5v1198h137v-1194q0 -68 4.5 -110.5t20 -83.5t44 -63t76.5 -35t119 -13t119 13t76.5 35t44 63t20 83.5t4.5 110.5v1194h137v-1198q0 -87 -9.5 -149.5t-35.5 -116.5t-70.5 -87t-115.5 -51t-170 -18z
M549 2109h145l-123 -426h-125z" />
    <glyph glyph-name="Ucircumflex" unicode="&#xdb;" horiz-adv-x="1028" 
d="M512 -23q-99 0 -170 18t-115.5 51t-70.5 87t-35.5 116.5t-9.5 149.5v1198h137v-1194q0 -68 4.5 -110.5t20 -83.5t44 -63t76.5 -35t119 -13t119 13t76.5 35t44 63t20 83.5t4.5 110.5v1194h137v-1198q0 -87 -9.5 -149.5t-35.5 -116.5t-70.5 -87t-115.5 -51t-170 -18z
M338 1683h-109l207 426h152l207 -426h-109l-174 326z" />
    <glyph glyph-name="Udieresis" unicode="&#xdc;" horiz-adv-x="1032" 
d="M516 -23q-99 0 -170 18t-115.5 51t-70.5 87t-35.5 116.5t-9.5 149.5v1198h137v-1194q0 -68 4.5 -110.5t20 -83.5t44 -63t76.5 -35t119 -13t119 13t76.5 35t44 63t20 83.5t4.5 110.5v1194h138v-1198q0 -87 -9.5 -149.5t-35.5 -116.5t-71 -87t-116 -51t-170 -18zM426 1999
v-156h-156v156h156zM762 1999v-156h-156v156h156z" />
    <glyph glyph-name="Yacute" unicode="&#xdd;" horiz-adv-x="991" 
d="M496 758l309 839h141l-385 -993l2 -604h-135l2 604l-387 993h143zM530 2109h146l-123 -426h-125z" />
    <glyph glyph-name="Thorn" unicode="&#xde;" horiz-adv-x="907" 
d="M256 1597v-327h203q69 0 122.5 -12t102 -44t79.5 -84.5t49.5 -135.5t18.5 -195q0 -139 -26.5 -233.5t-78 -145.5t-115 -71.5t-150.5 -20.5h-205v-328h-135v1597h135zM256 449h195q84 0 135 30t79.5 108t28.5 212t-28.5 212t-79.5 108t-135 30h-195v-700z" />
    <glyph glyph-name="germandbls" unicode="&#xdf;" horiz-adv-x="1101" 
d="M532 823q0 -51 8 -82t34 -53.5t62 -36t103 -30.5q61 -15 101.5 -29.5t82 -39.5t65.5 -57.5t39 -82.5t15 -117q0 -158 -84 -236.5t-274 -78.5q-95 0 -158.5 20t-97.5 61t-47.5 94t-11.5 128l125 16q-1 -54 4 -87.5t23 -65.5t57.5 -47t103.5 -15q122 0 168.5 50.5
t46.5 154.5q0 58 -14 96.5t-48 63.5t-70.5 38.5t-102.5 30.5q-53 13 -88.5 26t-71.5 35t-57 52t-34.5 75.5t-13.5 106.5q0 67 17 115.5t50 79t63.5 48t73.5 36.5l15 6q50 21 80.5 39t57 45t38 64t11.5 89q0 98 -66 150.5t-198 52.5q-157 0 -224 -64.5t-67 -193.5v-1280h-133
v1274q0 210 100 297.5t320 87.5q391 0 391 -316q0 -71 -17 -124.5t-51 -89.5t-66 -57t-81 -44q-44 -19 -70.5 -34t-54.5 -39t-41 -56.5t-13 -75.5z" />
    <glyph glyph-name="agrave" unicode="&#xe0;" horiz-adv-x="907" 
d="M272 1638h146l102 -426h-125zM463 1001q-111 0 -157 -49.5t-46 -160.5l-135 18q0 150 76.5 223.5t261.5 73.5q91 0 155 -18.5t102.5 -57.5t56 -93.5t18.5 -131.5v-567l6 -238h-115l-12 133q-105 -153 -314 -153q-144 0 -211 85t-67 230q0 164 95 245.5t296 108.5l191 25
v147q0 180 -201 180zM217 301q0 -113 46.5 -161t135.5 -48q76 0 147 39t118 107v337l-177 -24q-141 -20 -205.5 -72.5t-64.5 -177.5z" />
    <glyph glyph-name="aacute" unicode="&#xe1;" horiz-adv-x="907" 
d="M492 1638h145l-123 -426h-125zM463 1001q-111 0 -157 -49.5t-46 -160.5l-135 18q0 150 76.5 223.5t261.5 73.5q91 0 155 -18.5t102.5 -57.5t56 -93.5t18.5 -131.5v-567l6 -238h-115l-12 133q-105 -153 -314 -153q-144 0 -211 85t-67 230q0 164 95 245.5t296 108.5l191 25
v147q0 180 -201 180zM217 301q0 -113 46.5 -161t135.5 -48q76 0 147 39t118 107v337l-177 -24q-141 -20 -205.5 -72.5t-64.5 -177.5z" />
    <glyph glyph-name="acircumflex" unicode="&#xe2;" horiz-adv-x="907" 
d="M281 1212h-109l207 426h151l207 -426h-108l-174 326zM463 1001q-111 0 -157 -49.5t-46 -160.5l-135 18q0 150 76.5 223.5t261.5 73.5q91 0 155 -18.5t102.5 -57.5t56 -93.5t18.5 -131.5v-567l6 -238h-115l-12 133q-105 -153 -314 -153q-144 0 -211 85t-67 230
q0 164 95 245.5t296 108.5l191 25v147q0 180 -201 180zM217 301q0 -113 46.5 -161t135.5 -48q76 0 147 39t118 107v337l-177 -24q-141 -20 -205.5 -72.5t-64.5 -177.5z" />
    <glyph glyph-name="atilde" unicode="&#xe3;" horiz-adv-x="907" 
d="M668 1536l98 -14q-8 -108 -51.5 -168.5t-120.5 -59.5q-43 1 -84 24t-68.5 50.5t-61 51.5t-63.5 26q-42 1 -59 -30.5t-22 -94.5l-99 14q6 106 49.5 167.5t120.5 60.5q36 -1 69.5 -16.5t59 -37.5t49.5 -44t49.5 -37.5t49.5 -16.5q30 -2 48.5 15t25.5 42.5t10 67.5z
M463 1001q-111 0 -157 -49.5t-46 -160.5l-135 18q0 150 76.5 223.5t261.5 73.5q91 0 155 -18.5t102.5 -57.5t56 -93.5t18.5 -131.5v-567l6 -238h-115l-12 133q-105 -153 -314 -153q-144 0 -211 85t-67 230q0 164 95 245.5t296 108.5l191 25v147q0 180 -201 180zM217 301
q0 -113 46.5 -161t135.5 -48q76 0 147 39t118 107v337l-177 -24q-141 -20 -205.5 -72.5t-64.5 -177.5z" />
    <glyph glyph-name="adieresis" unicode="&#xe4;" horiz-adv-x="907" 
d="M365 1528v-156h-156v156h156zM700 1528v-156h-155v156h155zM463 1001q-111 0 -157 -49.5t-46 -160.5l-135 18q0 150 76.5 223.5t261.5 73.5q91 0 155 -18.5t102.5 -57.5t56 -93.5t18.5 -131.5v-567l6 -238h-115l-12 133q-105 -153 -314 -153q-144 0 -211 85t-67 230
q0 164 95 245.5t296 108.5l191 25v147q0 180 -201 180zM217 301q0 -113 46.5 -161t135.5 -48q76 0 147 39t118 107v337l-177 -24q-141 -20 -205.5 -72.5t-64.5 -177.5z" />
    <glyph glyph-name="aring" unicode="&#xe5;" horiz-adv-x="907" 
d="M219 1425q0 105 63 170.5t173 65.5t172.5 -65.5t62.5 -170.5t-62.5 -170t-172.5 -65t-173 65t-63 170zM600 1425q0 71 -37.5 111.5t-107.5 40.5t-108 -40.5t-38 -111.5t38 -111t108 -40t107.5 40t37.5 111zM463 1001q-111 0 -157 -49.5t-46 -160.5l-135 18
q0 150 76.5 223.5t261.5 73.5q91 0 155 -18.5t102.5 -57.5t56 -93.5t18.5 -131.5v-567l6 -238h-115l-12 133q-105 -153 -314 -153q-144 0 -211 85t-67 230q0 164 95 245.5t296 108.5l191 25v147q0 180 -201 180zM217 301q0 -113 46.5 -161t135.5 -48q76 0 147 39t118 107
v337l-177 -24q-141 -20 -205.5 -72.5t-64.5 -177.5z" />
    <glyph glyph-name="ae" unicode="&#xe6;" horiz-adv-x="1478" 
d="M1397 498h-596q0 -106 10 -177t35.5 -125.5t72.5 -80t119 -25.5q121 0 166 52.5t45 156.5l135 -18q0 -70 -15.5 -121.5t-52.5 -93.5t-106.5 -64t-169.5 -22q-234 0 -317 165q-134 -165 -350 -165q-149 0 -220 83.5t-71 215.5q0 168 96.5 243.5t296.5 75.5h187v223
q0 88 -47 134t-152 46q-110 0 -155.5 -49.5t-45.5 -160.5l-137 18q0 150 76.5 223.5t261.5 73.5q225 0 289 -141q80 141 282 141q90 0 154.5 -25t105 -68.5t63.5 -116.5t31.5 -155.5t8.5 -197.5v-45zM217 285q0 -193 182 -193q83 0 158 42t125 138q-20 94 -23 226h-172
q-140 0 -205 -45t-65 -168zM1032 995q-133 0 -182 -90.5t-49 -306.5h454q0 84 -4.5 140.5t-18 109t-38 82.5t-64.5 47.5t-98 17.5z" />
    <glyph glyph-name="ccedilla" unicode="&#xe7;" horiz-adv-x="868" 
d="M225 543q0 -244 57.5 -346.5t188.5 -102.5q62 0 102.5 14t61 43t28 62.5t7.5 83.5l131 -18q0 -68 -13 -117.5t-46 -91.5t-94.5 -64.5t-151.5 -25.5l-17 -62q108 -18 165 -62.5t54 -119.5q-1 -85 -66 -126.5t-167 -41.5q-55 0 -106 11.5t-76 25.5l26 80q53 -31 119 -35
q154 -4 154 92q0 22 -8 39.5t-27 29.5t-34 19.5t-46.5 13.5t-46 8.5t-49.5 6.5l43 125q-169 15 -245.5 147.5t-76.5 411.5q0 300 90 431.5t289 131.5q79 0 137.5 -15t95 -40.5t58.5 -64.5t30.5 -81.5t8.5 -97.5l-131 -19q0 50 -7.5 83.5t-28 62.5t-61 43t-102.5 14
q-131 0 -188.5 -102t-57.5 -346z" />
    <glyph glyph-name="egrave" unicode="&#xe8;" horiz-adv-x="909" 
d="M231 494q0 -84 6 -144t21 -111.5t42 -82.5t69 -48.5t100 -17.5q122 0 166.5 52t44.5 157l135 -18q0 -70 -15.5 -121.5t-52.5 -93.5t-106.5 -64t-169.5 -22q-113 0 -188.5 36.5t-116.5 112.5t-57.5 174t-16.5 240q0 114 9.5 198t34.5 156t67 116t107 68.5t155 24.5
t154.5 -25t104.5 -68.5t63 -116.5t31.5 -155t8.5 -198v-49h-596zM463 995q-133 0 -182.5 -90t-49.5 -303h455q0 82 -4.5 138.5t-18.5 108t-38.5 81.5t-64.5 47.5t-97 17.5zM281 1638h145l102 -426h-125z" />
    <glyph glyph-name="eacute" unicode="&#xe9;" horiz-adv-x="909" 
d="M231 494q0 -84 6 -144t21 -111.5t42 -82.5t69 -48.5t100 -17.5q122 0 166.5 52t44.5 157l135 -18q0 -70 -15.5 -121.5t-52.5 -93.5t-106.5 -64t-169.5 -22q-113 0 -188.5 36.5t-116.5 112.5t-57.5 174t-16.5 240q0 114 9.5 198t34.5 156t67 116t107 68.5t155 24.5
t154.5 -25t104.5 -68.5t63 -116.5t31.5 -155t8.5 -198v-49h-596zM463 995q-133 0 -182.5 -90t-49.5 -303h455q0 82 -4.5 138.5t-18.5 108t-38.5 81.5t-64.5 47.5t-97 17.5zM500 1638h145l-123 -426h-125z" />
    <glyph glyph-name="ecircumflex" unicode="&#xea;" horiz-adv-x="909" 
d="M231 494q0 -84 6 -144t21 -111.5t42 -82.5t69 -48.5t100 -17.5q122 0 166.5 52t44.5 157l135 -18q0 -70 -15.5 -121.5t-52.5 -93.5t-106.5 -64t-169.5 -22q-113 0 -188.5 36.5t-116.5 112.5t-57.5 174t-16.5 240q0 114 9.5 198t34.5 156t67 116t107 68.5t155 24.5
t154.5 -25t104.5 -68.5t63 -116.5t31.5 -155t8.5 -198v-49h-596zM463 995q-133 0 -182.5 -90t-49.5 -303h455q0 82 -4.5 138.5t-18.5 108t-38.5 81.5t-64.5 47.5t-97 17.5zM289 1212h-109l207 426h152l206 -426h-108l-174 326z" />
    <glyph glyph-name="edieresis" unicode="&#xeb;" horiz-adv-x="909" 
d="M231 494q0 -84 6 -144t21 -111.5t42 -82.5t69 -48.5t100 -17.5q122 0 166.5 52t44.5 157l135 -18q0 -70 -15.5 -121.5t-52.5 -93.5t-106.5 -64t-169.5 -22q-113 0 -188.5 36.5t-116.5 112.5t-57.5 174t-16.5 240q0 114 9.5 198t34.5 156t67 116t107 68.5t155 24.5
t154.5 -25t104.5 -68.5t63 -116.5t31.5 -155t8.5 -198v-49h-596zM463 995q-133 0 -182.5 -90t-49.5 -303h455q0 82 -4.5 138.5t-18.5 108t-38.5 81.5t-64.5 47.5t-97 17.5zM373 1528v-156h-156v156h156zM709 1528v-156h-156v156h156z" />
    <glyph glyph-name="igrave" unicode="&#xec;" horiz-adv-x="368" 
d="M119 0v1085h131v-1085h-131zM-2 1638h145l103 -426h-125z" />
    <glyph glyph-name="iacute" unicode="&#xed;" horiz-adv-x="368" 
d="M119 0v1085h131v-1085h-131zM227 1638h146l-123 -426h-125z" />
    <glyph glyph-name="icircumflex" unicode="&#xee;" horiz-adv-x="368" 
d="M119 0v1085h131v-1085h-131zM10 1212h-108l207 426h151l207 -426h-109l-174 326z" />
    <glyph glyph-name="idieresis" unicode="&#xef;" horiz-adv-x="368" 
d="M119 0v1085h131v-1085h-131zM94 1528v-156h-155v156h155zM430 1528v-156h-156v156h156z" />
    <glyph glyph-name="eth" unicode="&#xf0;" horiz-adv-x="942" 
d="M147 1257v105l261 98q-121 106 -287 178h203q118 -66 196 -135l273 103v-105l-197 -74q132 -149 194 -361.5t62 -510.5v-12q0 -209 -41 -333t-123 -177t-217 -53q-202 0 -290.5 126.5t-88.5 436.5q0 154 23 263.5t69.5 175t109.5 95t148 29.5q175 0 252 -139
q-61 250 -209 417zM471 94q128 0 186 102t58 347t-57.5 346.5t-186.5 101.5t-186.5 -101.5t-57.5 -346.5t58 -347t186 -102z" />
    <glyph glyph-name="ntilde" unicode="&#xf1;" horiz-adv-x="931" 
d="M223 1085l13 -133q49 68 132.5 111t196.5 43q128 0 196 -66.5t68 -173.5v-866h-131v825q0 74 -42.5 118t-131.5 44t-161 -40.5t-117 -108.5v-838h-131v848l-6 237h114zM682 1536l98 -14q-8 -108 -51.5 -168.5t-120.5 -59.5q-43 1 -84 24t-68 50.5t-60.5 51.5t-63.5 26
q-42 1 -59.5 -30.5t-22.5 -94.5l-98 14q6 106 49.5 167.5t120.5 60.5q36 -1 69.5 -16.5t59 -37.5t49 -44t49 -37.5t49.5 -16.5q30 -2 48.5 15t25.5 42.5t10 67.5z" />
    <glyph glyph-name="ograve" unicode="&#xf2;" horiz-adv-x="942" 
d="M471 96q130 0 187 101t57 346t-57 345.5t-187 100.5t-187 -100.5t-57 -345.5t57 -346t187 -101zM471 -20q-202 0 -290.5 126.5t-88.5 436.5q0 209 40.5 332.5t122 177t216.5 53.5t216.5 -53.5t122 -177t40.5 -332.5q0 -310 -88.5 -436.5t-290.5 -126.5zM289 1638h145
l103 -426h-125z" />
    <glyph glyph-name="oacute" unicode="&#xf3;" horiz-adv-x="942" 
d="M471 96q130 0 187 101t57 346t-57 345.5t-187 100.5t-187 -100.5t-57 -345.5t57 -346t187 -101zM471 -20q-202 0 -290.5 126.5t-88.5 436.5q0 209 40.5 332.5t122 177t216.5 53.5t216.5 -53.5t122 -177t40.5 -332.5q0 -310 -88.5 -436.5t-290.5 -126.5zM508 1638h145
l-123 -426h-124z" />
    <glyph glyph-name="ocircumflex" unicode="&#xf4;" horiz-adv-x="942" 
d="M471 96q130 0 187 101t57 346t-57 345.5t-187 100.5t-187 -100.5t-57 -345.5t57 -346t187 -101zM471 -20q-202 0 -290.5 126.5t-88.5 436.5q0 209 40.5 332.5t122 177t216.5 53.5t216.5 -53.5t122 -177t40.5 -332.5q0 -310 -88.5 -436.5t-290.5 -126.5zM297 1212h-109
l207 426h152l207 -426h-109l-174 326z" />
    <glyph glyph-name="otilde" unicode="&#xf5;" horiz-adv-x="942" 
d="M471 96q130 0 187 101t57 346t-57 345.5t-187 100.5t-187 -100.5t-57 -345.5t57 -346t187 -101zM471 -20q-202 0 -290.5 126.5t-88.5 436.5q0 209 40.5 332.5t122 177t216.5 53.5t216.5 -53.5t122 -177t40.5 -332.5q0 -310 -88.5 -436.5t-290.5 -126.5zM684 1536l98 -14
q-8 -108 -51.5 -168.5t-120.5 -59.5q-43 1 -84 24t-68 50.5t-60.5 51.5t-63.5 26q-42 1 -59.5 -30.5t-22.5 -94.5l-98 14q6 106 49.5 167.5t120.5 60.5q36 -1 69.5 -16.5t59 -37.5t49 -44t49 -37.5t49.5 -16.5q30 -2 48.5 15t25.5 42.5t10 67.5z" />
    <glyph glyph-name="odieresis" unicode="&#xf6;" horiz-adv-x="942" 
d="M471 96q130 0 187 101t57 346t-57 345.5t-187 100.5t-187 -100.5t-57 -345.5t57 -346t187 -101zM471 -20q-202 0 -290.5 126.5t-88.5 436.5q0 209 40.5 332.5t122 177t216.5 53.5t216.5 -53.5t122 -177t40.5 -332.5q0 -310 -88.5 -436.5t-290.5 -126.5zM381 1528v-156
h-156v156h156zM717 1528v-156h-156v156h156z" />
    <glyph glyph-name="divide" unicode="&#xf7;" horiz-adv-x="1474" 
d="M1290 737h-1106v123h1106v-123zM825 430v-174h-176v174h176zM825 1341v-174h-176v174h176z" />
    <glyph glyph-name="oslash" unicode="&#xf8;" horiz-adv-x="942" 
d="M829 1085l-65 -110q88 -134 88 -432q0 -209 -41 -333t-123 -177t-217 -53q-160 0 -242 71l-28 -51h-88l63 111q-84 133 -84 432q0 209 40.5 332.5t122 177t216.5 53.5q153 0 240 -72l30 51h88zM471 94q128 0 186 102t58 347q0 186 -33 286l-383 -657q58 -78 172 -78z
M227 543q0 -189 33 -289l381 659q-57 78 -170 78q-129 0 -186.5 -101.5t-57.5 -346.5z" />
    <glyph glyph-name="ugrave" unicode="&#xf9;" horiz-adv-x="929" 
d="M279 1638h145l102 -426h-125zM709 0l-13 133q-51 -68 -134 -110.5t-197 -42.5q-126 0 -194.5 66t-68.5 173v866h131v-825q0 -73 42.5 -117.5t130.5 -44.5q89 0 162 41.5t116 108.5v837h131v-847l6 -238h-112z" />
    <glyph glyph-name="uacute" unicode="&#xfa;" horiz-adv-x="929" 
d="M498 1638h145l-123 -426h-125zM709 0l-13 133q-51 -68 -134 -110.5t-197 -42.5q-126 0 -194.5 66t-68.5 173v866h131v-825q0 -73 42.5 -117.5t130.5 -44.5q89 0 162 41.5t116 108.5v837h131v-847l6 -238h-112z" />
    <glyph glyph-name="ucircumflex" unicode="&#xfb;" horiz-adv-x="929" 
d="M287 1212h-109l207 426h152l206 -426h-108l-174 326zM709 0l-13 133q-51 -68 -134 -110.5t-197 -42.5q-126 0 -194.5 66t-68.5 173v866h131v-825q0 -73 42.5 -117.5t130.5 -44.5q89 0 162 41.5t116 108.5v837h131v-847l6 -238h-112z" />
    <glyph glyph-name="udieresis" unicode="&#xfc;" horiz-adv-x="929" 
d="M371 1528v-156h-156v156h156zM707 1528v-156h-156v156h156zM709 0l-13 133q-51 -68 -134 -110.5t-197 -42.5q-126 0 -194.5 66t-68.5 173v866h131v-825q0 -73 42.5 -117.5t130.5 -44.5q89 0 162 41.5t116 108.5v837h131v-847l6 -238h-112z" />
    <glyph glyph-name="yacute" unicode="&#xfd;" horiz-adv-x="882" 
d="M442 178l240 907h141l-299 -1022l-153 -473h-148l148 422l-312 1073h142zM477 1638h146l-123 -426h-125z" />
    <glyph glyph-name="thorn" unicode="&#xfe;" 
d="M113 -410v2048h133v-671q111 139 276 139q79 0 138.5 -25t98.5 -70.5t63 -116.5t34 -156t10 -195t-10 -195t-34 -156t-63 -116.5t-98.5 -70.5t-138.5 -25q-165 0 -276 139v-529h-133zM729 543q0 90 -5.5 155t-20.5 122t-40.5 92t-66.5 55t-98 20q-74 0 -134 -39
t-118 -114v-582q58 -76 118 -115t134 -39q57 0 98 20t66.5 55t40.5 92.5t20.5 122.5t5.5 155z" />
    <glyph glyph-name="ydieresis" unicode="&#xff;" horiz-adv-x="882" 
d="M442 178l240 907h141l-299 -1022l-153 -473h-148l148 422l-312 1073h142zM350 1528v-156h-155v156h155zM686 1528v-156h-156v156h156z" />
    <glyph glyph-name="Amacron" unicode="&#x100;" horiz-adv-x="987" 
d="M391 1616h203l338 -1616h-137l-70 346h-463l-69 -346h-138zM494 1495l-209 -1030h415zM285 1864v121h417v-121h-417z" />
    <glyph glyph-name="amacron" unicode="&#x101;" horiz-adv-x="907" 
d="M246 1393v120h418v-120h-418zM463 1001q-111 0 -157 -49.5t-46 -160.5l-135 18q0 150 76.5 223.5t261.5 73.5q91 0 155 -18.5t102.5 -57.5t56 -93.5t18.5 -131.5v-567l6 -238h-115l-12 133q-105 -153 -314 -153q-144 0 -211 85t-67 230q0 164 95 245.5t296 108.5l191 25
v147q0 180 -201 180zM217 301q0 -113 46.5 -161t135.5 -48q76 0 147 39t118 107v337l-177 -24q-141 -20 -205.5 -72.5t-64.5 -177.5z" />
    <glyph glyph-name="Abreve" unicode="&#x102;" horiz-adv-x="987" 
d="M391 1616h203l338 -1616h-137l-70 346h-463l-69 -346h-138zM494 1495l-209 -1030h415zM494 1694q-71 0 -122 20t-82 53.5t-48.5 88t-23.5 113.5t-5 140h104q-2 -159 35 -231t142 -72t141.5 71.5t34.5 231.5h104q1 -81 -5 -140t-23.5 -113.5t-48 -88t-81.5 -53.5t-122 -20
z" />
    <glyph glyph-name="abreve" unicode="&#x103;" horiz-adv-x="907" 
d="M455 1223q-71 0 -122 20t-82 53.5t-48.5 88t-23.5 113.5t-5 140h105q-2 -160 34.5 -231.5t141.5 -71.5t141.5 71.5t34.5 231.5h104q1 -81 -5 -140t-23.5 -113.5t-48 -88t-81.5 -53.5t-122 -20zM463 1001q-111 0 -157 -49.5t-46 -160.5l-135 18q0 150 76.5 223.5
t261.5 73.5q91 0 155 -18.5t102.5 -57.5t56 -93.5t18.5 -131.5v-567l6 -238h-115l-12 133q-105 -153 -314 -153q-144 0 -211 85t-67 230q0 164 95 245.5t296 108.5l191 25v147q0 180 -201 180zM217 301q0 -113 46.5 -161t135.5 -48q76 0 147 39t118 107v337l-177 -24
q-141 -20 -205.5 -72.5t-64.5 -177.5z" />
    <glyph glyph-name="Aogonek" unicode="&#x104;" horiz-adv-x="987" 
d="M391 1616h203l338 -1616q-86 -23 -137 -79t-50 -140q0 -59 33.5 -87.5t81.5 -25.5q66 2 117 43l31 -94q-68 -49 -168 -49q-79 0 -138 44.5t-63 137.5q-14 172 149 273l-63 323h-463l-69 -346h-138zM494 1495l-209 -1030h415z" />
    <glyph glyph-name="aogonek" unicode="&#x105;" horiz-adv-x="907" 
d="M463 1001q-111 0 -157 -49.5t-46 -160.5l-135 18q0 150 76.5 223.5t261.5 73.5q91 0 155 -18.5t102.5 -57.5t56 -93.5t18.5 -131.5v-567l6 -238q-87 -23 -137.5 -78.5t-49.5 -140.5q0 -60 33 -88t82 -25q58 2 117 43l31 -94q-68 -49 -168 -49q-79 0 -138 44.5t-65 137.5
q-12 186 176 287l-8 96q-105 -153 -314 -153q-144 0 -211 85t-67 230q0 164 95 245.5t296 108.5l191 25v147q0 180 -201 180zM217 301q0 -113 46.5 -161t135.5 -48q76 0 147 39t118 107v337l-177 -24q-141 -20 -205.5 -72.5t-64.5 -177.5z" />
    <glyph glyph-name="Cacute" unicode="&#x106;" horiz-adv-x="995" 
d="M233 799q0 -132 4.5 -224.5t16.5 -175.5t32.5 -135.5t54 -91.5t80.5 -55.5t111 -16.5q78 0 126.5 18t75.5 61t37 102t11 155l136 -20q0 -114 -16.5 -190.5t-58.5 -134t-118 -84.5t-190 -27q-102 0 -174.5 27.5t-124 85t-81.5 156t-43.5 231t-13.5 319.5t13.5 319.5
t43.5 231t81.5 156t124 85t174.5 27.5q114 0 190 -27t118 -84.5t58.5 -134t16.5 -190.5l-136 -21q-1 96 -11 155t-37 102t-75.5 61t-126.5 18q-64 0 -111 -16.5t-80.5 -55.5t-54 -91t-32.5 -135t-16.5 -175.5t-4.5 -224.5zM569 2109h146l-123 -426h-125z" />
    <glyph glyph-name="cacute" unicode="&#x107;" horiz-adv-x="868" 
d="M225 543q0 -244 57.5 -346.5t188.5 -102.5q62 0 102.5 14t61 43t28 62.5t7.5 83.5l131 -18q0 -55 -8.5 -97.5t-30.5 -81.5t-58.5 -64.5t-95 -40.5t-137.5 -15q-199 0 -289 131.5t-90 431.5t90 431.5t289 131.5q79 0 137.5 -15t95 -40.5t58.5 -64.5t30.5 -81.5t8.5 -97.5
l-131 -19q0 50 -7.5 83.5t-28 62.5t-61 43t-102.5 14q-131 0 -188.5 -102t-57.5 -346zM498 1638h145l-123 -426h-125z" />
    <glyph glyph-name="Ccircumflex" unicode="&#x108;" horiz-adv-x="995" 
d="M233 799q0 -132 4.5 -224.5t16.5 -175.5t32.5 -135.5t54 -91.5t80.5 -55.5t111 -16.5q78 0 126.5 18t75.5 61t37 102t11 155l136 -20q0 -114 -16.5 -190.5t-58.5 -134t-118 -84.5t-190 -27q-102 0 -174.5 27.5t-124 85t-81.5 156t-43.5 231t-13.5 319.5t13.5 319.5
t43.5 231t81.5 156t124 85t174.5 27.5q114 0 190 -27t118 -84.5t58.5 -134t16.5 -190.5l-136 -21q-1 96 -11 155t-37 102t-75.5 61t-126.5 18q-64 0 -111 -16.5t-80.5 -55.5t-54 -91t-32.5 -135t-16.5 -175.5t-4.5 -224.5zM358 1683h-108l207 426h151l207 -426h-108
l-175 326z" />
    <glyph glyph-name="ccircumflex" unicode="&#x109;" horiz-adv-x="868" 
d="M225 543q0 -244 57.5 -346.5t188.5 -102.5q62 0 102.5 14t61 43t28 62.5t7.5 83.5l131 -18q0 -55 -8.5 -97.5t-30.5 -81.5t-58.5 -64.5t-95 -40.5t-137.5 -15q-199 0 -289 131.5t-90 431.5t90 431.5t289 131.5q79 0 137.5 -15t95 -40.5t58.5 -64.5t30.5 -81.5t8.5 -97.5
l-131 -19q0 50 -7.5 83.5t-28 62.5t-61 43t-102.5 14q-131 0 -188.5 -102t-57.5 -346zM287 1212h-109l207 426h152l206 -426h-108l-174 326z" />
    <glyph glyph-name="Cdotaccent" unicode="&#x10a;" horiz-adv-x="995" 
d="M233 799q0 -132 4.5 -224.5t16.5 -175.5t32.5 -135.5t54 -91.5t80.5 -55.5t111 -16.5q78 0 126.5 18t75.5 61t37 102t11 155l136 -20q0 -114 -16.5 -190.5t-58.5 -134t-118 -84.5t-190 -27q-102 0 -174.5 27.5t-124 85t-81.5 156t-43.5 231t-13.5 319.5t13.5 319.5
t43.5 231t81.5 156t124 85t174.5 27.5q114 0 190 -27t118 -84.5t58.5 -134t16.5 -190.5l-136 -21q-1 96 -11 155t-37 102t-75.5 61t-126.5 18q-64 0 -111 -16.5t-80.5 -55.5t-54 -91t-32.5 -135t-16.5 -175.5t-4.5 -224.5zM610 1999v-156h-155v156h155z" />
    <glyph glyph-name="cdotaccent" unicode="&#x10b;" horiz-adv-x="868" 
d="M225 543q0 -244 57.5 -346.5t188.5 -102.5q62 0 102.5 14t61 43t28 62.5t7.5 83.5l131 -18q0 -55 -8.5 -97.5t-30.5 -81.5t-58.5 -64.5t-95 -40.5t-137.5 -15q-199 0 -289 131.5t-90 431.5t90 431.5t289 131.5q79 0 137.5 -15t95 -40.5t58.5 -64.5t30.5 -81.5t8.5 -97.5
l-131 -19q0 50 -7.5 83.5t-28 62.5t-61 43t-102.5 14q-131 0 -188.5 -102t-57.5 -346zM539 1528v-156h-156v156h156z" />
    <glyph glyph-name="Ccaron" unicode="&#x10c;" horiz-adv-x="995" 
d="M233 799q0 -132 4.5 -224.5t16.5 -175.5t32.5 -135.5t54 -91.5t80.5 -55.5t111 -16.5q78 0 126.5 18t75.5 61t37 102t11 155l136 -20q0 -114 -16.5 -190.5t-58.5 -134t-118 -84.5t-190 -27q-102 0 -174.5 27.5t-124 85t-81.5 156t-43.5 231t-13.5 319.5t13.5 319.5
t43.5 231t81.5 156t124 85t174.5 27.5q114 0 190 -27t118 -84.5t58.5 -134t16.5 -190.5l-136 -21q-1 96 -11 155t-37 102t-75.5 61t-126.5 18q-64 0 -111 -16.5t-80.5 -55.5t-54 -91t-32.5 -135t-16.5 -175.5t-4.5 -224.5zM713 2109h110l-213 -426h-155l-213 426h110
l180 -319z" />
    <glyph glyph-name="ccaron" unicode="&#x10d;" horiz-adv-x="868" 
d="M225 543q0 -244 57.5 -346.5t188.5 -102.5q62 0 102.5 14t61 43t28 62.5t7.5 83.5l131 -18q0 -55 -8.5 -97.5t-30.5 -81.5t-58.5 -64.5t-95 -40.5t-137.5 -15q-199 0 -289 131.5t-90 431.5t90 431.5t289 131.5q79 0 137.5 -15t95 -40.5t58.5 -64.5t30.5 -81.5t8.5 -97.5
l-131 -19q0 50 -7.5 83.5t-28 62.5t-61 43t-102.5 14q-131 0 -188.5 -102t-57.5 -346zM641 1638h111l-213 -426h-156l-213 426h111l180 -319z" />
    <glyph glyph-name="Dcaron" unicode="&#x10e;" horiz-adv-x="1048" 
d="M420 0h-301v1597h301q108 0 185.5 -15.5t138 -54t99 -96.5t63 -149.5t34.5 -207t10 -275.5t-10 -275.5t-34.5 -207.5t-63 -150t-99 -96.5t-138 -54t-185.5 -15.5zM254 121h184q82 0 140.5 14t101 49.5t68 83.5t40.5 129.5t20 173.5t5 228t-5 228t-20 173.5t-40.5 129.5
t-68 83.5t-101 49.5t-140.5 14h-184v-1356zM651 2109h111l-213 -426h-156l-213 426h111l180 -319z" />
    <glyph glyph-name="dcaron" unicode="&#x10f;" horiz-adv-x="1019" 
d="M434 1106q166 0 279 -139v671h131v-1400l6 -238h-115l-12 133q-113 -153 -289 -153q-79 0 -138.5 25t-98 70.5t-62 117t-33.5 155.5t-10 195t10 195t33.5 155.5t62 117t98 70.5t138.5 25zM713 252v582q-58 75 -118 114t-134 39q-57 0 -98 -20t-67 -55t-41 -92t-20.5 -122
t-5.5 -155t5.5 -155t20.5 -122.5t41 -92.5t67 -55t98 -20q74 0 134 39t118 115zM967 1638h123l-50 -426h-73v426z" />
    <glyph glyph-name="Dcroat" unicode="&#x110;" horiz-adv-x="1140" 
d="M512 0h-301v760h-150v121h150v716h301q108 0 185.5 -15.5t138 -54t99 -96.5t63 -149.5t34.5 -207t10 -275.5t-10 -275.5t-34.5 -207.5t-63 -150t-99 -96.5t-138 -54t-185.5 -15.5zM346 121h184q82 0 140.5 14t101 49.5t68 83.5t40.5 129.5t20 173.5t5 228t-5 228
t-20 173.5t-40.5 129.5t-68 83.5t-101 49.5t-140.5 14h-184v-596h281v-121h-281v-639z" />
    <glyph glyph-name="dcroat" unicode="&#x111;" horiz-adv-x="1003" 
d="M434 1106q166 0 279 -139v364h-234v96h234v211h131v-211h170v-96h-170v-1093l6 -238h-115l-12 133q-113 -153 -289 -153q-79 0 -138.5 25t-98 70.5t-62 117t-33.5 155.5t-10 195t10 195t33.5 155.5t62 117t98 70.5t138.5 25zM713 252v582q-58 75 -118 114t-134 39
q-57 0 -98 -20t-67 -55t-41 -92t-20.5 -122t-5.5 -155t5.5 -155t20.5 -122.5t41 -92.5t67 -55t98 -20q74 0 134 39t118 115z" />
    <glyph glyph-name="Emacron" unicode="&#x112;" horiz-adv-x="874" 
d="M119 1597h641v-120h-506v-596h438v-121h-438v-639h543v-121h-678v1597zM227 1864v121h418v-121h-418z" />
    <glyph glyph-name="emacron" unicode="&#x113;" horiz-adv-x="909" 
d="M231 494q0 -84 6 -144t21 -111.5t42 -82.5t69 -48.5t100 -17.5q122 0 166.5 52t44.5 157l135 -18q0 -70 -15.5 -121.5t-52.5 -93.5t-106.5 -64t-169.5 -22q-113 0 -188.5 36.5t-116.5 112.5t-57.5 174t-16.5 240q0 114 9.5 198t34.5 156t67 116t107 68.5t155 24.5
t154.5 -25t104.5 -68.5t63 -116.5t31.5 -155t8.5 -198v-49h-596zM463 995q-133 0 -182.5 -90t-49.5 -303h455q0 82 -4.5 138.5t-18.5 108t-38.5 81.5t-64.5 47.5t-97 17.5zM254 1393v120h418v-120h-418z" />
    <glyph glyph-name="Ebreve" unicode="&#x114;" horiz-adv-x="874" 
d="M119 1597h641v-120h-506v-596h438v-121h-438v-639h543v-121h-678v1597zM436 1694q-71 0 -122 20t-81.5 53.5t-48 88t-23.5 113.5t-5 140h104q-2 -160 34.5 -231.5t141.5 -71.5t141.5 71.5t34.5 231.5h105q1 -81 -5 -140t-23.5 -113.5t-48.5 -88t-82 -53.5t-122 -20z" />
    <glyph glyph-name="ebreve" unicode="&#x115;" horiz-adv-x="909" 
d="M231 494q0 -84 6 -144t21 -111.5t42 -82.5t69 -48.5t100 -17.5q122 0 166.5 52t44.5 157l135 -18q0 -70 -15.5 -121.5t-52.5 -93.5t-106.5 -64t-169.5 -22q-113 0 -188.5 36.5t-116.5 112.5t-57.5 174t-16.5 240q0 114 9.5 198t34.5 156t67 116t107 68.5t155 24.5
t154.5 -25t104.5 -68.5t63 -116.5t31.5 -155t8.5 -198v-49h-596zM463 995q-133 0 -182.5 -90t-49.5 -303h455q0 82 -4.5 138.5t-18.5 108t-38.5 81.5t-64.5 47.5t-97 17.5zM463 1223q-71 0 -122 20t-82 53.5t-48.5 88t-23.5 113.5t-5 140h105q-2 -160 34.5 -231.5
t141.5 -71.5t141.5 71.5t34.5 231.5h104q1 -81 -5 -140t-23.5 -113.5t-48 -88t-81.5 -53.5t-122 -20z" />
    <glyph glyph-name="Edotaccent" unicode="&#x116;" horiz-adv-x="876" 
d="M121 1597h641v-120h-506v-596h438v-121h-438v-639h543v-121h-678v1597zM516 1999v-156h-156v156h156z" />
    <glyph glyph-name="edotaccent" unicode="&#x117;" horiz-adv-x="909" 
d="M231 494q0 -84 6 -144t21 -111.5t42 -82.5t69 -48.5t100 -17.5q122 0 166.5 52t44.5 157l135 -18q0 -70 -15.5 -121.5t-52.5 -93.5t-106.5 -64t-169.5 -22q-113 0 -188.5 36.5t-116.5 112.5t-57.5 174t-16.5 240q0 114 9.5 198t34.5 156t67 116t107 68.5t155 24.5
t154.5 -25t104.5 -68.5t63 -116.5t31.5 -155t8.5 -198v-49h-596zM463 995q-133 0 -182.5 -90t-49.5 -303h455q0 82 -4.5 138.5t-18.5 108t-38.5 81.5t-64.5 47.5t-97 17.5zM541 1528v-156h-156v156h156z" />
    <glyph glyph-name="Eogonek" unicode="&#x118;" horiz-adv-x="874" 
d="M119 1597h641v-120h-506v-596h438v-121h-438v-639h543v-121q-86 -23 -137 -79t-50 -140q0 -59 33.5 -87.5t81.5 -25.5q66 2 117 43l30 -94q-68 -49 -167 -49q-79 0 -138 44.5t-63 137.5q-12 154 117 250h-502v1597z" />
    <glyph glyph-name="eogonek" unicode="&#x119;" horiz-adv-x="909" 
d="M231 494q0 -84 6 -144t21 -111.5t42 -82.5t69 -48.5t100 -17.5q122 0 166.5 52t44.5 157l135 -18q0 -71 -15 -123t-56 -94.5t-109 -63.5q-189 -58 -186 -219q0 -59 33 -87.5t81 -25.5q66 2 117 43l31 -94q-68 -49 -168 -49q-79 0 -138 44.5t-63 137.5q-12 140 94 232
q-83 4 -143 31.5t-98.5 72.5t-61.5 115.5t-32 151.5t-9 190q0 114 9.5 198t34.5 156t67 116t107 68.5t155 24.5t154.5 -25t104.5 -68.5t63 -116.5t31.5 -155t8.5 -198v-49h-596zM463 995q-133 0 -182.5 -90t-49.5 -303h455q0 82 -4.5 138.5t-18.5 108t-38.5 81.5t-64.5 47.5
t-97 17.5z" />
    <glyph glyph-name="Ecaron" unicode="&#x11a;" horiz-adv-x="874" 
d="M119 1597h641v-120h-506v-596h438v-121h-438v-639h543v-121h-678v1597zM616 2109h111l-213 -426h-156l-213 426h111l180 -319z" />
    <glyph glyph-name="ecaron" unicode="&#x11b;" horiz-adv-x="909" 
d="M231 494q0 -84 6 -144t21 -111.5t42 -82.5t69 -48.5t100 -17.5q122 0 166.5 52t44.5 157l135 -18q0 -70 -15.5 -121.5t-52.5 -93.5t-106.5 -64t-169.5 -22q-113 0 -188.5 36.5t-116.5 112.5t-57.5 174t-16.5 240q0 114 9.5 198t34.5 156t67 116t107 68.5t155 24.5
t154.5 -25t104.5 -68.5t63 -116.5t31.5 -155t8.5 -198v-49h-596zM463 995q-133 0 -182.5 -90t-49.5 -303h455q0 82 -4.5 138.5t-18.5 108t-38.5 81.5t-64.5 47.5t-97 17.5zM643 1638h111l-213 -426h-156l-213 426h111l180 -319z" />
    <glyph glyph-name="Gcircumflex" unicode="&#x11c;" horiz-adv-x="1044" 
d="M98 799q0 184 14 315t45.5 230t85 158t129.5 87.5t183 28.5q116 0 191.5 -26.5t117.5 -85t58 -134.5t16 -190l-135 -21q-1 95 -11 154.5t-37.5 102.5t-76 61t-125.5 18q-78 0 -132.5 -25.5t-91.5 -76t-58 -136.5t-29.5 -195t-8.5 -265q0 -100 2 -173.5t8 -145t16 -121.5
t26.5 -95.5t39.5 -74t54 -50t71 -30.5t91 -9q157 0 266 50v552h-211v119h342v-751q-89 -47 -181 -68.5t-218 -21.5q-107 0 -182 29t-126 86.5t-80 158.5t-41 230t-12 315zM358 1683h-108l207 426h151l207 -426h-108l-175 326z" />
    <glyph glyph-name="gcircumflex" unicode="&#x11d;" 
d="M434 23q-79 0 -138.5 24t-98 68t-62 112.5t-33.5 150t-10 187.5t10 186.5t33.5 149t62 112.5t98 68.5t138.5 24.5q175 0 289 -154l12 133h115l-6 -237v-950q0 -159 -86.5 -243.5t-280.5 -84.5q-204 0 -284 77.5t-80 235.5l133 19q-2 -115 46 -168t181 -53t186.5 54.5
t53.5 155.5v271q-111 -139 -279 -139zM713 297v537q-58 76 -118 114.5t-136 38.5q-56 0 -97 -19t-66.5 -52.5t-40.5 -87.5t-20.5 -116t-5.5 -147t5.5 -147t20.5 -116.5t40.5 -88.5t66.5 -53t97 -19q76 0 136 39.5t118 116.5zM297 1212h-109l207 426h152l207 -426h-109
l-174 326z" />
    <glyph glyph-name="Gbreve" unicode="&#x11e;" horiz-adv-x="1044" 
d="M98 799q0 184 14 315t45.5 230t85 158t129.5 87.5t183 28.5q116 0 191.5 -26.5t117.5 -85t58 -134.5t16 -190l-135 -21q-1 95 -11 154.5t-37.5 102.5t-76 61t-125.5 18q-78 0 -132.5 -25.5t-91.5 -76t-58 -136.5t-29.5 -195t-8.5 -265q0 -100 2 -173.5t8 -145t16 -121.5
t26.5 -95.5t39.5 -74t54 -50t71 -30.5t91 -9q157 0 266 50v552h-211v119h342v-751q-89 -47 -181 -68.5t-218 -21.5q-107 0 -182 29t-126 86.5t-80 158.5t-41 230t-12 315zM532 1694q-71 0 -122 20t-81.5 53.5t-48 88t-23.5 113.5t-5 140h104q-2 -160 34.5 -231.5
t141.5 -71.5t142 72t35 231h104q1 -81 -5 -140t-23.5 -113.5t-48.5 -88t-82 -53.5t-122 -20z" />
    <glyph glyph-name="gbreve" unicode="&#x11f;" 
d="M434 23q-79 0 -138.5 24t-98 68t-62 112.5t-33.5 150t-10 187.5t10 186.5t33.5 149t62 112.5t98 68.5t138.5 24.5q175 0 289 -154l12 133h115l-6 -237v-950q0 -159 -86.5 -243.5t-280.5 -84.5q-204 0 -284 77.5t-80 235.5l133 19q-2 -115 46 -168t181 -53t186.5 54.5
t53.5 155.5v271q-111 -139 -279 -139zM713 297v537q-58 76 -118 114.5t-136 38.5q-56 0 -97 -19t-66.5 -52.5t-40.5 -87.5t-20.5 -116t-5.5 -147t5.5 -147t20.5 -116.5t40.5 -88.5t66.5 -53t97 -19q76 0 136 39.5t118 116.5zM471 1223q-71 0 -122 20t-82 53.5t-48.5 88
t-23.5 113.5t-5 140h105q-2 -160 34.5 -231.5t141.5 -71.5t141.5 71.5t34.5 231.5h105q1 -81 -5 -140t-23.5 -113.5t-48.5 -88t-82 -53.5t-122 -20z" />
    <glyph glyph-name="Gdotaccent" unicode="&#x120;" horiz-adv-x="1044" 
d="M98 799q0 184 14 315t45.5 230t85 158t129.5 87.5t183 28.5q116 0 191.5 -26.5t117.5 -85t58 -134.5t16 -190l-135 -21q-1 95 -11 154.5t-37.5 102.5t-76 61t-125.5 18q-78 0 -132.5 -25.5t-91.5 -76t-58 -136.5t-29.5 -195t-8.5 -265q0 -100 2 -173.5t8 -145t16 -121.5
t26.5 -95.5t39.5 -74t54 -50t71 -30.5t91 -9q157 0 266 50v552h-211v119h342v-751q-89 -47 -181 -68.5t-218 -21.5q-107 0 -182 29t-126 86.5t-80 158.5t-41 230t-12 315zM610 1999v-156h-155v156h155z" />
    <glyph glyph-name="gdotaccent" unicode="&#x121;" 
d="M434 23q-79 0 -138.5 24t-98 68t-62 112.5t-33.5 150t-10 187.5t10 186.5t33.5 149t62 112.5t98 68.5t138.5 24.5q175 0 289 -154l12 133h115l-6 -237v-950q0 -159 -86.5 -243.5t-280.5 -84.5q-204 0 -284 77.5t-80 235.5l133 19q-2 -115 46 -168t181 -53t186.5 54.5
t53.5 155.5v271q-111 -139 -279 -139zM713 297v537q-58 76 -118 114.5t-136 38.5q-56 0 -97 -19t-66.5 -52.5t-40.5 -87.5t-20.5 -116t-5.5 -147t5.5 -147t20.5 -116.5t40.5 -88.5t66.5 -53t97 -19q76 0 136 39.5t118 116.5zM549 1528v-156h-156v156h156z" />
    <glyph glyph-name="Gcommaaccent" unicode="&#x122;" horiz-adv-x="1044" 
d="M98 799q0 184 14 315t45.5 230t85 158t129.5 87.5t183 28.5q116 0 191.5 -26.5t117.5 -85t58 -134.5t16 -190l-135 -21q-1 95 -11 154.5t-37.5 102.5t-76 61t-125.5 18q-78 0 -132.5 -25.5t-91.5 -76t-58 -136.5t-29.5 -195t-8.5 -265q0 -100 2 -173.5t8 -145t16 -121.5
t26.5 -95.5t39.5 -74t54 -50t71 -30.5t91 -9q157 0 266 50v552h-211v119h342v-751q-89 -47 -181 -68.5t-218 -21.5q-107 0 -182 29t-126 86.5t-80 158.5t-41 230t-12 315zM483 -82h154l-66 -328h-108z" />
    <glyph glyph-name="gcommaaccent" unicode="&#x123;" 
d="M434 23q-79 0 -138.5 24t-98 68t-62 112.5t-33.5 150t-10 187.5t10 186.5t33.5 149t62 112.5t98 68.5t138.5 24.5q175 0 289 -154l12 133h115l-6 -237v-950q0 -159 -86.5 -243.5t-280.5 -84.5q-204 0 -284 77.5t-80 235.5l133 19q-2 -115 46 -168t181 -53t186.5 54.5
t53.5 155.5v271q-111 -139 -279 -139zM713 297v537q-58 76 -118 114.5t-136 38.5q-56 0 -97 -19t-66.5 -52.5t-40.5 -87.5t-20.5 -116t-5.5 -147t5.5 -147t20.5 -116.5t40.5 -88.5t66.5 -53t97 -19q76 0 136 39.5t118 116.5zM530 1212h-157l90 426h98z" />
    <glyph glyph-name="Hcircumflex" unicode="&#x124;" horiz-adv-x="1056" 
d="M803 1597h133v-1597h-133v760h-547v-760h-135v1597h135v-716h547v716zM352 1683h-108l207 426h151l207 -426h-109l-174 326z" />
    <glyph glyph-name="hcircumflex" unicode="&#x125;" horiz-adv-x="931" 
d="M244 1638v-671q51 61 131.5 100t187.5 39q128 0 196 -66.5t68 -173.5v-866h-131v825q0 74 -42.5 118t-131.5 44t-161 -40.5t-117 -108.5v-838h-131v1638h131zM4 1724h-108l206 426h152l207 -426h-109l-174 326z" />
    <glyph glyph-name="Hbar" unicode="&#x126;" horiz-adv-x="1056" 
d="M803 1597h135v-1597h-135v760h-549v-760h-135v1597h135v-297h549v297zM254 881h549v299h-549v-299z" />
    <glyph glyph-name="hbar" unicode="&#x127;" horiz-adv-x="980" 
d="M293 1638v-211h233v-96h-233v-364q51 61 131.5 100t187.5 39q128 0 196.5 -66.5t68.5 -173.5v-866h-132v825q0 74 -42.5 118t-131.5 44t-161 -40.5t-117 -108.5v-838h-131v1331h-172v96h172v211h131z" />
    <glyph glyph-name="Itilde" unicode="&#x128;" horiz-adv-x="393" 
d="M264 1597v-1597h-135v1597h135zM410 2007l98 -14q-8 -108 -51.5 -168.5t-120.5 -59.5q-43 1 -84 24t-68.5 50.5t-61 51.5t-63.5 26q-42 1 -59.5 -30.5t-22.5 -94.5l-98 14q6 106 49.5 167.5t120.5 60.5q36 -1 69.5 -16.5t59 -37.5t49.5 -44t49.5 -37.5t49.5 -16.5
q30 -2 48.5 15t25.5 42.5t10 67.5z" />
    <glyph glyph-name="itilde" unicode="&#x129;" horiz-adv-x="368" 
d="M119 0v1085h131v-1085h-131zM397 1536l99 -14q-8 -108 -51.5 -168.5t-120.5 -59.5q-43 1 -84 24t-68.5 50.5t-61 51.5t-63.5 26q-42 1 -59.5 -30.5t-22.5 -94.5l-98 14q6 106 49.5 167.5t120.5 60.5q36 -1 69.5 -16.5t59 -37.5t49 -44t49 -37.5t49.5 -16.5q30 -2 48.5 15
t25.5 42.5t10 67.5z" />
    <glyph glyph-name="Imacron" unicode="&#x12a;" horiz-adv-x="393" 
d="M264 1597v-1597h-135v1597h135zM-12 1864v121h418v-121h-418z" />
    <glyph glyph-name="imacron" unicode="&#x12b;" horiz-adv-x="368" 
d="M119 0v1085h131v-1085h-131zM-25 1393v120h418v-120h-418z" />
    <glyph glyph-name="Ibreve" unicode="&#x12c;" horiz-adv-x="393" 
d="M264 1597v-1597h-135v1597h135zM197 1694q-71 0 -122 20t-82 53.5t-48.5 88t-23.5 113.5t-5 140h104q-2 -159 35 -231t142 -72t141.5 71.5t34.5 231.5h104q1 -81 -5 -140t-23.5 -113.5t-48 -88t-81.5 -53.5t-122 -20z" />
    <glyph glyph-name="ibreve" unicode="&#x12d;" horiz-adv-x="368" 
d="M119 0v1085h131v-1085h-131zM184 1223q-71 0 -122 20t-81.5 53.5t-48 88t-23.5 113.5t-5 140h104q-2 -160 34.5 -231.5t141.5 -71.5t141.5 71.5t34.5 231.5h105q1 -81 -5 -140t-23.5 -113.5t-48.5 -88t-82 -53.5t-122 -20z" />
    <glyph glyph-name="Iogonek" unicode="&#x12e;" horiz-adv-x="393" 
d="M264 1597v-1597q-70 -23 -113 -79t-42 -140q0 -59 33 -87.5t81 -25.5q66 2 117 43l31 -94q-68 -49 -168 -49q-79 0 -138 44.5t-63 137.5q-11 167 127 268v1579h135z" />
    <glyph glyph-name="iogonek" unicode="&#x12f;" horiz-adv-x="368" 
d="M-25 -242q0 76 37.5 143t106.5 117v1067h131v-1085q-73 -22 -119.5 -81t-46.5 -136q0 -59 32 -88t79 -29q70 0 120 45l31 -94q-68 -49 -168 -49q-82 0 -142.5 46.5t-60.5 143.5zM262 1528v-156h-156v156h156z" />
    <glyph glyph-name="Idotaccent" unicode="&#x130;" horiz-adv-x="393" 
d="M264 1597v-1597h-135v1597h135zM274 1999v-156h-155v156h155z" />
    <glyph glyph-name="dotlessi" unicode="&#x131;" horiz-adv-x="368" 
d="M119 0v1085h131v-1085h-131z" />
    <glyph glyph-name="IJ" unicode="&#x132;" horiz-adv-x="892" 
d="M512 98q58 0 87.5 27t29.5 100v1372h135v-1382q0 -119 -57.5 -178.5t-178.5 -59.5q-79 0 -139 25l12 119q52 -23 111 -23zM266 1597v-1597h-137v1597h137z" />
    <glyph glyph-name="ij" unicode="&#x133;" horiz-adv-x="704" 
d="M119 0v1085h131v-1085h-131zM262 1528v-156h-156v156h156zM586 1085v-1300q0 -106 -54 -161.5t-174 -55.5q-75 0 -129 20l13 117q48 -18 100 -18q57 0 85 24.5t28 93.5v1280h131zM598 1528v-156h-156v156h156z" />
    <glyph glyph-name="Jcircumflex" unicode="&#x134;" horiz-adv-x="847" 
d="M586 1597h133v-1222q0 -214 -77 -304.5t-253 -90.5q-77 0 -133.5 19t-89.5 49.5t-53 79t-26.5 97t-6.5 113.5l131 18q0 -64 7 -107.5t25.5 -80.5t55.5 -53.5t94 -14.5q116 3 154.5 64t38.5 209v1224zM477 1683h-108l206 426h152l207 -426h-109l-174 326z" />
    <glyph glyph-name="jcircumflex" unicode="&#x135;" horiz-adv-x="362" 
d="M250 1085v-1300q0 -106 -53.5 -161.5t-173.5 -55.5q-75 0 -129 20l12 117q48 -18 100 -18q57 0 85 24.5t28 93.5v1280h131zM8 1212h-108l206 426h152l207 -426h-109l-174 326z" />
    <glyph glyph-name="Kcommaaccent" unicode="&#x136;" horiz-adv-x="942" 
d="M254 1597l-4 -888l452 888h156l-373 -704l408 -893h-154l-340 768l-149 -274l4 -494h-135v1597h135zM410 -82h153l-65 -328h-109z" />
    <glyph glyph-name="kcommaaccent" unicode="&#x137;" horiz-adv-x="901" 
d="M240 530l424 555h159l-362 -458l403 -627h-153l-334 524l-137 -176l6 -348h-133v1638h133zM377 -84h153l-65 -328h-109z" />
    <glyph glyph-name="kgreenlandic" unicode="&#x138;" horiz-adv-x="901" 
d="M240 530l424 555h159l-362 -458l403 -627h-153l-334 524l-137 -176l6 -348h-133v1085h133z" />
    <glyph glyph-name="Lacute" unicode="&#x139;" horiz-adv-x="772" 
d="M254 1597v-1476h477v-121h-612v1597h135zM227 2109h146l-123 -426h-125z" />
    <glyph glyph-name="lacute" unicode="&#x13a;" horiz-adv-x="364" 
d="M119 0v1638h131v-1638h-131zM225 2150h146l-123 -426h-125z" />
    <glyph glyph-name="Lcommaaccent" unicode="&#x13b;" horiz-adv-x="772" 
d="M254 1597v-1476h477v-121h-612v1597h135zM348 -82h154l-66 -328h-108z" />
    <glyph glyph-name="lcommaaccent" unicode="&#x13c;" horiz-adv-x="364" 
d="M119 0v1638h131v-1638h-131zM104 -82h154l-65 -328h-109z" />
    <glyph glyph-name="Lcaron" unicode="&#x13d;" horiz-adv-x="772" 
d="M254 1597v-1476h477v-121h-612v1597h135zM473 1638h123l-49 -426h-74v426z" />
    <glyph glyph-name="lcaron" unicode="&#x13e;" horiz-adv-x="425" 
d="M119 0v1638h131v-1638h-131zM373 1638h123l-50 -426h-73v426z" />
    <glyph glyph-name="Ldot" unicode="&#x13f;" horiz-adv-x="786" 
d="M254 1597v-1476h477v-121h-612v1597h135zM623 895v-156h-156v156h156z" />
    <glyph glyph-name="ldot" unicode="&#x140;" horiz-adv-x="581" 
d="M539 887v-176h-177v176h177zM119 0v1638h131v-1638h-131z" />
    <glyph glyph-name="Lslash" unicode="&#x141;" horiz-adv-x="833" 
d="M614 870l-299 -151v-598h478v-121h-613v651l-129 -63v110l129 64v835h135v-768l299 152v-111z" />
    <glyph glyph-name="lslash" unicode="&#x142;" horiz-adv-x="544" 
d="M190 0v805l-147 -90v114l147 91v718h132v-637l170 107v-115l-170 -106v-887h-132z" />
    <glyph glyph-name="Nacute" unicode="&#x143;" horiz-adv-x="1034" 
d="M287 1597l356 -958l150 -418l-7 510v866h129v-1597h-165l-359 958l-149 418l6 -510l2 -866h-131v1597h168zM563 2109h146l-123 -426h-125z" />
    <glyph glyph-name="nacute" unicode="&#x144;" horiz-adv-x="931" 
d="M223 1085l13 -133q49 68 132.5 111t196.5 43q128 0 196 -66.5t68 -173.5v-866h-131v825q0 74 -42.5 118t-131.5 44t-161 -40.5t-117 -108.5v-838h-131v848l-6 237h114zM506 1638h145l-123 -426h-125z" />
    <glyph glyph-name="Ncommaaccent" unicode="&#x145;" horiz-adv-x="1034" 
d="M287 1597l356 -958l150 -418l-7 510v866h129v-1597h-165l-359 958l-149 418l6 -510l2 -866h-131v1597h168zM451 -82h153l-65 -328h-109z" />
    <glyph glyph-name="ncommaaccent" unicode="&#x146;" horiz-adv-x="931" 
d="M223 1085l13 -133q49 68 132.5 111t196.5 43q128 0 196 -66.5t68 -173.5v-866h-131v825q0 74 -42.5 118t-131.5 44t-161 -40.5t-117 -108.5v-838h-131v848l-6 237h114zM393 -82h154l-66 -328h-108z" />
    <glyph glyph-name="Ncaron" unicode="&#x147;" horiz-adv-x="1034" 
d="M287 1597l356 -958l150 -418l-7 510v866h129v-1597h-165l-359 958l-149 418l6 -510l2 -866h-131v1597h168zM707 2109h110l-213 -426h-155l-213 426h110l180 -319z" />
    <glyph glyph-name="ncaron" unicode="&#x148;" horiz-adv-x="931" 
d="M223 1085l13 -133q49 68 132.5 111t196.5 43q128 0 196 -66.5t68 -173.5v-866h-131v825q0 74 -42.5 118t-131.5 44t-161 -40.5t-117 -108.5v-838h-131v848l-6 237h114zM649 1638h111l-213 -426h-156l-213 426h111l180 -319z" />
    <glyph glyph-name="Eng" unicode="&#x14a;" horiz-adv-x="1036" 
d="M287 1597l356 -958l150 -420l-7 512v866h129v-1812q0 -106 -54 -161.5t-175 -55.5q-71 0 -129 20l12 117q48 -18 97 -18q57 0 84.5 24.5t27.5 93.5v119l-387 1034l-149 420l8 -512v-866h-131v1597h168z" />
    <glyph glyph-name="eng" unicode="&#x14b;" horiz-adv-x="931" 
d="M221 1085l12 -133q51 68 134.5 111t197.5 43q126 0 194 -66.5t68 -173.5v-1081q0 -106 -54 -161.5t-175 -55.5q-71 0 -129 20l12 117q48 -18 103 -18t83.5 25t28.5 93v1020q0 74 -42.5 118t-131.5 44q-88 0 -160.5 -41t-115.5 -108v-838h-135v848l-5 237h115z" />
    <glyph glyph-name="Omacron" unicode="&#x14c;" horiz-adv-x="1028" 
d="M516 -20q-100 0 -171 29t-119.5 87t-76 158t-39.5 230t-12 315t12 315t39.5 230t76 158t119.5 87t171 29t171 -29t119.5 -87t76 -158t39.5 -230t12 -315t-12 -315t-39.5 -230t-76 -158t-119.5 -87t-171 -29zM516 1497q-71 0 -119 -24.5t-80 -72t-49.5 -134.5t-24.5 -196
t-7 -271t7 -271t24.5 -196t49.5 -135t80 -72.5t119 -24.5t119 24.5t80.5 72.5t50 135t24.5 196t7 271q0 135 -4.5 231t-16.5 178t-32 133.5t-51.5 88t-74.5 52t-102 15.5zM305 1864v121h418v-121h-418z" />
    <glyph glyph-name="omacron" unicode="&#x14d;" horiz-adv-x="942" 
d="M471 96q130 0 187 101t57 346t-57 345.5t-187 100.5t-187 -100.5t-57 -345.5t57 -346t187 -101zM471 -20q-202 0 -290.5 126.5t-88.5 436.5q0 209 40.5 332.5t122 177t216.5 53.5t216.5 -53.5t122 -177t40.5 -332.5q0 -310 -88.5 -436.5t-290.5 -126.5zM262 1393v120h418
v-120h-418z" />
    <glyph glyph-name="Obreve" unicode="&#x14e;" horiz-adv-x="1028" 
d="M516 -20q-100 0 -171 29t-119.5 87t-76 158t-39.5 230t-12 315t12 315t39.5 230t76 158t119.5 87t171 29t171 -29t119.5 -87t76 -158t39.5 -230t12 -315t-12 -315t-39.5 -230t-76 -158t-119.5 -87t-171 -29zM516 1497q-71 0 -119 -24.5t-80 -72t-49.5 -134.5t-24.5 -196
t-7 -271t7 -271t24.5 -196t49.5 -135t80 -72.5t119 -24.5t119 24.5t80.5 72.5t50 135t24.5 196t7 271q0 135 -4.5 231t-16.5 178t-32 133.5t-51.5 88t-74.5 52t-102 15.5zM514 1694q-71 0 -122 20t-82 53.5t-48.5 88t-23.5 113.5t-5 140h105q-2 -160 34.5 -231.5
t141.5 -71.5t141.5 71.5t34.5 231.5h105q1 -81 -5 -140t-23.5 -113.5t-48.5 -88t-82 -53.5t-122 -20z" />
    <glyph glyph-name="obreve" unicode="&#x14f;" horiz-adv-x="942" 
d="M471 96q130 0 187 101t57 346t-57 345.5t-187 100.5t-187 -100.5t-57 -345.5t57 -346t187 -101zM471 -20q-202 0 -290.5 126.5t-88.5 436.5q0 209 40.5 332.5t122 177t216.5 53.5t216.5 -53.5t122 -177t40.5 -332.5q0 -310 -88.5 -436.5t-290.5 -126.5zM471 1223
q-71 0 -122 20t-82 53.5t-48.5 88t-23.5 113.5t-5 140h105q-2 -160 34.5 -231.5t141.5 -71.5t141.5 71.5t34.5 231.5h105q1 -81 -5 -140t-23.5 -113.5t-48.5 -88t-82 -53.5t-122 -20z" />
    <glyph glyph-name="Ohungarumlaut" unicode="&#x150;" horiz-adv-x="1028" 
d="M516 -20q-100 0 -171 29t-119.5 87t-76 158t-39.5 230t-12 315t12 315t39.5 230t76 158t119.5 87t171 29t171 -29t119.5 -87t76 -158t39.5 -230t12 -315t-12 -315t-39.5 -230t-76 -158t-119.5 -87t-171 -29zM516 1497q-71 0 -119 -24.5t-80 -72t-49.5 -134.5t-24.5 -196
t-7 -271t7 -271t24.5 -196t49.5 -135t80 -72.5t119 -24.5t119 24.5t80.5 72.5t50 135t24.5 196t7 271q0 135 -4.5 231t-16.5 178t-32 133.5t-51.5 88t-74.5 52t-102 15.5zM430 2109h145l-126 -426h-123zM684 2109h147l-129 -426h-122z" />
    <glyph glyph-name="ohungarumlaut" unicode="&#x151;" horiz-adv-x="942" 
d="M471 96q130 0 187 101t57 346t-57 345.5t-187 100.5t-187 -100.5t-57 -345.5t57 -346t187 -101zM471 -20q-202 0 -290.5 126.5t-88.5 436.5q0 209 40.5 332.5t122 177t216.5 53.5t216.5 -53.5t122 -177t40.5 -332.5q0 -310 -88.5 -436.5t-290.5 -126.5zM387 1638h145
l-126 -426h-123zM641 1638h147l-129 -426h-122z" />
    <glyph glyph-name="OE" unicode="&#x152;" horiz-adv-x="1464" 
d="M1386 0h-757q-108 0 -185.5 15.5t-138.5 54t-99.5 96.5t-63 150t-34.5 207.5t-10 275.5t10 275.5t34.5 207t63 149.5t99.5 96.5t138.5 54t185.5 15.5h721v-120h-498v-596h430v-121h-430v-639h534v-121zM612 121h105v1356h-105q-62 0 -110 -8t-86.5 -27t-66 -45t-48 -68.5
t-33 -90.5t-20 -118t-10 -145t-2.5 -176t2.5 -176t10 -145t20 -118t33 -90.5t48 -68.5t66 -45t86.5 -27t110 -8z" />
    <glyph glyph-name="oe" unicode="&#x153;" horiz-adv-x="1533" 
d="M1450 498h-594q0 -85 6 -145.5t21 -112.5t41.5 -83.5t68 -49t99.5 -17.5q64 0 106.5 14t65.5 43t32 65t9 87l135 -18q0 -70 -15.5 -121.5t-52.5 -93.5t-106.5 -64t-169.5 -22q-129 0 -204 50.5t-112 149.5q-38 -104 -112.5 -152t-196.5 -48q-202 0 -290.5 126.5
t-88.5 436.5q0 209 40.5 332.5t122 177t216.5 53.5q120 0 195.5 -49t113.5 -152q72 201 310 201q75 0 132 -16t96.5 -50.5t65.5 -79.5t40.5 -111.5t20 -138t5.5 -167.5v-45zM471 94q128 0 186 102t58 347t-57.5 346.5t-186.5 101.5t-186.5 -101.5t-57.5 -346.5t58 -347
t186 -102zM1087 995q-133 0 -182 -90.5t-49 -306.5h453q0 84 -4.5 140.5t-17.5 109t-37.5 82.5t-64.5 47.5t-98 17.5z" />
    <glyph glyph-name="Racute" unicode="&#x154;" horiz-adv-x="937" 
d="M254 684v-684h-135v1597h348q70 0 122 -10.5t100.5 -39.5t78.5 -79t48 -132t18 -195q0 -213 -58 -314t-170 -129l258 -698h-151l-238 684h-221zM254 805h201q64 0 106.5 14t74 50.5t46 103t14.5 168.5t-14.5 168.5t-46 103t-74 50.5t-106.5 14h-201v-672zM487 2109h146
l-123 -426h-125z" />
    <glyph glyph-name="racute" unicode="&#x155;" horiz-adv-x="618" 
d="M492 979q-144 0 -246 -154v-825h-131v848l-6 237h114l13 -135q42 71 108.5 113.5t142.5 42.5q50 0 82 -14l-8 -121q-24 8 -69 8zM375 1638h145l-123 -426h-125z" />
    <glyph glyph-name="Rcommaaccent" unicode="&#x156;" horiz-adv-x="937" 
d="M254 684v-684h-135v1597h348q70 0 122 -10.5t100.5 -39.5t78.5 -79t48 -132t18 -195q0 -213 -58 -314t-170 -129l258 -698h-151l-238 684h-221zM254 805h201q64 0 106.5 14t74 50.5t46 103t14.5 168.5t-14.5 168.5t-46 103t-74 50.5t-106.5 14h-201v-672zM406 -82h153
l-65 -328h-109z" />
    <glyph glyph-name="rcommaaccent" unicode="&#x157;" horiz-adv-x="618" 
d="M492 979q-144 0 -246 -154v-825h-131v848l-6 237h114l13 -135q42 71 108.5 113.5t142.5 42.5q50 0 82 -14l-8 -121q-24 8 -69 8zM104 -82h154l-65 -328h-109z" />
    <glyph glyph-name="Rcaron" unicode="&#x158;" horiz-adv-x="937" 
d="M254 684v-684h-135v1597h348q70 0 122 -10.5t100.5 -39.5t78.5 -79t48 -132t18 -195q0 -213 -58 -314t-170 -129l258 -698h-151l-238 684h-221zM254 805h201q64 0 106.5 14t74 50.5t46 103t14.5 168.5t-14.5 168.5t-46 103t-74 50.5t-106.5 14h-201v-672zM631 2109h110
l-213 -426h-155l-213 426h110l181 -319z" />
    <glyph glyph-name="rcaron" unicode="&#x159;" horiz-adv-x="618" 
d="M492 979q-144 0 -246 -154v-825h-131v848l-6 237h114l13 -135q42 71 108.5 113.5t142.5 42.5q50 0 82 -14l-8 -121q-24 8 -69 8zM518 1638h111l-213 -426h-156l-213 426h111l180 -319z" />
    <glyph glyph-name="Sacute" unicode="&#x15a;" horiz-adv-x="950" 
d="M451 98q154 0 221 71.5t67 244.5q0 85 -12.5 138.5t-46.5 92t-82 61t-131 46.5q-47 14 -79.5 25.5t-72 30.5t-66.5 40t-54.5 53.5t-43.5 71.5t-26 92.5t-10 118.5q0 227 88.5 331.5t298.5 104.5q68 0 121.5 -11.5t90.5 -31t63.5 -52t41.5 -65.5t23.5 -81t11 -90.5
t2.5 -100.5l-133 -19q0 56 -2 93t-9.5 78.5t-22.5 67.5t-39 48.5t-61.5 32.5t-88.5 10q-128 0 -188 -71.5t-60 -241.5q0 -99 24 -155t76.5 -88t155.5 -60q52 -14 89 -26.5t78.5 -32.5t69.5 -43t55 -57.5t42.5 -77t25 -100t9.5 -128.5q0 -231 -104.5 -336t-323.5 -105
q-113 0 -188.5 30.5t-115.5 92t-55.5 137.5t-15.5 185l133 18q0 -90 8.5 -147t33.5 -104.5t74.5 -69t127.5 -21.5zM532 2109h146l-123 -426h-125z" />
    <glyph glyph-name="sacute" unicode="&#x15b;" horiz-adv-x="825" 
d="M393 86q126 0 173.5 50.5t47.5 154.5q0 29 -3.5 53t-13 42.5t-18 32.5t-27.5 26t-33 19.5t-41.5 16.5t-46 13.5t-54.5 13.5q-56 11 -93.5 22.5t-76.5 33.5t-61 52t-36 78t-14 113q0 299 326 299q98 0 160.5 -18.5t95 -59.5t44 -91.5t11.5 -129.5l-133 -19q0 54 -6 88.5
t-23.5 64.5t-54 44t-94.5 14q-98 0 -141 -48.5t-43 -143.5q0 -51 7.5 -80.5t33 -50.5t58.5 -32.5t101 -27.5q52 -11 86.5 -20.5t75 -26t66 -39t48.5 -54.5t33.5 -77.5t10.5 -103.5q0 -161 -86.5 -238t-278.5 -77q-102 0 -168 20t-99.5 62.5t-45.5 92.5t-12 126l131 18
q0 -43 3 -71t14 -57.5t31.5 -46t57 -27.5t88.5 -11zM457 1638h145l-123 -426h-125z" />
    <glyph glyph-name="Scircumflex" unicode="&#x15c;" horiz-adv-x="950" 
d="M451 98q154 0 221 71.5t67 244.5q0 85 -12.5 138.5t-46.5 92t-82 61t-131 46.5q-47 14 -79.5 25.5t-72 30.5t-66.5 40t-54.5 53.5t-43.5 71.5t-26 92.5t-10 118.5q0 227 88.5 331.5t298.5 104.5q68 0 121.5 -11.5t90.5 -31t63.5 -52t41.5 -65.5t23.5 -81t11 -90.5
t2.5 -100.5l-133 -19q0 56 -2 93t-9.5 78.5t-22.5 67.5t-39 48.5t-61.5 32.5t-88.5 10q-128 0 -188 -71.5t-60 -241.5q0 -99 24 -155t76.5 -88t155.5 -60q52 -14 89 -26.5t78.5 -32.5t69.5 -43t55 -57.5t42.5 -77t25 -100t9.5 -128.5q0 -231 -104.5 -336t-323.5 -105
q-113 0 -188.5 30.5t-115.5 92t-55.5 137.5t-15.5 185l133 18q0 -90 8.5 -147t33.5 -104.5t74.5 -69t127.5 -21.5zM322 1683h-109l207 426h151l207 -426h-108l-174 326z" />
    <glyph glyph-name="scircumflex" unicode="&#x15d;" horiz-adv-x="825" 
d="M393 86q126 0 173.5 50.5t47.5 154.5q0 29 -3.5 53t-13 42.5t-18 32.5t-27.5 26t-33 19.5t-41.5 16.5t-46 13.5t-54.5 13.5q-56 11 -93.5 22.5t-76.5 33.5t-61 52t-36 78t-14 113q0 299 326 299q98 0 160.5 -18.5t95 -59.5t44 -91.5t11.5 -129.5l-133 -19q0 54 -6 88.5
t-23.5 64.5t-54 44t-94.5 14q-98 0 -141 -48.5t-43 -143.5q0 -51 7.5 -80.5t33 -50.5t58.5 -32.5t101 -27.5q52 -11 86.5 -20.5t75 -26t66 -39t48.5 -54.5t33.5 -77.5t10.5 -103.5q0 -161 -86.5 -238t-278.5 -77q-102 0 -168 20t-99.5 62.5t-45.5 92.5t-12 126l131 18
q0 -43 3 -71t14 -57.5t31.5 -46t57 -27.5t88.5 -11zM246 1212h-109l207 426h152l206 -426h-108l-174 326z" />
    <glyph glyph-name="Scedilla" unicode="&#x15e;" horiz-adv-x="950" 
d="M451 98q154 0 221 71.5t67 244.5q0 85 -12.5 138.5t-46.5 92t-82 61t-131 46.5q-47 14 -79.5 25.5t-72 30.5t-66.5 40t-54.5 53.5t-43.5 71.5t-26 92.5t-10 118.5q0 227 88.5 331.5t298.5 104.5q68 0 121.5 -11.5t90.5 -31t63.5 -52t41.5 -65.5t23.5 -81t11 -90.5
t2.5 -100.5l-133 -19q0 56 -2 93t-9.5 78.5t-22.5 67.5t-39 48.5t-61.5 32.5t-88.5 10q-128 0 -188 -71.5t-60 -241.5q0 -99 24 -155t76.5 -88t155.5 -60q52 -14 89 -26.5t78.5 -32.5t69.5 -43t55 -57.5t42.5 -77t25 -100t9.5 -128.5q0 -218 -92 -322.5t-285 -115.5l-17 -62
q108 -18 165 -62.5t54 -119.5q-1 -85 -66 -126.5t-167 -41.5q-55 0 -106 11.5t-76 25.5l26 80q53 -31 119 -35q154 -4 154 92q0 22 -8 39.5t-27 29.5t-34 19.5t-46.5 13.5t-46 8.5t-49.5 6.5l41 118q-83 4 -144 27t-99 59.5t-60 93.5t-30.5 119.5t-8.5 145.5l133 18
q0 -90 8.5 -147t33.5 -104.5t74.5 -69t127.5 -21.5z" />
    <glyph glyph-name="scedilla" unicode="&#x15f;" horiz-adv-x="825" 
d="M393 86q126 0 173.5 50.5t47.5 154.5q0 29 -3.5 53t-13 42.5t-18 32.5t-27.5 26t-33 19.5t-41.5 16.5t-46 13.5t-54.5 13.5q-56 11 -93.5 22.5t-76.5 33.5t-61 52t-36 78t-14 113q0 299 326 299q98 0 160.5 -18.5t95 -59.5t44 -91.5t11.5 -129.5l-133 -19q0 54 -6 88.5
t-23.5 64.5t-54 44t-94.5 14q-98 0 -141 -48.5t-43 -143.5q0 -51 7.5 -80.5t33 -50.5t58.5 -32.5t101 -27.5q52 -11 86.5 -20.5t75 -26t66 -39t48.5 -54.5t33.5 -77.5t10.5 -103.5q0 -155 -79 -231t-255 -82l-16 -64q108 -18 165 -62.5t54 -119.5q-1 -85 -66.5 -126.5
t-167.5 -41.5q-55 0 -106 11.5t-76 25.5l27 80q52 -31 118 -35q154 -4 154 92q0 22 -8 39.5t-27 29.5t-34 19.5t-46.5 13.5t-46 8.5t-49.5 6.5l41 123q-84 5 -139.5 27.5t-83.5 64t-38.5 89.5t-10.5 118l131 18q0 -43 3 -71t14 -57.5t31.5 -46t57 -27.5t88.5 -11z" />
    <glyph glyph-name="Scaron" unicode="&#x160;" horiz-adv-x="950" 
d="M451 98q154 0 221 71.5t67 244.5q0 85 -12.5 138.5t-46.5 92t-82 61t-131 46.5q-47 14 -79.5 25.5t-72 30.5t-66.5 40t-54.5 53.5t-43.5 71.5t-26 92.5t-10 118.5q0 227 88.5 331.5t298.5 104.5q68 0 121.5 -11.5t90.5 -31t63.5 -52t41.5 -65.5t23.5 -81t11 -90.5
t2.5 -100.5l-133 -19q0 56 -2 93t-9.5 78.5t-22.5 67.5t-39 48.5t-61.5 32.5t-88.5 10q-128 0 -188 -71.5t-60 -241.5q0 -99 24 -155t76.5 -88t155.5 -60q52 -14 89 -26.5t78.5 -32.5t69.5 -43t55 -57.5t42.5 -77t25 -100t9.5 -128.5q0 -231 -104.5 -336t-323.5 -105
q-113 0 -188.5 30.5t-115.5 92t-55.5 137.5t-15.5 185l133 18q0 -90 8.5 -147t33.5 -104.5t74.5 -69t127.5 -21.5zM676 2109h110l-213 -426h-155l-213 426h110l181 -319z" />
    <glyph glyph-name="scaron" unicode="&#x161;" horiz-adv-x="825" 
d="M393 86q126 0 173.5 50.5t47.5 154.5q0 29 -3.5 53t-13 42.5t-18 32.5t-27.5 26t-33 19.5t-41.5 16.5t-46 13.5t-54.5 13.5q-56 11 -93.5 22.5t-76.5 33.5t-61 52t-36 78t-14 113q0 299 326 299q98 0 160.5 -18.5t95 -59.5t44 -91.5t11.5 -129.5l-133 -19q0 54 -6 88.5
t-23.5 64.5t-54 44t-94.5 14q-98 0 -141 -48.5t-43 -143.5q0 -51 7.5 -80.5t33 -50.5t58.5 -32.5t101 -27.5q52 -11 86.5 -20.5t75 -26t66 -39t48.5 -54.5t33.5 -77.5t10.5 -103.5q0 -161 -86.5 -238t-278.5 -77q-102 0 -168 20t-99.5 62.5t-45.5 92.5t-12 126l131 18
q0 -43 3 -71t14 -57.5t31.5 -46t57 -27.5t88.5 -11zM600 1638h111l-213 -426h-156l-213 426h111l180 -319z" />
    <glyph glyph-name="Tcommaaccent" unicode="&#x162;" horiz-adv-x="825" 
d="M479 1477v-1477h-135v1477h-303v120h741v-120h-303zM332 -82h153l-65 -328h-109z" />
    <glyph glyph-name="tcommaaccent" unicode="&#x163;" horiz-adv-x="649" 
d="M68 973v112h127v287l131 10v-297h237v-112h-237v-758q0 -69 29 -94t85 -25q46 0 103 19l10 -115q-54 -20 -129 -20q-120 0 -174.5 55.5t-54.5 161.5v776h-127zM283 -82h153l-65 -328h-109z" />
    <glyph glyph-name="Tcaron" unicode="&#x164;" horiz-adv-x="825" 
d="M479 1477v-1477h-135v1477h-303v120h741v-120h-303zM592 2109h110l-213 -426h-155l-213 426h110l181 -319z" />
    <glyph glyph-name="tcaron" unicode="&#x165;" horiz-adv-x="649" 
d="M68 973v112h127v287l131 10v-297h237v-112h-237v-758q0 -69 29 -94t85 -25q46 0 103 19l10 -115q-54 -20 -129 -20q-120 0 -174.5 55.5t-54.5 161.5v776h-127zM522 1212h-90l41 426h135z" />
    <glyph glyph-name="Tbar" unicode="&#x166;" horiz-adv-x="825" 
d="M176 760v121h168v596h-303v120h741v-120h-303v-596h168v-121h-168v-760h-135v760h-168z" />
    <glyph glyph-name="tbar" unicode="&#x167;" horiz-adv-x="649" 
d="M502 596v-96h-174v-285q0 -69 28.5 -94t83.5 -25q52 0 103 19l10 -115q-54 -20 -129 -20q-229 0 -229 215v305h-127v96h127v377h-127v112h127v287l133 10v-297h235v-112h-235v-377h174z" />
    <glyph glyph-name="Utilde" unicode="&#x168;" horiz-adv-x="1028" 
d="M512 -23q-99 0 -170 18t-115.5 51t-70.5 87t-35.5 116.5t-9.5 149.5v1198h137v-1194q0 -68 4.5 -110.5t20 -83.5t44 -63t76.5 -35t119 -13t119 13t76.5 35t44 63t20 83.5t4.5 110.5v1194h137v-1198q0 -87 -9.5 -149.5t-35.5 -116.5t-70.5 -87t-115.5 -51t-170 -18z
M725 2007l98 -14q-8 -108 -51.5 -168.5t-120.5 -59.5q-43 1 -84 24t-68 50.5t-60.5 51.5t-63.5 26q-42 1 -59.5 -30.5t-22.5 -94.5l-98 14q6 106 49.5 167.5t120.5 60.5q36 -1 69.5 -16.5t59 -37.5t49 -44t49 -37.5t49.5 -16.5q30 -2 48.5 15t25.5 42.5t10 67.5z" />
    <glyph glyph-name="utilde" unicode="&#x169;" horiz-adv-x="929" 
d="M674 1536l98 -14q-8 -108 -51.5 -168.5t-120.5 -59.5q-43 1 -84 24t-68 50.5t-60.5 51.5t-63.5 26q-42 1 -59.5 -30.5t-22.5 -94.5l-99 14q6 106 49.5 167.5t120.5 60.5q36 -1 69.5 -16.5t59 -37.5t49.5 -44t49.5 -37.5t49.5 -16.5q30 -2 48.5 15t25.5 42.5t10 67.5z
M709 0l-13 133q-51 -68 -134 -110.5t-197 -42.5q-126 0 -194.5 66t-68.5 173v866h131v-825q0 -73 42.5 -117.5t130.5 -44.5q89 0 162 41.5t116 108.5v837h131v-847l6 -238h-112z" />
    <glyph glyph-name="Umacron" unicode="&#x16a;" horiz-adv-x="1028" 
d="M512 -23q-99 0 -170 18t-115.5 51t-70.5 87t-35.5 116.5t-9.5 149.5v1198h137v-1194q0 -68 4.5 -110.5t20 -83.5t44 -63t76.5 -35t119 -13t119 13t76.5 35t44 63t20 83.5t4.5 110.5v1194h137v-1198q0 -87 -9.5 -149.5t-35.5 -116.5t-70.5 -87t-115.5 -51t-170 -18z
M303 1864v121h418v-121h-418z" />
    <glyph glyph-name="umacron" unicode="&#x16b;" horiz-adv-x="929" 
d="M252 1393v120h418v-120h-418zM709 0l-13 133q-51 -68 -134 -110.5t-197 -42.5q-126 0 -194.5 66t-68.5 173v866h131v-825q0 -73 42.5 -117.5t130.5 -44.5q89 0 162 41.5t116 108.5v837h131v-847l6 -238h-112z" />
    <glyph glyph-name="Ubreve" unicode="&#x16c;" horiz-adv-x="1028" 
d="M512 -23q-99 0 -170 18t-115.5 51t-70.5 87t-35.5 116.5t-9.5 149.5v1198h137v-1194q0 -68 4.5 -110.5t20 -83.5t44 -63t76.5 -35t119 -13t119 13t76.5 35t44 63t20 83.5t4.5 110.5v1194h137v-1198q0 -87 -9.5 -149.5t-35.5 -116.5t-70.5 -87t-115.5 -51t-170 -18z
M512 1694q-71 0 -122 20t-82 53.5t-48.5 88t-23.5 113.5t-5 140h105q-2 -160 34.5 -231.5t141.5 -71.5t141.5 71.5t34.5 231.5h105q1 -81 -5 -140t-23.5 -113.5t-48.5 -88t-82 -53.5t-122 -20z" />
    <glyph glyph-name="ubreve" unicode="&#x16d;" horiz-adv-x="929" 
d="M461 1223q-71 0 -122 20t-82 53.5t-48.5 88t-23.5 113.5t-5 140h105q-2 -160 34.5 -231.5t141.5 -71.5t141.5 71.5t34.5 231.5h104q1 -81 -5 -140t-23.5 -113.5t-48 -88t-81.5 -53.5t-122 -20zM709 0l-13 133q-51 -68 -134 -110.5t-197 -42.5q-126 0 -194.5 66t-68.5 173
v866h131v-825q0 -73 42.5 -117.5t130.5 -44.5q89 0 162 41.5t116 108.5v837h131v-847l6 -238h-112z" />
    <glyph glyph-name="Uring" unicode="&#x16e;" horiz-adv-x="1028" 
d="M512 -23q-99 0 -170 18t-115.5 51t-70.5 87t-35.5 116.5t-9.5 149.5v1198h137v-1194q0 -68 4.5 -110.5t20 -83.5t44 -63t76.5 -35t119 -13t119 13t76.5 35t44 63t20 83.5t4.5 110.5v1194h137v-1198q0 -87 -9.5 -149.5t-35.5 -116.5t-70.5 -87t-115.5 -51t-170 -18z
M276 1896q0 105 63 170.5t173 65.5t173 -65.5t63 -170.5t-63 -170t-173 -65t-173 65t-63 170zM657 1896q0 71 -37.5 111.5t-107.5 40.5t-107.5 -40.5t-37.5 -111.5t37.5 -111t107.5 -40t107.5 40t37.5 111z" />
    <glyph glyph-name="uring" unicode="&#x16f;" horiz-adv-x="929" 
d="M225 1425q0 105 63 170.5t173 65.5t172.5 -65.5t62.5 -170.5t-62.5 -170t-172.5 -65t-173 65t-63 170zM606 1425q0 71 -37.5 111.5t-107.5 40.5t-108 -40.5t-38 -111.5t38 -111t108 -40t107.5 40t37.5 111zM709 0l-13 133q-51 -68 -134 -110.5t-197 -42.5
q-126 0 -194.5 66t-68.5 173v866h131v-825q0 -73 42.5 -117.5t130.5 -44.5q89 0 162 41.5t116 108.5v837h131v-847l6 -238h-112z" />
    <glyph glyph-name="Uhungarumlaut" unicode="&#x170;" horiz-adv-x="1028" 
d="M512 -23q-99 0 -170 18t-115.5 51t-70.5 87t-35.5 116.5t-9.5 149.5v1198h137v-1194q0 -68 4.5 -110.5t20 -83.5t44 -63t76.5 -35t119 -13t119 13t76.5 35t44 63t20 83.5t4.5 110.5v1194h137v-1198q0 -87 -9.5 -149.5t-35.5 -116.5t-70.5 -87t-115.5 -51t-170 -18z
M428 2109h145l-127 -426h-122zM682 2109h147l-129 -426h-122z" />
    <glyph glyph-name="uhungarumlaut" unicode="&#x171;" horiz-adv-x="929" 
d="M377 1638h145l-127 -426h-123zM631 1638h147l-129 -426h-123zM709 0l-13 133q-51 -68 -134 -110.5t-197 -42.5q-126 0 -194.5 66t-68.5 173v866h131v-825q0 -73 42.5 -117.5t130.5 -44.5q89 0 162 41.5t116 108.5v837h131v-847l6 -238h-112z" />
    <glyph glyph-name="Uogonek" unicode="&#x172;" horiz-adv-x="1028" 
d="M649 66q4 -5 9 -13t13.5 -27.5t6.5 -31.5q-178 -54 -178 -211q0 -59 31 -88t77 -29q66 0 123 45l31 -94q-68 -49 -168 -49q-82 0 -142.5 46.5t-60.5 143.5q0 133 103 219q-79 1 -138.5 14t-101.5 38.5t-69.5 59t-43 82.5t-22 103t-6.5 125v1198h137v-1194q0 -56 3 -93.5
t12.5 -75t28 -60.5t47.5 -41.5t71.5 -26.5t101.5 -8t101.5 8t71.5 26.5t47.5 41.5t28 60.5t12.5 75t3 93.5v1194h137v-1198q0 -87 -9.5 -149.5t-35.5 -116.5t-70.5 -87t-115.5 -51t-170 -18h-20q57 49 155 89z" />
    <glyph glyph-name="uogonek" unicode="&#x173;" horiz-adv-x="929" 
d="M815 238l6 -238q-86 -23 -136.5 -79t-49.5 -140q0 -59 33.5 -87.5t81.5 -25.5q65 2 116 43l31 -94q-68 -49 -168 -49q-79 0 -138 44.5t-63 137.5q-14 183 177 289l-9 94q-51 -68 -134 -110.5t-197 -42.5q-126 0 -194.5 66t-68.5 173v866h131v-825q0 -73 42.5 -117.5
t130.5 -44.5q89 0 162 41.5t116 108.5v837h131v-847z" />
    <glyph glyph-name="Wcircumflex" unicode="&#x174;" horiz-adv-x="1349" 
d="M905 -20l-229 1433l-232 -1433h-182l-188 1617h129l157 -1423l232 1423h168l229 -1423l158 1423h129l-189 -1617h-182zM500 1683h-109l207 426h152l206 -426h-108l-174 326z" />
    <glyph glyph-name="wcircumflex" unicode="&#x175;" horiz-adv-x="1228" 
d="M526 1085h176l189 -929l123 929h137l-170 -1101h-166l-201 952l-200 -952h-166l-170 1101h137l123 -929zM440 1212h-108l207 426h151l207 -426h-109l-174 326z" />
    <glyph glyph-name="Ycircumflex" unicode="&#x176;" horiz-adv-x="991" 
d="M496 758l309 839h141l-385 -993l2 -604h-135l2 604l-387 993h143zM319 1683h-108l207 426h151l207 -426h-108l-174 326z" />
    <glyph glyph-name="ycircumflex" unicode="&#x177;" horiz-adv-x="882" 
d="M442 178l240 907h141l-299 -1022l-153 -473h-148l148 422l-312 1073h142zM266 1212h-108l207 426h151l207 -426h-109l-174 326z" />
    <glyph glyph-name="Ydieresis" unicode="&#x178;" horiz-adv-x="991" 
d="M496 758l309 839h141l-385 -993l2 -604h-135l2 604l-387 993h143zM403 1999v-156h-155v156h155zM739 1999v-156h-155v156h155z" />
    <glyph glyph-name="Zacute" unicode="&#x179;" horiz-adv-x="948" 
d="M66 0v100l532 1137l117 244l-326 -2h-301v118h776v-100l-532 -1137l-119 -243l328 2h340v-119h-815zM510 2109h145l-123 -426h-124z" />
    <glyph glyph-name="zacute" unicode="&#x17a;" horiz-adv-x="813" 
d="M72 0v100l495 869h-473v116h625v-100l-498 -868l520 2v-119h-669zM442 1638h146l-123 -426h-125z" />
    <glyph glyph-name="Zdotaccent" unicode="&#x17b;" horiz-adv-x="948" 
d="M66 0v100l532 1137l117 244l-326 -2h-301v118h776v-100l-532 -1137l-119 -243l328 2h340v-119h-815zM551 1999v-156h-156v156h156z" />
    <glyph glyph-name="zdotaccent" unicode="&#x17c;" horiz-adv-x="813" 
d="M72 0v100l495 869h-473v116h625v-100l-498 -868l520 2v-119h-669zM483 1528v-156h-155v156h155z" />
    <glyph glyph-name="Zcaron" unicode="&#x17d;" horiz-adv-x="948" 
d="M66 0v100l532 1137l117 244l-326 -2h-301v118h776v-100l-532 -1137l-119 -243l328 2h340v-119h-815zM653 2109h111l-213 -426h-156l-213 426h111l180 -319z" />
    <glyph glyph-name="zcaron" unicode="&#x17e;" horiz-adv-x="813" 
d="M72 0v100l495 869h-473v116h625v-100l-498 -868l520 2v-119h-669zM586 1638h110l-213 -426h-155l-213 426h110l181 -319z" />
    <glyph glyph-name="florin" unicode="&#x192;" horiz-adv-x="659" 
d="M57 760v117h170v495q0 213 246 213q79 0 133 -20l-12 -117q-40 20 -105 20q-66 0 -95 -23t-29 -93v-475h208v-117h-208v-977q0 -213 -248 -213q-81 0 -135 20l12 117q40 -20 104 -20q67 0 98 23t31 93v957h-170z" />
    <glyph glyph-name="Scommaaccent" unicode="&#x218;" horiz-adv-x="950" 
d="M451 98q154 0 221 71.5t67 244.5q0 85 -12.5 138.5t-46.5 92t-82 61t-131 46.5q-47 14 -79.5 25.5t-72 30.5t-66.5 40t-54.5 53.5t-43.5 71.5t-26 92.5t-10 118.5q0 227 88.5 331.5t298.5 104.5q68 0 121.5 -11.5t90.5 -31t63.5 -52t41.5 -65.5t23.5 -81t11 -90.5
t2.5 -100.5l-133 -19q0 56 -2 93t-9.5 78.5t-22.5 67.5t-39 48.5t-61.5 32.5t-88.5 10q-128 0 -188 -71.5t-60 -241.5q0 -99 24 -155t76.5 -88t155.5 -60q52 -14 89 -26.5t78.5 -32.5t69.5 -43t55 -57.5t42.5 -77t25 -100t9.5 -128.5q0 -231 -104.5 -336t-323.5 -105
q-113 0 -188.5 30.5t-115.5 92t-55.5 137.5t-15.5 185l133 18q0 -90 8.5 -147t33.5 -104.5t74.5 -69t127.5 -21.5zM391 -82h154l-66 -328h-108z" />
    <glyph glyph-name="scommaaccent" unicode="&#x219;" horiz-adv-x="825" 
d="M393 86q126 0 173.5 50.5t47.5 154.5q0 29 -3.5 53t-13 42.5t-18 32.5t-27.5 26t-33 19.5t-41.5 16.5t-46 13.5t-54.5 13.5q-56 11 -93.5 22.5t-76.5 33.5t-61 52t-36 78t-14 113q0 299 326 299q98 0 160.5 -18.5t95 -59.5t44 -91.5t11.5 -129.5l-133 -19q0 54 -6 88.5
t-23.5 64.5t-54 44t-94.5 14q-98 0 -141 -48.5t-43 -143.5q0 -51 7.5 -80.5t33 -50.5t58.5 -32.5t101 -27.5q52 -11 86.5 -20.5t75 -26t66 -39t48.5 -54.5t33.5 -77.5t10.5 -103.5q0 -161 -86.5 -238t-278.5 -77q-102 0 -168 20t-99.5 62.5t-45.5 92.5t-12 126l131 18
q0 -43 3 -71t14 -57.5t31.5 -46t57 -27.5t88.5 -11zM330 -82h153l-65 -328h-109z" />
    <glyph glyph-name="dotlessj" unicode="&#x237;" horiz-adv-x="368" 
d="M250 1085v-1300q0 -106 -53.5 -161.5t-173.5 -55.5q-75 0 -129 20l12 117q48 -18 100 -18q57 0 85 24.5t28 93.5v1280h131z" />
    <glyph glyph-name="circumflex" unicode="&#x2c6;" horiz-adv-x="1269" 
d="M461 1212h-109l207 426h152l207 -426h-109l-174 326z" />
    <glyph glyph-name="caron" unicode="&#x2c7;" horiz-adv-x="1269" 
d="M815 1638h111l-213 -426h-156l-213 426h111l180 -319z" />
    <glyph glyph-name="breve" unicode="&#x2d8;" horiz-adv-x="1269" 
d="M635 1223q-71 0 -122 20t-82 53.5t-48.5 88t-23.5 113.5t-5 140h105q-2 -160 34.5 -231.5t141.5 -71.5t141.5 71.5t34.5 231.5h104q1 -81 -5 -140t-23.5 -113.5t-48 -88t-81.5 -53.5t-122 -20z" />
    <glyph glyph-name="dotaccent" unicode="&#x2d9;" horiz-adv-x="1269" 
d="M713 1528v-156h-156v156h156z" />
    <glyph glyph-name="ring" unicode="&#x2da;" horiz-adv-x="1269" 
d="M399 1425q0 105 63 170.5t173 65.5t172.5 -65.5t62.5 -170.5t-62.5 -170t-172.5 -65t-173 65t-63 170zM780 1425q0 71 -37.5 111.5t-107.5 40.5t-108 -40.5t-38 -111.5t38 -111t108 -40t107.5 40t37.5 111z" />
    <glyph glyph-name="ogonek" unicode="&#x2db;" horiz-adv-x="1269" 
d="M1016 74l41 -74q-86 -23 -137 -79t-50 -140q0 -59 33.5 -87.5t81.5 -25.5q66 2 117 43l31 -94q-68 -49 -168 -49q-79 0 -138 44.5t-63 137.5q-17 216 252 324z" />
    <glyph glyph-name="tilde" unicode="&#x2dc;" horiz-adv-x="1269" 
d="M848 1536l98 -14q-8 -108 -51.5 -168.5t-120.5 -59.5q-43 1 -84 24t-68 50.5t-60.5 51.5t-63.5 26q-42 1 -59.5 -30.5t-22.5 -94.5l-99 14q6 106 49.5 167.5t120.5 60.5q36 -1 69.5 -16.5t59 -37.5t49.5 -44t49.5 -37.5t49.5 -16.5q30 -2 48.5 15t25.5 42.5t10 67.5z" />
    <glyph glyph-name="hungarumlaut" unicode="&#x2dd;" horiz-adv-x="1269" 
d="M551 1638h145l-127 -426h-123zM805 1638h147l-129 -426h-123z" />
    <glyph glyph-name="pi" unicode="&#x3c0;" horiz-adv-x="1107" 
d="M662 195v778h-293v-793l-19 -180h-119l5 238v735h-166v112h942v-112h-217v-758q0 -69 28.5 -94t85.5 -25q46 0 103 19l10 -115q-54 -20 -129 -20q-231 0 -231 215z" />
    <glyph glyph-name="uni0E3F" unicode="&#xe3f;" horiz-adv-x="962" 
d="M541 0h-138v217h-280v1131h280v217h138v-217h47q34 0 67.5 -7t70.5 -27.5t64.5 -52t45.5 -85.5t18 -123q0 -103 -49 -167.5t-127 -70.5q92 -6 150.5 -84t58.5 -192q0 -74 -19.5 -131.5t-50.5 -92.5t-72.5 -58t-82 -31.5t-82.5 -8.5h-39v-217zM594 743h-53v-405h39
q75 0 120 48t45 155q0 106 -42.5 154t-108.5 48zM258 338h145v405h-145v-405zM258 1227v-363h145v363h-145zM569 1227h-28v-363h28q146 0 146 187q0 93 -34 134.5t-112 41.5z" />
    <glyph glyph-name="enspace" unicode="&#x2002;" horiz-adv-x="1024" 
 />
    <glyph glyph-name="emspace" unicode="&#x2003;" horiz-adv-x="2048" 
 />
    <glyph glyph-name="threeperemspace" unicode="&#x2004;" horiz-adv-x="681" 
 />
    <glyph glyph-name="fourperemspace" unicode="&#x2005;" horiz-adv-x="512" 
 />
    <glyph glyph-name="sixperemspace" unicode="&#x2006;" horiz-adv-x="342" 
 />
    <glyph glyph-name="figurespace" unicode="&#x2007;" horiz-adv-x="1433" 
 />
    <glyph glyph-name="punctuationspace" unicode="&#x2008;" horiz-adv-x="565" 
 />
    <glyph glyph-name="thinspace" unicode="&#x2009;" horiz-adv-x="409" 
 />
    <glyph glyph-name="hairspace" unicode="&#x200a;" horiz-adv-x="204" 
 />
    <glyph glyph-name="zerowidthspace" unicode="&#x200b;" horiz-adv-x="0" 
 />
    <glyph glyph-name="figuredash" unicode="&#x2012;" horiz-adv-x="1474" 
d="M1354 625h-1233v123h1233v-123z" />
    <glyph glyph-name="endash" unicode="&#x2013;" horiz-adv-x="1064" 
d="M944 625h-823v123h823v-123z" />
    <glyph glyph-name="emdash" unicode="&#x2014;" horiz-adv-x="2088" 
d="M1968 625h-1847v123h1847v-123z" />
    <glyph glyph-name="uni2015" unicode="&#x2015;" horiz-adv-x="2908" 
d="M2787 625h-2666v123h2666v-123z" />
    <glyph glyph-name="doublebar" unicode="&#x2016;" horiz-adv-x="813" 
d="M362 1700v-1966h-137v1966h137zM590 1700v-1966h-139v1966h139z" />
    <glyph glyph-name="quoteleft" unicode="&#x2018;" horiz-adv-x="337" 
d="M209 1085h-170l108 512h99z" />
    <glyph glyph-name="quoteright" unicode="&#x2019;" horiz-adv-x="337" 
d="M129 1597h168l-107 -512h-98z" />
    <glyph glyph-name="quotesinglbase" unicode="&#x201a;" horiz-adv-x="337" 
d="M121 176h168l-109 -512h-96z" />
    <glyph glyph-name="reversequoteleft" unicode="&#x201b;" horiz-adv-x="337" 
d="M41 1597h168l37 -512h-99z" />
    <glyph glyph-name="quotedblleft" unicode="&#x201c;" horiz-adv-x="587" 
d="M209 1085h-170l108 512h99zM463 1085h-168l108 512h97z" />
    <glyph glyph-name="quotedblright" unicode="&#x201d;" horiz-adv-x="593" 
d="M383 1597h170l-109 -512h-98zM129 1597h168l-107 -512h-98z" />
    <glyph glyph-name="quotedblbase" unicode="&#x201e;" horiz-adv-x="591" 
d="M375 176h168l-109 -512h-96zM121 176h168l-109 -512h-96z" />
    <glyph glyph-name="reversequotedblleft" unicode="&#x201f;" horiz-adv-x="593" 
d="M41 1597h170l37 -512h-98zM297 1597h168l37 -512h-99z" />
    <glyph glyph-name="dagger" unicode="&#x2020;" horiz-adv-x="669" 
d="M281 1597h106l-20 -272l272 23v-107l-272 21l36 -463h-137l35 463l-272 -21v107l272 -23z" />
    <glyph glyph-name="daggerdbl" unicode="&#x2021;" horiz-adv-x="669" 
d="M281 1597h106l-20 -272l272 23v-107l-274 21l12 -134l-12 -133l274 23v-107l-272 21l36 -463h-137l35 463l-272 -21v107l272 -23l-10 133l10 134l-272 -21v107l272 -23z" />
    <glyph glyph-name="bullet" unicode="&#x2022;" horiz-adv-x="833" 
d="M698 967v-561h-563v561h563z" />
    <glyph glyph-name="ellipsis" unicode="&#x2026;" horiz-adv-x="2121" 
d="M471 172v-172h-172v172h172zM1147 172v-172h-172v172h172zM1823 172v-172h-172v172h172z" />
    <glyph glyph-name="perthousand" unicode="&#x2030;" horiz-adv-x="2228" 
d="M365 1477q-64 0 -98 -27.5t-49 -95.5t-15 -197q0 -190 33.5 -255.5t128.5 -65.5q65 0 99 27.5t49 95.5t15 198q0 189 -34 254.5t-129 65.5zM317 0l799 1565h133l-798 -1565h-134zM365 727q-106 0 -166 40t-87.5 132.5t-27.5 257.5q0 242 62 335t219 93t219.5 -93
t62.5 -335t-62.5 -336t-219.5 -94zM1202 88q64 0 98.5 27.5t50 95.5t15.5 197q0 130 -15.5 198t-49.5 95.5t-99 27.5q-95 0 -128.5 -65.5t-33.5 -255.5q0 -129 15 -197t49 -95.5t98 -27.5zM1202 838q157 0 220 -94t63 -336t-63 -335t-220 -93t-218.5 92.5t-61.5 335.5
q0 165 27.5 257.5t87 132.5t165.5 40zM1851 88q64 0 98.5 27.5t50 95.5t15.5 197q0 130 -15.5 198t-49.5 95.5t-99 27.5q-64 0 -98 -27.5t-48.5 -95.5t-14.5 -198q0 -129 14.5 -197t48.5 -95.5t98 -27.5zM1851 838q157 0 220 -94t63 -336t-63 -335t-220 -93t-218.5 92.5
t-61.5 335.5q0 165 27.5 257.5t87 132.5t165.5 40z" />
    <glyph glyph-name="minute" unicode="&#x2032;" horiz-adv-x="409" 
d="M164 1597h176l-94 -512h-82v512z" />
    <glyph glyph-name="second" unicode="&#x2033;" horiz-adv-x="716" 
d="M164 1597h176l-94 -512h-82v512zM471 1597h176l-94 -512h-82v512z" />
    <glyph glyph-name="tripleprime" unicode="&#x2034;" horiz-adv-x="876" 
d="M111 1597h168l-31 -512h-105zM354 1597h168l-30 -512h-105zM598 1597h168l-31 -512h-104z" />
    <glyph glyph-name="guilsinglleft" unicode="&#x2039;" horiz-adv-x="655" 
d="M532 403v-124l-426 321v90l426 322v-125l-294 -242z" />
    <glyph glyph-name="guilsinglright" unicode="&#x203a;" horiz-adv-x="655" 
d="M123 279v124l295 242l-295 242v125l426 -322v-90z" />
    <glyph glyph-name="fraction" unicode="&#x2044;" horiz-adv-x="358" 
d="M-287 0l799 1565h133l-799 -1565h-133z" />
    <glyph glyph-name="uni2070" unicode="&#x2070;" horiz-adv-x="706" 
d="M354 846q35 0 57.5 8.5t38 27.5t23.5 57t11 88.5t3 131.5q0 86 -3 138t-10.5 92.5t-23 60t-38 28.5t-58.5 9q-35 0 -57.5 -8.5t-38 -27.5t-23.5 -57t-11 -88.5t-3 -131.5q0 -86 3 -138t10.5 -92.5t23 -60t38 -28.5t58.5 -9zM354 1587q101 0 152.5 -36.5t72.5 -124
t21 -259.5t-21 -260t-72.5 -125t-152.5 -37q-76 0 -121.5 18t-74.5 68.5t-39 128t-10 207.5t10 207.5t39 127t74.5 67.5t121.5 18z" />
    <glyph glyph-name="uni2074" unicode="&#x2074;" horiz-adv-x="618" 
d="M551 944h-92v-186h-107v186h-286v82l270 561h123v-543h92v-100zM352 1044l6 400l-190 -404z" />
    <glyph glyph-name="uni2075" unicode="&#x2075;" horiz-adv-x="620" 
d="M305 844q61 0 90 44t29 138q0 103 -26 143.5t-79 40.5q-40 0 -71.5 -21t-44.5 -50l-97 14l19 422h387v-100h-291l-10 -236q54 66 141 66q92 0 138.5 -62.5t46.5 -216.5q0 -150 -55.5 -215.5t-178.5 -65.5q-119 0 -167 53t-48 181l113 14q1 -86 23 -117.5t81 -31.5z" />
    <glyph glyph-name="uni2076" unicode="&#x2076;" horiz-adv-x="645" 
d="M348 1489q-77 0 -104 -66.5t-27 -236.5q61 106 189 106q89 0 129 -64.5t40 -205.5q0 -140 -53.5 -208.5t-179.5 -68.5q-143 0 -190.5 90t-47.5 332q0 116 10 189.5t37.5 128.5t77 78.5t127.5 23.5q109 0 157.5 -45t51.5 -149l-112 -15q0 63 -26 87t-79 24zM356 1194
q-48 0 -79 -27.5t-58 -83.5q0 -138 27.5 -188.5t93.5 -50.5t94.5 40t28.5 136q0 95 -25 134.5t-82 39.5z" />
    <glyph glyph-name="uni2077" unicode="&#x2077;" horiz-adv-x="561" 
d="M272 758h-120l176 563l53 156l-121 -2h-186v100h422v-70z" />
    <glyph glyph-name="uni2078" unicode="&#x2078;" horiz-adv-x="608" 
d="M303 1487q-57 0 -80.5 -29.5t-23.5 -103.5q0 -70 27 -99.5t77 -29.5q51 0 78 29.5t27 99.5q0 74 -23.5 103.5t-81.5 29.5zM303 1130q-58 0 -88.5 -31t-30.5 -114q0 -72 28.5 -105.5t90.5 -33.5q63 0 91 33.5t28 105.5q0 83 -30.5 114t-88.5 31zM303 745q-123 0 -175 57.5
t-52 168.5q0 168 106 209q-40 14 -66 62.5t-26 123.5q0 120 48.5 170.5t164.5 50.5q117 0 165 -50.5t48 -170.5q0 -75 -26 -123.5t-66 -62.5q106 -41 106 -209q0 -111 -52 -168.5t-175 -57.5z" />
    <glyph glyph-name="uni2079" unicode="&#x2079;" horiz-adv-x="643" 
d="M293 844q82 0 109.5 66t27.5 239q-63 -109 -184 -109q-89 0 -131.5 66t-42.5 205q0 141 52.5 208.5t180.5 67.5q73 0 118.5 -20.5t72 -73t36 -128t9.5 -198.5q0 -116 -10.5 -190.5t-38.5 -129.5t-78 -78.5t-129 -23.5q-111 0 -160.5 45.5t-50.5 149.5l110 14
q1 -62 28.5 -86t80.5 -24zM291 1139q48 0 79 27t58 83q0 138 -28 189t-95 51q-65 0 -93 -39.5t-28 -134.5q0 -96 25 -136t82 -40z" />
    <glyph glyph-name="uni207A" unicode="&#x207a;" horiz-adv-x="819" 
d="M354 881v252h-252v112h252v250h113v-250h250v-112h-250v-252h-113z" />
    <glyph glyph-name="uni207B" unicode="&#x207b;" horiz-adv-x="819" 
d="M717 1133h-615v112h615v-112z" />
    <glyph glyph-name="uni207C" unicode="&#x207c;" horiz-adv-x="819" 
d="M717 1010h-615v112h615v-112zM717 1255h-615v113h615v-113z" />
    <glyph glyph-name="uni207D" unicode="&#x207d;" horiz-adv-x="471" 
d="M260 1161q0 -131 28.5 -272t73.5 -246h-112q-117 247 -117 518t117 518h112q-45 -105 -73.5 -246t-28.5 -272z" />
    <glyph glyph-name="uni207E" unicode="&#x207e;" horiz-adv-x="471" 
d="M213 1161q0 130 -29 271t-75 247h114q117 -247 117 -518t-117 -518h-114q46 106 75 247t29 271z" />
    <glyph glyph-name="uni2080" unicode="&#x2080;" horiz-adv-x="706" 
d="M354 88q35 0 57.5 8.5t38 27.5t23.5 57t11 88.5t3 131.5q0 86 -3 138t-10.5 92.5t-23 60t-38 28.5t-58.5 9q-35 0 -57.5 -8.5t-38 -27.5t-23.5 -57t-11 -88.5t-3 -131.5q0 -86 3 -138t10.5 -92.5t23 -60t38 -28.5t58.5 -9zM354 829q76 0 122 -18t74.5 -67t39 -126.5
t10.5 -207.5q0 -172 -21 -260t-72.5 -125t-152.5 -37q-76 0 -121.5 18t-74.5 68.5t-39 128t-10 207.5t10 207.5t39 126.5t74.5 67t121.5 18z" />
    <glyph glyph-name="uni2081" unicode="&#x2081;" horiz-adv-x="575" 
d="M471 0h-342v100h117v572q-50 -56 -129 -88v110q81 40 149 135h90v-729h115v-100z" />
    <glyph glyph-name="uni2082" unicode="&#x2082;" horiz-adv-x="643" 
d="M319 731q-60 0 -82 -33.5t-22 -113.5l-113 14q0 120 45.5 175.5t174.5 55.5q121 0 167 -52t46 -173q0 -41 -8.5 -73.5t-20 -55.5t-39.5 -48.5t-51 -42.5t-70 -48q-89 -58 -112 -100.5t-23 -135.5h336v-100h-455q0 106 5 161.5t29 103.5t57 76t104 75q81 52 108 87.5
t27 94.5q0 72 -21 102.5t-82 30.5z" />
    <glyph glyph-name="uni2083" unicode="&#x2083;" horiz-adv-x="593" 
d="M291 86q67 0 96 34t29 107q0 84 -31.5 113t-85.5 29h-74v100h74q44 0 69 26.5t25 102.5q0 75 -22 104t-82 29q-62 0 -84.5 -33.5t-22.5 -113.5l-108 14q0 120 44.5 175.5t170.5 55.5q119 0 168 -49.5t49 -171.5q0 -148 -94 -186q116 -28 116 -205q0 -112 -55.5 -170.5
t-185.5 -58.5t-177 59.5t-47 177.5l109 15q0 -78 26 -116t93 -38z" />
    <glyph glyph-name="uni2084" unicode="&#x2084;" horiz-adv-x="618" 
d="M551 186h-92v-186h-107v186h-286v82l270 561h123v-542h92v-101zM352 287l6 399l-190 -403z" />
    <glyph glyph-name="uni2085" unicode="&#x2085;" horiz-adv-x="620" 
d="M305 86q61 0 90 44t29 138q0 104 -26 144.5t-79 40.5q-40 0 -71.5 -21.5t-44.5 -50.5l-97 14l19 422h387v-100h-291l-10 -236q54 66 141 66q92 0 138.5 -62.5t46.5 -216.5q0 -149 -55.5 -214.5t-178.5 -65.5q-119 0 -167 52.5t-48 180.5l113 15q2 -86 24 -118t80 -32z
" />
    <glyph glyph-name="uni2086" unicode="&#x2086;" horiz-adv-x="645" 
d="M348 731q-77 0 -104 -66.5t-27 -236.5q62 107 189 107q89 0 129 -64.5t40 -206.5q0 -140 -53.5 -208t-179.5 -68q-143 0 -190.5 90t-47.5 332q0 116 10 189.5t37.5 128t77 78t127.5 23.5q109 0 157.5 -45t51.5 -149l-112 -14q0 63 -26 86.5t-79 23.5zM356 436
q-48 0 -79 -27t-58 -83q0 -138 28 -189t93 -51q66 0 94.5 40t28.5 136q0 95 -25 134.5t-82 39.5z" />
    <glyph glyph-name="uni2087" unicode="&#x2087;" horiz-adv-x="561" 
d="M272 0h-120l176 563l53 156l-121 -2h-186v100h422v-69z" />
    <glyph glyph-name="uni2088" unicode="&#x2088;" horiz-adv-x="608" 
d="M303 729q-57 0 -80.5 -29.5t-23.5 -103.5q0 -70 27 -99.5t77 -29.5q51 0 78 29.5t27 99.5q0 74 -23.5 103.5t-81.5 29.5zM303 373q-58 0 -88.5 -31.5t-30.5 -114.5q0 -72 28.5 -105.5t90.5 -33.5q63 0 91 33.5t28 105.5q0 83 -30.5 114.5t-88.5 31.5zM303 -12
q-123 0 -175 57t-52 168q0 168 106 209q-40 14 -66 62.5t-26 123.5q0 120 48.5 170.5t164.5 50.5q117 0 165 -50.5t48 -170.5q0 -75 -26 -123.5t-66 -62.5q106 -41 106 -209q0 -111 -52 -168t-175 -57z" />
    <glyph glyph-name="uni2089" unicode="&#x2089;" horiz-adv-x="643" 
d="M293 86q82 0 109.5 66t27.5 239q-62 -108 -184 -108q-89 0 -131.5 65.5t-42.5 204.5q0 141 52.5 208.5t180.5 67.5q73 0 118.5 -20.5t72 -72.5t36 -127.5t9.5 -198.5q0 -116 -10.5 -190.5t-38.5 -129.5t-78 -78.5t-129 -23.5q-111 0 -160.5 45t-50.5 149l110 15
q1 -63 28.5 -87t80.5 -24zM291 381q48 0 79 27.5t58 83.5q0 138 -28 188.5t-95 50.5q-65 0 -93 -39.5t-28 -134.5q0 -96 25 -136t82 -40z" />
    <glyph glyph-name="uni208A" unicode="&#x208a;" horiz-adv-x="819" 
d="M354 123v252h-252v112h252v250h113v-250h250v-112h-250v-252h-113z" />
    <glyph glyph-name="uni208B" unicode="&#x208b;" horiz-adv-x="819" 
d="M717 375h-615v112h615v-112z" />
    <glyph glyph-name="uni208C" unicode="&#x208c;" horiz-adv-x="819" 
d="M717 252h-615v113h615v-113zM717 498h-615v112h615v-112z" />
    <glyph glyph-name="uni208D" unicode="&#x208d;" horiz-adv-x="471" 
d="M260 403q0 -131 28.5 -272t73.5 -246h-112q-117 247 -117 518q0 272 117 519h112q-45 -105 -73.5 -246.5t-28.5 -272.5z" />
    <glyph glyph-name="uni208E" unicode="&#x208e;" horiz-adv-x="471" 
d="M213 403q0 130 -29 271.5t-75 247.5h114q117 -247 117 -519q0 -271 -117 -518h-114q46 106 75 247t29 271z" />
    <glyph glyph-name="uni20A1" unicode="&#x20a1;" horiz-adv-x="995" 
d="M807 1659l-33 -131q70 -47 97.5 -134t27.5 -225l-135 -18q-3 148 -31 209l-301 -1251q37 -11 92 -11q74 0 120.5 17.5t72.5 58.5t36 96.5t11 143.5l135 -19q1 -86 -8.5 -148.5t-34 -115t-66.5 -84.5t-107 -49.5t-155 -17.5q-70 0 -125 12l-20 -86h-84l27 108
q-36 18 -56 33l-34 -141h-84l51 215q-58 88 -81.5 245.5t-23.5 415.5q0 156 7.5 268.5t26.5 206t50 153t80 100.5t113.5 58t152.5 17h29l18 74h84l-20 -82q40 -7 61 -14l23 96h84zM236 782q0 -305 22 -432l270 1116h-4q-64 0 -109 -14.5t-77.5 -51.5t-52 -86t-30.5 -131.5
t-15 -174t-4 -226.5zM670 1436q-17 11 -60 22l-303 -1255q23 -38 49 -58z" />
    <glyph glyph-name="uni20A2" unicode="&#x20a2;" horiz-adv-x="995" 
d="M821 836q-144 0 -246 -154v-582q109 12 148 83.5t41 230.5l135 -19q1 -86 -8.5 -148.5t-34 -115t-66.5 -84.5t-107 -49.5t-155 -17.5q-88 0 -152.5 17t-113.5 58t-80 100.5t-50 152.5t-26.5 205.5t-7.5 268.5t7.5 268.5t26.5 206t50 153t80 100.5t113.5 58t152.5 17
q112 0 186 -26t114.5 -81t56 -128t14.5 -181l-135 -18q-1 88 -11 143.5t-36 96t-72.5 58t-120.5 17.5q-64 0 -109 -14.5t-77.5 -51.5t-52 -86t-30.5 -131.5t-15 -174t-4 -226.5q0 -119 3 -202.5t11 -161t22.5 -128t37.5 -91t56 -63t78 -32.5v601l-6 237h115l12 -135
q42 71 109 113.5t143 42.5q47 0 82 -15l-8 -121q-27 9 -70 9z" />
    <glyph glyph-name="franc" unicode="&#x20a3;" horiz-adv-x="888" 
d="M700 629h-358v-629h-135v629h-119v116h119v148h-119v117h119v555h624v-123h-489v-432h358v-117h-358v-148h358v-116z" />
    <glyph glyph-name="lira" unicode="&#x20a4;" horiz-adv-x="993" 
d="M565 1585q68 0 120.5 -9.5t89.5 -25.5t63.5 -44t42.5 -58t24.5 -74t11.5 -86t3 -100l-134 -19q0 70 -3.5 112t-16 82.5t-36.5 61t-64 33t-101 12.5t-101 -12.5t-64 -33t-36.5 -61t-16 -82.5t-3.5 -112v-233h358v-117h-358v-147h358v-117h-358v-432h576v-123h-832v123h121
v432h-121v117h121v147h-121v117h121v252q0 58 3 100t11.5 86t24 74t42 58t64 44t90.5 25.5t121 9.5z" />
    <glyph glyph-name="uni20A6" unicode="&#x20a6;" horiz-adv-x="1214" 
d="M1126 846h-120v-127h120v-127h-120v-592h-168l-228 592h-272l2 -592h-131v592h-121v127h121v127h-121v127h121v592h168l227 -592h273v592h129v-592h120v-127zM338 846v-127h223l-49 127h-174zM653 846l49 -127h175v127h-224zM332 1343l4 -370h129zM883 221l-4 371h-129z
" />
    <glyph glyph-name="peseta" unicode="&#x20a7;" horiz-adv-x="2160" 
d="M1729 86q126 0 173.5 50.5t47.5 154.5q0 33 -6 59.5t-14 45.5t-26.5 35t-33 25.5t-45.5 20t-51.5 16t-61.5 15.5q-71 14 -115 30t-85.5 48t-60.5 86.5t-19 134.5q0 299 325 299q98 0 160.5 -18.5t95 -59.5t44 -91.5t11.5 -129.5l-133 -19q0 54 -6 88.5t-23.5 64.5t-54 44
t-94.5 14q-98 0 -141 -48.5t-43 -143.5q0 -51 7.5 -80.5t33.5 -50.5t59 -32.5t101 -27.5q44 -9 74.5 -17t66.5 -21t60 -28.5t48 -39.5t38 -53.5t23 -70.5t9 -91q0 -161 -86 -238t-278 -77q-163 0 -240 55q-74 -55 -215 -55q-137 0 -205 56.5t-68 160.5v776h-178
q-13 -95 -44.5 -159.5t-81 -98t-105.5 -47t-131 -13.5h-205v-655h-135v1565h338q70 0 122.5 -10.5t101.5 -40t80 -79.5t49.5 -131.5t18.5 -193.5v-25h170v287l132 10v-297h237v-112h-237v-758q0 -70 35.5 -99.5t105.5 -29.5q102 0 149 41q-20 54 -20 154l131 18q0 -43 3 -71
t14.5 -57.5t32 -46t57 -27.5t88.5 -11zM256 778h195q64 0 106 13.5t74.5 49.5t47.5 102t15 167t-15 167t-47 102.5t-74.5 50.5t-106.5 14h-195v-666z" />
    <glyph glyph-name="uni20A8" unicode="&#x20a8;" horiz-adv-x="1628" 
d="M1130 86q287 0 287 205q0 29 -3.5 53t-13 42.5t-18 32.5t-27.5 26t-33 19.5t-41.5 16.5t-46 13.5t-54.5 13.5q-56 11 -93.5 22.5t-76.5 33.5t-61 52t-36 78t-14 113q0 299 326 299q98 0 160.5 -18.5t95 -59.5t44 -91.5t11.5 -129.5l-133 -19q0 54 -6 88.5t-23.5 64.5
t-54 44t-94.5 14q-98 0 -141.5 -48.5t-43.5 -143.5q0 -51 7.5 -80.5t33.5 -50.5t59 -32.5t101 -27.5q52 -11 86.5 -20.5t75 -26t66 -39t48.5 -54.5t33.5 -77.5t10.5 -103.5q0 -157 -106.5 -236t-313.5 -79q-85 0 -159.5 22t-132.5 58t-109.5 92t-89 112.5t-72.5 131.5
t-58.5 138t-48.5 142h-215v-676h-135v1565h338q71 0 123 -9.5t101 -37.5t80 -76.5t49.5 -129t18.5 -192.5q0 -141 -29.5 -233t-77.5 -136t-122 -61q30 -95 61.5 -173.5t80 -161.5t102 -139.5t127.5 -93t157 -36.5zM256 799h195q65 0 106.5 12t74.5 45.5t47.5 98t14.5 165.5
q0 100 -14.5 165t-47.5 99.5t-75 47t-106 12.5h-195v-645z" />
    <glyph glyph-name="uni20A9" unicode="&#x20a9;" horiz-adv-x="1380" 
d="M465 -20h-182l-72 612h-123v127h109l-17 127h-92v127h78l-70 592h129l66 -592h219l96 592h168l96 -592h220l65 592h129l-70 -592h78v-127h-92l-16 -127h108v-127h-123l-71 -612h-183l-98 612h-254zM756 973l-66 407l-65 -407h131zM604 846l-20 -127h213l-21 127h-172z
M932 592l67 -418l48 418h-115zM334 592l47 -418l68 418h-115zM891 846l20 -127h150l14 127h-184zM305 846l14 -127h150l20 127h-184z" />
    <glyph glyph-name="uni20AA" unicode="&#x20aa;" horiz-adv-x="1064" 
d="M119 1565h338q124 0 191 -63.5t67 -182.5v-1094h-135v1063q0 77 -32 112.5t-112 35.5h-184v-1436h-133v1565zM688 0h-338v1339h133v-1210h185q80 0 111.5 35t31.5 112v1289h135v-1319q0 -119 -67 -182.5t-191 -63.5z" />
    <glyph glyph-name="Euro" unicode="&#x20ac;" horiz-adv-x="1110" 
d="M737 674l-30 -103h-332q11 -265 71 -369t216 -104q74 0 120.5 17.5t72.5 58.5t35.5 96.5t10.5 143.5l135 -19q1 -108 -14.5 -180.5t-56 -128t-114 -81t-185.5 -25.5q-227 0 -319 130t-107 461h-156v103h152v217h-152v102h156q15 330 107 461t319 131q112 0 185.5 -26
t114 -81t56 -128t14.5 -181l-135 -18q-1 88 -10.5 143.5t-35.5 96t-72.5 58t-120.5 17.5q-156 0 -216 -104t-71 -369h461l-31 -102h-432v-217h364z" />
    <glyph glyph-name="uni20AE" unicode="&#x20ae;" horiz-adv-x="817" 
d="M686 676l-207 -115v-561h-135v489l-184 -102v139l184 103v151l-184 -102v139l184 103v524h-272v121h673v-121h-266v-453l207 115v-139l-207 -115v-152l207 115v-139z" />
    <glyph glyph-name="uni20B1" unicode="&#x20b1;" horiz-adv-x="1122" 
d="M344 655v-655h-135v920h-121v127h121v127h-121v126h121v265h338q70 0 123.5 -11.5t101 -40t80.5 -82t49 -131.5h133v-126h-116q2 -20 2 -64q0 -43 -2 -63h116v-127h-131q-17 -79 -50 -132.5t-81 -81.5t-101 -39.5t-122 -11.5h-205zM782 1110q0 44 -2 64h-436v-127h436
q2 18 2 63zM344 776h195q91 0 143.5 31t77.5 113h-416v-144zM344 1444v-144h416q-25 81 -78 112.5t-143 31.5h-195z" />
    <glyph glyph-name="afii61289" unicode="&#x2113;" horiz-adv-x="796" 
d="M477 -23q-142 0 -212.5 60.5t-74.5 187.5v228l-114 -82v129q5 4 47.5 34.5t62.5 47.5v553q0 127 20 217t58 140t85 72.5t108 22.5q108 0 166.5 -74.5t58.5 -214.5q0 -110 -32.5 -225.5t-86.5 -213.5t-115 -179t-126 -141v-265q0 -97 34 -133.5t123 -38.5q61 -2 127 23
l17 -125q-63 -23 -146 -23zM322 1155v-448q102 111 172.5 276.5t70.5 323.5q0 74 -26.5 117.5t-79.5 43.5q-137 0 -137 -313z" />
    <glyph glyph-name="published" unicode="&#x2117;" horiz-adv-x="1843" 
d="M102 799q0 167 65 318.5t174.5 261t261.5 174.5t319 65t318.5 -65t261 -174.5t174.5 -261t65 -318.5t-65 -318.5t-174.5 -261t-261 -174.5t-318.5 -65t-319 65t-261.5 174.5t-174.5 261t-65 318.5zM236 799q0 -186 92 -344t250 -250t344 -92t344 92t250 250t92 344
t-92 344t-250 250t-344 92t-344 -92t-250 -250t-92 -344zM758 811h246q27 0 49 3t48 13.5t43.5 28.5t29.5 51t12 78q0 55 -16.5 91t-46.5 52t-57 21.5t-62 5.5h-246v-344zM758 686v-369h-129v963h364q64 0 118 -13.5t103 -45t77 -91.5t28 -145q0 -69 -19 -123t-50 -86.5
t-74.5 -53t-87.5 -28.5t-95 -8h-235z" />
    <glyph glyph-name="servicemark" unicode="&#x2120;" horiz-adv-x="1167" 
d="M831 1044h-57l-129 310l-35 86l2 -103v-293h-67v553h69l146 -344l43 -110l43 110l145 344h70v-553h-68v293l2 103l-34 -86zM242 1036q-185 0 -211 154l71 8q9 -50 42.5 -72t97.5 -22q53 0 94 24.5t41 75.5q0 45 -29.5 67t-107.5 29q-40 4 -70 12t-59 23.5t-44.5 44
t-15.5 68.5q0 77 54 117.5t135 40.5q182 0 206 -152l-69 -6q-9 49 -40.5 70.5t-96.5 21.5q-42 0 -78.5 -21t-36.5 -71q0 -37 25 -55t94 -25q108 -13 155 -45.5t47 -118.5q0 -81 -59.5 -124.5t-144.5 -43.5z" />
    <glyph glyph-name="trademark" unicode="&#x2122;" horiz-adv-x="1146" 
d="M813 1044h-57l-129 310l-35 86l2 -103v-293h-68v553h70l145 -344l43 -110l43 110l146 344h69v-553h-67v293l2 103l-35 -86zM262 1530v-486h-72v486h-170v67h412v-67h-170z" />
    <glyph glyph-name="ohm" unicode="&#x2126;" horiz-adv-x="1474" 
d="M737 1460q-238 0 -377 -142.5t-139 -395.5q0 -126 35.5 -252t94.5 -230t127.5 -188t142.5 -146v-106h-560v123h189l213 -2q-162 156 -269.5 371t-107.5 440q0 301 173.5 478t477.5 177t478 -177t174 -478q0 -225 -107.5 -440t-269.5 -371l213 2h188v-123h-559v106
q74 62 142 146t127 188t94.5 230t35.5 252q0 253 -139 395.5t-377 142.5z" />
    <glyph glyph-name="estimated" unicode="&#x212e;" horiz-adv-x="1699" 
d="M1649 743h-1356q4 -105 25.5 -199t65.5 -179t107.5 -147t157 -99t207.5 -39q271 -3 438.5 117t190.5 342h133q-42 -285 -242 -423.5t-526 -138.5q-234 0 -415 99.5t-282.5 286t-101.5 432.5q0 185 59 338.5t164 259t253 163.5t323 58t323 -58t253 -163.5t164 -259
t59 -338.5v-52zM850 1511q-114 0 -206.5 -37t-154.5 -99t-105.5 -148t-64 -180t-24.5 -199h1112q-4 105 -25.5 199t-65 180t-106 148t-155 99t-205.5 37z" />
    <glyph glyph-name="uni2153" unicode="&#x2153;" horiz-adv-x="1445" 
d="M471 758h-342v100h117v572q-51 -57 -129 -89v111q81 40 149 135h90v-729h115v-100zM248 0l799 1565h133l-799 -1565h-133zM1143 86q67 0 96 34t29 107q0 84 -31.5 113t-85.5 29h-74v100h74q44 0 69 26.5t25 102.5q0 75 -22 104t-82 29q-62 0 -84.5 -33.5t-22.5 -113.5
l-108 14q0 120 44.5 175.5t170.5 55.5q119 0 168 -49.5t49 -171.5q0 -148 -94 -186q116 -28 116 -205q0 -112 -55.5 -170.5t-185.5 -58.5t-177 59.5t-47 177.5l109 15q0 -78 26 -116t93 -38z" />
    <glyph glyph-name="uni2154" unicode="&#x2154;" horiz-adv-x="1513" 
d="M319 1489q-60 0 -82 -33.5t-22 -114.5l-113 15q0 120 45.5 175.5t174.5 55.5q121 0 167 -52t46 -173q0 -41 -8.5 -73.5t-20 -55.5t-39.5 -48.5t-51 -42.5t-70 -48q-89 -58 -112 -100.5t-23 -135.5h336v-100h-455q0 106 5 161.5t29 103.5t57 76t104 75q81 52 108 87.5
t27 94.5q0 72 -21 102.5t-82 30.5zM315 0l799 1565h133l-798 -1565h-134zM1210 86q67 0 96 34t29 107q0 84 -31.5 113t-84.5 29h-74v100h74q44 0 69 26.5t25 102.5q0 75 -22 104t-83 29q-62 0 -84 -33.5t-22 -113.5l-109 14q0 120 44.5 175.5t170.5 55.5q119 0 168 -49.5
t49 -171.5q0 -148 -94 -186q117 -28 117 -205q0 -112 -55.5 -170.5t-186.5 -58.5q-130 0 -176.5 59.5t-46.5 177.5l109 15q0 -79 25.5 -116.5t92.5 -37.5z" />
    <glyph glyph-name="uni2155" unicode="&#x2155;" horiz-adv-x="1472" 
d="M471 758h-342v100h117v572q-51 -57 -129 -89v111q81 40 149 135h90v-729h115v-100zM248 0l799 1565h133l-799 -1565h-133zM1157 86q61 0 90 44t29 138q0 104 -26 144.5t-79 40.5q-40 0 -71.5 -21.5t-44.5 -50.5l-97 14l19 422h387v-100h-291l-10 -236q54 66 141 66
q92 0 138.5 -62.5t46.5 -216.5q0 -149 -55.5 -214.5t-178.5 -65.5q-119 0 -167 52.5t-48 180.5l113 15q2 -86 24 -118t80 -32z" />
    <glyph glyph-name="uni2156" unicode="&#x2156;" horiz-adv-x="1540" 
d="M319 1489q-60 0 -82 -33.5t-22 -114.5l-113 15q0 120 45.5 175.5t174.5 55.5q121 0 167 -52t46 -173q0 -41 -8.5 -73.5t-20 -55.5t-39.5 -48.5t-51 -42.5t-70 -48q-89 -58 -112 -100.5t-23 -135.5h336v-100h-455q0 106 5 161.5t29 103.5t57 76t104 75q81 52 108 87.5
t27 94.5q0 72 -21 102.5t-82 30.5zM315 0l799 1565h133l-798 -1565h-134zM1225 86q61 0 89.5 44t28.5 138q0 104 -25.5 144.5t-78.5 40.5q-40 0 -72 -21.5t-45 -50.5l-96 14l18 422h388v-100h-291l-11 -236q54 66 142 66q92 0 138 -62.5t46 -216.5q0 -150 -55 -215t-178 -65
q-119 0 -167 52.5t-48 180.5l112 15q1 -86 23.5 -118t81.5 -32z" />
    <glyph glyph-name="uni2157" unicode="&#x2157;" horiz-adv-x="1490" 
d="M291 844q67 0 96 34t29 107q0 84 -31.5 112.5t-85.5 28.5h-74v101h74q44 0 69 26.5t25 102.5q0 75 -22 104t-82 29q-62 0 -84.5 -34t-22.5 -114l-108 15q0 120 44.5 175.5t170.5 55.5q119 0 168 -49.5t49 -171.5q0 -148 -94 -186q116 -28 116 -205q0 -112 -55.5 -171
t-185.5 -59t-177 60t-47 178l109 14q0 -78 26 -115.5t93 -37.5zM266 0l799 1565h133l-799 -1565h-133zM1176 86q61 0 89.5 44t28.5 138q0 104 -25.5 144.5t-78.5 40.5q-40 0 -72 -21.5t-45 -50.5l-96 14l18 422h387v-100h-290l-11 -236q54 66 142 66q92 0 138 -62.5
t46 -216.5q0 -150 -55 -215t-178 -65q-120 0 -168 52.5t-48 180.5l113 15q1 -86 23.5 -118t81.5 -32z" />
    <glyph glyph-name="uni2158" unicode="&#x2158;" horiz-adv-x="1515" 
d="M551 944h-92v-186h-107v186h-286v82l270 561h123v-543h92v-100zM352 1044l6 400l-190 -404zM291 0l799 1565h133l-799 -1565h-133zM1200 86q61 0 90 44t29 138q0 104 -26 144.5t-79 40.5q-40 0 -71.5 -21.5t-44.5 -50.5l-97 14l19 422h387v-100h-291l-10 -236
q54 66 141 66q92 0 138.5 -62.5t46.5 -216.5q0 -149 -55.5 -214.5t-178.5 -65.5q-119 0 -167 52.5t-48 180.5l113 15q2 -86 24 -118t80 -32z" />
    <glyph glyph-name="uni2159" unicode="&#x2159;" horiz-adv-x="1497" 
d="M471 758h-342v100h117v572q-51 -57 -129 -89v111q81 40 149 135h90v-729h115v-100zM248 0l799 1565h133l-799 -1565h-133zM1200 731q-77 0 -104 -66.5t-27 -236.5q62 107 188 107q89 0 129.5 -65t40.5 -206q0 -140 -53.5 -208t-179.5 -68q-143 0 -190.5 90t-47.5 332
q0 116 10 189.5t37.5 128t77 78t127.5 23.5q109 0 157.5 -45t51.5 -149l-112 -14q0 63 -26 86.5t-79 23.5zM1208 436q-48 0 -79 -27t-58 -83q0 -138 28 -189t93 -51q66 0 94.5 40t28.5 136q0 95 -25 134.5t-82 39.5z" />
    <glyph glyph-name="uni215A" unicode="&#x215a;" horiz-adv-x="1542" 
d="M305 844q61 0 90 44t29 138q0 103 -26 143.5t-79 40.5q-40 0 -71.5 -21t-44.5 -50l-97 14l19 422h387v-100h-291l-10 -236q54 66 141 66q92 0 138.5 -62.5t46.5 -216.5q0 -150 -55.5 -215.5t-178.5 -65.5q-119 0 -167 53t-48 181l113 14q1 -86 23 -117.5t81 -31.5zM293 0
l799 1565h133l-799 -1565h-133zM1245 731q-77 0 -104 -66.5t-27 -236.5q62 107 189 107q89 0 129.5 -65t40.5 -206q0 -140 -53.5 -208t-180.5 -68q-143 0 -190.5 90t-47.5 332q0 116 10 189.5t37.5 128t77 78t127.5 23.5q109 0 157.5 -45t51.5 -149l-112 -14q0 63 -26 86.5
t-79 23.5zM1253 436q-48 0 -79 -27t-58 -83q0 -138 28 -189t93 -51q66 0 94.5 40t28.5 136q0 95 -25 134.5t-82 39.5z" />
    <glyph glyph-name="uni215B" unicode="&#x215b;" horiz-adv-x="1460" 
d="M471 758h-342v100h117v572q-51 -57 -129 -89v111q81 40 149 135h90v-729h115v-100zM248 0l799 1565h133l-799 -1565h-133zM1155 729q-57 0 -80.5 -29.5t-23.5 -103.5q0 -70 27 -99.5t77 -29.5q51 0 78 29.5t27 99.5q0 74 -23.5 103.5t-81.5 29.5zM1155 373
q-58 0 -88.5 -31.5t-30.5 -114.5q0 -72 28.5 -105.5t90.5 -33.5q63 0 91 33.5t28 105.5q0 83 -30.5 114.5t-88.5 31.5zM1155 -12q-123 0 -175 57t-52 168q0 168 106 209q-40 14 -66 62.5t-26 123.5q0 120 48.5 170.5t164.5 50.5q117 0 165 -50.5t48 -170.5q0 -75 -26 -123.5
t-66 -62.5q106 -41 106 -209q0 -111 -52 -168t-175 -57z" />
    <glyph glyph-name="uni215C" unicode="&#x215c;" horiz-adv-x="1478" 
d="M291 844q67 0 96 34t29 107q0 84 -31.5 112.5t-85.5 28.5h-74v101h74q44 0 69 26.5t25 102.5q0 75 -22 104t-82 29q-62 0 -84.5 -34t-22.5 -114l-108 15q0 120 44.5 175.5t170.5 55.5q119 0 168 -49.5t49 -171.5q0 -148 -94 -186q116 -28 116 -205q0 -112 -55.5 -171
t-185.5 -59t-177 60t-47 178l109 14q0 -78 26 -115.5t93 -37.5zM266 0l799 1565h133l-799 -1565h-133zM1174 729q-58 0 -81.5 -29.5t-23.5 -103.5q0 -70 27 -99.5t78 -29.5q50 0 77 29.5t27 99.5q0 74 -23.5 103.5t-80.5 29.5zM1174 373q-58 0 -88.5 -31.5t-30.5 -114.5
q0 -72 28.5 -105.5t90.5 -33.5q63 0 90.5 33t27.5 106q0 83 -30 114.5t-88 31.5zM1174 -12q-123 0 -175.5 57.5t-52.5 167.5q0 168 107 209q-40 14 -66 62.5t-26 123.5q0 120 48.5 170.5t164.5 50.5q117 0 164.5 -50t47.5 -171q0 -75 -26 -123.5t-66 -62.5q107 -41 107 -209
q0 -111 -52 -168t-175 -57z" />
    <glyph glyph-name="uni215D" unicode="&#x215d;" horiz-adv-x="1505" 
d="M305 844q61 0 90 44t29 138q0 103 -26 143.5t-79 40.5q-40 0 -71.5 -21t-44.5 -50l-97 14l19 422h387v-100h-291l-10 -236q54 66 141 66q92 0 138.5 -62.5t46.5 -216.5q0 -150 -55.5 -215.5t-178.5 -65.5q-119 0 -167 53t-48 181l113 14q1 -86 23 -117.5t81 -31.5zM293 0
l799 1565h133l-799 -1565h-133zM1200 729q-57 0 -80.5 -29.5t-23.5 -103.5q0 -70 27 -99.5t77 -29.5q51 0 78 29.5t27 99.5q0 74 -23.5 103.5t-81.5 29.5zM1200 373q-58 0 -88.5 -31.5t-30.5 -114.5q0 -72 28.5 -105.5t90.5 -33.5q63 0 91 33.5t28 105.5q0 83 -30.5 114.5
t-88.5 31.5zM1200 -12q-123 0 -175 57t-52 168q0 168 106 209q-40 14 -66 62.5t-26 123.5q0 120 48.5 170.5t164.5 50.5q117 0 165 -50.5t48 -170.5q0 -75 -26 -123.5t-66 -62.5q106 -41 106 -209q0 -111 -52 -168t-175 -57z" />
    <glyph glyph-name="uni215E" unicode="&#x215e;" horiz-adv-x="1363" 
d="M272 758h-120l176 563l53 156l-121 -2h-186v100h422v-70zM152 0l798 1565h133l-798 -1565h-133zM1059 729q-58 0 -81.5 -29.5t-23.5 -103.5q0 -70 27 -99.5t78 -29.5q50 0 77 29.5t27 99.5q0 74 -23.5 103.5t-80.5 29.5zM1059 373q-58 0 -88.5 -31.5t-30.5 -114.5
q0 -72 28.5 -105.5t90.5 -33.5q63 0 91 33.5t28 105.5q0 83 -30.5 114.5t-88.5 31.5zM1059 -12q-123 0 -175.5 57.5t-52.5 167.5q0 168 107 209q-40 14 -66 62.5t-26 123.5q0 120 48.5 170.5t164.5 50.5q117 0 165 -50.5t48 -170.5q0 -75 -26 -123.5t-66 -62.5
q106 -41 106 -209q0 -111 -52 -168t-175 -57z" />
    <glyph glyph-name="uni215F" unicode="&#x215f;" horiz-adv-x="892" 
d="M471 758h-342v100h117v572q-51 -57 -129 -89v111q81 40 149 135h90v-729h115v-100zM248 0l799 1565h133l-799 -1565h-133z" />
    <glyph glyph-name="arrowleft" unicode="&#x2190;" horiz-adv-x="1802" 
d="M922 362v-155l-842 555v74l842 555v-156l-355 -225l-237 -152l305 4h1065v-127h-1065l-305 4l237 -151z" />
    <glyph glyph-name="arrowup" unicode="&#x2191;" horiz-adv-x="1802" 
d="M465 778h-156l553 842h78l553 -842h-156l-225 357l-149 237l2 -305v-1067h-127v1067l2 305l-150 -237z" />
    <glyph glyph-name="arrowright" unicode="&#x2192;" horiz-adv-x="1802" 
d="M881 207v155l354 226l238 151l-306 -4h-1065v127h1065l306 -4l-238 152l-354 225v156l841 -555v-74z" />
    <glyph glyph-name="arrowdown" unicode="&#x2193;" horiz-adv-x="1802" 
d="M1337 819h156l-553 -842h-78l-553 842h156l225 -356l150 -238l-2 305v1067h127v-1067l-2 -305l149 238z" />
    <glyph glyph-name="uni2196" unicode="&#x2196;" horiz-adv-x="1802" 
d="M381 688l-109 -108l-204 987l53 53l989 -203l-111 -108l-411 90l-273 63l217 -215l754 -753l-92 -91l-752 756l-213 217l62 -274z" />
    <glyph glyph-name="uni2197" unicode="&#x2197;" horiz-adv-x="1802" 
d="M1530 580l-109 108l90 414l62 274l-213 -217l-752 -756l-92 91l754 753l217 215l-273 -63l-411 -90l-111 108l989 203l54 -53z" />
    <glyph glyph-name="uni2198" unicode="&#x2198;" horiz-adv-x="1802" 
d="M1421 913l109 109l205 -987l-54 -53l-989 202l111 111l411 -92l273 -62l-217 213l-754 754l92 90l752 -756l213 -217l-62 277z" />
    <glyph glyph-name="uni2199" unicode="&#x2199;" horiz-adv-x="1802" 
d="M272 1022l109 -109l-90 -411l-62 -277l213 217l752 756l92 -90l-754 -754l-217 -213l273 62l411 92l111 -111l-989 -202l-53 53z" />
    <glyph glyph-name="partialdiff" unicode="&#x2202;" horiz-adv-x="1466" 
d="M201 1475q203 120 446 120q313 0 484.5 -211t171.5 -602q0 -407 -144.5 -606t-451.5 -199q-120 0 -222 34t-178 97t-119 161t-43 220q0 250 138.5 381t380.5 131q72 0 142.5 -15t140.5 -48t126 -93.5t84 -142.5q0 3 0.5 18.5t1 40.5t0.5 52q1 168 -36.5 296t-107.5 206
t-162 116.5t-204 38.5q-206 3 -389 -104zM672 874q-82 -1 -149.5 -23t-120.5 -67t-82 -120t-29 -175t35 -176t94.5 -120.5t132 -67t154.5 -23.5q331 -6 415 316q2 16 2 51q1 97 -36.5 175.5t-100.5 128t-144 76t-171 25.5z" />
    <glyph glyph-name="increment" unicode="&#x2206;" horiz-adv-x="1802" 
d="M133 0v76l723 1509h90l723 -1509v-76h-1536zM1012 1157l-111 244l-110 -244l-494 -1036l244 4h721l243 -2z" />
    <glyph glyph-name="product" unicode="&#x220f;" horiz-adv-x="1597" 
d="M1126 1440h-655v-1440h-141v1440h-256v125h1450v-125h-256v-1440h-142v1440z" />
    <glyph glyph-name="summation" unicode="&#x2211;" horiz-adv-x="1445" 
d="M229 1436v129h1037v-125h-482l-362 2l647 -596v-84l-692 -639l362 2h576v-125h-1141v125l752 678z" />
    <glyph glyph-name="minus" unicode="&#x2212;" horiz-adv-x="1474" 
d="M1290 737h-1106v123h1106v-123z" />
    <glyph glyph-name="radical" unicode="&#x221a;" horiz-adv-x="1628" 
d="M778 418l656 1147h155l-911 -1581h-143l-230 974l-211 -47v125l307 72l154 -659l70 -310z" />
    <glyph glyph-name="infinity" unicode="&#x221e;" horiz-adv-x="1679" 
d="M772 799q-126 185 -299 192q-95 3 -156 -42t-61 -150t61 -150.5t156 -42.5q172 7 299 193zM840 709q-173 -211 -369 -211q-150 0 -239 77t-89 224t89 224t239 77q196 0 369 -211q170 211 368 211q150 0 239 -77t89 -224t-89 -224t-239 -77q-198 0 -368 211zM907 799
q127 -186 301 -193q93 -3 154 42.5t61 150.5t-61 150t-154 42q-175 -7 -301 -192z" />
    <glyph glyph-name="integral" unicode="&#x222b;" horiz-adv-x="542" 
d="M342 1217v-1229q0 -52 -3 -92.5t-12.5 -86t-25.5 -79t-44 -65.5t-66.5 -52.5t-93.5 -32.5t-124 -12q-89 0 -139 22l19 127q48 -27 118 -24q58 1 97.5 11.5t71.5 38t47.5 79.5t15.5 131v1231q0 74 6 128t28 112.5t60.5 95t107 60.5t164.5 24q82 0 142 -25l-19 -125
q-56 25 -121 25q-58 -1 -97 -11.5t-70.5 -38.5t-46.5 -80t-15 -132z" />
    <glyph glyph-name="approxequal" unicode="&#x2248;" horiz-adv-x="1474" 
d="M1014 838q-72 0 -149 22.5t-132.5 50t-129 50t-140.5 22.5q-42 0 -81 -9.5t-65 -22.5t-46 -26t-29 -23l-9 -9l-53 94q5 6 15 16t36 29t56.5 34t77 26.5t96.5 11.5q73 0 149.5 -23t132 -51t129 -51t140.5 -23q42 0 81 9.5t65 23t45.5 27.5t28.5 24l9 9l53 -95
q-5 -6 -15 -16t-36 -29t-56 -33.5t-76.5 -26t-96.5 -11.5zM1014 498q-72 0 -149 22.5t-132.5 50t-129 50t-140.5 22.5q-42 0 -81 -9.5t-65 -23t-46 -27t-29 -23.5l-9 -9l-53 94q4 6 15 17t36.5 29.5t56 34t77 27t96.5 11.5q73 0 149.5 -23t132 -51t129 -51t140.5 -23
q42 0 81 9.5t65 23t45.5 27.5t28.5 24l9 9l53 -95q-5 -6 -15 -16t-36 -29t-56 -33.5t-76.5 -26t-96.5 -11.5z" />
    <glyph glyph-name="notequal" unicode="&#x2260;" horiz-adv-x="1474" 
d="M1290 918h-407l-158 -238h565v-125h-649l-141 -213h-133l141 213h-324v125h408l158 238h-566v124h647l144 213h133l-141 -213h323v-124z" />
    <glyph glyph-name="equivalence" unicode="&#x2261;" horiz-adv-x="1474" 
d="M1290 246h-1106v125h1106v-125zM1290 1227h-1106v125h1106v-125zM1290 737h-1106v125h1106v-125z" />
    <glyph glyph-name="lessequal" unicode="&#x2264;" horiz-adv-x="1474" 
d="M324 932l342 -98l624 -193v-131l-1106 352v139l1106 353v-131l-624 -193zM1290 244l-1106 356v84l1106 -356v-84z" />
    <glyph glyph-name="greaterequal" unicode="&#x2265;" horiz-adv-x="1474" 
d="M809 834l342 98l-342 98l-625 193v131l1106 -353v-139l-1106 -352v131zM1290 600l-1106 -356v84l1106 356v-84z" />
    <glyph glyph-name="squaremultiply" unicode="&#x22a0;" horiz-adv-x="2039" 
d="M221 0v1597h1598v-1597h-1598zM1681 1468h-1323v-1339h1323v1339zM463 338l461 461l-461 461l96 96l461 -461l459 461l98 -96l-461 -461l461 -461l-98 -96l-459 460l-461 -460z" />
    <glyph glyph-name="house" unicode="&#x2302;" horiz-adv-x="1781" 
d="M1618 0h-1454v922l727 696l727 -696v-922z" />
    <glyph glyph-name="blacksquare" unicode="&#x25a0;" horiz-adv-x="2039" 
d="M1819 1597v-1597h-1598v1597h1598z" />
    <glyph glyph-name="whitesquare" unicode="&#x25a1;" horiz-adv-x="2039" 
d="M221 0v1597h1598v-1597h-1598zM1681 1468h-1323v-1339h1323v1339z" />
    <glyph glyph-name="blacksmallsquare" unicode="&#x25aa;" horiz-adv-x="1527" 
d="M1307 1085v-1085h-1086v1085h1086z" />
    <glyph glyph-name="whitesmallsquare" unicode="&#x25ab;" horiz-adv-x="1527" 
d="M221 0v1085h1086v-1085h-1086zM1169 956h-811v-827h811v827z" />
    <glyph glyph-name="triagup" unicode="&#x25b2;" horiz-adv-x="1679" 
d="M1638 0h-1597l799 1384z" />
    <glyph glyph-name="triagrt" unicode="&#x25ba;" horiz-adv-x="1679" 
d="M90 0v1597l1385 -798z" />
    <glyph glyph-name="triagdn" unicode="&#x25bc;" horiz-adv-x="1679" 
d="M41 1597h1597l-798 -1384z" />
    <glyph glyph-name="triaglf" unicode="&#x25c4;" horiz-adv-x="1679" 
d="M1475 1597v-1597l-1385 799z" />
    <glyph glyph-name="lozenge" unicode="&#x25ca;" horiz-adv-x="1884" 
d="M942 -20l-754 819l754 819l754 -819zM369 799l573 -631l574 631l-574 631z" />
    <glyph glyph-name="whitecircle" unicode="&#x25cb;" horiz-adv-x="2039" 
d="M201 799q0 167 65 318.5t174.5 261t261 174.5t318.5 65t318.5 -65t261 -174.5t174.5 -261t65 -318.5t-65 -318.5t-174.5 -261t-261 -174.5t-318.5 -65t-318.5 65t-261 174.5t-174.5 261t-65 318.5zM1690 799q0 139 -52.5 265t-142 217.5t-214 145.5t-261.5 54
q-184 0 -338.5 -91.5t-243 -248t-88.5 -342.5q0 -139 52.5 -265t142 -217.5t214 -145.5t261.5 -54q184 0 338.5 91.5t243 248t88.5 342.5z" />
    <glyph glyph-name="whitecircle" unicode="&#x25ef;" horiz-adv-x="2039" 
d="M201 799q0 167 65 318.5t174.5 261t261 174.5t318.5 65t318.5 -65t261 -174.5t174.5 -261t65 -318.5t-65 -318.5t-174.5 -261t-261 -174.5t-318.5 -65t-318.5 65t-261 174.5t-174.5 261t-65 318.5zM1690 799q0 139 -52.5 265t-142 217.5t-214 145.5t-261.5 54
q-184 0 -338.5 -91.5t-243 -248t-88.5 -342.5q0 -139 52.5 -265t142 -217.5t214 -145.5t261.5 -54q184 0 338.5 91.5t243 248t88.5 342.5z" />
    <glyph glyph-name="bullseye" unicode="&#x25ce;" horiz-adv-x="2007" 
d="M184 799q0 167 65 318.5t174.5 261t261.5 174.5t319 65t318.5 -65t261 -174.5t174.5 -261t65 -318.5t-65 -318.5t-174.5 -261t-261 -174.5t-318.5 -65t-319 65t-261.5 174.5t-174.5 261t-65 318.5zM696 799q0 127 90 217t218 90t217.5 -90t89.5 -217t-89.5 -217
t-217.5 -90t-218 90t-90 217zM342 694q0 -152 74.5 -280t202.5 -202.5t280 -74.5t280.5 74t203.5 202.5t75 280.5q0 114 -44 217.5t-119 178.5t-178.5 119t-217.5 44q-152 0 -280.5 -75t-202.5 -203.5t-74 -280.5z" />
    <glyph glyph-name="blackcircle" unicode="&#x25cf;" horiz-adv-x="2039" 
d="M201 799q0 167 65 318.5t174.5 261t261 174.5t318.5 65t318.5 -65t261 -174.5t174.5 -261t65 -318.5t-65 -318.5t-174.5 -261t-261 -174.5t-318.5 -65t-318.5 65t-261 174.5t-174.5 261t-65 318.5z" />
    <glyph glyph-name="uni25E2" unicode="&#x25e2;" horiz-adv-x="1679" 
d="M74 414l1130 1130l414 -1544z" />
    <glyph glyph-name="uni25E3" unicode="&#x25e3;" horiz-adv-x="1679" 
d="M475 1544l1131 -1130l-1545 -414z" />
    <glyph glyph-name="uni25E4" unicode="&#x25e4;" horiz-adv-x="1679" 
d="M1606 1184l-1131 -1131l-414 1544z" />
    <glyph glyph-name="uni25E5" unicode="&#x25e5;" horiz-adv-x="1679" 
d="M1204 53l-1130 1131l1544 413z" />
    <glyph glyph-name="uni2605" unicode="&#x2605;" horiz-adv-x="1843" 
d="M922 369l-533 -389l203 628l-533 387h660l203 627l202 -627h660l-533 -387l203 -628z" />
    <glyph glyph-name="ballotboxwithx" unicode="&#x2612;" horiz-adv-x="1495" 
d="M205 0v1085h1085v-1085h-1085zM1147 950h-799v-815h799v815zM389 279l266 264l-266 264l94 94l265 -266l264 266l94 -94l-266 -264l266 -264l-94 -95l-264 267l-265 -267z" />
    <glyph glyph-name="uni263C" unicode="&#x263c;" horiz-adv-x="2007" 
d="M1823 799l-346 -62l317 -149l-350 30l270 -229l-332 121l201 -289l-289 201l119 -332l-227 266l31 -348l-152 318l-61 -346l-62 346l-151 -318l30 348l-227 -266l119 332l-289 -201l201 289l-332 -121l270 229l-350 -30l317 149l-346 62l346 61l-317 150l350 -31
l-270 229l332 -121l-201 289l289 -200l-119 331l227 -266l-30 348l151 -317l62 346l61 -346l152 317l-31 -348l227 266l-119 -331l289 200l-201 -289l332 121l-270 -229l350 31l-317 -150z" />
    <glyph glyph-name="uni263E" unicode="&#x263e;" horiz-adv-x="2007" 
d="M1298 1491q-135 0 -258 -54.5t-211.5 -147.5t-141 -221t-52.5 -269t52.5 -269.5t141 -221t211.5 -147.5t258 -55q99 0 197 31q-218 -157 -491 -157q-167 0 -319 65t-261.5 174.5t-174.5 261t-65 318.5t65 318.5t174.5 261t261.5 174.5t319 65q267 0 491 -158
q-109 31 -197 31z" />
    <glyph glyph-name="spade" unicode="&#x2660;" horiz-adv-x="1884" 
d="M944 1618q66 -99 199 -238t278 -233q60 -39 104 -73t90.5 -79t75.5 -90t47.5 -102t18.5 -119q0 -150 -104.5 -253t-255.5 -103q-73 0 -139 27t-116.5 74t-89 104t-65.5 124l-6 -2q17 -209 54.5 -356t113.5 -299h-414q76 152 113.5 299t54.5 356l-6 2q-27 -67 -65.5 -124
t-89 -104t-116.5 -74t-139 -27q-151 0 -255.5 103t-104.5 253q0 62 18.5 119t47.5 102t75.5 90t90.5 79t104 73q145 94 278 233t199 238h4z" />
    <glyph glyph-name="club" unicode="&#x2663;" horiz-adv-x="1884" 
d="M735 0q76 152 113.5 299t54.5 356l-6 2q-27 -67 -65.5 -124t-89 -104t-116.5 -74t-139 -27q-151 0 -255.5 103t-104.5 253q0 161 99 265t257 104q84 0 172 -47l4 4q-77 116 -77 239q0 154 103 261.5t257 107.5t257.5 -107.5t103.5 -261.5q0 -121 -78 -239l4 -4
q88 47 172 47q158 0 257 -104t99 -265q0 -150 -104.5 -253t-255.5 -103q-73 0 -139 27t-116.5 74t-89 104t-65.5 124l-6 -2q17 -209 54.5 -356t113.5 -299h-414z" />
    <glyph glyph-name="heart" unicode="&#x2665;" horiz-adv-x="1884" 
d="M944 -20h-4q-59 89 -193.5 260t-283.5 340q-64 73 -114 136.5t-105 148.5t-86 170t-31 161q0 185 106.5 303.5t284.5 118.5q92 0 163.5 -25.5t120.5 -73t80.5 -100.5t55.5 -123h8q24 70 55.5 123t80.5 100.5t120.5 73t163.5 25.5q178 0 284.5 -118.5t106.5 -303.5
q0 -76 -31 -161t-86 -170t-105 -148.5t-114 -136.5q-149 -169 -283.5 -340t-193.5 -260z" />
    <glyph glyph-name="diamond" unicode="&#x2666;" horiz-adv-x="1884" 
d="M1694 799q-218 -170 -415.5 -386t-334.5 -433h-4q-137 217 -334.5 433t-415.5 386q218 170 415.5 386t334.5 433h4q137 -217 334.5 -433t415.5 -386z" />
    <glyph glyph-name="musicflatsign" unicode="&#x266d;" horiz-adv-x="1024" 
d="M160 -86v1765h106v-755q40 78 132 133t184 55q176 0 263 -97t87 -280q0 -118 -42.5 -230t-116 -203t-172 -168t-210.5 -132t-231 -88zM266 702v-632q67 24 133 58t142.5 92.5t133.5 126.5t95.5 165t38.5 205q0 276 -242 276q-116 0 -203.5 -93t-97.5 -198z" />
    <glyph glyph-name="musicsharpsign" unicode="&#x266f;" horiz-adv-x="995" 
d="M748 1802v-430l186 150v-162l-186 -152v-420l186 150v-162l-186 -151v-625h-105v543l-291 -234v-514h-104v430l-187 -149v162l187 151v420l-187 -150v162l187 152v624h104v-542l291 233v514h105zM352 891v-420l291 234v421z" />
    <glyph glyph-name="uni267B" unicode="&#x267b;" horiz-adv-x="2007" 
d="M1788 545l2 -4l-197 -342q-41 -60 -60 -77q-44 -38 -120 -38h-117v-100l-231 278l231 277v-101h297q54 0 102.5 27t70.5 53zM401 250h-4l-196 344q-23 42 -31.5 65.5t-5.5 63t29 82.5l57 100l-86 49l356 64l121 -340l-84 49q-143 -246 -147 -256q-17 -29 -24.5 -62.5
t-5.5 -60.5t6.5 -50t9.5 -36zM848 1595v2h395q37 -1 56.5 -3t46 -11t47 -29t39.5 -53l57 -100l88 49l-125 -340l-354 64l84 49l-148 256q-27 47 -73.5 76t-79.5 35zM430 1225l137 243q21 37 70 64q63 34 131.5 30.5t126.5 -33t80 -69.5l-238 -411zM934 84h-277q-43 0 -90 27
q-45 26 -76 70.5t-42.5 91.5t-9 91.5t19.5 73.5h475v-354zM1671 1079l141 -239q21 -38 21 -90q1 -99 -78 -178.5t-151 -79.5l-238 411z" />
    <glyph glyph-name="uni267C" unicode="&#x267c;" horiz-adv-x="2007" 
d="M1823 797q0 -167 -64.5 -318.5t-173.5 -260.5t-260.5 -173.5t-318.5 -64.5q-168 0 -320 64.5t-262 173.5t-175 260.5t-65 318.5q0 168 65 320t175 261.5t262 174.5t320 65q167 0 318.5 -65t260.5 -174.5t173.5 -261.5t64.5 -320zM662 1321l-107 -188l238 -138l184 320
q-17 30 -62 52.5t-98 25.5t-102 -23q-37 -21 -53 -49zM870 1421v-2q4 0 11 -1.5t26.5 -7.5t37 -14.5t38 -26.5t33.5 -40l114 -199l-65 -38l274 -50l97 265l-68 -39l-45 78q-28 49 -59.5 62t-85.5 13h-308zM723 248h215v274h-369q-13 -22 -15 -57t7.5 -71.5t33.5 -71
t58 -54.5q36 -20 70 -20zM530 377h2q-4 10 -9.5 27.5t-5 63t21.5 81.5l114 199l66 -39l-94 264l-277 -49l68 -39l-45 -78q-20 -34 -22.5 -65t4 -48.5t24.5 -50.5zM1626 834l-108 186l-238 -137l184 -320q57 0 118 61.5t60 139.5q0 42 -16 70zM1610 602l-2 2q-2 -3 -6.5 -8.5
t-19.5 -20t-31.5 -25t-42.5 -19.5t-52 -9h-229v78l-180 -215l180 -215v78h90q30 0 52.5 6t38.5 20t25.5 26.5t22.5 35.5z" />
    <glyph glyph-name="uni267D" unicode="&#x267d;" horiz-adv-x="2007" 
d="M1823 797q0 -167 -64.5 -318.5t-173.5 -260.5t-260.5 -173.5t-318.5 -64.5q-168 0 -320 64.5t-262 173.5t-175 260.5t-65 318.5q0 168 65 320t175 261.5t262 174.5t320 65q167 0 318.5 -65t260.5 -174.5t173.5 -261.5t64.5 -320zM1782 797q0 159 -61.5 303.5t-165 249
t-247.5 166t-302 61.5q-159 0 -303.5 -61.5t-249 -166t-166.5 -249t-62 -303.5q0 -212 104.5 -390.5t284 -282.5t392.5 -104q158 0 302 61.5t247.5 165.5t165 248t61.5 302zM555 1133l107 188q16 28 53 49q49 26 102 23t98 -25.5t62 -52.5l-184 -320zM870 1419v2h308
q54 0 85.5 -13t59.5 -62l45 -78l68 39l-97 -265l-274 50l65 38l-114 199q-21 36 -57.5 58.5t-62.5 26.5zM938 248h-215q-34 0 -70 20q-34 20 -58 54.5t-33.5 71t-7.5 71.5t15 57h369v-274zM532 377h-2l-153 266q-18 33 -24.5 50.5t-4 48.5t22.5 65l45 78l-68 39l277 49
l94 -264l-66 39l-114 -199q-21 -36 -22.5 -79t7.5 -68zM1518 1020l108 -186q16 -28 16 -70q1 -78 -60 -139.5t-118 -61.5l-184 320zM1608 604l2 -2l-154 -266q-13 -23 -22.5 -35.5t-25.5 -26.5t-38.5 -20t-52.5 -6h-90v-78l-180 215l180 215v-78h229q26 0 51.5 8.5t43 20.5
t31 24t20.5 21z" />
    <glyph glyph-name="anglebracketleft" unicode="&#x3008;" horiz-adv-x="561" 
d="M467 1700l-223 -983l223 -983h-131l-225 983l225 983h131z" />
    <glyph glyph-name="anglebracketright" unicode="&#x3009;" horiz-adv-x="561" 
d="M317 717l-223 983h131l226 -983l-226 -983h-131z" />
    <glyph glyph-name="aogonek.school" unicode="&#xe150;" horiz-adv-x="907" 
d="M844 848v-610l6 -238q-86 -23 -136.5 -79t-49.5 -140q0 -59 33 -87.5t81 -25.5q66 2 117 43l31 -94q-68 -49 -168 -49q-79 0 -138 44.5t-63 137.5q-14 183 176 289l-8 94q-113 -153 -291 -153q-79 0 -138.5 25t-98 70.5t-62 117t-33.5 155.5t-10 195t10 195t33.5 155.5
t62 117t98 70.5t138.5 25q177 0 291 -154l12 133h113zM713 252v582q-58 75 -118 114t-134 39q-57 0 -98 -20t-67 -55t-41 -92t-20.5 -122t-5.5 -155t5.5 -155t20.5 -122.5t41 -92.5t67 -55t98 -20q74 0 134 39t118 115z" />
    <glyph glyph-name="a.school" unicode="&#xe151;" 
d="M713 252v582q-58 75 -118 114t-134 39q-57 0 -98 -20t-67 -55t-41 -92t-20.5 -122t-5.5 -155t5.5 -155t20.5 -122.5t41 -92.5t67 -55t98 -20q74 0 134 39t118 115zM844 848v-610l6 -238h-113l-12 133q-113 -153 -291 -153q-79 0 -138.5 25t-98 70.5t-62 117t-33.5 155.5
t-10 195t10 195t33.5 155.5t62 117t98 70.5t138.5 25q177 0 291 -154l12 133h113z" />
    <glyph glyph-name="agrave.school" unicode="&#xe152;" 
d="M293 1638h145l103 -426h-125zM713 252v582q-58 75 -118 114t-134 39q-57 0 -98 -20t-67 -55t-41 -92t-20.5 -122t-5.5 -155t5.5 -155t20.5 -122.5t41 -92.5t67 -55t98 -20q74 0 134 39t118 115zM844 848v-610l6 -238h-113l-12 133q-113 -153 -291 -153q-79 0 -138.5 25
t-98 70.5t-62 117t-33.5 155.5t-10 195t10 195t33.5 155.5t62 117t98 70.5t138.5 25q177 0 291 -154l12 133h113z" />
    <glyph glyph-name="aacute.school" unicode="&#xe153;" 
d="M512 1638h145l-122 -426h-125zM713 252v582q-58 75 -118 114t-134 39q-57 0 -98 -20t-67 -55t-41 -92t-20.5 -122t-5.5 -155t5.5 -155t20.5 -122.5t41 -92.5t67 -55t98 -20q74 0 134 39t118 115zM844 848v-610l6 -238h-113l-12 133q-113 -153 -291 -153q-79 0 -138.5 25
t-98 70.5t-62 117t-33.5 155.5t-10 195t10 195t33.5 155.5t62 117t98 70.5t138.5 25q177 0 291 -154l12 133h113z" />
    <glyph glyph-name="acircumflex.school" unicode="&#xe154;" 
d="M301 1212h-108l206 426h152l207 -426h-109l-174 326zM713 252v582q-58 75 -118 114t-134 39q-57 0 -98 -20t-67 -55t-41 -92t-20.5 -122t-5.5 -155t5.5 -155t20.5 -122.5t41 -92.5t67 -55t98 -20q74 0 134 39t118 115zM844 848v-610l6 -238h-113l-12 133
q-113 -153 -291 -153q-79 0 -138.5 25t-98 70.5t-62 117t-33.5 155.5t-10 195t10 195t33.5 155.5t62 117t98 70.5t138.5 25q177 0 291 -154l12 133h113z" />
    <glyph glyph-name="adieresis.school" unicode="&#xe155;" 
d="M385 1528v-156h-156v156h156zM721 1528v-156h-156v156h156zM713 252v582q-58 75 -118 114t-134 39q-57 0 -98 -20t-67 -55t-41 -92t-20.5 -122t-5.5 -155t5.5 -155t20.5 -122.5t41 -92.5t67 -55t98 -20q74 0 134 39t118 115zM844 848v-610l6 -238h-113l-12 133
q-113 -153 -291 -153q-79 0 -138.5 25t-98 70.5t-62 117t-33.5 155.5t-10 195t10 195t33.5 155.5t62 117t98 70.5t138.5 25q177 0 291 -154l12 133h113z" />
    <glyph glyph-name="atilde.school" unicode="&#xe156;" 
d="M688 1536l98 -14q-8 -108 -51.5 -168.5t-120.5 -59.5q-43 1 -84 24t-68 50.5t-60.5 51.5t-63.5 26q-42 1 -59.5 -30.5t-22.5 -94.5l-98 14q6 106 49.5 167.5t120.5 60.5q36 -1 69.5 -16.5t59 -37.5t49 -44t49 -37.5t49.5 -16.5q30 -2 48.5 15t25.5 42.5t10 67.5zM713 252
v582q-58 75 -118 114t-134 39q-57 0 -98 -20t-67 -55t-41 -92t-20.5 -122t-5.5 -155t5.5 -155t20.5 -122.5t41 -92.5t67 -55t98 -20q74 0 134 39t118 115zM844 848v-610l6 -238h-113l-12 133q-113 -153 -291 -153q-79 0 -138.5 25t-98 70.5t-62 117t-33.5 155.5t-10 195
t10 195t33.5 155.5t62 117t98 70.5t138.5 25q177 0 291 -154l12 133h113z" />
    <glyph glyph-name="aring.school" unicode="&#xe157;" 
d="M240 1425q0 105 62.5 170.5t172.5 65.5t173 -65.5t63 -170.5t-63 -170t-173 -65t-172.5 65t-62.5 170zM621 1425q0 71 -38 111.5t-108 40.5t-107.5 -40.5t-37.5 -111.5t37.5 -111t107.5 -40t108 40t38 111zM713 252v582q-58 75 -118 114t-134 39q-57 0 -98 -20t-67 -55
t-41 -92t-20.5 -122t-5.5 -155t5.5 -155t20.5 -122.5t41 -92.5t67 -55t98 -20q74 0 134 39t118 115zM844 848v-610l6 -238h-113l-12 133q-113 -153 -291 -153q-79 0 -138.5 25t-98 70.5t-62 117t-33.5 155.5t-10 195t10 195t33.5 155.5t62 117t98 70.5t138.5 25
q177 0 291 -154l12 133h113z" />
    <glyph glyph-name="amacron.school" unicode="&#xe159;" 
d="M266 1393v120h418v-120h-418zM713 252v582q-58 75 -118 114t-134 39q-57 0 -98 -20t-67 -55t-41 -92t-20.5 -122t-5.5 -155t5.5 -155t20.5 -122.5t41 -92.5t67 -55t98 -20q74 0 134 39t118 115zM844 848v-610l6 -238h-113l-12 133q-113 -153 -291 -153q-79 0 -138.5 25
t-98 70.5t-62 117t-33.5 155.5t-10 195t10 195t33.5 155.5t62 117t98 70.5t138.5 25q177 0 291 -154l12 133h113z" />
    <glyph glyph-name="abreve.school" unicode="&#xe15a;" 
d="M475 1223q-71 0 -122 20t-81.5 53.5t-48 88t-23.5 113.5t-5 140h104q-2 -160 34.5 -231.5t141.5 -71.5t141.5 71.5t34.5 231.5h105q1 -81 -5 -140t-23.5 -113.5t-48.5 -88t-82 -53.5t-122 -20zM713 252v582q-58 75 -118 114t-134 39q-57 0 -98 -20t-67 -55t-41 -92
t-20.5 -122t-5.5 -155t5.5 -155t20.5 -122.5t41 -92.5t67 -55t98 -20q74 0 134 39t118 115zM844 848v-610l6 -238h-113l-12 133q-113 -153 -291 -153q-79 0 -138.5 25t-98 70.5t-62 117t-33.5 155.5t-10 195t10 195t33.5 155.5t62 117t98 70.5t138.5 25q177 0 291 -154
l12 133h113z" />
    <glyph glyph-name="cordinal" unicode="&#xe181;" horiz-adv-x="780" 
d="M84 1198q0 223 77.5 322.5t241.5 99.5q76 0 130 -20.5t82.5 -57.5t41 -80.5t11.5 -97.5l-115 -16q0 85 -33.5 131.5t-116.5 46.5q-48 -1 -83.5 -17.5t-63 -53.5t-41.5 -101t-14 -156t14 -156t41.5 -101t63 -53.5t83.5 -17.5q82 0 116 47t34 132l115 -17
q1 -54 -11.5 -97.5t-41 -80.5t-82.5 -57.5t-130 -20.5q-164 0 -241.5 99.5t-77.5 322.5z" />
    <glyph glyph-name="ordfeminine.school" unicode="&#xe182;" horiz-adv-x="747" 
d="M649 1597l-4 -143v-512l4 -143h-98l-12 96q-70 -119 -199 -119q-127 0 -196.5 107t-69.5 315t69.5 315t196.5 107q129 0 199 -119l12 96h98zM528 995v406q-66 106 -161 106q-177 0 -177 -309t177 -309q95 0 161 106z" />
    <glyph glyph-name="fi" unicode="&#xe38c;" horiz-adv-x="976" 
d="M61 973v112h125v361q0 213 246 213q74 0 131 -21l-10 -116q-53 20 -104 20q-67 0 -99.5 -24.5t-32.5 -94.5v-338h215v-112h-215v-973h-131v973h-125zM727 0v1085h131v-1085h-131zM870 1528v-156h-155v156h155z" />
    <glyph glyph-name="fi" unicode="&#xfb01;" horiz-adv-x="976" 
d="M61 973v112h125v361q0 213 246 213q74 0 131 -21l-10 -116q-53 20 -104 20q-67 0 -99.5 -24.5t-32.5 -94.5v-338h215v-112h-215v-973h-131v973h-125zM727 0v1085h131v-1085h-131zM870 1528v-156h-155v156h155z" />
    <glyph glyph-name="fl" unicode="&#xe38d;" horiz-adv-x="976" 
d="M61 973v112h125v361q0 213 246 213q74 0 131 -21l-10 -116q-53 20 -104 20q-67 0 -99.5 -24.5t-32.5 -94.5v-338h215v-112h-215v-973h-131v973h-125zM727 0v1638h131v-1638h-131z" />
    <glyph glyph-name="fl" unicode="&#xfb02;" horiz-adv-x="976" 
d="M61 973v112h125v361q0 213 246 213q74 0 131 -21l-10 -116q-53 20 -104 20q-67 0 -99.5 -24.5t-32.5 -94.5v-338h215v-112h-215v-973h-131v973h-125zM727 0v1638h131v-1638h-131z" />
    <glyph glyph-name="invertedbreve" unicode="&#xe411;" horiz-adv-x="1269" 
d="M635 1628q71 0 122 -20t81.5 -53.5t48 -88.5t23.5 -114t5 -140h-104q2 160 -34.5 232t-141.5 72t-141.5 -72t-34.5 -232h-105q-1 81 5 140t23.5 114t48.5 88.5t82 53.5t122 20z" />
    <glyph glyph-name="doublegrave" unicode="&#xe412;" horiz-adv-x="1269" 
d="M573 1638h146l104 -426h-123zM317 1638h148l104 -426h-123z" />
    <glyph glyph-name="caronSlovak" unicode="&#xe413;" horiz-adv-x="1269" 
d="M737 1638h123l-49 -426h-74v426z" />
    <glyph glyph-name="commaaccent" unicode="&#xe414;" horiz-adv-x="1269" 
d="M559 -82h154l-66 -328h-108z" />
    <glyph glyph-name="commaaccent" unicode="&#xf6c3;" horiz-adv-x="1269" 
d="M559 -82h154l-66 -328h-108z" />
    <glyph glyph-name="dotbelow" unicode="&#xe415;" horiz-adv-x="1269" 
d="M713 -254v-156h-156v156h156z" />
    <glyph glyph-name="altcedilla" unicode="&#xe416;" horiz-adv-x="1269" 
d="M520 -141l25 69q159 -12 232.5 -61.5t70.5 -130.5q-1 -85 -66.5 -126.5t-167.5 -41.5q-55 0 -106 11.5t-76 25.5l27 80q53 -31 119 -35q73 -2 113 18.5t40 73.5q0 22 -8 39.5t-27 29.5t-34 19.5t-46.5 13.5t-46 8.5t-49.5 6.5z" />
    <glyph glyph-name="exclamdown.cap" unicode="&#xe441;" horiz-adv-x="372" 
d="M109 1442v155h155v-155h-155zM276 0h-180l45 1184h90z" />
    <glyph glyph-name="questiondown.cap" unicode="&#xe444;" horiz-adv-x="905" 
d="M420 1184h94q53 -128 53 -232q0 -93 -37 -148.5t-118 -103.5q-44 -28 -68 -45.5t-53 -46t-42.5 -57.5t-23.5 -71.5t-10 -96.5q0 -159 57.5 -222t180.5 -63q138 0 190.5 74t52.5 248l133 -19q0 -226 -84.5 -325t-291.5 -99q-199 0 -288 90t-89 310q0 72 13.5 129.5
t32.5 94t54 71t61.5 53.5t72.5 48l24 15q66 45 91 84.5t28 100.5q3 78 -33 211zM391 1442v155h156v-155h-156z" />
    <glyph glyph-name="guilsinglleft.cap" unicode="&#xe451;" horiz-adv-x="655" 
d="M532 557v-125l-426 322v90l426 321v-125l-294 -241z" />
    <glyph glyph-name="guilsinglright.cap" unicode="&#xe452;" horiz-adv-x="655" 
d="M123 432v125l295 242l-295 241v125l426 -321v-90z" />
    <glyph glyph-name="guillemotleft.cap" unicode="&#xe453;" horiz-adv-x="1087" 
d="M532 557v-125l-426 322v90l426 321v-125l-294 -241zM965 557v-125l-426 322v90l426 321v-125l-297 -241z" />
    <glyph glyph-name="guillemotright.cap" unicode="&#xe454;" horiz-adv-x="1087" 
d="M555 432v125l295 242l-295 241v125l426 -321v-90zM123 432v125l295 242l-295 241v125l426 -321v-90z" />
    <glyph glyph-name="slash.cap" unicode="&#xe461;" horiz-adv-x="655" 
d="M600 1638l-401 -1679h-144l402 1679h143z" />
    <glyph glyph-name="backslash.cap" unicode="&#xe462;" horiz-adv-x="655" 
d="M457 -41l-402 1679h144l401 -1679h-143z" />
    <glyph glyph-name="bar.cap" unicode="&#xe463;" horiz-adv-x="577" 
d="M356 1638v-1679h-135v1679h135z" />
    <glyph glyph-name="doublebar.cap" unicode="&#xe464;" horiz-adv-x="813" 
d="M362 1638v-1679h-137v1679h137zM590 1638v-1679h-139v1679h139z" />
    <glyph glyph-name="brokenbar.cap" unicode="&#xe465;" horiz-adv-x="587" 
d="M362 743v-784h-137v784h137zM362 1638v-784h-137v784h137z" />
    <glyph glyph-name="bullet.cap" unicode="&#xe466;" horiz-adv-x="833" 
d="M698 1079v-561h-563v561h563z" />
    <glyph glyph-name="onethirdemdash" unicode="&#xe471;" horiz-adv-x="722" 
d="M602 625h-481v123h481v-123z" />
    <glyph glyph-name="threequarteremdash" unicode="&#xe472;" horiz-adv-x="1576" 
d="M1456 625h-1335v123h1335v-123z" />
    <glyph glyph-name="periodcentered.cap" unicode="&#xe481;" horiz-adv-x="493" 
d="M334 887v-176h-176v176h176z" />
    <glyph glyph-name="hyphen.cap" unicode="&#xe482;" horiz-adv-x="792" 
d="M672 735h-551v125h551v-125z" />
    <glyph glyph-name="onethirdemdash.cap" unicode="&#xe483;" horiz-adv-x="722" 
d="M602 735h-481v125h481v-125z" />
    <glyph glyph-name="endash.cap" unicode="&#xe484;" horiz-adv-x="1064" 
d="M944 735h-823v125h823v-125z" />
    <glyph glyph-name="threequarteremdash.cap" unicode="&#xe485;" horiz-adv-x="1576" 
d="M1456 735h-1335v125h1335v-125z" />
    <glyph glyph-name="emdash.cap" unicode="&#xe486;" horiz-adv-x="2088" 
d="M1968 735h-1847v125h1847v-125z" />
    <glyph glyph-name="figuredash.cap" unicode="&#xe487;" horiz-adv-x="1474" 
d="M1354 735h-1233v125h1233v-125z" />
    <glyph glyph-name="uni2015.cap" unicode="&#xe488;" horiz-adv-x="2908" 
d="M2787 735h-2666v125h2666v-125z" />
    <glyph glyph-name="parenleft.cap" unicode="&#xe491;" horiz-adv-x="561" 
d="M250 799q0 -287 52.5 -512.5t164.5 -470.5h-131q-98 167 -161.5 431t-63.5 552t63.5 552t161.5 431h131q-112 -245 -164.5 -470.5t-52.5 -512.5z" />
    <glyph glyph-name="parenright.cap" unicode="&#xe492;" horiz-adv-x="561" 
d="M311 799q0 287 -52.5 512.5t-164.5 470.5h131q98 -168 162 -431.5t64 -551.5t-64 -551.5t-162 -431.5h-131q112 245 164.5 470.5t52.5 512.5z" />
    <glyph glyph-name="bracketleft.cap" unicode="&#xe493;" horiz-adv-x="561" 
d="M516 1661h-174v-1724h174v-121h-311v1966h311v-121z" />
    <glyph glyph-name="bracketright.cap" unicode="&#xe494;" horiz-adv-x="561" 
d="M45 -63h174v1724h-174v121h311v-1966h-311v121z" />
    <glyph glyph-name="braceleft.cap" unicode="&#xe495;" horiz-adv-x="638" 
d="M602 -63v-121h-67q-81 0 -140.5 18.5t-93 47t-53 72.5t-25.5 84.5t-6 92.5v426q0 105 -33.5 142.5t-109.5 37.5h-41v123h41q77 0 110 37.5t33 144.5v424q0 52 6 92.5t25.5 84.5t53 72.5t93 47.5t140.5 19h67v-121h-76q-81 0 -127.5 -40t-46.5 -144v-441q0 -79 -27 -145
t-85 -92q58 -26 85 -92.5t27 -145.5v-440q0 -104 46.5 -144t127.5 -40h76z" />
    <glyph glyph-name="braceright.cap" unicode="&#xe496;" horiz-adv-x="638" 
d="M109 1661h-74v121h65q81 0 140.5 -19t93 -47.5t53 -72.5t25.5 -84.5t6 -92.5v-426q0 -105 34 -142.5t109 -37.5h41v-123h-41q-76 0 -109.5 -37.5t-33.5 -144.5v-424q0 -52 -6 -92.5t-25.5 -84.5t-53 -72.5t-93 -47t-140.5 -18.5h-65v121h74q82 0 128 40t46 144v440
q0 79 27 145.5t85 92.5q-58 26 -85 92t-27 145v441q0 104 -46 144t-128 40z" />
    <glyph glyph-name="anglebracketleft.cap" unicode="&#xe497;" horiz-adv-x="561" 
d="M467 1782l-223 -983l223 -983h-131l-225 983l225 983h131z" />
    <glyph glyph-name="anglebracketright.cap" unicode="&#xe498;" horiz-adv-x="561" 
d="M317 799l-223 983h131l226 -983l-226 -983h-131z" />
    <glyph glyph-name="lowline" unicode="&#xe511;" horiz-adv-x="675" 
d="M614 0h-553v109h553v-109z" />
    <glyph glyph-name="underscoremonospace" unicode="&#xe512;" horiz-adv-x="1460" 
d="M1399 -410h-1338v109h1338v-109z" />
    <glyph glyph-name="underscoremonospace" unicode="&#xff3f;" horiz-adv-x="1460" 
d="M1399 -410h-1338v109h1338v-109z" />
    <glyph glyph-name="at.cap" unicode="&#xe513;" horiz-adv-x="1851" 
d="M1141 582v444q-111 156 -252 156q-69 0 -116 -26.5t-72.5 -79t-35.5 -117.5t-10 -156q0 -90 10 -154.5t35.5 -117t72.5 -79t116 -26.5q141 0 252 156zM1255 328h-90l-12 133q-55 -76 -129 -116t-158 -40q-82 0 -143 23.5t-99.5 65t-62 105.5t-32.5 136.5t-9 167.5
t9 167.5t32.5 136.5t62 105t99.5 64.5t143 23.5q175 0 289 -153l10 133h113l-4 -225v-611q87 0 149.5 25.5t101 69t61 115.5t30.5 151.5t8 189.5q0 90 -6.5 162.5t-25 149.5t-49.5 135t-83 111t-122.5 87t-170.5 54t-225 20q-165 0 -285.5 -35.5t-202 -104t-130.5 -181.5
t-70 -256t-21 -338q0 -122 8 -221t25.5 -188t46.5 -158t71 -127t98.5 -98.5t130 -69t164.5 -41.5t202 -13q217 0 356 31.5t293 95.5l49 -110q-76 -32 -136 -52.5t-145.5 -41.5t-189 -31.5t-227.5 -10.5q-244 0 -410 57t-272 184t-152.5 319.5t-46.5 474.5q0 372 86.5 598
t270.5 331t487 105q190 0 333 -43t233 -116t146 -182.5t77.5 -228.5t21.5 -268q0 -340 -113.5 -503.5t-384.5 -163.5z" />
    <glyph glyph-name="registered.superior" unicode="&#xe514;" horiz-adv-x="716" 
d="M51 1311q0 127 90.5 217t216.5 90q128 0 218 -90t90 -217q0 -126 -90.5 -216.5t-217.5 -90.5q-126 0 -216.5 90.5t-90.5 216.5zM102 1311q0 -106 75 -181t181 -75q107 0 182.5 75t75.5 181q0 107 -75.5 182.5t-182.5 75.5q-106 0 -181 -75.5t-75 -182.5zM276 1274v-144
h-49v363h148q121 0 121 -111q0 -86 -80 -104l90 -148h-62l-82 144h-86zM276 1321h105q13 0 22 1.5t19.5 7t16 19t5.5 33.5q0 27 -11 42t-22.5 17.5t-29.5 2.5h-105v-123z" />
    <glyph glyph-name="numbersign.LP" unicode="&#xe533;" horiz-adv-x="1064" 
d="M178 1024v123h166l72 418h119l-70 -418h256l72 418h120l-71 -418h137v-123h-158l-82 -483h148v-123h-168l-70 -418h-121l70 418h-256l-72 -418h-118l69 418h-135v123h156l82 483h-146zM442 1024l-80 -483h259l79 483h-258z" />
    <glyph glyph-name="zero.LP" unicode="&#xe534;" horiz-adv-x="1093" 
d="M547 100q49 0 84.5 5.5t67.5 20t53 37t39 61t28.5 87t18 119t10 154t2.5 194.5q0 151 -5 253.5t-18.5 183t-34 126.5t-56.5 75.5t-79.5 39.5t-109.5 10q-65 0 -109 -10t-79.5 -39t-56 -74.5t-34.5 -125t-19 -181t-5 -250.5q0 -129 4 -221.5t12 -168.5t24.5 -124.5t38 -84
t55.5 -53.5t73.5 -26t95.5 -8zM547 1585q91 0 154 -13.5t114.5 -49t82.5 -91.5t52 -148.5t29 -212t8 -288.5t-8 -288.5t-29 -212t-52 -148.5t-82.5 -91.5t-114.5 -48.5t-154 -13t-154 13t-114 49t-82 91.5t-51.5 148t-28.5 212t-8 288.5t8 288.5t28.5 212t51.5 148.5t82 92
t114 49t154 13z" />
    <glyph glyph-name="one.LP" unicode="&#xe536;" horiz-adv-x="755" 
d="M508 1585l2 -1585h-135l-2 1386q-96 -126 -258 -202v129q150 81 280 272h113z" />
    <glyph glyph-name="two.LP" unicode="&#xe537;" horiz-adv-x="1009" 
d="M498 1466q-146 0 -200 -70.5t-54 -228.5l-133 19q1 99 17.5 167.5t58.5 123.5t119.5 81.5t193.5 26.5q113 0 188 -26t117 -82t59 -131t17 -185q0 -76 -16 -137.5t-41 -105.5t-75 -90t-97 -78.5t-128 -83.5q-52 -32 -90.5 -60t-69.5 -57.5t-51.5 -54.5t-35.5 -58.5
t-23.5 -62t-13 -72t-6 -82.5t-1.5 -98h680v-121h-821q0 131 4 214.5t20.5 159t37.5 120t67.5 94t97.5 86.5t140 92q175 108 232 185.5t57 203.5q0 170 -51 240.5t-199 70.5z" />
    <glyph glyph-name="three.LP" unicode="&#xe538;" horiz-adv-x="950" 
d="M459 98q153 0 222 76.5t69 241.5q0 83 -16 143.5t-40.5 94.5t-60.5 54t-67.5 25.5t-71.5 5.5h-158v125h158q36 0 65 6t60.5 24.5t52.5 49.5t35 86t14 129q0 170 -55.5 238.5t-202.5 68.5q-144 0 -199 -74.5t-55 -236.5l-131 19q1 98 17.5 168t58 127.5t119 86.5t192.5 29
q216 0 302.5 -91.5t86.5 -319.5q0 -301 -199 -367q230 -63 230 -404q0 -209 -100.5 -316t-327.5 -107q-92 0 -161.5 20.5t-113.5 56.5t-71 89.5t-37.5 113.5t-10.5 135l132 19q0 -74 11 -127.5t39 -98.5t81.5 -67.5t132.5 -22.5z" />
    <glyph glyph-name="four.LP" unicode="&#xe539;" horiz-adv-x="989" 
d="M922 373h-185v-373h-125v373h-546v121l516 1091h155v-1093h185v-119zM612 492l9 907l-433 -914z" />
    <glyph glyph-name="five.LP" unicode="&#xe53a;" horiz-adv-x="964" 
d="M467 98q146 0 213.5 99.5t67.5 308.5q0 152 -30.5 243.5t-82 126.5t-131.5 35q-88 0 -152.5 -44.5t-99.5 -104.5l-121 20l31 783h680v-121h-563l-25 -551q106 135 276 135q84 0 146 -25.5t109.5 -84.5t71.5 -162t24 -250q0 -269 -101.5 -397.5t-314.5 -128.5
q-204 0 -290.5 95.5t-86.5 323.5l133 21q2 -184 52.5 -253t193.5 -69z" />
    <glyph glyph-name="six.LP" unicode="&#xe53b;" horiz-adv-x="1003" 
d="M539 1468q-50 0 -89 -9t-69.5 -31t-53 -50t-38 -74t-25 -95.5t-15 -121.5t-7.5 -144.5t-2 -172.5q119 227 368 227q169 0 247.5 -121.5t78.5 -386.5q0 -129 -21 -221t-68 -158t-126.5 -98t-194.5 -32q-87 0 -150 16.5t-110.5 57t-77.5 99.5t-49 152.5t-26 206t-7 270.5
q0 129 5 225.5t17.5 184t34 148t54.5 109.5t79.5 77.5t108 43.5t140.5 15q185 0 276 -80.5t92 -263.5l-133 -20q-1 137 -63 192t-176 55zM557 877q-108 0 -181 -63t-134 -189q0 -207 29.5 -322.5t88.5 -161t162 -45.5q150 0 213.5 88.5t63.5 302.5q0 213 -59 301.5
t-183 88.5z" />
    <glyph glyph-name="seven.LP" unicode="&#xe53c;" horiz-adv-x="882" 
d="M365 0h-142l357 1143l102 303l-236 -2h-372v121h743v-92z" />
    <glyph glyph-name="eight.LP" unicode="&#xe53d;" horiz-adv-x="974" 
d="M487 1464q-141 0 -198.5 -67t-57.5 -240q0 -163 66 -230t190 -67q123 0 189.5 67.5t66.5 229.5q0 172 -58 239.5t-198 67.5zM487 745q-66 0 -114 -14.5t-87 -50.5t-59 -102t-20 -162q0 -166 68 -242t212 -76q142 0 210.5 76t68.5 242q0 96 -20 162t-59 102t-87 50.5
t-113 14.5zM487 -20q-216 0 -313.5 107.5t-97.5 311.5q0 87 15.5 156t37 109.5t55.5 71.5t58.5 44.5t58.5 26.5q-85 24 -143 116.5t-58 245.5q0 226 89 321t298 95t298 -95t89 -321q0 -154 -57.5 -246t-142.5 -116q34 -13 58 -26.5t57.5 -44.5t55 -71.5t37 -109.5t15.5 -156
q0 -204 -97 -311.5t-313 -107.5z" />
    <glyph glyph-name="nine.LP" unicode="&#xe53e;" horiz-adv-x="1003" 
d="M457 96q68 0 117 16t83.5 54.5t55.5 89.5t33 135.5t16 176.5t4 227q-120 -228 -367 -228q-168 0 -247.5 122t-79.5 386q0 129 20.5 221t67.5 158.5t126.5 98.5t194.5 32q65 0 116 -9.5t93 -31t73.5 -53.5t55 -80.5t39 -107.5t25.5 -140t14 -172.5t4 -208.5
q0 -181 -11.5 -304.5t-40 -224t-79.5 -157.5t-128.5 -86.5t-188.5 -29.5q-188 0 -283 81t-96 263l133 20q1 -71 20 -120.5t54 -77t78 -39t98 -11.5zM449 688q108 0 180 62.5t135 189.5q0 207 -30.5 322.5t-89.5 160.5t-163 45q-149 0 -211.5 -88.5t-62.5 -302.5
q0 -144 28 -231t79.5 -122.5t134.5 -35.5z" />
    <glyph glyph-name="zero.inf" unicode="&#xe571;" horiz-adv-x="706" 
d="M354 -322q58 0 85.5 26.5t37.5 90t10 197.5q0 86 -3 138t-10.5 92.5t-23 59.5t-38 28t-58.5 9q-35 0 -57.5 -8.5t-38 -27.5t-23.5 -57t-11 -88.5t-3 -131.5q0 -86 3 -138t10.5 -92.5t23 -60t38 -28.5t58.5 -9zM354 420q101 0 152.5 -36.5t72.5 -124t21 -259.5t-21 -260
t-72.5 -125t-152.5 -37q-76 0 -121.5 18t-74.5 68.5t-39 128t-10 207.5t10 207.5t39 127t74.5 67.5t121.5 18z" />
    <glyph glyph-name="one.inf" unicode="&#xe572;" horiz-adv-x="575" 
d="M471 -410h-342v101h117v571q-50 -56 -129 -88v111q81 40 149 135h90v-729h115v-101z" />
    <glyph glyph-name="two.inf" unicode="&#xe573;" horiz-adv-x="643" 
d="M319 322q-60 0 -82 -33.5t-22 -114.5l-113 14q0 120 45.5 176t174.5 56q121 0 167 -52t46 -173q0 -51 -10 -87t-38 -68.5t-55.5 -53.5t-85.5 -60q-89 -58 -112 -100t-23 -135h336v-101h-455q0 106 5 161.5t29 103.5t57 76t104 75q81 52 108 87.5t27 94.5
q0 73 -21.5 103.5t-81.5 30.5z" />
    <glyph glyph-name="three.inf" unicode="&#xe574;" horiz-adv-x="593" 
d="M291 -324q66 0 95.5 34.5t29.5 107.5q0 84 -31.5 112.5t-85.5 28.5h-74v100h74q44 0 69 26.5t25 102.5q0 75 -22 104.5t-82 29.5q-62 0 -84.5 -34t-22.5 -114l-108 14q0 120 44.5 176t170.5 56q119 0 168 -49.5t49 -171.5q0 -149 -94 -187q116 -28 116 -205
q0 -112 -55.5 -170.5t-185.5 -58.5t-177 60t-47 178l109 14q0 -78 26 -116t93 -38z" />
    <glyph glyph-name="four.inf" unicode="&#xe575;" horiz-adv-x="618" 
d="M551 -223h-92v-187h-107v187h-286v82l270 561h123v-543h92v-100zM352 -123l6 399l-190 -403z" />
    <glyph glyph-name="five.inf" unicode="&#xe576;" horiz-adv-x="620" 
d="M305 -324q61 0 90 44.5t29 138.5q0 103 -26 143.5t-79 40.5q-40 0 -71.5 -21.5t-44.5 -50.5l-97 15l19 422h387v-101h-291l-10 -235q53 65 141 65q92 0 138.5 -62t46.5 -216q0 -150 -55.5 -215.5t-178.5 -65.5q-119 0 -167 53t-48 181l113 14q2 -86 24 -118t80 -32z" />
    <glyph glyph-name="six.inf" unicode="&#xe577;" horiz-adv-x="645" 
d="M348 322q-77 0 -104 -67t-27 -237q62 107 189 107q89 0 129 -64.5t40 -205.5q0 -140 -53.5 -208.5t-179.5 -68.5q-143 0 -190.5 90t-47.5 332q0 116 10 189.5t37.5 128.5t77 78.5t127.5 23.5q109 0 157.5 -45.5t51.5 -149.5l-112 -14q0 63 -26 87t-79 24zM356 27
q-48 0 -79 -27.5t-58 -83.5q0 -138 28 -189t93 -51q66 0 94.5 40.5t28.5 136.5q0 95 -25 134.5t-82 39.5z" />
    <glyph glyph-name="seven.inf" unicode="&#xe578;" horiz-adv-x="561" 
d="M272 -410h-120l176 564l53 155l-121 -2h-186v101h422v-70z" />
    <glyph glyph-name="eight.inf" unicode="&#xe579;" horiz-adv-x="608" 
d="M303 319q-57 0 -80.5 -29.5t-23.5 -103.5q0 -70 27 -99.5t77 -29.5q51 0 78 29.5t27 99.5q0 74 -23.5 103.5t-81.5 29.5zM303 -37q-58 0 -88.5 -31t-30.5 -114q0 -72 29 -106t90 -34q63 0 91 33.5t28 106.5q0 83 -30.5 114t-88.5 31zM303 -422q-123 0 -175 57t-52 168
q0 168 106 209q-40 14 -66 63t-26 124q0 120 48.5 170.5t164.5 50.5q117 0 165 -50.5t48 -170.5q0 -75 -26 -124t-66 -63q106 -41 106 -209q0 -111 -52 -168t-175 -57z" />
    <glyph glyph-name="nine.inf" unicode="&#xe57a;" horiz-adv-x="643" 
d="M293 -324q82 0 109.5 66t27.5 240q-63 -109 -184 -109q-89 0 -131.5 65.5t-42.5 204.5q0 141 53 209t180 68q73 0 118.5 -20.5t72 -73t36 -128t9.5 -198.5q0 -116 -10.5 -190.5t-38.5 -129.5t-78 -78.5t-129 -23.5q-111 0 -160.5 45.5t-50.5 149.5l110 14q1 -63 28.5 -87
t80.5 -24zM291 -29q48 0 79 27.5t58 83.5q0 138 -28 189t-95 51q-65 0 -93 -40t-28 -135q0 -96 25 -136t82 -40z" />
    <glyph glyph-name="plus.inf" unicode="&#xe57b;" horiz-adv-x="819" 
d="M354 -287v252h-252v113h252v250h113v-250h250v-113h-250v-252h-113z" />
    <glyph glyph-name="minus.inf" unicode="&#xe57c;" horiz-adv-x="819" 
d="M717 -35h-615v113h615v-113z" />
    <glyph glyph-name="equal.inf" unicode="&#xe57d;" horiz-adv-x="819" 
d="M717 -158h-615v113h615v-113zM717 88h-615v113h615v-113z" />
    <glyph glyph-name="parenleft.inf" unicode="&#xe57e;" horiz-adv-x="471" 
d="M260 -6q0 -131 28.5 -272t73.5 -246h-112q-117 247 -117 518t117 518h112q-45 -105 -73.5 -246t-28.5 -272z" />
    <glyph glyph-name="parenright.inf" unicode="&#xe57f;" horiz-adv-x="471" 
d="M213 -6q0 130 -29 271t-75 247h114q117 -247 117 -518t-117 -518h-114q46 106 75 247t29 271z" />
    <glyph glyph-name="plus.cap" unicode="&#xe591;" horiz-adv-x="1802" 
d="M838 0v737h-736v123h736v737h127v-737h735v-123h-735v-737h-127z" />
    <glyph glyph-name="minus.cap" unicode="&#xe592;" horiz-adv-x="1802" 
d="M1700 737h-1598v123h1598v-123z" />
    <glyph glyph-name="multiply.cap" unicode="&#xe593;" horiz-adv-x="1802" 
d="M80 66l733 733l-733 733l88 88l733 -733l733 733l88 -88l-733 -733l733 -733l-88 -89l-733 734l-733 -734z" />
    <glyph glyph-name="divide.cap" unicode="&#xe594;" horiz-adv-x="1802" 
d="M989 174v-174h-176v174h176zM989 1597v-174h-176v174h176zM1700 737h-1598v123h1598v-123z" />
    <glyph glyph-name="equal.cap" unicode="&#xe595;" horiz-adv-x="1802" 
d="M1700 1032h-1598v123h1598v-123zM1700 442h-1598v123h1598v-123z" />
    <glyph glyph-name="less.cap" unicode="&#xe596;" horiz-adv-x="1802" 
d="M1700 -23l-1598 764v115l1598 764v-137l-1141 -543l-303 -141l303 -142l1141 -542v-138z" />
    <glyph glyph-name="greater.cap" unicode="&#xe597;" horiz-adv-x="1802" 
d="M102 1620l1598 -764v-115l-1598 -764v138l1141 542l303 142l-303 141l-1141 543v137z" />
    <glyph glyph-name="idotaccent" horiz-adv-x="368" 
d="M119 0v1085h131v-1085h-131zM262 1528v-156h-156v156h156z" />
    <glyph glyph-name="f_dotlessi" horiz-adv-x="976" 
d="M61 973v112h125v361q0 213 246 213q74 0 131 -21l-10 -116q-53 20 -104 20q-67 0 -99.5 -24.5t-32.5 -94.5v-338h215v-112h-215v-973h-131v973h-125zM727 0v1085h131v-1085h-131z" />
    <glyph glyph-name="interrobangdown.cap" horiz-adv-x="907" 
d="M328 801l73 43l13 340h90l41 -1075q84 23 117.5 96t33.5 215l133 -19q0 -226 -84 -325t-292 -99q-200 0 -288.5 90t-88.5 310q0 75 13.5 135t33.5 99.5t54 74t64 56.5t74 51q9 5 13 8zM217 383q0 -133 38 -197t118 -82l22 590q-47 -31 -75.5 -55t-54 -60t-37 -83.5
t-11.5 -112.5zM381 1442v155h156v-155h-156z" />
    <glyph glyph-name="period.T" horiz-adv-x="532" 
d="M344 156v-156h-156v156h156z" />
    <glyph glyph-name="comma.T" horiz-adv-x="532" 
d="M186 156h162l-94 -469h-96z" />
    <glyph glyph-name="colon.T" horiz-adv-x="532" 
d="M344 156v-156h-156v156h156zM344 907v-155h-156v155h156z" />
    <glyph glyph-name="semicolon.T" horiz-adv-x="532" 
d="M344 907v-155h-156v155h156zM186 156h162l-94 -469h-96z" />
    <glyph glyph-name="musicnaturalsign" horiz-adv-x="819" 
d="M264 1055l395 317v-1474h-104v645l-395 -318v1475h104v-645zM264 891v-420l291 234v421z" />
    <glyph glyph-name="circle" horiz-adv-x="1527" 
d="M201 543q0 153 75.5 282.5t205 205t282.5 75.5t282.5 -75.5t205 -205t75.5 -282.5t-75.5 -282.5t-205 -205t-282.5 -75.5t-282.5 75.5t-205 205t-75.5 282.5z" />
    </font>
</defs>
</svg>
